<?xml version="1.0" encoding="UTF-8" standalone="no"?>
<!DOCTYPE svg PUBLIC "-//W3C//DTD SVG 1.1//EN"
 "http://www.w3.org/Graphics/SVG/1.1/DTD/svg11.dtd">
<!-- Generated by graphviz version 2.40.1 (20161225.0304)
 -->
<!-- Title: oneDegreeRelationshipsDiagramImplied Pages: 1 -->
<svg width="707pt" height="514pt"
 viewBox="0.00 0.00 707.00 514.20" xmlns="http://www.w3.org/2000/svg" xmlns:xlink="http://www.w3.org/1999/xlink">
<g id="graph0" class="graph" transform="scale(1 1) rotate(0) translate(4 510.2)">
<title>oneDegreeRelationshipsDiagramImplied</title>
<polygon fill="#ffffff" stroke="transparent" points="-4,4 -4,-510.2 703,-510.2 703,4 -4,4"/>
<text text-anchor="middle" x="72.4936" y="-7.3" font-family="Helvetica,sans-Serif" font-size="11.00" fill="#000000">Generated by SchemaSpy</text>
<!-- alocacoes_aulas -->
<g id="node1" class="node">
<title>alocacoes_aulas</title>
<g id="a_node1"><a xlink:href="../../tables/alocacoes_aulas.html" xlink:title="alocacoes_aulas" target="_top">
<polygon fill="#ffffff" stroke="transparent" points="286,-38.2 286,-502.2 691,-502.2 691,-38.2 286,-38.2"/>
<polygon fill="#f5f5f5" stroke="transparent" points="288.5,-477.2 288.5,-500.2 689.5,-500.2 689.5,-477.2 288.5,-477.2"/>
<polygon fill="none" stroke="#000000" points="288.5,-477.2 288.5,-500.2 689.5,-500.2 689.5,-477.2 288.5,-477.2"/>
<text text-anchor="start" x="293.5" y="-485.8" font-family="Helvetica,sans-Serif" font-weight="bold" font-size="11.00" fill="#000000">alocacoes_aulas</text>
<text text-anchor="start" x="654.5437" y="-485.3" font-family="Helvetica,sans-Serif" font-size="11.00" fill="#000000">[table]</text>
<polygon fill="none" stroke="#000000" points="288.5,-455.2 288.5,-477.2 478.5,-477.2 478.5,-455.2 288.5,-455.2"/>
<text text-anchor="start" x="308.5" y="-462.3" font-family="Helvetica,sans-Serif" font-size="11.00" fill="#000000">sistema</text>
<polygon fill="none" stroke="#000000" points="478.5,-455.2 478.5,-477.2 689.5,-477.2 689.5,-455.2 478.5,-455.2"/>
<text text-anchor="start" x="481.5" y="-462.9" font-family="Helvetica,sans-Serif" font-size="11.00" fill="#000000">int4[10]</text>
<polygon fill="none" stroke="#000000" points="288.5,-433.2 288.5,-455.2 478.5,-455.2 478.5,-433.2 288.5,-433.2"/>
<text text-anchor="start" x="308.5" y="-440.3" font-family="Helvetica,sans-Serif" font-size="11.00" fill="#000000">tipo_registro</text>
<polygon fill="none" stroke="#000000" points="478.5,-433.2 478.5,-455.2 689.5,-455.2 689.5,-433.2 478.5,-433.2"/>
<text text-anchor="start" x="481.5" y="-440.9" font-family="Helvetica,sans-Serif" font-size="11.00" fill="#000000">text[2147483647]</text>
<polygon fill="none" stroke="#000000" points="288.5,-411.2 288.5,-433.2 478.5,-433.2 478.5,-411.2 288.5,-411.2"/>
<text text-anchor="start" x="308.5" y="-418.3" font-family="Helvetica,sans-Serif" font-size="11.00" fill="#000000">id_integracao</text>
<polygon fill="none" stroke="#000000" points="478.5,-411.2 478.5,-433.2 689.5,-433.2 689.5,-411.2 478.5,-411.2"/>
<text text-anchor="start" x="481.5" y="-418.9" font-family="Helvetica,sans-Serif" font-size="11.00" fill="#000000">varchar[2147483647]</text>
<polygon fill="none" stroke="#000000" points="288.5,-389.2 288.5,-411.2 478.5,-411.2 478.5,-389.2 288.5,-389.2"/>
<text text-anchor="start" x="308.5" y="-396.3" font-family="Helvetica,sans-Serif" font-size="11.00" fill="#000000">id_origem</text>
<polygon fill="none" stroke="#000000" points="478.5,-389.2 478.5,-411.2 689.5,-411.2 689.5,-389.2 478.5,-389.2"/>
<text text-anchor="start" x="481.5" y="-396.9" font-family="Helvetica,sans-Serif" font-size="11.00" fill="#000000">int4[10]</text>
<polygon fill="none" stroke="#000000" points="288.5,-367.2 288.5,-389.2 478.5,-389.2 478.5,-367.2 288.5,-367.2"/>
<text text-anchor="start" x="308.5" y="-374.3" font-family="Helvetica,sans-Serif" font-size="11.00" fill="#000000">id_cloud</text>
<polygon fill="none" stroke="#000000" points="478.5,-367.2 478.5,-389.2 689.5,-389.2 689.5,-367.2 478.5,-367.2"/>
<text text-anchor="start" x="481.5" y="-374.9" font-family="Helvetica,sans-Serif" font-size="11.00" fill="#000000">int4[10]</text>
<polygon fill="none" stroke="#000000" points="288.5,-345.2 288.5,-367.2 478.5,-367.2 478.5,-345.2 288.5,-345.2"/>
<image xlink:href="../../images/foreignKeys.png" width="11px" height="12px" preserveAspectRatio="xMinYMin meet" x="293.5" y="-362.2"/>
<text text-anchor="start" x="308.5" y="-352.3" font-family="Helvetica,sans-Serif" font-size="11.00" fill="#000000">item_educacional_origem_id</text>
<polygon fill="none" stroke="#000000" points="478.5,-345.2 478.5,-367.2 689.5,-367.2 689.5,-345.2 478.5,-345.2"/>
<text text-anchor="start" x="481.5" y="-352.9" font-family="Helvetica,sans-Serif" font-size="11.00" fill="#000000">int4[10]</text>
<polygon fill="none" stroke="#000000" points="288.5,-323.2 288.5,-345.2 478.5,-345.2 478.5,-323.2 288.5,-323.2"/>
<image xlink:href="../../images/foreignKeys.png" width="11px" height="12px" preserveAspectRatio="xMinYMin meet" x="293.5" y="-340.2"/>
<text text-anchor="start" x="308.5" y="-330.3" font-family="Helvetica,sans-Serif" font-size="11.00" fill="#000000">item_educacional_cloud_id</text>
<polygon fill="none" stroke="#000000" points="478.5,-323.2 478.5,-345.2 689.5,-345.2 689.5,-323.2 478.5,-323.2"/>
<text text-anchor="start" x="481.5" y="-330.9" font-family="Helvetica,sans-Serif" font-size="11.00" fill="#000000">int4[10]</text>
<polygon fill="none" stroke="#000000" points="288.5,-301.2 288.5,-323.2 478.5,-323.2 478.5,-301.2 288.5,-301.2"/>
<image xlink:href="../../images/foreignKeys.png" width="11px" height="12px" preserveAspectRatio="xMinYMin meet" x="293.5" y="-318.2"/>
<text text-anchor="start" x="308.5" y="-308.3" font-family="Helvetica,sans-Serif" font-size="11.00" fill="#000000">periodo_avaliativo_origem_id</text>
<polygon fill="none" stroke="#000000" points="478.5,-301.2 478.5,-323.2 689.5,-323.2 689.5,-301.2 478.5,-301.2"/>
<text text-anchor="start" x="481.5" y="-308.9" font-family="Helvetica,sans-Serif" font-size="11.00" fill="#000000">int4[10]</text>
<polygon fill="none" stroke="#000000" points="288.5,-279.2 288.5,-301.2 478.5,-301.2 478.5,-279.2 288.5,-279.2"/>
<image xlink:href="../../images/foreignKeys.png" width="11px" height="12px" preserveAspectRatio="xMinYMin meet" x="293.5" y="-296.2"/>
<text text-anchor="start" x="308.5" y="-286.3" font-family="Helvetica,sans-Serif" font-size="11.00" fill="#000000">periodo_avaliativo_cloud_id</text>
<polygon fill="none" stroke="#000000" points="478.5,-279.2 478.5,-301.2 689.5,-301.2 689.5,-279.2 478.5,-279.2"/>
<text text-anchor="start" x="481.5" y="-286.9" font-family="Helvetica,sans-Serif" font-size="11.00" fill="#000000">int4[10]</text>
<polygon fill="none" stroke="#000000" points="288.5,-257.2 288.5,-279.2 478.5,-279.2 478.5,-257.2 288.5,-257.2"/>
<text text-anchor="start" x="308.5" y="-264.3" font-family="Helvetica,sans-Serif" font-size="11.00" fill="#000000">inicio_aula</text>
<polygon fill="none" stroke="#000000" points="478.5,-257.2 478.5,-279.2 689.5,-279.2 689.5,-257.2 478.5,-257.2"/>
<text text-anchor="start" x="481.5" y="-264.9" font-family="Helvetica,sans-Serif" font-size="11.00" fill="#000000">time[15,6]</text>
<polygon fill="none" stroke="#000000" points="288.5,-235.2 288.5,-257.2 478.5,-257.2 478.5,-235.2 288.5,-235.2"/>
<text text-anchor="start" x="308.5" y="-242.3" font-family="Helvetica,sans-Serif" font-size="11.00" fill="#000000">fim_aula</text>
<polygon fill="none" stroke="#000000" points="478.5,-235.2 478.5,-257.2 689.5,-257.2 689.5,-235.2 478.5,-235.2"/>
<text text-anchor="start" x="481.5" y="-242.9" font-family="Helvetica,sans-Serif" font-size="11.00" fill="#000000">time[15,6]</text>
<polygon fill="none" stroke="#000000" points="288.5,-213.2 288.5,-235.2 478.5,-235.2 478.5,-213.2 288.5,-213.2"/>
<text text-anchor="start" x="308.5" y="-220.3" font-family="Helvetica,sans-Serif" font-size="11.00" fill="#000000">numero</text>
<polygon fill="none" stroke="#000000" points="478.5,-213.2 478.5,-235.2 689.5,-235.2 689.5,-213.2 478.5,-213.2"/>
<text text-anchor="start" x="481.5" y="-220.9" font-family="Helvetica,sans-Serif" font-size="11.00" fill="#000000">int4[10]</text>
<polygon fill="none" stroke="#000000" points="288.5,-191.2 288.5,-213.2 478.5,-213.2 478.5,-191.2 288.5,-191.2"/>
<text text-anchor="start" x="308.5" y="-198.3" font-family="Helvetica,sans-Serif" font-size="11.00" fill="#000000">dia_semana</text>
<polygon fill="none" stroke="#000000" points="478.5,-191.2 478.5,-213.2 689.5,-213.2 689.5,-191.2 478.5,-191.2"/>
<text text-anchor="start" x="481.4267" y="-198.9" font-family="Helvetica,sans-Serif" font-size="11.00" fill="#000000">&quot;educacao&quot;.&quot;diasdasemana&quot;[2147483647]</text>
<polygon fill="none" stroke="#000000" points="288.5,-169.2 288.5,-191.2 478.5,-191.2 478.5,-169.2 288.5,-169.2"/>
<text text-anchor="start" x="308.5" y="-176.3" font-family="Helvetica,sans-Serif" font-size="11.00" fill="#000000">data</text>
<polygon fill="none" stroke="#000000" points="478.5,-169.2 478.5,-191.2 689.5,-191.2 689.5,-169.2 478.5,-169.2"/>
<text text-anchor="start" x="481.5" y="-176.9" font-family="Helvetica,sans-Serif" font-size="11.00" fill="#000000">date[13]</text>
<polygon fill="none" stroke="#000000" points="288.5,-147.2 288.5,-169.2 478.5,-169.2 478.5,-147.2 288.5,-147.2"/>
<text text-anchor="start" x="308.5" y="-154.3" font-family="Helvetica,sans-Serif" font-size="11.00" fill="#000000">realizada</text>
<polygon fill="none" stroke="#000000" points="478.5,-147.2 478.5,-169.2 689.5,-169.2 689.5,-147.2 478.5,-147.2"/>
<text text-anchor="start" x="481.5" y="-154.9" font-family="Helvetica,sans-Serif" font-size="11.00" fill="#000000">bool[1]</text>
<polygon fill="none" stroke="#000000" points="288.5,-125.2 288.5,-147.2 478.5,-147.2 478.5,-125.2 288.5,-125.2"/>
<image xlink:href="../../images/foreignKeys.png" width="11px" height="12px" preserveAspectRatio="xMinYMin meet" x="293.5" y="-142.2"/>
<text text-anchor="start" x="308.5" y="-132.3" font-family="Helvetica,sans-Serif" font-size="11.00" fill="#000000">servidor_origem_id</text>
<polygon fill="none" stroke="#000000" points="478.5,-125.2 478.5,-147.2 689.5,-147.2 689.5,-125.2 478.5,-125.2"/>
<text text-anchor="start" x="481.5" y="-132.9" font-family="Helvetica,sans-Serif" font-size="11.00" fill="#000000">int4[10]</text>
<polygon fill="none" stroke="#000000" points="288.5,-103.2 288.5,-125.2 478.5,-125.2 478.5,-103.2 288.5,-103.2"/>
<image xlink:href="../../images/foreignKeys.png" width="11px" height="12px" preserveAspectRatio="xMinYMin meet" x="293.5" y="-120.2"/>
<text text-anchor="start" x="308.5" y="-110.3" font-family="Helvetica,sans-Serif" font-size="11.00" fill="#000000">servidor_cloud_id</text>
<polygon fill="none" stroke="#000000" points="478.5,-103.2 478.5,-125.2 689.5,-125.2 689.5,-103.2 478.5,-103.2"/>
<text text-anchor="start" x="481.5" y="-110.9" font-family="Helvetica,sans-Serif" font-size="11.00" fill="#000000">int4[10]</text>
<polygon fill="none" stroke="#000000" points="288.5,-81.2 288.5,-103.2 478.5,-103.2 478.5,-81.2 288.5,-81.2"/>
<image xlink:href="../../images/foreignKeys.png" width="11px" height="12px" preserveAspectRatio="xMinYMin meet" x="293.5" y="-98.2"/>
<text text-anchor="start" x="308.5" y="-88.3" font-family="Helvetica,sans-Serif" font-size="11.00" fill="#000000">turma_origem_id</text>
<polygon fill="none" stroke="#000000" points="478.5,-81.2 478.5,-103.2 689.5,-103.2 689.5,-81.2 478.5,-81.2"/>
<text text-anchor="start" x="481.5" y="-88.9" font-family="Helvetica,sans-Serif" font-size="11.00" fill="#000000">int4[10]</text>
<polygon fill="none" stroke="#000000" points="288.5,-59.2 288.5,-81.2 478.5,-81.2 478.5,-59.2 288.5,-59.2"/>
<image xlink:href="../../images/foreignKeys.png" width="11px" height="12px" preserveAspectRatio="xMinYMin meet" x="293.5" y="-76.2"/>
<text text-anchor="start" x="308.5" y="-66.3" font-family="Helvetica,sans-Serif" font-size="11.00" fill="#000000">turma_cloud_id</text>
<polygon fill="none" stroke="#000000" points="478.5,-59.2 478.5,-81.2 689.5,-81.2 689.5,-59.2 478.5,-59.2"/>
<text text-anchor="start" x="481.5" y="-66.9" font-family="Helvetica,sans-Serif" font-size="11.00" fill="#000000">int4[10]</text>
<polygon fill="#ffffff" stroke="transparent" points="288.5,-40.2 288.5,-59.2 387.5,-59.2 387.5,-40.2 288.5,-40.2"/>
<polygon fill="none" stroke="#000000" points="288.5,-40.2 288.5,-59.2 387.5,-59.2 387.5,-40.2 288.5,-40.2"/>
<text text-anchor="start" x="291.5" y="-46.3" font-family="Helvetica,sans-Serif" font-size="11.00" fill="#000000">&lt; 8</text>
<polygon fill="#ffffff" stroke="transparent" points="387.5,-40.2 387.5,-59.2 478.5,-59.2 478.5,-40.2 387.5,-40.2"/>
<polygon fill="none" stroke="#000000" points="387.5,-40.2 387.5,-59.2 478.5,-59.2 478.5,-40.2 387.5,-40.2"/>
<text text-anchor="start" x="469.3862" y="-46.3" font-family="Helvetica,sans-Serif" font-size="11.00" fill="#000000"> &#160;</text>
<polygon fill="#ffffff" stroke="transparent" points="478.5,-40.2 478.5,-59.2 689.5,-59.2 689.5,-40.2 478.5,-40.2"/>
<polygon fill="none" stroke="#000000" points="478.5,-40.2 478.5,-59.2 689.5,-59.2 689.5,-40.2 478.5,-40.2"/>
<text text-anchor="start" x="670.9053" y="-46.3" font-family="Helvetica,sans-Serif" font-size="11.00" fill="#000000">0 &gt;</text>
<polygon fill="none" stroke="#000000" stroke-width="2" points="287,-39.2 287,-501.2 690,-501.2 690,-39.2 287,-39.2"/>
</a>
</g>
</g>
<!-- inscricao_lista_espera_situacoes -->
<g id="node2" class="node">
<title>inscricao_lista_espera_situacoes</title>
<g id="a_node2"><a xlink:href="../../tables/inscricao_lista_espera_situacoes.html" xlink:title="inscricao_lista_espera_situacoes" target="_top">
<polygon fill="#ffffff" stroke="transparent" points="8,-164.7 8,-247.7 237,-247.7 237,-164.7 8,-164.7"/>
<polygon fill="#f5f5f5" stroke="transparent" points="8.5,-224.2 8.5,-247.2 237.5,-247.2 237.5,-224.2 8.5,-224.2"/>
<polygon fill="none" stroke="#000000" points="8.5,-224.2 8.5,-247.2 237.5,-247.2 237.5,-224.2 8.5,-224.2"/>
<text text-anchor="start" x="13.5" y="-232.8" font-family="Helvetica,sans-Serif" font-weight="bold" font-size="11.00" fill="#000000">inscricao_lista_espera_situacoes</text>
<text text-anchor="start" x="203.0219" y="-232.3" font-family="Helvetica,sans-Serif" font-size="11.00" fill="#000000">[table]</text>
<polygon fill="none" stroke="#000000" points="8.5,-202.2 8.5,-224.2 237.5,-224.2 237.5,-202.2 8.5,-202.2"/>
<image xlink:href="../../images/primaryKeys.png" width="11px" height="12px" preserveAspectRatio="xMinYMin meet" x="13.5" y="-219.2"/>
<text text-anchor="start" x="37.5" y="-209.3" font-family="Helvetica,sans-Serif" font-size="11.00" fill="#000000">id</text>
<polygon fill="none" stroke="#000000" points="8.5,-183.2 8.5,-202.2 237.5,-202.2 237.5,-183.2 8.5,-183.2"/>
<text text-anchor="start" x="11.5" y="-189.3" font-family="Helvetica,sans-Serif" font-size="11.00" fill="#000000">...</text>
<polygon fill="#ffffff" stroke="transparent" points="8.5,-164.2 8.5,-183.2 106.5,-183.2 106.5,-164.2 8.5,-164.2"/>
<polygon fill="none" stroke="#000000" points="8.5,-164.2 8.5,-183.2 106.5,-183.2 106.5,-164.2 8.5,-164.2"/>
<text text-anchor="start" x="11.5" y="-170.3" font-family="Helvetica,sans-Serif" font-size="11.00" fill="#000000"> &#160;</text>
<polygon fill="#ffffff" stroke="transparent" points="106.5,-164.2 106.5,-183.2 161.5,-183.2 161.5,-164.2 106.5,-164.2"/>
<polygon fill="none" stroke="#000000" points="106.5,-164.2 106.5,-183.2 161.5,-183.2 161.5,-164.2 106.5,-164.2"/>
<text text-anchor="start" x="152.3862" y="-170.3" font-family="Helvetica,sans-Serif" font-size="11.00" fill="#000000"> &#160;</text>
<polygon fill="#ffffff" stroke="transparent" points="161.5,-164.2 161.5,-183.2 237.5,-183.2 237.5,-164.2 161.5,-164.2"/>
<polygon fill="none" stroke="#000000" points="161.5,-164.2 161.5,-183.2 237.5,-183.2 237.5,-164.2 161.5,-164.2"/>
<text text-anchor="start" x="206.6755" y="-170.3" font-family="Helvetica,sans-Serif" font-size="11.00" fill="#000000">596 &gt;</text>
</a>
</g>
</g>
<!-- alocacoes_aulas&#45;&gt;inscricao_lista_espera_situacoes -->
<g id="edge1" class="edge">
<title>alocacoes_aulas:w&#45;&gt;inscricao_lista_espera_situacoes:e</title>
<path fill="none" stroke="#000000" stroke-dasharray="5,2" d="M274.2982,-330.7092C242.2098,-310.87 289.9323,-213.2 237.5,-213.2"/>
<polygon fill="#000000" stroke="#000000" points="280.7312,-332.2904 287.6407,-337.6959 284.6156,-333.2452 288.5,-334.2 288.5,-334.2 288.5,-334.2 284.6156,-333.2452 289.3593,-330.7041 280.7312,-332.2904 280.7312,-332.2904"/>
<ellipse fill="none" stroke="#000000" cx="277.6237" cy="-331.5266" rx="3.2" ry="3.2"/>
</g>
<!-- alocacoes_aulas&#45;&gt;inscricao_lista_espera_situacoes -->
<g id="edge2" class="edge">
<title>alocacoes_aulas:w&#45;&gt;inscricao_lista_espera_situacoes:e</title>
<path fill="none" stroke="#000000" stroke-dasharray="5,2" d="M274.2665,-353.2132C234.3345,-332.678 299.1778,-213.2 237.5,-213.2"/>
<polygon fill="#000000" stroke="#000000" points="280.6705,-354.557 287.7607,-359.7233 284.5853,-355.3785 288.5,-356.2 288.5,-356.2 288.5,-356.2 284.5853,-355.3785 289.2393,-352.6767 280.6705,-354.557 280.6705,-354.557"/>
<ellipse fill="none" stroke="#000000" cx="277.5387" cy="-353.8998" rx="3.2" ry="3.2"/>
</g>
<!-- alocacoes_aulas&#45;&gt;inscricao_lista_espera_situacoes -->
<g id="edge3" class="edge">
<title>alocacoes_aulas:w&#45;&gt;inscricao_lista_espera_situacoes:e</title>
<path fill="none" stroke="#000000" stroke-dasharray="5,2" d="M274.5177,-285.6139C255.094,-269.0372 272.4549,-213.2 237.5,-213.2"/>
<polygon fill="#000000" stroke="#000000" points="280.8984,-287.7067 287.378,-293.6207 284.6992,-288.9534 288.5,-290.2 288.5,-290.2 288.5,-290.2 284.6992,-288.9534 289.622,-286.7793 280.8984,-287.7067 280.8984,-287.7067"/>
<ellipse fill="none" stroke="#000000" cx="277.8578" cy="-286.7094" rx="3.2" ry="3.2"/>
</g>
<!-- alocacoes_aulas&#45;&gt;inscricao_lista_espera_situacoes -->
<g id="edge4" class="edge">
<title>alocacoes_aulas:w&#45;&gt;inscricao_lista_espera_situacoes:e</title>
<path fill="none" stroke="#000000" stroke-dasharray="5,2" d="M274.4616,-308.1965C249.198,-289.6751 281.0017,-213.2 237.5,-213.2"/>
<polygon fill="#000000" stroke="#000000" points="280.8067,-310.006 287.5127,-315.662 284.6534,-311.103 288.5,-312.2 288.5,-312.2 288.5,-312.2 284.6534,-311.103 289.4873,-308.738 280.8067,-310.006 280.8067,-310.006"/>
<ellipse fill="none" stroke="#000000" cx="277.7294" cy="-309.1283" rx="3.2" ry="3.2"/>
</g>
<!-- alocacoes_aulas&#45;&gt;inscricao_lista_espera_situacoes -->
<g id="edge5" class="edge">
<title>alocacoes_aulas:w&#45;&gt;inscricao_lista_espera_situacoes:e</title>
<path fill="none" stroke="#000000" stroke-dasharray="5,2" d="M274.4616,-118.2035C249.198,-136.7249 281.0017,-213.2 237.5,-213.2"/>
<polygon fill="#000000" stroke="#000000" points="280.8067,-116.394 289.4873,-117.662 284.6534,-115.297 288.5,-114.2 288.5,-114.2 288.5,-114.2 284.6534,-115.297 287.5127,-110.738 280.8067,-116.394 280.8067,-116.394"/>
<ellipse fill="none" stroke="#000000" cx="277.7294" cy="-117.2717" rx="3.2" ry="3.2"/>
</g>
<!-- alocacoes_aulas&#45;&gt;inscricao_lista_espera_situacoes -->
<g id="edge6" class="edge">
<title>alocacoes_aulas:w&#45;&gt;inscricao_lista_espera_situacoes:e</title>
<path fill="none" stroke="#000000" stroke-dasharray="5,2" d="M274.5177,-140.7861C255.094,-157.3628 272.4549,-213.2 237.5,-213.2"/>
<polygon fill="#000000" stroke="#000000" points="280.8984,-138.6933 289.622,-139.6207 284.6992,-137.4466 288.5,-136.2 288.5,-136.2 288.5,-136.2 284.6992,-137.4466 287.378,-132.7793 280.8984,-138.6933 280.8984,-138.6933"/>
<ellipse fill="none" stroke="#000000" cx="277.8578" cy="-139.6906" rx="3.2" ry="3.2"/>
</g>
<!-- alocacoes_aulas&#45;&gt;inscricao_lista_espera_situacoes -->
<g id="edge7" class="edge">
<title>alocacoes_aulas:w&#45;&gt;inscricao_lista_espera_situacoes:e</title>
<path fill="none" stroke="#000000" stroke-dasharray="5,2" d="M274.2665,-73.1868C234.3345,-93.722 299.1778,-213.2 237.5,-213.2"/>
<polygon fill="#000000" stroke="#000000" points="280.6705,-71.843 289.2393,-73.7233 284.5853,-71.0215 288.5,-70.2 288.5,-70.2 288.5,-70.2 284.5853,-71.0215 287.7607,-66.6767 280.6705,-71.843 280.6705,-71.843"/>
<ellipse fill="none" stroke="#000000" cx="277.5387" cy="-72.5002" rx="3.2" ry="3.2"/>
</g>
<!-- alocacoes_aulas&#45;&gt;inscricao_lista_espera_situacoes -->
<g id="edge8" class="edge">
<title>alocacoes_aulas:w&#45;&gt;inscricao_lista_espera_situacoes:e</title>
<path fill="none" stroke="#000000" stroke-dasharray="5,2" d="M274.2982,-95.6908C242.2098,-115.53 289.9323,-213.2 237.5,-213.2"/>
<polygon fill="#000000" stroke="#000000" points="280.7312,-94.1096 289.3593,-95.6959 284.6156,-93.1548 288.5,-92.2 288.5,-92.2 288.5,-92.2 284.6156,-93.1548 287.6407,-88.7041 280.7312,-94.1096 280.7312,-94.1096"/>
<ellipse fill="none" stroke="#000000" cx="277.6237" cy="-94.8734" rx="3.2" ry="3.2"/>
</g>
</g>
</svg>
