<?xml version="1.0" encoding="UTF-8" standalone="no"?>
<!DOCTYPE svg PUBLIC "-//W3C//DTD SVG 1.1//EN"
 "http://www.w3.org/Graphics/SVG/1.1/DTD/svg11.dtd">
<!-- Generated by graphviz version 2.40.1 (20161225.0304)
 -->
<!-- Title: oneDegreeRelationshipsDiagramImplied Pages: 1 -->
<svg width="520pt" height="162pt"
 viewBox="0.00 0.00 520.00 162.20" xmlns="http://www.w3.org/2000/svg" xmlns:xlink="http://www.w3.org/1999/xlink">
<g id="graph0" class="graph" transform="scale(1 1) rotate(0) translate(4 158.2)">
<title>oneDegreeRelationshipsDiagramImplied</title>
<polygon fill="#ffffff" stroke="transparent" points="-4,4 -4,-158.2 516,-158.2 516,4 -4,4"/>
<text text-anchor="middle" x="72.4936" y="-7.3" font-family="Helvetica,sans-Serif" font-size="11.00" fill="#000000">Generated by SchemaSpy</text>
<!-- aluno_deficiencias -->
<g id="node1" class="node">
<title>aluno_deficiencias</title>
<g id="a_node1"><a xlink:href="../../tables/aluno_deficiencias.html" xlink:title="aluno_deficiencias" target="_top">
<polygon fill="#ffffff" stroke="transparent" points="286,-38.2 286,-150.2 504,-150.2 504,-38.2 286,-38.2"/>
<polygon fill="#f5f5f5" stroke="transparent" points="288,-125.2 288,-148.2 502,-148.2 502,-125.2 288,-125.2"/>
<polygon fill="none" stroke="#000000" points="288,-125.2 288,-148.2 502,-148.2 502,-125.2 288,-125.2"/>
<text text-anchor="start" x="293" y="-133.8" font-family="Helvetica,sans-Serif" font-weight="bold" font-size="11.00" fill="#000000">aluno_deficiencias</text>
<text text-anchor="start" x="467.0437" y="-133.3" font-family="Helvetica,sans-Serif" font-size="11.00" fill="#000000">[table]</text>
<polygon fill="none" stroke="#000000" points="288,-103.2 288,-125.2 435,-125.2 435,-103.2 288,-103.2"/>
<image xlink:href="../../images/foreignKeys.png" width="11px" height="12px" preserveAspectRatio="xMinYMin meet" x="293" y="-120.2"/>
<text text-anchor="start" x="308" y="-110.3" font-family="Helvetica,sans-Serif" font-size="11.00" fill="#000000">aluno_origem_id</text>
<polygon fill="none" stroke="#000000" points="435,-103.2 435,-125.2 502,-125.2 502,-103.2 435,-103.2"/>
<text text-anchor="start" x="438" y="-110.9" font-family="Helvetica,sans-Serif" font-size="11.00" fill="#000000">int4[10]</text>
<polygon fill="none" stroke="#000000" points="288,-81.2 288,-103.2 435,-103.2 435,-81.2 288,-81.2"/>
<image xlink:href="../../images/foreignKeys.png" width="11px" height="12px" preserveAspectRatio="xMinYMin meet" x="293" y="-98.2"/>
<text text-anchor="start" x="308" y="-88.3" font-family="Helvetica,sans-Serif" font-size="11.00" fill="#000000">deficiencia_origem_id</text>
<polygon fill="none" stroke="#000000" points="435,-81.2 435,-103.2 502,-103.2 502,-81.2 435,-81.2"/>
<text text-anchor="start" x="438" y="-88.9" font-family="Helvetica,sans-Serif" font-size="11.00" fill="#000000">int4[10]</text>
<polygon fill="none" stroke="#000000" points="288,-59.2 288,-81.2 435,-81.2 435,-59.2 288,-59.2"/>
<text text-anchor="start" x="308" y="-66.3" font-family="Helvetica,sans-Serif" font-size="11.00" fill="#000000">observacao</text>
<polygon fill="none" stroke="#000000" points="435,-59.2 435,-81.2 502,-81.2 502,-59.2 435,-59.2"/>
<text text-anchor="start" x="437.9365" y="-66.9" font-family="Helvetica,sans-Serif" font-size="11.00" fill="#000000">varchar[255]</text>
<polygon fill="#ffffff" stroke="transparent" points="288,-40.2 288,-59.2 366,-59.2 366,-40.2 288,-40.2"/>
<polygon fill="none" stroke="#000000" points="288,-40.2 288,-59.2 366,-59.2 366,-40.2 288,-40.2"/>
<text text-anchor="start" x="291" y="-46.3" font-family="Helvetica,sans-Serif" font-size="11.00" fill="#000000">&lt; 2</text>
<polygon fill="#ffffff" stroke="transparent" points="366,-40.2 366,-59.2 435,-59.2 435,-40.2 366,-40.2"/>
<polygon fill="none" stroke="#000000" points="366,-40.2 366,-59.2 435,-59.2 435,-40.2 366,-40.2"/>
<text text-anchor="start" x="425.8862" y="-46.3" font-family="Helvetica,sans-Serif" font-size="11.00" fill="#000000"> &#160;</text>
<polygon fill="#ffffff" stroke="transparent" points="435,-40.2 435,-59.2 502,-59.2 502,-40.2 435,-40.2"/>
<polygon fill="none" stroke="#000000" points="435,-40.2 435,-59.2 502,-59.2 502,-40.2 435,-40.2"/>
<text text-anchor="start" x="483.4053" y="-46.3" font-family="Helvetica,sans-Serif" font-size="11.00" fill="#000000">0 &gt;</text>
<polygon fill="none" stroke="#000000" stroke-width="2" points="287,-39.2 287,-149.2 503,-149.2 503,-39.2 287,-39.2"/>
</a>
</g>
</g>
<!-- inscricao_lista_espera_situacoes -->
<g id="node2" class="node">
<title>inscricao_lista_espera_situacoes</title>
<g id="a_node2"><a xlink:href="../../tables/inscricao_lista_espera_situacoes.html" xlink:title="inscricao_lista_espera_situacoes" target="_top">
<polygon fill="#ffffff" stroke="transparent" points="8,-54.7 8,-137.7 237,-137.7 237,-54.7 8,-54.7"/>
<polygon fill="#f5f5f5" stroke="transparent" points="8.5,-114.2 8.5,-137.2 237.5,-137.2 237.5,-114.2 8.5,-114.2"/>
<polygon fill="none" stroke="#000000" points="8.5,-114.2 8.5,-137.2 237.5,-137.2 237.5,-114.2 8.5,-114.2"/>
<text text-anchor="start" x="13.5" y="-122.8" font-family="Helvetica,sans-Serif" font-weight="bold" font-size="11.00" fill="#000000">inscricao_lista_espera_situacoes</text>
<text text-anchor="start" x="203.0219" y="-122.3" font-family="Helvetica,sans-Serif" font-size="11.00" fill="#000000">[table]</text>
<polygon fill="none" stroke="#000000" points="8.5,-92.2 8.5,-114.2 237.5,-114.2 237.5,-92.2 8.5,-92.2"/>
<image xlink:href="../../images/primaryKeys.png" width="11px" height="12px" preserveAspectRatio="xMinYMin meet" x="13.5" y="-109.2"/>
<text text-anchor="start" x="37.5" y="-99.3" font-family="Helvetica,sans-Serif" font-size="11.00" fill="#000000">id</text>
<polygon fill="none" stroke="#000000" points="8.5,-73.2 8.5,-92.2 237.5,-92.2 237.5,-73.2 8.5,-73.2"/>
<text text-anchor="start" x="11.5" y="-79.3" font-family="Helvetica,sans-Serif" font-size="11.00" fill="#000000">...</text>
<polygon fill="#ffffff" stroke="transparent" points="8.5,-54.2 8.5,-73.2 106.5,-73.2 106.5,-54.2 8.5,-54.2"/>
<polygon fill="none" stroke="#000000" points="8.5,-54.2 8.5,-73.2 106.5,-73.2 106.5,-54.2 8.5,-54.2"/>
<text text-anchor="start" x="11.5" y="-60.3" font-family="Helvetica,sans-Serif" font-size="11.00" fill="#000000"> &#160;</text>
<polygon fill="#ffffff" stroke="transparent" points="106.5,-54.2 106.5,-73.2 161.5,-73.2 161.5,-54.2 106.5,-54.2"/>
<polygon fill="none" stroke="#000000" points="106.5,-54.2 106.5,-73.2 161.5,-73.2 161.5,-54.2 106.5,-54.2"/>
<text text-anchor="start" x="152.3862" y="-60.3" font-family="Helvetica,sans-Serif" font-size="11.00" fill="#000000"> &#160;</text>
<polygon fill="#ffffff" stroke="transparent" points="161.5,-54.2 161.5,-73.2 237.5,-73.2 237.5,-54.2 161.5,-54.2"/>
<polygon fill="none" stroke="#000000" points="161.5,-54.2 161.5,-73.2 237.5,-73.2 237.5,-54.2 161.5,-54.2"/>
<text text-anchor="start" x="206.6755" y="-60.3" font-family="Helvetica,sans-Serif" font-size="11.00" fill="#000000">596 &gt;</text>
</a>
</g>
</g>
<!-- aluno_deficiencias&#45;&gt;inscricao_lista_espera_situacoes -->
<g id="edge1" class="edge">
<title>aluno_deficiencias:w&#45;&gt;inscricao_lista_espera_situacoes:e</title>
<path fill="none" stroke="#000000" stroke-dasharray="5,2" d="M273.6489,-112.4813C261.5992,-109.3875 254.728,-103.2 237.5,-103.2"/>
<polygon fill="#000000" stroke="#000000" points="280.0568,-113.2486 287.5719,-117.7745 284.0284,-113.7243 288,-114.2 288,-114.2 288,-114.2 284.0284,-113.7243 288.4281,-110.6255 280.0568,-113.2486 280.0568,-113.2486"/>
<ellipse fill="none" stroke="#000000" cx="276.8795" cy="-112.8681" rx="3.2" ry="3.2"/>
</g>
<!-- aluno_deficiencias&#45;&gt;inscricao_lista_espera_situacoes -->
<g id="edge2" class="edge">
<title>aluno_deficiencias:w&#45;&gt;inscricao_lista_espera_situacoes:e</title>
<path fill="none" stroke="#000000" stroke-dasharray="5,2" d="M273.6489,-93.9188C261.5992,-97.0125 254.728,-103.2 237.5,-103.2"/>
<polygon fill="#000000" stroke="#000000" points="280.0568,-93.1514 288.4281,-95.7745 284.0284,-92.6757 288,-92.2 288,-92.2 288,-92.2 284.0284,-92.6757 287.5719,-88.6255 280.0568,-93.1514 280.0568,-93.1514"/>
<ellipse fill="none" stroke="#000000" cx="276.8795" cy="-93.5319" rx="3.2" ry="3.2"/>
</g>
</g>
</svg>
