<?xml version="1.0" encoding="UTF-8" standalone="no"?>
<!DOCTYPE svg PUBLIC "-//W3C//DTD SVG 1.1//EN"
 "http://www.w3.org/Graphics/SVG/1.1/DTD/svg11.dtd">
<!-- Generated by graphviz version 2.40.1 (20161225.0304)
 -->
<!-- Title: oneDegreeRelationshipsDiagram Pages: 1 -->
<svg width="394pt" height="250pt"
 viewBox="0.00 0.00 394.00 250.20" xmlns="http://www.w3.org/2000/svg" xmlns:xlink="http://www.w3.org/1999/xlink">
<g id="graph0" class="graph" transform="scale(1 1) rotate(0) translate(4 246.2)">
<title>oneDegreeRelationshipsDiagram</title>
<polygon fill="#ffffff" stroke="transparent" points="-4,4 -4,-246.2 390,-246.2 390,4 -4,4"/>
<text text-anchor="middle" x="72.4936" y="-7.3" font-family="Helvetica,sans-Serif" font-size="11.00" fill="#000000">Generated by SchemaSpy</text>
<!-- aluno_filiacoes -->
<g id="node1" class="node">
<title>aluno_filiacoes</title>
<g id="a_node1"><a xlink:href="../../tables/aluno_filiacoes.html" xlink:title="aluno_filiacoes" target="_top">
<polygon fill="#ffffff" stroke="transparent" points="8,-38.2 8,-238.2 378,-238.2 378,-38.2 8,-38.2"/>
<polygon fill="#f5f5f5" stroke="transparent" points="10,-213.2 10,-236.2 376,-236.2 376,-213.2 10,-213.2"/>
<polygon fill="none" stroke="#000000" points="10,-213.2 10,-236.2 376,-236.2 376,-213.2 10,-213.2"/>
<text text-anchor="start" x="15" y="-221.8" font-family="Helvetica,sans-Serif" font-weight="bold" font-size="11.00" fill="#000000">aluno_filiacoes</text>
<text text-anchor="start" x="341.0437" y="-221.3" font-family="Helvetica,sans-Serif" font-size="11.00" fill="#000000">[table]</text>
<polygon fill="none" stroke="#000000" points="10,-191.2 10,-213.2 154,-213.2 154,-191.2 10,-191.2"/>
<image xlink:href="../../images/foreignKeys.png" width="11px" height="12px" preserveAspectRatio="xMinYMin meet" x="15" y="-208.2"/>
<text text-anchor="start" x="30" y="-198.3" font-family="Helvetica,sans-Serif" font-size="11.00" fill="#000000">aluno_origem_id</text>
<polygon fill="none" stroke="#000000" points="154,-191.2 154,-213.2 376,-213.2 376,-191.2 154,-191.2"/>
<text text-anchor="start" x="157" y="-198.9" font-family="Helvetica,sans-Serif" font-size="11.00" fill="#000000">int4[10]</text>
<polygon fill="none" stroke="#000000" points="10,-169.2 10,-191.2 154,-191.2 154,-169.2 10,-169.2"/>
<image xlink:href="../../images/foreignKeys.png" width="11px" height="12px" preserveAspectRatio="xMinYMin meet" x="15" y="-186.2"/>
<text text-anchor="start" x="30" y="-176.3" font-family="Helvetica,sans-Serif" font-size="11.00" fill="#000000">filiacao_origem_id</text>
<polygon fill="none" stroke="#000000" points="154,-169.2 154,-191.2 376,-191.2 376,-169.2 154,-169.2"/>
<text text-anchor="start" x="157" y="-176.9" font-family="Helvetica,sans-Serif" font-size="11.00" fill="#000000">int4[10]</text>
<polygon fill="none" stroke="#000000" points="10,-147.2 10,-169.2 154,-169.2 154,-147.2 10,-147.2"/>
<text text-anchor="start" x="30" y="-154.3" font-family="Helvetica,sans-Serif" font-size="11.00" fill="#000000">permite_retirar_aluno</text>
<polygon fill="none" stroke="#000000" points="154,-147.2 154,-169.2 376,-169.2 376,-147.2 154,-147.2"/>
<text text-anchor="start" x="157" y="-154.9" font-family="Helvetica,sans-Serif" font-size="11.00" fill="#000000">bool[1]</text>
<polygon fill="none" stroke="#000000" points="10,-125.2 10,-147.2 154,-147.2 154,-125.2 10,-125.2"/>
<text text-anchor="start" x="30" y="-132.3" font-family="Helvetica,sans-Serif" font-size="11.00" fill="#000000">dia_semana</text>
<polygon fill="none" stroke="#000000" points="154,-125.2 154,-147.2 376,-147.2 376,-125.2 154,-125.2"/>
<text text-anchor="start" x="157" y="-132.9" font-family="Helvetica,sans-Serif" font-size="11.00" fill="#000000">&quot;educacao&quot;.&quot;_diassemana&quot;[2147483647]</text>
<polygon fill="none" stroke="#000000" points="10,-103.2 10,-125.2 154,-125.2 154,-103.2 10,-103.2"/>
<text text-anchor="start" x="30" y="-110.3" font-family="Helvetica,sans-Serif" font-size="11.00" fill="#000000">eh_responsavel</text>
<polygon fill="none" stroke="#000000" points="154,-103.2 154,-125.2 376,-125.2 376,-103.2 154,-103.2"/>
<text text-anchor="start" x="157" y="-110.9" font-family="Helvetica,sans-Serif" font-size="11.00" fill="#000000">bool[1]</text>
<polygon fill="none" stroke="#000000" points="10,-81.2 10,-103.2 154,-103.2 154,-81.2 10,-81.2"/>
<text text-anchor="start" x="30" y="-88.3" font-family="Helvetica,sans-Serif" font-size="11.00" fill="#000000">tipo</text>
<polygon fill="none" stroke="#000000" points="154,-81.2 154,-103.2 376,-103.2 376,-81.2 154,-81.2"/>
<text text-anchor="start" x="157" y="-88.9" font-family="Helvetica,sans-Serif" font-size="11.00" fill="#000000">&quot;educacao&quot;.&quot;tiposfiliacoes&quot;[2147483647]</text>
<polygon fill="none" stroke="#000000" points="10,-59.2 10,-81.2 154,-81.2 154,-59.2 10,-59.2"/>
<text text-anchor="start" x="30" y="-66.3" font-family="Helvetica,sans-Serif" font-size="11.00" fill="#000000">natureza</text>
<polygon fill="none" stroke="#000000" points="154,-59.2 154,-81.2 376,-81.2 376,-59.2 154,-59.2"/>
<text text-anchor="start" x="156.9288" y="-66.9" font-family="Helvetica,sans-Serif" font-size="11.00" fill="#000000">&quot;educacao&quot;.&quot;naturezasfiliacao&quot;[2147483647]</text>
<polygon fill="#ffffff" stroke="transparent" points="10,-40.2 10,-59.2 86,-59.2 86,-40.2 10,-40.2"/>
<polygon fill="none" stroke="#000000" points="10,-40.2 10,-59.2 86,-59.2 86,-40.2 10,-40.2"/>
<text text-anchor="start" x="13" y="-46.3" font-family="Helvetica,sans-Serif" font-size="11.00" fill="#000000">&lt; 0</text>
<polygon fill="#ffffff" stroke="transparent" points="86,-40.2 86,-59.2 154,-59.2 154,-40.2 86,-40.2"/>
<polygon fill="none" stroke="#000000" points="86,-40.2 86,-59.2 154,-59.2 154,-40.2 86,-40.2"/>
<text text-anchor="start" x="144.8862" y="-46.3" font-family="Helvetica,sans-Serif" font-size="11.00" fill="#000000"> &#160;</text>
<polygon fill="#ffffff" stroke="transparent" points="154,-40.2 154,-59.2 376,-59.2 376,-40.2 154,-40.2"/>
<polygon fill="none" stroke="#000000" points="154,-40.2 154,-59.2 376,-59.2 376,-40.2 154,-40.2"/>
<text text-anchor="start" x="357.4053" y="-46.3" font-family="Helvetica,sans-Serif" font-size="11.00" fill="#000000">0 &gt;</text>
<polygon fill="none" stroke="#000000" stroke-width="2" points="9,-39.2 9,-237.2 377,-237.2 377,-39.2 9,-39.2"/>
</a>
</g>
</g>
</g>
</svg>
