<?xml version="1.0" encoding="UTF-8" standalone="no"?>
<!DOCTYPE svg PUBLIC "-//W3C//DTD SVG 1.1//EN"
 "http://www.w3.org/Graphics/SVG/1.1/DTD/svg11.dtd">
<!-- Generated by graphviz version 2.40.1 (20161225.0304)
 -->
<!-- Title: oneDegreeRelationshipsDiagram Pages: 1 -->
<svg width="388pt" height="228pt"
 viewBox="0.00 0.00 388.00 228.20" xmlns="http://www.w3.org/2000/svg" xmlns:xlink="http://www.w3.org/1999/xlink">
<g id="graph0" class="graph" transform="scale(1 1) rotate(0) translate(4 224.2)">
<title>oneDegreeRelationshipsDiagram</title>
<polygon fill="#ffffff" stroke="transparent" points="-4,4 -4,-224.2 384,-224.2 384,4 -4,4"/>
<text text-anchor="middle" x="72.4936" y="-7.3" font-family="Helvetica,sans-Serif" font-size="11.00" fill="#000000">Generated by SchemaSpy</text>
<!-- aluno_responsaveis -->
<g id="node1" class="node">
<title>aluno_responsaveis</title>
<g id="a_node1"><a xlink:href="../../tables/aluno_responsaveis.html" xlink:title="aluno_responsaveis" target="_top">
<polygon fill="#ffffff" stroke="transparent" points="8,-38.2 8,-216.2 372,-216.2 372,-38.2 8,-38.2"/>
<polygon fill="#f5f5f5" stroke="transparent" points="10,-191.2 10,-214.2 370,-214.2 370,-191.2 10,-191.2"/>
<polygon fill="none" stroke="#000000" points="10,-191.2 10,-214.2 370,-214.2 370,-191.2 10,-191.2"/>
<text text-anchor="start" x="15" y="-199.8" font-family="Helvetica,sans-Serif" font-weight="bold" font-size="11.00" fill="#000000">aluno_responsaveis</text>
<text text-anchor="start" x="335.0437" y="-199.3" font-family="Helvetica,sans-Serif" font-size="11.00" fill="#000000">[table]</text>
<polygon fill="none" stroke="#000000" points="10,-169.2 10,-191.2 165,-191.2 165,-169.2 10,-169.2"/>
<image xlink:href="../../images/foreignKeys.png" width="11px" height="12px" preserveAspectRatio="xMinYMin meet" x="15" y="-186.2"/>
<text text-anchor="start" x="30" y="-176.3" font-family="Helvetica,sans-Serif" font-size="11.00" fill="#000000">aluno_origem_id</text>
<polygon fill="none" stroke="#000000" points="165,-169.2 165,-191.2 370,-191.2 370,-169.2 165,-169.2"/>
<text text-anchor="start" x="168" y="-176.9" font-family="Helvetica,sans-Serif" font-size="11.00" fill="#000000">int4[10]</text>
<polygon fill="none" stroke="#000000" points="10,-147.2 10,-169.2 165,-169.2 165,-147.2 10,-147.2"/>
<image xlink:href="../../images/foreignKeys.png" width="11px" height="12px" preserveAspectRatio="xMinYMin meet" x="15" y="-164.2"/>
<text text-anchor="start" x="30" y="-154.3" font-family="Helvetica,sans-Serif" font-size="11.00" fill="#000000">responsavel_origem_id</text>
<polygon fill="none" stroke="#000000" points="165,-147.2 165,-169.2 370,-169.2 370,-147.2 165,-147.2"/>
<text text-anchor="start" x="168" y="-154.9" font-family="Helvetica,sans-Serif" font-size="11.00" fill="#000000">int4[10]</text>
<polygon fill="none" stroke="#000000" points="10,-125.2 10,-147.2 165,-147.2 165,-125.2 10,-125.2"/>
<text text-anchor="start" x="30" y="-132.3" font-family="Helvetica,sans-Serif" font-size="11.00" fill="#000000">permite_retirar_aluno</text>
<polygon fill="none" stroke="#000000" points="165,-125.2 165,-147.2 370,-147.2 370,-125.2 165,-125.2"/>
<text text-anchor="start" x="168" y="-132.9" font-family="Helvetica,sans-Serif" font-size="11.00" fill="#000000">bool[1]</text>
<polygon fill="none" stroke="#000000" points="10,-103.2 10,-125.2 165,-125.2 165,-103.2 10,-103.2"/>
<text text-anchor="start" x="30" y="-110.3" font-family="Helvetica,sans-Serif" font-size="11.00" fill="#000000">dia_semana</text>
<polygon fill="none" stroke="#000000" points="165,-103.2 165,-125.2 370,-125.2 370,-103.2 165,-103.2"/>
<text text-anchor="start" x="167.9841" y="-110.9" font-family="Helvetica,sans-Serif" font-size="11.00" fill="#000000">&quot;educacao&quot;.&quot;_diassemana&quot;[2147483647]</text>
<polygon fill="none" stroke="#000000" points="10,-81.2 10,-103.2 165,-103.2 165,-81.2 10,-81.2"/>
<text text-anchor="start" x="30" y="-88.3" font-family="Helvetica,sans-Serif" font-size="11.00" fill="#000000">parentesco</text>
<polygon fill="none" stroke="#000000" points="165,-81.2 165,-103.2 370,-103.2 370,-81.2 165,-81.2"/>
<text text-anchor="start" x="168" y="-88.9" font-family="Helvetica,sans-Serif" font-size="11.00" fill="#000000">&quot;educacao&quot;.&quot;parentescos&quot;[2147483647]</text>
<polygon fill="none" stroke="#000000" points="10,-59.2 10,-81.2 165,-81.2 165,-59.2 10,-59.2"/>
<text text-anchor="start" x="30" y="-66.3" font-family="Helvetica,sans-Serif" font-size="11.00" fill="#000000">outro_parentesco</text>
<polygon fill="none" stroke="#000000" points="165,-59.2 165,-81.2 370,-81.2 370,-59.2 165,-59.2"/>
<text text-anchor="start" x="168" y="-66.9" font-family="Helvetica,sans-Serif" font-size="11.00" fill="#000000">varchar[50]</text>
<polygon fill="#ffffff" stroke="transparent" points="10,-40.2 10,-59.2 92,-59.2 92,-40.2 10,-40.2"/>
<polygon fill="none" stroke="#000000" points="10,-40.2 10,-59.2 92,-59.2 92,-40.2 10,-40.2"/>
<text text-anchor="start" x="13" y="-46.3" font-family="Helvetica,sans-Serif" font-size="11.00" fill="#000000">&lt; 0</text>
<polygon fill="#ffffff" stroke="transparent" points="92,-40.2 92,-59.2 165,-59.2 165,-40.2 92,-40.2"/>
<polygon fill="none" stroke="#000000" points="92,-40.2 92,-59.2 165,-59.2 165,-40.2 92,-40.2"/>
<text text-anchor="start" x="155.8862" y="-46.3" font-family="Helvetica,sans-Serif" font-size="11.00" fill="#000000"> &#160;</text>
<polygon fill="#ffffff" stroke="transparent" points="165,-40.2 165,-59.2 370,-59.2 370,-40.2 165,-40.2"/>
<polygon fill="none" stroke="#000000" points="165,-40.2 165,-59.2 370,-59.2 370,-40.2 165,-40.2"/>
<text text-anchor="start" x="351.4053" y="-46.3" font-family="Helvetica,sans-Serif" font-size="11.00" fill="#000000">0 &gt;</text>
<polygon fill="none" stroke="#000000" stroke-width="2" points="9,-39.2 9,-215.2 371,-215.2 371,-39.2 9,-39.2"/>
</a>
</g>
</g>
</g>
</svg>
