<?xml version="1.0" encoding="UTF-8" standalone="no"?>
<!DOCTYPE svg PUBLIC "-//W3C//DTD SVG 1.1//EN"
 "http://www.w3.org/Graphics/SVG/1.1/DTD/svg11.dtd">
<!-- Generated by graphviz version 2.40.1 (20161225.0304)
 -->
<!-- Title: oneDegreeRelationshipsDiagramImplied Pages: 1 -->
<svg width="666pt" height="228pt"
 viewBox="0.00 0.00 666.00 228.20" xmlns="http://www.w3.org/2000/svg" xmlns:xlink="http://www.w3.org/1999/xlink">
<g id="graph0" class="graph" transform="scale(1 1) rotate(0) translate(4 224.2)">
<title>oneDegreeRelationshipsDiagramImplied</title>
<polygon fill="#ffffff" stroke="transparent" points="-4,4 -4,-224.2 662,-224.2 662,4 -4,4"/>
<text text-anchor="middle" x="72.4936" y="-7.3" font-family="Helvetica,sans-Serif" font-size="11.00" fill="#000000">Generated by SchemaSpy</text>
<!-- aluno_responsaveis -->
<g id="node1" class="node">
<title>aluno_responsaveis</title>
<g id="a_node1"><a xlink:href="../../tables/aluno_responsaveis.html" xlink:title="aluno_responsaveis" target="_top">
<polygon fill="#ffffff" stroke="transparent" points="286,-38.2 286,-216.2 650,-216.2 650,-38.2 286,-38.2"/>
<polygon fill="#f5f5f5" stroke="transparent" points="288,-191.2 288,-214.2 648,-214.2 648,-191.2 288,-191.2"/>
<polygon fill="none" stroke="#000000" points="288,-191.2 288,-214.2 648,-214.2 648,-191.2 288,-191.2"/>
<text text-anchor="start" x="293" y="-199.8" font-family="Helvetica,sans-Serif" font-weight="bold" font-size="11.00" fill="#000000">aluno_responsaveis</text>
<text text-anchor="start" x="613.0437" y="-199.3" font-family="Helvetica,sans-Serif" font-size="11.00" fill="#000000">[table]</text>
<polygon fill="none" stroke="#000000" points="288,-169.2 288,-191.2 443,-191.2 443,-169.2 288,-169.2"/>
<image xlink:href="../../images/foreignKeys.png" width="11px" height="12px" preserveAspectRatio="xMinYMin meet" x="293" y="-186.2"/>
<text text-anchor="start" x="308" y="-176.3" font-family="Helvetica,sans-Serif" font-size="11.00" fill="#000000">aluno_origem_id</text>
<polygon fill="none" stroke="#000000" points="443,-169.2 443,-191.2 648,-191.2 648,-169.2 443,-169.2"/>
<text text-anchor="start" x="446" y="-176.9" font-family="Helvetica,sans-Serif" font-size="11.00" fill="#000000">int4[10]</text>
<polygon fill="none" stroke="#000000" points="288,-147.2 288,-169.2 443,-169.2 443,-147.2 288,-147.2"/>
<image xlink:href="../../images/foreignKeys.png" width="11px" height="12px" preserveAspectRatio="xMinYMin meet" x="293" y="-164.2"/>
<text text-anchor="start" x="308" y="-154.3" font-family="Helvetica,sans-Serif" font-size="11.00" fill="#000000">responsavel_origem_id</text>
<polygon fill="none" stroke="#000000" points="443,-147.2 443,-169.2 648,-169.2 648,-147.2 443,-147.2"/>
<text text-anchor="start" x="446" y="-154.9" font-family="Helvetica,sans-Serif" font-size="11.00" fill="#000000">int4[10]</text>
<polygon fill="none" stroke="#000000" points="288,-125.2 288,-147.2 443,-147.2 443,-125.2 288,-125.2"/>
<text text-anchor="start" x="308" y="-132.3" font-family="Helvetica,sans-Serif" font-size="11.00" fill="#000000">permite_retirar_aluno</text>
<polygon fill="none" stroke="#000000" points="443,-125.2 443,-147.2 648,-147.2 648,-125.2 443,-125.2"/>
<text text-anchor="start" x="446" y="-132.9" font-family="Helvetica,sans-Serif" font-size="11.00" fill="#000000">bool[1]</text>
<polygon fill="none" stroke="#000000" points="288,-103.2 288,-125.2 443,-125.2 443,-103.2 288,-103.2"/>
<text text-anchor="start" x="308" y="-110.3" font-family="Helvetica,sans-Serif" font-size="11.00" fill="#000000">dia_semana</text>
<polygon fill="none" stroke="#000000" points="443,-103.2 443,-125.2 648,-125.2 648,-103.2 443,-103.2"/>
<text text-anchor="start" x="445.9841" y="-110.9" font-family="Helvetica,sans-Serif" font-size="11.00" fill="#000000">&quot;educacao&quot;.&quot;_diassemana&quot;[2147483647]</text>
<polygon fill="none" stroke="#000000" points="288,-81.2 288,-103.2 443,-103.2 443,-81.2 288,-81.2"/>
<text text-anchor="start" x="308" y="-88.3" font-family="Helvetica,sans-Serif" font-size="11.00" fill="#000000">parentesco</text>
<polygon fill="none" stroke="#000000" points="443,-81.2 443,-103.2 648,-103.2 648,-81.2 443,-81.2"/>
<text text-anchor="start" x="446" y="-88.9" font-family="Helvetica,sans-Serif" font-size="11.00" fill="#000000">&quot;educacao&quot;.&quot;parentescos&quot;[2147483647]</text>
<polygon fill="none" stroke="#000000" points="288,-59.2 288,-81.2 443,-81.2 443,-59.2 288,-59.2"/>
<text text-anchor="start" x="308" y="-66.3" font-family="Helvetica,sans-Serif" font-size="11.00" fill="#000000">outro_parentesco</text>
<polygon fill="none" stroke="#000000" points="443,-59.2 443,-81.2 648,-81.2 648,-59.2 443,-59.2"/>
<text text-anchor="start" x="446" y="-66.9" font-family="Helvetica,sans-Serif" font-size="11.00" fill="#000000">varchar[50]</text>
<polygon fill="#ffffff" stroke="transparent" points="288,-40.2 288,-59.2 370,-59.2 370,-40.2 288,-40.2"/>
<polygon fill="none" stroke="#000000" points="288,-40.2 288,-59.2 370,-59.2 370,-40.2 288,-40.2"/>
<text text-anchor="start" x="291" y="-46.3" font-family="Helvetica,sans-Serif" font-size="11.00" fill="#000000">&lt; 2</text>
<polygon fill="#ffffff" stroke="transparent" points="370,-40.2 370,-59.2 443,-59.2 443,-40.2 370,-40.2"/>
<polygon fill="none" stroke="#000000" points="370,-40.2 370,-59.2 443,-59.2 443,-40.2 370,-40.2"/>
<text text-anchor="start" x="433.8862" y="-46.3" font-family="Helvetica,sans-Serif" font-size="11.00" fill="#000000"> &#160;</text>
<polygon fill="#ffffff" stroke="transparent" points="443,-40.2 443,-59.2 648,-59.2 648,-40.2 443,-40.2"/>
<polygon fill="none" stroke="#000000" points="443,-40.2 443,-59.2 648,-59.2 648,-40.2 443,-40.2"/>
<text text-anchor="start" x="629.4053" y="-46.3" font-family="Helvetica,sans-Serif" font-size="11.00" fill="#000000">0 &gt;</text>
<polygon fill="none" stroke="#000000" stroke-width="2" points="287,-39.2 287,-215.2 649,-215.2 649,-39.2 287,-39.2"/>
</a>
</g>
</g>
<!-- inscricao_lista_espera_situacoes -->
<g id="node2" class="node">
<title>inscricao_lista_espera_situacoes</title>
<g id="a_node2"><a xlink:href="../../tables/inscricao_lista_espera_situacoes.html" xlink:title="inscricao_lista_espera_situacoes" target="_top">
<polygon fill="#ffffff" stroke="transparent" points="8,-120.7 8,-203.7 237,-203.7 237,-120.7 8,-120.7"/>
<polygon fill="#f5f5f5" stroke="transparent" points="8.5,-180.2 8.5,-203.2 237.5,-203.2 237.5,-180.2 8.5,-180.2"/>
<polygon fill="none" stroke="#000000" points="8.5,-180.2 8.5,-203.2 237.5,-203.2 237.5,-180.2 8.5,-180.2"/>
<text text-anchor="start" x="13.5" y="-188.8" font-family="Helvetica,sans-Serif" font-weight="bold" font-size="11.00" fill="#000000">inscricao_lista_espera_situacoes</text>
<text text-anchor="start" x="203.0219" y="-188.3" font-family="Helvetica,sans-Serif" font-size="11.00" fill="#000000">[table]</text>
<polygon fill="none" stroke="#000000" points="8.5,-158.2 8.5,-180.2 237.5,-180.2 237.5,-158.2 8.5,-158.2"/>
<image xlink:href="../../images/primaryKeys.png" width="11px" height="12px" preserveAspectRatio="xMinYMin meet" x="13.5" y="-175.2"/>
<text text-anchor="start" x="37.5" y="-165.3" font-family="Helvetica,sans-Serif" font-size="11.00" fill="#000000">id</text>
<polygon fill="none" stroke="#000000" points="8.5,-139.2 8.5,-158.2 237.5,-158.2 237.5,-139.2 8.5,-139.2"/>
<text text-anchor="start" x="11.5" y="-145.3" font-family="Helvetica,sans-Serif" font-size="11.00" fill="#000000">...</text>
<polygon fill="#ffffff" stroke="transparent" points="8.5,-120.2 8.5,-139.2 106.5,-139.2 106.5,-120.2 8.5,-120.2"/>
<polygon fill="none" stroke="#000000" points="8.5,-120.2 8.5,-139.2 106.5,-139.2 106.5,-120.2 8.5,-120.2"/>
<text text-anchor="start" x="11.5" y="-126.3" font-family="Helvetica,sans-Serif" font-size="11.00" fill="#000000"> &#160;</text>
<polygon fill="#ffffff" stroke="transparent" points="106.5,-120.2 106.5,-139.2 161.5,-139.2 161.5,-120.2 106.5,-120.2"/>
<polygon fill="none" stroke="#000000" points="106.5,-120.2 106.5,-139.2 161.5,-139.2 161.5,-120.2 106.5,-120.2"/>
<text text-anchor="start" x="152.3862" y="-126.3" font-family="Helvetica,sans-Serif" font-size="11.00" fill="#000000"> &#160;</text>
<polygon fill="#ffffff" stroke="transparent" points="161.5,-120.2 161.5,-139.2 237.5,-139.2 237.5,-120.2 161.5,-120.2"/>
<polygon fill="none" stroke="#000000" points="161.5,-120.2 161.5,-139.2 237.5,-139.2 237.5,-120.2 161.5,-120.2"/>
<text text-anchor="start" x="206.6755" y="-126.3" font-family="Helvetica,sans-Serif" font-size="11.00" fill="#000000">596 &gt;</text>
</a>
</g>
</g>
<!-- aluno_responsaveis&#45;&gt;inscricao_lista_espera_situacoes -->
<g id="edge1" class="edge">
<title>aluno_responsaveis:w&#45;&gt;inscricao_lista_espera_situacoes:e</title>
<path fill="none" stroke="#000000" stroke-dasharray="5,2" d="M273.6489,-178.4813C261.5992,-175.3875 254.728,-169.2 237.5,-169.2"/>
<polygon fill="#000000" stroke="#000000" points="280.0568,-179.2486 287.5719,-183.7745 284.0284,-179.7243 288,-180.2 288,-180.2 288,-180.2 284.0284,-179.7243 288.4281,-176.6255 280.0568,-179.2486 280.0568,-179.2486"/>
<ellipse fill="none" stroke="#000000" cx="276.8795" cy="-178.8681" rx="3.2" ry="3.2"/>
</g>
<!-- aluno_responsaveis&#45;&gt;inscricao_lista_espera_situacoes -->
<g id="edge2" class="edge">
<title>aluno_responsaveis:w&#45;&gt;inscricao_lista_espera_situacoes:e</title>
<path fill="none" stroke="#000000" stroke-dasharray="5,2" d="M273.6489,-159.9188C261.5992,-163.0125 254.728,-169.2 237.5,-169.2"/>
<polygon fill="#000000" stroke="#000000" points="280.0568,-159.1514 288.4281,-161.7745 284.0284,-158.6757 288,-158.2 288,-158.2 288,-158.2 284.0284,-158.6757 287.5719,-154.6255 280.0568,-159.1514 280.0568,-159.1514"/>
<ellipse fill="none" stroke="#000000" cx="276.8795" cy="-159.5319" rx="3.2" ry="3.2"/>
</g>
</g>
</svg>
