<?xml version="1.0" encoding="UTF-8" standalone="no"?>
<!DOCTYPE svg PUBLIC "-//W3C//DTD SVG 1.1//EN"
 "http://www.w3.org/Graphics/SVG/1.1/DTD/svg11.dtd">
<!-- Generated by graphviz version 2.40.1 (20161225.0304)
 -->
<!-- Title: oneDegreeRelationshipsDiagramImplied Pages: 1 -->
<svg width="672pt" height="250pt"
 viewBox="0.00 0.00 672.00 250.20" xmlns="http://www.w3.org/2000/svg" xmlns:xlink="http://www.w3.org/1999/xlink">
<g id="graph0" class="graph" transform="scale(1 1) rotate(0) translate(4 246.2)">
<title>oneDegreeRelationshipsDiagramImplied</title>
<polygon fill="#ffffff" stroke="transparent" points="-4,4 -4,-246.2 668,-246.2 668,4 -4,4"/>
<text text-anchor="middle" x="72.4936" y="-7.3" font-family="Helvetica,sans-Serif" font-size="11.00" fill="#000000">Generated by SchemaSpy</text>
<!-- aluno_filiacoes -->
<g id="node1" class="node">
<title>aluno_filiacoes</title>
<g id="a_node1"><a xlink:href="../../tables/aluno_filiacoes.html" xlink:title="aluno_filiacoes" target="_top">
<polygon fill="#ffffff" stroke="transparent" points="286,-38.2 286,-238.2 656,-238.2 656,-38.2 286,-38.2"/>
<polygon fill="#f5f5f5" stroke="transparent" points="288,-213.2 288,-236.2 654,-236.2 654,-213.2 288,-213.2"/>
<polygon fill="none" stroke="#000000" points="288,-213.2 288,-236.2 654,-236.2 654,-213.2 288,-213.2"/>
<text text-anchor="start" x="293" y="-221.8" font-family="Helvetica,sans-Serif" font-weight="bold" font-size="11.00" fill="#000000">aluno_filiacoes</text>
<text text-anchor="start" x="619.0437" y="-221.3" font-family="Helvetica,sans-Serif" font-size="11.00" fill="#000000">[table]</text>
<polygon fill="none" stroke="#000000" points="288,-191.2 288,-213.2 432,-213.2 432,-191.2 288,-191.2"/>
<image xlink:href="../../images/foreignKeys.png" width="11px" height="12px" preserveAspectRatio="xMinYMin meet" x="293" y="-208.2"/>
<text text-anchor="start" x="308" y="-198.3" font-family="Helvetica,sans-Serif" font-size="11.00" fill="#000000">aluno_origem_id</text>
<polygon fill="none" stroke="#000000" points="432,-191.2 432,-213.2 654,-213.2 654,-191.2 432,-191.2"/>
<text text-anchor="start" x="435" y="-198.9" font-family="Helvetica,sans-Serif" font-size="11.00" fill="#000000">int4[10]</text>
<polygon fill="none" stroke="#000000" points="288,-169.2 288,-191.2 432,-191.2 432,-169.2 288,-169.2"/>
<image xlink:href="../../images/foreignKeys.png" width="11px" height="12px" preserveAspectRatio="xMinYMin meet" x="293" y="-186.2"/>
<text text-anchor="start" x="308" y="-176.3" font-family="Helvetica,sans-Serif" font-size="11.00" fill="#000000">filiacao_origem_id</text>
<polygon fill="none" stroke="#000000" points="432,-169.2 432,-191.2 654,-191.2 654,-169.2 432,-169.2"/>
<text text-anchor="start" x="435" y="-176.9" font-family="Helvetica,sans-Serif" font-size="11.00" fill="#000000">int4[10]</text>
<polygon fill="none" stroke="#000000" points="288,-147.2 288,-169.2 432,-169.2 432,-147.2 288,-147.2"/>
<text text-anchor="start" x="308" y="-154.3" font-family="Helvetica,sans-Serif" font-size="11.00" fill="#000000">permite_retirar_aluno</text>
<polygon fill="none" stroke="#000000" points="432,-147.2 432,-169.2 654,-169.2 654,-147.2 432,-147.2"/>
<text text-anchor="start" x="435" y="-154.9" font-family="Helvetica,sans-Serif" font-size="11.00" fill="#000000">bool[1]</text>
<polygon fill="none" stroke="#000000" points="288,-125.2 288,-147.2 432,-147.2 432,-125.2 288,-125.2"/>
<text text-anchor="start" x="308" y="-132.3" font-family="Helvetica,sans-Serif" font-size="11.00" fill="#000000">dia_semana</text>
<polygon fill="none" stroke="#000000" points="432,-125.2 432,-147.2 654,-147.2 654,-125.2 432,-125.2"/>
<text text-anchor="start" x="435" y="-132.9" font-family="Helvetica,sans-Serif" font-size="11.00" fill="#000000">&quot;educacao&quot;.&quot;_diassemana&quot;[2147483647]</text>
<polygon fill="none" stroke="#000000" points="288,-103.2 288,-125.2 432,-125.2 432,-103.2 288,-103.2"/>
<text text-anchor="start" x="308" y="-110.3" font-family="Helvetica,sans-Serif" font-size="11.00" fill="#000000">eh_responsavel</text>
<polygon fill="none" stroke="#000000" points="432,-103.2 432,-125.2 654,-125.2 654,-103.2 432,-103.2"/>
<text text-anchor="start" x="435" y="-110.9" font-family="Helvetica,sans-Serif" font-size="11.00" fill="#000000">bool[1]</text>
<polygon fill="none" stroke="#000000" points="288,-81.2 288,-103.2 432,-103.2 432,-81.2 288,-81.2"/>
<text text-anchor="start" x="308" y="-88.3" font-family="Helvetica,sans-Serif" font-size="11.00" fill="#000000">tipo</text>
<polygon fill="none" stroke="#000000" points="432,-81.2 432,-103.2 654,-103.2 654,-81.2 432,-81.2"/>
<text text-anchor="start" x="435" y="-88.9" font-family="Helvetica,sans-Serif" font-size="11.00" fill="#000000">&quot;educacao&quot;.&quot;tiposfiliacoes&quot;[2147483647]</text>
<polygon fill="none" stroke="#000000" points="288,-59.2 288,-81.2 432,-81.2 432,-59.2 288,-59.2"/>
<text text-anchor="start" x="308" y="-66.3" font-family="Helvetica,sans-Serif" font-size="11.00" fill="#000000">natureza</text>
<polygon fill="none" stroke="#000000" points="432,-59.2 432,-81.2 654,-81.2 654,-59.2 432,-59.2"/>
<text text-anchor="start" x="434.9289" y="-66.9" font-family="Helvetica,sans-Serif" font-size="11.00" fill="#000000">&quot;educacao&quot;.&quot;naturezasfiliacao&quot;[2147483647]</text>
<polygon fill="#ffffff" stroke="transparent" points="288,-40.2 288,-59.2 364,-59.2 364,-40.2 288,-40.2"/>
<polygon fill="none" stroke="#000000" points="288,-40.2 288,-59.2 364,-59.2 364,-40.2 288,-40.2"/>
<text text-anchor="start" x="291" y="-46.3" font-family="Helvetica,sans-Serif" font-size="11.00" fill="#000000">&lt; 2</text>
<polygon fill="#ffffff" stroke="transparent" points="364,-40.2 364,-59.2 432,-59.2 432,-40.2 364,-40.2"/>
<polygon fill="none" stroke="#000000" points="364,-40.2 364,-59.2 432,-59.2 432,-40.2 364,-40.2"/>
<text text-anchor="start" x="422.8862" y="-46.3" font-family="Helvetica,sans-Serif" font-size="11.00" fill="#000000"> &#160;</text>
<polygon fill="#ffffff" stroke="transparent" points="432,-40.2 432,-59.2 654,-59.2 654,-40.2 432,-40.2"/>
<polygon fill="none" stroke="#000000" points="432,-40.2 432,-59.2 654,-59.2 654,-40.2 432,-40.2"/>
<text text-anchor="start" x="635.4053" y="-46.3" font-family="Helvetica,sans-Serif" font-size="11.00" fill="#000000">0 &gt;</text>
<polygon fill="none" stroke="#000000" stroke-width="2" points="287,-39.2 287,-237.2 655,-237.2 655,-39.2 287,-39.2"/>
</a>
</g>
</g>
<!-- inscricao_lista_espera_situacoes -->
<g id="node2" class="node">
<title>inscricao_lista_espera_situacoes</title>
<g id="a_node2"><a xlink:href="../../tables/inscricao_lista_espera_situacoes.html" xlink:title="inscricao_lista_espera_situacoes" target="_top">
<polygon fill="#ffffff" stroke="transparent" points="8,-142.7 8,-225.7 237,-225.7 237,-142.7 8,-142.7"/>
<polygon fill="#f5f5f5" stroke="transparent" points="8.5,-202.2 8.5,-225.2 237.5,-225.2 237.5,-202.2 8.5,-202.2"/>
<polygon fill="none" stroke="#000000" points="8.5,-202.2 8.5,-225.2 237.5,-225.2 237.5,-202.2 8.5,-202.2"/>
<text text-anchor="start" x="13.5" y="-210.8" font-family="Helvetica,sans-Serif" font-weight="bold" font-size="11.00" fill="#000000">inscricao_lista_espera_situacoes</text>
<text text-anchor="start" x="203.0219" y="-210.3" font-family="Helvetica,sans-Serif" font-size="11.00" fill="#000000">[table]</text>
<polygon fill="none" stroke="#000000" points="8.5,-180.2 8.5,-202.2 237.5,-202.2 237.5,-180.2 8.5,-180.2"/>
<image xlink:href="../../images/primaryKeys.png" width="11px" height="12px" preserveAspectRatio="xMinYMin meet" x="13.5" y="-197.2"/>
<text text-anchor="start" x="37.5" y="-187.3" font-family="Helvetica,sans-Serif" font-size="11.00" fill="#000000">id</text>
<polygon fill="none" stroke="#000000" points="8.5,-161.2 8.5,-180.2 237.5,-180.2 237.5,-161.2 8.5,-161.2"/>
<text text-anchor="start" x="11.5" y="-167.3" font-family="Helvetica,sans-Serif" font-size="11.00" fill="#000000">...</text>
<polygon fill="#ffffff" stroke="transparent" points="8.5,-142.2 8.5,-161.2 106.5,-161.2 106.5,-142.2 8.5,-142.2"/>
<polygon fill="none" stroke="#000000" points="8.5,-142.2 8.5,-161.2 106.5,-161.2 106.5,-142.2 8.5,-142.2"/>
<text text-anchor="start" x="11.5" y="-148.3" font-family="Helvetica,sans-Serif" font-size="11.00" fill="#000000"> &#160;</text>
<polygon fill="#ffffff" stroke="transparent" points="106.5,-142.2 106.5,-161.2 161.5,-161.2 161.5,-142.2 106.5,-142.2"/>
<polygon fill="none" stroke="#000000" points="106.5,-142.2 106.5,-161.2 161.5,-161.2 161.5,-142.2 106.5,-142.2"/>
<text text-anchor="start" x="152.3862" y="-148.3" font-family="Helvetica,sans-Serif" font-size="11.00" fill="#000000"> &#160;</text>
<polygon fill="#ffffff" stroke="transparent" points="161.5,-142.2 161.5,-161.2 237.5,-161.2 237.5,-142.2 161.5,-142.2"/>
<polygon fill="none" stroke="#000000" points="161.5,-142.2 161.5,-161.2 237.5,-161.2 237.5,-142.2 161.5,-142.2"/>
<text text-anchor="start" x="206.6755" y="-148.3" font-family="Helvetica,sans-Serif" font-size="11.00" fill="#000000">596 &gt;</text>
</a>
</g>
</g>
<!-- aluno_filiacoes&#45;&gt;inscricao_lista_espera_situacoes -->
<g id="edge1" class="edge">
<title>aluno_filiacoes:w&#45;&gt;inscricao_lista_espera_situacoes:e</title>
<path fill="none" stroke="#000000" stroke-dasharray="5,2" d="M273.6489,-200.4813C261.5992,-197.3875 254.728,-191.2 237.5,-191.2"/>
<polygon fill="#000000" stroke="#000000" points="280.0568,-201.2486 287.5719,-205.7745 284.0284,-201.7243 288,-202.2 288,-202.2 288,-202.2 284.0284,-201.7243 288.4281,-198.6255 280.0568,-201.2486 280.0568,-201.2486"/>
<ellipse fill="none" stroke="#000000" cx="276.8795" cy="-200.8681" rx="3.2" ry="3.2"/>
</g>
<!-- aluno_filiacoes&#45;&gt;inscricao_lista_espera_situacoes -->
<g id="edge2" class="edge">
<title>aluno_filiacoes:w&#45;&gt;inscricao_lista_espera_situacoes:e</title>
<path fill="none" stroke="#000000" stroke-dasharray="5,2" d="M273.6489,-181.9188C261.5992,-185.0125 254.728,-191.2 237.5,-191.2"/>
<polygon fill="#000000" stroke="#000000" points="280.0568,-181.1514 288.4281,-183.7745 284.0284,-180.6757 288,-180.2 288,-180.2 288,-180.2 284.0284,-180.6757 287.5719,-176.6255 280.0568,-181.1514 280.0568,-181.1514"/>
<ellipse fill="none" stroke="#000000" cx="276.8795" cy="-181.5319" rx="3.2" ry="3.2"/>
</g>
</g>
</svg>
