<?xml version="1.0" encoding="UTF-8" standalone="no"?>
<!DOCTYPE svg PUBLIC "-//W3C//DTD SVG 1.1//EN"
 "http://www.w3.org/Graphics/SVG/1.1/DTD/svg11.dtd">
<!-- Generated by graphviz version 2.40.1 (20161225.0304)
 -->
<!-- Title: oneDegreeRelationshipsDiagram Pages: 1 -->
<svg width="201pt" height="140pt"
 viewBox="0.00 0.00 201.00 140.20" xmlns="http://www.w3.org/2000/svg" xmlns:xlink="http://www.w3.org/1999/xlink">
<g id="graph0" class="graph" transform="scale(1 1) rotate(0) translate(4 136.2)">
<title>oneDegreeRelationshipsDiagram</title>
<polygon fill="#ffffff" stroke="transparent" points="-4,4 -4,-136.2 197,-136.2 197,4 -4,4"/>
<text text-anchor="middle" x="72.4936" y="-7.3" font-family="Helvetica,sans-Serif" font-size="11.00" fill="#000000">Generated by SchemaSpy</text>
<!-- aluno_telefones -->
<g id="node1" class="node">
<title>aluno_telefones</title>
<g id="a_node1"><a xlink:href="../../tables/aluno_telefones.html" xlink:title="aluno_telefones" target="_top">
<polygon fill="#ffffff" stroke="transparent" points="8,-38.2 8,-128.2 185,-128.2 185,-38.2 8,-38.2"/>
<polygon fill="#f5f5f5" stroke="transparent" points="10.5,-103.2 10.5,-126.2 183.5,-126.2 183.5,-103.2 10.5,-103.2"/>
<polygon fill="none" stroke="#000000" points="10.5,-103.2 10.5,-126.2 183.5,-126.2 183.5,-103.2 10.5,-103.2"/>
<text text-anchor="start" x="15.5" y="-111.8" font-family="Helvetica,sans-Serif" font-weight="bold" font-size="11.00" fill="#000000">aluno_telefones</text>
<text text-anchor="start" x="148.5437" y="-111.3" font-family="Helvetica,sans-Serif" font-size="11.00" fill="#000000">[table]</text>
<polygon fill="none" stroke="#000000" points="10.5,-81.2 10.5,-103.2 141.5,-103.2 141.5,-81.2 10.5,-81.2"/>
<image xlink:href="../../images/foreignKeys.png" width="11px" height="12px" preserveAspectRatio="xMinYMin meet" x="15.5" y="-98.2"/>
<text text-anchor="start" x="30.5" y="-88.3" font-family="Helvetica,sans-Serif" font-size="11.00" fill="#000000">telefone_origem_id</text>
<polygon fill="none" stroke="#000000" points="141.5,-81.2 141.5,-103.2 183.5,-103.2 183.5,-81.2 141.5,-81.2"/>
<text text-anchor="start" x="144.4644" y="-88.9" font-family="Helvetica,sans-Serif" font-size="11.00" fill="#000000">int4[10]</text>
<polygon fill="none" stroke="#000000" points="10.5,-59.2 10.5,-81.2 141.5,-81.2 141.5,-59.2 10.5,-59.2"/>
<image xlink:href="../../images/foreignKeys.png" width="11px" height="12px" preserveAspectRatio="xMinYMin meet" x="15.5" y="-76.2"/>
<text text-anchor="start" x="30.5" y="-66.3" font-family="Helvetica,sans-Serif" font-size="11.00" fill="#000000">aluno_origem_id</text>
<polygon fill="none" stroke="#000000" points="141.5,-59.2 141.5,-81.2 183.5,-81.2 183.5,-59.2 141.5,-59.2"/>
<text text-anchor="start" x="144.4644" y="-66.9" font-family="Helvetica,sans-Serif" font-size="11.00" fill="#000000">int4[10]</text>
<polygon fill="#ffffff" stroke="transparent" points="10.5,-40.2 10.5,-59.2 80.5,-59.2 80.5,-40.2 10.5,-40.2"/>
<polygon fill="none" stroke="#000000" points="10.5,-40.2 10.5,-59.2 80.5,-59.2 80.5,-40.2 10.5,-40.2"/>
<text text-anchor="start" x="13.5" y="-46.3" font-family="Helvetica,sans-Serif" font-size="11.00" fill="#000000">&lt; 0</text>
<polygon fill="#ffffff" stroke="transparent" points="80.5,-40.2 80.5,-59.2 141.5,-59.2 141.5,-40.2 80.5,-40.2"/>
<polygon fill="none" stroke="#000000" points="80.5,-40.2 80.5,-59.2 141.5,-59.2 141.5,-40.2 80.5,-40.2"/>
<text text-anchor="start" x="132.3862" y="-46.3" font-family="Helvetica,sans-Serif" font-size="11.00" fill="#000000"> &#160;</text>
<polygon fill="#ffffff" stroke="transparent" points="141.5,-40.2 141.5,-59.2 183.5,-59.2 183.5,-40.2 141.5,-40.2"/>
<polygon fill="none" stroke="#000000" points="141.5,-40.2 141.5,-59.2 183.5,-59.2 183.5,-40.2 141.5,-40.2"/>
<text text-anchor="start" x="164.9053" y="-46.3" font-family="Helvetica,sans-Serif" font-size="11.00" fill="#000000">0 &gt;</text>
<polygon fill="none" stroke="#000000" stroke-width="2" points="9,-39.2 9,-127.2 184,-127.2 184,-39.2 9,-39.2"/>
</a>
</g>
</g>
</g>
</svg>
