<?xml version="1.0" encoding="UTF-8" standalone="no"?>
<!DOCTYPE svg PUBLIC "-//W3C//DTD SVG 1.1//EN"
 "http://www.w3.org/Graphics/SVG/1.1/DTD/svg11.dtd">
<!-- Generated by graphviz version 2.40.1 (20161225.0304)
 -->
<!-- Title: oneDegreeRelationshipsDiagramImplied Pages: 1 -->
<svg width="548pt" height="146pt"
 viewBox="0.00 0.00 548.00 145.70" xmlns="http://www.w3.org/2000/svg" xmlns:xlink="http://www.w3.org/1999/xlink">
<g id="graph0" class="graph" transform="scale(1 1) rotate(0) translate(4 141.7)">
<title>oneDegreeRelationshipsDiagramImplied</title>
<polygon fill="#ffffff" stroke="transparent" points="-4,4 -4,-141.7 544,-141.7 544,4 -4,4"/>
<text text-anchor="middle" x="72.4936" y="-7.3" font-family="Helvetica,sans-Serif" font-size="11.00" fill="#000000">Generated by SchemaSpy</text>
<!-- aluno_transtornos_globais -->
<g id="node1" class="node">
<title>aluno_transtornos_globais</title>
<g id="a_node1"><a xlink:href="../../tables/aluno_transtornos_globais.html" xlink:title="aluno_transtornos_globais" target="_top">
<polygon fill="#ffffff" stroke="transparent" points="286,-43.7 286,-133.7 532,-133.7 532,-43.7 286,-43.7"/>
<polygon fill="#f5f5f5" stroke="transparent" points="288,-108.7 288,-131.7 530,-131.7 530,-108.7 288,-108.7"/>
<polygon fill="none" stroke="#000000" points="288,-108.7 288,-131.7 530,-131.7 530,-108.7 288,-108.7"/>
<text text-anchor="start" x="293" y="-117.3" font-family="Helvetica,sans-Serif" font-weight="bold" font-size="11.00" fill="#000000">aluno_transtornos_globais</text>
<text text-anchor="start" x="495.0437" y="-116.8" font-family="Helvetica,sans-Serif" font-size="11.00" fill="#000000">[table]</text>
<polygon fill="none" stroke="#000000" points="288,-86.7 288,-108.7 488,-108.7 488,-86.7 288,-86.7"/>
<image xlink:href="../../images/foreignKeys.png" width="11px" height="12px" preserveAspectRatio="xMinYMin meet" x="293" y="-103.7"/>
<text text-anchor="start" x="308" y="-93.8" font-family="Helvetica,sans-Serif" font-size="11.00" fill="#000000">aluno_origem_id</text>
<polygon fill="none" stroke="#000000" points="488,-86.7 488,-108.7 530,-108.7 530,-86.7 488,-86.7"/>
<text text-anchor="start" x="490.9644" y="-94.4" font-family="Helvetica,sans-Serif" font-size="11.00" fill="#000000">int4[10]</text>
<polygon fill="none" stroke="#000000" points="288,-64.7 288,-86.7 488,-86.7 488,-64.7 288,-64.7"/>
<image xlink:href="../../images/foreignKeys.png" width="11px" height="12px" preserveAspectRatio="xMinYMin meet" x="293" y="-81.7"/>
<text text-anchor="start" x="308" y="-71.8" font-family="Helvetica,sans-Serif" font-size="11.00" fill="#000000">transtornos_globais_origem_id</text>
<polygon fill="none" stroke="#000000" points="488,-64.7 488,-86.7 530,-86.7 530,-64.7 488,-64.7"/>
<text text-anchor="start" x="490.9644" y="-72.4" font-family="Helvetica,sans-Serif" font-size="11.00" fill="#000000">int4[10]</text>
<polygon fill="#ffffff" stroke="transparent" points="288,-45.7 288,-64.7 392,-64.7 392,-45.7 288,-45.7"/>
<polygon fill="none" stroke="#000000" points="288,-45.7 288,-64.7 392,-64.7 392,-45.7 288,-45.7"/>
<text text-anchor="start" x="291" y="-51.8" font-family="Helvetica,sans-Serif" font-size="11.00" fill="#000000">&lt; 2</text>
<polygon fill="#ffffff" stroke="transparent" points="392,-45.7 392,-64.7 488,-64.7 488,-45.7 392,-45.7"/>
<polygon fill="none" stroke="#000000" points="392,-45.7 392,-64.7 488,-64.7 488,-45.7 392,-45.7"/>
<text text-anchor="start" x="478.8862" y="-51.8" font-family="Helvetica,sans-Serif" font-size="11.00" fill="#000000"> &#160;</text>
<polygon fill="#ffffff" stroke="transparent" points="488,-45.7 488,-64.7 530,-64.7 530,-45.7 488,-45.7"/>
<polygon fill="none" stroke="#000000" points="488,-45.7 488,-64.7 530,-64.7 530,-45.7 488,-45.7"/>
<text text-anchor="start" x="511.4053" y="-51.8" font-family="Helvetica,sans-Serif" font-size="11.00" fill="#000000">0 &gt;</text>
<polygon fill="none" stroke="#000000" stroke-width="2" points="287,-44.7 287,-132.7 531,-132.7 531,-44.7 287,-44.7"/>
</a>
</g>
</g>
<!-- inscricao_lista_espera_situacoes -->
<g id="node2" class="node">
<title>inscricao_lista_espera_situacoes</title>
<g id="a_node2"><a xlink:href="../../tables/inscricao_lista_espera_situacoes.html" xlink:title="inscricao_lista_espera_situacoes" target="_top">
<polygon fill="#ffffff" stroke="transparent" points="8,-38.2 8,-121.2 237,-121.2 237,-38.2 8,-38.2"/>
<polygon fill="#f5f5f5" stroke="transparent" points="8.5,-97.7 8.5,-120.7 237.5,-120.7 237.5,-97.7 8.5,-97.7"/>
<polygon fill="none" stroke="#000000" points="8.5,-97.7 8.5,-120.7 237.5,-120.7 237.5,-97.7 8.5,-97.7"/>
<text text-anchor="start" x="13.5" y="-106.3" font-family="Helvetica,sans-Serif" font-weight="bold" font-size="11.00" fill="#000000">inscricao_lista_espera_situacoes</text>
<text text-anchor="start" x="203.0219" y="-105.8" font-family="Helvetica,sans-Serif" font-size="11.00" fill="#000000">[table]</text>
<polygon fill="none" stroke="#000000" points="8.5,-75.7 8.5,-97.7 237.5,-97.7 237.5,-75.7 8.5,-75.7"/>
<image xlink:href="../../images/primaryKeys.png" width="11px" height="12px" preserveAspectRatio="xMinYMin meet" x="13.5" y="-92.7"/>
<text text-anchor="start" x="37.5" y="-82.8" font-family="Helvetica,sans-Serif" font-size="11.00" fill="#000000">id</text>
<polygon fill="none" stroke="#000000" points="8.5,-56.7 8.5,-75.7 237.5,-75.7 237.5,-56.7 8.5,-56.7"/>
<text text-anchor="start" x="11.5" y="-62.8" font-family="Helvetica,sans-Serif" font-size="11.00" fill="#000000">...</text>
<polygon fill="#ffffff" stroke="transparent" points="8.5,-37.7 8.5,-56.7 106.5,-56.7 106.5,-37.7 8.5,-37.7"/>
<polygon fill="none" stroke="#000000" points="8.5,-37.7 8.5,-56.7 106.5,-56.7 106.5,-37.7 8.5,-37.7"/>
<text text-anchor="start" x="11.5" y="-43.8" font-family="Helvetica,sans-Serif" font-size="11.00" fill="#000000"> &#160;</text>
<polygon fill="#ffffff" stroke="transparent" points="106.5,-37.7 106.5,-56.7 161.5,-56.7 161.5,-37.7 106.5,-37.7"/>
<polygon fill="none" stroke="#000000" points="106.5,-37.7 106.5,-56.7 161.5,-56.7 161.5,-37.7 106.5,-37.7"/>
<text text-anchor="start" x="152.3862" y="-43.8" font-family="Helvetica,sans-Serif" font-size="11.00" fill="#000000"> &#160;</text>
<polygon fill="#ffffff" stroke="transparent" points="161.5,-37.7 161.5,-56.7 237.5,-56.7 237.5,-37.7 161.5,-37.7"/>
<polygon fill="none" stroke="#000000" points="161.5,-37.7 161.5,-56.7 237.5,-56.7 237.5,-37.7 161.5,-37.7"/>
<text text-anchor="start" x="206.6755" y="-43.8" font-family="Helvetica,sans-Serif" font-size="11.00" fill="#000000">596 &gt;</text>
</a>
</g>
</g>
<!-- aluno_transtornos_globais&#45;&gt;inscricao_lista_espera_situacoes -->
<g id="edge1" class="edge">
<title>aluno_transtornos_globais:w&#45;&gt;inscricao_lista_espera_situacoes:e</title>
<path fill="none" stroke="#000000" stroke-dasharray="5,2" d="M273.6489,-95.9813C261.5992,-92.8875 254.728,-86.7 237.5,-86.7"/>
<polygon fill="#000000" stroke="#000000" points="280.0568,-96.7486 287.5719,-101.2745 284.0284,-97.2243 288,-97.7 288,-97.7 288,-97.7 284.0284,-97.2243 288.4281,-94.1255 280.0568,-96.7486 280.0568,-96.7486"/>
<ellipse fill="none" stroke="#000000" cx="276.8795" cy="-96.3681" rx="3.2" ry="3.2"/>
</g>
<!-- aluno_transtornos_globais&#45;&gt;inscricao_lista_espera_situacoes -->
<g id="edge2" class="edge">
<title>aluno_transtornos_globais:w&#45;&gt;inscricao_lista_espera_situacoes:e</title>
<path fill="none" stroke="#000000" stroke-dasharray="5,2" d="M273.6489,-77.4188C261.5992,-80.5125 254.728,-86.7 237.5,-86.7"/>
<polygon fill="#000000" stroke="#000000" points="280.0568,-76.6514 288.4281,-79.2745 284.0284,-76.1757 288,-75.7 288,-75.7 288,-75.7 284.0284,-76.1757 287.5719,-72.1255 280.0568,-76.6514 280.0568,-76.6514"/>
<ellipse fill="none" stroke="#000000" cx="276.8795" cy="-77.0319" rx="3.2" ry="3.2"/>
</g>
</g>
</svg>
