<?xml version="1.0" encoding="UTF-8" standalone="no"?>
<!DOCTYPE svg PUBLIC "-//W3C//DTD SVG 1.1//EN"
 "http://www.w3.org/Graphics/SVG/1.1/DTD/svg11.dtd">
<!-- Generated by graphviz version 2.40.1 (20161225.0304)
 -->
<!-- Title: oneDegreeRelationshipsDiagram Pages: 1 -->
<svg width="236pt" height="228pt"
 viewBox="0.00 0.00 236.00 228.20" xmlns="http://www.w3.org/2000/svg" xmlns:xlink="http://www.w3.org/1999/xlink">
<g id="graph0" class="graph" transform="scale(1 1) rotate(0) translate(4 224.2)">
<title>oneDegreeRelationshipsDiagram</title>
<polygon fill="#ffffff" stroke="transparent" points="-4,4 -4,-224.2 232,-224.2 232,4 -4,4"/>
<text text-anchor="middle" x="72.4936" y="-7.3" font-family="Helvetica,sans-Serif" font-size="11.00" fill="#000000">Generated by SchemaSpy</text>
<!-- anos_letivos -->
<g id="node1" class="node">
<title>anos_letivos</title>
<g id="a_node1"><a xlink:href="../../tables/anos_letivos.html" xlink:title="anos_letivos" target="_top">
<polygon fill="#ffffff" stroke="transparent" points="8,-38.2 8,-216.2 220,-216.2 220,-38.2 8,-38.2"/>
<polygon fill="#f5f5f5" stroke="transparent" points="10,-191.2 10,-214.2 218,-214.2 218,-191.2 10,-191.2"/>
<polygon fill="none" stroke="#000000" points="10,-191.2 10,-214.2 218,-214.2 218,-191.2 10,-191.2"/>
<text text-anchor="start" x="15" y="-199.8" font-family="Helvetica,sans-Serif" font-weight="bold" font-size="11.00" fill="#000000">anos_letivos</text>
<text text-anchor="start" x="183.0437" y="-199.3" font-family="Helvetica,sans-Serif" font-size="11.00" fill="#000000">[table]</text>
<polygon fill="none" stroke="#000000" points="10,-169.2 10,-191.2 109,-191.2 109,-169.2 10,-169.2"/>
<text text-anchor="start" x="30" y="-176.3" font-family="Helvetica,sans-Serif" font-size="11.00" fill="#000000">sistema</text>
<polygon fill="none" stroke="#000000" points="109,-169.2 109,-191.2 218,-191.2 218,-169.2 109,-169.2"/>
<text text-anchor="start" x="112" y="-176.9" font-family="Helvetica,sans-Serif" font-size="11.00" fill="#000000">int4[10]</text>
<polygon fill="none" stroke="#000000" points="10,-147.2 10,-169.2 109,-169.2 109,-147.2 10,-147.2"/>
<text text-anchor="start" x="30" y="-154.3" font-family="Helvetica,sans-Serif" font-size="11.00" fill="#000000">tipo_registro</text>
<polygon fill="none" stroke="#000000" points="109,-147.2 109,-169.2 218,-169.2 218,-147.2 109,-147.2"/>
<text text-anchor="start" x="112" y="-154.9" font-family="Helvetica,sans-Serif" font-size="11.00" fill="#000000">text[2147483647]</text>
<polygon fill="none" stroke="#000000" points="10,-125.2 10,-147.2 109,-147.2 109,-125.2 10,-125.2"/>
<text text-anchor="start" x="30" y="-132.3" font-family="Helvetica,sans-Serif" font-size="11.00" fill="#000000">id_integracao</text>
<polygon fill="none" stroke="#000000" points="109,-125.2 109,-147.2 218,-147.2 218,-125.2 109,-125.2"/>
<text text-anchor="start" x="111.5344" y="-132.9" font-family="Helvetica,sans-Serif" font-size="11.00" fill="#000000">varchar[2147483647]</text>
<polygon fill="none" stroke="#000000" points="10,-103.2 10,-125.2 109,-125.2 109,-103.2 10,-103.2"/>
<text text-anchor="start" x="30" y="-110.3" font-family="Helvetica,sans-Serif" font-size="11.00" fill="#000000">id_origem</text>
<polygon fill="none" stroke="#000000" points="109,-103.2 109,-125.2 218,-125.2 218,-103.2 109,-103.2"/>
<text text-anchor="start" x="112" y="-110.9" font-family="Helvetica,sans-Serif" font-size="11.00" fill="#000000">int4[10]</text>
<polygon fill="none" stroke="#000000" points="10,-81.2 10,-103.2 109,-103.2 109,-81.2 10,-81.2"/>
<text text-anchor="start" x="30" y="-88.3" font-family="Helvetica,sans-Serif" font-size="11.00" fill="#000000">id_cloud</text>
<polygon fill="none" stroke="#000000" points="109,-81.2 109,-103.2 218,-103.2 218,-81.2 109,-81.2"/>
<text text-anchor="start" x="112" y="-88.9" font-family="Helvetica,sans-Serif" font-size="11.00" fill="#000000">int4[10]</text>
<polygon fill="none" stroke="#000000" points="10,-59.2 10,-81.2 109,-81.2 109,-59.2 10,-59.2"/>
<text text-anchor="start" x="30" y="-66.3" font-family="Helvetica,sans-Serif" font-size="11.00" fill="#000000">ano</text>
<polygon fill="none" stroke="#000000" points="109,-59.2 109,-81.2 218,-81.2 218,-59.2 109,-59.2"/>
<text text-anchor="start" x="112" y="-66.9" font-family="Helvetica,sans-Serif" font-size="11.00" fill="#000000">varchar[4]</text>
<polygon fill="#ffffff" stroke="transparent" points="10,-40.2 10,-59.2 64,-59.2 64,-40.2 10,-40.2"/>
<polygon fill="none" stroke="#000000" points="10,-40.2 10,-59.2 64,-59.2 64,-40.2 10,-40.2"/>
<text text-anchor="start" x="13" y="-46.3" font-family="Helvetica,sans-Serif" font-size="11.00" fill="#000000">&lt; 0</text>
<polygon fill="#ffffff" stroke="transparent" points="64,-40.2 64,-59.2 109,-59.2 109,-40.2 64,-40.2"/>
<polygon fill="none" stroke="#000000" points="64,-40.2 64,-59.2 109,-59.2 109,-40.2 64,-40.2"/>
<text text-anchor="start" x="99.8862" y="-46.3" font-family="Helvetica,sans-Serif" font-size="11.00" fill="#000000"> &#160;</text>
<polygon fill="#ffffff" stroke="transparent" points="109,-40.2 109,-59.2 218,-59.2 218,-40.2 109,-40.2"/>
<polygon fill="none" stroke="#000000" points="109,-40.2 109,-59.2 218,-59.2 218,-40.2 109,-40.2"/>
<text text-anchor="start" x="199.4053" y="-46.3" font-family="Helvetica,sans-Serif" font-size="11.00" fill="#000000">0 &gt;</text>
<polygon fill="none" stroke="#000000" stroke-width="2" points="9,-39.2 9,-215.2 219,-215.2 219,-39.2 9,-39.2"/>
</a>
</g>
</g>
</g>
</svg>
