<?xml version="1.0" encoding="UTF-8" standalone="no"?>
<!DOCTYPE svg PUBLIC "-//W3C//DTD SVG 1.1//EN"
 "http://www.w3.org/Graphics/SVG/1.1/DTD/svg11.dtd">
<!-- Generated by graphviz version 2.40.1 (20161225.0304)
 -->
<!-- Title: oneDegreeRelationshipsDiagram Pages: 1 -->
<svg width="507pt" height="272pt"
 viewBox="0.00 0.00 507.00 272.20" xmlns="http://www.w3.org/2000/svg" xmlns:xlink="http://www.w3.org/1999/xlink">
<g id="graph0" class="graph" transform="scale(1 1) rotate(0) translate(4 268.2)">
<title>oneDegreeRelationshipsDiagram</title>
<polygon fill="#ffffff" stroke="transparent" points="-4,4 -4,-268.2 503,-268.2 503,4 -4,4"/>
<text text-anchor="middle" x="72.4936" y="-7.3" font-family="Helvetica,sans-Serif" font-size="11.00" fill="#000000">Generated by SchemaSpy</text>
<!-- atividades_complementares -->
<g id="node1" class="node">
<title>atividades_complementares</title>
<g id="a_node1"><a xlink:href="../../tables/atividades_complementares.html" xlink:title="atividades_complementares" target="_top">
<polygon fill="#ffffff" stroke="transparent" points="8,-38.2 8,-260.2 491,-260.2 491,-38.2 8,-38.2"/>
<polygon fill="#f5f5f5" stroke="transparent" points="10.5,-235.2 10.5,-258.2 489.5,-258.2 489.5,-235.2 10.5,-235.2"/>
<polygon fill="none" stroke="#000000" points="10.5,-235.2 10.5,-258.2 489.5,-258.2 489.5,-235.2 10.5,-235.2"/>
<text text-anchor="start" x="15.5" y="-243.8" font-family="Helvetica,sans-Serif" font-weight="bold" font-size="11.00" fill="#000000">atividades_complementares</text>
<text text-anchor="start" x="454.5437" y="-243.3" font-family="Helvetica,sans-Serif" font-size="11.00" fill="#000000">[table]</text>
<polygon fill="none" stroke="#000000" points="10.5,-213.2 10.5,-235.2 191.5,-235.2 191.5,-213.2 10.5,-213.2"/>
<text text-anchor="start" x="30.5" y="-220.3" font-family="Helvetica,sans-Serif" font-size="11.00" fill="#000000">sistema</text>
<polygon fill="none" stroke="#000000" points="191.5,-213.2 191.5,-235.2 489.5,-235.2 489.5,-213.2 191.5,-213.2"/>
<text text-anchor="start" x="194.5" y="-220.9" font-family="Helvetica,sans-Serif" font-size="11.00" fill="#000000">int4[10]</text>
<polygon fill="none" stroke="#000000" points="10.5,-191.2 10.5,-213.2 191.5,-213.2 191.5,-191.2 10.5,-191.2"/>
<text text-anchor="start" x="30.5" y="-198.3" font-family="Helvetica,sans-Serif" font-size="11.00" fill="#000000">tipo_registro</text>
<polygon fill="none" stroke="#000000" points="191.5,-191.2 191.5,-213.2 489.5,-213.2 489.5,-191.2 191.5,-191.2"/>
<text text-anchor="start" x="194.5" y="-198.9" font-family="Helvetica,sans-Serif" font-size="11.00" fill="#000000">text[2147483647]</text>
<polygon fill="none" stroke="#000000" points="10.5,-169.2 10.5,-191.2 191.5,-191.2 191.5,-169.2 10.5,-169.2"/>
<text text-anchor="start" x="30.5" y="-176.3" font-family="Helvetica,sans-Serif" font-size="11.00" fill="#000000">id_integracao</text>
<polygon fill="none" stroke="#000000" points="191.5,-169.2 191.5,-191.2 489.5,-191.2 489.5,-169.2 191.5,-169.2"/>
<text text-anchor="start" x="194.5" y="-176.9" font-family="Helvetica,sans-Serif" font-size="11.00" fill="#000000">varchar[2147483647]</text>
<polygon fill="none" stroke="#000000" points="10.5,-147.2 10.5,-169.2 191.5,-169.2 191.5,-147.2 10.5,-147.2"/>
<text text-anchor="start" x="30.5" y="-154.3" font-family="Helvetica,sans-Serif" font-size="11.00" fill="#000000">id_origem</text>
<polygon fill="none" stroke="#000000" points="191.5,-147.2 191.5,-169.2 489.5,-169.2 489.5,-147.2 191.5,-147.2"/>
<text text-anchor="start" x="194.5" y="-154.9" font-family="Helvetica,sans-Serif" font-size="11.00" fill="#000000">int4[10]</text>
<polygon fill="none" stroke="#000000" points="10.5,-125.2 10.5,-147.2 191.5,-147.2 191.5,-125.2 10.5,-125.2"/>
<text text-anchor="start" x="30.5" y="-132.3" font-family="Helvetica,sans-Serif" font-size="11.00" fill="#000000">id_cloud</text>
<polygon fill="none" stroke="#000000" points="191.5,-125.2 191.5,-147.2 489.5,-147.2 489.5,-125.2 191.5,-125.2"/>
<text text-anchor="start" x="194.5" y="-132.9" font-family="Helvetica,sans-Serif" font-size="11.00" fill="#000000">int4[10]</text>
<polygon fill="none" stroke="#000000" points="10.5,-103.2 10.5,-125.2 191.5,-125.2 191.5,-103.2 10.5,-103.2"/>
<text text-anchor="start" x="30.5" y="-110.3" font-family="Helvetica,sans-Serif" font-size="11.00" fill="#000000">descricao</text>
<polygon fill="none" stroke="#000000" points="191.5,-103.2 191.5,-125.2 489.5,-125.2 489.5,-103.2 191.5,-103.2"/>
<text text-anchor="start" x="194.5" y="-110.9" font-family="Helvetica,sans-Serif" font-size="11.00" fill="#000000">varchar[2147483647]</text>
<polygon fill="none" stroke="#000000" points="10.5,-81.2 10.5,-103.2 191.5,-103.2 191.5,-81.2 10.5,-81.2"/>
<text text-anchor="start" x="30.5" y="-88.3" font-family="Helvetica,sans-Serif" font-size="11.00" fill="#000000">area</text>
<polygon fill="none" stroke="#000000" points="191.5,-81.2 191.5,-103.2 489.5,-103.2 489.5,-81.2 191.5,-81.2"/>
<text text-anchor="start" x="194.5" y="-88.9" font-family="Helvetica,sans-Serif" font-size="11.00" fill="#000000">&quot;educacao&quot;.&quot;areasatividadecomplementar&quot;[2147483647]</text>
<polygon fill="none" stroke="#000000" points="10.5,-59.2 10.5,-81.2 191.5,-81.2 191.5,-59.2 10.5,-59.2"/>
<text text-anchor="start" x="30.5" y="-66.3" font-family="Helvetica,sans-Serif" font-size="11.00" fill="#000000">sub_area</text>
<polygon fill="none" stroke="#000000" points="191.5,-59.2 191.5,-81.2 489.5,-81.2 489.5,-59.2 191.5,-59.2"/>
<text text-anchor="start" x="194.2264" y="-66.9" font-family="Helvetica,sans-Serif" font-size="11.00" fill="#000000">&quot;educacao&quot;.&quot;subareasatividadecomplementar&quot;[2147483647]</text>
<polygon fill="#ffffff" stroke="transparent" points="10.5,-40.2 10.5,-59.2 105.5,-59.2 105.5,-40.2 10.5,-40.2"/>
<polygon fill="none" stroke="#000000" points="10.5,-40.2 10.5,-59.2 105.5,-59.2 105.5,-40.2 10.5,-40.2"/>
<text text-anchor="start" x="13.5" y="-46.3" font-family="Helvetica,sans-Serif" font-size="11.00" fill="#000000">&lt; 0</text>
<polygon fill="#ffffff" stroke="transparent" points="105.5,-40.2 105.5,-59.2 191.5,-59.2 191.5,-40.2 105.5,-40.2"/>
<polygon fill="none" stroke="#000000" points="105.5,-40.2 105.5,-59.2 191.5,-59.2 191.5,-40.2 105.5,-40.2"/>
<text text-anchor="start" x="182.3862" y="-46.3" font-family="Helvetica,sans-Serif" font-size="11.00" fill="#000000"> &#160;</text>
<polygon fill="#ffffff" stroke="transparent" points="191.5,-40.2 191.5,-59.2 489.5,-59.2 489.5,-40.2 191.5,-40.2"/>
<polygon fill="none" stroke="#000000" points="191.5,-40.2 191.5,-59.2 489.5,-59.2 489.5,-40.2 191.5,-40.2"/>
<text text-anchor="start" x="470.9053" y="-46.3" font-family="Helvetica,sans-Serif" font-size="11.00" fill="#000000">0 &gt;</text>
<polygon fill="none" stroke="#000000" stroke-width="2" points="9,-39.2 9,-259.2 490,-259.2 490,-39.2 9,-39.2"/>
</a>
</g>
</g>
</g>
</svg>
