<?xml version="1.0" encoding="UTF-8" standalone="no"?>
<!DOCTYPE svg PUBLIC "-//W3C//DTD SVG 1.1//EN"
 "http://www.w3.org/Graphics/SVG/1.1/DTD/svg11.dtd">
<!-- Generated by graphviz version 2.40.1 (20161225.0304)
 -->
<!-- Title: oneDegreeRelationshipsDiagram Pages: 1 -->
<svg width="505pt" height="756pt"
 viewBox="0.00 0.00 505.00 756.20" xmlns="http://www.w3.org/2000/svg" xmlns:xlink="http://www.w3.org/1999/xlink">
<g id="graph0" class="graph" transform="scale(1 1) rotate(0) translate(4 752.2)">
<title>oneDegreeRelationshipsDiagram</title>
<polygon fill="#ffffff" stroke="transparent" points="-4,4 -4,-752.2 501,-752.2 501,4 -4,4"/>
<text text-anchor="middle" x="72.4936" y="-7.3" font-family="Helvetica,sans-Serif" font-size="11.00" fill="#000000">Generated by SchemaSpy</text>
<!-- aulas_quadros_de_horarios -->
<g id="node1" class="node">
<title>aulas_quadros_de_horarios</title>
<g id="a_node1"><a xlink:href="../../tables/aulas_quadros_de_horarios.html" xlink:title="aulas_quadros_de_horarios" target="_top">
<polygon fill="#ffffff" stroke="transparent" points="8,-38.2 8,-744.2 489,-744.2 489,-38.2 8,-38.2"/>
<polygon fill="#f5f5f5" stroke="transparent" points="10.5,-719.2 10.5,-742.2 487.5,-742.2 487.5,-719.2 10.5,-719.2"/>
<polygon fill="none" stroke="#000000" points="10.5,-719.2 10.5,-742.2 487.5,-742.2 487.5,-719.2 10.5,-719.2"/>
<text text-anchor="start" x="15.5" y="-727.8" font-family="Helvetica,sans-Serif" font-weight="bold" font-size="11.00" fill="#000000">aulas_quadros_de_horarios</text>
<text text-anchor="start" x="452.5437" y="-727.3" font-family="Helvetica,sans-Serif" font-size="11.00" fill="#000000">[table]</text>
<polygon fill="none" stroke="#000000" points="10.5,-697.2 10.5,-719.2 247.5,-719.2 247.5,-697.2 10.5,-697.2"/>
<text text-anchor="start" x="30.5" y="-704.3" font-family="Helvetica,sans-Serif" font-size="11.00" fill="#000000">sistema</text>
<polygon fill="none" stroke="#000000" points="247.5,-697.2 247.5,-719.2 487.5,-719.2 487.5,-697.2 247.5,-697.2"/>
<text text-anchor="start" x="250.5" y="-704.9" font-family="Helvetica,sans-Serif" font-size="11.00" fill="#000000">int4[10]</text>
<polygon fill="none" stroke="#000000" points="10.5,-675.2 10.5,-697.2 247.5,-697.2 247.5,-675.2 10.5,-675.2"/>
<text text-anchor="start" x="30.5" y="-682.3" font-family="Helvetica,sans-Serif" font-size="11.00" fill="#000000">tipo_registro</text>
<polygon fill="none" stroke="#000000" points="247.5,-675.2 247.5,-697.2 487.5,-697.2 487.5,-675.2 247.5,-675.2"/>
<text text-anchor="start" x="250.5" y="-682.9" font-family="Helvetica,sans-Serif" font-size="11.00" fill="#000000">text[2147483647]</text>
<polygon fill="none" stroke="#000000" points="10.5,-653.2 10.5,-675.2 247.5,-675.2 247.5,-653.2 10.5,-653.2"/>
<text text-anchor="start" x="30.5" y="-660.3" font-family="Helvetica,sans-Serif" font-size="11.00" fill="#000000">id_integracao</text>
<polygon fill="none" stroke="#000000" points="247.5,-653.2 247.5,-675.2 487.5,-675.2 487.5,-653.2 247.5,-653.2"/>
<text text-anchor="start" x="250.5" y="-660.9" font-family="Helvetica,sans-Serif" font-size="11.00" fill="#000000">varchar[2147483647]</text>
<polygon fill="none" stroke="#000000" points="10.5,-631.2 10.5,-653.2 247.5,-653.2 247.5,-631.2 10.5,-631.2"/>
<text text-anchor="start" x="30.5" y="-638.3" font-family="Helvetica,sans-Serif" font-size="11.00" fill="#000000">id_origem</text>
<polygon fill="none" stroke="#000000" points="247.5,-631.2 247.5,-653.2 487.5,-653.2 487.5,-631.2 247.5,-631.2"/>
<text text-anchor="start" x="250.5" y="-638.9" font-family="Helvetica,sans-Serif" font-size="11.00" fill="#000000">int4[10]</text>
<polygon fill="none" stroke="#000000" points="10.5,-609.2 10.5,-631.2 247.5,-631.2 247.5,-609.2 10.5,-609.2"/>
<text text-anchor="start" x="30.5" y="-616.3" font-family="Helvetica,sans-Serif" font-size="11.00" fill="#000000">id_cloud</text>
<polygon fill="none" stroke="#000000" points="247.5,-609.2 247.5,-631.2 487.5,-631.2 487.5,-609.2 247.5,-609.2"/>
<text text-anchor="start" x="250.5" y="-616.9" font-family="Helvetica,sans-Serif" font-size="11.00" fill="#000000">int4[10]</text>
<polygon fill="none" stroke="#000000" points="10.5,-587.2 10.5,-609.2 247.5,-609.2 247.5,-587.2 10.5,-587.2"/>
<image xlink:href="../../images/foreignKeys.png" width="11px" height="12px" preserveAspectRatio="xMinYMin meet" x="15.5" y="-604.2"/>
<text text-anchor="start" x="30.5" y="-594.3" font-family="Helvetica,sans-Serif" font-size="11.00" fill="#000000">ano_letivo_origem_id</text>
<polygon fill="none" stroke="#000000" points="247.5,-587.2 247.5,-609.2 487.5,-609.2 487.5,-587.2 247.5,-587.2"/>
<text text-anchor="start" x="250.5" y="-594.9" font-family="Helvetica,sans-Serif" font-size="11.00" fill="#000000">int4[10]</text>
<polygon fill="none" stroke="#000000" points="10.5,-565.2 10.5,-587.2 247.5,-587.2 247.5,-565.2 10.5,-565.2"/>
<image xlink:href="../../images/foreignKeys.png" width="11px" height="12px" preserveAspectRatio="xMinYMin meet" x="15.5" y="-582.2"/>
<text text-anchor="start" x="30.5" y="-572.3" font-family="Helvetica,sans-Serif" font-size="11.00" fill="#000000">ano_letivo_cloud_id</text>
<polygon fill="none" stroke="#000000" points="247.5,-565.2 247.5,-587.2 487.5,-587.2 487.5,-565.2 247.5,-565.2"/>
<text text-anchor="start" x="250.5" y="-572.9" font-family="Helvetica,sans-Serif" font-size="11.00" fill="#000000">int4[10]</text>
<polygon fill="none" stroke="#000000" points="10.5,-543.2 10.5,-565.2 247.5,-565.2 247.5,-543.2 10.5,-543.2"/>
<image xlink:href="../../images/foreignKeys.png" width="11px" height="12px" preserveAspectRatio="xMinYMin meet" x="15.5" y="-560.2"/>
<text text-anchor="start" x="30.5" y="-550.3" font-family="Helvetica,sans-Serif" font-size="11.00" fill="#000000">estabelecimento_origem_id</text>
<polygon fill="none" stroke="#000000" points="247.5,-543.2 247.5,-565.2 487.5,-565.2 487.5,-543.2 247.5,-543.2"/>
<text text-anchor="start" x="250.5" y="-550.9" font-family="Helvetica,sans-Serif" font-size="11.00" fill="#000000">int4[10]</text>
<polygon fill="none" stroke="#000000" points="10.5,-521.2 10.5,-543.2 247.5,-543.2 247.5,-521.2 10.5,-521.2"/>
<image xlink:href="../../images/foreignKeys.png" width="11px" height="12px" preserveAspectRatio="xMinYMin meet" x="15.5" y="-538.2"/>
<text text-anchor="start" x="30.5" y="-528.3" font-family="Helvetica,sans-Serif" font-size="11.00" fill="#000000">estabelecimento_cloud_id</text>
<polygon fill="none" stroke="#000000" points="247.5,-521.2 247.5,-543.2 487.5,-543.2 487.5,-521.2 247.5,-521.2"/>
<text text-anchor="start" x="250.5" y="-528.9" font-family="Helvetica,sans-Serif" font-size="11.00" fill="#000000">int4[10]</text>
<polygon fill="none" stroke="#000000" points="10.5,-499.2 10.5,-521.2 247.5,-521.2 247.5,-499.2 10.5,-499.2"/>
<image xlink:href="../../images/foreignKeys.png" width="11px" height="12px" preserveAspectRatio="xMinYMin meet" x="15.5" y="-516.2"/>
<text text-anchor="start" x="30.5" y="-506.3" font-family="Helvetica,sans-Serif" font-size="11.00" fill="#000000">configuracao_horas_aulas_origem_id</text>
<polygon fill="none" stroke="#000000" points="247.5,-499.2 247.5,-521.2 487.5,-521.2 487.5,-499.2 247.5,-499.2"/>
<text text-anchor="start" x="250.5" y="-506.9" font-family="Helvetica,sans-Serif" font-size="11.00" fill="#000000">int4[10]</text>
<polygon fill="none" stroke="#000000" points="10.5,-477.2 10.5,-499.2 247.5,-499.2 247.5,-477.2 10.5,-477.2"/>
<image xlink:href="../../images/foreignKeys.png" width="11px" height="12px" preserveAspectRatio="xMinYMin meet" x="15.5" y="-494.2"/>
<text text-anchor="start" x="30.5" y="-484.3" font-family="Helvetica,sans-Serif" font-size="11.00" fill="#000000">configuracao_horas_aulas_cloud_id</text>
<polygon fill="none" stroke="#000000" points="247.5,-477.2 247.5,-499.2 487.5,-499.2 487.5,-477.2 247.5,-477.2"/>
<text text-anchor="start" x="250.5" y="-484.9" font-family="Helvetica,sans-Serif" font-size="11.00" fill="#000000">int4[10]</text>
<polygon fill="none" stroke="#000000" points="10.5,-455.2 10.5,-477.2 247.5,-477.2 247.5,-455.2 10.5,-455.2"/>
<image xlink:href="../../images/foreignKeys.png" width="11px" height="12px" preserveAspectRatio="xMinYMin meet" x="15.5" y="-472.2"/>
<text text-anchor="start" x="30.5" y="-462.3" font-family="Helvetica,sans-Serif" font-size="11.00" fill="#000000">turma_origem_id</text>
<polygon fill="none" stroke="#000000" points="247.5,-455.2 247.5,-477.2 487.5,-477.2 487.5,-455.2 247.5,-455.2"/>
<text text-anchor="start" x="250.5" y="-462.9" font-family="Helvetica,sans-Serif" font-size="11.00" fill="#000000">int4[10]</text>
<polygon fill="none" stroke="#000000" points="10.5,-433.2 10.5,-455.2 247.5,-455.2 247.5,-433.2 10.5,-433.2"/>
<image xlink:href="../../images/foreignKeys.png" width="11px" height="12px" preserveAspectRatio="xMinYMin meet" x="15.5" y="-450.2"/>
<text text-anchor="start" x="30.5" y="-440.3" font-family="Helvetica,sans-Serif" font-size="11.00" fill="#000000">turma_cloud_id</text>
<polygon fill="none" stroke="#000000" points="247.5,-433.2 247.5,-455.2 487.5,-455.2 487.5,-433.2 247.5,-433.2"/>
<text text-anchor="start" x="250.5" y="-440.9" font-family="Helvetica,sans-Serif" font-size="11.00" fill="#000000">int4[10]</text>
<polygon fill="none" stroke="#000000" points="10.5,-411.2 10.5,-433.2 247.5,-433.2 247.5,-411.2 10.5,-411.2"/>
<image xlink:href="../../images/foreignKeys.png" width="11px" height="12px" preserveAspectRatio="xMinYMin meet" x="15.5" y="-428.2"/>
<text text-anchor="start" x="30.5" y="-418.3" font-family="Helvetica,sans-Serif" font-size="11.00" fill="#000000">item_educacional_origem_id</text>
<polygon fill="none" stroke="#000000" points="247.5,-411.2 247.5,-433.2 487.5,-433.2 487.5,-411.2 247.5,-411.2"/>
<text text-anchor="start" x="250.5" y="-418.9" font-family="Helvetica,sans-Serif" font-size="11.00" fill="#000000">int4[10]</text>
<polygon fill="none" stroke="#000000" points="10.5,-389.2 10.5,-411.2 247.5,-411.2 247.5,-389.2 10.5,-389.2"/>
<image xlink:href="../../images/foreignKeys.png" width="11px" height="12px" preserveAspectRatio="xMinYMin meet" x="15.5" y="-406.2"/>
<text text-anchor="start" x="30.5" y="-396.3" font-family="Helvetica,sans-Serif" font-size="11.00" fill="#000000">item_educacional_cloud_id</text>
<polygon fill="none" stroke="#000000" points="247.5,-389.2 247.5,-411.2 487.5,-411.2 487.5,-389.2 247.5,-389.2"/>
<text text-anchor="start" x="250.5" y="-396.9" font-family="Helvetica,sans-Serif" font-size="11.00" fill="#000000">int4[10]</text>
<polygon fill="none" stroke="#000000" points="10.5,-367.2 10.5,-389.2 247.5,-389.2 247.5,-367.2 10.5,-367.2"/>
<image xlink:href="../../images/foreignKeys.png" width="11px" height="12px" preserveAspectRatio="xMinYMin meet" x="15.5" y="-384.2"/>
<text text-anchor="start" x="30.5" y="-374.3" font-family="Helvetica,sans-Serif" font-size="11.00" fill="#000000">professor_origem_id</text>
<polygon fill="none" stroke="#000000" points="247.5,-367.2 247.5,-389.2 487.5,-389.2 487.5,-367.2 247.5,-367.2"/>
<text text-anchor="start" x="250.5" y="-374.9" font-family="Helvetica,sans-Serif" font-size="11.00" fill="#000000">int4[10]</text>
<polygon fill="none" stroke="#000000" points="10.5,-345.2 10.5,-367.2 247.5,-367.2 247.5,-345.2 10.5,-345.2"/>
<image xlink:href="../../images/foreignKeys.png" width="11px" height="12px" preserveAspectRatio="xMinYMin meet" x="15.5" y="-362.2"/>
<text text-anchor="start" x="30.5" y="-352.3" font-family="Helvetica,sans-Serif" font-size="11.00" fill="#000000">professor_cloud_id</text>
<polygon fill="none" stroke="#000000" points="247.5,-345.2 247.5,-367.2 487.5,-367.2 487.5,-345.2 247.5,-345.2"/>
<text text-anchor="start" x="250.5" y="-352.9" font-family="Helvetica,sans-Serif" font-size="11.00" fill="#000000">int4[10]</text>
<polygon fill="none" stroke="#000000" points="10.5,-323.2 10.5,-345.2 247.5,-345.2 247.5,-323.2 10.5,-323.2"/>
<image xlink:href="../../images/foreignKeys.png" width="11px" height="12px" preserveAspectRatio="xMinYMin meet" x="15.5" y="-340.2"/>
<text text-anchor="start" x="30.5" y="-330.3" font-family="Helvetica,sans-Serif" font-size="11.00" fill="#000000">dependencia_fisica_origem_id</text>
<polygon fill="none" stroke="#000000" points="247.5,-323.2 247.5,-345.2 487.5,-345.2 487.5,-323.2 247.5,-323.2"/>
<text text-anchor="start" x="250.5" y="-330.9" font-family="Helvetica,sans-Serif" font-size="11.00" fill="#000000">int4[10]</text>
<polygon fill="none" stroke="#000000" points="10.5,-301.2 10.5,-323.2 247.5,-323.2 247.5,-301.2 10.5,-301.2"/>
<image xlink:href="../../images/foreignKeys.png" width="11px" height="12px" preserveAspectRatio="xMinYMin meet" x="15.5" y="-318.2"/>
<text text-anchor="start" x="30.5" y="-308.3" font-family="Helvetica,sans-Serif" font-size="11.00" fill="#000000">dependencia_fisica_cloud_id</text>
<polygon fill="none" stroke="#000000" points="247.5,-301.2 247.5,-323.2 487.5,-323.2 487.5,-301.2 247.5,-301.2"/>
<text text-anchor="start" x="250.5" y="-308.9" font-family="Helvetica,sans-Serif" font-size="11.00" fill="#000000">int4[10]</text>
<polygon fill="none" stroke="#000000" points="10.5,-279.2 10.5,-301.2 247.5,-301.2 247.5,-279.2 10.5,-279.2"/>
<image xlink:href="../../images/foreignKeys.png" width="11px" height="12px" preserveAspectRatio="xMinYMin meet" x="15.5" y="-296.2"/>
<text text-anchor="start" x="30.5" y="-286.3" font-family="Helvetica,sans-Serif" font-size="11.00" fill="#000000">atividade_origem_id</text>
<polygon fill="none" stroke="#000000" points="247.5,-279.2 247.5,-301.2 487.5,-301.2 487.5,-279.2 247.5,-279.2"/>
<text text-anchor="start" x="250.5" y="-286.9" font-family="Helvetica,sans-Serif" font-size="11.00" fill="#000000">int4[10]</text>
<polygon fill="none" stroke="#000000" points="10.5,-257.2 10.5,-279.2 247.5,-279.2 247.5,-257.2 10.5,-257.2"/>
<image xlink:href="../../images/foreignKeys.png" width="11px" height="12px" preserveAspectRatio="xMinYMin meet" x="15.5" y="-274.2"/>
<text text-anchor="start" x="30.5" y="-264.3" font-family="Helvetica,sans-Serif" font-size="11.00" fill="#000000">atividade_cloud_id</text>
<polygon fill="none" stroke="#000000" points="247.5,-257.2 247.5,-279.2 487.5,-279.2 487.5,-257.2 247.5,-257.2"/>
<text text-anchor="start" x="250.5" y="-264.9" font-family="Helvetica,sans-Serif" font-size="11.00" fill="#000000">int4[10]</text>
<polygon fill="none" stroke="#000000" points="10.5,-235.2 10.5,-257.2 247.5,-257.2 247.5,-235.2 10.5,-235.2"/>
<image xlink:href="../../images/foreignKeys.png" width="11px" height="12px" preserveAspectRatio="xMinYMin meet" x="15.5" y="-252.2"/>
<text text-anchor="start" x="30.5" y="-242.3" font-family="Helvetica,sans-Serif" font-size="11.00" fill="#000000">quadro_horario_origem_id</text>
<polygon fill="none" stroke="#000000" points="247.5,-235.2 247.5,-257.2 487.5,-257.2 487.5,-235.2 247.5,-235.2"/>
<text text-anchor="start" x="250.5" y="-242.9" font-family="Helvetica,sans-Serif" font-size="11.00" fill="#000000">int4[10]</text>
<polygon fill="none" stroke="#000000" points="10.5,-213.2 10.5,-235.2 247.5,-235.2 247.5,-213.2 10.5,-213.2"/>
<image xlink:href="../../images/foreignKeys.png" width="11px" height="12px" preserveAspectRatio="xMinYMin meet" x="15.5" y="-230.2"/>
<text text-anchor="start" x="30.5" y="-220.3" font-family="Helvetica,sans-Serif" font-size="11.00" fill="#000000">quadro_horario_cloud_id</text>
<polygon fill="none" stroke="#000000" points="247.5,-213.2 247.5,-235.2 487.5,-235.2 487.5,-213.2 247.5,-213.2"/>
<text text-anchor="start" x="250.5" y="-220.9" font-family="Helvetica,sans-Serif" font-size="11.00" fill="#000000">int4[10]</text>
<polygon fill="none" stroke="#000000" points="10.5,-191.2 10.5,-213.2 247.5,-213.2 247.5,-191.2 10.5,-191.2"/>
<text text-anchor="start" x="30.5" y="-198.3" font-family="Helvetica,sans-Serif" font-size="11.00" fill="#000000">inicio_aula</text>
<polygon fill="none" stroke="#000000" points="247.5,-191.2 247.5,-213.2 487.5,-213.2 487.5,-191.2 247.5,-191.2"/>
<text text-anchor="start" x="250.5" y="-198.9" font-family="Helvetica,sans-Serif" font-size="11.00" fill="#000000">varchar[2147483647]</text>
<polygon fill="none" stroke="#000000" points="10.5,-169.2 10.5,-191.2 247.5,-191.2 247.5,-169.2 10.5,-169.2"/>
<text text-anchor="start" x="30.5" y="-176.3" font-family="Helvetica,sans-Serif" font-size="11.00" fill="#000000">fim_aula</text>
<polygon fill="none" stroke="#000000" points="247.5,-169.2 247.5,-191.2 487.5,-191.2 487.5,-169.2 247.5,-169.2"/>
<text text-anchor="start" x="250.5" y="-176.9" font-family="Helvetica,sans-Serif" font-size="11.00" fill="#000000">varchar[2147483647]</text>
<polygon fill="none" stroke="#000000" points="10.5,-147.2 10.5,-169.2 247.5,-169.2 247.5,-147.2 10.5,-147.2"/>
<text text-anchor="start" x="30.5" y="-154.3" font-family="Helvetica,sans-Serif" font-size="11.00" fill="#000000">vigencia_inicio</text>
<polygon fill="none" stroke="#000000" points="247.5,-147.2 247.5,-169.2 487.5,-169.2 487.5,-147.2 247.5,-147.2"/>
<text text-anchor="start" x="250.5" y="-154.9" font-family="Helvetica,sans-Serif" font-size="11.00" fill="#000000">date[13]</text>
<polygon fill="none" stroke="#000000" points="10.5,-125.2 10.5,-147.2 247.5,-147.2 247.5,-125.2 10.5,-125.2"/>
<text text-anchor="start" x="30.5" y="-132.3" font-family="Helvetica,sans-Serif" font-size="11.00" fill="#000000">vigencia_fim</text>
<polygon fill="none" stroke="#000000" points="247.5,-125.2 247.5,-147.2 487.5,-147.2 487.5,-125.2 247.5,-125.2"/>
<text text-anchor="start" x="250.5" y="-132.9" font-family="Helvetica,sans-Serif" font-size="11.00" fill="#000000">date[13]</text>
<polygon fill="none" stroke="#000000" points="10.5,-103.2 10.5,-125.2 247.5,-125.2 247.5,-103.2 10.5,-103.2"/>
<text text-anchor="start" x="30.5" y="-110.3" font-family="Helvetica,sans-Serif" font-size="11.00" fill="#000000">dia_semana</text>
<polygon fill="none" stroke="#000000" points="247.5,-103.2 247.5,-125.2 487.5,-125.2 487.5,-103.2 247.5,-103.2"/>
<text text-anchor="start" x="250.5" y="-110.9" font-family="Helvetica,sans-Serif" font-size="11.00" fill="#000000">&quot;educacao&quot;.&quot;diasdasemana&quot;[2147483647]</text>
<polygon fill="none" stroke="#000000" points="10.5,-81.2 10.5,-103.2 247.5,-103.2 247.5,-81.2 10.5,-81.2"/>
<text text-anchor="start" x="30.5" y="-88.3" font-family="Helvetica,sans-Serif" font-size="11.00" fill="#000000">numero</text>
<polygon fill="none" stroke="#000000" points="247.5,-81.2 247.5,-103.2 487.5,-103.2 487.5,-81.2 247.5,-81.2"/>
<text text-anchor="start" x="250.5" y="-88.9" font-family="Helvetica,sans-Serif" font-size="11.00" fill="#000000">int4[10]</text>
<polygon fill="none" stroke="#000000" points="10.5,-59.2 10.5,-81.2 247.5,-81.2 247.5,-59.2 10.5,-59.2"/>
<text text-anchor="start" x="30.5" y="-66.3" font-family="Helvetica,sans-Serif" font-size="11.00" fill="#000000">cor</text>
<polygon fill="none" stroke="#000000" points="247.5,-59.2 247.5,-81.2 487.5,-81.2 487.5,-59.2 247.5,-59.2"/>
<text text-anchor="start" x="250.2614" y="-66.9" font-family="Helvetica,sans-Serif" font-size="11.00" fill="#000000">&quot;educacao&quot;.&quot;coresquadrohorarios&quot;[2147483647]</text>
<polygon fill="#ffffff" stroke="transparent" points="10.5,-40.2 10.5,-59.2 133.5,-59.2 133.5,-40.2 10.5,-40.2"/>
<polygon fill="none" stroke="#000000" points="10.5,-40.2 10.5,-59.2 133.5,-59.2 133.5,-40.2 10.5,-40.2"/>
<text text-anchor="start" x="13.5" y="-46.3" font-family="Helvetica,sans-Serif" font-size="11.00" fill="#000000">&lt; 0</text>
<polygon fill="#ffffff" stroke="transparent" points="133.5,-40.2 133.5,-59.2 247.5,-59.2 247.5,-40.2 133.5,-40.2"/>
<polygon fill="none" stroke="#000000" points="133.5,-40.2 133.5,-59.2 247.5,-59.2 247.5,-40.2 133.5,-40.2"/>
<text text-anchor="start" x="238.3862" y="-46.3" font-family="Helvetica,sans-Serif" font-size="11.00" fill="#000000"> &#160;</text>
<polygon fill="#ffffff" stroke="transparent" points="247.5,-40.2 247.5,-59.2 487.5,-59.2 487.5,-40.2 247.5,-40.2"/>
<polygon fill="none" stroke="#000000" points="247.5,-40.2 247.5,-59.2 487.5,-59.2 487.5,-40.2 247.5,-40.2"/>
<text text-anchor="start" x="468.9053" y="-46.3" font-family="Helvetica,sans-Serif" font-size="11.00" fill="#000000">0 &gt;</text>
<polygon fill="none" stroke="#000000" stroke-width="2" points="9,-39.2 9,-743.2 488,-743.2 488,-39.2 9,-39.2"/>
</a>
</g>
</g>
</g>
</svg>
