<?xml version="1.0" encoding="UTF-8" standalone="no"?>
<!DOCTYPE svg PUBLIC "-//W3C//DTD SVG 1.1//EN"
 "http://www.w3.org/Graphics/SVG/1.1/DTD/svg11.dtd">
<!-- Generated by graphviz version 2.40.1 (20161225.0304)
 -->
<!-- Title: oneDegreeRelationshipsDiagram Pages: 1 -->
<svg width="327pt" height="360pt"
 viewBox="0.00 0.00 327.00 360.20" xmlns="http://www.w3.org/2000/svg" xmlns:xlink="http://www.w3.org/1999/xlink">
<g id="graph0" class="graph" transform="scale(1 1) rotate(0) translate(4 356.2)">
<title>oneDegreeRelationshipsDiagram</title>
<polygon fill="#ffffff" stroke="transparent" points="-4,4 -4,-356.2 323,-356.2 323,4 -4,4"/>
<text text-anchor="middle" x="72.4936" y="-7.3" font-family="Helvetica,sans-Serif" font-size="11.00" fill="#000000">Generated by SchemaSpy</text>
<!-- aulas_realizadas -->
<g id="node1" class="node">
<title>aulas_realizadas</title>
<g id="a_node1"><a xlink:href="../../tables/aulas_realizadas.html" xlink:title="aulas_realizadas" target="_top">
<polygon fill="#ffffff" stroke="transparent" points="8,-38.2 8,-348.2 311,-348.2 311,-38.2 8,-38.2"/>
<polygon fill="#f5f5f5" stroke="transparent" points="10.5,-323.2 10.5,-346.2 309.5,-346.2 309.5,-323.2 10.5,-323.2"/>
<polygon fill="none" stroke="#000000" points="10.5,-323.2 10.5,-346.2 309.5,-346.2 309.5,-323.2 10.5,-323.2"/>
<text text-anchor="start" x="15.5" y="-331.8" font-family="Helvetica,sans-Serif" font-weight="bold" font-size="11.00" fill="#000000">aulas_realizadas</text>
<text text-anchor="start" x="274.5437" y="-331.3" font-family="Helvetica,sans-Serif" font-size="11.00" fill="#000000">[table]</text>
<polygon fill="none" stroke="#000000" points="10.5,-301.2 10.5,-323.2 200.5,-323.2 200.5,-301.2 10.5,-301.2"/>
<text text-anchor="start" x="30.5" y="-308.3" font-family="Helvetica,sans-Serif" font-size="11.00" fill="#000000">sistema</text>
<polygon fill="none" stroke="#000000" points="200.5,-301.2 200.5,-323.2 309.5,-323.2 309.5,-301.2 200.5,-301.2"/>
<text text-anchor="start" x="203.5" y="-308.9" font-family="Helvetica,sans-Serif" font-size="11.00" fill="#000000">int4[10]</text>
<polygon fill="none" stroke="#000000" points="10.5,-279.2 10.5,-301.2 200.5,-301.2 200.5,-279.2 10.5,-279.2"/>
<text text-anchor="start" x="30.5" y="-286.3" font-family="Helvetica,sans-Serif" font-size="11.00" fill="#000000">tipo_registro</text>
<polygon fill="none" stroke="#000000" points="200.5,-279.2 200.5,-301.2 309.5,-301.2 309.5,-279.2 200.5,-279.2"/>
<text text-anchor="start" x="203.5" y="-286.9" font-family="Helvetica,sans-Serif" font-size="11.00" fill="#000000">text[2147483647]</text>
<polygon fill="none" stroke="#000000" points="10.5,-257.2 10.5,-279.2 200.5,-279.2 200.5,-257.2 10.5,-257.2"/>
<text text-anchor="start" x="30.5" y="-264.3" font-family="Helvetica,sans-Serif" font-size="11.00" fill="#000000">id_integracao</text>
<polygon fill="none" stroke="#000000" points="200.5,-257.2 200.5,-279.2 309.5,-279.2 309.5,-257.2 200.5,-257.2"/>
<text text-anchor="start" x="203.0344" y="-264.9" font-family="Helvetica,sans-Serif" font-size="11.00" fill="#000000">varchar[2147483647]</text>
<polygon fill="none" stroke="#000000" points="10.5,-235.2 10.5,-257.2 200.5,-257.2 200.5,-235.2 10.5,-235.2"/>
<text text-anchor="start" x="30.5" y="-242.3" font-family="Helvetica,sans-Serif" font-size="11.00" fill="#000000">id_origem</text>
<polygon fill="none" stroke="#000000" points="200.5,-235.2 200.5,-257.2 309.5,-257.2 309.5,-235.2 200.5,-235.2"/>
<text text-anchor="start" x="203.5" y="-242.9" font-family="Helvetica,sans-Serif" font-size="11.00" fill="#000000">int4[10]</text>
<polygon fill="none" stroke="#000000" points="10.5,-213.2 10.5,-235.2 200.5,-235.2 200.5,-213.2 10.5,-213.2"/>
<text text-anchor="start" x="30.5" y="-220.3" font-family="Helvetica,sans-Serif" font-size="11.00" fill="#000000">id_cloud</text>
<polygon fill="none" stroke="#000000" points="200.5,-213.2 200.5,-235.2 309.5,-235.2 309.5,-213.2 200.5,-213.2"/>
<text text-anchor="start" x="203.5" y="-220.9" font-family="Helvetica,sans-Serif" font-size="11.00" fill="#000000">int4[10]</text>
<polygon fill="none" stroke="#000000" points="10.5,-191.2 10.5,-213.2 200.5,-213.2 200.5,-191.2 10.5,-191.2"/>
<text text-anchor="start" x="30.5" y="-198.3" font-family="Helvetica,sans-Serif" font-size="11.00" fill="#000000">data</text>
<polygon fill="none" stroke="#000000" points="200.5,-191.2 200.5,-213.2 309.5,-213.2 309.5,-191.2 200.5,-191.2"/>
<text text-anchor="start" x="203.5" y="-198.9" font-family="Helvetica,sans-Serif" font-size="11.00" fill="#000000">date[13]</text>
<polygon fill="none" stroke="#000000" points="10.5,-169.2 10.5,-191.2 200.5,-191.2 200.5,-169.2 10.5,-169.2"/>
<image xlink:href="../../images/foreignKeys.png" width="11px" height="12px" preserveAspectRatio="xMinYMin meet" x="15.5" y="-186.2"/>
<text text-anchor="start" x="30.5" y="-176.3" font-family="Helvetica,sans-Serif" font-size="11.00" fill="#000000">turma_origem_id</text>
<polygon fill="none" stroke="#000000" points="200.5,-169.2 200.5,-191.2 309.5,-191.2 309.5,-169.2 200.5,-169.2"/>
<text text-anchor="start" x="203.5" y="-176.9" font-family="Helvetica,sans-Serif" font-size="11.00" fill="#000000">int4[10]</text>
<polygon fill="none" stroke="#000000" points="10.5,-147.2 10.5,-169.2 200.5,-169.2 200.5,-147.2 10.5,-147.2"/>
<image xlink:href="../../images/foreignKeys.png" width="11px" height="12px" preserveAspectRatio="xMinYMin meet" x="15.5" y="-164.2"/>
<text text-anchor="start" x="30.5" y="-154.3" font-family="Helvetica,sans-Serif" font-size="11.00" fill="#000000">turma_cloud_id</text>
<polygon fill="none" stroke="#000000" points="200.5,-147.2 200.5,-169.2 309.5,-169.2 309.5,-147.2 200.5,-147.2"/>
<text text-anchor="start" x="203.5" y="-154.9" font-family="Helvetica,sans-Serif" font-size="11.00" fill="#000000">int4[10]</text>
<polygon fill="none" stroke="#000000" points="10.5,-125.2 10.5,-147.2 200.5,-147.2 200.5,-125.2 10.5,-125.2"/>
<image xlink:href="../../images/foreignKeys.png" width="11px" height="12px" preserveAspectRatio="xMinYMin meet" x="15.5" y="-142.2"/>
<text text-anchor="start" x="30.5" y="-132.3" font-family="Helvetica,sans-Serif" font-size="11.00" fill="#000000">periodo_avaliativo_origem_id</text>
<polygon fill="none" stroke="#000000" points="200.5,-125.2 200.5,-147.2 309.5,-147.2 309.5,-125.2 200.5,-125.2"/>
<text text-anchor="start" x="203.5" y="-132.9" font-family="Helvetica,sans-Serif" font-size="11.00" fill="#000000">int4[10]</text>
<polygon fill="none" stroke="#000000" points="10.5,-103.2 10.5,-125.2 200.5,-125.2 200.5,-103.2 10.5,-103.2"/>
<image xlink:href="../../images/foreignKeys.png" width="11px" height="12px" preserveAspectRatio="xMinYMin meet" x="15.5" y="-120.2"/>
<text text-anchor="start" x="30.5" y="-110.3" font-family="Helvetica,sans-Serif" font-size="11.00" fill="#000000">periodo_avaliativo_cloud_id</text>
<polygon fill="none" stroke="#000000" points="200.5,-103.2 200.5,-125.2 309.5,-125.2 309.5,-103.2 200.5,-103.2"/>
<text text-anchor="start" x="203.5" y="-110.9" font-family="Helvetica,sans-Serif" font-size="11.00" fill="#000000">int4[10]</text>
<polygon fill="none" stroke="#000000" points="10.5,-81.2 10.5,-103.2 200.5,-103.2 200.5,-81.2 10.5,-81.2"/>
<image xlink:href="../../images/foreignKeys.png" width="11px" height="12px" preserveAspectRatio="xMinYMin meet" x="15.5" y="-98.2"/>
<text text-anchor="start" x="30.5" y="-88.3" font-family="Helvetica,sans-Serif" font-size="11.00" fill="#000000">item_educacional_origem_id</text>
<polygon fill="none" stroke="#000000" points="200.5,-81.2 200.5,-103.2 309.5,-103.2 309.5,-81.2 200.5,-81.2"/>
<text text-anchor="start" x="203.5" y="-88.9" font-family="Helvetica,sans-Serif" font-size="11.00" fill="#000000">int4[10]</text>
<polygon fill="none" stroke="#000000" points="10.5,-59.2 10.5,-81.2 200.5,-81.2 200.5,-59.2 10.5,-59.2"/>
<image xlink:href="../../images/foreignKeys.png" width="11px" height="12px" preserveAspectRatio="xMinYMin meet" x="15.5" y="-76.2"/>
<text text-anchor="start" x="30.5" y="-66.3" font-family="Helvetica,sans-Serif" font-size="11.00" fill="#000000">item_educacional_cloud_id</text>
<polygon fill="none" stroke="#000000" points="200.5,-59.2 200.5,-81.2 309.5,-81.2 309.5,-59.2 200.5,-59.2"/>
<text text-anchor="start" x="203.5" y="-66.9" font-family="Helvetica,sans-Serif" font-size="11.00" fill="#000000">int4[10]</text>
<polygon fill="#ffffff" stroke="transparent" points="10.5,-40.2 10.5,-59.2 109.5,-59.2 109.5,-40.2 10.5,-40.2"/>
<polygon fill="none" stroke="#000000" points="10.5,-40.2 10.5,-59.2 109.5,-59.2 109.5,-40.2 10.5,-40.2"/>
<text text-anchor="start" x="13.5" y="-46.3" font-family="Helvetica,sans-Serif" font-size="11.00" fill="#000000">&lt; 0</text>
<polygon fill="#ffffff" stroke="transparent" points="109.5,-40.2 109.5,-59.2 200.5,-59.2 200.5,-40.2 109.5,-40.2"/>
<polygon fill="none" stroke="#000000" points="109.5,-40.2 109.5,-59.2 200.5,-59.2 200.5,-40.2 109.5,-40.2"/>
<text text-anchor="start" x="191.3862" y="-46.3" font-family="Helvetica,sans-Serif" font-size="11.00" fill="#000000"> &#160;</text>
<polygon fill="#ffffff" stroke="transparent" points="200.5,-40.2 200.5,-59.2 309.5,-59.2 309.5,-40.2 200.5,-40.2"/>
<polygon fill="none" stroke="#000000" points="200.5,-40.2 200.5,-59.2 309.5,-59.2 309.5,-40.2 200.5,-40.2"/>
<text text-anchor="start" x="290.9053" y="-46.3" font-family="Helvetica,sans-Serif" font-size="11.00" fill="#000000">0 &gt;</text>
<polygon fill="none" stroke="#000000" stroke-width="2" points="9,-39.2 9,-347.2 310,-347.2 310,-39.2 9,-39.2"/>
</a>
</g>
</g>
</g>
</svg>
