<?xml version="1.0" encoding="UTF-8" standalone="no"?>
<!DOCTYPE svg PUBLIC "-//W3C//DTD SVG 1.1//EN"
 "http://www.w3.org/Graphics/SVG/1.1/DTD/svg11.dtd">
<!-- Generated by graphviz version 2.40.1 (20161225.0304)
 -->
<!-- Title: oneDegreeRelationshipsDiagramImplied Pages: 1 -->
<svg width="783pt" height="756pt"
 viewBox="0.00 0.00 783.00 756.20" xmlns="http://www.w3.org/2000/svg" xmlns:xlink="http://www.w3.org/1999/xlink">
<g id="graph0" class="graph" transform="scale(1 1) rotate(0) translate(4 752.2)">
<title>oneDegreeRelationshipsDiagramImplied</title>
<polygon fill="#ffffff" stroke="transparent" points="-4,4 -4,-752.2 779,-752.2 779,4 -4,4"/>
<text text-anchor="middle" x="72.4936" y="-7.3" font-family="Helvetica,sans-Serif" font-size="11.00" fill="#000000">Generated by SchemaSpy</text>
<!-- aulas_quadros_de_horarios -->
<g id="node1" class="node">
<title>aulas_quadros_de_horarios</title>
<g id="a_node1"><a xlink:href="../../tables/aulas_quadros_de_horarios.html" xlink:title="aulas_quadros_de_horarios" target="_top">
<polygon fill="#ffffff" stroke="transparent" points="286,-38.2 286,-744.2 767,-744.2 767,-38.2 286,-38.2"/>
<polygon fill="#f5f5f5" stroke="transparent" points="288.5,-719.2 288.5,-742.2 765.5,-742.2 765.5,-719.2 288.5,-719.2"/>
<polygon fill="none" stroke="#000000" points="288.5,-719.2 288.5,-742.2 765.5,-742.2 765.5,-719.2 288.5,-719.2"/>
<text text-anchor="start" x="293.5" y="-727.8" font-family="Helvetica,sans-Serif" font-weight="bold" font-size="11.00" fill="#000000">aulas_quadros_de_horarios</text>
<text text-anchor="start" x="730.5437" y="-727.3" font-family="Helvetica,sans-Serif" font-size="11.00" fill="#000000">[table]</text>
<polygon fill="none" stroke="#000000" points="288.5,-697.2 288.5,-719.2 525.5,-719.2 525.5,-697.2 288.5,-697.2"/>
<text text-anchor="start" x="308.5" y="-704.3" font-family="Helvetica,sans-Serif" font-size="11.00" fill="#000000">sistema</text>
<polygon fill="none" stroke="#000000" points="525.5,-697.2 525.5,-719.2 765.5,-719.2 765.5,-697.2 525.5,-697.2"/>
<text text-anchor="start" x="528.5" y="-704.9" font-family="Helvetica,sans-Serif" font-size="11.00" fill="#000000">int4[10]</text>
<polygon fill="none" stroke="#000000" points="288.5,-675.2 288.5,-697.2 525.5,-697.2 525.5,-675.2 288.5,-675.2"/>
<text text-anchor="start" x="308.5" y="-682.3" font-family="Helvetica,sans-Serif" font-size="11.00" fill="#000000">tipo_registro</text>
<polygon fill="none" stroke="#000000" points="525.5,-675.2 525.5,-697.2 765.5,-697.2 765.5,-675.2 525.5,-675.2"/>
<text text-anchor="start" x="528.5" y="-682.9" font-family="Helvetica,sans-Serif" font-size="11.00" fill="#000000">text[2147483647]</text>
<polygon fill="none" stroke="#000000" points="288.5,-653.2 288.5,-675.2 525.5,-675.2 525.5,-653.2 288.5,-653.2"/>
<text text-anchor="start" x="308.5" y="-660.3" font-family="Helvetica,sans-Serif" font-size="11.00" fill="#000000">id_integracao</text>
<polygon fill="none" stroke="#000000" points="525.5,-653.2 525.5,-675.2 765.5,-675.2 765.5,-653.2 525.5,-653.2"/>
<text text-anchor="start" x="528.5" y="-660.9" font-family="Helvetica,sans-Serif" font-size="11.00" fill="#000000">varchar[2147483647]</text>
<polygon fill="none" stroke="#000000" points="288.5,-631.2 288.5,-653.2 525.5,-653.2 525.5,-631.2 288.5,-631.2"/>
<text text-anchor="start" x="308.5" y="-638.3" font-family="Helvetica,sans-Serif" font-size="11.00" fill="#000000">id_origem</text>
<polygon fill="none" stroke="#000000" points="525.5,-631.2 525.5,-653.2 765.5,-653.2 765.5,-631.2 525.5,-631.2"/>
<text text-anchor="start" x="528.5" y="-638.9" font-family="Helvetica,sans-Serif" font-size="11.00" fill="#000000">int4[10]</text>
<polygon fill="none" stroke="#000000" points="288.5,-609.2 288.5,-631.2 525.5,-631.2 525.5,-609.2 288.5,-609.2"/>
<text text-anchor="start" x="308.5" y="-616.3" font-family="Helvetica,sans-Serif" font-size="11.00" fill="#000000">id_cloud</text>
<polygon fill="none" stroke="#000000" points="525.5,-609.2 525.5,-631.2 765.5,-631.2 765.5,-609.2 525.5,-609.2"/>
<text text-anchor="start" x="528.5" y="-616.9" font-family="Helvetica,sans-Serif" font-size="11.00" fill="#000000">int4[10]</text>
<polygon fill="none" stroke="#000000" points="288.5,-587.2 288.5,-609.2 525.5,-609.2 525.5,-587.2 288.5,-587.2"/>
<image xlink:href="../../images/foreignKeys.png" width="11px" height="12px" preserveAspectRatio="xMinYMin meet" x="293.5" y="-604.2"/>
<text text-anchor="start" x="308.5" y="-594.3" font-family="Helvetica,sans-Serif" font-size="11.00" fill="#000000">ano_letivo_origem_id</text>
<polygon fill="none" stroke="#000000" points="525.5,-587.2 525.5,-609.2 765.5,-609.2 765.5,-587.2 525.5,-587.2"/>
<text text-anchor="start" x="528.5" y="-594.9" font-family="Helvetica,sans-Serif" font-size="11.00" fill="#000000">int4[10]</text>
<polygon fill="none" stroke="#000000" points="288.5,-565.2 288.5,-587.2 525.5,-587.2 525.5,-565.2 288.5,-565.2"/>
<image xlink:href="../../images/foreignKeys.png" width="11px" height="12px" preserveAspectRatio="xMinYMin meet" x="293.5" y="-582.2"/>
<text text-anchor="start" x="308.5" y="-572.3" font-family="Helvetica,sans-Serif" font-size="11.00" fill="#000000">ano_letivo_cloud_id</text>
<polygon fill="none" stroke="#000000" points="525.5,-565.2 525.5,-587.2 765.5,-587.2 765.5,-565.2 525.5,-565.2"/>
<text text-anchor="start" x="528.5" y="-572.9" font-family="Helvetica,sans-Serif" font-size="11.00" fill="#000000">int4[10]</text>
<polygon fill="none" stroke="#000000" points="288.5,-543.2 288.5,-565.2 525.5,-565.2 525.5,-543.2 288.5,-543.2"/>
<image xlink:href="../../images/foreignKeys.png" width="11px" height="12px" preserveAspectRatio="xMinYMin meet" x="293.5" y="-560.2"/>
<text text-anchor="start" x="308.5" y="-550.3" font-family="Helvetica,sans-Serif" font-size="11.00" fill="#000000">estabelecimento_origem_id</text>
<polygon fill="none" stroke="#000000" points="525.5,-543.2 525.5,-565.2 765.5,-565.2 765.5,-543.2 525.5,-543.2"/>
<text text-anchor="start" x="528.5" y="-550.9" font-family="Helvetica,sans-Serif" font-size="11.00" fill="#000000">int4[10]</text>
<polygon fill="none" stroke="#000000" points="288.5,-521.2 288.5,-543.2 525.5,-543.2 525.5,-521.2 288.5,-521.2"/>
<image xlink:href="../../images/foreignKeys.png" width="11px" height="12px" preserveAspectRatio="xMinYMin meet" x="293.5" y="-538.2"/>
<text text-anchor="start" x="308.5" y="-528.3" font-family="Helvetica,sans-Serif" font-size="11.00" fill="#000000">estabelecimento_cloud_id</text>
<polygon fill="none" stroke="#000000" points="525.5,-521.2 525.5,-543.2 765.5,-543.2 765.5,-521.2 525.5,-521.2"/>
<text text-anchor="start" x="528.5" y="-528.9" font-family="Helvetica,sans-Serif" font-size="11.00" fill="#000000">int4[10]</text>
<polygon fill="none" stroke="#000000" points="288.5,-499.2 288.5,-521.2 525.5,-521.2 525.5,-499.2 288.5,-499.2"/>
<image xlink:href="../../images/foreignKeys.png" width="11px" height="12px" preserveAspectRatio="xMinYMin meet" x="293.5" y="-516.2"/>
<text text-anchor="start" x="308.5" y="-506.3" font-family="Helvetica,sans-Serif" font-size="11.00" fill="#000000">configuracao_horas_aulas_origem_id</text>
<polygon fill="none" stroke="#000000" points="525.5,-499.2 525.5,-521.2 765.5,-521.2 765.5,-499.2 525.5,-499.2"/>
<text text-anchor="start" x="528.5" y="-506.9" font-family="Helvetica,sans-Serif" font-size="11.00" fill="#000000">int4[10]</text>
<polygon fill="none" stroke="#000000" points="288.5,-477.2 288.5,-499.2 525.5,-499.2 525.5,-477.2 288.5,-477.2"/>
<image xlink:href="../../images/foreignKeys.png" width="11px" height="12px" preserveAspectRatio="xMinYMin meet" x="293.5" y="-494.2"/>
<text text-anchor="start" x="308.5" y="-484.3" font-family="Helvetica,sans-Serif" font-size="11.00" fill="#000000">configuracao_horas_aulas_cloud_id</text>
<polygon fill="none" stroke="#000000" points="525.5,-477.2 525.5,-499.2 765.5,-499.2 765.5,-477.2 525.5,-477.2"/>
<text text-anchor="start" x="528.5" y="-484.9" font-family="Helvetica,sans-Serif" font-size="11.00" fill="#000000">int4[10]</text>
<polygon fill="none" stroke="#000000" points="288.5,-455.2 288.5,-477.2 525.5,-477.2 525.5,-455.2 288.5,-455.2"/>
<image xlink:href="../../images/foreignKeys.png" width="11px" height="12px" preserveAspectRatio="xMinYMin meet" x="293.5" y="-472.2"/>
<text text-anchor="start" x="308.5" y="-462.3" font-family="Helvetica,sans-Serif" font-size="11.00" fill="#000000">turma_origem_id</text>
<polygon fill="none" stroke="#000000" points="525.5,-455.2 525.5,-477.2 765.5,-477.2 765.5,-455.2 525.5,-455.2"/>
<text text-anchor="start" x="528.5" y="-462.9" font-family="Helvetica,sans-Serif" font-size="11.00" fill="#000000">int4[10]</text>
<polygon fill="none" stroke="#000000" points="288.5,-433.2 288.5,-455.2 525.5,-455.2 525.5,-433.2 288.5,-433.2"/>
<image xlink:href="../../images/foreignKeys.png" width="11px" height="12px" preserveAspectRatio="xMinYMin meet" x="293.5" y="-450.2"/>
<text text-anchor="start" x="308.5" y="-440.3" font-family="Helvetica,sans-Serif" font-size="11.00" fill="#000000">turma_cloud_id</text>
<polygon fill="none" stroke="#000000" points="525.5,-433.2 525.5,-455.2 765.5,-455.2 765.5,-433.2 525.5,-433.2"/>
<text text-anchor="start" x="528.5" y="-440.9" font-family="Helvetica,sans-Serif" font-size="11.00" fill="#000000">int4[10]</text>
<polygon fill="none" stroke="#000000" points="288.5,-411.2 288.5,-433.2 525.5,-433.2 525.5,-411.2 288.5,-411.2"/>
<image xlink:href="../../images/foreignKeys.png" width="11px" height="12px" preserveAspectRatio="xMinYMin meet" x="293.5" y="-428.2"/>
<text text-anchor="start" x="308.5" y="-418.3" font-family="Helvetica,sans-Serif" font-size="11.00" fill="#000000">item_educacional_origem_id</text>
<polygon fill="none" stroke="#000000" points="525.5,-411.2 525.5,-433.2 765.5,-433.2 765.5,-411.2 525.5,-411.2"/>
<text text-anchor="start" x="528.5" y="-418.9" font-family="Helvetica,sans-Serif" font-size="11.00" fill="#000000">int4[10]</text>
<polygon fill="none" stroke="#000000" points="288.5,-389.2 288.5,-411.2 525.5,-411.2 525.5,-389.2 288.5,-389.2"/>
<image xlink:href="../../images/foreignKeys.png" width="11px" height="12px" preserveAspectRatio="xMinYMin meet" x="293.5" y="-406.2"/>
<text text-anchor="start" x="308.5" y="-396.3" font-family="Helvetica,sans-Serif" font-size="11.00" fill="#000000">item_educacional_cloud_id</text>
<polygon fill="none" stroke="#000000" points="525.5,-389.2 525.5,-411.2 765.5,-411.2 765.5,-389.2 525.5,-389.2"/>
<text text-anchor="start" x="528.5" y="-396.9" font-family="Helvetica,sans-Serif" font-size="11.00" fill="#000000">int4[10]</text>
<polygon fill="none" stroke="#000000" points="288.5,-367.2 288.5,-389.2 525.5,-389.2 525.5,-367.2 288.5,-367.2"/>
<image xlink:href="../../images/foreignKeys.png" width="11px" height="12px" preserveAspectRatio="xMinYMin meet" x="293.5" y="-384.2"/>
<text text-anchor="start" x="308.5" y="-374.3" font-family="Helvetica,sans-Serif" font-size="11.00" fill="#000000">professor_origem_id</text>
<polygon fill="none" stroke="#000000" points="525.5,-367.2 525.5,-389.2 765.5,-389.2 765.5,-367.2 525.5,-367.2"/>
<text text-anchor="start" x="528.5" y="-374.9" font-family="Helvetica,sans-Serif" font-size="11.00" fill="#000000">int4[10]</text>
<polygon fill="none" stroke="#000000" points="288.5,-345.2 288.5,-367.2 525.5,-367.2 525.5,-345.2 288.5,-345.2"/>
<image xlink:href="../../images/foreignKeys.png" width="11px" height="12px" preserveAspectRatio="xMinYMin meet" x="293.5" y="-362.2"/>
<text text-anchor="start" x="308.5" y="-352.3" font-family="Helvetica,sans-Serif" font-size="11.00" fill="#000000">professor_cloud_id</text>
<polygon fill="none" stroke="#000000" points="525.5,-345.2 525.5,-367.2 765.5,-367.2 765.5,-345.2 525.5,-345.2"/>
<text text-anchor="start" x="528.5" y="-352.9" font-family="Helvetica,sans-Serif" font-size="11.00" fill="#000000">int4[10]</text>
<polygon fill="none" stroke="#000000" points="288.5,-323.2 288.5,-345.2 525.5,-345.2 525.5,-323.2 288.5,-323.2"/>
<image xlink:href="../../images/foreignKeys.png" width="11px" height="12px" preserveAspectRatio="xMinYMin meet" x="293.5" y="-340.2"/>
<text text-anchor="start" x="308.5" y="-330.3" font-family="Helvetica,sans-Serif" font-size="11.00" fill="#000000">dependencia_fisica_origem_id</text>
<polygon fill="none" stroke="#000000" points="525.5,-323.2 525.5,-345.2 765.5,-345.2 765.5,-323.2 525.5,-323.2"/>
<text text-anchor="start" x="528.5" y="-330.9" font-family="Helvetica,sans-Serif" font-size="11.00" fill="#000000">int4[10]</text>
<polygon fill="none" stroke="#000000" points="288.5,-301.2 288.5,-323.2 525.5,-323.2 525.5,-301.2 288.5,-301.2"/>
<image xlink:href="../../images/foreignKeys.png" width="11px" height="12px" preserveAspectRatio="xMinYMin meet" x="293.5" y="-318.2"/>
<text text-anchor="start" x="308.5" y="-308.3" font-family="Helvetica,sans-Serif" font-size="11.00" fill="#000000">dependencia_fisica_cloud_id</text>
<polygon fill="none" stroke="#000000" points="525.5,-301.2 525.5,-323.2 765.5,-323.2 765.5,-301.2 525.5,-301.2"/>
<text text-anchor="start" x="528.5" y="-308.9" font-family="Helvetica,sans-Serif" font-size="11.00" fill="#000000">int4[10]</text>
<polygon fill="none" stroke="#000000" points="288.5,-279.2 288.5,-301.2 525.5,-301.2 525.5,-279.2 288.5,-279.2"/>
<image xlink:href="../../images/foreignKeys.png" width="11px" height="12px" preserveAspectRatio="xMinYMin meet" x="293.5" y="-296.2"/>
<text text-anchor="start" x="308.5" y="-286.3" font-family="Helvetica,sans-Serif" font-size="11.00" fill="#000000">atividade_origem_id</text>
<polygon fill="none" stroke="#000000" points="525.5,-279.2 525.5,-301.2 765.5,-301.2 765.5,-279.2 525.5,-279.2"/>
<text text-anchor="start" x="528.5" y="-286.9" font-family="Helvetica,sans-Serif" font-size="11.00" fill="#000000">int4[10]</text>
<polygon fill="none" stroke="#000000" points="288.5,-257.2 288.5,-279.2 525.5,-279.2 525.5,-257.2 288.5,-257.2"/>
<image xlink:href="../../images/foreignKeys.png" width="11px" height="12px" preserveAspectRatio="xMinYMin meet" x="293.5" y="-274.2"/>
<text text-anchor="start" x="308.5" y="-264.3" font-family="Helvetica,sans-Serif" font-size="11.00" fill="#000000">atividade_cloud_id</text>
<polygon fill="none" stroke="#000000" points="525.5,-257.2 525.5,-279.2 765.5,-279.2 765.5,-257.2 525.5,-257.2"/>
<text text-anchor="start" x="528.5" y="-264.9" font-family="Helvetica,sans-Serif" font-size="11.00" fill="#000000">int4[10]</text>
<polygon fill="none" stroke="#000000" points="288.5,-235.2 288.5,-257.2 525.5,-257.2 525.5,-235.2 288.5,-235.2"/>
<image xlink:href="../../images/foreignKeys.png" width="11px" height="12px" preserveAspectRatio="xMinYMin meet" x="293.5" y="-252.2"/>
<text text-anchor="start" x="308.5" y="-242.3" font-family="Helvetica,sans-Serif" font-size="11.00" fill="#000000">quadro_horario_origem_id</text>
<polygon fill="none" stroke="#000000" points="525.5,-235.2 525.5,-257.2 765.5,-257.2 765.5,-235.2 525.5,-235.2"/>
<text text-anchor="start" x="528.5" y="-242.9" font-family="Helvetica,sans-Serif" font-size="11.00" fill="#000000">int4[10]</text>
<polygon fill="none" stroke="#000000" points="288.5,-213.2 288.5,-235.2 525.5,-235.2 525.5,-213.2 288.5,-213.2"/>
<image xlink:href="../../images/foreignKeys.png" width="11px" height="12px" preserveAspectRatio="xMinYMin meet" x="293.5" y="-230.2"/>
<text text-anchor="start" x="308.5" y="-220.3" font-family="Helvetica,sans-Serif" font-size="11.00" fill="#000000">quadro_horario_cloud_id</text>
<polygon fill="none" stroke="#000000" points="525.5,-213.2 525.5,-235.2 765.5,-235.2 765.5,-213.2 525.5,-213.2"/>
<text text-anchor="start" x="528.5" y="-220.9" font-family="Helvetica,sans-Serif" font-size="11.00" fill="#000000">int4[10]</text>
<polygon fill="none" stroke="#000000" points="288.5,-191.2 288.5,-213.2 525.5,-213.2 525.5,-191.2 288.5,-191.2"/>
<text text-anchor="start" x="308.5" y="-198.3" font-family="Helvetica,sans-Serif" font-size="11.00" fill="#000000">inicio_aula</text>
<polygon fill="none" stroke="#000000" points="525.5,-191.2 525.5,-213.2 765.5,-213.2 765.5,-191.2 525.5,-191.2"/>
<text text-anchor="start" x="528.5" y="-198.9" font-family="Helvetica,sans-Serif" font-size="11.00" fill="#000000">varchar[2147483647]</text>
<polygon fill="none" stroke="#000000" points="288.5,-169.2 288.5,-191.2 525.5,-191.2 525.5,-169.2 288.5,-169.2"/>
<text text-anchor="start" x="308.5" y="-176.3" font-family="Helvetica,sans-Serif" font-size="11.00" fill="#000000">fim_aula</text>
<polygon fill="none" stroke="#000000" points="525.5,-169.2 525.5,-191.2 765.5,-191.2 765.5,-169.2 525.5,-169.2"/>
<text text-anchor="start" x="528.5" y="-176.9" font-family="Helvetica,sans-Serif" font-size="11.00" fill="#000000">varchar[2147483647]</text>
<polygon fill="none" stroke="#000000" points="288.5,-147.2 288.5,-169.2 525.5,-169.2 525.5,-147.2 288.5,-147.2"/>
<text text-anchor="start" x="308.5" y="-154.3" font-family="Helvetica,sans-Serif" font-size="11.00" fill="#000000">vigencia_inicio</text>
<polygon fill="none" stroke="#000000" points="525.5,-147.2 525.5,-169.2 765.5,-169.2 765.5,-147.2 525.5,-147.2"/>
<text text-anchor="start" x="528.5" y="-154.9" font-family="Helvetica,sans-Serif" font-size="11.00" fill="#000000">date[13]</text>
<polygon fill="none" stroke="#000000" points="288.5,-125.2 288.5,-147.2 525.5,-147.2 525.5,-125.2 288.5,-125.2"/>
<text text-anchor="start" x="308.5" y="-132.3" font-family="Helvetica,sans-Serif" font-size="11.00" fill="#000000">vigencia_fim</text>
<polygon fill="none" stroke="#000000" points="525.5,-125.2 525.5,-147.2 765.5,-147.2 765.5,-125.2 525.5,-125.2"/>
<text text-anchor="start" x="528.5" y="-132.9" font-family="Helvetica,sans-Serif" font-size="11.00" fill="#000000">date[13]</text>
<polygon fill="none" stroke="#000000" points="288.5,-103.2 288.5,-125.2 525.5,-125.2 525.5,-103.2 288.5,-103.2"/>
<text text-anchor="start" x="308.5" y="-110.3" font-family="Helvetica,sans-Serif" font-size="11.00" fill="#000000">dia_semana</text>
<polygon fill="none" stroke="#000000" points="525.5,-103.2 525.5,-125.2 765.5,-125.2 765.5,-103.2 525.5,-103.2"/>
<text text-anchor="start" x="528.5" y="-110.9" font-family="Helvetica,sans-Serif" font-size="11.00" fill="#000000">&quot;educacao&quot;.&quot;diasdasemana&quot;[2147483647]</text>
<polygon fill="none" stroke="#000000" points="288.5,-81.2 288.5,-103.2 525.5,-103.2 525.5,-81.2 288.5,-81.2"/>
<text text-anchor="start" x="308.5" y="-88.3" font-family="Helvetica,sans-Serif" font-size="11.00" fill="#000000">numero</text>
<polygon fill="none" stroke="#000000" points="525.5,-81.2 525.5,-103.2 765.5,-103.2 765.5,-81.2 525.5,-81.2"/>
<text text-anchor="start" x="528.5" y="-88.9" font-family="Helvetica,sans-Serif" font-size="11.00" fill="#000000">int4[10]</text>
<polygon fill="none" stroke="#000000" points="288.5,-59.2 288.5,-81.2 525.5,-81.2 525.5,-59.2 288.5,-59.2"/>
<text text-anchor="start" x="308.5" y="-66.3" font-family="Helvetica,sans-Serif" font-size="11.00" fill="#000000">cor</text>
<polygon fill="none" stroke="#000000" points="525.5,-59.2 525.5,-81.2 765.5,-81.2 765.5,-59.2 525.5,-59.2"/>
<text text-anchor="start" x="528.2615" y="-66.9" font-family="Helvetica,sans-Serif" font-size="11.00" fill="#000000">&quot;educacao&quot;.&quot;coresquadrohorarios&quot;[2147483647]</text>
<polygon fill="#ffffff" stroke="transparent" points="288.5,-40.2 288.5,-59.2 414.5,-59.2 414.5,-40.2 288.5,-40.2"/>
<polygon fill="none" stroke="#000000" points="288.5,-40.2 288.5,-59.2 414.5,-59.2 414.5,-40.2 288.5,-40.2"/>
<text text-anchor="start" x="291.5" y="-46.3" font-family="Helvetica,sans-Serif" font-size="11.00" fill="#000000">&lt; 18</text>
<polygon fill="#ffffff" stroke="transparent" points="414.5,-40.2 414.5,-59.2 525.5,-59.2 525.5,-40.2 414.5,-40.2"/>
<polygon fill="none" stroke="#000000" points="414.5,-40.2 414.5,-59.2 525.5,-59.2 525.5,-40.2 414.5,-40.2"/>
<text text-anchor="start" x="516.3862" y="-46.3" font-family="Helvetica,sans-Serif" font-size="11.00" fill="#000000"> &#160;</text>
<polygon fill="#ffffff" stroke="transparent" points="525.5,-40.2 525.5,-59.2 765.5,-59.2 765.5,-40.2 525.5,-40.2"/>
<polygon fill="none" stroke="#000000" points="525.5,-40.2 525.5,-59.2 765.5,-59.2 765.5,-40.2 525.5,-40.2"/>
<text text-anchor="start" x="746.9053" y="-46.3" font-family="Helvetica,sans-Serif" font-size="11.00" fill="#000000">0 &gt;</text>
<polygon fill="none" stroke="#000000" stroke-width="2" points="287,-39.2 287,-743.2 766,-743.2 766,-39.2 287,-39.2"/>
</a>
</g>
</g>
<!-- inscricao_lista_espera_situacoes -->
<g id="node2" class="node">
<title>inscricao_lista_espera_situacoes</title>
<g id="a_node2"><a xlink:href="../../tables/inscricao_lista_espera_situacoes.html" xlink:title="inscricao_lista_espera_situacoes" target="_top">
<polygon fill="#ffffff" stroke="transparent" points="8,-362.7 8,-445.7 237,-445.7 237,-362.7 8,-362.7"/>
<polygon fill="#f5f5f5" stroke="transparent" points="8.5,-422.2 8.5,-445.2 237.5,-445.2 237.5,-422.2 8.5,-422.2"/>
<polygon fill="none" stroke="#000000" points="8.5,-422.2 8.5,-445.2 237.5,-445.2 237.5,-422.2 8.5,-422.2"/>
<text text-anchor="start" x="13.5" y="-430.8" font-family="Helvetica,sans-Serif" font-weight="bold" font-size="11.00" fill="#000000">inscricao_lista_espera_situacoes</text>
<text text-anchor="start" x="203.0219" y="-430.3" font-family="Helvetica,sans-Serif" font-size="11.00" fill="#000000">[table]</text>
<polygon fill="none" stroke="#000000" points="8.5,-400.2 8.5,-422.2 237.5,-422.2 237.5,-400.2 8.5,-400.2"/>
<image xlink:href="../../images/primaryKeys.png" width="11px" height="12px" preserveAspectRatio="xMinYMin meet" x="13.5" y="-417.2"/>
<text text-anchor="start" x="37.5" y="-407.3" font-family="Helvetica,sans-Serif" font-size="11.00" fill="#000000">id</text>
<polygon fill="none" stroke="#000000" points="8.5,-381.2 8.5,-400.2 237.5,-400.2 237.5,-381.2 8.5,-381.2"/>
<text text-anchor="start" x="11.5" y="-387.3" font-family="Helvetica,sans-Serif" font-size="11.00" fill="#000000">...</text>
<polygon fill="#ffffff" stroke="transparent" points="8.5,-362.2 8.5,-381.2 106.5,-381.2 106.5,-362.2 8.5,-362.2"/>
<polygon fill="none" stroke="#000000" points="8.5,-362.2 8.5,-381.2 106.5,-381.2 106.5,-362.2 8.5,-362.2"/>
<text text-anchor="start" x="11.5" y="-368.3" font-family="Helvetica,sans-Serif" font-size="11.00" fill="#000000"> &#160;</text>
<polygon fill="#ffffff" stroke="transparent" points="106.5,-362.2 106.5,-381.2 161.5,-381.2 161.5,-362.2 106.5,-362.2"/>
<polygon fill="none" stroke="#000000" points="106.5,-362.2 106.5,-381.2 161.5,-381.2 161.5,-362.2 106.5,-362.2"/>
<text text-anchor="start" x="152.3862" y="-368.3" font-family="Helvetica,sans-Serif" font-size="11.00" fill="#000000"> &#160;</text>
<polygon fill="#ffffff" stroke="transparent" points="161.5,-362.2 161.5,-381.2 237.5,-381.2 237.5,-362.2 161.5,-362.2"/>
<polygon fill="none" stroke="#000000" points="161.5,-362.2 161.5,-381.2 237.5,-381.2 237.5,-362.2 161.5,-362.2"/>
<text text-anchor="start" x="206.6755" y="-368.3" font-family="Helvetica,sans-Serif" font-size="11.00" fill="#000000">596 &gt;</text>
</a>
</g>
</g>
<!-- aulas_quadros_de_horarios&#45;&gt;inscricao_lista_espera_situacoes -->
<g id="edge1" class="edge">
<title>aulas_quadros_de_horarios:w&#45;&gt;inscricao_lista_espera_situacoes:e</title>
<path fill="none" stroke="#000000" stroke-dasharray="5,2" d="M274.2256,-573.6082C225.9728,-552.6167 308.5597,-411.2 237.5,-411.2"/>
<polygon fill="#000000" stroke="#000000" points="280.6287,-574.7708 287.8569,-579.7421 284.5643,-575.4854 288.5,-576.2 288.5,-576.2 288.5,-576.2 284.5643,-575.4854 289.1431,-572.6579 280.6287,-574.7708 280.6287,-574.7708"/>
<ellipse fill="none" stroke="#000000" cx="277.4802" cy="-574.1991" rx="3.2" ry="3.2"/>
</g>
<!-- aulas_quadros_de_horarios&#45;&gt;inscricao_lista_espera_situacoes -->
<g id="edge2" class="edge">
<title>aulas_quadros_de_horarios:w&#45;&gt;inscricao_lista_espera_situacoes:e</title>
<path fill="none" stroke="#000000" stroke-dasharray="5,2" d="M273.9608,-595.8356C217.5479,-574.1887 317.9259,-411.2 237.5,-411.2"/>
<polygon fill="#000000" stroke="#000000" points="280.6037,-596.9159 287.9221,-601.7533 284.5519,-597.5579 288.5,-598.2 288.5,-598.2 288.5,-598.2 284.5519,-597.5579 289.0779,-594.6467 280.6037,-596.9159 280.6037,-596.9159"/>
<ellipse fill="none" stroke="#000000" cx="277.4452" cy="-596.4022" rx="3.2" ry="3.2"/>
</g>
<!-- aulas_quadros_de_horarios&#45;&gt;inscricao_lista_espera_situacoes -->
<g id="edge3" class="edge">
<title>aulas_quadros_de_horarios:w&#45;&gt;inscricao_lista_espera_situacoes:e</title>
<path fill="none" stroke="#000000" stroke-dasharray="5,2" d="M274.2665,-271.1868C234.3345,-291.722 299.1778,-411.2 237.5,-411.2"/>
<polygon fill="#000000" stroke="#000000" points="280.6705,-269.843 289.2393,-271.7233 284.5853,-269.0215 288.5,-268.2 288.5,-268.2 288.5,-268.2 284.5853,-269.0215 287.7607,-264.6767 280.6705,-269.843 280.6705,-269.843"/>
<ellipse fill="none" stroke="#000000" cx="277.5387" cy="-270.5002" rx="3.2" ry="3.2"/>
</g>
<!-- aulas_quadros_de_horarios&#45;&gt;inscricao_lista_espera_situacoes -->
<g id="edge4" class="edge">
<title>aulas_quadros_de_horarios:w&#45;&gt;inscricao_lista_espera_situacoes:e</title>
<path fill="none" stroke="#000000" stroke-dasharray="5,2" d="M274.2982,-293.6908C242.2098,-313.53 289.9323,-411.2 237.5,-411.2"/>
<polygon fill="#000000" stroke="#000000" points="280.7312,-292.1096 289.3593,-293.6959 284.6156,-291.1548 288.5,-290.2 288.5,-290.2 288.5,-290.2 284.6156,-291.1548 287.6407,-286.7041 280.7312,-292.1096 280.7312,-292.1096"/>
<ellipse fill="none" stroke="#000000" cx="277.6237" cy="-292.8734" rx="3.2" ry="3.2"/>
</g>
<!-- aulas_quadros_de_horarios&#45;&gt;inscricao_lista_espera_situacoes -->
<g id="edge5" class="edge">
<title>aulas_quadros_de_horarios:w&#45;&gt;inscricao_lista_espera_situacoes:e</title>
<path fill="none" stroke="#000000" stroke-dasharray="5,2" d="M274.5177,-483.6139C255.094,-467.0372 272.4549,-411.2 237.5,-411.2"/>
<polygon fill="#000000" stroke="#000000" points="280.8984,-485.7067 287.378,-491.6207 284.6992,-486.9534 288.5,-488.2 288.5,-488.2 288.5,-488.2 284.6992,-486.9534 289.622,-484.7793 280.8984,-485.7067 280.8984,-485.7067"/>
<ellipse fill="none" stroke="#000000" cx="277.8578" cy="-484.7094" rx="3.2" ry="3.2"/>
</g>
<!-- aulas_quadros_de_horarios&#45;&gt;inscricao_lista_espera_situacoes -->
<g id="edge6" class="edge">
<title>aulas_quadros_de_horarios:w&#45;&gt;inscricao_lista_espera_situacoes:e</title>
<path fill="none" stroke="#000000" stroke-dasharray="5,2" d="M274.4616,-506.1965C249.198,-487.6751 281.0017,-411.2 237.5,-411.2"/>
<polygon fill="#000000" stroke="#000000" points="280.8067,-508.006 287.5127,-513.662 284.6534,-509.103 288.5,-510.2 288.5,-510.2 288.5,-510.2 284.6534,-509.103 289.4873,-506.738 280.8067,-508.006 280.8067,-508.006"/>
<ellipse fill="none" stroke="#000000" cx="277.7294" cy="-507.1283" rx="3.2" ry="3.2"/>
</g>
<!-- aulas_quadros_de_horarios&#45;&gt;inscricao_lista_espera_situacoes -->
<g id="edge7" class="edge">
<title>aulas_quadros_de_horarios:w&#45;&gt;inscricao_lista_espera_situacoes:e</title>
<path fill="none" stroke="#000000" stroke-dasharray="5,2" d="M274.4616,-316.2035C249.198,-334.7249 281.0017,-411.2 237.5,-411.2"/>
<polygon fill="#000000" stroke="#000000" points="280.8067,-314.394 289.4873,-315.662 284.6534,-313.297 288.5,-312.2 288.5,-312.2 288.5,-312.2 284.6534,-313.297 287.5127,-308.738 280.8067,-314.394 280.8067,-314.394"/>
<ellipse fill="none" stroke="#000000" cx="277.7294" cy="-315.2717" rx="3.2" ry="3.2"/>
</g>
<!-- aulas_quadros_de_horarios&#45;&gt;inscricao_lista_espera_situacoes -->
<g id="edge8" class="edge">
<title>aulas_quadros_de_horarios:w&#45;&gt;inscricao_lista_espera_situacoes:e</title>
<path fill="none" stroke="#000000" stroke-dasharray="5,2" d="M274.5177,-338.7861C255.094,-355.3628 272.4549,-411.2 237.5,-411.2"/>
<polygon fill="#000000" stroke="#000000" points="280.8984,-336.6933 289.622,-337.6207 284.6992,-335.4466 288.5,-334.2 288.5,-334.2 288.5,-334.2 284.6992,-335.4466 287.378,-330.7793 280.8984,-336.6933 280.8984,-336.6933"/>
<ellipse fill="none" stroke="#000000" cx="277.8578" cy="-337.6906" rx="3.2" ry="3.2"/>
</g>
<!-- aulas_quadros_de_horarios&#45;&gt;inscricao_lista_espera_situacoes -->
<g id="edge9" class="edge">
<title>aulas_quadros_de_horarios:w&#45;&gt;inscricao_lista_espera_situacoes:e</title>
<path fill="none" stroke="#000000" stroke-dasharray="5,2" d="M274.2982,-528.7092C242.2098,-508.87 289.9323,-411.2 237.5,-411.2"/>
<polygon fill="#000000" stroke="#000000" points="280.7312,-530.2904 287.6407,-535.6959 284.6156,-531.2452 288.5,-532.2 288.5,-532.2 288.5,-532.2 284.6156,-531.2452 289.3593,-528.7041 280.7312,-530.2904 280.7312,-530.2904"/>
<ellipse fill="none" stroke="#000000" cx="277.6237" cy="-529.5266" rx="3.2" ry="3.2"/>
</g>
<!-- aulas_quadros_de_horarios&#45;&gt;inscricao_lista_espera_situacoes -->
<g id="edge10" class="edge">
<title>aulas_quadros_de_horarios:w&#45;&gt;inscricao_lista_espera_situacoes:e</title>
<path fill="none" stroke="#000000" stroke-dasharray="5,2" d="M274.2665,-551.2132C234.3345,-530.678 299.1778,-411.2 237.5,-411.2"/>
<polygon fill="#000000" stroke="#000000" points="280.6705,-552.557 287.7607,-557.7233 284.5853,-553.3785 288.5,-554.2 288.5,-554.2 288.5,-554.2 284.5853,-553.3785 289.2393,-550.6767 280.6705,-552.557 280.6705,-552.557"/>
<ellipse fill="none" stroke="#000000" cx="277.5387" cy="-551.8998" rx="3.2" ry="3.2"/>
</g>
<!-- aulas_quadros_de_horarios&#45;&gt;inscricao_lista_espera_situacoes -->
<g id="edge11" class="edge">
<title>aulas_quadros_de_horarios:w&#45;&gt;inscricao_lista_espera_situacoes:e</title>
<path fill="none" stroke="#000000" stroke-dasharray="5,2" d="M274.0097,-401.9188C261.8398,-405.0125 254.8909,-411.2 237.5,-411.2"/>
<polygon fill="#000000" stroke="#000000" points="280.5557,-401.1424 288.9241,-403.7749 284.5278,-400.6712 288.5,-400.2 288.5,-400.2 288.5,-400.2 284.5278,-400.6712 288.0759,-396.6251 280.5557,-401.1424 280.5557,-401.1424"/>
<ellipse fill="none" stroke="#000000" cx="277.378" cy="-401.5193" rx="3.2" ry="3.2"/>
</g>
<!-- aulas_quadros_de_horarios&#45;&gt;inscricao_lista_espera_situacoes -->
<g id="edge12" class="edge">
<title>aulas_quadros_de_horarios:w&#45;&gt;inscricao_lista_espera_situacoes:e</title>
<path fill="none" stroke="#000000" stroke-dasharray="5,2" d="M274.0097,-420.4813C261.8398,-417.3875 254.8909,-411.2 237.5,-411.2"/>
<polygon fill="#000000" stroke="#000000" points="280.5557,-421.2576 288.0759,-425.7749 284.5278,-421.7288 288.5,-422.2 288.5,-422.2 288.5,-422.2 284.5278,-421.7288 288.9241,-418.6251 280.5557,-421.2576 280.5557,-421.2576"/>
<ellipse fill="none" stroke="#000000" cx="277.378" cy="-420.8807" rx="3.2" ry="3.2"/>
</g>
<!-- aulas_quadros_de_horarios&#45;&gt;inscricao_lista_espera_situacoes -->
<g id="edge13" class="edge">
<title>aulas_quadros_de_horarios:w&#45;&gt;inscricao_lista_espera_situacoes:e</title>
<path fill="none" stroke="#000000" stroke-dasharray="5,2" d="M274.7081,-360.8893C259.2137,-374.1898 264.8462,-411.2 237.5,-411.2"/>
<polygon fill="#000000" stroke="#000000" points="280.9258,-358.7753 289.6589,-359.6084 284.7129,-357.4876 288.5,-356.2 288.5,-356.2 288.5,-356.2 284.7129,-357.4876 287.3411,-352.7916 280.9258,-358.7753 280.9258,-358.7753"/>
<ellipse fill="none" stroke="#000000" cx="277.8961" cy="-359.8054" rx="3.2" ry="3.2"/>
</g>
<!-- aulas_quadros_de_horarios&#45;&gt;inscricao_lista_espera_situacoes -->
<g id="edge14" class="edge">
<title>aulas_quadros_de_horarios:w&#45;&gt;inscricao_lista_espera_situacoes:e</title>
<path fill="none" stroke="#000000" stroke-dasharray="5,2" d="M274.4604,-382.2464C261.3775,-391.0584 258.5921,-411.2 237.5,-411.2"/>
<polygon fill="#000000" stroke="#000000" points="280.8129,-380.4156 289.497,-381.6592 284.6565,-379.3078 288.5,-378.2 288.5,-378.2 288.5,-378.2 284.6565,-379.3078 287.503,-374.7408 280.8129,-380.4156 280.8129,-380.4156"/>
<ellipse fill="none" stroke="#000000" cx="277.7381" cy="-381.3018" rx="3.2" ry="3.2"/>
</g>
<!-- aulas_quadros_de_horarios&#45;&gt;inscricao_lista_espera_situacoes -->
<g id="edge15" class="edge">
<title>aulas_quadros_de_horarios:w&#45;&gt;inscricao_lista_espera_situacoes:e</title>
<path fill="none" stroke="#000000" stroke-dasharray="5,2" d="M273.9608,-226.5644C217.5479,-248.2113 317.9259,-411.2 237.5,-411.2"/>
<polygon fill="#000000" stroke="#000000" points="280.6037,-225.4841 289.0779,-227.7533 284.5519,-224.8421 288.5,-224.2 288.5,-224.2 288.5,-224.2 284.5519,-224.8421 287.9221,-220.6467 280.6037,-225.4841 280.6037,-225.4841"/>
<ellipse fill="none" stroke="#000000" cx="277.4452" cy="-225.9978" rx="3.2" ry="3.2"/>
</g>
<!-- aulas_quadros_de_horarios&#45;&gt;inscricao_lista_espera_situacoes -->
<g id="edge16" class="edge">
<title>aulas_quadros_de_horarios:w&#45;&gt;inscricao_lista_espera_situacoes:e</title>
<path fill="none" stroke="#000000" stroke-dasharray="5,2" d="M274.2256,-248.7918C225.9728,-269.7833 308.5597,-411.2 237.5,-411.2"/>
<polygon fill="#000000" stroke="#000000" points="280.6287,-247.6292 289.1431,-249.7421 284.5643,-246.9146 288.5,-246.2 288.5,-246.2 288.5,-246.2 284.5643,-246.9146 287.8569,-242.6579 280.6287,-247.6292 280.6287,-247.6292"/>
<ellipse fill="none" stroke="#000000" cx="277.4802" cy="-248.2009" rx="3.2" ry="3.2"/>
</g>
<!-- aulas_quadros_de_horarios&#45;&gt;inscricao_lista_espera_situacoes -->
<g id="edge17" class="edge">
<title>aulas_quadros_de_horarios:w&#45;&gt;inscricao_lista_espera_situacoes:e</title>
<path fill="none" stroke="#000000" stroke-dasharray="5,2" d="M274.4604,-440.1536C261.3775,-431.3416 258.5921,-411.2 237.5,-411.2"/>
<polygon fill="#000000" stroke="#000000" points="280.8129,-441.9844 287.503,-447.6592 284.6565,-443.0922 288.5,-444.2 288.5,-444.2 288.5,-444.2 284.6565,-443.0922 289.497,-440.7408 280.8129,-441.9844 280.8129,-441.9844"/>
<ellipse fill="none" stroke="#000000" cx="277.7381" cy="-441.0982" rx="3.2" ry="3.2"/>
</g>
<!-- aulas_quadros_de_horarios&#45;&gt;inscricao_lista_espera_situacoes -->
<g id="edge18" class="edge">
<title>aulas_quadros_de_horarios:w&#45;&gt;inscricao_lista_espera_situacoes:e</title>
<path fill="none" stroke="#000000" stroke-dasharray="5,2" d="M274.7081,-461.5107C259.2137,-448.2102 264.8462,-411.2 237.5,-411.2"/>
<polygon fill="#000000" stroke="#000000" points="280.9258,-463.6247 287.3411,-469.6084 284.7129,-464.9124 288.5,-466.2 288.5,-466.2 288.5,-466.2 284.7129,-464.9124 289.6589,-462.7916 280.9258,-463.6247 280.9258,-463.6247"/>
<ellipse fill="none" stroke="#000000" cx="277.8961" cy="-462.5946" rx="3.2" ry="3.2"/>
</g>
</g>
</svg>
