<?xml version="1.0" encoding="UTF-8" standalone="no"?>
<!DOCTYPE svg PUBLIC "-//W3C//DTD SVG 1.1//EN"
 "http://www.w3.org/Graphics/SVG/1.1/DTD/svg11.dtd">
<!-- Generated by graphviz version 2.40.1 (20161225.0304)
 -->
<!-- Title: oneDegreeRelationshipsDiagramImplied Pages: 1 -->
<svg width="682pt" height="404pt"
 viewBox="0.00 0.00 682.00 404.20" xmlns="http://www.w3.org/2000/svg" xmlns:xlink="http://www.w3.org/1999/xlink">
<g id="graph0" class="graph" transform="scale(1 1) rotate(0) translate(4 400.2)">
<title>oneDegreeRelationshipsDiagramImplied</title>
<polygon fill="#ffffff" stroke="transparent" points="-4,4 -4,-400.2 678,-400.2 678,4 -4,4"/>
<text text-anchor="middle" x="72.4936" y="-7.3" font-family="Helvetica,sans-Serif" font-size="11.00" fill="#000000">Generated by SchemaSpy</text>
<!-- calendarios_secretarias -->
<g id="node1" class="node">
<title>calendarios_secretarias</title>
<g id="a_node1"><a xlink:href="../../tables/calendarios_secretarias.html" xlink:title="calendarios_secretarias" target="_top">
<polygon fill="#ffffff" stroke="transparent" points="286,-38.2 286,-392.2 666,-392.2 666,-38.2 286,-38.2"/>
<polygon fill="#f5f5f5" stroke="transparent" points="288,-367.2 288,-390.2 664,-390.2 664,-367.2 288,-367.2"/>
<polygon fill="none" stroke="#000000" points="288,-367.2 288,-390.2 664,-390.2 664,-367.2 288,-367.2"/>
<text text-anchor="start" x="293" y="-375.8" font-family="Helvetica,sans-Serif" font-weight="bold" font-size="11.00" fill="#000000">calendarios_secretarias</text>
<text text-anchor="start" x="629.0437" y="-375.3" font-family="Helvetica,sans-Serif" font-size="11.00" fill="#000000">[table]</text>
<polygon fill="none" stroke="#000000" points="288,-345.2 288,-367.2 445,-367.2 445,-345.2 288,-345.2"/>
<text text-anchor="start" x="308" y="-352.3" font-family="Helvetica,sans-Serif" font-size="11.00" fill="#000000">sistema</text>
<polygon fill="none" stroke="#000000" points="445,-345.2 445,-367.2 664,-367.2 664,-345.2 445,-345.2"/>
<text text-anchor="start" x="448" y="-352.9" font-family="Helvetica,sans-Serif" font-size="11.00" fill="#000000">int4[10]</text>
<polygon fill="none" stroke="#000000" points="288,-323.2 288,-345.2 445,-345.2 445,-323.2 288,-323.2"/>
<text text-anchor="start" x="308" y="-330.3" font-family="Helvetica,sans-Serif" font-size="11.00" fill="#000000">tipo_registro</text>
<polygon fill="none" stroke="#000000" points="445,-323.2 445,-345.2 664,-345.2 664,-323.2 445,-323.2"/>
<text text-anchor="start" x="448" y="-330.9" font-family="Helvetica,sans-Serif" font-size="11.00" fill="#000000">text[2147483647]</text>
<polygon fill="none" stroke="#000000" points="288,-301.2 288,-323.2 445,-323.2 445,-301.2 288,-301.2"/>
<text text-anchor="start" x="308" y="-308.3" font-family="Helvetica,sans-Serif" font-size="11.00" fill="#000000">id_integracao</text>
<polygon fill="none" stroke="#000000" points="445,-301.2 445,-323.2 664,-323.2 664,-301.2 445,-301.2"/>
<text text-anchor="start" x="448" y="-308.9" font-family="Helvetica,sans-Serif" font-size="11.00" fill="#000000">varchar[2147483647]</text>
<polygon fill="none" stroke="#000000" points="288,-279.2 288,-301.2 445,-301.2 445,-279.2 288,-279.2"/>
<text text-anchor="start" x="308" y="-286.3" font-family="Helvetica,sans-Serif" font-size="11.00" fill="#000000">id_origem</text>
<polygon fill="none" stroke="#000000" points="445,-279.2 445,-301.2 664,-301.2 664,-279.2 445,-279.2"/>
<text text-anchor="start" x="448" y="-286.9" font-family="Helvetica,sans-Serif" font-size="11.00" fill="#000000">int4[10]</text>
<polygon fill="none" stroke="#000000" points="288,-257.2 288,-279.2 445,-279.2 445,-257.2 288,-257.2"/>
<text text-anchor="start" x="308" y="-264.3" font-family="Helvetica,sans-Serif" font-size="11.00" fill="#000000">id_cloud</text>
<polygon fill="none" stroke="#000000" points="445,-257.2 445,-279.2 664,-279.2 664,-257.2 445,-257.2"/>
<text text-anchor="start" x="448" y="-264.9" font-family="Helvetica,sans-Serif" font-size="11.00" fill="#000000">int4[10]</text>
<polygon fill="none" stroke="#000000" points="288,-235.2 288,-257.2 445,-257.2 445,-235.2 288,-235.2"/>
<image xlink:href="../../images/foreignKeys.png" width="11px" height="12px" preserveAspectRatio="xMinYMin meet" x="293" y="-252.2"/>
<text text-anchor="start" x="308" y="-242.3" font-family="Helvetica,sans-Serif" font-size="11.00" fill="#000000">ano_letivo_origem_id</text>
<polygon fill="none" stroke="#000000" points="445,-235.2 445,-257.2 664,-257.2 664,-235.2 445,-235.2"/>
<text text-anchor="start" x="448" y="-242.9" font-family="Helvetica,sans-Serif" font-size="11.00" fill="#000000">int4[10]</text>
<polygon fill="none" stroke="#000000" points="288,-213.2 288,-235.2 445,-235.2 445,-213.2 288,-213.2"/>
<image xlink:href="../../images/foreignKeys.png" width="11px" height="12px" preserveAspectRatio="xMinYMin meet" x="293" y="-230.2"/>
<text text-anchor="start" x="308" y="-220.3" font-family="Helvetica,sans-Serif" font-size="11.00" fill="#000000">ano_letivo_cloud_id</text>
<polygon fill="none" stroke="#000000" points="445,-213.2 445,-235.2 664,-235.2 664,-213.2 445,-213.2"/>
<text text-anchor="start" x="448" y="-220.9" font-family="Helvetica,sans-Serif" font-size="11.00" fill="#000000">int4[10]</text>
<polygon fill="none" stroke="#000000" points="288,-191.2 288,-213.2 445,-213.2 445,-191.2 288,-191.2"/>
<text text-anchor="start" x="308" y="-198.3" font-family="Helvetica,sans-Serif" font-size="11.00" fill="#000000">status</text>
<polygon fill="none" stroke="#000000" points="445,-191.2 445,-213.2 664,-213.2 664,-191.2 445,-191.2"/>
<text text-anchor="start" x="447.6493" y="-198.9" font-family="Helvetica,sans-Serif" font-size="11.00" fill="#000000">&quot;educacao&quot;.&quot;statuscalendario&quot;[2147483647]</text>
<polygon fill="none" stroke="#000000" points="288,-169.2 288,-191.2 445,-191.2 445,-169.2 288,-169.2"/>
<image xlink:href="../../images/foreignKeys.png" width="11px" height="12px" preserveAspectRatio="xMinYMin meet" x="293" y="-186.2"/>
<text text-anchor="start" x="308" y="-176.3" font-family="Helvetica,sans-Serif" font-size="11.00" fill="#000000">calendario_origem_id</text>
<polygon fill="none" stroke="#000000" points="445,-169.2 445,-191.2 664,-191.2 664,-169.2 445,-169.2"/>
<text text-anchor="start" x="448" y="-176.9" font-family="Helvetica,sans-Serif" font-size="11.00" fill="#000000">int4[10]</text>
<polygon fill="none" stroke="#000000" points="288,-147.2 288,-169.2 445,-169.2 445,-147.2 288,-147.2"/>
<image xlink:href="../../images/foreignKeys.png" width="11px" height="12px" preserveAspectRatio="xMinYMin meet" x="293" y="-164.2"/>
<text text-anchor="start" x="308" y="-154.3" font-family="Helvetica,sans-Serif" font-size="11.00" fill="#000000">calendario_cloud_id</text>
<polygon fill="none" stroke="#000000" points="445,-147.2 445,-169.2 664,-169.2 664,-147.2 445,-147.2"/>
<text text-anchor="start" x="448" y="-154.9" font-family="Helvetica,sans-Serif" font-size="11.00" fill="#000000">int4[10]</text>
<polygon fill="none" stroke="#000000" points="288,-125.2 288,-147.2 445,-147.2 445,-125.2 288,-125.2"/>
<text text-anchor="start" x="308" y="-132.3" font-family="Helvetica,sans-Serif" font-size="11.00" fill="#000000">data_inicial</text>
<polygon fill="none" stroke="#000000" points="445,-125.2 445,-147.2 664,-147.2 664,-125.2 445,-125.2"/>
<text text-anchor="start" x="448" y="-132.9" font-family="Helvetica,sans-Serif" font-size="11.00" fill="#000000">varchar[2147483647]</text>
<polygon fill="none" stroke="#000000" points="288,-103.2 288,-125.2 445,-125.2 445,-103.2 288,-103.2"/>
<text text-anchor="start" x="308" y="-110.3" font-family="Helvetica,sans-Serif" font-size="11.00" fill="#000000">data_final</text>
<polygon fill="none" stroke="#000000" points="445,-103.2 445,-125.2 664,-125.2 664,-103.2 445,-103.2"/>
<text text-anchor="start" x="448" y="-110.9" font-family="Helvetica,sans-Serif" font-size="11.00" fill="#000000">varchar[2147483647]</text>
<polygon fill="none" stroke="#000000" points="288,-81.2 288,-103.2 445,-103.2 445,-81.2 288,-81.2"/>
<text text-anchor="start" x="308" y="-88.3" font-family="Helvetica,sans-Serif" font-size="11.00" fill="#000000">observacao</text>
<polygon fill="none" stroke="#000000" points="445,-81.2 445,-103.2 664,-103.2 664,-81.2 445,-81.2"/>
<text text-anchor="start" x="448" y="-88.9" font-family="Helvetica,sans-Serif" font-size="11.00" fill="#000000">varchar[2147483647]</text>
<polygon fill="none" stroke="#000000" points="288,-59.2 288,-81.2 445,-81.2 445,-59.2 288,-59.2"/>
<text text-anchor="start" x="308" y="-66.3" font-family="Helvetica,sans-Serif" font-size="11.00" fill="#000000">dias_letivos_semana</text>
<polygon fill="none" stroke="#000000" points="445,-59.2 445,-81.2 664,-81.2 664,-59.2 445,-59.2"/>
<text text-anchor="start" x="448" y="-66.9" font-family="Helvetica,sans-Serif" font-size="11.00" fill="#000000">&quot;educacao&quot;.&quot;_diasdasemana&quot;[2147483647]</text>
<polygon fill="#ffffff" stroke="transparent" points="288,-40.2 288,-59.2 371,-59.2 371,-40.2 288,-40.2"/>
<polygon fill="none" stroke="#000000" points="288,-40.2 288,-59.2 371,-59.2 371,-40.2 288,-40.2"/>
<text text-anchor="start" x="291" y="-46.3" font-family="Helvetica,sans-Serif" font-size="11.00" fill="#000000">&lt; 4</text>
<polygon fill="#ffffff" stroke="transparent" points="371,-40.2 371,-59.2 445,-59.2 445,-40.2 371,-40.2"/>
<polygon fill="none" stroke="#000000" points="371,-40.2 371,-59.2 445,-59.2 445,-40.2 371,-40.2"/>
<text text-anchor="start" x="435.8862" y="-46.3" font-family="Helvetica,sans-Serif" font-size="11.00" fill="#000000"> &#160;</text>
<polygon fill="#ffffff" stroke="transparent" points="445,-40.2 445,-59.2 664,-59.2 664,-40.2 445,-40.2"/>
<polygon fill="none" stroke="#000000" points="445,-40.2 445,-59.2 664,-59.2 664,-40.2 445,-40.2"/>
<text text-anchor="start" x="645.4053" y="-46.3" font-family="Helvetica,sans-Serif" font-size="11.00" fill="#000000">0 &gt;</text>
<polygon fill="none" stroke="#000000" stroke-width="2" points="287,-39.2 287,-391.2 665,-391.2 665,-39.2 287,-39.2"/>
</a>
</g>
</g>
<!-- inscricao_lista_espera_situacoes -->
<g id="node2" class="node">
<title>inscricao_lista_espera_situacoes</title>
<g id="a_node2"><a xlink:href="../../tables/inscricao_lista_espera_situacoes.html" xlink:title="inscricao_lista_espera_situacoes" target="_top">
<polygon fill="#ffffff" stroke="transparent" points="8,-153.7 8,-236.7 237,-236.7 237,-153.7 8,-153.7"/>
<polygon fill="#f5f5f5" stroke="transparent" points="8.5,-213.2 8.5,-236.2 237.5,-236.2 237.5,-213.2 8.5,-213.2"/>
<polygon fill="none" stroke="#000000" points="8.5,-213.2 8.5,-236.2 237.5,-236.2 237.5,-213.2 8.5,-213.2"/>
<text text-anchor="start" x="13.5" y="-221.8" font-family="Helvetica,sans-Serif" font-weight="bold" font-size="11.00" fill="#000000">inscricao_lista_espera_situacoes</text>
<text text-anchor="start" x="203.0219" y="-221.3" font-family="Helvetica,sans-Serif" font-size="11.00" fill="#000000">[table]</text>
<polygon fill="none" stroke="#000000" points="8.5,-191.2 8.5,-213.2 237.5,-213.2 237.5,-191.2 8.5,-191.2"/>
<image xlink:href="../../images/primaryKeys.png" width="11px" height="12px" preserveAspectRatio="xMinYMin meet" x="13.5" y="-208.2"/>
<text text-anchor="start" x="37.5" y="-198.3" font-family="Helvetica,sans-Serif" font-size="11.00" fill="#000000">id</text>
<polygon fill="none" stroke="#000000" points="8.5,-172.2 8.5,-191.2 237.5,-191.2 237.5,-172.2 8.5,-172.2"/>
<text text-anchor="start" x="11.5" y="-178.3" font-family="Helvetica,sans-Serif" font-size="11.00" fill="#000000">...</text>
<polygon fill="#ffffff" stroke="transparent" points="8.5,-153.2 8.5,-172.2 106.5,-172.2 106.5,-153.2 8.5,-153.2"/>
<polygon fill="none" stroke="#000000" points="8.5,-153.2 8.5,-172.2 106.5,-172.2 106.5,-153.2 8.5,-153.2"/>
<text text-anchor="start" x="11.5" y="-159.3" font-family="Helvetica,sans-Serif" font-size="11.00" fill="#000000"> &#160;</text>
<polygon fill="#ffffff" stroke="transparent" points="106.5,-153.2 106.5,-172.2 161.5,-172.2 161.5,-153.2 106.5,-153.2"/>
<polygon fill="none" stroke="#000000" points="106.5,-153.2 106.5,-172.2 161.5,-172.2 161.5,-153.2 106.5,-153.2"/>
<text text-anchor="start" x="152.3862" y="-159.3" font-family="Helvetica,sans-Serif" font-size="11.00" fill="#000000"> &#160;</text>
<polygon fill="#ffffff" stroke="transparent" points="161.5,-153.2 161.5,-172.2 237.5,-172.2 237.5,-153.2 161.5,-153.2"/>
<polygon fill="none" stroke="#000000" points="161.5,-153.2 161.5,-172.2 237.5,-172.2 237.5,-153.2 161.5,-153.2"/>
<text text-anchor="start" x="206.6755" y="-159.3" font-family="Helvetica,sans-Serif" font-size="11.00" fill="#000000">596 &gt;</text>
</a>
</g>
</g>
<!-- calendarios_secretarias&#45;&gt;inscricao_lista_espera_situacoes -->
<g id="edge1" class="edge">
<title>calendarios_secretarias:w&#45;&gt;inscricao_lista_espera_situacoes:e</title>
<path fill="none" stroke="#000000" stroke-dasharray="5,2" d="M273.5981,-220.9538C261.4282,-214.8342 256.0526,-202.2 237.5,-202.2"/>
<polygon fill="#000000" stroke="#000000" points="280.1958,-222.4409 287.2084,-227.7119 284.0979,-223.3204 288,-224.2 288,-224.2 288,-224.2 284.0979,-223.3204 288.7916,-220.6881 280.1958,-222.4409 280.1958,-222.4409"/>
<ellipse fill="none" stroke="#000000" cx="277.0741" cy="-221.7373" rx="3.2" ry="3.2"/>
</g>
<!-- calendarios_secretarias&#45;&gt;inscricao_lista_espera_situacoes -->
<g id="edge2" class="edge">
<title>calendarios_secretarias:w&#45;&gt;inscricao_lista_espera_situacoes:e</title>
<path fill="none" stroke="#000000" stroke-dasharray="5,2" d="M274.0126,-241.4912C260.3016,-230.1404 261.2219,-202.2 237.5,-202.2"/>
<polygon fill="#000000" stroke="#000000" points="280.4181,-243.6476 286.8514,-249.6119 284.209,-244.9238 288,-246.2 288,-246.2 288,-246.2 284.209,-244.9238 289.1486,-242.7881 280.4181,-243.6476 280.4181,-243.6476"/>
<ellipse fill="none" stroke="#000000" cx="277.3853" cy="-242.6266" rx="3.2" ry="3.2"/>
</g>
<!-- calendarios_secretarias&#45;&gt;inscricao_lista_espera_situacoes -->
<g id="edge3" class="edge">
<title>calendarios_secretarias:w&#45;&gt;inscricao_lista_espera_situacoes:e</title>
<path fill="none" stroke="#000000" stroke-dasharray="5,2" d="M274.0126,-162.9088C260.3016,-174.2596 261.2219,-202.2 237.5,-202.2"/>
<polygon fill="#000000" stroke="#000000" points="280.4181,-160.7524 289.1486,-161.6119 284.209,-159.4762 288,-158.2 288,-158.2 288,-158.2 284.209,-159.4762 286.8514,-154.7881 280.4181,-160.7524 280.4181,-160.7524"/>
<ellipse fill="none" stroke="#000000" cx="277.3853" cy="-161.7734" rx="3.2" ry="3.2"/>
</g>
<!-- calendarios_secretarias&#45;&gt;inscricao_lista_espera_situacoes -->
<g id="edge4" class="edge">
<title>calendarios_secretarias:w&#45;&gt;inscricao_lista_espera_situacoes:e</title>
<path fill="none" stroke="#000000" stroke-dasharray="5,2" d="M273.5981,-183.4462C261.4282,-189.5658 256.0526,-202.2 237.5,-202.2"/>
<polygon fill="#000000" stroke="#000000" points="280.1958,-181.9591 288.7916,-183.7119 284.0979,-181.0796 288,-180.2 288,-180.2 288,-180.2 284.0979,-181.0796 287.2084,-176.6881 280.1958,-181.9591 280.1958,-181.9591"/>
<ellipse fill="none" stroke="#000000" cx="277.0741" cy="-182.6627" rx="3.2" ry="3.2"/>
</g>
</g>
</svg>
