<?xml version="1.0" encoding="UTF-8" standalone="no"?>
<!DOCTYPE svg PUBLIC "-//W3C//DTD SVG 1.1//EN"
 "http://www.w3.org/Graphics/SVG/1.1/DTD/svg11.dtd">
<!-- Generated by graphviz version 2.40.1 (20161225.0304)
 -->
<!-- Title: oneDegreeRelationshipsDiagramImplied Pages: 1 -->
<svg width="731pt" height="470pt"
 viewBox="0.00 0.00 731.00 470.20" xmlns="http://www.w3.org/2000/svg" xmlns:xlink="http://www.w3.org/1999/xlink">
<g id="graph0" class="graph" transform="scale(1 1) rotate(0) translate(4 466.2)">
<title>oneDegreeRelationshipsDiagramImplied</title>
<polygon fill="#ffffff" stroke="transparent" points="-4,4 -4,-466.2 727,-466.2 727,4 -4,4"/>
<text text-anchor="middle" x="72.4936" y="-7.3" font-family="Helvetica,sans-Serif" font-size="11.00" fill="#000000">Generated by SchemaSpy</text>
<!-- calendarios_estabelecimentos -->
<g id="node1" class="node">
<title>calendarios_estabelecimentos</title>
<g id="a_node1"><a xlink:href="../../tables/calendarios_estabelecimentos.html" xlink:title="calendarios_estabelecimentos" target="_top">
<polygon fill="#ffffff" stroke="transparent" points="286,-38.2 286,-458.2 715,-458.2 715,-38.2 286,-38.2"/>
<polygon fill="#f5f5f5" stroke="transparent" points="288.5,-433.2 288.5,-456.2 713.5,-456.2 713.5,-433.2 288.5,-433.2"/>
<polygon fill="none" stroke="#000000" points="288.5,-433.2 288.5,-456.2 713.5,-456.2 713.5,-433.2 288.5,-433.2"/>
<text text-anchor="start" x="293.5" y="-441.8" font-family="Helvetica,sans-Serif" font-weight="bold" font-size="11.00" fill="#000000">calendarios_estabelecimentos</text>
<text text-anchor="start" x="678.5437" y="-441.3" font-family="Helvetica,sans-Serif" font-size="11.00" fill="#000000">[table]</text>
<polygon fill="none" stroke="#000000" points="288.5,-411.2 288.5,-433.2 496.5,-433.2 496.5,-411.2 288.5,-411.2"/>
<text text-anchor="start" x="308.5" y="-418.3" font-family="Helvetica,sans-Serif" font-size="11.00" fill="#000000">sistema</text>
<polygon fill="none" stroke="#000000" points="496.5,-411.2 496.5,-433.2 713.5,-433.2 713.5,-411.2 496.5,-411.2"/>
<text text-anchor="start" x="499.5" y="-418.9" font-family="Helvetica,sans-Serif" font-size="11.00" fill="#000000">int4[10]</text>
<polygon fill="none" stroke="#000000" points="288.5,-389.2 288.5,-411.2 496.5,-411.2 496.5,-389.2 288.5,-389.2"/>
<text text-anchor="start" x="308.5" y="-396.3" font-family="Helvetica,sans-Serif" font-size="11.00" fill="#000000">tipo_registro</text>
<polygon fill="none" stroke="#000000" points="496.5,-389.2 496.5,-411.2 713.5,-411.2 713.5,-389.2 496.5,-389.2"/>
<text text-anchor="start" x="499.5" y="-396.9" font-family="Helvetica,sans-Serif" font-size="11.00" fill="#000000">text[2147483647]</text>
<polygon fill="none" stroke="#000000" points="288.5,-367.2 288.5,-389.2 496.5,-389.2 496.5,-367.2 288.5,-367.2"/>
<text text-anchor="start" x="308.5" y="-374.3" font-family="Helvetica,sans-Serif" font-size="11.00" fill="#000000">id_integracao</text>
<polygon fill="none" stroke="#000000" points="496.5,-367.2 496.5,-389.2 713.5,-389.2 713.5,-367.2 496.5,-367.2"/>
<text text-anchor="start" x="499.5" y="-374.9" font-family="Helvetica,sans-Serif" font-size="11.00" fill="#000000">varchar[2147483647]</text>
<polygon fill="none" stroke="#000000" points="288.5,-345.2 288.5,-367.2 496.5,-367.2 496.5,-345.2 288.5,-345.2"/>
<text text-anchor="start" x="308.5" y="-352.3" font-family="Helvetica,sans-Serif" font-size="11.00" fill="#000000">id_origem</text>
<polygon fill="none" stroke="#000000" points="496.5,-345.2 496.5,-367.2 713.5,-367.2 713.5,-345.2 496.5,-345.2"/>
<text text-anchor="start" x="499.5" y="-352.9" font-family="Helvetica,sans-Serif" font-size="11.00" fill="#000000">int4[10]</text>
<polygon fill="none" stroke="#000000" points="288.5,-323.2 288.5,-345.2 496.5,-345.2 496.5,-323.2 288.5,-323.2"/>
<text text-anchor="start" x="308.5" y="-330.3" font-family="Helvetica,sans-Serif" font-size="11.00" fill="#000000">id_cloud</text>
<polygon fill="none" stroke="#000000" points="496.5,-323.2 496.5,-345.2 713.5,-345.2 713.5,-323.2 496.5,-323.2"/>
<text text-anchor="start" x="499.5" y="-330.9" font-family="Helvetica,sans-Serif" font-size="11.00" fill="#000000">int4[10]</text>
<polygon fill="none" stroke="#000000" points="288.5,-301.2 288.5,-323.2 496.5,-323.2 496.5,-301.2 288.5,-301.2"/>
<image xlink:href="../../images/foreignKeys.png" width="11px" height="12px" preserveAspectRatio="xMinYMin meet" x="293.5" y="-318.2"/>
<text text-anchor="start" x="308.5" y="-308.3" font-family="Helvetica,sans-Serif" font-size="11.00" fill="#000000">ano_letivo_origem_id</text>
<polygon fill="none" stroke="#000000" points="496.5,-301.2 496.5,-323.2 713.5,-323.2 713.5,-301.2 496.5,-301.2"/>
<text text-anchor="start" x="499.5" y="-308.9" font-family="Helvetica,sans-Serif" font-size="11.00" fill="#000000">int4[10]</text>
<polygon fill="none" stroke="#000000" points="288.5,-279.2 288.5,-301.2 496.5,-301.2 496.5,-279.2 288.5,-279.2"/>
<image xlink:href="../../images/foreignKeys.png" width="11px" height="12px" preserveAspectRatio="xMinYMin meet" x="293.5" y="-296.2"/>
<text text-anchor="start" x="308.5" y="-286.3" font-family="Helvetica,sans-Serif" font-size="11.00" fill="#000000">ano_letivo_cloud_id</text>
<polygon fill="none" stroke="#000000" points="496.5,-279.2 496.5,-301.2 713.5,-301.2 713.5,-279.2 496.5,-279.2"/>
<text text-anchor="start" x="499.5" y="-286.9" font-family="Helvetica,sans-Serif" font-size="11.00" fill="#000000">int4[10]</text>
<polygon fill="none" stroke="#000000" points="288.5,-257.2 288.5,-279.2 496.5,-279.2 496.5,-257.2 288.5,-257.2"/>
<image xlink:href="../../images/foreignKeys.png" width="11px" height="12px" preserveAspectRatio="xMinYMin meet" x="293.5" y="-274.2"/>
<text text-anchor="start" x="308.5" y="-264.3" font-family="Helvetica,sans-Serif" font-size="11.00" fill="#000000">estabelecimento_origem_id</text>
<polygon fill="none" stroke="#000000" points="496.5,-257.2 496.5,-279.2 713.5,-279.2 713.5,-257.2 496.5,-257.2"/>
<text text-anchor="start" x="499.5" y="-264.9" font-family="Helvetica,sans-Serif" font-size="11.00" fill="#000000">int4[10]</text>
<polygon fill="none" stroke="#000000" points="288.5,-235.2 288.5,-257.2 496.5,-257.2 496.5,-235.2 288.5,-235.2"/>
<image xlink:href="../../images/foreignKeys.png" width="11px" height="12px" preserveAspectRatio="xMinYMin meet" x="293.5" y="-252.2"/>
<text text-anchor="start" x="308.5" y="-242.3" font-family="Helvetica,sans-Serif" font-size="11.00" fill="#000000">estabelecimento_cloud_id</text>
<polygon fill="none" stroke="#000000" points="496.5,-235.2 496.5,-257.2 713.5,-257.2 713.5,-235.2 496.5,-235.2"/>
<text text-anchor="start" x="499.5" y="-242.9" font-family="Helvetica,sans-Serif" font-size="11.00" fill="#000000">int4[10]</text>
<polygon fill="none" stroke="#000000" points="288.5,-213.2 288.5,-235.2 496.5,-235.2 496.5,-213.2 288.5,-213.2"/>
<image xlink:href="../../images/foreignKeys.png" width="11px" height="12px" preserveAspectRatio="xMinYMin meet" x="293.5" y="-230.2"/>
<text text-anchor="start" x="308.5" y="-220.3" font-family="Helvetica,sans-Serif" font-size="11.00" fill="#000000">calendario_secretaria_origem_id</text>
<polygon fill="none" stroke="#000000" points="496.5,-213.2 496.5,-235.2 713.5,-235.2 713.5,-213.2 496.5,-213.2"/>
<text text-anchor="start" x="499.5" y="-220.9" font-family="Helvetica,sans-Serif" font-size="11.00" fill="#000000">int4[10]</text>
<polygon fill="none" stroke="#000000" points="288.5,-191.2 288.5,-213.2 496.5,-213.2 496.5,-191.2 288.5,-191.2"/>
<image xlink:href="../../images/foreignKeys.png" width="11px" height="12px" preserveAspectRatio="xMinYMin meet" x="293.5" y="-208.2"/>
<text text-anchor="start" x="308.5" y="-198.3" font-family="Helvetica,sans-Serif" font-size="11.00" fill="#000000">calendario_secretaria_cloud_id</text>
<polygon fill="none" stroke="#000000" points="496.5,-191.2 496.5,-213.2 713.5,-213.2 713.5,-191.2 496.5,-191.2"/>
<text text-anchor="start" x="499.5" y="-198.9" font-family="Helvetica,sans-Serif" font-size="11.00" fill="#000000">int4[10]</text>
<polygon fill="none" stroke="#000000" points="288.5,-169.2 288.5,-191.2 496.5,-191.2 496.5,-169.2 288.5,-169.2"/>
<image xlink:href="../../images/foreignKeys.png" width="11px" height="12px" preserveAspectRatio="xMinYMin meet" x="293.5" y="-186.2"/>
<text text-anchor="start" x="308.5" y="-176.3" font-family="Helvetica,sans-Serif" font-size="11.00" fill="#000000">calendario_origem_id</text>
<polygon fill="none" stroke="#000000" points="496.5,-169.2 496.5,-191.2 713.5,-191.2 713.5,-169.2 496.5,-169.2"/>
<text text-anchor="start" x="499.5" y="-176.9" font-family="Helvetica,sans-Serif" font-size="11.00" fill="#000000">int4[10]</text>
<polygon fill="none" stroke="#000000" points="288.5,-147.2 288.5,-169.2 496.5,-169.2 496.5,-147.2 288.5,-147.2"/>
<image xlink:href="../../images/foreignKeys.png" width="11px" height="12px" preserveAspectRatio="xMinYMin meet" x="293.5" y="-164.2"/>
<text text-anchor="start" x="308.5" y="-154.3" font-family="Helvetica,sans-Serif" font-size="11.00" fill="#000000">calendario_cloud_id</text>
<polygon fill="none" stroke="#000000" points="496.5,-147.2 496.5,-169.2 713.5,-169.2 713.5,-147.2 496.5,-147.2"/>
<text text-anchor="start" x="499.5" y="-154.9" font-family="Helvetica,sans-Serif" font-size="11.00" fill="#000000">int4[10]</text>
<polygon fill="none" stroke="#000000" points="288.5,-125.2 288.5,-147.2 496.5,-147.2 496.5,-125.2 288.5,-125.2"/>
<text text-anchor="start" x="308.5" y="-132.3" font-family="Helvetica,sans-Serif" font-size="11.00" fill="#000000">data_inicial</text>
<polygon fill="none" stroke="#000000" points="496.5,-125.2 496.5,-147.2 713.5,-147.2 713.5,-125.2 496.5,-125.2"/>
<text text-anchor="start" x="499.5" y="-132.9" font-family="Helvetica,sans-Serif" font-size="11.00" fill="#000000">varchar[2147483647]</text>
<polygon fill="none" stroke="#000000" points="288.5,-103.2 288.5,-125.2 496.5,-125.2 496.5,-103.2 288.5,-103.2"/>
<text text-anchor="start" x="308.5" y="-110.3" font-family="Helvetica,sans-Serif" font-size="11.00" fill="#000000">data_final</text>
<polygon fill="none" stroke="#000000" points="496.5,-103.2 496.5,-125.2 713.5,-125.2 713.5,-103.2 496.5,-103.2"/>
<text text-anchor="start" x="499.5" y="-110.9" font-family="Helvetica,sans-Serif" font-size="11.00" fill="#000000">varchar[2147483647]</text>
<polygon fill="none" stroke="#000000" points="288.5,-81.2 288.5,-103.2 496.5,-103.2 496.5,-81.2 288.5,-81.2"/>
<text text-anchor="start" x="308.5" y="-88.3" font-family="Helvetica,sans-Serif" font-size="11.00" fill="#000000">observacao</text>
<polygon fill="none" stroke="#000000" points="496.5,-81.2 496.5,-103.2 713.5,-103.2 713.5,-81.2 496.5,-81.2"/>
<text text-anchor="start" x="499.5" y="-88.9" font-family="Helvetica,sans-Serif" font-size="11.00" fill="#000000">varchar[2147483647]</text>
<polygon fill="none" stroke="#000000" points="288.5,-59.2 288.5,-81.2 496.5,-81.2 496.5,-59.2 288.5,-59.2"/>
<text text-anchor="start" x="308.5" y="-66.3" font-family="Helvetica,sans-Serif" font-size="11.00" fill="#000000">dias_letivos_semana</text>
<polygon fill="none" stroke="#000000" points="496.5,-59.2 496.5,-81.2 713.5,-81.2 713.5,-59.2 496.5,-59.2"/>
<text text-anchor="start" x="499.3692" y="-66.9" font-family="Helvetica,sans-Serif" font-size="11.00" fill="#000000">&quot;educacao&quot;.&quot;_diasdasemana&quot;[2147483647]</text>
<polygon fill="#ffffff" stroke="transparent" points="288.5,-40.2 288.5,-59.2 396.5,-59.2 396.5,-40.2 288.5,-40.2"/>
<polygon fill="none" stroke="#000000" points="288.5,-40.2 288.5,-59.2 396.5,-59.2 396.5,-40.2 288.5,-40.2"/>
<text text-anchor="start" x="291.5" y="-46.3" font-family="Helvetica,sans-Serif" font-size="11.00" fill="#000000">&lt; 8</text>
<polygon fill="#ffffff" stroke="transparent" points="396.5,-40.2 396.5,-59.2 496.5,-59.2 496.5,-40.2 396.5,-40.2"/>
<polygon fill="none" stroke="#000000" points="396.5,-40.2 396.5,-59.2 496.5,-59.2 496.5,-40.2 396.5,-40.2"/>
<text text-anchor="start" x="487.3862" y="-46.3" font-family="Helvetica,sans-Serif" font-size="11.00" fill="#000000"> &#160;</text>
<polygon fill="#ffffff" stroke="transparent" points="496.5,-40.2 496.5,-59.2 713.5,-59.2 713.5,-40.2 496.5,-40.2"/>
<polygon fill="none" stroke="#000000" points="496.5,-40.2 496.5,-59.2 713.5,-59.2 713.5,-40.2 496.5,-40.2"/>
<text text-anchor="start" x="694.9053" y="-46.3" font-family="Helvetica,sans-Serif" font-size="11.00" fill="#000000">0 &gt;</text>
<polygon fill="none" stroke="#000000" stroke-width="2" points="287,-39.2 287,-457.2 714,-457.2 714,-39.2 287,-39.2"/>
</a>
</g>
</g>
<!-- inscricao_lista_espera_situacoes -->
<g id="node2" class="node">
<title>inscricao_lista_espera_situacoes</title>
<g id="a_node2"><a xlink:href="../../tables/inscricao_lista_espera_situacoes.html" xlink:title="inscricao_lista_espera_situacoes" target="_top">
<polygon fill="#ffffff" stroke="transparent" points="8,-186.7 8,-269.7 237,-269.7 237,-186.7 8,-186.7"/>
<polygon fill="#f5f5f5" stroke="transparent" points="8.5,-246.2 8.5,-269.2 237.5,-269.2 237.5,-246.2 8.5,-246.2"/>
<polygon fill="none" stroke="#000000" points="8.5,-246.2 8.5,-269.2 237.5,-269.2 237.5,-246.2 8.5,-246.2"/>
<text text-anchor="start" x="13.5" y="-254.8" font-family="Helvetica,sans-Serif" font-weight="bold" font-size="11.00" fill="#000000">inscricao_lista_espera_situacoes</text>
<text text-anchor="start" x="203.0219" y="-254.3" font-family="Helvetica,sans-Serif" font-size="11.00" fill="#000000">[table]</text>
<polygon fill="none" stroke="#000000" points="8.5,-224.2 8.5,-246.2 237.5,-246.2 237.5,-224.2 8.5,-224.2"/>
<image xlink:href="../../images/primaryKeys.png" width="11px" height="12px" preserveAspectRatio="xMinYMin meet" x="13.5" y="-241.2"/>
<text text-anchor="start" x="37.5" y="-231.3" font-family="Helvetica,sans-Serif" font-size="11.00" fill="#000000">id</text>
<polygon fill="none" stroke="#000000" points="8.5,-205.2 8.5,-224.2 237.5,-224.2 237.5,-205.2 8.5,-205.2"/>
<text text-anchor="start" x="11.5" y="-211.3" font-family="Helvetica,sans-Serif" font-size="11.00" fill="#000000">...</text>
<polygon fill="#ffffff" stroke="transparent" points="8.5,-186.2 8.5,-205.2 106.5,-205.2 106.5,-186.2 8.5,-186.2"/>
<polygon fill="none" stroke="#000000" points="8.5,-186.2 8.5,-205.2 106.5,-205.2 106.5,-186.2 8.5,-186.2"/>
<text text-anchor="start" x="11.5" y="-192.3" font-family="Helvetica,sans-Serif" font-size="11.00" fill="#000000"> &#160;</text>
<polygon fill="#ffffff" stroke="transparent" points="106.5,-186.2 106.5,-205.2 161.5,-205.2 161.5,-186.2 106.5,-186.2"/>
<polygon fill="none" stroke="#000000" points="106.5,-186.2 106.5,-205.2 161.5,-205.2 161.5,-186.2 106.5,-186.2"/>
<text text-anchor="start" x="152.3862" y="-192.3" font-family="Helvetica,sans-Serif" font-size="11.00" fill="#000000"> &#160;</text>
<polygon fill="#ffffff" stroke="transparent" points="161.5,-186.2 161.5,-205.2 237.5,-205.2 237.5,-186.2 161.5,-186.2"/>
<polygon fill="none" stroke="#000000" points="161.5,-186.2 161.5,-205.2 237.5,-205.2 237.5,-186.2 161.5,-186.2"/>
<text text-anchor="start" x="206.6755" y="-192.3" font-family="Helvetica,sans-Serif" font-size="11.00" fill="#000000">596 &gt;</text>
</a>
</g>
</g>
<!-- calendarios_estabelecimentos&#45;&gt;inscricao_lista_espera_situacoes -->
<g id="edge1" class="edge">
<title>calendarios_estabelecimentos:w&#45;&gt;inscricao_lista_espera_situacoes:e</title>
<path fill="none" stroke="#000000" stroke-dasharray="5,2" d="M274.7081,-285.5107C259.2137,-272.2102 264.8462,-235.2 237.5,-235.2"/>
<polygon fill="#000000" stroke="#000000" points="280.9258,-287.6247 287.3411,-293.6084 284.7129,-288.9124 288.5,-290.2 288.5,-290.2 288.5,-290.2 284.7129,-288.9124 289.6589,-286.7916 280.9258,-287.6247 280.9258,-287.6247"/>
<ellipse fill="none" stroke="#000000" cx="277.8961" cy="-286.5946" rx="3.2" ry="3.2"/>
</g>
<!-- calendarios_estabelecimentos&#45;&gt;inscricao_lista_espera_situacoes -->
<g id="edge2" class="edge">
<title>calendarios_estabelecimentos:w&#45;&gt;inscricao_lista_espera_situacoes:e</title>
<path fill="none" stroke="#000000" stroke-dasharray="5,2" d="M274.5177,-307.6139C255.094,-291.0372 272.4549,-235.2 237.5,-235.2"/>
<polygon fill="#000000" stroke="#000000" points="280.8984,-309.7067 287.378,-315.6207 284.6992,-310.9534 288.5,-312.2 288.5,-312.2 288.5,-312.2 284.6992,-310.9534 289.622,-308.7793 280.8984,-309.7067 280.8984,-309.7067"/>
<ellipse fill="none" stroke="#000000" cx="277.8578" cy="-308.7094" rx="3.2" ry="3.2"/>
</g>
<!-- calendarios_estabelecimentos&#45;&gt;inscricao_lista_espera_situacoes -->
<g id="edge3" class="edge">
<title>calendarios_estabelecimentos:w&#45;&gt;inscricao_lista_espera_situacoes:e</title>
<path fill="none" stroke="#000000" stroke-dasharray="5,2" d="M274.5177,-162.7861C255.094,-179.3628 272.4549,-235.2 237.5,-235.2"/>
<polygon fill="#000000" stroke="#000000" points="280.8984,-160.6933 289.622,-161.6207 284.6992,-159.4466 288.5,-158.2 288.5,-158.2 288.5,-158.2 284.6992,-159.4466 287.378,-154.7793 280.8984,-160.6933 280.8984,-160.6933"/>
<ellipse fill="none" stroke="#000000" cx="277.8578" cy="-161.6906" rx="3.2" ry="3.2"/>
</g>
<!-- calendarios_estabelecimentos&#45;&gt;inscricao_lista_espera_situacoes -->
<g id="edge4" class="edge">
<title>calendarios_estabelecimentos:w&#45;&gt;inscricao_lista_espera_situacoes:e</title>
<path fill="none" stroke="#000000" stroke-dasharray="5,2" d="M274.7081,-184.8893C259.2137,-198.1898 264.8462,-235.2 237.5,-235.2"/>
<polygon fill="#000000" stroke="#000000" points="280.9258,-182.7753 289.6589,-183.6084 284.7129,-181.4876 288.5,-180.2 288.5,-180.2 288.5,-180.2 284.7129,-181.4876 287.3411,-176.7916 280.9258,-182.7753 280.9258,-182.7753"/>
<ellipse fill="none" stroke="#000000" cx="277.8961" cy="-183.8054" rx="3.2" ry="3.2"/>
</g>
<!-- calendarios_estabelecimentos&#45;&gt;inscricao_lista_espera_situacoes -->
<g id="edge5" class="edge">
<title>calendarios_estabelecimentos:w&#45;&gt;inscricao_lista_espera_situacoes:e</title>
<path fill="none" stroke="#000000" stroke-dasharray="5,2" d="M274.4604,-206.2464C261.3775,-215.0584 258.5921,-235.2 237.5,-235.2"/>
<polygon fill="#000000" stroke="#000000" points="280.8129,-204.4156 289.497,-205.6592 284.6565,-203.3078 288.5,-202.2 288.5,-202.2 288.5,-202.2 284.6565,-203.3078 287.503,-198.7408 280.8129,-204.4156 280.8129,-204.4156"/>
<ellipse fill="none" stroke="#000000" cx="277.7381" cy="-205.3018" rx="3.2" ry="3.2"/>
</g>
<!-- calendarios_estabelecimentos&#45;&gt;inscricao_lista_espera_situacoes -->
<g id="edge6" class="edge">
<title>calendarios_estabelecimentos:w&#45;&gt;inscricao_lista_espera_situacoes:e</title>
<path fill="none" stroke="#000000" stroke-dasharray="5,2" d="M274.0097,-225.9188C261.8398,-229.0125 254.8909,-235.2 237.5,-235.2"/>
<polygon fill="#000000" stroke="#000000" points="280.5557,-225.1424 288.9241,-227.7749 284.5278,-224.6712 288.5,-224.2 288.5,-224.2 288.5,-224.2 284.5278,-224.6712 288.0759,-220.6251 280.5557,-225.1424 280.5557,-225.1424"/>
<ellipse fill="none" stroke="#000000" cx="277.378" cy="-225.5193" rx="3.2" ry="3.2"/>
</g>
<!-- calendarios_estabelecimentos&#45;&gt;inscricao_lista_espera_situacoes -->
<g id="edge7" class="edge">
<title>calendarios_estabelecimentos:w&#45;&gt;inscricao_lista_espera_situacoes:e</title>
<path fill="none" stroke="#000000" stroke-dasharray="5,2" d="M274.0097,-244.4813C261.8398,-241.3875 254.8909,-235.2 237.5,-235.2"/>
<polygon fill="#000000" stroke="#000000" points="280.5557,-245.2576 288.0759,-249.7749 284.5278,-245.7288 288.5,-246.2 288.5,-246.2 288.5,-246.2 284.5278,-245.7288 288.9241,-242.6251 280.5557,-245.2576 280.5557,-245.2576"/>
<ellipse fill="none" stroke="#000000" cx="277.378" cy="-244.8807" rx="3.2" ry="3.2"/>
</g>
<!-- calendarios_estabelecimentos&#45;&gt;inscricao_lista_espera_situacoes -->
<g id="edge8" class="edge">
<title>calendarios_estabelecimentos:w&#45;&gt;inscricao_lista_espera_situacoes:e</title>
<path fill="none" stroke="#000000" stroke-dasharray="5,2" d="M274.4604,-264.1536C261.3775,-255.3416 258.5921,-235.2 237.5,-235.2"/>
<polygon fill="#000000" stroke="#000000" points="280.8129,-265.9844 287.503,-271.6592 284.6565,-267.0922 288.5,-268.2 288.5,-268.2 288.5,-268.2 284.6565,-267.0922 289.497,-264.7408 280.8129,-265.9844 280.8129,-265.9844"/>
<ellipse fill="none" stroke="#000000" cx="277.7381" cy="-265.0982" rx="3.2" ry="3.2"/>
</g>
</g>
</svg>
