<?xml version="1.0" encoding="UTF-8" standalone="no"?>
<!DOCTYPE svg PUBLIC "-//W3C//DTD SVG 1.1//EN"
 "http://www.w3.org/Graphics/SVG/1.1/DTD/svg11.dtd">
<!-- Generated by graphviz version 2.40.1 (20161225.0304)
 -->
<!-- Title: oneDegreeRelationshipsDiagram Pages: 1 -->
<svg width="404pt" height="514pt"
 viewBox="0.00 0.00 404.00 514.20" xmlns="http://www.w3.org/2000/svg" xmlns:xlink="http://www.w3.org/1999/xlink">
<g id="graph0" class="graph" transform="scale(1 1) rotate(0) translate(4 510.2)">
<title>oneDegreeRelationshipsDiagram</title>
<polygon fill="#ffffff" stroke="transparent" points="-4,4 -4,-510.2 400,-510.2 400,4 -4,4"/>
<text text-anchor="middle" x="72.4936" y="-7.3" font-family="Helvetica,sans-Serif" font-size="11.00" fill="#000000">Generated by SchemaSpy</text>
<!-- calendarios_eventos -->
<g id="node1" class="node">
<title>calendarios_eventos</title>
<g id="a_node1"><a xlink:href="../../tables/calendarios_eventos.html" xlink:title="calendarios_eventos" target="_top">
<polygon fill="#ffffff" stroke="transparent" points="8,-38.2 8,-502.2 388,-502.2 388,-38.2 8,-38.2"/>
<polygon fill="#f5f5f5" stroke="transparent" points="10,-477.2 10,-500.2 386,-500.2 386,-477.2 10,-477.2"/>
<polygon fill="none" stroke="#000000" points="10,-477.2 10,-500.2 386,-500.2 386,-477.2 10,-477.2"/>
<text text-anchor="start" x="15" y="-485.8" font-family="Helvetica,sans-Serif" font-weight="bold" font-size="11.00" fill="#000000">calendarios_eventos</text>
<text text-anchor="start" x="351.0437" y="-485.3" font-family="Helvetica,sans-Serif" font-size="11.00" fill="#000000">[table]</text>
<polygon fill="none" stroke="#000000" points="10,-455.2 10,-477.2 163,-477.2 163,-455.2 10,-455.2"/>
<text text-anchor="start" x="30" y="-462.3" font-family="Helvetica,sans-Serif" font-size="11.00" fill="#000000">sistema</text>
<polygon fill="none" stroke="#000000" points="163,-455.2 163,-477.2 386,-477.2 386,-455.2 163,-455.2"/>
<text text-anchor="start" x="166" y="-462.9" font-family="Helvetica,sans-Serif" font-size="11.00" fill="#000000">int4[10]</text>
<polygon fill="none" stroke="#000000" points="10,-433.2 10,-455.2 163,-455.2 163,-433.2 10,-433.2"/>
<text text-anchor="start" x="30" y="-440.3" font-family="Helvetica,sans-Serif" font-size="11.00" fill="#000000">tipo_registro</text>
<polygon fill="none" stroke="#000000" points="163,-433.2 163,-455.2 386,-455.2 386,-433.2 163,-433.2"/>
<text text-anchor="start" x="166" y="-440.9" font-family="Helvetica,sans-Serif" font-size="11.00" fill="#000000">text[2147483647]</text>
<polygon fill="none" stroke="#000000" points="10,-411.2 10,-433.2 163,-433.2 163,-411.2 10,-411.2"/>
<text text-anchor="start" x="30" y="-418.3" font-family="Helvetica,sans-Serif" font-size="11.00" fill="#000000">id_integracao</text>
<polygon fill="none" stroke="#000000" points="163,-411.2 163,-433.2 386,-433.2 386,-411.2 163,-411.2"/>
<text text-anchor="start" x="166" y="-418.9" font-family="Helvetica,sans-Serif" font-size="11.00" fill="#000000">varchar[2147483647]</text>
<polygon fill="none" stroke="#000000" points="10,-389.2 10,-411.2 163,-411.2 163,-389.2 10,-389.2"/>
<text text-anchor="start" x="30" y="-396.3" font-family="Helvetica,sans-Serif" font-size="11.00" fill="#000000">id_origem</text>
<polygon fill="none" stroke="#000000" points="163,-389.2 163,-411.2 386,-411.2 386,-389.2 163,-389.2"/>
<text text-anchor="start" x="166" y="-396.9" font-family="Helvetica,sans-Serif" font-size="11.00" fill="#000000">int4[10]</text>
<polygon fill="none" stroke="#000000" points="10,-367.2 10,-389.2 163,-389.2 163,-367.2 10,-367.2"/>
<text text-anchor="start" x="30" y="-374.3" font-family="Helvetica,sans-Serif" font-size="11.00" fill="#000000">id_cloud</text>
<polygon fill="none" stroke="#000000" points="163,-367.2 163,-389.2 386,-389.2 386,-367.2 163,-367.2"/>
<text text-anchor="start" x="166" y="-374.9" font-family="Helvetica,sans-Serif" font-size="11.00" fill="#000000">int4[10]</text>
<polygon fill="none" stroke="#000000" points="10,-345.2 10,-367.2 163,-367.2 163,-345.2 10,-345.2"/>
<image xlink:href="../../images/foreignKeys.png" width="11px" height="12px" preserveAspectRatio="xMinYMin meet" x="15" y="-362.2"/>
<text text-anchor="start" x="30" y="-352.3" font-family="Helvetica,sans-Serif" font-size="11.00" fill="#000000">evento_origem_id</text>
<polygon fill="none" stroke="#000000" points="163,-345.2 163,-367.2 386,-367.2 386,-345.2 163,-345.2"/>
<text text-anchor="start" x="166" y="-352.9" font-family="Helvetica,sans-Serif" font-size="11.00" fill="#000000">int4[10]</text>
<polygon fill="none" stroke="#000000" points="10,-323.2 10,-345.2 163,-345.2 163,-323.2 10,-323.2"/>
<image xlink:href="../../images/foreignKeys.png" width="11px" height="12px" preserveAspectRatio="xMinYMin meet" x="15" y="-340.2"/>
<text text-anchor="start" x="30" y="-330.3" font-family="Helvetica,sans-Serif" font-size="11.00" fill="#000000">evento_cloud_id</text>
<polygon fill="none" stroke="#000000" points="163,-323.2 163,-345.2 386,-345.2 386,-323.2 163,-323.2"/>
<text text-anchor="start" x="166" y="-330.9" font-family="Helvetica,sans-Serif" font-size="11.00" fill="#000000">int4[10]</text>
<polygon fill="none" stroke="#000000" points="10,-301.2 10,-323.2 163,-323.2 163,-301.2 10,-301.2"/>
<image xlink:href="../../images/foreignKeys.png" width="11px" height="12px" preserveAspectRatio="xMinYMin meet" x="15" y="-318.2"/>
<text text-anchor="start" x="30" y="-308.3" font-family="Helvetica,sans-Serif" font-size="11.00" fill="#000000">calendario_origem_id</text>
<polygon fill="none" stroke="#000000" points="163,-301.2 163,-323.2 386,-323.2 386,-301.2 163,-301.2"/>
<text text-anchor="start" x="166" y="-308.9" font-family="Helvetica,sans-Serif" font-size="11.00" fill="#000000">int4[10]</text>
<polygon fill="none" stroke="#000000" points="10,-279.2 10,-301.2 163,-301.2 163,-279.2 10,-279.2"/>
<image xlink:href="../../images/foreignKeys.png" width="11px" height="12px" preserveAspectRatio="xMinYMin meet" x="15" y="-296.2"/>
<text text-anchor="start" x="30" y="-286.3" font-family="Helvetica,sans-Serif" font-size="11.00" fill="#000000">calendario_cloud_id</text>
<polygon fill="none" stroke="#000000" points="163,-279.2 163,-301.2 386,-301.2 386,-279.2 163,-279.2"/>
<text text-anchor="start" x="166" y="-286.9" font-family="Helvetica,sans-Serif" font-size="11.00" fill="#000000">int4[10]</text>
<polygon fill="none" stroke="#000000" points="10,-257.2 10,-279.2 163,-279.2 163,-257.2 10,-257.2"/>
<text text-anchor="start" x="30" y="-264.3" font-family="Helvetica,sans-Serif" font-size="11.00" fill="#000000">data_inicial</text>
<polygon fill="none" stroke="#000000" points="163,-257.2 163,-279.2 386,-279.2 386,-257.2 163,-257.2"/>
<text text-anchor="start" x="166" y="-264.9" font-family="Helvetica,sans-Serif" font-size="11.00" fill="#000000">timestamp[29,6]</text>
<polygon fill="none" stroke="#000000" points="10,-235.2 10,-257.2 163,-257.2 163,-235.2 10,-235.2"/>
<text text-anchor="start" x="30" y="-242.3" font-family="Helvetica,sans-Serif" font-size="11.00" fill="#000000">data_final</text>
<polygon fill="none" stroke="#000000" points="163,-235.2 163,-257.2 386,-257.2 386,-235.2 163,-235.2"/>
<text text-anchor="start" x="166" y="-242.9" font-family="Helvetica,sans-Serif" font-size="11.00" fill="#000000">timestamp[29,6]</text>
<polygon fill="none" stroke="#000000" points="10,-213.2 10,-235.2 163,-235.2 163,-213.2 10,-213.2"/>
<text text-anchor="start" x="30" y="-220.3" font-family="Helvetica,sans-Serif" font-size="11.00" fill="#000000">dia_inteiro</text>
<polygon fill="none" stroke="#000000" points="163,-213.2 163,-235.2 386,-235.2 386,-213.2 163,-213.2"/>
<text text-anchor="start" x="166" y="-220.9" font-family="Helvetica,sans-Serif" font-size="11.00" fill="#000000">bool[1]</text>
<polygon fill="none" stroke="#000000" points="10,-191.2 10,-213.2 163,-213.2 163,-191.2 10,-191.2"/>
<text text-anchor="start" x="30" y="-198.3" font-family="Helvetica,sans-Serif" font-size="11.00" fill="#000000">obrigatorio</text>
<polygon fill="none" stroke="#000000" points="163,-191.2 163,-213.2 386,-213.2 386,-191.2 163,-191.2"/>
<text text-anchor="start" x="166" y="-198.9" font-family="Helvetica,sans-Serif" font-size="11.00" fill="#000000">bool[1]</text>
<polygon fill="none" stroke="#000000" points="10,-169.2 10,-191.2 163,-191.2 163,-169.2 10,-169.2"/>
<text text-anchor="start" x="30" y="-176.3" font-family="Helvetica,sans-Serif" font-size="11.00" fill="#000000">obrigatorio_nesta_data</text>
<polygon fill="none" stroke="#000000" points="163,-169.2 163,-191.2 386,-191.2 386,-169.2 163,-169.2"/>
<text text-anchor="start" x="166" y="-176.9" font-family="Helvetica,sans-Serif" font-size="11.00" fill="#000000">bool[1]</text>
<polygon fill="none" stroke="#000000" points="10,-147.2 10,-169.2 163,-169.2 163,-147.2 10,-147.2"/>
<text text-anchor="start" x="30" y="-154.3" font-family="Helvetica,sans-Serif" font-size="11.00" fill="#000000">letivo</text>
<polygon fill="none" stroke="#000000" points="163,-147.2 163,-169.2 386,-169.2 386,-147.2 163,-147.2"/>
<text text-anchor="start" x="166" y="-154.9" font-family="Helvetica,sans-Serif" font-size="11.00" fill="#000000">bool[1]</text>
<polygon fill="none" stroke="#000000" points="10,-125.2 10,-147.2 163,-147.2 163,-125.2 10,-125.2"/>
<text text-anchor="start" x="30" y="-132.3" font-family="Helvetica,sans-Serif" font-size="11.00" fill="#000000">trabalhado</text>
<polygon fill="none" stroke="#000000" points="163,-125.2 163,-147.2 386,-147.2 386,-125.2 163,-125.2"/>
<text text-anchor="start" x="166" y="-132.9" font-family="Helvetica,sans-Serif" font-size="11.00" fill="#000000">bool[1]</text>
<polygon fill="none" stroke="#000000" points="10,-103.2 10,-125.2 163,-125.2 163,-103.2 10,-103.2"/>
<text text-anchor="start" x="30" y="-110.3" font-family="Helvetica,sans-Serif" font-size="11.00" fill="#000000">cor</text>
<polygon fill="none" stroke="#000000" points="163,-103.2 163,-125.2 386,-125.2 386,-103.2 163,-103.2"/>
<text text-anchor="start" x="166" y="-110.9" font-family="Helvetica,sans-Serif" font-size="11.00" fill="#000000">&quot;educacao&quot;.&quot;coreseventos&quot;[2147483647]</text>
<polygon fill="none" stroke="#000000" points="10,-81.2 10,-103.2 163,-103.2 163,-81.2 10,-81.2"/>
<text text-anchor="start" x="30" y="-88.3" font-family="Helvetica,sans-Serif" font-size="11.00" fill="#000000">publico_alvo</text>
<polygon fill="none" stroke="#000000" points="163,-81.2 163,-103.2 386,-103.2 386,-81.2 163,-81.2"/>
<text text-anchor="start" x="165.5103" y="-88.9" font-family="Helvetica,sans-Serif" font-size="11.00" fill="#000000">&quot;educacao&quot;.&quot;_tipospublicoalvo&quot;[2147483647]</text>
<polygon fill="none" stroke="#000000" points="10,-59.2 10,-81.2 163,-81.2 163,-59.2 10,-59.2"/>
<image xlink:href="../../images/foreignKeys.png" width="11px" height="12px" preserveAspectRatio="xMinYMin meet" x="15" y="-76.2"/>
<text text-anchor="start" x="30" y="-66.3" font-family="Helvetica,sans-Serif" font-size="11.00" fill="#000000">aceite_id</text>
<polygon fill="none" stroke="#000000" points="163,-59.2 163,-81.2 386,-81.2 386,-59.2 163,-59.2"/>
<text text-anchor="start" x="166" y="-66.9" font-family="Helvetica,sans-Serif" font-size="11.00" fill="#000000">int4[10]</text>
<polygon fill="#ffffff" stroke="transparent" points="10,-40.2 10,-59.2 91,-59.2 91,-40.2 10,-40.2"/>
<polygon fill="none" stroke="#000000" points="10,-40.2 10,-59.2 91,-59.2 91,-40.2 10,-40.2"/>
<text text-anchor="start" x="13" y="-46.3" font-family="Helvetica,sans-Serif" font-size="11.00" fill="#000000">&lt; 0</text>
<polygon fill="#ffffff" stroke="transparent" points="91,-40.2 91,-59.2 163,-59.2 163,-40.2 91,-40.2"/>
<polygon fill="none" stroke="#000000" points="91,-40.2 91,-59.2 163,-59.2 163,-40.2 91,-40.2"/>
<text text-anchor="start" x="153.8862" y="-46.3" font-family="Helvetica,sans-Serif" font-size="11.00" fill="#000000"> &#160;</text>
<polygon fill="#ffffff" stroke="transparent" points="163,-40.2 163,-59.2 386,-59.2 386,-40.2 163,-40.2"/>
<polygon fill="none" stroke="#000000" points="163,-40.2 163,-59.2 386,-59.2 386,-40.2 163,-40.2"/>
<text text-anchor="start" x="367.4053" y="-46.3" font-family="Helvetica,sans-Serif" font-size="11.00" fill="#000000">0 &gt;</text>
<polygon fill="none" stroke="#000000" stroke-width="2" points="9,-39.2 9,-501.2 387,-501.2 387,-39.2 9,-39.2"/>
</a>
</g>
</g>
</g>
</svg>
