<?xml version="1.0" encoding="UTF-8" standalone="no"?>
<!DOCTYPE svg PUBLIC "-//W3C//DTD SVG 1.1//EN"
 "http://www.w3.org/Graphics/SVG/1.1/DTD/svg11.dtd">
<!-- Generated by graphviz version 2.40.1 (20161225.0304)
 -->
<!-- Title: oneDegreeRelationshipsDiagram Pages: 1 -->
<svg width="404pt" height="404pt"
 viewBox="0.00 0.00 404.00 404.20" xmlns="http://www.w3.org/2000/svg" xmlns:xlink="http://www.w3.org/1999/xlink">
<g id="graph0" class="graph" transform="scale(1 1) rotate(0) translate(4 400.2)">
<title>oneDegreeRelationshipsDiagram</title>
<polygon fill="#ffffff" stroke="transparent" points="-4,4 -4,-400.2 400,-400.2 400,4 -4,4"/>
<text text-anchor="middle" x="72.4936" y="-7.3" font-family="Helvetica,sans-Serif" font-size="11.00" fill="#000000">Generated by SchemaSpy</text>
<!-- calendarios_secretarias -->
<g id="node1" class="node">
<title>calendarios_secretarias</title>
<g id="a_node1"><a xlink:href="../../tables/calendarios_secretarias.html" xlink:title="calendarios_secretarias" target="_top">
<polygon fill="#ffffff" stroke="transparent" points="8,-38.2 8,-392.2 388,-392.2 388,-38.2 8,-38.2"/>
<polygon fill="#f5f5f5" stroke="transparent" points="10,-367.2 10,-390.2 386,-390.2 386,-367.2 10,-367.2"/>
<polygon fill="none" stroke="#000000" points="10,-367.2 10,-390.2 386,-390.2 386,-367.2 10,-367.2"/>
<text text-anchor="start" x="15" y="-375.8" font-family="Helvetica,sans-Serif" font-weight="bold" font-size="11.00" fill="#000000">calendarios_secretarias</text>
<text text-anchor="start" x="351.0437" y="-375.3" font-family="Helvetica,sans-Serif" font-size="11.00" fill="#000000">[table]</text>
<polygon fill="none" stroke="#000000" points="10,-345.2 10,-367.2 167,-367.2 167,-345.2 10,-345.2"/>
<text text-anchor="start" x="30" y="-352.3" font-family="Helvetica,sans-Serif" font-size="11.00" fill="#000000">sistema</text>
<polygon fill="none" stroke="#000000" points="167,-345.2 167,-367.2 386,-367.2 386,-345.2 167,-345.2"/>
<text text-anchor="start" x="170" y="-352.9" font-family="Helvetica,sans-Serif" font-size="11.00" fill="#000000">int4[10]</text>
<polygon fill="none" stroke="#000000" points="10,-323.2 10,-345.2 167,-345.2 167,-323.2 10,-323.2"/>
<text text-anchor="start" x="30" y="-330.3" font-family="Helvetica,sans-Serif" font-size="11.00" fill="#000000">tipo_registro</text>
<polygon fill="none" stroke="#000000" points="167,-323.2 167,-345.2 386,-345.2 386,-323.2 167,-323.2"/>
<text text-anchor="start" x="170" y="-330.9" font-family="Helvetica,sans-Serif" font-size="11.00" fill="#000000">text[2147483647]</text>
<polygon fill="none" stroke="#000000" points="10,-301.2 10,-323.2 167,-323.2 167,-301.2 10,-301.2"/>
<text text-anchor="start" x="30" y="-308.3" font-family="Helvetica,sans-Serif" font-size="11.00" fill="#000000">id_integracao</text>
<polygon fill="none" stroke="#000000" points="167,-301.2 167,-323.2 386,-323.2 386,-301.2 167,-301.2"/>
<text text-anchor="start" x="170" y="-308.9" font-family="Helvetica,sans-Serif" font-size="11.00" fill="#000000">varchar[2147483647]</text>
<polygon fill="none" stroke="#000000" points="10,-279.2 10,-301.2 167,-301.2 167,-279.2 10,-279.2"/>
<text text-anchor="start" x="30" y="-286.3" font-family="Helvetica,sans-Serif" font-size="11.00" fill="#000000">id_origem</text>
<polygon fill="none" stroke="#000000" points="167,-279.2 167,-301.2 386,-301.2 386,-279.2 167,-279.2"/>
<text text-anchor="start" x="170" y="-286.9" font-family="Helvetica,sans-Serif" font-size="11.00" fill="#000000">int4[10]</text>
<polygon fill="none" stroke="#000000" points="10,-257.2 10,-279.2 167,-279.2 167,-257.2 10,-257.2"/>
<text text-anchor="start" x="30" y="-264.3" font-family="Helvetica,sans-Serif" font-size="11.00" fill="#000000">id_cloud</text>
<polygon fill="none" stroke="#000000" points="167,-257.2 167,-279.2 386,-279.2 386,-257.2 167,-257.2"/>
<text text-anchor="start" x="170" y="-264.9" font-family="Helvetica,sans-Serif" font-size="11.00" fill="#000000">int4[10]</text>
<polygon fill="none" stroke="#000000" points="10,-235.2 10,-257.2 167,-257.2 167,-235.2 10,-235.2"/>
<image xlink:href="../../images/foreignKeys.png" width="11px" height="12px" preserveAspectRatio="xMinYMin meet" x="15" y="-252.2"/>
<text text-anchor="start" x="30" y="-242.3" font-family="Helvetica,sans-Serif" font-size="11.00" fill="#000000">ano_letivo_origem_id</text>
<polygon fill="none" stroke="#000000" points="167,-235.2 167,-257.2 386,-257.2 386,-235.2 167,-235.2"/>
<text text-anchor="start" x="170" y="-242.9" font-family="Helvetica,sans-Serif" font-size="11.00" fill="#000000">int4[10]</text>
<polygon fill="none" stroke="#000000" points="10,-213.2 10,-235.2 167,-235.2 167,-213.2 10,-213.2"/>
<image xlink:href="../../images/foreignKeys.png" width="11px" height="12px" preserveAspectRatio="xMinYMin meet" x="15" y="-230.2"/>
<text text-anchor="start" x="30" y="-220.3" font-family="Helvetica,sans-Serif" font-size="11.00" fill="#000000">ano_letivo_cloud_id</text>
<polygon fill="none" stroke="#000000" points="167,-213.2 167,-235.2 386,-235.2 386,-213.2 167,-213.2"/>
<text text-anchor="start" x="170" y="-220.9" font-family="Helvetica,sans-Serif" font-size="11.00" fill="#000000">int4[10]</text>
<polygon fill="none" stroke="#000000" points="10,-191.2 10,-213.2 167,-213.2 167,-191.2 10,-191.2"/>
<text text-anchor="start" x="30" y="-198.3" font-family="Helvetica,sans-Serif" font-size="11.00" fill="#000000">status</text>
<polygon fill="none" stroke="#000000" points="167,-191.2 167,-213.2 386,-213.2 386,-191.2 167,-191.2"/>
<text text-anchor="start" x="169.6493" y="-198.9" font-family="Helvetica,sans-Serif" font-size="11.00" fill="#000000">&quot;educacao&quot;.&quot;statuscalendario&quot;[2147483647]</text>
<polygon fill="none" stroke="#000000" points="10,-169.2 10,-191.2 167,-191.2 167,-169.2 10,-169.2"/>
<image xlink:href="../../images/foreignKeys.png" width="11px" height="12px" preserveAspectRatio="xMinYMin meet" x="15" y="-186.2"/>
<text text-anchor="start" x="30" y="-176.3" font-family="Helvetica,sans-Serif" font-size="11.00" fill="#000000">calendario_origem_id</text>
<polygon fill="none" stroke="#000000" points="167,-169.2 167,-191.2 386,-191.2 386,-169.2 167,-169.2"/>
<text text-anchor="start" x="170" y="-176.9" font-family="Helvetica,sans-Serif" font-size="11.00" fill="#000000">int4[10]</text>
<polygon fill="none" stroke="#000000" points="10,-147.2 10,-169.2 167,-169.2 167,-147.2 10,-147.2"/>
<image xlink:href="../../images/foreignKeys.png" width="11px" height="12px" preserveAspectRatio="xMinYMin meet" x="15" y="-164.2"/>
<text text-anchor="start" x="30" y="-154.3" font-family="Helvetica,sans-Serif" font-size="11.00" fill="#000000">calendario_cloud_id</text>
<polygon fill="none" stroke="#000000" points="167,-147.2 167,-169.2 386,-169.2 386,-147.2 167,-147.2"/>
<text text-anchor="start" x="170" y="-154.9" font-family="Helvetica,sans-Serif" font-size="11.00" fill="#000000">int4[10]</text>
<polygon fill="none" stroke="#000000" points="10,-125.2 10,-147.2 167,-147.2 167,-125.2 10,-125.2"/>
<text text-anchor="start" x="30" y="-132.3" font-family="Helvetica,sans-Serif" font-size="11.00" fill="#000000">data_inicial</text>
<polygon fill="none" stroke="#000000" points="167,-125.2 167,-147.2 386,-147.2 386,-125.2 167,-125.2"/>
<text text-anchor="start" x="170" y="-132.9" font-family="Helvetica,sans-Serif" font-size="11.00" fill="#000000">varchar[2147483647]</text>
<polygon fill="none" stroke="#000000" points="10,-103.2 10,-125.2 167,-125.2 167,-103.2 10,-103.2"/>
<text text-anchor="start" x="30" y="-110.3" font-family="Helvetica,sans-Serif" font-size="11.00" fill="#000000">data_final</text>
<polygon fill="none" stroke="#000000" points="167,-103.2 167,-125.2 386,-125.2 386,-103.2 167,-103.2"/>
<text text-anchor="start" x="170" y="-110.9" font-family="Helvetica,sans-Serif" font-size="11.00" fill="#000000">varchar[2147483647]</text>
<polygon fill="none" stroke="#000000" points="10,-81.2 10,-103.2 167,-103.2 167,-81.2 10,-81.2"/>
<text text-anchor="start" x="30" y="-88.3" font-family="Helvetica,sans-Serif" font-size="11.00" fill="#000000">observacao</text>
<polygon fill="none" stroke="#000000" points="167,-81.2 167,-103.2 386,-103.2 386,-81.2 167,-81.2"/>
<text text-anchor="start" x="170" y="-88.9" font-family="Helvetica,sans-Serif" font-size="11.00" fill="#000000">varchar[2147483647]</text>
<polygon fill="none" stroke="#000000" points="10,-59.2 10,-81.2 167,-81.2 167,-59.2 10,-59.2"/>
<text text-anchor="start" x="30" y="-66.3" font-family="Helvetica,sans-Serif" font-size="11.00" fill="#000000">dias_letivos_semana</text>
<polygon fill="none" stroke="#000000" points="167,-59.2 167,-81.2 386,-81.2 386,-59.2 167,-59.2"/>
<text text-anchor="start" x="170" y="-66.9" font-family="Helvetica,sans-Serif" font-size="11.00" fill="#000000">&quot;educacao&quot;.&quot;_diasdasemana&quot;[2147483647]</text>
<polygon fill="#ffffff" stroke="transparent" points="10,-40.2 10,-59.2 93,-59.2 93,-40.2 10,-40.2"/>
<polygon fill="none" stroke="#000000" points="10,-40.2 10,-59.2 93,-59.2 93,-40.2 10,-40.2"/>
<text text-anchor="start" x="13" y="-46.3" font-family="Helvetica,sans-Serif" font-size="11.00" fill="#000000">&lt; 0</text>
<polygon fill="#ffffff" stroke="transparent" points="93,-40.2 93,-59.2 167,-59.2 167,-40.2 93,-40.2"/>
<polygon fill="none" stroke="#000000" points="93,-40.2 93,-59.2 167,-59.2 167,-40.2 93,-40.2"/>
<text text-anchor="start" x="157.8862" y="-46.3" font-family="Helvetica,sans-Serif" font-size="11.00" fill="#000000"> &#160;</text>
<polygon fill="#ffffff" stroke="transparent" points="167,-40.2 167,-59.2 386,-59.2 386,-40.2 167,-40.2"/>
<polygon fill="none" stroke="#000000" points="167,-40.2 167,-59.2 386,-59.2 386,-40.2 167,-40.2"/>
<text text-anchor="start" x="367.4053" y="-46.3" font-family="Helvetica,sans-Serif" font-size="11.00" fill="#000000">0 &gt;</text>
<polygon fill="none" stroke="#000000" stroke-width="2" points="9,-39.2 9,-391.2 387,-391.2 387,-39.2 9,-39.2"/>
</a>
</g>
</g>
</g>
</svg>
