<?xml version="1.0" encoding="UTF-8" standalone="no"?>
<!DOCTYPE svg PUBLIC "-//W3C//DTD SVG 1.1//EN"
 "http://www.w3.org/Graphics/SVG/1.1/DTD/svg11.dtd">
<!-- Generated by graphviz version 2.40.1 (20161225.0304)
 -->
<!-- Title: oneDegreeRelationshipsDiagramImplied Pages: 1 -->
<svg width="682pt" height="514pt"
 viewBox="0.00 0.00 682.00 514.20" xmlns="http://www.w3.org/2000/svg" xmlns:xlink="http://www.w3.org/1999/xlink">
<g id="graph0" class="graph" transform="scale(1 1) rotate(0) translate(4 510.2)">
<title>oneDegreeRelationshipsDiagramImplied</title>
<polygon fill="#ffffff" stroke="transparent" points="-4,4 -4,-510.2 678,-510.2 678,4 -4,4"/>
<text text-anchor="middle" x="72.4936" y="-7.3" font-family="Helvetica,sans-Serif" font-size="11.00" fill="#000000">Generated by SchemaSpy</text>
<!-- calendarios_eventos -->
<g id="node1" class="node">
<title>calendarios_eventos</title>
<g id="a_node1"><a xlink:href="../../tables/calendarios_eventos.html" xlink:title="calendarios_eventos" target="_top">
<polygon fill="#ffffff" stroke="transparent" points="286,-38.2 286,-502.2 666,-502.2 666,-38.2 286,-38.2"/>
<polygon fill="#f5f5f5" stroke="transparent" points="288,-477.2 288,-500.2 664,-500.2 664,-477.2 288,-477.2"/>
<polygon fill="none" stroke="#000000" points="288,-477.2 288,-500.2 664,-500.2 664,-477.2 288,-477.2"/>
<text text-anchor="start" x="293" y="-485.8" font-family="Helvetica,sans-Serif" font-weight="bold" font-size="11.00" fill="#000000">calendarios_eventos</text>
<text text-anchor="start" x="629.0437" y="-485.3" font-family="Helvetica,sans-Serif" font-size="11.00" fill="#000000">[table]</text>
<polygon fill="none" stroke="#000000" points="288,-455.2 288,-477.2 441,-477.2 441,-455.2 288,-455.2"/>
<text text-anchor="start" x="308" y="-462.3" font-family="Helvetica,sans-Serif" font-size="11.00" fill="#000000">sistema</text>
<polygon fill="none" stroke="#000000" points="441,-455.2 441,-477.2 664,-477.2 664,-455.2 441,-455.2"/>
<text text-anchor="start" x="444" y="-462.9" font-family="Helvetica,sans-Serif" font-size="11.00" fill="#000000">int4[10]</text>
<polygon fill="none" stroke="#000000" points="288,-433.2 288,-455.2 441,-455.2 441,-433.2 288,-433.2"/>
<text text-anchor="start" x="308" y="-440.3" font-family="Helvetica,sans-Serif" font-size="11.00" fill="#000000">tipo_registro</text>
<polygon fill="none" stroke="#000000" points="441,-433.2 441,-455.2 664,-455.2 664,-433.2 441,-433.2"/>
<text text-anchor="start" x="444" y="-440.9" font-family="Helvetica,sans-Serif" font-size="11.00" fill="#000000">text[2147483647]</text>
<polygon fill="none" stroke="#000000" points="288,-411.2 288,-433.2 441,-433.2 441,-411.2 288,-411.2"/>
<text text-anchor="start" x="308" y="-418.3" font-family="Helvetica,sans-Serif" font-size="11.00" fill="#000000">id_integracao</text>
<polygon fill="none" stroke="#000000" points="441,-411.2 441,-433.2 664,-433.2 664,-411.2 441,-411.2"/>
<text text-anchor="start" x="444" y="-418.9" font-family="Helvetica,sans-Serif" font-size="11.00" fill="#000000">varchar[2147483647]</text>
<polygon fill="none" stroke="#000000" points="288,-389.2 288,-411.2 441,-411.2 441,-389.2 288,-389.2"/>
<text text-anchor="start" x="308" y="-396.3" font-family="Helvetica,sans-Serif" font-size="11.00" fill="#000000">id_origem</text>
<polygon fill="none" stroke="#000000" points="441,-389.2 441,-411.2 664,-411.2 664,-389.2 441,-389.2"/>
<text text-anchor="start" x="444" y="-396.9" font-family="Helvetica,sans-Serif" font-size="11.00" fill="#000000">int4[10]</text>
<polygon fill="none" stroke="#000000" points="288,-367.2 288,-389.2 441,-389.2 441,-367.2 288,-367.2"/>
<text text-anchor="start" x="308" y="-374.3" font-family="Helvetica,sans-Serif" font-size="11.00" fill="#000000">id_cloud</text>
<polygon fill="none" stroke="#000000" points="441,-367.2 441,-389.2 664,-389.2 664,-367.2 441,-367.2"/>
<text text-anchor="start" x="444" y="-374.9" font-family="Helvetica,sans-Serif" font-size="11.00" fill="#000000">int4[10]</text>
<polygon fill="none" stroke="#000000" points="288,-345.2 288,-367.2 441,-367.2 441,-345.2 288,-345.2"/>
<image xlink:href="../../images/foreignKeys.png" width="11px" height="12px" preserveAspectRatio="xMinYMin meet" x="293" y="-362.2"/>
<text text-anchor="start" x="308" y="-352.3" font-family="Helvetica,sans-Serif" font-size="11.00" fill="#000000">evento_origem_id</text>
<polygon fill="none" stroke="#000000" points="441,-345.2 441,-367.2 664,-367.2 664,-345.2 441,-345.2"/>
<text text-anchor="start" x="444" y="-352.9" font-family="Helvetica,sans-Serif" font-size="11.00" fill="#000000">int4[10]</text>
<polygon fill="none" stroke="#000000" points="288,-323.2 288,-345.2 441,-345.2 441,-323.2 288,-323.2"/>
<image xlink:href="../../images/foreignKeys.png" width="11px" height="12px" preserveAspectRatio="xMinYMin meet" x="293" y="-340.2"/>
<text text-anchor="start" x="308" y="-330.3" font-family="Helvetica,sans-Serif" font-size="11.00" fill="#000000">evento_cloud_id</text>
<polygon fill="none" stroke="#000000" points="441,-323.2 441,-345.2 664,-345.2 664,-323.2 441,-323.2"/>
<text text-anchor="start" x="444" y="-330.9" font-family="Helvetica,sans-Serif" font-size="11.00" fill="#000000">int4[10]</text>
<polygon fill="none" stroke="#000000" points="288,-301.2 288,-323.2 441,-323.2 441,-301.2 288,-301.2"/>
<image xlink:href="../../images/foreignKeys.png" width="11px" height="12px" preserveAspectRatio="xMinYMin meet" x="293" y="-318.2"/>
<text text-anchor="start" x="308" y="-308.3" font-family="Helvetica,sans-Serif" font-size="11.00" fill="#000000">calendario_origem_id</text>
<polygon fill="none" stroke="#000000" points="441,-301.2 441,-323.2 664,-323.2 664,-301.2 441,-301.2"/>
<text text-anchor="start" x="444" y="-308.9" font-family="Helvetica,sans-Serif" font-size="11.00" fill="#000000">int4[10]</text>
<polygon fill="none" stroke="#000000" points="288,-279.2 288,-301.2 441,-301.2 441,-279.2 288,-279.2"/>
<image xlink:href="../../images/foreignKeys.png" width="11px" height="12px" preserveAspectRatio="xMinYMin meet" x="293" y="-296.2"/>
<text text-anchor="start" x="308" y="-286.3" font-family="Helvetica,sans-Serif" font-size="11.00" fill="#000000">calendario_cloud_id</text>
<polygon fill="none" stroke="#000000" points="441,-279.2 441,-301.2 664,-301.2 664,-279.2 441,-279.2"/>
<text text-anchor="start" x="444" y="-286.9" font-family="Helvetica,sans-Serif" font-size="11.00" fill="#000000">int4[10]</text>
<polygon fill="none" stroke="#000000" points="288,-257.2 288,-279.2 441,-279.2 441,-257.2 288,-257.2"/>
<text text-anchor="start" x="308" y="-264.3" font-family="Helvetica,sans-Serif" font-size="11.00" fill="#000000">data_inicial</text>
<polygon fill="none" stroke="#000000" points="441,-257.2 441,-279.2 664,-279.2 664,-257.2 441,-257.2"/>
<text text-anchor="start" x="444" y="-264.9" font-family="Helvetica,sans-Serif" font-size="11.00" fill="#000000">timestamp[29,6]</text>
<polygon fill="none" stroke="#000000" points="288,-235.2 288,-257.2 441,-257.2 441,-235.2 288,-235.2"/>
<text text-anchor="start" x="308" y="-242.3" font-family="Helvetica,sans-Serif" font-size="11.00" fill="#000000">data_final</text>
<polygon fill="none" stroke="#000000" points="441,-235.2 441,-257.2 664,-257.2 664,-235.2 441,-235.2"/>
<text text-anchor="start" x="444" y="-242.9" font-family="Helvetica,sans-Serif" font-size="11.00" fill="#000000">timestamp[29,6]</text>
<polygon fill="none" stroke="#000000" points="288,-213.2 288,-235.2 441,-235.2 441,-213.2 288,-213.2"/>
<text text-anchor="start" x="308" y="-220.3" font-family="Helvetica,sans-Serif" font-size="11.00" fill="#000000">dia_inteiro</text>
<polygon fill="none" stroke="#000000" points="441,-213.2 441,-235.2 664,-235.2 664,-213.2 441,-213.2"/>
<text text-anchor="start" x="444" y="-220.9" font-family="Helvetica,sans-Serif" font-size="11.00" fill="#000000">bool[1]</text>
<polygon fill="none" stroke="#000000" points="288,-191.2 288,-213.2 441,-213.2 441,-191.2 288,-191.2"/>
<text text-anchor="start" x="308" y="-198.3" font-family="Helvetica,sans-Serif" font-size="11.00" fill="#000000">obrigatorio</text>
<polygon fill="none" stroke="#000000" points="441,-191.2 441,-213.2 664,-213.2 664,-191.2 441,-191.2"/>
<text text-anchor="start" x="444" y="-198.9" font-family="Helvetica,sans-Serif" font-size="11.00" fill="#000000">bool[1]</text>
<polygon fill="none" stroke="#000000" points="288,-169.2 288,-191.2 441,-191.2 441,-169.2 288,-169.2"/>
<text text-anchor="start" x="308" y="-176.3" font-family="Helvetica,sans-Serif" font-size="11.00" fill="#000000">obrigatorio_nesta_data</text>
<polygon fill="none" stroke="#000000" points="441,-169.2 441,-191.2 664,-191.2 664,-169.2 441,-169.2"/>
<text text-anchor="start" x="444" y="-176.9" font-family="Helvetica,sans-Serif" font-size="11.00" fill="#000000">bool[1]</text>
<polygon fill="none" stroke="#000000" points="288,-147.2 288,-169.2 441,-169.2 441,-147.2 288,-147.2"/>
<text text-anchor="start" x="308" y="-154.3" font-family="Helvetica,sans-Serif" font-size="11.00" fill="#000000">letivo</text>
<polygon fill="none" stroke="#000000" points="441,-147.2 441,-169.2 664,-169.2 664,-147.2 441,-147.2"/>
<text text-anchor="start" x="444" y="-154.9" font-family="Helvetica,sans-Serif" font-size="11.00" fill="#000000">bool[1]</text>
<polygon fill="none" stroke="#000000" points="288,-125.2 288,-147.2 441,-147.2 441,-125.2 288,-125.2"/>
<text text-anchor="start" x="308" y="-132.3" font-family="Helvetica,sans-Serif" font-size="11.00" fill="#000000">trabalhado</text>
<polygon fill="none" stroke="#000000" points="441,-125.2 441,-147.2 664,-147.2 664,-125.2 441,-125.2"/>
<text text-anchor="start" x="444" y="-132.9" font-family="Helvetica,sans-Serif" font-size="11.00" fill="#000000">bool[1]</text>
<polygon fill="none" stroke="#000000" points="288,-103.2 288,-125.2 441,-125.2 441,-103.2 288,-103.2"/>
<text text-anchor="start" x="308" y="-110.3" font-family="Helvetica,sans-Serif" font-size="11.00" fill="#000000">cor</text>
<polygon fill="none" stroke="#000000" points="441,-103.2 441,-125.2 664,-125.2 664,-103.2 441,-103.2"/>
<text text-anchor="start" x="444" y="-110.9" font-family="Helvetica,sans-Serif" font-size="11.00" fill="#000000">&quot;educacao&quot;.&quot;coreseventos&quot;[2147483647]</text>
<polygon fill="none" stroke="#000000" points="288,-81.2 288,-103.2 441,-103.2 441,-81.2 288,-81.2"/>
<text text-anchor="start" x="308" y="-88.3" font-family="Helvetica,sans-Serif" font-size="11.00" fill="#000000">publico_alvo</text>
<polygon fill="none" stroke="#000000" points="441,-81.2 441,-103.2 664,-103.2 664,-81.2 441,-81.2"/>
<text text-anchor="start" x="443.5104" y="-88.9" font-family="Helvetica,sans-Serif" font-size="11.00" fill="#000000">&quot;educacao&quot;.&quot;_tipospublicoalvo&quot;[2147483647]</text>
<polygon fill="none" stroke="#000000" points="288,-59.2 288,-81.2 441,-81.2 441,-59.2 288,-59.2"/>
<image xlink:href="../../images/foreignKeys.png" width="11px" height="12px" preserveAspectRatio="xMinYMin meet" x="293" y="-76.2"/>
<text text-anchor="start" x="308" y="-66.3" font-family="Helvetica,sans-Serif" font-size="11.00" fill="#000000">aceite_id</text>
<polygon fill="none" stroke="#000000" points="441,-59.2 441,-81.2 664,-81.2 664,-59.2 441,-59.2"/>
<text text-anchor="start" x="444" y="-66.9" font-family="Helvetica,sans-Serif" font-size="11.00" fill="#000000">int4[10]</text>
<polygon fill="#ffffff" stroke="transparent" points="288,-40.2 288,-59.2 369,-59.2 369,-40.2 288,-40.2"/>
<polygon fill="none" stroke="#000000" points="288,-40.2 288,-59.2 369,-59.2 369,-40.2 288,-40.2"/>
<text text-anchor="start" x="291" y="-46.3" font-family="Helvetica,sans-Serif" font-size="11.00" fill="#000000">&lt; 5</text>
<polygon fill="#ffffff" stroke="transparent" points="369,-40.2 369,-59.2 441,-59.2 441,-40.2 369,-40.2"/>
<polygon fill="none" stroke="#000000" points="369,-40.2 369,-59.2 441,-59.2 441,-40.2 369,-40.2"/>
<text text-anchor="start" x="431.8862" y="-46.3" font-family="Helvetica,sans-Serif" font-size="11.00" fill="#000000"> &#160;</text>
<polygon fill="#ffffff" stroke="transparent" points="441,-40.2 441,-59.2 664,-59.2 664,-40.2 441,-40.2"/>
<polygon fill="none" stroke="#000000" points="441,-40.2 441,-59.2 664,-59.2 664,-40.2 441,-40.2"/>
<text text-anchor="start" x="645.4053" y="-46.3" font-family="Helvetica,sans-Serif" font-size="11.00" fill="#000000">0 &gt;</text>
<polygon fill="none" stroke="#000000" stroke-width="2" points="287,-39.2 287,-501.2 665,-501.2 665,-39.2 287,-39.2"/>
</a>
</g>
</g>
<!-- inscricao_lista_espera_situacoes -->
<g id="node2" class="node">
<title>inscricao_lista_espera_situacoes</title>
<g id="a_node2"><a xlink:href="../../tables/inscricao_lista_espera_situacoes.html" xlink:title="inscricao_lista_espera_situacoes" target="_top">
<polygon fill="#ffffff" stroke="transparent" points="8,-263.7 8,-346.7 237,-346.7 237,-263.7 8,-263.7"/>
<polygon fill="#f5f5f5" stroke="transparent" points="8.5,-323.2 8.5,-346.2 237.5,-346.2 237.5,-323.2 8.5,-323.2"/>
<polygon fill="none" stroke="#000000" points="8.5,-323.2 8.5,-346.2 237.5,-346.2 237.5,-323.2 8.5,-323.2"/>
<text text-anchor="start" x="13.5" y="-331.8" font-family="Helvetica,sans-Serif" font-weight="bold" font-size="11.00" fill="#000000">inscricao_lista_espera_situacoes</text>
<text text-anchor="start" x="203.0219" y="-331.3" font-family="Helvetica,sans-Serif" font-size="11.00" fill="#000000">[table]</text>
<polygon fill="none" stroke="#000000" points="8.5,-301.2 8.5,-323.2 237.5,-323.2 237.5,-301.2 8.5,-301.2"/>
<image xlink:href="../../images/primaryKeys.png" width="11px" height="12px" preserveAspectRatio="xMinYMin meet" x="13.5" y="-318.2"/>
<text text-anchor="start" x="37.5" y="-308.3" font-family="Helvetica,sans-Serif" font-size="11.00" fill="#000000">id</text>
<polygon fill="none" stroke="#000000" points="8.5,-282.2 8.5,-301.2 237.5,-301.2 237.5,-282.2 8.5,-282.2"/>
<text text-anchor="start" x="11.5" y="-288.3" font-family="Helvetica,sans-Serif" font-size="11.00" fill="#000000">...</text>
<polygon fill="#ffffff" stroke="transparent" points="8.5,-263.2 8.5,-282.2 106.5,-282.2 106.5,-263.2 8.5,-263.2"/>
<polygon fill="none" stroke="#000000" points="8.5,-263.2 8.5,-282.2 106.5,-282.2 106.5,-263.2 8.5,-263.2"/>
<text text-anchor="start" x="11.5" y="-269.3" font-family="Helvetica,sans-Serif" font-size="11.00" fill="#000000"> &#160;</text>
<polygon fill="#ffffff" stroke="transparent" points="106.5,-263.2 106.5,-282.2 161.5,-282.2 161.5,-263.2 106.5,-263.2"/>
<polygon fill="none" stroke="#000000" points="106.5,-263.2 106.5,-282.2 161.5,-282.2 161.5,-263.2 106.5,-263.2"/>
<text text-anchor="start" x="152.3862" y="-269.3" font-family="Helvetica,sans-Serif" font-size="11.00" fill="#000000"> &#160;</text>
<polygon fill="#ffffff" stroke="transparent" points="161.5,-263.2 161.5,-282.2 237.5,-282.2 237.5,-263.2 161.5,-263.2"/>
<polygon fill="none" stroke="#000000" points="161.5,-263.2 161.5,-282.2 237.5,-282.2 237.5,-263.2 161.5,-263.2"/>
<text text-anchor="start" x="206.6755" y="-269.3" font-family="Helvetica,sans-Serif" font-size="11.00" fill="#000000">596 &gt;</text>
</a>
</g>
</g>
<!-- calendarios_eventos&#45;&gt;inscricao_lista_espera_situacoes -->
<g id="edge1" class="edge">
<title>calendarios_eventos:w&#45;&gt;inscricao_lista_espera_situacoes:e</title>
<path fill="none" stroke="#000000" stroke-dasharray="5,2" d="M273.3478,-72.0088C194.5967,-94.1541 341.793,-312.2 237.5,-312.2"/>
<polygon fill="#000000" stroke="#000000" points="280.0603,-71.1802 288.4411,-73.7729 284.0301,-70.6901 288,-70.2 288,-70.2 288,-70.2 284.0301,-70.6901 287.5589,-66.6271 280.0603,-71.1802 280.0603,-71.1802"/>
<ellipse fill="none" stroke="#000000" cx="276.8844" cy="-71.5723" rx="3.2" ry="3.2"/>
</g>
<!-- calendarios_eventos&#45;&gt;inscricao_lista_espera_situacoes -->
<g id="edge2" class="edge">
<title>calendarios_eventos:w&#45;&gt;inscricao_lista_espera_situacoes:e</title>
<path fill="none" stroke="#000000" stroke-dasharray="5,2" d="M273.5981,-293.4462C261.4282,-299.5658 256.0526,-312.2 237.5,-312.2"/>
<polygon fill="#000000" stroke="#000000" points="280.1958,-291.9591 288.7916,-293.7119 284.0979,-291.0796 288,-290.2 288,-290.2 288,-290.2 284.0979,-291.0796 287.2084,-286.6881 280.1958,-291.9591 280.1958,-291.9591"/>
<ellipse fill="none" stroke="#000000" cx="277.0741" cy="-292.6627" rx="3.2" ry="3.2"/>
</g>
<!-- calendarios_eventos&#45;&gt;inscricao_lista_espera_situacoes -->
<g id="edge3" class="edge">
<title>calendarios_eventos:w&#45;&gt;inscricao_lista_espera_situacoes:e</title>
<path fill="none" stroke="#000000" stroke-dasharray="5,2" d="M273.4203,-312.2C261.5435,-312.2 254.158,-312.2 237.5,-312.2"/>
<polygon fill="#000000" stroke="#000000" points="280,-312.2001 288,-315.8 284,-312.2 288,-312.2 288,-312.2 288,-312.2 284,-312.2 288,-308.6 280,-312.2001 280,-312.2001"/>
<ellipse fill="none" stroke="#000000" cx="276.8" cy="-312.2001" rx="3.2" ry="3.2"/>
</g>
<!-- calendarios_eventos&#45;&gt;inscricao_lista_espera_situacoes -->
<g id="edge4" class="edge">
<title>calendarios_eventos:w&#45;&gt;inscricao_lista_espera_situacoes:e</title>
<path fill="none" stroke="#000000" stroke-dasharray="5,2" d="M273.5981,-330.9538C261.4282,-324.8342 256.0526,-312.2 237.5,-312.2"/>
<polygon fill="#000000" stroke="#000000" points="280.1958,-332.4409 287.2084,-337.7119 284.0979,-333.3204 288,-334.2 288,-334.2 288,-334.2 284.0979,-333.3204 288.7916,-330.6881 280.1958,-332.4409 280.1958,-332.4409"/>
<ellipse fill="none" stroke="#000000" cx="277.0741" cy="-331.7373" rx="3.2" ry="3.2"/>
</g>
<!-- calendarios_eventos&#45;&gt;inscricao_lista_espera_situacoes -->
<g id="edge5" class="edge">
<title>calendarios_eventos:w&#45;&gt;inscricao_lista_espera_situacoes:e</title>
<path fill="none" stroke="#000000" stroke-dasharray="5,2" d="M274.0126,-351.4912C260.3016,-340.1404 261.2219,-312.2 237.5,-312.2"/>
<polygon fill="#000000" stroke="#000000" points="280.4181,-353.6476 286.8514,-359.6119 284.209,-354.9238 288,-356.2 288,-356.2 288,-356.2 284.209,-354.9238 289.1486,-352.7881 280.4181,-353.6476 280.4181,-353.6476"/>
<ellipse fill="none" stroke="#000000" cx="277.3853" cy="-352.6266" rx="3.2" ry="3.2"/>
</g>
</g>
</svg>
