<?xml version="1.0" encoding="UTF-8" standalone="no"?>
<!DOCTYPE svg PUBLIC "-//W3C//DTD SVG 1.1//EN"
 "http://www.w3.org/Graphics/SVG/1.1/DTD/svg11.dtd">
<!-- Generated by graphviz version 2.40.1 (20161225.0304)
 -->
<!-- Title: oneDegreeRelationshipsDiagram Pages: 1 -->
<svg width="453pt" height="470pt"
 viewBox="0.00 0.00 453.00 470.20" xmlns="http://www.w3.org/2000/svg" xmlns:xlink="http://www.w3.org/1999/xlink">
<g id="graph0" class="graph" transform="scale(1 1) rotate(0) translate(4 466.2)">
<title>oneDegreeRelationshipsDiagram</title>
<polygon fill="#ffffff" stroke="transparent" points="-4,4 -4,-466.2 449,-466.2 449,4 -4,4"/>
<text text-anchor="middle" x="72.4936" y="-7.3" font-family="Helvetica,sans-Serif" font-size="11.00" fill="#000000">Generated by SchemaSpy</text>
<!-- calendarios_estabelecimentos -->
<g id="node1" class="node">
<title>calendarios_estabelecimentos</title>
<g id="a_node1"><a xlink:href="../../tables/calendarios_estabelecimentos.html" xlink:title="calendarios_estabelecimentos" target="_top">
<polygon fill="#ffffff" stroke="transparent" points="8,-38.2 8,-458.2 437,-458.2 437,-38.2 8,-38.2"/>
<polygon fill="#f5f5f5" stroke="transparent" points="10.5,-433.2 10.5,-456.2 435.5,-456.2 435.5,-433.2 10.5,-433.2"/>
<polygon fill="none" stroke="#000000" points="10.5,-433.2 10.5,-456.2 435.5,-456.2 435.5,-433.2 10.5,-433.2"/>
<text text-anchor="start" x="15.5" y="-441.8" font-family="Helvetica,sans-Serif" font-weight="bold" font-size="11.00" fill="#000000">calendarios_estabelecimentos</text>
<text text-anchor="start" x="400.5437" y="-441.3" font-family="Helvetica,sans-Serif" font-size="11.00" fill="#000000">[table]</text>
<polygon fill="none" stroke="#000000" points="10.5,-411.2 10.5,-433.2 218.5,-433.2 218.5,-411.2 10.5,-411.2"/>
<text text-anchor="start" x="30.5" y="-418.3" font-family="Helvetica,sans-Serif" font-size="11.00" fill="#000000">sistema</text>
<polygon fill="none" stroke="#000000" points="218.5,-411.2 218.5,-433.2 435.5,-433.2 435.5,-411.2 218.5,-411.2"/>
<text text-anchor="start" x="221.5" y="-418.9" font-family="Helvetica,sans-Serif" font-size="11.00" fill="#000000">int4[10]</text>
<polygon fill="none" stroke="#000000" points="10.5,-389.2 10.5,-411.2 218.5,-411.2 218.5,-389.2 10.5,-389.2"/>
<text text-anchor="start" x="30.5" y="-396.3" font-family="Helvetica,sans-Serif" font-size="11.00" fill="#000000">tipo_registro</text>
<polygon fill="none" stroke="#000000" points="218.5,-389.2 218.5,-411.2 435.5,-411.2 435.5,-389.2 218.5,-389.2"/>
<text text-anchor="start" x="221.5" y="-396.9" font-family="Helvetica,sans-Serif" font-size="11.00" fill="#000000">text[2147483647]</text>
<polygon fill="none" stroke="#000000" points="10.5,-367.2 10.5,-389.2 218.5,-389.2 218.5,-367.2 10.5,-367.2"/>
<text text-anchor="start" x="30.5" y="-374.3" font-family="Helvetica,sans-Serif" font-size="11.00" fill="#000000">id_integracao</text>
<polygon fill="none" stroke="#000000" points="218.5,-367.2 218.5,-389.2 435.5,-389.2 435.5,-367.2 218.5,-367.2"/>
<text text-anchor="start" x="221.5" y="-374.9" font-family="Helvetica,sans-Serif" font-size="11.00" fill="#000000">varchar[2147483647]</text>
<polygon fill="none" stroke="#000000" points="10.5,-345.2 10.5,-367.2 218.5,-367.2 218.5,-345.2 10.5,-345.2"/>
<text text-anchor="start" x="30.5" y="-352.3" font-family="Helvetica,sans-Serif" font-size="11.00" fill="#000000">id_origem</text>
<polygon fill="none" stroke="#000000" points="218.5,-345.2 218.5,-367.2 435.5,-367.2 435.5,-345.2 218.5,-345.2"/>
<text text-anchor="start" x="221.5" y="-352.9" font-family="Helvetica,sans-Serif" font-size="11.00" fill="#000000">int4[10]</text>
<polygon fill="none" stroke="#000000" points="10.5,-323.2 10.5,-345.2 218.5,-345.2 218.5,-323.2 10.5,-323.2"/>
<text text-anchor="start" x="30.5" y="-330.3" font-family="Helvetica,sans-Serif" font-size="11.00" fill="#000000">id_cloud</text>
<polygon fill="none" stroke="#000000" points="218.5,-323.2 218.5,-345.2 435.5,-345.2 435.5,-323.2 218.5,-323.2"/>
<text text-anchor="start" x="221.5" y="-330.9" font-family="Helvetica,sans-Serif" font-size="11.00" fill="#000000">int4[10]</text>
<polygon fill="none" stroke="#000000" points="10.5,-301.2 10.5,-323.2 218.5,-323.2 218.5,-301.2 10.5,-301.2"/>
<image xlink:href="../../images/foreignKeys.png" width="11px" height="12px" preserveAspectRatio="xMinYMin meet" x="15.5" y="-318.2"/>
<text text-anchor="start" x="30.5" y="-308.3" font-family="Helvetica,sans-Serif" font-size="11.00" fill="#000000">ano_letivo_origem_id</text>
<polygon fill="none" stroke="#000000" points="218.5,-301.2 218.5,-323.2 435.5,-323.2 435.5,-301.2 218.5,-301.2"/>
<text text-anchor="start" x="221.5" y="-308.9" font-family="Helvetica,sans-Serif" font-size="11.00" fill="#000000">int4[10]</text>
<polygon fill="none" stroke="#000000" points="10.5,-279.2 10.5,-301.2 218.5,-301.2 218.5,-279.2 10.5,-279.2"/>
<image xlink:href="../../images/foreignKeys.png" width="11px" height="12px" preserveAspectRatio="xMinYMin meet" x="15.5" y="-296.2"/>
<text text-anchor="start" x="30.5" y="-286.3" font-family="Helvetica,sans-Serif" font-size="11.00" fill="#000000">ano_letivo_cloud_id</text>
<polygon fill="none" stroke="#000000" points="218.5,-279.2 218.5,-301.2 435.5,-301.2 435.5,-279.2 218.5,-279.2"/>
<text text-anchor="start" x="221.5" y="-286.9" font-family="Helvetica,sans-Serif" font-size="11.00" fill="#000000">int4[10]</text>
<polygon fill="none" stroke="#000000" points="10.5,-257.2 10.5,-279.2 218.5,-279.2 218.5,-257.2 10.5,-257.2"/>
<image xlink:href="../../images/foreignKeys.png" width="11px" height="12px" preserveAspectRatio="xMinYMin meet" x="15.5" y="-274.2"/>
<text text-anchor="start" x="30.5" y="-264.3" font-family="Helvetica,sans-Serif" font-size="11.00" fill="#000000">estabelecimento_origem_id</text>
<polygon fill="none" stroke="#000000" points="218.5,-257.2 218.5,-279.2 435.5,-279.2 435.5,-257.2 218.5,-257.2"/>
<text text-anchor="start" x="221.5" y="-264.9" font-family="Helvetica,sans-Serif" font-size="11.00" fill="#000000">int4[10]</text>
<polygon fill="none" stroke="#000000" points="10.5,-235.2 10.5,-257.2 218.5,-257.2 218.5,-235.2 10.5,-235.2"/>
<image xlink:href="../../images/foreignKeys.png" width="11px" height="12px" preserveAspectRatio="xMinYMin meet" x="15.5" y="-252.2"/>
<text text-anchor="start" x="30.5" y="-242.3" font-family="Helvetica,sans-Serif" font-size="11.00" fill="#000000">estabelecimento_cloud_id</text>
<polygon fill="none" stroke="#000000" points="218.5,-235.2 218.5,-257.2 435.5,-257.2 435.5,-235.2 218.5,-235.2"/>
<text text-anchor="start" x="221.5" y="-242.9" font-family="Helvetica,sans-Serif" font-size="11.00" fill="#000000">int4[10]</text>
<polygon fill="none" stroke="#000000" points="10.5,-213.2 10.5,-235.2 218.5,-235.2 218.5,-213.2 10.5,-213.2"/>
<image xlink:href="../../images/foreignKeys.png" width="11px" height="12px" preserveAspectRatio="xMinYMin meet" x="15.5" y="-230.2"/>
<text text-anchor="start" x="30.5" y="-220.3" font-family="Helvetica,sans-Serif" font-size="11.00" fill="#000000">calendario_secretaria_origem_id</text>
<polygon fill="none" stroke="#000000" points="218.5,-213.2 218.5,-235.2 435.5,-235.2 435.5,-213.2 218.5,-213.2"/>
<text text-anchor="start" x="221.5" y="-220.9" font-family="Helvetica,sans-Serif" font-size="11.00" fill="#000000">int4[10]</text>
<polygon fill="none" stroke="#000000" points="10.5,-191.2 10.5,-213.2 218.5,-213.2 218.5,-191.2 10.5,-191.2"/>
<image xlink:href="../../images/foreignKeys.png" width="11px" height="12px" preserveAspectRatio="xMinYMin meet" x="15.5" y="-208.2"/>
<text text-anchor="start" x="30.5" y="-198.3" font-family="Helvetica,sans-Serif" font-size="11.00" fill="#000000">calendario_secretaria_cloud_id</text>
<polygon fill="none" stroke="#000000" points="218.5,-191.2 218.5,-213.2 435.5,-213.2 435.5,-191.2 218.5,-191.2"/>
<text text-anchor="start" x="221.5" y="-198.9" font-family="Helvetica,sans-Serif" font-size="11.00" fill="#000000">int4[10]</text>
<polygon fill="none" stroke="#000000" points="10.5,-169.2 10.5,-191.2 218.5,-191.2 218.5,-169.2 10.5,-169.2"/>
<image xlink:href="../../images/foreignKeys.png" width="11px" height="12px" preserveAspectRatio="xMinYMin meet" x="15.5" y="-186.2"/>
<text text-anchor="start" x="30.5" y="-176.3" font-family="Helvetica,sans-Serif" font-size="11.00" fill="#000000">calendario_origem_id</text>
<polygon fill="none" stroke="#000000" points="218.5,-169.2 218.5,-191.2 435.5,-191.2 435.5,-169.2 218.5,-169.2"/>
<text text-anchor="start" x="221.5" y="-176.9" font-family="Helvetica,sans-Serif" font-size="11.00" fill="#000000">int4[10]</text>
<polygon fill="none" stroke="#000000" points="10.5,-147.2 10.5,-169.2 218.5,-169.2 218.5,-147.2 10.5,-147.2"/>
<image xlink:href="../../images/foreignKeys.png" width="11px" height="12px" preserveAspectRatio="xMinYMin meet" x="15.5" y="-164.2"/>
<text text-anchor="start" x="30.5" y="-154.3" font-family="Helvetica,sans-Serif" font-size="11.00" fill="#000000">calendario_cloud_id</text>
<polygon fill="none" stroke="#000000" points="218.5,-147.2 218.5,-169.2 435.5,-169.2 435.5,-147.2 218.5,-147.2"/>
<text text-anchor="start" x="221.5" y="-154.9" font-family="Helvetica,sans-Serif" font-size="11.00" fill="#000000">int4[10]</text>
<polygon fill="none" stroke="#000000" points="10.5,-125.2 10.5,-147.2 218.5,-147.2 218.5,-125.2 10.5,-125.2"/>
<text text-anchor="start" x="30.5" y="-132.3" font-family="Helvetica,sans-Serif" font-size="11.00" fill="#000000">data_inicial</text>
<polygon fill="none" stroke="#000000" points="218.5,-125.2 218.5,-147.2 435.5,-147.2 435.5,-125.2 218.5,-125.2"/>
<text text-anchor="start" x="221.5" y="-132.9" font-family="Helvetica,sans-Serif" font-size="11.00" fill="#000000">varchar[2147483647]</text>
<polygon fill="none" stroke="#000000" points="10.5,-103.2 10.5,-125.2 218.5,-125.2 218.5,-103.2 10.5,-103.2"/>
<text text-anchor="start" x="30.5" y="-110.3" font-family="Helvetica,sans-Serif" font-size="11.00" fill="#000000">data_final</text>
<polygon fill="none" stroke="#000000" points="218.5,-103.2 218.5,-125.2 435.5,-125.2 435.5,-103.2 218.5,-103.2"/>
<text text-anchor="start" x="221.5" y="-110.9" font-family="Helvetica,sans-Serif" font-size="11.00" fill="#000000">varchar[2147483647]</text>
<polygon fill="none" stroke="#000000" points="10.5,-81.2 10.5,-103.2 218.5,-103.2 218.5,-81.2 10.5,-81.2"/>
<text text-anchor="start" x="30.5" y="-88.3" font-family="Helvetica,sans-Serif" font-size="11.00" fill="#000000">observacao</text>
<polygon fill="none" stroke="#000000" points="218.5,-81.2 218.5,-103.2 435.5,-103.2 435.5,-81.2 218.5,-81.2"/>
<text text-anchor="start" x="221.5" y="-88.9" font-family="Helvetica,sans-Serif" font-size="11.00" fill="#000000">varchar[2147483647]</text>
<polygon fill="none" stroke="#000000" points="10.5,-59.2 10.5,-81.2 218.5,-81.2 218.5,-59.2 10.5,-59.2"/>
<text text-anchor="start" x="30.5" y="-66.3" font-family="Helvetica,sans-Serif" font-size="11.00" fill="#000000">dias_letivos_semana</text>
<polygon fill="none" stroke="#000000" points="218.5,-59.2 218.5,-81.2 435.5,-81.2 435.5,-59.2 218.5,-59.2"/>
<text text-anchor="start" x="221.3692" y="-66.9" font-family="Helvetica,sans-Serif" font-size="11.00" fill="#000000">&quot;educacao&quot;.&quot;_diasdasemana&quot;[2147483647]</text>
<polygon fill="#ffffff" stroke="transparent" points="10.5,-40.2 10.5,-59.2 118.5,-59.2 118.5,-40.2 10.5,-40.2"/>
<polygon fill="none" stroke="#000000" points="10.5,-40.2 10.5,-59.2 118.5,-59.2 118.5,-40.2 10.5,-40.2"/>
<text text-anchor="start" x="13.5" y="-46.3" font-family="Helvetica,sans-Serif" font-size="11.00" fill="#000000">&lt; 0</text>
<polygon fill="#ffffff" stroke="transparent" points="118.5,-40.2 118.5,-59.2 218.5,-59.2 218.5,-40.2 118.5,-40.2"/>
<polygon fill="none" stroke="#000000" points="118.5,-40.2 118.5,-59.2 218.5,-59.2 218.5,-40.2 118.5,-40.2"/>
<text text-anchor="start" x="209.3862" y="-46.3" font-family="Helvetica,sans-Serif" font-size="11.00" fill="#000000"> &#160;</text>
<polygon fill="#ffffff" stroke="transparent" points="218.5,-40.2 218.5,-59.2 435.5,-59.2 435.5,-40.2 218.5,-40.2"/>
<polygon fill="none" stroke="#000000" points="218.5,-40.2 218.5,-59.2 435.5,-59.2 435.5,-40.2 218.5,-40.2"/>
<text text-anchor="start" x="416.9053" y="-46.3" font-family="Helvetica,sans-Serif" font-size="11.00" fill="#000000">0 &gt;</text>
<polygon fill="none" stroke="#000000" stroke-width="2" points="9,-39.2 9,-457.2 436,-457.2 436,-39.2 9,-39.2"/>
</a>
</g>
</g>
</g>
</svg>
