<?xml version="1.0" encoding="UTF-8" standalone="no"?>
<!DOCTYPE svg PUBLIC "-//W3C//DTD SVG 1.1//EN"
 "http://www.w3.org/Graphics/SVG/1.1/DTD/svg11.dtd">
<!-- Generated by graphviz version 2.40.1 (20161225.0304)
 -->
<!-- Title: oneDegreeRelationshipsDiagramImplied Pages: 1 -->
<svg width="615pt" height="294pt"
 viewBox="0.00 0.00 615.00 294.20" xmlns="http://www.w3.org/2000/svg" xmlns:xlink="http://www.w3.org/1999/xlink">
<g id="graph0" class="graph" transform="scale(1 1) rotate(0) translate(4 290.2)">
<title>oneDegreeRelationshipsDiagramImplied</title>
<polygon fill="#ffffff" stroke="transparent" points="-4,4 -4,-290.2 611,-290.2 611,4 -4,4"/>
<text text-anchor="middle" x="72.4936" y="-7.3" font-family="Helvetica,sans-Serif" font-size="11.00" fill="#000000">Generated by SchemaSpy</text>
<!-- campos_adicionais_disciplinas -->
<g id="node1" class="node">
<title>campos_adicionais_disciplinas</title>
<g id="a_node1"><a xlink:href="../../tables/campos_adicionais_disciplinas.html" xlink:title="campos_adicionais_disciplinas" target="_top">
<polygon fill="#ffffff" stroke="transparent" points="286,-38.2 286,-282.2 599,-282.2 599,-38.2 286,-38.2"/>
<polygon fill="#f5f5f5" stroke="transparent" points="288.5,-257.2 288.5,-280.2 597.5,-280.2 597.5,-257.2 288.5,-257.2"/>
<polygon fill="none" stroke="#000000" points="288.5,-257.2 288.5,-280.2 597.5,-280.2 597.5,-257.2 288.5,-257.2"/>
<text text-anchor="start" x="293.5" y="-265.8" font-family="Helvetica,sans-Serif" font-weight="bold" font-size="11.00" fill="#000000">campos_adicionais_disciplinas</text>
<text text-anchor="start" x="562.5437" y="-265.3" font-family="Helvetica,sans-Serif" font-size="11.00" fill="#000000">[table]</text>
<polygon fill="none" stroke="#000000" points="288.5,-235.2 288.5,-257.2 488.5,-257.2 488.5,-235.2 288.5,-235.2"/>
<text text-anchor="start" x="308.5" y="-242.3" font-family="Helvetica,sans-Serif" font-size="11.00" fill="#000000">sistema</text>
<polygon fill="none" stroke="#000000" points="488.5,-235.2 488.5,-257.2 597.5,-257.2 597.5,-235.2 488.5,-235.2"/>
<text text-anchor="start" x="491.5" y="-242.9" font-family="Helvetica,sans-Serif" font-size="11.00" fill="#000000">int4[10]</text>
<polygon fill="none" stroke="#000000" points="288.5,-213.2 288.5,-235.2 488.5,-235.2 488.5,-213.2 288.5,-213.2"/>
<text text-anchor="start" x="308.5" y="-220.3" font-family="Helvetica,sans-Serif" font-size="11.00" fill="#000000">tipo_registro</text>
<polygon fill="none" stroke="#000000" points="488.5,-213.2 488.5,-235.2 597.5,-235.2 597.5,-213.2 488.5,-213.2"/>
<text text-anchor="start" x="491.5" y="-220.9" font-family="Helvetica,sans-Serif" font-size="11.00" fill="#000000">text[2147483647]</text>
<polygon fill="none" stroke="#000000" points="288.5,-191.2 288.5,-213.2 488.5,-213.2 488.5,-191.2 288.5,-191.2"/>
<text text-anchor="start" x="308.5" y="-198.3" font-family="Helvetica,sans-Serif" font-size="11.00" fill="#000000">id_integracao</text>
<polygon fill="none" stroke="#000000" points="488.5,-191.2 488.5,-213.2 597.5,-213.2 597.5,-191.2 488.5,-191.2"/>
<text text-anchor="start" x="491.0344" y="-198.9" font-family="Helvetica,sans-Serif" font-size="11.00" fill="#000000">varchar[2147483647]</text>
<polygon fill="none" stroke="#000000" points="288.5,-169.2 288.5,-191.2 488.5,-191.2 488.5,-169.2 288.5,-169.2"/>
<text text-anchor="start" x="308.5" y="-176.3" font-family="Helvetica,sans-Serif" font-size="11.00" fill="#000000">id_origem</text>
<polygon fill="none" stroke="#000000" points="488.5,-169.2 488.5,-191.2 597.5,-191.2 597.5,-169.2 488.5,-169.2"/>
<text text-anchor="start" x="491.5" y="-176.9" font-family="Helvetica,sans-Serif" font-size="11.00" fill="#000000">int4[10]</text>
<polygon fill="none" stroke="#000000" points="288.5,-147.2 288.5,-169.2 488.5,-169.2 488.5,-147.2 288.5,-147.2"/>
<text text-anchor="start" x="308.5" y="-154.3" font-family="Helvetica,sans-Serif" font-size="11.00" fill="#000000">id_cloud</text>
<polygon fill="none" stroke="#000000" points="488.5,-147.2 488.5,-169.2 597.5,-169.2 597.5,-147.2 488.5,-147.2"/>
<text text-anchor="start" x="491.5" y="-154.9" font-family="Helvetica,sans-Serif" font-size="11.00" fill="#000000">int4[10]</text>
<polygon fill="none" stroke="#000000" points="288.5,-125.2 288.5,-147.2 488.5,-147.2 488.5,-125.2 288.5,-125.2"/>
<image xlink:href="../../images/foreignKeys.png" width="11px" height="12px" preserveAspectRatio="xMinYMin meet" x="293.5" y="-142.2"/>
<text text-anchor="start" x="308.5" y="-132.3" font-family="Helvetica,sans-Serif" font-size="11.00" fill="#000000">disciplina_cloud_id</text>
<polygon fill="none" stroke="#000000" points="488.5,-125.2 488.5,-147.2 597.5,-147.2 597.5,-125.2 488.5,-125.2"/>
<text text-anchor="start" x="491.5" y="-132.9" font-family="Helvetica,sans-Serif" font-size="11.00" fill="#000000">int4[10]</text>
<polygon fill="none" stroke="#000000" points="288.5,-103.2 288.5,-125.2 488.5,-125.2 488.5,-103.2 288.5,-103.2"/>
<image xlink:href="../../images/foreignKeys.png" width="11px" height="12px" preserveAspectRatio="xMinYMin meet" x="293.5" y="-120.2"/>
<text text-anchor="start" x="308.5" y="-110.3" font-family="Helvetica,sans-Serif" font-size="11.00" fill="#000000">disciplina_origem_id</text>
<polygon fill="none" stroke="#000000" points="488.5,-103.2 488.5,-125.2 597.5,-125.2 597.5,-103.2 488.5,-103.2"/>
<text text-anchor="start" x="491.5" y="-110.9" font-family="Helvetica,sans-Serif" font-size="11.00" fill="#000000">int4[10]</text>
<polygon fill="none" stroke="#000000" points="288.5,-81.2 288.5,-103.2 488.5,-103.2 488.5,-81.2 288.5,-81.2"/>
<text text-anchor="start" x="308.5" y="-88.3" font-family="Helvetica,sans-Serif" font-size="11.00" fill="#000000">campos</text>
<polygon fill="none" stroke="#000000" points="488.5,-81.2 488.5,-103.2 597.5,-103.2 597.5,-81.2 488.5,-81.2"/>
<text text-anchor="start" x="491.5" y="-88.9" font-family="Helvetica,sans-Serif" font-size="11.00" fill="#000000">jsonb[2147483647]</text>
<polygon fill="none" stroke="#000000" points="288.5,-59.2 288.5,-81.2 488.5,-81.2 488.5,-59.2 288.5,-59.2"/>
<text text-anchor="start" x="308.5" y="-66.3" font-family="Helvetica,sans-Serif" font-size="11.00" fill="#000000">identificador_configuracao</text>
<polygon fill="none" stroke="#000000" points="488.5,-59.2 488.5,-81.2 597.5,-81.2 597.5,-59.2 488.5,-59.2"/>
<text text-anchor="start" x="491.0344" y="-66.9" font-family="Helvetica,sans-Serif" font-size="11.00" fill="#000000">varchar[2147483647]</text>
<polygon fill="#ffffff" stroke="transparent" points="288.5,-40.2 288.5,-59.2 392.5,-59.2 392.5,-40.2 288.5,-40.2"/>
<polygon fill="none" stroke="#000000" points="288.5,-40.2 288.5,-59.2 392.5,-59.2 392.5,-40.2 288.5,-40.2"/>
<text text-anchor="start" x="291.5" y="-46.3" font-family="Helvetica,sans-Serif" font-size="11.00" fill="#000000">&lt; 2</text>
<polygon fill="#ffffff" stroke="transparent" points="392.5,-40.2 392.5,-59.2 488.5,-59.2 488.5,-40.2 392.5,-40.2"/>
<polygon fill="none" stroke="#000000" points="392.5,-40.2 392.5,-59.2 488.5,-59.2 488.5,-40.2 392.5,-40.2"/>
<text text-anchor="start" x="479.3862" y="-46.3" font-family="Helvetica,sans-Serif" font-size="11.00" fill="#000000"> &#160;</text>
<polygon fill="#ffffff" stroke="transparent" points="488.5,-40.2 488.5,-59.2 597.5,-59.2 597.5,-40.2 488.5,-40.2"/>
<polygon fill="none" stroke="#000000" points="488.5,-40.2 488.5,-59.2 597.5,-59.2 597.5,-40.2 488.5,-40.2"/>
<text text-anchor="start" x="578.9053" y="-46.3" font-family="Helvetica,sans-Serif" font-size="11.00" fill="#000000">0 &gt;</text>
<polygon fill="none" stroke="#000000" stroke-width="2" points="287,-39.2 287,-281.2 598,-281.2 598,-39.2 287,-39.2"/>
</a>
</g>
</g>
<!-- inscricao_lista_espera_situacoes -->
<g id="node2" class="node">
<title>inscricao_lista_espera_situacoes</title>
<g id="a_node2"><a xlink:href="../../tables/inscricao_lista_espera_situacoes.html" xlink:title="inscricao_lista_espera_situacoes" target="_top">
<polygon fill="#ffffff" stroke="transparent" points="8,-76.7 8,-159.7 237,-159.7 237,-76.7 8,-76.7"/>
<polygon fill="#f5f5f5" stroke="transparent" points="8.5,-136.2 8.5,-159.2 237.5,-159.2 237.5,-136.2 8.5,-136.2"/>
<polygon fill="none" stroke="#000000" points="8.5,-136.2 8.5,-159.2 237.5,-159.2 237.5,-136.2 8.5,-136.2"/>
<text text-anchor="start" x="13.5" y="-144.8" font-family="Helvetica,sans-Serif" font-weight="bold" font-size="11.00" fill="#000000">inscricao_lista_espera_situacoes</text>
<text text-anchor="start" x="203.0219" y="-144.3" font-family="Helvetica,sans-Serif" font-size="11.00" fill="#000000">[table]</text>
<polygon fill="none" stroke="#000000" points="8.5,-114.2 8.5,-136.2 237.5,-136.2 237.5,-114.2 8.5,-114.2"/>
<image xlink:href="../../images/primaryKeys.png" width="11px" height="12px" preserveAspectRatio="xMinYMin meet" x="13.5" y="-131.2"/>
<text text-anchor="start" x="37.5" y="-121.3" font-family="Helvetica,sans-Serif" font-size="11.00" fill="#000000">id</text>
<polygon fill="none" stroke="#000000" points="8.5,-95.2 8.5,-114.2 237.5,-114.2 237.5,-95.2 8.5,-95.2"/>
<text text-anchor="start" x="11.5" y="-101.3" font-family="Helvetica,sans-Serif" font-size="11.00" fill="#000000">...</text>
<polygon fill="#ffffff" stroke="transparent" points="8.5,-76.2 8.5,-95.2 106.5,-95.2 106.5,-76.2 8.5,-76.2"/>
<polygon fill="none" stroke="#000000" points="8.5,-76.2 8.5,-95.2 106.5,-95.2 106.5,-76.2 8.5,-76.2"/>
<text text-anchor="start" x="11.5" y="-82.3" font-family="Helvetica,sans-Serif" font-size="11.00" fill="#000000"> &#160;</text>
<polygon fill="#ffffff" stroke="transparent" points="106.5,-76.2 106.5,-95.2 161.5,-95.2 161.5,-76.2 106.5,-76.2"/>
<polygon fill="none" stroke="#000000" points="106.5,-76.2 106.5,-95.2 161.5,-95.2 161.5,-76.2 106.5,-76.2"/>
<text text-anchor="start" x="152.3862" y="-82.3" font-family="Helvetica,sans-Serif" font-size="11.00" fill="#000000"> &#160;</text>
<polygon fill="#ffffff" stroke="transparent" points="161.5,-76.2 161.5,-95.2 237.5,-95.2 237.5,-76.2 161.5,-76.2"/>
<polygon fill="none" stroke="#000000" points="161.5,-76.2 161.5,-95.2 237.5,-95.2 237.5,-76.2 161.5,-76.2"/>
<text text-anchor="start" x="206.6755" y="-82.3" font-family="Helvetica,sans-Serif" font-size="11.00" fill="#000000">596 &gt;</text>
</a>
</g>
</g>
<!-- campos_adicionais_disciplinas&#45;&gt;inscricao_lista_espera_situacoes -->
<g id="edge1" class="edge">
<title>campos_adicionais_disciplinas:w&#45;&gt;inscricao_lista_espera_situacoes:e</title>
<path fill="none" stroke="#000000" stroke-dasharray="5,2" d="M274.0097,-134.4813C261.8398,-131.3875 254.8909,-125.2 237.5,-125.2"/>
<polygon fill="#000000" stroke="#000000" points="280.5557,-135.2576 288.0759,-139.7749 284.5278,-135.7288 288.5,-136.2 288.5,-136.2 288.5,-136.2 284.5278,-135.7288 288.9241,-132.6251 280.5557,-135.2576 280.5557,-135.2576"/>
<ellipse fill="none" stroke="#000000" cx="277.378" cy="-134.8807" rx="3.2" ry="3.2"/>
</g>
<!-- campos_adicionais_disciplinas&#45;&gt;inscricao_lista_espera_situacoes -->
<g id="edge2" class="edge">
<title>campos_adicionais_disciplinas:w&#45;&gt;inscricao_lista_espera_situacoes:e</title>
<path fill="none" stroke="#000000" stroke-dasharray="5,2" d="M274.0097,-115.9188C261.8398,-119.0125 254.8909,-125.2 237.5,-125.2"/>
<polygon fill="#000000" stroke="#000000" points="280.5557,-115.1424 288.9241,-117.7749 284.5278,-114.6712 288.5,-114.2 288.5,-114.2 288.5,-114.2 284.5278,-114.6712 288.0759,-110.6251 280.5557,-115.1424 280.5557,-115.1424"/>
<ellipse fill="none" stroke="#000000" cx="277.378" cy="-115.5193" rx="3.2" ry="3.2"/>
</g>
</g>
</svg>
