<?xml version="1.0" encoding="UTF-8" standalone="no"?>
<!DOCTYPE svg PUBLIC "-//W3C//DTD SVG 1.1//EN"
 "http://www.w3.org/Graphics/SVG/1.1/DTD/svg11.dtd">
<!-- Generated by graphviz version 2.40.1 (20161225.0304)
 -->
<!-- Title: oneDegreeRelationshipsDiagramImplied Pages: 1 -->
<svg width="651pt" height="294pt"
 viewBox="0.00 0.00 651.00 294.20" xmlns="http://www.w3.org/2000/svg" xmlns:xlink="http://www.w3.org/1999/xlink">
<g id="graph0" class="graph" transform="scale(1 1) rotate(0) translate(4 290.2)">
<title>oneDegreeRelationshipsDiagramImplied</title>
<polygon fill="#ffffff" stroke="transparent" points="-4,4 -4,-290.2 647,-290.2 647,4 -4,4"/>
<text text-anchor="middle" x="72.4936" y="-7.3" font-family="Helvetica,sans-Serif" font-size="11.00" fill="#000000">Generated by SchemaSpy</text>
<!-- campos_lista_espera -->
<g id="node1" class="node">
<title>campos_lista_espera</title>
<g id="a_node1"><a xlink:href="../../tables/campos_lista_espera.html" xlink:title="campos_lista_espera" target="_top">
<polygon fill="#ffffff" stroke="transparent" points="286,-38.2 286,-282.2 635,-282.2 635,-38.2 286,-38.2"/>
<polygon fill="#f5f5f5" stroke="transparent" points="288.5,-257.2 288.5,-280.2 633.5,-280.2 633.5,-257.2 288.5,-257.2"/>
<polygon fill="none" stroke="#000000" points="288.5,-257.2 288.5,-280.2 633.5,-280.2 633.5,-257.2 288.5,-257.2"/>
<text text-anchor="start" x="293.5" y="-265.8" font-family="Helvetica,sans-Serif" font-weight="bold" font-size="11.00" fill="#000000">campos_lista_espera</text>
<text text-anchor="start" x="598.5437" y="-265.3" font-family="Helvetica,sans-Serif" font-size="11.00" fill="#000000">[table]</text>
<polygon fill="none" stroke="#000000" points="288.5,-235.2 288.5,-257.2 524.5,-257.2 524.5,-235.2 288.5,-235.2"/>
<text text-anchor="start" x="308.5" y="-242.3" font-family="Helvetica,sans-Serif" font-size="11.00" fill="#000000">sistema</text>
<polygon fill="none" stroke="#000000" points="524.5,-235.2 524.5,-257.2 633.5,-257.2 633.5,-235.2 524.5,-235.2"/>
<text text-anchor="start" x="527.5" y="-242.9" font-family="Helvetica,sans-Serif" font-size="11.00" fill="#000000">int4[10]</text>
<polygon fill="none" stroke="#000000" points="288.5,-213.2 288.5,-235.2 524.5,-235.2 524.5,-213.2 288.5,-213.2"/>
<text text-anchor="start" x="308.5" y="-220.3" font-family="Helvetica,sans-Serif" font-size="11.00" fill="#000000">tipo_registro</text>
<polygon fill="none" stroke="#000000" points="524.5,-213.2 524.5,-235.2 633.5,-235.2 633.5,-213.2 524.5,-213.2"/>
<text text-anchor="start" x="527.5" y="-220.9" font-family="Helvetica,sans-Serif" font-size="11.00" fill="#000000">text[2147483647]</text>
<polygon fill="none" stroke="#000000" points="288.5,-191.2 288.5,-213.2 524.5,-213.2 524.5,-191.2 288.5,-191.2"/>
<text text-anchor="start" x="308.5" y="-198.3" font-family="Helvetica,sans-Serif" font-size="11.00" fill="#000000">id_origem</text>
<polygon fill="none" stroke="#000000" points="524.5,-191.2 524.5,-213.2 633.5,-213.2 633.5,-191.2 524.5,-191.2"/>
<text text-anchor="start" x="527.5" y="-198.9" font-family="Helvetica,sans-Serif" font-size="11.00" fill="#000000">int4[10]</text>
<polygon fill="none" stroke="#000000" points="288.5,-169.2 288.5,-191.2 524.5,-191.2 524.5,-169.2 288.5,-169.2"/>
<text text-anchor="start" x="308.5" y="-176.3" font-family="Helvetica,sans-Serif" font-size="11.00" fill="#000000">id_cloud</text>
<polygon fill="none" stroke="#000000" points="524.5,-169.2 524.5,-191.2 633.5,-191.2 633.5,-169.2 524.5,-169.2"/>
<text text-anchor="start" x="527.0344" y="-176.9" font-family="Helvetica,sans-Serif" font-size="11.00" fill="#000000">varchar[2147483647]</text>
<polygon fill="none" stroke="#000000" points="288.5,-147.2 288.5,-169.2 524.5,-169.2 524.5,-147.2 288.5,-147.2"/>
<text text-anchor="start" x="308.5" y="-154.3" font-family="Helvetica,sans-Serif" font-size="11.00" fill="#000000">campo_descricao</text>
<polygon fill="none" stroke="#000000" points="524.5,-147.2 524.5,-169.2 633.5,-169.2 633.5,-147.2 524.5,-147.2"/>
<text text-anchor="start" x="527.0344" y="-154.9" font-family="Helvetica,sans-Serif" font-size="11.00" fill="#000000">varchar[2147483647]</text>
<polygon fill="none" stroke="#000000" points="288.5,-125.2 288.5,-147.2 524.5,-147.2 524.5,-125.2 288.5,-125.2"/>
<text text-anchor="start" x="308.5" y="-132.3" font-family="Helvetica,sans-Serif" font-size="11.00" fill="#000000">obrigatorio</text>
<polygon fill="none" stroke="#000000" points="524.5,-125.2 524.5,-147.2 633.5,-147.2 633.5,-125.2 524.5,-125.2"/>
<text text-anchor="start" x="527.5" y="-132.9" font-family="Helvetica,sans-Serif" font-size="11.00" fill="#000000">bool[1]</text>
<polygon fill="none" stroke="#000000" points="288.5,-103.2 288.5,-125.2 524.5,-125.2 524.5,-103.2 288.5,-103.2"/>
<text text-anchor="start" x="308.5" y="-110.3" font-family="Helvetica,sans-Serif" font-size="11.00" fill="#000000">visivel</text>
<polygon fill="none" stroke="#000000" points="524.5,-103.2 524.5,-125.2 633.5,-125.2 633.5,-103.2 524.5,-103.2"/>
<text text-anchor="start" x="527.5" y="-110.9" font-family="Helvetica,sans-Serif" font-size="11.00" fill="#000000">bool[1]</text>
<polygon fill="none" stroke="#000000" points="288.5,-81.2 288.5,-103.2 524.5,-103.2 524.5,-81.2 288.5,-81.2"/>
<image xlink:href="../../images/foreignKeys.png" width="11px" height="12px" preserveAspectRatio="xMinYMin meet" x="293.5" y="-98.2"/>
<text text-anchor="start" x="308.5" y="-88.3" font-family="Helvetica,sans-Serif" font-size="11.00" fill="#000000">configuracao_lista_espera_origem_id</text>
<polygon fill="none" stroke="#000000" points="524.5,-81.2 524.5,-103.2 633.5,-103.2 633.5,-81.2 524.5,-81.2"/>
<text text-anchor="start" x="527.5" y="-88.9" font-family="Helvetica,sans-Serif" font-size="11.00" fill="#000000">int4[10]</text>
<polygon fill="none" stroke="#000000" points="288.5,-59.2 288.5,-81.2 524.5,-81.2 524.5,-59.2 288.5,-59.2"/>
<text text-anchor="start" x="308.5" y="-66.3" font-family="Helvetica,sans-Serif" font-size="11.00" fill="#000000">configuracao_lista_espera_cloud_id</text>
<polygon fill="none" stroke="#000000" points="524.5,-59.2 524.5,-81.2 633.5,-81.2 633.5,-59.2 524.5,-59.2"/>
<text text-anchor="start" x="527.0344" y="-66.9" font-family="Helvetica,sans-Serif" font-size="11.00" fill="#000000">varchar[2147483647]</text>
<polygon fill="#ffffff" stroke="transparent" points="288.5,-40.2 288.5,-59.2 410.5,-59.2 410.5,-40.2 288.5,-40.2"/>
<polygon fill="none" stroke="#000000" points="288.5,-40.2 288.5,-59.2 410.5,-59.2 410.5,-40.2 288.5,-40.2"/>
<text text-anchor="start" x="291.5" y="-46.3" font-family="Helvetica,sans-Serif" font-size="11.00" fill="#000000">&lt; 1</text>
<polygon fill="#ffffff" stroke="transparent" points="410.5,-40.2 410.5,-59.2 524.5,-59.2 524.5,-40.2 410.5,-40.2"/>
<polygon fill="none" stroke="#000000" points="410.5,-40.2 410.5,-59.2 524.5,-59.2 524.5,-40.2 410.5,-40.2"/>
<text text-anchor="start" x="515.3862" y="-46.3" font-family="Helvetica,sans-Serif" font-size="11.00" fill="#000000"> &#160;</text>
<polygon fill="#ffffff" stroke="transparent" points="524.5,-40.2 524.5,-59.2 633.5,-59.2 633.5,-40.2 524.5,-40.2"/>
<polygon fill="none" stroke="#000000" points="524.5,-40.2 524.5,-59.2 633.5,-59.2 633.5,-40.2 524.5,-40.2"/>
<text text-anchor="start" x="614.9053" y="-46.3" font-family="Helvetica,sans-Serif" font-size="11.00" fill="#000000">0 &gt;</text>
<polygon fill="none" stroke="#000000" stroke-width="2" points="287,-39.2 287,-281.2 634,-281.2 634,-39.2 287,-39.2"/>
</a>
</g>
</g>
<!-- inscricao_lista_espera_situacoes -->
<g id="node2" class="node">
<title>inscricao_lista_espera_situacoes</title>
<g id="a_node2"><a xlink:href="../../tables/inscricao_lista_espera_situacoes.html" xlink:title="inscricao_lista_espera_situacoes" target="_top">
<polygon fill="#ffffff" stroke="transparent" points="8,-43.7 8,-126.7 237,-126.7 237,-43.7 8,-43.7"/>
<polygon fill="#f5f5f5" stroke="transparent" points="8.5,-103.2 8.5,-126.2 237.5,-126.2 237.5,-103.2 8.5,-103.2"/>
<polygon fill="none" stroke="#000000" points="8.5,-103.2 8.5,-126.2 237.5,-126.2 237.5,-103.2 8.5,-103.2"/>
<text text-anchor="start" x="13.5" y="-111.8" font-family="Helvetica,sans-Serif" font-weight="bold" font-size="11.00" fill="#000000">inscricao_lista_espera_situacoes</text>
<text text-anchor="start" x="203.0219" y="-111.3" font-family="Helvetica,sans-Serif" font-size="11.00" fill="#000000">[table]</text>
<polygon fill="none" stroke="#000000" points="8.5,-81.2 8.5,-103.2 237.5,-103.2 237.5,-81.2 8.5,-81.2"/>
<image xlink:href="../../images/primaryKeys.png" width="11px" height="12px" preserveAspectRatio="xMinYMin meet" x="13.5" y="-98.2"/>
<text text-anchor="start" x="37.5" y="-88.3" font-family="Helvetica,sans-Serif" font-size="11.00" fill="#000000">id</text>
<polygon fill="none" stroke="#000000" points="8.5,-62.2 8.5,-81.2 237.5,-81.2 237.5,-62.2 8.5,-62.2"/>
<text text-anchor="start" x="11.5" y="-68.3" font-family="Helvetica,sans-Serif" font-size="11.00" fill="#000000">...</text>
<polygon fill="#ffffff" stroke="transparent" points="8.5,-43.2 8.5,-62.2 106.5,-62.2 106.5,-43.2 8.5,-43.2"/>
<polygon fill="none" stroke="#000000" points="8.5,-43.2 8.5,-62.2 106.5,-62.2 106.5,-43.2 8.5,-43.2"/>
<text text-anchor="start" x="11.5" y="-49.3" font-family="Helvetica,sans-Serif" font-size="11.00" fill="#000000"> &#160;</text>
<polygon fill="#ffffff" stroke="transparent" points="106.5,-43.2 106.5,-62.2 161.5,-62.2 161.5,-43.2 106.5,-43.2"/>
<polygon fill="none" stroke="#000000" points="106.5,-43.2 106.5,-62.2 161.5,-62.2 161.5,-43.2 106.5,-43.2"/>
<text text-anchor="start" x="152.3862" y="-49.3" font-family="Helvetica,sans-Serif" font-size="11.00" fill="#000000"> &#160;</text>
<polygon fill="#ffffff" stroke="transparent" points="161.5,-43.2 161.5,-62.2 237.5,-62.2 237.5,-43.2 161.5,-43.2"/>
<polygon fill="none" stroke="#000000" points="161.5,-43.2 161.5,-62.2 237.5,-62.2 237.5,-43.2 161.5,-43.2"/>
<text text-anchor="start" x="206.6755" y="-49.3" font-family="Helvetica,sans-Serif" font-size="11.00" fill="#000000">596 &gt;</text>
</a>
</g>
</g>
<!-- campos_lista_espera&#45;&gt;inscricao_lista_espera_situacoes -->
<g id="edge1" class="edge">
<title>campos_lista_espera:w&#45;&gt;inscricao_lista_espera_situacoes:e</title>
<path fill="none" stroke="#000000" stroke-dasharray="5,2" d="M273.776,-92.2C261.7815,-92.2 254.3229,-92.2 237.5,-92.2"/>
<polygon fill="#000000" stroke="#000000" points="280.5,-92.2001 288.5,-95.8 284.5,-92.2 288.5,-92.2 288.5,-92.2 288.5,-92.2 284.5,-92.2 288.5,-88.6 280.5,-92.2001 280.5,-92.2001"/>
<ellipse fill="none" stroke="#000000" cx="277.3" cy="-92.2001" rx="3.2" ry="3.2"/>
</g>
</g>
</svg>
