<?xml version="1.0" encoding="UTF-8" standalone="no"?>
<!DOCTYPE svg PUBLIC "-//W3C//DTD SVG 1.1//EN"
 "http://www.w3.org/Graphics/SVG/1.1/DTD/svg11.dtd">
<!-- Generated by graphviz version 2.40.1 (20161225.0304)
 -->
<!-- Title: oneDegreeRelationshipsDiagramImplied Pages: 1 -->
<svg width="570pt" height="360pt"
 viewBox="0.00 0.00 570.00 360.20" xmlns="http://www.w3.org/2000/svg" xmlns:xlink="http://www.w3.org/1999/xlink">
<g id="graph0" class="graph" transform="scale(1 1) rotate(0) translate(4 356.2)">
<title>oneDegreeRelationshipsDiagramImplied</title>
<polygon fill="#ffffff" stroke="transparent" points="-4,4 -4,-356.2 566,-356.2 566,4 -4,4"/>
<text text-anchor="middle" x="72.4936" y="-7.3" font-family="Helvetica,sans-Serif" font-size="11.00" fill="#000000">Generated by SchemaSpy</text>
<!-- cargos -->
<g id="node1" class="node">
<title>cargos</title>
<g id="a_node1"><a xlink:href="../../tables/cargos.html" xlink:title="cargos" target="_top">
<polygon fill="#ffffff" stroke="transparent" points="286,-38.2 286,-348.2 554,-348.2 554,-38.2 286,-38.2"/>
<polygon fill="#f5f5f5" stroke="transparent" points="288,-323.2 288,-346.2 552,-346.2 552,-323.2 288,-323.2"/>
<polygon fill="none" stroke="#000000" points="288,-323.2 288,-346.2 552,-346.2 552,-323.2 288,-323.2"/>
<text text-anchor="start" x="293" y="-331.8" font-family="Helvetica,sans-Serif" font-weight="bold" font-size="11.00" fill="#000000">cargos</text>
<text text-anchor="start" x="517.0437" y="-331.3" font-family="Helvetica,sans-Serif" font-size="11.00" fill="#000000">[table]</text>
<polygon fill="none" stroke="#000000" points="288,-301.2 288,-323.2 443,-323.2 443,-301.2 288,-301.2"/>
<text text-anchor="start" x="308" y="-308.3" font-family="Helvetica,sans-Serif" font-size="11.00" fill="#000000">sistema</text>
<polygon fill="none" stroke="#000000" points="443,-301.2 443,-323.2 552,-323.2 552,-301.2 443,-301.2"/>
<text text-anchor="start" x="446" y="-308.9" font-family="Helvetica,sans-Serif" font-size="11.00" fill="#000000">int4[10]</text>
<polygon fill="none" stroke="#000000" points="288,-279.2 288,-301.2 443,-301.2 443,-279.2 288,-279.2"/>
<text text-anchor="start" x="308" y="-286.3" font-family="Helvetica,sans-Serif" font-size="11.00" fill="#000000">tipo_registro</text>
<polygon fill="none" stroke="#000000" points="443,-279.2 443,-301.2 552,-301.2 552,-279.2 443,-279.2"/>
<text text-anchor="start" x="446" y="-286.9" font-family="Helvetica,sans-Serif" font-size="11.00" fill="#000000">text[2147483647]</text>
<polygon fill="none" stroke="#000000" points="288,-257.2 288,-279.2 443,-279.2 443,-257.2 288,-257.2"/>
<text text-anchor="start" x="308" y="-264.3" font-family="Helvetica,sans-Serif" font-size="11.00" fill="#000000">id_integracao</text>
<polygon fill="none" stroke="#000000" points="443,-257.2 443,-279.2 552,-279.2 552,-257.2 443,-257.2"/>
<text text-anchor="start" x="445.5344" y="-264.9" font-family="Helvetica,sans-Serif" font-size="11.00" fill="#000000">varchar[2147483647]</text>
<polygon fill="none" stroke="#000000" points="288,-235.2 288,-257.2 443,-257.2 443,-235.2 288,-235.2"/>
<text text-anchor="start" x="308" y="-242.3" font-family="Helvetica,sans-Serif" font-size="11.00" fill="#000000">id_origem</text>
<polygon fill="none" stroke="#000000" points="443,-235.2 443,-257.2 552,-257.2 552,-235.2 443,-235.2"/>
<text text-anchor="start" x="446" y="-242.9" font-family="Helvetica,sans-Serif" font-size="11.00" fill="#000000">int4[10]</text>
<polygon fill="none" stroke="#000000" points="288,-213.2 288,-235.2 443,-235.2 443,-213.2 288,-213.2"/>
<text text-anchor="start" x="308" y="-220.3" font-family="Helvetica,sans-Serif" font-size="11.00" fill="#000000">id_cloud</text>
<polygon fill="none" stroke="#000000" points="443,-213.2 443,-235.2 552,-235.2 552,-213.2 443,-213.2"/>
<text text-anchor="start" x="446" y="-220.9" font-family="Helvetica,sans-Serif" font-size="11.00" fill="#000000">int4[10]</text>
<polygon fill="none" stroke="#000000" points="288,-191.2 288,-213.2 443,-213.2 443,-191.2 288,-191.2"/>
<text text-anchor="start" x="308" y="-198.3" font-family="Helvetica,sans-Serif" font-size="11.00" fill="#000000">descricao</text>
<polygon fill="none" stroke="#000000" points="443,-191.2 443,-213.2 552,-213.2 552,-191.2 443,-191.2"/>
<text text-anchor="start" x="445.5344" y="-198.9" font-family="Helvetica,sans-Serif" font-size="11.00" fill="#000000">varchar[2147483647]</text>
<polygon fill="none" stroke="#000000" points="288,-169.2 288,-191.2 443,-191.2 443,-169.2 288,-169.2"/>
<text text-anchor="start" x="308" y="-176.3" font-family="Helvetica,sans-Serif" font-size="11.00" fill="#000000">habilitacao_merenda</text>
<polygon fill="none" stroke="#000000" points="443,-169.2 443,-191.2 552,-191.2 552,-169.2 443,-169.2"/>
<text text-anchor="start" x="446" y="-176.9" font-family="Helvetica,sans-Serif" font-size="11.00" fill="#000000">bool[1]</text>
<polygon fill="none" stroke="#000000" points="288,-147.2 288,-169.2 443,-169.2 443,-147.2 288,-147.2"/>
<text text-anchor="start" x="308" y="-154.3" font-family="Helvetica,sans-Serif" font-size="11.00" fill="#000000">habilitacao_transporte</text>
<polygon fill="none" stroke="#000000" points="443,-147.2 443,-169.2 552,-169.2 552,-147.2 443,-147.2"/>
<text text-anchor="start" x="446" y="-154.9" font-family="Helvetica,sans-Serif" font-size="11.00" fill="#000000">bool[1]</text>
<polygon fill="none" stroke="#000000" points="288,-125.2 288,-147.2 443,-147.2 443,-125.2 288,-125.2"/>
<text text-anchor="start" x="308" y="-132.3" font-family="Helvetica,sans-Serif" font-size="11.00" fill="#000000">leciona</text>
<polygon fill="none" stroke="#000000" points="443,-125.2 443,-147.2 552,-147.2 552,-125.2 443,-125.2"/>
<text text-anchor="start" x="446" y="-132.9" font-family="Helvetica,sans-Serif" font-size="11.00" fill="#000000">bool[1]</text>
<polygon fill="none" stroke="#000000" points="288,-103.2 288,-125.2 443,-125.2 443,-103.2 288,-103.2"/>
<image xlink:href="../../images/foreignKeys.png" width="11px" height="12px" preserveAspectRatio="xMinYMin meet" x="293" y="-120.2"/>
<text text-anchor="start" x="308" y="-110.3" font-family="Helvetica,sans-Serif" font-size="11.00" fill="#000000">tipo_cargo_origem_id</text>
<polygon fill="none" stroke="#000000" points="443,-103.2 443,-125.2 552,-125.2 552,-103.2 443,-103.2"/>
<text text-anchor="start" x="446" y="-110.9" font-family="Helvetica,sans-Serif" font-size="11.00" fill="#000000">int4[10]</text>
<polygon fill="none" stroke="#000000" points="288,-81.2 288,-103.2 443,-103.2 443,-81.2 288,-81.2"/>
<image xlink:href="../../images/foreignKeys.png" width="11px" height="12px" preserveAspectRatio="xMinYMin meet" x="293" y="-98.2"/>
<text text-anchor="start" x="308" y="-88.3" font-family="Helvetica,sans-Serif" font-size="11.00" fill="#000000">tipo_cargo_cloud_id</text>
<polygon fill="none" stroke="#000000" points="443,-81.2 443,-103.2 552,-103.2 552,-81.2 443,-81.2"/>
<text text-anchor="start" x="446" y="-88.9" font-family="Helvetica,sans-Serif" font-size="11.00" fill="#000000">int4[10]</text>
<polygon fill="none" stroke="#000000" points="288,-59.2 288,-81.2 443,-81.2 443,-59.2 288,-59.2"/>
<text text-anchor="start" x="308" y="-66.3" font-family="Helvetica,sans-Serif" font-size="11.00" fill="#000000">descricao_cargo_cloud</text>
<polygon fill="none" stroke="#000000" points="443,-59.2 443,-81.2 552,-81.2 552,-59.2 443,-59.2"/>
<text text-anchor="start" x="445.5344" y="-66.9" font-family="Helvetica,sans-Serif" font-size="11.00" fill="#000000">varchar[2147483647]</text>
<polygon fill="#ffffff" stroke="transparent" points="288,-40.2 288,-59.2 370,-59.2 370,-40.2 288,-40.2"/>
<polygon fill="none" stroke="#000000" points="288,-40.2 288,-59.2 370,-59.2 370,-40.2 288,-40.2"/>
<text text-anchor="start" x="291" y="-46.3" font-family="Helvetica,sans-Serif" font-size="11.00" fill="#000000">&lt; 2</text>
<polygon fill="#ffffff" stroke="transparent" points="370,-40.2 370,-59.2 443,-59.2 443,-40.2 370,-40.2"/>
<polygon fill="none" stroke="#000000" points="370,-40.2 370,-59.2 443,-59.2 443,-40.2 370,-40.2"/>
<text text-anchor="start" x="433.8862" y="-46.3" font-family="Helvetica,sans-Serif" font-size="11.00" fill="#000000"> &#160;</text>
<polygon fill="#ffffff" stroke="transparent" points="443,-40.2 443,-59.2 552,-59.2 552,-40.2 443,-40.2"/>
<polygon fill="none" stroke="#000000" points="443,-40.2 443,-59.2 552,-59.2 552,-40.2 443,-40.2"/>
<text text-anchor="start" x="533.4053" y="-46.3" font-family="Helvetica,sans-Serif" font-size="11.00" fill="#000000">0 &gt;</text>
<polygon fill="none" stroke="#000000" stroke-width="2" points="287,-39.2 287,-347.2 553,-347.2 553,-39.2 287,-39.2"/>
</a>
</g>
</g>
<!-- inscricao_lista_espera_situacoes -->
<g id="node2" class="node">
<title>inscricao_lista_espera_situacoes</title>
<g id="a_node2"><a xlink:href="../../tables/inscricao_lista_espera_situacoes.html" xlink:title="inscricao_lista_espera_situacoes" target="_top">
<polygon fill="#ffffff" stroke="transparent" points="8,-54.7 8,-137.7 237,-137.7 237,-54.7 8,-54.7"/>
<polygon fill="#f5f5f5" stroke="transparent" points="8.5,-114.2 8.5,-137.2 237.5,-137.2 237.5,-114.2 8.5,-114.2"/>
<polygon fill="none" stroke="#000000" points="8.5,-114.2 8.5,-137.2 237.5,-137.2 237.5,-114.2 8.5,-114.2"/>
<text text-anchor="start" x="13.5" y="-122.8" font-family="Helvetica,sans-Serif" font-weight="bold" font-size="11.00" fill="#000000">inscricao_lista_espera_situacoes</text>
<text text-anchor="start" x="203.0219" y="-122.3" font-family="Helvetica,sans-Serif" font-size="11.00" fill="#000000">[table]</text>
<polygon fill="none" stroke="#000000" points="8.5,-92.2 8.5,-114.2 237.5,-114.2 237.5,-92.2 8.5,-92.2"/>
<image xlink:href="../../images/primaryKeys.png" width="11px" height="12px" preserveAspectRatio="xMinYMin meet" x="13.5" y="-109.2"/>
<text text-anchor="start" x="37.5" y="-99.3" font-family="Helvetica,sans-Serif" font-size="11.00" fill="#000000">id</text>
<polygon fill="none" stroke="#000000" points="8.5,-73.2 8.5,-92.2 237.5,-92.2 237.5,-73.2 8.5,-73.2"/>
<text text-anchor="start" x="11.5" y="-79.3" font-family="Helvetica,sans-Serif" font-size="11.00" fill="#000000">...</text>
<polygon fill="#ffffff" stroke="transparent" points="8.5,-54.2 8.5,-73.2 106.5,-73.2 106.5,-54.2 8.5,-54.2"/>
<polygon fill="none" stroke="#000000" points="8.5,-54.2 8.5,-73.2 106.5,-73.2 106.5,-54.2 8.5,-54.2"/>
<text text-anchor="start" x="11.5" y="-60.3" font-family="Helvetica,sans-Serif" font-size="11.00" fill="#000000"> &#160;</text>
<polygon fill="#ffffff" stroke="transparent" points="106.5,-54.2 106.5,-73.2 161.5,-73.2 161.5,-54.2 106.5,-54.2"/>
<polygon fill="none" stroke="#000000" points="106.5,-54.2 106.5,-73.2 161.5,-73.2 161.5,-54.2 106.5,-54.2"/>
<text text-anchor="start" x="152.3862" y="-60.3" font-family="Helvetica,sans-Serif" font-size="11.00" fill="#000000"> &#160;</text>
<polygon fill="#ffffff" stroke="transparent" points="161.5,-54.2 161.5,-73.2 237.5,-73.2 237.5,-54.2 161.5,-54.2"/>
<polygon fill="none" stroke="#000000" points="161.5,-54.2 161.5,-73.2 237.5,-73.2 237.5,-54.2 161.5,-54.2"/>
<text text-anchor="start" x="206.6755" y="-60.3" font-family="Helvetica,sans-Serif" font-size="11.00" fill="#000000">596 &gt;</text>
</a>
</g>
</g>
<!-- cargos&#45;&gt;inscricao_lista_espera_situacoes -->
<g id="edge1" class="edge">
<title>cargos:w&#45;&gt;inscricao_lista_espera_situacoes:e</title>
<path fill="none" stroke="#000000" stroke-dasharray="5,2" d="M273.6489,-93.9188C261.5992,-97.0125 254.728,-103.2 237.5,-103.2"/>
<polygon fill="#000000" stroke="#000000" points="280.0568,-93.1514 288.4281,-95.7745 284.0284,-92.6757 288,-92.2 288,-92.2 288,-92.2 284.0284,-92.6757 287.5719,-88.6255 280.0568,-93.1514 280.0568,-93.1514"/>
<ellipse fill="none" stroke="#000000" cx="276.8795" cy="-93.5319" rx="3.2" ry="3.2"/>
</g>
<!-- cargos&#45;&gt;inscricao_lista_espera_situacoes -->
<g id="edge2" class="edge">
<title>cargos:w&#45;&gt;inscricao_lista_espera_situacoes:e</title>
<path fill="none" stroke="#000000" stroke-dasharray="5,2" d="M273.6489,-112.4813C261.5992,-109.3875 254.728,-103.2 237.5,-103.2"/>
<polygon fill="#000000" stroke="#000000" points="280.0568,-113.2486 287.5719,-117.7745 284.0284,-113.7243 288,-114.2 288,-114.2 288,-114.2 284.0284,-113.7243 288.4281,-110.6255 280.0568,-113.2486 280.0568,-113.2486"/>
<ellipse fill="none" stroke="#000000" cx="276.8795" cy="-112.8681" rx="3.2" ry="3.2"/>
</g>
</g>
</svg>
