<?xml version="1.0" encoding="UTF-8" standalone="no"?>
<!DOCTYPE svg PUBLIC "-//W3C//DTD SVG 1.1//EN"
 "http://www.w3.org/Graphics/SVG/1.1/DTD/svg11.dtd">
<!-- Generated by graphviz version 2.40.1 (20161225.0304)
 -->
<!-- Title: oneDegreeRelationshipsDiagram Pages: 1 -->
<svg width="292pt" height="360pt"
 viewBox="0.00 0.00 292.00 360.20" xmlns="http://www.w3.org/2000/svg" xmlns:xlink="http://www.w3.org/1999/xlink">
<g id="graph0" class="graph" transform="scale(1 1) rotate(0) translate(4 356.2)">
<title>oneDegreeRelationshipsDiagram</title>
<polygon fill="#ffffff" stroke="transparent" points="-4,4 -4,-356.2 288,-356.2 288,4 -4,4"/>
<text text-anchor="middle" x="72.4936" y="-7.3" font-family="Helvetica,sans-Serif" font-size="11.00" fill="#000000">Generated by SchemaSpy</text>
<!-- cargos -->
<g id="node1" class="node">
<title>cargos</title>
<g id="a_node1"><a xlink:href="../../tables/cargos.html" xlink:title="cargos" target="_top">
<polygon fill="#ffffff" stroke="transparent" points="8,-38.2 8,-348.2 276,-348.2 276,-38.2 8,-38.2"/>
<polygon fill="#f5f5f5" stroke="transparent" points="10,-323.2 10,-346.2 274,-346.2 274,-323.2 10,-323.2"/>
<polygon fill="none" stroke="#000000" points="10,-323.2 10,-346.2 274,-346.2 274,-323.2 10,-323.2"/>
<text text-anchor="start" x="15" y="-331.8" font-family="Helvetica,sans-Serif" font-weight="bold" font-size="11.00" fill="#000000">cargos</text>
<text text-anchor="start" x="239.0437" y="-331.3" font-family="Helvetica,sans-Serif" font-size="11.00" fill="#000000">[table]</text>
<polygon fill="none" stroke="#000000" points="10,-301.2 10,-323.2 165,-323.2 165,-301.2 10,-301.2"/>
<text text-anchor="start" x="30" y="-308.3" font-family="Helvetica,sans-Serif" font-size="11.00" fill="#000000">sistema</text>
<polygon fill="none" stroke="#000000" points="165,-301.2 165,-323.2 274,-323.2 274,-301.2 165,-301.2"/>
<text text-anchor="start" x="168" y="-308.9" font-family="Helvetica,sans-Serif" font-size="11.00" fill="#000000">int4[10]</text>
<polygon fill="none" stroke="#000000" points="10,-279.2 10,-301.2 165,-301.2 165,-279.2 10,-279.2"/>
<text text-anchor="start" x="30" y="-286.3" font-family="Helvetica,sans-Serif" font-size="11.00" fill="#000000">tipo_registro</text>
<polygon fill="none" stroke="#000000" points="165,-279.2 165,-301.2 274,-301.2 274,-279.2 165,-279.2"/>
<text text-anchor="start" x="168" y="-286.9" font-family="Helvetica,sans-Serif" font-size="11.00" fill="#000000">text[2147483647]</text>
<polygon fill="none" stroke="#000000" points="10,-257.2 10,-279.2 165,-279.2 165,-257.2 10,-257.2"/>
<text text-anchor="start" x="30" y="-264.3" font-family="Helvetica,sans-Serif" font-size="11.00" fill="#000000">id_integracao</text>
<polygon fill="none" stroke="#000000" points="165,-257.2 165,-279.2 274,-279.2 274,-257.2 165,-257.2"/>
<text text-anchor="start" x="167.5344" y="-264.9" font-family="Helvetica,sans-Serif" font-size="11.00" fill="#000000">varchar[2147483647]</text>
<polygon fill="none" stroke="#000000" points="10,-235.2 10,-257.2 165,-257.2 165,-235.2 10,-235.2"/>
<text text-anchor="start" x="30" y="-242.3" font-family="Helvetica,sans-Serif" font-size="11.00" fill="#000000">id_origem</text>
<polygon fill="none" stroke="#000000" points="165,-235.2 165,-257.2 274,-257.2 274,-235.2 165,-235.2"/>
<text text-anchor="start" x="168" y="-242.9" font-family="Helvetica,sans-Serif" font-size="11.00" fill="#000000">int4[10]</text>
<polygon fill="none" stroke="#000000" points="10,-213.2 10,-235.2 165,-235.2 165,-213.2 10,-213.2"/>
<text text-anchor="start" x="30" y="-220.3" font-family="Helvetica,sans-Serif" font-size="11.00" fill="#000000">id_cloud</text>
<polygon fill="none" stroke="#000000" points="165,-213.2 165,-235.2 274,-235.2 274,-213.2 165,-213.2"/>
<text text-anchor="start" x="168" y="-220.9" font-family="Helvetica,sans-Serif" font-size="11.00" fill="#000000">int4[10]</text>
<polygon fill="none" stroke="#000000" points="10,-191.2 10,-213.2 165,-213.2 165,-191.2 10,-191.2"/>
<text text-anchor="start" x="30" y="-198.3" font-family="Helvetica,sans-Serif" font-size="11.00" fill="#000000">descricao</text>
<polygon fill="none" stroke="#000000" points="165,-191.2 165,-213.2 274,-213.2 274,-191.2 165,-191.2"/>
<text text-anchor="start" x="167.5344" y="-198.9" font-family="Helvetica,sans-Serif" font-size="11.00" fill="#000000">varchar[2147483647]</text>
<polygon fill="none" stroke="#000000" points="10,-169.2 10,-191.2 165,-191.2 165,-169.2 10,-169.2"/>
<text text-anchor="start" x="30" y="-176.3" font-family="Helvetica,sans-Serif" font-size="11.00" fill="#000000">habilitacao_merenda</text>
<polygon fill="none" stroke="#000000" points="165,-169.2 165,-191.2 274,-191.2 274,-169.2 165,-169.2"/>
<text text-anchor="start" x="168" y="-176.9" font-family="Helvetica,sans-Serif" font-size="11.00" fill="#000000">bool[1]</text>
<polygon fill="none" stroke="#000000" points="10,-147.2 10,-169.2 165,-169.2 165,-147.2 10,-147.2"/>
<text text-anchor="start" x="30" y="-154.3" font-family="Helvetica,sans-Serif" font-size="11.00" fill="#000000">habilitacao_transporte</text>
<polygon fill="none" stroke="#000000" points="165,-147.2 165,-169.2 274,-169.2 274,-147.2 165,-147.2"/>
<text text-anchor="start" x="168" y="-154.9" font-family="Helvetica,sans-Serif" font-size="11.00" fill="#000000">bool[1]</text>
<polygon fill="none" stroke="#000000" points="10,-125.2 10,-147.2 165,-147.2 165,-125.2 10,-125.2"/>
<text text-anchor="start" x="30" y="-132.3" font-family="Helvetica,sans-Serif" font-size="11.00" fill="#000000">leciona</text>
<polygon fill="none" stroke="#000000" points="165,-125.2 165,-147.2 274,-147.2 274,-125.2 165,-125.2"/>
<text text-anchor="start" x="168" y="-132.9" font-family="Helvetica,sans-Serif" font-size="11.00" fill="#000000">bool[1]</text>
<polygon fill="none" stroke="#000000" points="10,-103.2 10,-125.2 165,-125.2 165,-103.2 10,-103.2"/>
<image xlink:href="../../images/foreignKeys.png" width="11px" height="12px" preserveAspectRatio="xMinYMin meet" x="15" y="-120.2"/>
<text text-anchor="start" x="30" y="-110.3" font-family="Helvetica,sans-Serif" font-size="11.00" fill="#000000">tipo_cargo_origem_id</text>
<polygon fill="none" stroke="#000000" points="165,-103.2 165,-125.2 274,-125.2 274,-103.2 165,-103.2"/>
<text text-anchor="start" x="168" y="-110.9" font-family="Helvetica,sans-Serif" font-size="11.00" fill="#000000">int4[10]</text>
<polygon fill="none" stroke="#000000" points="10,-81.2 10,-103.2 165,-103.2 165,-81.2 10,-81.2"/>
<image xlink:href="../../images/foreignKeys.png" width="11px" height="12px" preserveAspectRatio="xMinYMin meet" x="15" y="-98.2"/>
<text text-anchor="start" x="30" y="-88.3" font-family="Helvetica,sans-Serif" font-size="11.00" fill="#000000">tipo_cargo_cloud_id</text>
<polygon fill="none" stroke="#000000" points="165,-81.2 165,-103.2 274,-103.2 274,-81.2 165,-81.2"/>
<text text-anchor="start" x="168" y="-88.9" font-family="Helvetica,sans-Serif" font-size="11.00" fill="#000000">int4[10]</text>
<polygon fill="none" stroke="#000000" points="10,-59.2 10,-81.2 165,-81.2 165,-59.2 10,-59.2"/>
<text text-anchor="start" x="30" y="-66.3" font-family="Helvetica,sans-Serif" font-size="11.00" fill="#000000">descricao_cargo_cloud</text>
<polygon fill="none" stroke="#000000" points="165,-59.2 165,-81.2 274,-81.2 274,-59.2 165,-59.2"/>
<text text-anchor="start" x="167.5344" y="-66.9" font-family="Helvetica,sans-Serif" font-size="11.00" fill="#000000">varchar[2147483647]</text>
<polygon fill="#ffffff" stroke="transparent" points="10,-40.2 10,-59.2 92,-59.2 92,-40.2 10,-40.2"/>
<polygon fill="none" stroke="#000000" points="10,-40.2 10,-59.2 92,-59.2 92,-40.2 10,-40.2"/>
<text text-anchor="start" x="13" y="-46.3" font-family="Helvetica,sans-Serif" font-size="11.00" fill="#000000">&lt; 0</text>
<polygon fill="#ffffff" stroke="transparent" points="92,-40.2 92,-59.2 165,-59.2 165,-40.2 92,-40.2"/>
<polygon fill="none" stroke="#000000" points="92,-40.2 92,-59.2 165,-59.2 165,-40.2 92,-40.2"/>
<text text-anchor="start" x="155.8862" y="-46.3" font-family="Helvetica,sans-Serif" font-size="11.00" fill="#000000"> &#160;</text>
<polygon fill="#ffffff" stroke="transparent" points="165,-40.2 165,-59.2 274,-59.2 274,-40.2 165,-40.2"/>
<polygon fill="none" stroke="#000000" points="165,-40.2 165,-59.2 274,-59.2 274,-40.2 165,-40.2"/>
<text text-anchor="start" x="255.4053" y="-46.3" font-family="Helvetica,sans-Serif" font-size="11.00" fill="#000000">0 &gt;</text>
<polygon fill="none" stroke="#000000" stroke-width="2" points="9,-39.2 9,-347.2 275,-347.2 275,-39.2 9,-39.2"/>
</a>
</g>
</g>
</g>
</svg>
