<?xml version="1.0" encoding="UTF-8" standalone="no"?>
<!DOCTYPE svg PUBLIC "-//W3C//DTD SVG 1.1//EN"
 "http://www.w3.org/Graphics/SVG/1.1/DTD/svg11.dtd">
<!-- Generated by graphviz version 2.40.1 (20161225.0304)
 -->
<!-- Title: oneDegreeRelationshipsDiagram Pages: 1 -->
<svg width="500pt" height="558pt"
 viewBox="0.00 0.00 500.00 558.20" xmlns="http://www.w3.org/2000/svg" xmlns:xlink="http://www.w3.org/1999/xlink">
<g id="graph0" class="graph" transform="scale(1 1) rotate(0) translate(4 554.2)">
<title>oneDegreeRelationshipsDiagram</title>
<polygon fill="#ffffff" stroke="transparent" points="-4,4 -4,-554.2 496,-554.2 496,4 -4,4"/>
<text text-anchor="middle" x="72.4936" y="-7.3" font-family="Helvetica,sans-Serif" font-size="11.00" fill="#000000">Generated by SchemaSpy</text>
<!-- componentes -->
<g id="node1" class="node">
<title>componentes</title>
<g id="a_node1"><a xlink:href="../../tables/componentes.html" xlink:title="componentes" target="_top">
<polygon fill="#ffffff" stroke="transparent" points="8,-38.2 8,-546.2 484,-546.2 484,-38.2 8,-38.2"/>
<polygon fill="#f5f5f5" stroke="transparent" points="10,-521.2 10,-544.2 482,-544.2 482,-521.2 10,-521.2"/>
<polygon fill="none" stroke="#000000" points="10,-521.2 10,-544.2 482,-544.2 482,-521.2 10,-521.2"/>
<text text-anchor="start" x="15" y="-529.8" font-family="Helvetica,sans-Serif" font-weight="bold" font-size="11.00" fill="#000000">componentes</text>
<text text-anchor="start" x="447.0437" y="-529.3" font-family="Helvetica,sans-Serif" font-size="11.00" fill="#000000">[table]</text>
<polygon fill="none" stroke="#000000" points="10,-499.2 10,-521.2 229,-521.2 229,-499.2 10,-499.2"/>
<text text-anchor="start" x="30" y="-506.3" font-family="Helvetica,sans-Serif" font-size="11.00" fill="#000000">sistema</text>
<polygon fill="none" stroke="#000000" points="229,-499.2 229,-521.2 482,-521.2 482,-499.2 229,-499.2"/>
<text text-anchor="start" x="232" y="-506.9" font-family="Helvetica,sans-Serif" font-size="11.00" fill="#000000">int4[10]</text>
<polygon fill="none" stroke="#000000" points="10,-477.2 10,-499.2 229,-499.2 229,-477.2 10,-477.2"/>
<text text-anchor="start" x="30" y="-484.3" font-family="Helvetica,sans-Serif" font-size="11.00" fill="#000000">tipo_registro</text>
<polygon fill="none" stroke="#000000" points="229,-477.2 229,-499.2 482,-499.2 482,-477.2 229,-477.2"/>
<text text-anchor="start" x="232" y="-484.9" font-family="Helvetica,sans-Serif" font-size="11.00" fill="#000000">text[2147483647]</text>
<polygon fill="none" stroke="#000000" points="10,-455.2 10,-477.2 229,-477.2 229,-455.2 10,-455.2"/>
<text text-anchor="start" x="30" y="-462.3" font-family="Helvetica,sans-Serif" font-size="11.00" fill="#000000">id_integracao</text>
<polygon fill="none" stroke="#000000" points="229,-455.2 229,-477.2 482,-477.2 482,-455.2 229,-455.2"/>
<text text-anchor="start" x="232" y="-462.9" font-family="Helvetica,sans-Serif" font-size="11.00" fill="#000000">varchar[2147483647]</text>
<polygon fill="none" stroke="#000000" points="10,-433.2 10,-455.2 229,-455.2 229,-433.2 10,-433.2"/>
<text text-anchor="start" x="30" y="-440.3" font-family="Helvetica,sans-Serif" font-size="11.00" fill="#000000">id_origem</text>
<polygon fill="none" stroke="#000000" points="229,-433.2 229,-455.2 482,-455.2 482,-433.2 229,-433.2"/>
<text text-anchor="start" x="232" y="-440.9" font-family="Helvetica,sans-Serif" font-size="11.00" fill="#000000">int4[10]</text>
<polygon fill="none" stroke="#000000" points="10,-411.2 10,-433.2 229,-433.2 229,-411.2 10,-411.2"/>
<text text-anchor="start" x="30" y="-418.3" font-family="Helvetica,sans-Serif" font-size="11.00" fill="#000000">id_cloud</text>
<polygon fill="none" stroke="#000000" points="229,-411.2 229,-433.2 482,-433.2 482,-411.2 229,-411.2"/>
<text text-anchor="start" x="232" y="-418.9" font-family="Helvetica,sans-Serif" font-size="11.00" fill="#000000">int4[10]</text>
<polygon fill="none" stroke="#000000" points="10,-389.2 10,-411.2 229,-411.2 229,-389.2 10,-389.2"/>
<text text-anchor="start" x="30" y="-396.3" font-family="Helvetica,sans-Serif" font-size="11.00" fill="#000000">tipo_item_organizacao_curricular</text>
<polygon fill="none" stroke="#000000" points="229,-389.2 229,-411.2 482,-411.2 482,-389.2 229,-389.2"/>
<text text-anchor="start" x="232" y="-396.9" font-family="Helvetica,sans-Serif" font-size="11.00" fill="#000000">&quot;educacao&quot;.&quot;tiposorganizacao&quot;[2147483647]</text>
<polygon fill="none" stroke="#000000" points="10,-367.2 10,-389.2 229,-389.2 229,-367.2 10,-367.2"/>
<text text-anchor="start" x="30" y="-374.3" font-family="Helvetica,sans-Serif" font-size="11.00" fill="#000000">item_organizacao_curricular</text>
<polygon fill="none" stroke="#000000" points="229,-367.2 229,-389.2 482,-389.2 482,-367.2 229,-367.2"/>
<text text-anchor="start" x="232" y="-374.9" font-family="Helvetica,sans-Serif" font-size="11.00" fill="#000000">int4[10]</text>
<polygon fill="none" stroke="#000000" points="10,-345.2 10,-367.2 229,-367.2 229,-345.2 10,-345.2"/>
<image xlink:href="../../images/foreignKeys.png" width="11px" height="12px" preserveAspectRatio="xMinYMin meet" x="15" y="-362.2"/>
<text text-anchor="start" x="30" y="-352.3" font-family="Helvetica,sans-Serif" font-size="11.00" fill="#000000">eixo_tematico_origem_id</text>
<polygon fill="none" stroke="#000000" points="229,-345.2 229,-367.2 482,-367.2 482,-345.2 229,-345.2"/>
<text text-anchor="start" x="232" y="-352.9" font-family="Helvetica,sans-Serif" font-size="11.00" fill="#000000">int4[10]</text>
<polygon fill="none" stroke="#000000" points="10,-323.2 10,-345.2 229,-345.2 229,-323.2 10,-323.2"/>
<image xlink:href="../../images/foreignKeys.png" width="11px" height="12px" preserveAspectRatio="xMinYMin meet" x="15" y="-340.2"/>
<text text-anchor="start" x="30" y="-330.3" font-family="Helvetica,sans-Serif" font-size="11.00" fill="#000000">eixo_tematico_cloud_id</text>
<polygon fill="none" stroke="#000000" points="229,-323.2 229,-345.2 482,-345.2 482,-323.2 229,-323.2"/>
<text text-anchor="start" x="232" y="-330.9" font-family="Helvetica,sans-Serif" font-size="11.00" fill="#000000">int4[10]</text>
<polygon fill="none" stroke="#000000" points="10,-301.2 10,-323.2 229,-323.2 229,-301.2 10,-301.2"/>
<text text-anchor="start" x="30" y="-308.3" font-family="Helvetica,sans-Serif" font-size="11.00" fill="#000000">orientacao_curricular</text>
<polygon fill="none" stroke="#000000" points="229,-301.2 229,-323.2 482,-323.2 482,-301.2 229,-301.2"/>
<text text-anchor="start" x="231.8495" y="-308.9" font-family="Helvetica,sans-Serif" font-size="11.00" fill="#000000">&quot;educacao&quot;.&quot;orientacoescurriculares&quot;[2147483647]</text>
<polygon fill="none" stroke="#000000" points="10,-279.2 10,-301.2 229,-301.2 229,-279.2 10,-279.2"/>
<text text-anchor="start" x="30" y="-286.3" font-family="Helvetica,sans-Serif" font-size="11.00" fill="#000000">tipo_avaliacao</text>
<polygon fill="none" stroke="#000000" points="229,-279.2 229,-301.2 482,-301.2 482,-279.2 229,-279.2"/>
<text text-anchor="start" x="232" y="-286.9" font-family="Helvetica,sans-Serif" font-size="11.00" fill="#000000">&quot;educacao&quot;.&quot;tiposavaliacao&quot;[2147483647]</text>
<polygon fill="none" stroke="#000000" points="10,-257.2 10,-279.2 229,-279.2 229,-257.2 10,-257.2"/>
<text text-anchor="start" x="30" y="-264.3" font-family="Helvetica,sans-Serif" font-size="11.00" fill="#000000">nota_numerica</text>
<polygon fill="none" stroke="#000000" points="229,-257.2 229,-279.2 482,-279.2 482,-257.2 229,-257.2"/>
<text text-anchor="start" x="232" y="-264.9" font-family="Helvetica,sans-Serif" font-size="11.00" fill="#000000">int4[10]</text>
<polygon fill="none" stroke="#000000" points="10,-235.2 10,-257.2 229,-257.2 229,-235.2 10,-235.2"/>
<text text-anchor="start" x="30" y="-242.3" font-family="Helvetica,sans-Serif" font-size="11.00" fill="#000000">nota_descritiva</text>
<polygon fill="none" stroke="#000000" points="229,-235.2 229,-257.2 482,-257.2 482,-235.2 229,-235.2"/>
<text text-anchor="start" x="232" y="-242.9" font-family="Helvetica,sans-Serif" font-size="11.00" fill="#000000">varchar[2147483647]</text>
<polygon fill="none" stroke="#000000" points="10,-213.2 10,-235.2 229,-235.2 229,-213.2 10,-213.2"/>
<text text-anchor="start" x="30" y="-220.3" font-family="Helvetica,sans-Serif" font-size="11.00" fill="#000000">nota_conceito</text>
<polygon fill="none" stroke="#000000" points="229,-213.2 229,-235.2 482,-235.2 482,-213.2 229,-213.2"/>
<text text-anchor="start" x="232" y="-220.9" font-family="Helvetica,sans-Serif" font-size="11.00" fill="#000000">varchar[2147483647]</text>
<polygon fill="none" stroke="#000000" points="10,-191.2 10,-213.2 229,-213.2 229,-191.2 10,-191.2"/>
<text text-anchor="start" x="30" y="-198.3" font-family="Helvetica,sans-Serif" font-size="11.00" fill="#000000">percentual_frequencia</text>
<polygon fill="none" stroke="#000000" points="229,-191.2 229,-213.2 482,-213.2 482,-191.2 229,-191.2"/>
<text text-anchor="start" x="232" y="-198.9" font-family="Helvetica,sans-Serif" font-size="11.00" fill="#000000">numeric[0]</text>
<polygon fill="none" stroke="#000000" points="10,-169.2 10,-191.2 229,-191.2 229,-169.2 10,-169.2"/>
<text text-anchor="start" x="30" y="-176.3" font-family="Helvetica,sans-Serif" font-size="11.00" fill="#000000">total_faltas</text>
<polygon fill="none" stroke="#000000" points="229,-169.2 229,-191.2 482,-191.2 482,-169.2 229,-169.2"/>
<text text-anchor="start" x="232" y="-176.9" font-family="Helvetica,sans-Serif" font-size="11.00" fill="#000000">int4[10]</text>
<polygon fill="none" stroke="#000000" points="10,-147.2 10,-169.2 229,-169.2 229,-147.2 10,-147.2"/>
<text text-anchor="start" x="30" y="-154.3" font-family="Helvetica,sans-Serif" font-size="11.00" fill="#000000">carga_horaria_total_em_segundos</text>
<polygon fill="none" stroke="#000000" points="229,-147.2 229,-169.2 482,-169.2 482,-147.2 229,-147.2"/>
<text text-anchor="start" x="232" y="-154.9" font-family="Helvetica,sans-Serif" font-size="11.00" fill="#000000">int4[10]</text>
<polygon fill="none" stroke="#000000" points="10,-125.2 10,-147.2 229,-147.2 229,-125.2 10,-125.2"/>
<text text-anchor="start" x="30" y="-132.3" font-family="Helvetica,sans-Serif" font-size="11.00" fill="#000000">situacao</text>
<polygon fill="none" stroke="#000000" points="229,-125.2 229,-147.2 482,-147.2 482,-125.2 229,-125.2"/>
<text text-anchor="start" x="232" y="-132.9" font-family="Helvetica,sans-Serif" font-size="11.00" fill="#000000">&quot;educacao&quot;.&quot;situacoeshistorico&quot;[2147483647]</text>
<polygon fill="none" stroke="#000000" points="10,-103.2 10,-125.2 229,-125.2 229,-103.2 10,-103.2"/>
<text text-anchor="start" x="30" y="-110.3" font-family="Helvetica,sans-Serif" font-size="11.00" fill="#000000">situacao_especifica</text>
<polygon fill="none" stroke="#000000" points="229,-103.2 229,-125.2 482,-125.2 482,-103.2 229,-103.2"/>
<text text-anchor="start" x="232" y="-110.9" font-family="Helvetica,sans-Serif" font-size="11.00" fill="#000000">varchar[2147483647]</text>
<polygon fill="none" stroke="#000000" points="10,-81.2 10,-103.2 229,-103.2 229,-81.2 10,-81.2"/>
<image xlink:href="../../images/foreignKeys.png" width="11px" height="12px" preserveAspectRatio="xMinYMin meet" x="15" y="-98.2"/>
<text text-anchor="start" x="30" y="-88.3" font-family="Helvetica,sans-Serif" font-size="11.00" fill="#000000">historico_escolar_origem_id</text>
<polygon fill="none" stroke="#000000" points="229,-81.2 229,-103.2 482,-103.2 482,-81.2 229,-81.2"/>
<text text-anchor="start" x="232" y="-88.9" font-family="Helvetica,sans-Serif" font-size="11.00" fill="#000000">int4[10]</text>
<polygon fill="none" stroke="#000000" points="10,-59.2 10,-81.2 229,-81.2 229,-59.2 10,-59.2"/>
<image xlink:href="../../images/foreignKeys.png" width="11px" height="12px" preserveAspectRatio="xMinYMin meet" x="15" y="-76.2"/>
<text text-anchor="start" x="30" y="-66.3" font-family="Helvetica,sans-Serif" font-size="11.00" fill="#000000">historico_escolar_cloud_id</text>
<polygon fill="none" stroke="#000000" points="229,-59.2 229,-81.2 482,-81.2 482,-59.2 229,-59.2"/>
<text text-anchor="start" x="232" y="-66.9" font-family="Helvetica,sans-Serif" font-size="11.00" fill="#000000">int4[10]</text>
<polygon fill="#ffffff" stroke="transparent" points="10,-40.2 10,-59.2 124,-59.2 124,-40.2 10,-40.2"/>
<polygon fill="none" stroke="#000000" points="10,-40.2 10,-59.2 124,-59.2 124,-40.2 10,-40.2"/>
<text text-anchor="start" x="13" y="-46.3" font-family="Helvetica,sans-Serif" font-size="11.00" fill="#000000">&lt; 0</text>
<polygon fill="#ffffff" stroke="transparent" points="124,-40.2 124,-59.2 229,-59.2 229,-40.2 124,-40.2"/>
<polygon fill="none" stroke="#000000" points="124,-40.2 124,-59.2 229,-59.2 229,-40.2 124,-40.2"/>
<text text-anchor="start" x="219.8862" y="-46.3" font-family="Helvetica,sans-Serif" font-size="11.00" fill="#000000"> &#160;</text>
<polygon fill="#ffffff" stroke="transparent" points="229,-40.2 229,-59.2 482,-59.2 482,-40.2 229,-40.2"/>
<polygon fill="none" stroke="#000000" points="229,-40.2 229,-59.2 482,-59.2 482,-40.2 229,-40.2"/>
<text text-anchor="start" x="463.4053" y="-46.3" font-family="Helvetica,sans-Serif" font-size="11.00" fill="#000000">0 &gt;</text>
<polygon fill="none" stroke="#000000" stroke-width="2" points="9,-39.2 9,-545.2 483,-545.2 483,-39.2 9,-39.2"/>
</a>
</g>
</g>
</g>
</svg>
