<?xml version="1.0" encoding="UTF-8" standalone="no"?>
<!DOCTYPE svg PUBLIC "-//W3C//DTD SVG 1.1//EN"
 "http://www.w3.org/Graphics/SVG/1.1/DTD/svg11.dtd">
<!-- Generated by graphviz version 2.40.1 (20161225.0304)
 -->
<!-- Title: oneDegreeRelationshipsDiagramImplied Pages: 1 -->
<svg width="778pt" height="558pt"
 viewBox="0.00 0.00 778.00 558.20" xmlns="http://www.w3.org/2000/svg" xmlns:xlink="http://www.w3.org/1999/xlink">
<g id="graph0" class="graph" transform="scale(1 1) rotate(0) translate(4 554.2)">
<title>oneDegreeRelationshipsDiagramImplied</title>
<polygon fill="#ffffff" stroke="transparent" points="-4,4 -4,-554.2 774,-554.2 774,4 -4,4"/>
<text text-anchor="middle" x="72.4936" y="-7.3" font-family="Helvetica,sans-Serif" font-size="11.00" fill="#000000">Generated by SchemaSpy</text>
<!-- componentes -->
<g id="node1" class="node">
<title>componentes</title>
<g id="a_node1"><a xlink:href="../../tables/componentes.html" xlink:title="componentes" target="_top">
<polygon fill="#ffffff" stroke="transparent" points="286,-38.2 286,-546.2 762,-546.2 762,-38.2 286,-38.2"/>
<polygon fill="#f5f5f5" stroke="transparent" points="288,-521.2 288,-544.2 760,-544.2 760,-521.2 288,-521.2"/>
<polygon fill="none" stroke="#000000" points="288,-521.2 288,-544.2 760,-544.2 760,-521.2 288,-521.2"/>
<text text-anchor="start" x="293" y="-529.8" font-family="Helvetica,sans-Serif" font-weight="bold" font-size="11.00" fill="#000000">componentes</text>
<text text-anchor="start" x="725.0437" y="-529.3" font-family="Helvetica,sans-Serif" font-size="11.00" fill="#000000">[table]</text>
<polygon fill="none" stroke="#000000" points="288,-499.2 288,-521.2 507,-521.2 507,-499.2 288,-499.2"/>
<text text-anchor="start" x="308" y="-506.3" font-family="Helvetica,sans-Serif" font-size="11.00" fill="#000000">sistema</text>
<polygon fill="none" stroke="#000000" points="507,-499.2 507,-521.2 760,-521.2 760,-499.2 507,-499.2"/>
<text text-anchor="start" x="510" y="-506.9" font-family="Helvetica,sans-Serif" font-size="11.00" fill="#000000">int4[10]</text>
<polygon fill="none" stroke="#000000" points="288,-477.2 288,-499.2 507,-499.2 507,-477.2 288,-477.2"/>
<text text-anchor="start" x="308" y="-484.3" font-family="Helvetica,sans-Serif" font-size="11.00" fill="#000000">tipo_registro</text>
<polygon fill="none" stroke="#000000" points="507,-477.2 507,-499.2 760,-499.2 760,-477.2 507,-477.2"/>
<text text-anchor="start" x="510" y="-484.9" font-family="Helvetica,sans-Serif" font-size="11.00" fill="#000000">text[2147483647]</text>
<polygon fill="none" stroke="#000000" points="288,-455.2 288,-477.2 507,-477.2 507,-455.2 288,-455.2"/>
<text text-anchor="start" x="308" y="-462.3" font-family="Helvetica,sans-Serif" font-size="11.00" fill="#000000">id_integracao</text>
<polygon fill="none" stroke="#000000" points="507,-455.2 507,-477.2 760,-477.2 760,-455.2 507,-455.2"/>
<text text-anchor="start" x="510" y="-462.9" font-family="Helvetica,sans-Serif" font-size="11.00" fill="#000000">varchar[2147483647]</text>
<polygon fill="none" stroke="#000000" points="288,-433.2 288,-455.2 507,-455.2 507,-433.2 288,-433.2"/>
<text text-anchor="start" x="308" y="-440.3" font-family="Helvetica,sans-Serif" font-size="11.00" fill="#000000">id_origem</text>
<polygon fill="none" stroke="#000000" points="507,-433.2 507,-455.2 760,-455.2 760,-433.2 507,-433.2"/>
<text text-anchor="start" x="510" y="-440.9" font-family="Helvetica,sans-Serif" font-size="11.00" fill="#000000">int4[10]</text>
<polygon fill="none" stroke="#000000" points="288,-411.2 288,-433.2 507,-433.2 507,-411.2 288,-411.2"/>
<text text-anchor="start" x="308" y="-418.3" font-family="Helvetica,sans-Serif" font-size="11.00" fill="#000000">id_cloud</text>
<polygon fill="none" stroke="#000000" points="507,-411.2 507,-433.2 760,-433.2 760,-411.2 507,-411.2"/>
<text text-anchor="start" x="510" y="-418.9" font-family="Helvetica,sans-Serif" font-size="11.00" fill="#000000">int4[10]</text>
<polygon fill="none" stroke="#000000" points="288,-389.2 288,-411.2 507,-411.2 507,-389.2 288,-389.2"/>
<text text-anchor="start" x="308" y="-396.3" font-family="Helvetica,sans-Serif" font-size="11.00" fill="#000000">tipo_item_organizacao_curricular</text>
<polygon fill="none" stroke="#000000" points="507,-389.2 507,-411.2 760,-411.2 760,-389.2 507,-389.2"/>
<text text-anchor="start" x="510" y="-396.9" font-family="Helvetica,sans-Serif" font-size="11.00" fill="#000000">&quot;educacao&quot;.&quot;tiposorganizacao&quot;[2147483647]</text>
<polygon fill="none" stroke="#000000" points="288,-367.2 288,-389.2 507,-389.2 507,-367.2 288,-367.2"/>
<text text-anchor="start" x="308" y="-374.3" font-family="Helvetica,sans-Serif" font-size="11.00" fill="#000000">item_organizacao_curricular</text>
<polygon fill="none" stroke="#000000" points="507,-367.2 507,-389.2 760,-389.2 760,-367.2 507,-367.2"/>
<text text-anchor="start" x="510" y="-374.9" font-family="Helvetica,sans-Serif" font-size="11.00" fill="#000000">int4[10]</text>
<polygon fill="none" stroke="#000000" points="288,-345.2 288,-367.2 507,-367.2 507,-345.2 288,-345.2"/>
<image xlink:href="../../images/foreignKeys.png" width="11px" height="12px" preserveAspectRatio="xMinYMin meet" x="293" y="-362.2"/>
<text text-anchor="start" x="308" y="-352.3" font-family="Helvetica,sans-Serif" font-size="11.00" fill="#000000">eixo_tematico_origem_id</text>
<polygon fill="none" stroke="#000000" points="507,-345.2 507,-367.2 760,-367.2 760,-345.2 507,-345.2"/>
<text text-anchor="start" x="510" y="-352.9" font-family="Helvetica,sans-Serif" font-size="11.00" fill="#000000">int4[10]</text>
<polygon fill="none" stroke="#000000" points="288,-323.2 288,-345.2 507,-345.2 507,-323.2 288,-323.2"/>
<image xlink:href="../../images/foreignKeys.png" width="11px" height="12px" preserveAspectRatio="xMinYMin meet" x="293" y="-340.2"/>
<text text-anchor="start" x="308" y="-330.3" font-family="Helvetica,sans-Serif" font-size="11.00" fill="#000000">eixo_tematico_cloud_id</text>
<polygon fill="none" stroke="#000000" points="507,-323.2 507,-345.2 760,-345.2 760,-323.2 507,-323.2"/>
<text text-anchor="start" x="510" y="-330.9" font-family="Helvetica,sans-Serif" font-size="11.00" fill="#000000">int4[10]</text>
<polygon fill="none" stroke="#000000" points="288,-301.2 288,-323.2 507,-323.2 507,-301.2 288,-301.2"/>
<text text-anchor="start" x="308" y="-308.3" font-family="Helvetica,sans-Serif" font-size="11.00" fill="#000000">orientacao_curricular</text>
<polygon fill="none" stroke="#000000" points="507,-301.2 507,-323.2 760,-323.2 760,-301.2 507,-301.2"/>
<text text-anchor="start" x="509.8496" y="-308.9" font-family="Helvetica,sans-Serif" font-size="11.00" fill="#000000">&quot;educacao&quot;.&quot;orientacoescurriculares&quot;[2147483647]</text>
<polygon fill="none" stroke="#000000" points="288,-279.2 288,-301.2 507,-301.2 507,-279.2 288,-279.2"/>
<text text-anchor="start" x="308" y="-286.3" font-family="Helvetica,sans-Serif" font-size="11.00" fill="#000000">tipo_avaliacao</text>
<polygon fill="none" stroke="#000000" points="507,-279.2 507,-301.2 760,-301.2 760,-279.2 507,-279.2"/>
<text text-anchor="start" x="510" y="-286.9" font-family="Helvetica,sans-Serif" font-size="11.00" fill="#000000">&quot;educacao&quot;.&quot;tiposavaliacao&quot;[2147483647]</text>
<polygon fill="none" stroke="#000000" points="288,-257.2 288,-279.2 507,-279.2 507,-257.2 288,-257.2"/>
<text text-anchor="start" x="308" y="-264.3" font-family="Helvetica,sans-Serif" font-size="11.00" fill="#000000">nota_numerica</text>
<polygon fill="none" stroke="#000000" points="507,-257.2 507,-279.2 760,-279.2 760,-257.2 507,-257.2"/>
<text text-anchor="start" x="510" y="-264.9" font-family="Helvetica,sans-Serif" font-size="11.00" fill="#000000">int4[10]</text>
<polygon fill="none" stroke="#000000" points="288,-235.2 288,-257.2 507,-257.2 507,-235.2 288,-235.2"/>
<text text-anchor="start" x="308" y="-242.3" font-family="Helvetica,sans-Serif" font-size="11.00" fill="#000000">nota_descritiva</text>
<polygon fill="none" stroke="#000000" points="507,-235.2 507,-257.2 760,-257.2 760,-235.2 507,-235.2"/>
<text text-anchor="start" x="510" y="-242.9" font-family="Helvetica,sans-Serif" font-size="11.00" fill="#000000">varchar[2147483647]</text>
<polygon fill="none" stroke="#000000" points="288,-213.2 288,-235.2 507,-235.2 507,-213.2 288,-213.2"/>
<text text-anchor="start" x="308" y="-220.3" font-family="Helvetica,sans-Serif" font-size="11.00" fill="#000000">nota_conceito</text>
<polygon fill="none" stroke="#000000" points="507,-213.2 507,-235.2 760,-235.2 760,-213.2 507,-213.2"/>
<text text-anchor="start" x="510" y="-220.9" font-family="Helvetica,sans-Serif" font-size="11.00" fill="#000000">varchar[2147483647]</text>
<polygon fill="none" stroke="#000000" points="288,-191.2 288,-213.2 507,-213.2 507,-191.2 288,-191.2"/>
<text text-anchor="start" x="308" y="-198.3" font-family="Helvetica,sans-Serif" font-size="11.00" fill="#000000">percentual_frequencia</text>
<polygon fill="none" stroke="#000000" points="507,-191.2 507,-213.2 760,-213.2 760,-191.2 507,-191.2"/>
<text text-anchor="start" x="510" y="-198.9" font-family="Helvetica,sans-Serif" font-size="11.00" fill="#000000">numeric[0]</text>
<polygon fill="none" stroke="#000000" points="288,-169.2 288,-191.2 507,-191.2 507,-169.2 288,-169.2"/>
<text text-anchor="start" x="308" y="-176.3" font-family="Helvetica,sans-Serif" font-size="11.00" fill="#000000">total_faltas</text>
<polygon fill="none" stroke="#000000" points="507,-169.2 507,-191.2 760,-191.2 760,-169.2 507,-169.2"/>
<text text-anchor="start" x="510" y="-176.9" font-family="Helvetica,sans-Serif" font-size="11.00" fill="#000000">int4[10]</text>
<polygon fill="none" stroke="#000000" points="288,-147.2 288,-169.2 507,-169.2 507,-147.2 288,-147.2"/>
<text text-anchor="start" x="308" y="-154.3" font-family="Helvetica,sans-Serif" font-size="11.00" fill="#000000">carga_horaria_total_em_segundos</text>
<polygon fill="none" stroke="#000000" points="507,-147.2 507,-169.2 760,-169.2 760,-147.2 507,-147.2"/>
<text text-anchor="start" x="510" y="-154.9" font-family="Helvetica,sans-Serif" font-size="11.00" fill="#000000">int4[10]</text>
<polygon fill="none" stroke="#000000" points="288,-125.2 288,-147.2 507,-147.2 507,-125.2 288,-125.2"/>
<text text-anchor="start" x="308" y="-132.3" font-family="Helvetica,sans-Serif" font-size="11.00" fill="#000000">situacao</text>
<polygon fill="none" stroke="#000000" points="507,-125.2 507,-147.2 760,-147.2 760,-125.2 507,-125.2"/>
<text text-anchor="start" x="510" y="-132.9" font-family="Helvetica,sans-Serif" font-size="11.00" fill="#000000">&quot;educacao&quot;.&quot;situacoeshistorico&quot;[2147483647]</text>
<polygon fill="none" stroke="#000000" points="288,-103.2 288,-125.2 507,-125.2 507,-103.2 288,-103.2"/>
<text text-anchor="start" x="308" y="-110.3" font-family="Helvetica,sans-Serif" font-size="11.00" fill="#000000">situacao_especifica</text>
<polygon fill="none" stroke="#000000" points="507,-103.2 507,-125.2 760,-125.2 760,-103.2 507,-103.2"/>
<text text-anchor="start" x="510" y="-110.9" font-family="Helvetica,sans-Serif" font-size="11.00" fill="#000000">varchar[2147483647]</text>
<polygon fill="none" stroke="#000000" points="288,-81.2 288,-103.2 507,-103.2 507,-81.2 288,-81.2"/>
<image xlink:href="../../images/foreignKeys.png" width="11px" height="12px" preserveAspectRatio="xMinYMin meet" x="293" y="-98.2"/>
<text text-anchor="start" x="308" y="-88.3" font-family="Helvetica,sans-Serif" font-size="11.00" fill="#000000">historico_escolar_origem_id</text>
<polygon fill="none" stroke="#000000" points="507,-81.2 507,-103.2 760,-103.2 760,-81.2 507,-81.2"/>
<text text-anchor="start" x="510" y="-88.9" font-family="Helvetica,sans-Serif" font-size="11.00" fill="#000000">int4[10]</text>
<polygon fill="none" stroke="#000000" points="288,-59.2 288,-81.2 507,-81.2 507,-59.2 288,-59.2"/>
<image xlink:href="../../images/foreignKeys.png" width="11px" height="12px" preserveAspectRatio="xMinYMin meet" x="293" y="-76.2"/>
<text text-anchor="start" x="308" y="-66.3" font-family="Helvetica,sans-Serif" font-size="11.00" fill="#000000">historico_escolar_cloud_id</text>
<polygon fill="none" stroke="#000000" points="507,-59.2 507,-81.2 760,-81.2 760,-59.2 507,-59.2"/>
<text text-anchor="start" x="510" y="-66.9" font-family="Helvetica,sans-Serif" font-size="11.00" fill="#000000">int4[10]</text>
<polygon fill="#ffffff" stroke="transparent" points="288,-40.2 288,-59.2 402,-59.2 402,-40.2 288,-40.2"/>
<polygon fill="none" stroke="#000000" points="288,-40.2 288,-59.2 402,-59.2 402,-40.2 288,-40.2"/>
<text text-anchor="start" x="291" y="-46.3" font-family="Helvetica,sans-Serif" font-size="11.00" fill="#000000">&lt; 4</text>
<polygon fill="#ffffff" stroke="transparent" points="402,-40.2 402,-59.2 507,-59.2 507,-40.2 402,-40.2"/>
<polygon fill="none" stroke="#000000" points="402,-40.2 402,-59.2 507,-59.2 507,-40.2 402,-40.2"/>
<text text-anchor="start" x="497.8862" y="-46.3" font-family="Helvetica,sans-Serif" font-size="11.00" fill="#000000"> &#160;</text>
<polygon fill="#ffffff" stroke="transparent" points="507,-40.2 507,-59.2 760,-59.2 760,-40.2 507,-40.2"/>
<polygon fill="none" stroke="#000000" points="507,-40.2 507,-59.2 760,-59.2 760,-40.2 507,-40.2"/>
<text text-anchor="start" x="741.4053" y="-46.3" font-family="Helvetica,sans-Serif" font-size="11.00" fill="#000000">0 &gt;</text>
<polygon fill="none" stroke="#000000" stroke-width="2" points="287,-39.2 287,-545.2 761,-545.2 761,-39.2 287,-39.2"/>
</a>
</g>
</g>
<!-- inscricao_lista_espera_situacoes -->
<g id="node2" class="node">
<title>inscricao_lista_espera_situacoes</title>
<g id="a_node2"><a xlink:href="../../tables/inscricao_lista_espera_situacoes.html" xlink:title="inscricao_lista_espera_situacoes" target="_top">
<polygon fill="#ffffff" stroke="transparent" points="8,-164.7 8,-247.7 237,-247.7 237,-164.7 8,-164.7"/>
<polygon fill="#f5f5f5" stroke="transparent" points="8.5,-224.2 8.5,-247.2 237.5,-247.2 237.5,-224.2 8.5,-224.2"/>
<polygon fill="none" stroke="#000000" points="8.5,-224.2 8.5,-247.2 237.5,-247.2 237.5,-224.2 8.5,-224.2"/>
<text text-anchor="start" x="13.5" y="-232.8" font-family="Helvetica,sans-Serif" font-weight="bold" font-size="11.00" fill="#000000">inscricao_lista_espera_situacoes</text>
<text text-anchor="start" x="203.0219" y="-232.3" font-family="Helvetica,sans-Serif" font-size="11.00" fill="#000000">[table]</text>
<polygon fill="none" stroke="#000000" points="8.5,-202.2 8.5,-224.2 237.5,-224.2 237.5,-202.2 8.5,-202.2"/>
<image xlink:href="../../images/primaryKeys.png" width="11px" height="12px" preserveAspectRatio="xMinYMin meet" x="13.5" y="-219.2"/>
<text text-anchor="start" x="37.5" y="-209.3" font-family="Helvetica,sans-Serif" font-size="11.00" fill="#000000">id</text>
<polygon fill="none" stroke="#000000" points="8.5,-183.2 8.5,-202.2 237.5,-202.2 237.5,-183.2 8.5,-183.2"/>
<text text-anchor="start" x="11.5" y="-189.3" font-family="Helvetica,sans-Serif" font-size="11.00" fill="#000000">...</text>
<polygon fill="#ffffff" stroke="transparent" points="8.5,-164.2 8.5,-183.2 106.5,-183.2 106.5,-164.2 8.5,-164.2"/>
<polygon fill="none" stroke="#000000" points="8.5,-164.2 8.5,-183.2 106.5,-183.2 106.5,-164.2 8.5,-164.2"/>
<text text-anchor="start" x="11.5" y="-170.3" font-family="Helvetica,sans-Serif" font-size="11.00" fill="#000000"> &#160;</text>
<polygon fill="#ffffff" stroke="transparent" points="106.5,-164.2 106.5,-183.2 161.5,-183.2 161.5,-164.2 106.5,-164.2"/>
<polygon fill="none" stroke="#000000" points="106.5,-164.2 106.5,-183.2 161.5,-183.2 161.5,-164.2 106.5,-164.2"/>
<text text-anchor="start" x="152.3862" y="-170.3" font-family="Helvetica,sans-Serif" font-size="11.00" fill="#000000"> &#160;</text>
<polygon fill="#ffffff" stroke="transparent" points="161.5,-164.2 161.5,-183.2 237.5,-183.2 237.5,-164.2 161.5,-164.2"/>
<polygon fill="none" stroke="#000000" points="161.5,-164.2 161.5,-183.2 237.5,-183.2 237.5,-164.2 161.5,-164.2"/>
<text text-anchor="start" x="206.6755" y="-170.3" font-family="Helvetica,sans-Serif" font-size="11.00" fill="#000000">596 &gt;</text>
</a>
</g>
</g>
<!-- componentes&#45;&gt;inscricao_lista_espera_situacoes -->
<g id="edge1" class="edge">
<title>componentes:w&#45;&gt;inscricao_lista_espera_situacoes:e</title>
<path fill="none" stroke="#000000" stroke-dasharray="5,2" d="M273.8314,-330.7092C241.8599,-310.87 289.8551,-213.2 237.5,-213.2"/>
<polygon fill="#000000" stroke="#000000" points="280.2323,-332.2862 287.1388,-337.6955 284.1161,-333.2431 288,-334.2 288,-334.2 288,-334.2 284.1161,-333.2431 288.8612,-330.7045 280.2323,-332.2862 280.2323,-332.2862"/>
<ellipse fill="none" stroke="#000000" cx="277.1252" cy="-331.5207" rx="3.2" ry="3.2"/>
</g>
<!-- componentes&#45;&gt;inscricao_lista_espera_situacoes -->
<g id="edge2" class="edge">
<title>componentes:w&#45;&gt;inscricao_lista_espera_situacoes:e</title>
<path fill="none" stroke="#000000" stroke-dasharray="5,2" d="M273.7915,-353.2132C233.9672,-332.678 299.1099,-213.2 237.5,-213.2"/>
<polygon fill="#000000" stroke="#000000" points="280.1711,-354.5543 287.2594,-359.723 284.0855,-355.3771 288,-356.2 288,-356.2 288,-356.2 284.0855,-355.3771 288.7406,-352.677 280.1711,-354.5543 280.1711,-354.5543"/>
<ellipse fill="none" stroke="#000000" cx="277.0395" cy="-353.896" rx="3.2" ry="3.2"/>
</g>
<!-- componentes&#45;&gt;inscricao_lista_espera_situacoes -->
<g id="edge3" class="edge">
<title>componentes:w&#45;&gt;inscricao_lista_espera_situacoes:e</title>
<path fill="none" stroke="#000000" stroke-dasharray="5,2" d="M273.7915,-73.1868C233.9672,-93.722 299.1099,-213.2 237.5,-213.2"/>
<polygon fill="#000000" stroke="#000000" points="280.1711,-71.8457 288.7406,-73.723 284.0855,-71.0229 288,-70.2 288,-70.2 288,-70.2 284.0855,-71.0229 287.2594,-66.677 280.1711,-71.8457 280.1711,-71.8457"/>
<ellipse fill="none" stroke="#000000" cx="277.0395" cy="-72.504" rx="3.2" ry="3.2"/>
</g>
<!-- componentes&#45;&gt;inscricao_lista_espera_situacoes -->
<g id="edge4" class="edge">
<title>componentes:w&#45;&gt;inscricao_lista_espera_situacoes:e</title>
<path fill="none" stroke="#000000" stroke-dasharray="5,2" d="M273.8314,-95.6908C241.8599,-115.53 289.8551,-213.2 237.5,-213.2"/>
<polygon fill="#000000" stroke="#000000" points="280.2323,-94.1138 288.8612,-95.6955 284.1161,-93.1569 288,-92.2 288,-92.2 288,-92.2 284.1161,-93.1569 287.1388,-88.7045 280.2323,-94.1138 280.2323,-94.1138"/>
<ellipse fill="none" stroke="#000000" cx="277.1252" cy="-94.8793" rx="3.2" ry="3.2"/>
</g>
</g>
</svg>
