<?xml version="1.0" encoding="UTF-8" standalone="no"?>
<!DOCTYPE svg PUBLIC "-//W3C//DTD SVG 1.1//EN"
 "http://www.w3.org/Graphics/SVG/1.1/DTD/svg11.dtd">
<!-- Generated by graphviz version 2.40.1 (20161225.0304)
 -->
<!-- Title: oneDegreeRelationshipsDiagramImplied Pages: 1 -->
<svg width="669pt" height="470pt"
 viewBox="0.00 0.00 669.00 470.20" xmlns="http://www.w3.org/2000/svg" xmlns:xlink="http://www.w3.org/1999/xlink">
<g id="graph0" class="graph" transform="scale(1 1) rotate(0) translate(4 466.2)">
<title>oneDegreeRelationshipsDiagramImplied</title>
<polygon fill="#ffffff" stroke="transparent" points="-4,4 -4,-466.2 665,-466.2 665,4 -4,4"/>
<text text-anchor="middle" x="72.4936" y="-7.3" font-family="Helvetica,sans-Serif" font-size="11.00" fill="#000000">Generated by SchemaSpy</text>
<!-- complementos -->
<g id="node1" class="node">
<title>complementos</title>
<g id="a_node1"><a xlink:href="../../tables/complementos.html" xlink:title="complementos" target="_top">
<polygon fill="#ffffff" stroke="transparent" points="286,-38.2 286,-458.2 653,-458.2 653,-38.2 286,-38.2"/>
<polygon fill="#f5f5f5" stroke="transparent" points="288.5,-433.2 288.5,-456.2 651.5,-456.2 651.5,-433.2 288.5,-433.2"/>
<polygon fill="none" stroke="#000000" points="288.5,-433.2 288.5,-456.2 651.5,-456.2 651.5,-433.2 288.5,-433.2"/>
<text text-anchor="start" x="293.5" y="-441.8" font-family="Helvetica,sans-Serif" font-weight="bold" font-size="11.00" fill="#000000">complementos</text>
<text text-anchor="start" x="616.5437" y="-441.3" font-family="Helvetica,sans-Serif" font-size="11.00" fill="#000000">[table]</text>
<polygon fill="none" stroke="#000000" points="288.5,-411.2 288.5,-433.2 417.5,-433.2 417.5,-411.2 288.5,-411.2"/>
<text text-anchor="start" x="308.5" y="-418.3" font-family="Helvetica,sans-Serif" font-size="11.00" fill="#000000">sistema</text>
<polygon fill="none" stroke="#000000" points="417.5,-411.2 417.5,-433.2 651.5,-433.2 651.5,-411.2 417.5,-411.2"/>
<text text-anchor="start" x="420.5" y="-418.9" font-family="Helvetica,sans-Serif" font-size="11.00" fill="#000000">int4[10]</text>
<polygon fill="none" stroke="#000000" points="288.5,-389.2 288.5,-411.2 417.5,-411.2 417.5,-389.2 288.5,-389.2"/>
<text text-anchor="start" x="308.5" y="-396.3" font-family="Helvetica,sans-Serif" font-size="11.00" fill="#000000">tipo_registro</text>
<polygon fill="none" stroke="#000000" points="417.5,-389.2 417.5,-411.2 651.5,-411.2 651.5,-389.2 417.5,-389.2"/>
<text text-anchor="start" x="420.5" y="-396.9" font-family="Helvetica,sans-Serif" font-size="11.00" fill="#000000">text[2147483647]</text>
<polygon fill="none" stroke="#000000" points="288.5,-367.2 288.5,-389.2 417.5,-389.2 417.5,-367.2 288.5,-367.2"/>
<text text-anchor="start" x="308.5" y="-374.3" font-family="Helvetica,sans-Serif" font-size="11.00" fill="#000000">id_integracao</text>
<polygon fill="none" stroke="#000000" points="417.5,-367.2 417.5,-389.2 651.5,-389.2 651.5,-367.2 417.5,-367.2"/>
<text text-anchor="start" x="420.5" y="-374.9" font-family="Helvetica,sans-Serif" font-size="11.00" fill="#000000">varchar[2147483647]</text>
<polygon fill="none" stroke="#000000" points="288.5,-345.2 288.5,-367.2 417.5,-367.2 417.5,-345.2 288.5,-345.2"/>
<text text-anchor="start" x="308.5" y="-352.3" font-family="Helvetica,sans-Serif" font-size="11.00" fill="#000000">id_origem</text>
<polygon fill="none" stroke="#000000" points="417.5,-345.2 417.5,-367.2 651.5,-367.2 651.5,-345.2 417.5,-345.2"/>
<text text-anchor="start" x="420.5" y="-352.9" font-family="Helvetica,sans-Serif" font-size="11.00" fill="#000000">int4[10]</text>
<polygon fill="none" stroke="#000000" points="288.5,-323.2 288.5,-345.2 417.5,-345.2 417.5,-323.2 288.5,-323.2"/>
<text text-anchor="start" x="308.5" y="-330.3" font-family="Helvetica,sans-Serif" font-size="11.00" fill="#000000">id_cloud</text>
<polygon fill="none" stroke="#000000" points="417.5,-323.2 417.5,-345.2 651.5,-345.2 651.5,-323.2 417.5,-323.2"/>
<text text-anchor="start" x="420.5" y="-330.9" font-family="Helvetica,sans-Serif" font-size="11.00" fill="#000000">int4[10]</text>
<polygon fill="none" stroke="#000000" points="288.5,-301.2 288.5,-323.2 417.5,-323.2 417.5,-301.2 288.5,-301.2"/>
<image xlink:href="../../images/foreignKeys.png" width="11px" height="12px" preserveAspectRatio="xMinYMin meet" x="293.5" y="-318.2"/>
<text text-anchor="start" x="308.5" y="-308.3" font-family="Helvetica,sans-Serif" font-size="11.00" fill="#000000">pessoa_origem_id</text>
<polygon fill="none" stroke="#000000" points="417.5,-301.2 417.5,-323.2 651.5,-323.2 651.5,-301.2 417.5,-301.2"/>
<text text-anchor="start" x="420.5" y="-308.9" font-family="Helvetica,sans-Serif" font-size="11.00" fill="#000000">int4[10]</text>
<polygon fill="none" stroke="#000000" points="288.5,-279.2 288.5,-301.2 417.5,-301.2 417.5,-279.2 288.5,-279.2"/>
<image xlink:href="../../images/foreignKeys.png" width="11px" height="12px" preserveAspectRatio="xMinYMin meet" x="293.5" y="-296.2"/>
<text text-anchor="start" x="308.5" y="-286.3" font-family="Helvetica,sans-Serif" font-size="11.00" fill="#000000">pessoa_cloud_id</text>
<polygon fill="none" stroke="#000000" points="417.5,-279.2 417.5,-301.2 651.5,-301.2 651.5,-279.2 417.5,-279.2"/>
<text text-anchor="start" x="420.5" y="-286.9" font-family="Helvetica,sans-Serif" font-size="11.00" fill="#000000">int4[10]</text>
<polygon fill="none" stroke="#000000" points="288.5,-257.2 288.5,-279.2 417.5,-279.2 417.5,-257.2 288.5,-257.2"/>
<text text-anchor="start" x="308.5" y="-264.3" font-family="Helvetica,sans-Serif" font-size="11.00" fill="#000000">zona_eleitoral</text>
<polygon fill="none" stroke="#000000" points="417.5,-257.2 417.5,-279.2 651.5,-279.2 651.5,-257.2 417.5,-257.2"/>
<text text-anchor="start" x="420.5" y="-264.9" font-family="Helvetica,sans-Serif" font-size="11.00" fill="#000000">varchar[3]</text>
<polygon fill="none" stroke="#000000" points="288.5,-235.2 288.5,-257.2 417.5,-257.2 417.5,-235.2 288.5,-235.2"/>
<text text-anchor="start" x="308.5" y="-242.3" font-family="Helvetica,sans-Serif" font-size="11.00" fill="#000000">secao_eleitoral</text>
<polygon fill="none" stroke="#000000" points="417.5,-235.2 417.5,-257.2 651.5,-257.2 651.5,-235.2 417.5,-235.2"/>
<text text-anchor="start" x="420.5" y="-242.9" font-family="Helvetica,sans-Serif" font-size="11.00" fill="#000000">varchar[4]</text>
<polygon fill="none" stroke="#000000" points="288.5,-213.2 288.5,-235.2 417.5,-235.2 417.5,-213.2 288.5,-213.2"/>
<text text-anchor="start" x="308.5" y="-220.3" font-family="Helvetica,sans-Serif" font-size="11.00" fill="#000000">titulo_eleitor</text>
<polygon fill="none" stroke="#000000" points="417.5,-213.2 417.5,-235.2 651.5,-235.2 651.5,-213.2 417.5,-213.2"/>
<text text-anchor="start" x="420.5" y="-220.9" font-family="Helvetica,sans-Serif" font-size="11.00" fill="#000000">varchar[16]</text>
<polygon fill="none" stroke="#000000" points="288.5,-191.2 288.5,-213.2 417.5,-213.2 417.5,-191.2 288.5,-191.2"/>
<text text-anchor="start" x="308.5" y="-198.3" font-family="Helvetica,sans-Serif" font-size="11.00" fill="#000000">raca</text>
<polygon fill="none" stroke="#000000" points="417.5,-191.2 417.5,-213.2 651.5,-213.2 651.5,-191.2 417.5,-191.2"/>
<text text-anchor="start" x="420.5" y="-198.9" font-family="Helvetica,sans-Serif" font-size="11.00" fill="#000000">&quot;educacao&quot;.&quot;racas&quot;[2147483647]</text>
<polygon fill="none" stroke="#000000" points="288.5,-169.2 288.5,-191.2 417.5,-191.2 417.5,-169.2 288.5,-169.2"/>
<text text-anchor="start" x="308.5" y="-176.3" font-family="Helvetica,sans-Serif" font-size="11.00" fill="#000000">cor_dos_olhos</text>
<polygon fill="none" stroke="#000000" points="417.5,-169.2 417.5,-191.2 651.5,-191.2 651.5,-169.2 417.5,-169.2"/>
<text text-anchor="start" x="420.5" y="-176.9" font-family="Helvetica,sans-Serif" font-size="11.00" fill="#000000">&quot;educacao&quot;.&quot;coresdosolhoso&quot;[2147483647]</text>
<polygon fill="none" stroke="#000000" points="288.5,-147.2 288.5,-169.2 417.5,-169.2 417.5,-147.2 288.5,-147.2"/>
<text text-anchor="start" x="308.5" y="-154.3" font-family="Helvetica,sans-Serif" font-size="11.00" fill="#000000">doador_de_orgaos</text>
<polygon fill="none" stroke="#000000" points="417.5,-147.2 417.5,-169.2 651.5,-169.2 651.5,-147.2 417.5,-147.2"/>
<text text-anchor="start" x="420.5" y="-154.9" font-family="Helvetica,sans-Serif" font-size="11.00" fill="#000000">bool[1]</text>
<polygon fill="none" stroke="#000000" points="288.5,-125.2 288.5,-147.2 417.5,-147.2 417.5,-125.2 288.5,-125.2"/>
<text text-anchor="start" x="308.5" y="-132.3" font-family="Helvetica,sans-Serif" font-size="11.00" fill="#000000">estatura</text>
<polygon fill="none" stroke="#000000" points="417.5,-125.2 417.5,-147.2 651.5,-147.2 651.5,-125.2 417.5,-125.2"/>
<text text-anchor="start" x="420.5" y="-132.9" font-family="Helvetica,sans-Serif" font-size="11.00" fill="#000000">numeric[0]</text>
<polygon fill="none" stroke="#000000" points="288.5,-103.2 288.5,-125.2 417.5,-125.2 417.5,-103.2 288.5,-103.2"/>
<text text-anchor="start" x="308.5" y="-110.3" font-family="Helvetica,sans-Serif" font-size="11.00" fill="#000000">habilidade_motora</text>
<polygon fill="none" stroke="#000000" points="417.5,-103.2 417.5,-125.2 651.5,-125.2 651.5,-103.2 417.5,-103.2"/>
<text text-anchor="start" x="420.0115" y="-110.9" font-family="Helvetica,sans-Serif" font-size="11.00" fill="#000000">&quot;educacao&quot;.&quot;habilidadesmotoras&quot;[2147483647]</text>
<polygon fill="none" stroke="#000000" points="288.5,-81.2 288.5,-103.2 417.5,-103.2 417.5,-81.2 288.5,-81.2"/>
<text text-anchor="start" x="308.5" y="-88.3" font-family="Helvetica,sans-Serif" font-size="11.00" fill="#000000">numero_reservista</text>
<polygon fill="none" stroke="#000000" points="417.5,-81.2 417.5,-103.2 651.5,-103.2 651.5,-81.2 417.5,-81.2"/>
<text text-anchor="start" x="420.5" y="-88.9" font-family="Helvetica,sans-Serif" font-size="11.00" fill="#000000">varchar[15]</text>
<polygon fill="none" stroke="#000000" points="288.5,-59.2 288.5,-81.2 417.5,-81.2 417.5,-59.2 288.5,-59.2"/>
<text text-anchor="start" x="308.5" y="-66.3" font-family="Helvetica,sans-Serif" font-size="11.00" fill="#000000">peso</text>
<polygon fill="none" stroke="#000000" points="417.5,-59.2 417.5,-81.2 651.5,-81.2 651.5,-59.2 417.5,-59.2"/>
<text text-anchor="start" x="420.5" y="-66.9" font-family="Helvetica,sans-Serif" font-size="11.00" fill="#000000">numeric[0]</text>
<polygon fill="#ffffff" stroke="transparent" points="288.5,-40.2 288.5,-59.2 357.5,-59.2 357.5,-40.2 288.5,-40.2"/>
<polygon fill="none" stroke="#000000" points="288.5,-40.2 288.5,-59.2 357.5,-59.2 357.5,-40.2 288.5,-40.2"/>
<text text-anchor="start" x="291.5" y="-46.3" font-family="Helvetica,sans-Serif" font-size="11.00" fill="#000000">&lt; 2</text>
<polygon fill="#ffffff" stroke="transparent" points="357.5,-40.2 357.5,-59.2 417.5,-59.2 417.5,-40.2 357.5,-40.2"/>
<polygon fill="none" stroke="#000000" points="357.5,-40.2 357.5,-59.2 417.5,-59.2 417.5,-40.2 357.5,-40.2"/>
<text text-anchor="start" x="408.3862" y="-46.3" font-family="Helvetica,sans-Serif" font-size="11.00" fill="#000000"> &#160;</text>
<polygon fill="#ffffff" stroke="transparent" points="417.5,-40.2 417.5,-59.2 651.5,-59.2 651.5,-40.2 417.5,-40.2"/>
<polygon fill="none" stroke="#000000" points="417.5,-40.2 417.5,-59.2 651.5,-59.2 651.5,-40.2 417.5,-40.2"/>
<text text-anchor="start" x="632.9053" y="-46.3" font-family="Helvetica,sans-Serif" font-size="11.00" fill="#000000">0 &gt;</text>
<polygon fill="none" stroke="#000000" stroke-width="2" points="287,-39.2 287,-457.2 652,-457.2 652,-39.2 287,-39.2"/>
</a>
</g>
</g>
<!-- inscricao_lista_espera_situacoes -->
<g id="node2" class="node">
<title>inscricao_lista_espera_situacoes</title>
<g id="a_node2"><a xlink:href="../../tables/inscricao_lista_espera_situacoes.html" xlink:title="inscricao_lista_espera_situacoes" target="_top">
<polygon fill="#ffffff" stroke="transparent" points="8,-252.7 8,-335.7 237,-335.7 237,-252.7 8,-252.7"/>
<polygon fill="#f5f5f5" stroke="transparent" points="8.5,-312.2 8.5,-335.2 237.5,-335.2 237.5,-312.2 8.5,-312.2"/>
<polygon fill="none" stroke="#000000" points="8.5,-312.2 8.5,-335.2 237.5,-335.2 237.5,-312.2 8.5,-312.2"/>
<text text-anchor="start" x="13.5" y="-320.8" font-family="Helvetica,sans-Serif" font-weight="bold" font-size="11.00" fill="#000000">inscricao_lista_espera_situacoes</text>
<text text-anchor="start" x="203.0219" y="-320.3" font-family="Helvetica,sans-Serif" font-size="11.00" fill="#000000">[table]</text>
<polygon fill="none" stroke="#000000" points="8.5,-290.2 8.5,-312.2 237.5,-312.2 237.5,-290.2 8.5,-290.2"/>
<image xlink:href="../../images/primaryKeys.png" width="11px" height="12px" preserveAspectRatio="xMinYMin meet" x="13.5" y="-307.2"/>
<text text-anchor="start" x="37.5" y="-297.3" font-family="Helvetica,sans-Serif" font-size="11.00" fill="#000000">id</text>
<polygon fill="none" stroke="#000000" points="8.5,-271.2 8.5,-290.2 237.5,-290.2 237.5,-271.2 8.5,-271.2"/>
<text text-anchor="start" x="11.5" y="-277.3" font-family="Helvetica,sans-Serif" font-size="11.00" fill="#000000">...</text>
<polygon fill="#ffffff" stroke="transparent" points="8.5,-252.2 8.5,-271.2 106.5,-271.2 106.5,-252.2 8.5,-252.2"/>
<polygon fill="none" stroke="#000000" points="8.5,-252.2 8.5,-271.2 106.5,-271.2 106.5,-252.2 8.5,-252.2"/>
<text text-anchor="start" x="11.5" y="-258.3" font-family="Helvetica,sans-Serif" font-size="11.00" fill="#000000"> &#160;</text>
<polygon fill="#ffffff" stroke="transparent" points="106.5,-252.2 106.5,-271.2 161.5,-271.2 161.5,-252.2 106.5,-252.2"/>
<polygon fill="none" stroke="#000000" points="106.5,-252.2 106.5,-271.2 161.5,-271.2 161.5,-252.2 106.5,-252.2"/>
<text text-anchor="start" x="152.3862" y="-258.3" font-family="Helvetica,sans-Serif" font-size="11.00" fill="#000000"> &#160;</text>
<polygon fill="#ffffff" stroke="transparent" points="161.5,-252.2 161.5,-271.2 237.5,-271.2 237.5,-252.2 161.5,-252.2"/>
<polygon fill="none" stroke="#000000" points="161.5,-252.2 161.5,-271.2 237.5,-271.2 237.5,-252.2 161.5,-252.2"/>
<text text-anchor="start" x="206.6755" y="-258.3" font-family="Helvetica,sans-Serif" font-size="11.00" fill="#000000">596 &gt;</text>
</a>
</g>
</g>
<!-- complementos&#45;&gt;inscricao_lista_espera_situacoes -->
<g id="edge1" class="edge">
<title>complementos:w&#45;&gt;inscricao_lista_espera_situacoes:e</title>
<path fill="none" stroke="#000000" stroke-dasharray="5,2" d="M274.0097,-291.9188C261.8398,-295.0125 254.8909,-301.2 237.5,-301.2"/>
<polygon fill="#000000" stroke="#000000" points="280.5557,-291.1424 288.9241,-293.7749 284.5278,-290.6712 288.5,-290.2 288.5,-290.2 288.5,-290.2 284.5278,-290.6712 288.0759,-286.6251 280.5557,-291.1424 280.5557,-291.1424"/>
<ellipse fill="none" stroke="#000000" cx="277.378" cy="-291.5193" rx="3.2" ry="3.2"/>
</g>
<!-- complementos&#45;&gt;inscricao_lista_espera_situacoes -->
<g id="edge2" class="edge">
<title>complementos:w&#45;&gt;inscricao_lista_espera_situacoes:e</title>
<path fill="none" stroke="#000000" stroke-dasharray="5,2" d="M274.0097,-310.4813C261.8398,-307.3875 254.8909,-301.2 237.5,-301.2"/>
<polygon fill="#000000" stroke="#000000" points="280.5557,-311.2576 288.0759,-315.7749 284.5278,-311.7288 288.5,-312.2 288.5,-312.2 288.5,-312.2 284.5278,-311.7288 288.9241,-308.6251 280.5557,-311.2576 280.5557,-311.2576"/>
<ellipse fill="none" stroke="#000000" cx="277.378" cy="-310.8807" rx="3.2" ry="3.2"/>
</g>
</g>
</svg>
