<?xml version="1.0" encoding="UTF-8" standalone="no"?>
<!DOCTYPE svg PUBLIC "-//W3C//DTD SVG 1.1//EN"
 "http://www.w3.org/Graphics/SVG/1.1/DTD/svg11.dtd">
<!-- Generated by graphviz version 2.40.1 (20161225.0304)
 -->
<!-- Title: oneDegreeRelationshipsDiagram Pages: 1 -->
<svg width="391pt" height="470pt"
 viewBox="0.00 0.00 391.00 470.20" xmlns="http://www.w3.org/2000/svg" xmlns:xlink="http://www.w3.org/1999/xlink">
<g id="graph0" class="graph" transform="scale(1 1) rotate(0) translate(4 466.2)">
<title>oneDegreeRelationshipsDiagram</title>
<polygon fill="#ffffff" stroke="transparent" points="-4,4 -4,-466.2 387,-466.2 387,4 -4,4"/>
<text text-anchor="middle" x="72.4936" y="-7.3" font-family="Helvetica,sans-Serif" font-size="11.00" fill="#000000">Generated by SchemaSpy</text>
<!-- complementos -->
<g id="node1" class="node">
<title>complementos</title>
<g id="a_node1"><a xlink:href="../../tables/complementos.html" xlink:title="complementos" target="_top">
<polygon fill="#ffffff" stroke="transparent" points="8,-38.2 8,-458.2 375,-458.2 375,-38.2 8,-38.2"/>
<polygon fill="#f5f5f5" stroke="transparent" points="10.5,-433.2 10.5,-456.2 373.5,-456.2 373.5,-433.2 10.5,-433.2"/>
<polygon fill="none" stroke="#000000" points="10.5,-433.2 10.5,-456.2 373.5,-456.2 373.5,-433.2 10.5,-433.2"/>
<text text-anchor="start" x="15.5" y="-441.8" font-family="Helvetica,sans-Serif" font-weight="bold" font-size="11.00" fill="#000000">complementos</text>
<text text-anchor="start" x="338.5437" y="-441.3" font-family="Helvetica,sans-Serif" font-size="11.00" fill="#000000">[table]</text>
<polygon fill="none" stroke="#000000" points="10.5,-411.2 10.5,-433.2 139.5,-433.2 139.5,-411.2 10.5,-411.2"/>
<text text-anchor="start" x="30.5" y="-418.3" font-family="Helvetica,sans-Serif" font-size="11.00" fill="#000000">sistema</text>
<polygon fill="none" stroke="#000000" points="139.5,-411.2 139.5,-433.2 373.5,-433.2 373.5,-411.2 139.5,-411.2"/>
<text text-anchor="start" x="142.5" y="-418.9" font-family="Helvetica,sans-Serif" font-size="11.00" fill="#000000">int4[10]</text>
<polygon fill="none" stroke="#000000" points="10.5,-389.2 10.5,-411.2 139.5,-411.2 139.5,-389.2 10.5,-389.2"/>
<text text-anchor="start" x="30.5" y="-396.3" font-family="Helvetica,sans-Serif" font-size="11.00" fill="#000000">tipo_registro</text>
<polygon fill="none" stroke="#000000" points="139.5,-389.2 139.5,-411.2 373.5,-411.2 373.5,-389.2 139.5,-389.2"/>
<text text-anchor="start" x="142.5" y="-396.9" font-family="Helvetica,sans-Serif" font-size="11.00" fill="#000000">text[2147483647]</text>
<polygon fill="none" stroke="#000000" points="10.5,-367.2 10.5,-389.2 139.5,-389.2 139.5,-367.2 10.5,-367.2"/>
<text text-anchor="start" x="30.5" y="-374.3" font-family="Helvetica,sans-Serif" font-size="11.00" fill="#000000">id_integracao</text>
<polygon fill="none" stroke="#000000" points="139.5,-367.2 139.5,-389.2 373.5,-389.2 373.5,-367.2 139.5,-367.2"/>
<text text-anchor="start" x="142.5" y="-374.9" font-family="Helvetica,sans-Serif" font-size="11.00" fill="#000000">varchar[2147483647]</text>
<polygon fill="none" stroke="#000000" points="10.5,-345.2 10.5,-367.2 139.5,-367.2 139.5,-345.2 10.5,-345.2"/>
<text text-anchor="start" x="30.5" y="-352.3" font-family="Helvetica,sans-Serif" font-size="11.00" fill="#000000">id_origem</text>
<polygon fill="none" stroke="#000000" points="139.5,-345.2 139.5,-367.2 373.5,-367.2 373.5,-345.2 139.5,-345.2"/>
<text text-anchor="start" x="142.5" y="-352.9" font-family="Helvetica,sans-Serif" font-size="11.00" fill="#000000">int4[10]</text>
<polygon fill="none" stroke="#000000" points="10.5,-323.2 10.5,-345.2 139.5,-345.2 139.5,-323.2 10.5,-323.2"/>
<text text-anchor="start" x="30.5" y="-330.3" font-family="Helvetica,sans-Serif" font-size="11.00" fill="#000000">id_cloud</text>
<polygon fill="none" stroke="#000000" points="139.5,-323.2 139.5,-345.2 373.5,-345.2 373.5,-323.2 139.5,-323.2"/>
<text text-anchor="start" x="142.5" y="-330.9" font-family="Helvetica,sans-Serif" font-size="11.00" fill="#000000">int4[10]</text>
<polygon fill="none" stroke="#000000" points="10.5,-301.2 10.5,-323.2 139.5,-323.2 139.5,-301.2 10.5,-301.2"/>
<image xlink:href="../../images/foreignKeys.png" width="11px" height="12px" preserveAspectRatio="xMinYMin meet" x="15.5" y="-318.2"/>
<text text-anchor="start" x="30.5" y="-308.3" font-family="Helvetica,sans-Serif" font-size="11.00" fill="#000000">pessoa_origem_id</text>
<polygon fill="none" stroke="#000000" points="139.5,-301.2 139.5,-323.2 373.5,-323.2 373.5,-301.2 139.5,-301.2"/>
<text text-anchor="start" x="142.5" y="-308.9" font-family="Helvetica,sans-Serif" font-size="11.00" fill="#000000">int4[10]</text>
<polygon fill="none" stroke="#000000" points="10.5,-279.2 10.5,-301.2 139.5,-301.2 139.5,-279.2 10.5,-279.2"/>
<image xlink:href="../../images/foreignKeys.png" width="11px" height="12px" preserveAspectRatio="xMinYMin meet" x="15.5" y="-296.2"/>
<text text-anchor="start" x="30.5" y="-286.3" font-family="Helvetica,sans-Serif" font-size="11.00" fill="#000000">pessoa_cloud_id</text>
<polygon fill="none" stroke="#000000" points="139.5,-279.2 139.5,-301.2 373.5,-301.2 373.5,-279.2 139.5,-279.2"/>
<text text-anchor="start" x="142.5" y="-286.9" font-family="Helvetica,sans-Serif" font-size="11.00" fill="#000000">int4[10]</text>
<polygon fill="none" stroke="#000000" points="10.5,-257.2 10.5,-279.2 139.5,-279.2 139.5,-257.2 10.5,-257.2"/>
<text text-anchor="start" x="30.5" y="-264.3" font-family="Helvetica,sans-Serif" font-size="11.00" fill="#000000">zona_eleitoral</text>
<polygon fill="none" stroke="#000000" points="139.5,-257.2 139.5,-279.2 373.5,-279.2 373.5,-257.2 139.5,-257.2"/>
<text text-anchor="start" x="142.5" y="-264.9" font-family="Helvetica,sans-Serif" font-size="11.00" fill="#000000">varchar[3]</text>
<polygon fill="none" stroke="#000000" points="10.5,-235.2 10.5,-257.2 139.5,-257.2 139.5,-235.2 10.5,-235.2"/>
<text text-anchor="start" x="30.5" y="-242.3" font-family="Helvetica,sans-Serif" font-size="11.00" fill="#000000">secao_eleitoral</text>
<polygon fill="none" stroke="#000000" points="139.5,-235.2 139.5,-257.2 373.5,-257.2 373.5,-235.2 139.5,-235.2"/>
<text text-anchor="start" x="142.5" y="-242.9" font-family="Helvetica,sans-Serif" font-size="11.00" fill="#000000">varchar[4]</text>
<polygon fill="none" stroke="#000000" points="10.5,-213.2 10.5,-235.2 139.5,-235.2 139.5,-213.2 10.5,-213.2"/>
<text text-anchor="start" x="30.5" y="-220.3" font-family="Helvetica,sans-Serif" font-size="11.00" fill="#000000">titulo_eleitor</text>
<polygon fill="none" stroke="#000000" points="139.5,-213.2 139.5,-235.2 373.5,-235.2 373.5,-213.2 139.5,-213.2"/>
<text text-anchor="start" x="142.5" y="-220.9" font-family="Helvetica,sans-Serif" font-size="11.00" fill="#000000">varchar[16]</text>
<polygon fill="none" stroke="#000000" points="10.5,-191.2 10.5,-213.2 139.5,-213.2 139.5,-191.2 10.5,-191.2"/>
<text text-anchor="start" x="30.5" y="-198.3" font-family="Helvetica,sans-Serif" font-size="11.00" fill="#000000">raca</text>
<polygon fill="none" stroke="#000000" points="139.5,-191.2 139.5,-213.2 373.5,-213.2 373.5,-191.2 139.5,-191.2"/>
<text text-anchor="start" x="142.5" y="-198.9" font-family="Helvetica,sans-Serif" font-size="11.00" fill="#000000">&quot;educacao&quot;.&quot;racas&quot;[2147483647]</text>
<polygon fill="none" stroke="#000000" points="10.5,-169.2 10.5,-191.2 139.5,-191.2 139.5,-169.2 10.5,-169.2"/>
<text text-anchor="start" x="30.5" y="-176.3" font-family="Helvetica,sans-Serif" font-size="11.00" fill="#000000">cor_dos_olhos</text>
<polygon fill="none" stroke="#000000" points="139.5,-169.2 139.5,-191.2 373.5,-191.2 373.5,-169.2 139.5,-169.2"/>
<text text-anchor="start" x="142.5" y="-176.9" font-family="Helvetica,sans-Serif" font-size="11.00" fill="#000000">&quot;educacao&quot;.&quot;coresdosolhoso&quot;[2147483647]</text>
<polygon fill="none" stroke="#000000" points="10.5,-147.2 10.5,-169.2 139.5,-169.2 139.5,-147.2 10.5,-147.2"/>
<text text-anchor="start" x="30.5" y="-154.3" font-family="Helvetica,sans-Serif" font-size="11.00" fill="#000000">doador_de_orgaos</text>
<polygon fill="none" stroke="#000000" points="139.5,-147.2 139.5,-169.2 373.5,-169.2 373.5,-147.2 139.5,-147.2"/>
<text text-anchor="start" x="142.5" y="-154.9" font-family="Helvetica,sans-Serif" font-size="11.00" fill="#000000">bool[1]</text>
<polygon fill="none" stroke="#000000" points="10.5,-125.2 10.5,-147.2 139.5,-147.2 139.5,-125.2 10.5,-125.2"/>
<text text-anchor="start" x="30.5" y="-132.3" font-family="Helvetica,sans-Serif" font-size="11.00" fill="#000000">estatura</text>
<polygon fill="none" stroke="#000000" points="139.5,-125.2 139.5,-147.2 373.5,-147.2 373.5,-125.2 139.5,-125.2"/>
<text text-anchor="start" x="142.5" y="-132.9" font-family="Helvetica,sans-Serif" font-size="11.00" fill="#000000">numeric[0]</text>
<polygon fill="none" stroke="#000000" points="10.5,-103.2 10.5,-125.2 139.5,-125.2 139.5,-103.2 10.5,-103.2"/>
<text text-anchor="start" x="30.5" y="-110.3" font-family="Helvetica,sans-Serif" font-size="11.00" fill="#000000">habilidade_motora</text>
<polygon fill="none" stroke="#000000" points="139.5,-103.2 139.5,-125.2 373.5,-125.2 373.5,-103.2 139.5,-103.2"/>
<text text-anchor="start" x="142.0114" y="-110.9" font-family="Helvetica,sans-Serif" font-size="11.00" fill="#000000">&quot;educacao&quot;.&quot;habilidadesmotoras&quot;[2147483647]</text>
<polygon fill="none" stroke="#000000" points="10.5,-81.2 10.5,-103.2 139.5,-103.2 139.5,-81.2 10.5,-81.2"/>
<text text-anchor="start" x="30.5" y="-88.3" font-family="Helvetica,sans-Serif" font-size="11.00" fill="#000000">numero_reservista</text>
<polygon fill="none" stroke="#000000" points="139.5,-81.2 139.5,-103.2 373.5,-103.2 373.5,-81.2 139.5,-81.2"/>
<text text-anchor="start" x="142.5" y="-88.9" font-family="Helvetica,sans-Serif" font-size="11.00" fill="#000000">varchar[15]</text>
<polygon fill="none" stroke="#000000" points="10.5,-59.2 10.5,-81.2 139.5,-81.2 139.5,-59.2 10.5,-59.2"/>
<text text-anchor="start" x="30.5" y="-66.3" font-family="Helvetica,sans-Serif" font-size="11.00" fill="#000000">peso</text>
<polygon fill="none" stroke="#000000" points="139.5,-59.2 139.5,-81.2 373.5,-81.2 373.5,-59.2 139.5,-59.2"/>
<text text-anchor="start" x="142.5" y="-66.9" font-family="Helvetica,sans-Serif" font-size="11.00" fill="#000000">numeric[0]</text>
<polygon fill="#ffffff" stroke="transparent" points="10.5,-40.2 10.5,-59.2 79.5,-59.2 79.5,-40.2 10.5,-40.2"/>
<polygon fill="none" stroke="#000000" points="10.5,-40.2 10.5,-59.2 79.5,-59.2 79.5,-40.2 10.5,-40.2"/>
<text text-anchor="start" x="13.5" y="-46.3" font-family="Helvetica,sans-Serif" font-size="11.00" fill="#000000">&lt; 0</text>
<polygon fill="#ffffff" stroke="transparent" points="79.5,-40.2 79.5,-59.2 139.5,-59.2 139.5,-40.2 79.5,-40.2"/>
<polygon fill="none" stroke="#000000" points="79.5,-40.2 79.5,-59.2 139.5,-59.2 139.5,-40.2 79.5,-40.2"/>
<text text-anchor="start" x="130.3862" y="-46.3" font-family="Helvetica,sans-Serif" font-size="11.00" fill="#000000"> &#160;</text>
<polygon fill="#ffffff" stroke="transparent" points="139.5,-40.2 139.5,-59.2 373.5,-59.2 373.5,-40.2 139.5,-40.2"/>
<polygon fill="none" stroke="#000000" points="139.5,-40.2 139.5,-59.2 373.5,-59.2 373.5,-40.2 139.5,-40.2"/>
<text text-anchor="start" x="354.9053" y="-46.3" font-family="Helvetica,sans-Serif" font-size="11.00" fill="#000000">0 &gt;</text>
<polygon fill="none" stroke="#000000" stroke-width="2" points="9,-39.2 9,-457.2 374,-457.2 374,-39.2 9,-39.2"/>
</a>
</g>
</g>
</g>
</svg>
