<?xml version="1.0" encoding="UTF-8" standalone="no"?>
<!DOCTYPE svg PUBLIC "-//W3C//DTD SVG 1.1//EN"
 "http://www.w3.org/Graphics/SVG/1.1/DTD/svg11.dtd">
<!-- Generated by graphviz version 2.40.1 (20161225.0304)
 -->
<!-- Title: oneDegreeRelationshipsDiagram Pages: 1 -->
<svg width="570pt" height="602pt"
 viewBox="0.00 0.00 570.00 602.20" xmlns="http://www.w3.org/2000/svg" xmlns:xlink="http://www.w3.org/1999/xlink">
<g id="graph0" class="graph" transform="scale(1 1) rotate(0) translate(4 598.2)">
<title>oneDegreeRelationshipsDiagram</title>
<polygon fill="#ffffff" stroke="transparent" points="-4,4 -4,-598.2 566,-598.2 566,4 -4,4"/>
<text text-anchor="middle" x="72.4936" y="-7.3" font-family="Helvetica,sans-Serif" font-size="11.00" fill="#000000">Generated by SchemaSpy</text>
<!-- configuracoes_lista_espera -->
<g id="node1" class="node">
<title>configuracoes_lista_espera</title>
<g id="a_node1"><a xlink:href="../../tables/configuracoes_lista_espera.html" xlink:title="configuracoes_lista_espera" target="_top">
<polygon fill="#ffffff" stroke="transparent" points="8,-38.2 8,-590.2 554,-590.2 554,-38.2 8,-38.2"/>
<polygon fill="#f5f5f5" stroke="transparent" points="10,-565.2 10,-588.2 552,-588.2 552,-565.2 10,-565.2"/>
<polygon fill="none" stroke="#000000" points="10,-565.2 10,-588.2 552,-588.2 552,-565.2 10,-565.2"/>
<text text-anchor="start" x="15" y="-573.8" font-family="Helvetica,sans-Serif" font-weight="bold" font-size="11.00" fill="#000000">configuracoes_lista_espera</text>
<text text-anchor="start" x="517.0437" y="-573.3" font-family="Helvetica,sans-Serif" font-size="11.00" fill="#000000">[table]</text>
<polygon fill="none" stroke="#000000" points="10,-543.2 10,-565.2 263,-565.2 263,-543.2 10,-543.2"/>
<text text-anchor="start" x="30" y="-550.3" font-family="Helvetica,sans-Serif" font-size="11.00" fill="#000000">sistema</text>
<polygon fill="none" stroke="#000000" points="263,-543.2 263,-565.2 552,-565.2 552,-543.2 263,-543.2"/>
<text text-anchor="start" x="266" y="-550.9" font-family="Helvetica,sans-Serif" font-size="11.00" fill="#000000">int4[10]</text>
<polygon fill="none" stroke="#000000" points="10,-521.2 10,-543.2 263,-543.2 263,-521.2 10,-521.2"/>
<text text-anchor="start" x="30" y="-528.3" font-family="Helvetica,sans-Serif" font-size="11.00" fill="#000000">tipo_registro</text>
<polygon fill="none" stroke="#000000" points="263,-521.2 263,-543.2 552,-543.2 552,-521.2 263,-521.2"/>
<text text-anchor="start" x="266" y="-528.9" font-family="Helvetica,sans-Serif" font-size="11.00" fill="#000000">text[2147483647]</text>
<polygon fill="none" stroke="#000000" points="10,-499.2 10,-521.2 263,-521.2 263,-499.2 10,-499.2"/>
<text text-anchor="start" x="30" y="-506.3" font-family="Helvetica,sans-Serif" font-size="11.00" fill="#000000">id_origem</text>
<polygon fill="none" stroke="#000000" points="263,-499.2 263,-521.2 552,-521.2 552,-499.2 263,-499.2"/>
<text text-anchor="start" x="266" y="-506.9" font-family="Helvetica,sans-Serif" font-size="11.00" fill="#000000">int4[10]</text>
<polygon fill="none" stroke="#000000" points="10,-477.2 10,-499.2 263,-499.2 263,-477.2 10,-477.2"/>
<text text-anchor="start" x="30" y="-484.3" font-family="Helvetica,sans-Serif" font-size="11.00" fill="#000000">id_cloud</text>
<polygon fill="none" stroke="#000000" points="263,-477.2 263,-499.2 552,-499.2 552,-477.2 263,-477.2"/>
<text text-anchor="start" x="266" y="-484.9" font-family="Helvetica,sans-Serif" font-size="11.00" fill="#000000">varchar[2147483647]</text>
<polygon fill="none" stroke="#000000" points="10,-455.2 10,-477.2 263,-477.2 263,-455.2 10,-455.2"/>
<image xlink:href="../../images/foreignKeys.png" width="11px" height="12px" preserveAspectRatio="xMinYMin meet" x="15" y="-472.2"/>
<text text-anchor="start" x="30" y="-462.3" font-family="Helvetica,sans-Serif" font-size="11.00" fill="#000000">ano_letivo_origem_id</text>
<polygon fill="none" stroke="#000000" points="263,-455.2 263,-477.2 552,-477.2 552,-455.2 263,-455.2"/>
<text text-anchor="start" x="266" y="-462.9" font-family="Helvetica,sans-Serif" font-size="11.00" fill="#000000">int4[10]</text>
<polygon fill="none" stroke="#000000" points="10,-433.2 10,-455.2 263,-455.2 263,-433.2 10,-433.2"/>
<image xlink:href="../../images/foreignKeys.png" width="11px" height="12px" preserveAspectRatio="xMinYMin meet" x="15" y="-450.2"/>
<text text-anchor="start" x="30" y="-440.3" font-family="Helvetica,sans-Serif" font-size="11.00" fill="#000000">ano_letivo_cloud_id</text>
<polygon fill="none" stroke="#000000" points="263,-433.2 263,-455.2 552,-455.2 552,-433.2 263,-433.2"/>
<text text-anchor="start" x="266" y="-440.9" font-family="Helvetica,sans-Serif" font-size="11.00" fill="#000000">int4[10]</text>
<polygon fill="none" stroke="#000000" points="10,-411.2 10,-433.2 263,-433.2 263,-411.2 10,-411.2"/>
<text text-anchor="start" x="30" y="-418.3" font-family="Helvetica,sans-Serif" font-size="11.00" fill="#000000">descricao</text>
<polygon fill="none" stroke="#000000" points="263,-411.2 263,-433.2 552,-433.2 552,-411.2 263,-411.2"/>
<text text-anchor="start" x="266" y="-418.9" font-family="Helvetica,sans-Serif" font-size="11.00" fill="#000000">varchar[2147483647]</text>
<polygon fill="none" stroke="#000000" points="10,-389.2 10,-411.2 263,-411.2 263,-389.2 10,-389.2"/>
<text text-anchor="start" x="30" y="-396.3" font-family="Helvetica,sans-Serif" font-size="11.00" fill="#000000">classificacoes</text>
<polygon fill="none" stroke="#000000" points="263,-389.2 263,-411.2 552,-411.2 552,-389.2 263,-389.2"/>
<text text-anchor="start" x="265.5092" y="-396.9" font-family="Helvetica,sans-Serif" font-size="11.00" fill="#000000">&quot;educacao&quot;.&quot;_tiposclassificacoeslistaespera&quot;[2147483647]</text>
<polygon fill="none" stroke="#000000" points="10,-367.2 10,-389.2 263,-389.2 263,-367.2 10,-367.2"/>
<text text-anchor="start" x="30" y="-374.3" font-family="Helvetica,sans-Serif" font-size="11.00" fill="#000000">permite_registro_outro_estabelecimento</text>
<polygon fill="none" stroke="#000000" points="263,-367.2 263,-389.2 552,-389.2 552,-367.2 263,-367.2"/>
<text text-anchor="start" x="266" y="-374.9" font-family="Helvetica,sans-Serif" font-size="11.00" fill="#000000">bool[1]</text>
<polygon fill="none" stroke="#000000" points="10,-345.2 10,-367.2 263,-367.2 263,-345.2 10,-345.2"/>
<text text-anchor="start" x="30" y="-352.3" font-family="Helvetica,sans-Serif" font-size="11.00" fill="#000000">endereco_area_abrangencia</text>
<polygon fill="none" stroke="#000000" points="263,-345.2 263,-367.2 552,-367.2 552,-345.2 263,-345.2"/>
<text text-anchor="start" x="266" y="-352.9" font-family="Helvetica,sans-Serif" font-size="11.00" fill="#000000">bool[1]</text>
<polygon fill="none" stroke="#000000" points="10,-323.2 10,-345.2 263,-345.2 263,-323.2 10,-323.2"/>
<text text-anchor="start" x="30" y="-330.3" font-family="Helvetica,sans-Serif" font-size="11.00" fill="#000000">permite_alterar_data_hora</text>
<polygon fill="none" stroke="#000000" points="263,-323.2 263,-345.2 552,-345.2 552,-323.2 263,-323.2"/>
<text text-anchor="start" x="266" y="-330.9" font-family="Helvetica,sans-Serif" font-size="11.00" fill="#000000">bool[1]</text>
<polygon fill="none" stroke="#000000" points="10,-301.2 10,-323.2 263,-323.2 263,-301.2 10,-301.2"/>
<text text-anchor="start" x="30" y="-308.3" font-family="Helvetica,sans-Serif" font-size="11.00" fill="#000000">tipo_alteracao_data_hora_list</text>
<polygon fill="none" stroke="#000000" points="263,-301.2 263,-323.2 552,-323.2 552,-301.2 263,-301.2"/>
<text text-anchor="start" x="266" y="-308.9" font-family="Helvetica,sans-Serif" font-size="11.00" fill="#000000">&quot;educacao&quot;.&quot;_tiposalteracaodatahora&quot;[2147483647]</text>
<polygon fill="none" stroke="#000000" points="10,-279.2 10,-301.2 263,-301.2 263,-279.2 10,-279.2"/>
<text text-anchor="start" x="30" y="-286.3" font-family="Helvetica,sans-Serif" font-size="11.00" fill="#000000">atualiza_data_criterios</text>
<polygon fill="none" stroke="#000000" points="263,-279.2 263,-301.2 552,-301.2 552,-279.2 263,-279.2"/>
<text text-anchor="start" x="266" y="-286.9" font-family="Helvetica,sans-Serif" font-size="11.00" fill="#000000">bool[1]</text>
<polygon fill="none" stroke="#000000" points="10,-257.2 10,-279.2 263,-279.2 263,-257.2 10,-257.2"/>
<text text-anchor="start" x="30" y="-264.3" font-family="Helvetica,sans-Serif" font-size="11.00" fill="#000000">qtd_estabelecimentos</text>
<polygon fill="none" stroke="#000000" points="263,-257.2 263,-279.2 552,-279.2 552,-257.2 263,-257.2"/>
<text text-anchor="start" x="266" y="-264.9" font-family="Helvetica,sans-Serif" font-size="11.00" fill="#000000">int4[10]</text>
<polygon fill="none" stroke="#000000" points="10,-235.2 10,-257.2 263,-257.2 263,-235.2 10,-235.2"/>
<text text-anchor="start" x="30" y="-242.3" font-family="Helvetica,sans-Serif" font-size="11.00" fill="#000000">qtd_turnos</text>
<polygon fill="none" stroke="#000000" points="263,-235.2 263,-257.2 552,-257.2 552,-235.2 263,-235.2"/>
<text text-anchor="start" x="266" y="-242.9" font-family="Helvetica,sans-Serif" font-size="11.00" fill="#000000">int4[10]</text>
<polygon fill="none" stroke="#000000" points="10,-213.2 10,-235.2 263,-235.2 263,-213.2 10,-213.2"/>
<text text-anchor="start" x="30" y="-220.3" font-family="Helvetica,sans-Serif" font-size="11.00" fill="#000000">mensagem</text>
<polygon fill="none" stroke="#000000" points="263,-213.2 263,-235.2 552,-235.2 552,-213.2 263,-213.2"/>
<text text-anchor="start" x="266" y="-220.9" font-family="Helvetica,sans-Serif" font-size="11.00" fill="#000000">varchar[2147483647]</text>
<polygon fill="none" stroke="#000000" points="10,-191.2 10,-213.2 263,-213.2 263,-191.2 10,-191.2"/>
<text text-anchor="start" x="30" y="-198.3" font-family="Helvetica,sans-Serif" font-size="11.00" fill="#000000">inativo</text>
<polygon fill="none" stroke="#000000" points="263,-191.2 263,-213.2 552,-213.2 552,-191.2 263,-191.2"/>
<text text-anchor="start" x="266" y="-198.9" font-family="Helvetica,sans-Serif" font-size="11.00" fill="#000000">bool[1]</text>
<polygon fill="none" stroke="#000000" points="10,-169.2 10,-191.2 263,-191.2 263,-169.2 10,-169.2"/>
<text text-anchor="start" x="30" y="-176.3" font-family="Helvetica,sans-Serif" font-size="11.00" fill="#000000">online</text>
<polygon fill="none" stroke="#000000" points="263,-169.2 263,-191.2 552,-191.2 552,-169.2 263,-169.2"/>
<text text-anchor="start" x="266" y="-176.9" font-family="Helvetica,sans-Serif" font-size="11.00" fill="#000000">bool[1]</text>
<polygon fill="none" stroke="#000000" points="10,-147.2 10,-169.2 263,-169.2 263,-147.2 10,-147.2"/>
<text text-anchor="start" x="30" y="-154.3" font-family="Helvetica,sans-Serif" font-size="11.00" fill="#000000">url_inscricao</text>
<polygon fill="none" stroke="#000000" points="263,-147.2 263,-169.2 552,-169.2 552,-147.2 263,-147.2"/>
<text text-anchor="start" x="266" y="-154.9" font-family="Helvetica,sans-Serif" font-size="11.00" fill="#000000">varchar[2147483647]</text>
<polygon fill="none" stroke="#000000" points="10,-125.2 10,-147.2 263,-147.2 263,-125.2 10,-125.2"/>
<text text-anchor="start" x="30" y="-132.3" font-family="Helvetica,sans-Serif" font-size="11.00" fill="#000000">utiliza_criterios</text>
<polygon fill="none" stroke="#000000" points="263,-125.2 263,-147.2 552,-147.2 552,-125.2 263,-125.2"/>
<text text-anchor="start" x="266" y="-132.9" font-family="Helvetica,sans-Serif" font-size="11.00" fill="#000000">bool[1]</text>
<polygon fill="none" stroke="#000000" points="10,-103.2 10,-125.2 263,-125.2 263,-103.2 10,-103.2"/>
<text text-anchor="start" x="30" y="-110.3" font-family="Helvetica,sans-Serif" font-size="11.00" fill="#000000">ocultar_posicao</text>
<polygon fill="none" stroke="#000000" points="263,-103.2 263,-125.2 552,-125.2 552,-103.2 263,-103.2"/>
<text text-anchor="start" x="266" y="-110.9" font-family="Helvetica,sans-Serif" font-size="11.00" fill="#000000">bool[1]</text>
<polygon fill="none" stroke="#000000" points="10,-81.2 10,-103.2 263,-103.2 263,-81.2 10,-81.2"/>
<text text-anchor="start" x="30" y="-88.3" font-family="Helvetica,sans-Serif" font-size="11.00" fill="#000000">encaminhamento</text>
<polygon fill="none" stroke="#000000" points="263,-81.2 263,-103.2 552,-103.2 552,-81.2 263,-81.2"/>
<text text-anchor="start" x="266" y="-88.9" font-family="Helvetica,sans-Serif" font-size="11.00" fill="#000000">bool[1]</text>
<polygon fill="none" stroke="#000000" points="10,-59.2 10,-81.2 263,-81.2 263,-59.2 10,-59.2"/>
<text text-anchor="start" x="30" y="-66.3" font-family="Helvetica,sans-Serif" font-size="11.00" fill="#000000">qtd_dias_encaminhamento</text>
<polygon fill="none" stroke="#000000" points="263,-59.2 263,-81.2 552,-81.2 552,-59.2 263,-59.2"/>
<text text-anchor="start" x="266" y="-66.9" font-family="Helvetica,sans-Serif" font-size="11.00" fill="#000000">int4[10]</text>
<polygon fill="#ffffff" stroke="transparent" points="10,-40.2 10,-59.2 141,-59.2 141,-40.2 10,-40.2"/>
<polygon fill="none" stroke="#000000" points="10,-40.2 10,-59.2 141,-59.2 141,-40.2 10,-40.2"/>
<text text-anchor="start" x="13" y="-46.3" font-family="Helvetica,sans-Serif" font-size="11.00" fill="#000000">&lt; 0</text>
<polygon fill="#ffffff" stroke="transparent" points="141,-40.2 141,-59.2 263,-59.2 263,-40.2 141,-40.2"/>
<polygon fill="none" stroke="#000000" points="141,-40.2 141,-59.2 263,-59.2 263,-40.2 141,-40.2"/>
<text text-anchor="start" x="253.8862" y="-46.3" font-family="Helvetica,sans-Serif" font-size="11.00" fill="#000000"> &#160;</text>
<polygon fill="#ffffff" stroke="transparent" points="263,-40.2 263,-59.2 552,-59.2 552,-40.2 263,-40.2"/>
<polygon fill="none" stroke="#000000" points="263,-40.2 263,-59.2 552,-59.2 552,-40.2 263,-40.2"/>
<text text-anchor="start" x="533.4053" y="-46.3" font-family="Helvetica,sans-Serif" font-size="11.00" fill="#000000">0 &gt;</text>
<polygon fill="none" stroke="#000000" stroke-width="2" points="9,-39.2 9,-589.2 553,-589.2 553,-39.2 9,-39.2"/>
</a>
</g>
</g>
</g>
</svg>
