<?xml version="1.0" encoding="UTF-8" standalone="no"?>
<!DOCTYPE svg PUBLIC "-//W3C//DTD SVG 1.1//EN"
 "http://www.w3.org/Graphics/SVG/1.1/DTD/svg11.dtd">
<!-- Generated by graphviz version 2.40.1 (20161225.0304)
 -->
<!-- Title: oneDegreeRelationshipsDiagramImplied Pages: 1 -->
<svg width="694pt" height="272pt"
 viewBox="0.00 0.00 694.00 272.20" xmlns="http://www.w3.org/2000/svg" xmlns:xlink="http://www.w3.org/1999/xlink">
<g id="graph0" class="graph" transform="scale(1 1) rotate(0) translate(4 268.2)">
<title>oneDegreeRelationshipsDiagramImplied</title>
<polygon fill="#ffffff" stroke="transparent" points="-4,4 -4,-268.2 690,-268.2 690,4 -4,4"/>
<text text-anchor="middle" x="72.4936" y="-7.3" font-family="Helvetica,sans-Serif" font-size="11.00" fill="#000000">Generated by SchemaSpy</text>
<!-- configuracao_lista_espera_estabelecimentos -->
<g id="node1" class="node">
<title>configuracao_lista_espera_estabelecimentos</title>
<g id="a_node1"><a xlink:href="../../tables/configuracao_lista_espera_estab_c8f87880.html" xlink:title="configuracao_lista_espera_estabelecimentos" target="_top">
<polygon fill="#ffffff" stroke="transparent" points="286,-38.2 286,-260.2 678,-260.2 678,-38.2 286,-38.2"/>
<polygon fill="#f5f5f5" stroke="transparent" points="288,-235.2 288,-258.2 676,-258.2 676,-235.2 288,-235.2"/>
<polygon fill="none" stroke="#000000" points="288,-235.2 288,-258.2 676,-258.2 676,-235.2 288,-235.2"/>
<text text-anchor="start" x="293" y="-243.8" font-family="Helvetica,sans-Serif" font-weight="bold" font-size="11.00" fill="#000000">configuracao_lista_espera_estabelecimentos</text>
<text text-anchor="start" x="641.0437" y="-243.3" font-family="Helvetica,sans-Serif" font-size="11.00" fill="#000000">[table]</text>
<polygon fill="none" stroke="#000000" points="288,-213.2 288,-235.2 567,-235.2 567,-213.2 288,-213.2"/>
<text text-anchor="start" x="308" y="-220.3" font-family="Helvetica,sans-Serif" font-size="11.00" fill="#000000">sistema</text>
<polygon fill="none" stroke="#000000" points="567,-213.2 567,-235.2 676,-235.2 676,-213.2 567,-213.2"/>
<text text-anchor="start" x="570" y="-220.9" font-family="Helvetica,sans-Serif" font-size="11.00" fill="#000000">int4[10]</text>
<polygon fill="none" stroke="#000000" points="288,-191.2 288,-213.2 567,-213.2 567,-191.2 288,-191.2"/>
<text text-anchor="start" x="308" y="-198.3" font-family="Helvetica,sans-Serif" font-size="11.00" fill="#000000">tipo_registro</text>
<polygon fill="none" stroke="#000000" points="567,-191.2 567,-213.2 676,-213.2 676,-191.2 567,-191.2"/>
<text text-anchor="start" x="570" y="-198.9" font-family="Helvetica,sans-Serif" font-size="11.00" fill="#000000">text[2147483647]</text>
<polygon fill="none" stroke="#000000" points="288,-169.2 288,-191.2 567,-191.2 567,-169.2 288,-169.2"/>
<text text-anchor="start" x="308" y="-176.3" font-family="Helvetica,sans-Serif" font-size="11.00" fill="#000000">id_origem</text>
<polygon fill="none" stroke="#000000" points="567,-169.2 567,-191.2 676,-191.2 676,-169.2 567,-169.2"/>
<text text-anchor="start" x="570" y="-176.9" font-family="Helvetica,sans-Serif" font-size="11.00" fill="#000000">int4[10]</text>
<polygon fill="none" stroke="#000000" points="288,-147.2 288,-169.2 567,-169.2 567,-147.2 288,-147.2"/>
<text text-anchor="start" x="308" y="-154.3" font-family="Helvetica,sans-Serif" font-size="11.00" fill="#000000">id_cloud</text>
<polygon fill="none" stroke="#000000" points="567,-147.2 567,-169.2 676,-169.2 676,-147.2 567,-147.2"/>
<text text-anchor="start" x="569.5344" y="-154.9" font-family="Helvetica,sans-Serif" font-size="11.00" fill="#000000">varchar[2147483647]</text>
<polygon fill="none" stroke="#000000" points="288,-125.2 288,-147.2 567,-147.2 567,-125.2 288,-125.2"/>
<image xlink:href="../../images/foreignKeys.png" width="11px" height="12px" preserveAspectRatio="xMinYMin meet" x="293" y="-142.2"/>
<text text-anchor="start" x="308" y="-132.3" font-family="Helvetica,sans-Serif" font-size="11.00" fill="#000000">configuracao_lista_espera_origem_id</text>
<polygon fill="none" stroke="#000000" points="567,-125.2 567,-147.2 676,-147.2 676,-125.2 567,-125.2"/>
<text text-anchor="start" x="570" y="-132.9" font-family="Helvetica,sans-Serif" font-size="11.00" fill="#000000">int4[10]</text>
<polygon fill="none" stroke="#000000" points="288,-103.2 288,-125.2 567,-125.2 567,-103.2 288,-103.2"/>
<text text-anchor="start" x="308" y="-110.3" font-family="Helvetica,sans-Serif" font-size="11.00" fill="#000000">configuracao_lista_espera_cloud_id</text>
<polygon fill="none" stroke="#000000" points="567,-103.2 567,-125.2 676,-125.2 676,-103.2 567,-103.2"/>
<text text-anchor="start" x="569.5344" y="-110.9" font-family="Helvetica,sans-Serif" font-size="11.00" fill="#000000">varchar[2147483647]</text>
<polygon fill="none" stroke="#000000" points="288,-81.2 288,-103.2 567,-103.2 567,-81.2 288,-81.2"/>
<image xlink:href="../../images/foreignKeys.png" width="11px" height="12px" preserveAspectRatio="xMinYMin meet" x="293" y="-98.2"/>
<text text-anchor="start" x="308" y="-88.3" font-family="Helvetica,sans-Serif" font-size="11.00" fill="#000000">estabelecimento_origem_id</text>
<polygon fill="none" stroke="#000000" points="567,-81.2 567,-103.2 676,-103.2 676,-81.2 567,-81.2"/>
<text text-anchor="start" x="570" y="-88.9" font-family="Helvetica,sans-Serif" font-size="11.00" fill="#000000">int4[10]</text>
<polygon fill="none" stroke="#000000" points="288,-59.2 288,-81.2 567,-81.2 567,-59.2 288,-59.2"/>
<image xlink:href="../../images/foreignKeys.png" width="11px" height="12px" preserveAspectRatio="xMinYMin meet" x="293" y="-76.2"/>
<text text-anchor="start" x="308" y="-66.3" font-family="Helvetica,sans-Serif" font-size="11.00" fill="#000000">estabelecimento_cloud_id</text>
<polygon fill="none" stroke="#000000" points="567,-59.2 567,-81.2 676,-81.2 676,-59.2 567,-59.2"/>
<text text-anchor="start" x="570" y="-66.9" font-family="Helvetica,sans-Serif" font-size="11.00" fill="#000000">int4[10]</text>
<polygon fill="#ffffff" stroke="transparent" points="288,-40.2 288,-59.2 432,-59.2 432,-40.2 288,-40.2"/>
<polygon fill="none" stroke="#000000" points="288,-40.2 288,-59.2 432,-59.2 432,-40.2 288,-40.2"/>
<text text-anchor="start" x="291" y="-46.3" font-family="Helvetica,sans-Serif" font-size="11.00" fill="#000000">&lt; 3</text>
<polygon fill="#ffffff" stroke="transparent" points="432,-40.2 432,-59.2 567,-59.2 567,-40.2 432,-40.2"/>
<polygon fill="none" stroke="#000000" points="432,-40.2 432,-59.2 567,-59.2 567,-40.2 432,-40.2"/>
<text text-anchor="start" x="557.8862" y="-46.3" font-family="Helvetica,sans-Serif" font-size="11.00" fill="#000000"> &#160;</text>
<polygon fill="#ffffff" stroke="transparent" points="567,-40.2 567,-59.2 676,-59.2 676,-40.2 567,-40.2"/>
<polygon fill="none" stroke="#000000" points="567,-40.2 567,-59.2 676,-59.2 676,-40.2 567,-40.2"/>
<text text-anchor="start" x="657.4053" y="-46.3" font-family="Helvetica,sans-Serif" font-size="11.00" fill="#000000">0 &gt;</text>
<polygon fill="none" stroke="#000000" stroke-width="2" points="287,-39.2 287,-259.2 677,-259.2 677,-39.2 287,-39.2"/>
</a>
</g>
</g>
<!-- inscricao_lista_espera_situacoes -->
<g id="node2" class="node">
<title>inscricao_lista_espera_situacoes</title>
<g id="a_node2"><a xlink:href="../../tables/inscricao_lista_espera_situacoes.html" xlink:title="inscricao_lista_espera_situacoes" target="_top">
<polygon fill="#ffffff" stroke="transparent" points="8,-43.7 8,-126.7 237,-126.7 237,-43.7 8,-43.7"/>
<polygon fill="#f5f5f5" stroke="transparent" points="8.5,-103.2 8.5,-126.2 237.5,-126.2 237.5,-103.2 8.5,-103.2"/>
<polygon fill="none" stroke="#000000" points="8.5,-103.2 8.5,-126.2 237.5,-126.2 237.5,-103.2 8.5,-103.2"/>
<text text-anchor="start" x="13.5" y="-111.8" font-family="Helvetica,sans-Serif" font-weight="bold" font-size="11.00" fill="#000000">inscricao_lista_espera_situacoes</text>
<text text-anchor="start" x="203.0219" y="-111.3" font-family="Helvetica,sans-Serif" font-size="11.00" fill="#000000">[table]</text>
<polygon fill="none" stroke="#000000" points="8.5,-81.2 8.5,-103.2 237.5,-103.2 237.5,-81.2 8.5,-81.2"/>
<image xlink:href="../../images/primaryKeys.png" width="11px" height="12px" preserveAspectRatio="xMinYMin meet" x="13.5" y="-98.2"/>
<text text-anchor="start" x="37.5" y="-88.3" font-family="Helvetica,sans-Serif" font-size="11.00" fill="#000000">id</text>
<polygon fill="none" stroke="#000000" points="8.5,-62.2 8.5,-81.2 237.5,-81.2 237.5,-62.2 8.5,-62.2"/>
<text text-anchor="start" x="11.5" y="-68.3" font-family="Helvetica,sans-Serif" font-size="11.00" fill="#000000">...</text>
<polygon fill="#ffffff" stroke="transparent" points="8.5,-43.2 8.5,-62.2 106.5,-62.2 106.5,-43.2 8.5,-43.2"/>
<polygon fill="none" stroke="#000000" points="8.5,-43.2 8.5,-62.2 106.5,-62.2 106.5,-43.2 8.5,-43.2"/>
<text text-anchor="start" x="11.5" y="-49.3" font-family="Helvetica,sans-Serif" font-size="11.00" fill="#000000"> &#160;</text>
<polygon fill="#ffffff" stroke="transparent" points="106.5,-43.2 106.5,-62.2 161.5,-62.2 161.5,-43.2 106.5,-43.2"/>
<polygon fill="none" stroke="#000000" points="106.5,-43.2 106.5,-62.2 161.5,-62.2 161.5,-43.2 106.5,-43.2"/>
<text text-anchor="start" x="152.3862" y="-49.3" font-family="Helvetica,sans-Serif" font-size="11.00" fill="#000000"> &#160;</text>
<polygon fill="#ffffff" stroke="transparent" points="161.5,-43.2 161.5,-62.2 237.5,-62.2 237.5,-43.2 161.5,-43.2"/>
<polygon fill="none" stroke="#000000" points="161.5,-43.2 161.5,-62.2 237.5,-62.2 237.5,-43.2 161.5,-43.2"/>
<text text-anchor="start" x="206.6755" y="-49.3" font-family="Helvetica,sans-Serif" font-size="11.00" fill="#000000">596 &gt;</text>
</a>
</g>
</g>
<!-- configuracao_lista_espera_estabelecimentos&#45;&gt;inscricao_lista_espera_situacoes -->
<g id="edge1" class="edge">
<title>configuracao_lista_espera_estabelecimentos:w&#45;&gt;inscricao_lista_espera_situacoes:e</title>
<path fill="none" stroke="#000000" stroke-dasharray="5,2" d="M274.0126,-131.4912C260.3016,-120.1404 261.2219,-92.2 237.5,-92.2"/>
<polygon fill="#000000" stroke="#000000" points="280.4181,-133.6476 286.8514,-139.6119 284.209,-134.9238 288,-136.2 288,-136.2 288,-136.2 284.209,-134.9238 289.1486,-132.7881 280.4181,-133.6476 280.4181,-133.6476"/>
<ellipse fill="none" stroke="#000000" cx="277.3853" cy="-132.6266" rx="3.2" ry="3.2"/>
</g>
<!-- configuracao_lista_espera_estabelecimentos&#45;&gt;inscricao_lista_espera_situacoes -->
<g id="edge2" class="edge">
<title>configuracao_lista_espera_estabelecimentos:w&#45;&gt;inscricao_lista_espera_situacoes:e</title>
<path fill="none" stroke="#000000" stroke-dasharray="5,2" d="M273.5981,-73.4462C261.4282,-79.5658 256.0526,-92.2 237.5,-92.2"/>
<polygon fill="#000000" stroke="#000000" points="280.1958,-71.9591 288.7916,-73.7119 284.0979,-71.0796 288,-70.2 288,-70.2 288,-70.2 284.0979,-71.0796 287.2084,-66.6881 280.1958,-71.9591 280.1958,-71.9591"/>
<ellipse fill="none" stroke="#000000" cx="277.0741" cy="-72.6627" rx="3.2" ry="3.2"/>
</g>
<!-- configuracao_lista_espera_estabelecimentos&#45;&gt;inscricao_lista_espera_situacoes -->
<g id="edge3" class="edge">
<title>configuracao_lista_espera_estabelecimentos:w&#45;&gt;inscricao_lista_espera_situacoes:e</title>
<path fill="none" stroke="#000000" stroke-dasharray="5,2" d="M273.4203,-92.2C261.5435,-92.2 254.158,-92.2 237.5,-92.2"/>
<polygon fill="#000000" stroke="#000000" points="280,-92.2001 288,-95.8 284,-92.2 288,-92.2 288,-92.2 288,-92.2 284,-92.2 288,-88.6 280,-92.2001 280,-92.2001"/>
<ellipse fill="none" stroke="#000000" cx="276.8" cy="-92.2001" rx="3.2" ry="3.2"/>
</g>
</g>
</svg>
