<?xml version="1.0" encoding="UTF-8" standalone="no"?>
<!DOCTYPE svg PUBLIC "-//W3C//DTD SVG 1.1//EN"
 "http://www.w3.org/Graphics/SVG/1.1/DTD/svg11.dtd">
<!-- Generated by graphviz version 2.40.1 (20161225.0304)
 -->
<!-- Title: oneDegreeRelationshipsDiagram Pages: 1 -->
<svg width="525pt" height="470pt"
 viewBox="0.00 0.00 525.00 470.20" xmlns="http://www.w3.org/2000/svg" xmlns:xlink="http://www.w3.org/1999/xlink">
<g id="graph0" class="graph" transform="scale(1 1) rotate(0) translate(4 466.2)">
<title>oneDegreeRelationshipsDiagram</title>
<polygon fill="#ffffff" stroke="transparent" points="-4,4 -4,-466.2 521,-466.2 521,4 -4,4"/>
<text text-anchor="middle" x="72.4936" y="-7.3" font-family="Helvetica,sans-Serif" font-size="11.00" fill="#000000">Generated by SchemaSpy</text>
<!-- configuracoes_avaliacao -->
<g id="node1" class="node">
<title>configuracoes_avaliacao</title>
<g id="a_node1"><a xlink:href="../../tables/configuracoes_avaliacao.html" xlink:title="configuracoes_avaliacao" target="_top">
<polygon fill="#ffffff" stroke="transparent" points="8,-38.2 8,-458.2 509,-458.2 509,-38.2 8,-38.2"/>
<polygon fill="#f5f5f5" stroke="transparent" points="10.5,-433.2 10.5,-456.2 507.5,-456.2 507.5,-433.2 10.5,-433.2"/>
<polygon fill="none" stroke="#000000" points="10.5,-433.2 10.5,-456.2 507.5,-456.2 507.5,-433.2 10.5,-433.2"/>
<text text-anchor="start" x="15.5" y="-441.8" font-family="Helvetica,sans-Serif" font-weight="bold" font-size="11.00" fill="#000000">configuracoes_avaliacao</text>
<text text-anchor="start" x="472.5437" y="-441.3" font-family="Helvetica,sans-Serif" font-size="11.00" fill="#000000">[table]</text>
<polygon fill="none" stroke="#000000" points="10.5,-411.2 10.5,-433.2 265.5,-433.2 265.5,-411.2 10.5,-411.2"/>
<text text-anchor="start" x="30.5" y="-418.3" font-family="Helvetica,sans-Serif" font-size="11.00" fill="#000000">sistema</text>
<polygon fill="none" stroke="#000000" points="265.5,-411.2 265.5,-433.2 507.5,-433.2 507.5,-411.2 265.5,-411.2"/>
<text text-anchor="start" x="268.5" y="-418.9" font-family="Helvetica,sans-Serif" font-size="11.00" fill="#000000">int4[10]</text>
<polygon fill="none" stroke="#000000" points="10.5,-389.2 10.5,-411.2 265.5,-411.2 265.5,-389.2 10.5,-389.2"/>
<text text-anchor="start" x="30.5" y="-396.3" font-family="Helvetica,sans-Serif" font-size="11.00" fill="#000000">tipo_registro</text>
<polygon fill="none" stroke="#000000" points="265.5,-389.2 265.5,-411.2 507.5,-411.2 507.5,-389.2 265.5,-389.2"/>
<text text-anchor="start" x="268.5" y="-396.9" font-family="Helvetica,sans-Serif" font-size="11.00" fill="#000000">text[2147483647]</text>
<polygon fill="none" stroke="#000000" points="10.5,-367.2 10.5,-389.2 265.5,-389.2 265.5,-367.2 10.5,-367.2"/>
<text text-anchor="start" x="30.5" y="-374.3" font-family="Helvetica,sans-Serif" font-size="11.00" fill="#000000">id_integracao</text>
<polygon fill="none" stroke="#000000" points="265.5,-367.2 265.5,-389.2 507.5,-389.2 507.5,-367.2 265.5,-367.2"/>
<text text-anchor="start" x="268.5" y="-374.9" font-family="Helvetica,sans-Serif" font-size="11.00" fill="#000000">varchar[2147483647]</text>
<polygon fill="none" stroke="#000000" points="10.5,-345.2 10.5,-367.2 265.5,-367.2 265.5,-345.2 10.5,-345.2"/>
<text text-anchor="start" x="30.5" y="-352.3" font-family="Helvetica,sans-Serif" font-size="11.00" fill="#000000">id_origem</text>
<polygon fill="none" stroke="#000000" points="265.5,-345.2 265.5,-367.2 507.5,-367.2 507.5,-345.2 265.5,-345.2"/>
<text text-anchor="start" x="268.5" y="-352.9" font-family="Helvetica,sans-Serif" font-size="11.00" fill="#000000">int4[10]</text>
<polygon fill="none" stroke="#000000" points="10.5,-323.2 10.5,-345.2 265.5,-345.2 265.5,-323.2 10.5,-323.2"/>
<text text-anchor="start" x="30.5" y="-330.3" font-family="Helvetica,sans-Serif" font-size="11.00" fill="#000000">id_cloud</text>
<polygon fill="none" stroke="#000000" points="265.5,-323.2 265.5,-345.2 507.5,-345.2 507.5,-323.2 265.5,-323.2"/>
<text text-anchor="start" x="268.5" y="-330.9" font-family="Helvetica,sans-Serif" font-size="11.00" fill="#000000">int4[10]</text>
<polygon fill="none" stroke="#000000" points="10.5,-301.2 10.5,-323.2 265.5,-323.2 265.5,-301.2 10.5,-301.2"/>
<text text-anchor="start" x="30.5" y="-308.3" font-family="Helvetica,sans-Serif" font-size="11.00" fill="#000000">descricao</text>
<polygon fill="none" stroke="#000000" points="265.5,-301.2 265.5,-323.2 507.5,-323.2 507.5,-301.2 265.5,-301.2"/>
<text text-anchor="start" x="268.5" y="-308.9" font-family="Helvetica,sans-Serif" font-size="11.00" fill="#000000">varchar[2147483647]</text>
<polygon fill="none" stroke="#000000" points="10.5,-279.2 10.5,-301.2 265.5,-301.2 265.5,-279.2 10.5,-279.2"/>
<text text-anchor="start" x="30.5" y="-286.3" font-family="Helvetica,sans-Serif" font-size="11.00" fill="#000000">situacao_cadastral</text>
<polygon fill="none" stroke="#000000" points="265.5,-279.2 265.5,-301.2 507.5,-301.2 507.5,-279.2 265.5,-279.2"/>
<text text-anchor="start" x="268.5" y="-286.9" font-family="Helvetica,sans-Serif" font-size="11.00" fill="#000000">&quot;educacao&quot;.&quot;situacoescadastrais&quot;[2147483647]</text>
<polygon fill="none" stroke="#000000" points="10.5,-257.2 10.5,-279.2 265.5,-279.2 265.5,-257.2 10.5,-257.2"/>
<image xlink:href="../../images/foreignKeys.png" width="11px" height="12px" preserveAspectRatio="xMinYMin meet" x="15.5" y="-274.2"/>
<text text-anchor="start" x="30.5" y="-264.3" font-family="Helvetica,sans-Serif" font-size="11.00" fill="#000000">avaliacao_numerica_origem_id</text>
<polygon fill="none" stroke="#000000" points="265.5,-257.2 265.5,-279.2 507.5,-279.2 507.5,-257.2 265.5,-257.2"/>
<text text-anchor="start" x="268.5" y="-264.9" font-family="Helvetica,sans-Serif" font-size="11.00" fill="#000000">int4[10]</text>
<polygon fill="none" stroke="#000000" points="10.5,-235.2 10.5,-257.2 265.5,-257.2 265.5,-235.2 10.5,-235.2"/>
<image xlink:href="../../images/foreignKeys.png" width="11px" height="12px" preserveAspectRatio="xMinYMin meet" x="15.5" y="-252.2"/>
<text text-anchor="start" x="30.5" y="-242.3" font-family="Helvetica,sans-Serif" font-size="11.00" fill="#000000">avaliacao_numerica_cloud_id</text>
<polygon fill="none" stroke="#000000" points="265.5,-235.2 265.5,-257.2 507.5,-257.2 507.5,-235.2 265.5,-235.2"/>
<text text-anchor="start" x="268.5" y="-242.9" font-family="Helvetica,sans-Serif" font-size="11.00" fill="#000000">int4[10]</text>
<polygon fill="none" stroke="#000000" points="10.5,-213.2 10.5,-235.2 265.5,-235.2 265.5,-213.2 10.5,-213.2"/>
<text text-anchor="start" x="30.5" y="-220.3" font-family="Helvetica,sans-Serif" font-size="11.00" fill="#000000">nota_minima</text>
<polygon fill="none" stroke="#000000" points="265.5,-213.2 265.5,-235.2 507.5,-235.2 507.5,-213.2 265.5,-213.2"/>
<text text-anchor="start" x="268.5" y="-220.9" font-family="Helvetica,sans-Serif" font-size="11.00" fill="#000000">int4[10]</text>
<polygon fill="none" stroke="#000000" points="10.5,-191.2 10.5,-213.2 265.5,-213.2 265.5,-191.2 10.5,-191.2"/>
<text text-anchor="start" x="30.5" y="-198.3" font-family="Helvetica,sans-Serif" font-size="11.00" fill="#000000">nota_maxima</text>
<polygon fill="none" stroke="#000000" points="265.5,-191.2 265.5,-213.2 507.5,-213.2 507.5,-191.2 265.5,-191.2"/>
<text text-anchor="start" x="268.5" y="-198.9" font-family="Helvetica,sans-Serif" font-size="11.00" fill="#000000">int4[10]</text>
<polygon fill="none" stroke="#000000" points="10.5,-169.2 10.5,-191.2 265.5,-191.2 265.5,-169.2 10.5,-169.2"/>
<text text-anchor="start" x="30.5" y="-176.3" font-family="Helvetica,sans-Serif" font-size="11.00" fill="#000000">quantidade_decimais</text>
<polygon fill="none" stroke="#000000" points="265.5,-169.2 265.5,-191.2 507.5,-191.2 507.5,-169.2 265.5,-169.2"/>
<text text-anchor="start" x="268.035" y="-176.9" font-family="Helvetica,sans-Serif" font-size="11.00" fill="#000000">&quot;educacao&quot;.&quot;quantidadesdecimais&quot;[2147483647]</text>
<polygon fill="none" stroke="#000000" points="10.5,-147.2 10.5,-169.2 265.5,-169.2 265.5,-147.2 10.5,-147.2"/>
<text text-anchor="start" x="30.5" y="-154.3" font-family="Helvetica,sans-Serif" font-size="11.00" fill="#000000">tipo_decimais</text>
<polygon fill="none" stroke="#000000" points="265.5,-147.2 265.5,-169.2 507.5,-169.2 507.5,-147.2 265.5,-147.2"/>
<text text-anchor="start" x="268.5" y="-154.9" font-family="Helvetica,sans-Serif" font-size="11.00" fill="#000000">&quot;educacao&quot;.&quot;tiposdecimais&quot;[2147483647]</text>
<polygon fill="none" stroke="#000000" points="10.5,-125.2 10.5,-147.2 265.5,-147.2 265.5,-125.2 10.5,-125.2"/>
<image xlink:href="../../images/foreignKeys.png" width="11px" height="12px" preserveAspectRatio="xMinYMin meet" x="15.5" y="-142.2"/>
<text text-anchor="start" x="30.5" y="-132.3" font-family="Helvetica,sans-Serif" font-size="11.00" fill="#000000">avaliacao_conceito_numerico_origem_id</text>
<polygon fill="none" stroke="#000000" points="265.5,-125.2 265.5,-147.2 507.5,-147.2 507.5,-125.2 265.5,-125.2"/>
<text text-anchor="start" x="268.5" y="-132.9" font-family="Helvetica,sans-Serif" font-size="11.00" fill="#000000">int4[10]</text>
<polygon fill="none" stroke="#000000" points="10.5,-103.2 10.5,-125.2 265.5,-125.2 265.5,-103.2 10.5,-103.2"/>
<image xlink:href="../../images/foreignKeys.png" width="11px" height="12px" preserveAspectRatio="xMinYMin meet" x="15.5" y="-120.2"/>
<text text-anchor="start" x="30.5" y="-110.3" font-family="Helvetica,sans-Serif" font-size="11.00" fill="#000000">avaliacao_conceito_numerico_cloud_id</text>
<polygon fill="none" stroke="#000000" points="265.5,-103.2 265.5,-125.2 507.5,-125.2 507.5,-103.2 265.5,-103.2"/>
<text text-anchor="start" x="268.5" y="-110.9" font-family="Helvetica,sans-Serif" font-size="11.00" fill="#000000">int4[10]</text>
<polygon fill="none" stroke="#000000" points="10.5,-81.2 10.5,-103.2 265.5,-103.2 265.5,-81.2 10.5,-81.2"/>
<image xlink:href="../../images/foreignKeys.png" width="11px" height="12px" preserveAspectRatio="xMinYMin meet" x="15.5" y="-98.2"/>
<text text-anchor="start" x="30.5" y="-88.3" font-family="Helvetica,sans-Serif" font-size="11.00" fill="#000000">avaliacao_conceito_origem_id</text>
<polygon fill="none" stroke="#000000" points="265.5,-81.2 265.5,-103.2 507.5,-103.2 507.5,-81.2 265.5,-81.2"/>
<text text-anchor="start" x="268.5" y="-88.9" font-family="Helvetica,sans-Serif" font-size="11.00" fill="#000000">int4[10]</text>
<polygon fill="none" stroke="#000000" points="10.5,-59.2 10.5,-81.2 265.5,-81.2 265.5,-59.2 10.5,-59.2"/>
<image xlink:href="../../images/foreignKeys.png" width="11px" height="12px" preserveAspectRatio="xMinYMin meet" x="15.5" y="-76.2"/>
<text text-anchor="start" x="30.5" y="-66.3" font-family="Helvetica,sans-Serif" font-size="11.00" fill="#000000">avaliacao_conceito_cloud_id</text>
<polygon fill="none" stroke="#000000" points="265.5,-59.2 265.5,-81.2 507.5,-81.2 507.5,-59.2 265.5,-59.2"/>
<text text-anchor="start" x="268.5" y="-66.9" font-family="Helvetica,sans-Serif" font-size="11.00" fill="#000000">int4[10]</text>
<polygon fill="#ffffff" stroke="transparent" points="10.5,-40.2 10.5,-59.2 142.5,-59.2 142.5,-40.2 10.5,-40.2"/>
<polygon fill="none" stroke="#000000" points="10.5,-40.2 10.5,-59.2 142.5,-59.2 142.5,-40.2 10.5,-40.2"/>
<text text-anchor="start" x="13.5" y="-46.3" font-family="Helvetica,sans-Serif" font-size="11.00" fill="#000000">&lt; 0</text>
<polygon fill="#ffffff" stroke="transparent" points="142.5,-40.2 142.5,-59.2 265.5,-59.2 265.5,-40.2 142.5,-40.2"/>
<polygon fill="none" stroke="#000000" points="142.5,-40.2 142.5,-59.2 265.5,-59.2 265.5,-40.2 142.5,-40.2"/>
<text text-anchor="start" x="256.3862" y="-46.3" font-family="Helvetica,sans-Serif" font-size="11.00" fill="#000000"> &#160;</text>
<polygon fill="#ffffff" stroke="transparent" points="265.5,-40.2 265.5,-59.2 507.5,-59.2 507.5,-40.2 265.5,-40.2"/>
<polygon fill="none" stroke="#000000" points="265.5,-40.2 265.5,-59.2 507.5,-59.2 507.5,-40.2 265.5,-40.2"/>
<text text-anchor="start" x="488.9053" y="-46.3" font-family="Helvetica,sans-Serif" font-size="11.00" fill="#000000">0 &gt;</text>
<polygon fill="none" stroke="#000000" stroke-width="2" points="9,-39.2 9,-457.2 508,-457.2 508,-39.2 9,-39.2"/>
</a>
</g>
</g>
</g>
</svg>
