<?xml version="1.0" encoding="UTF-8" standalone="no"?>
<!DOCTYPE svg PUBLIC "-//W3C//DTD SVG 1.1//EN"
 "http://www.w3.org/Graphics/SVG/1.1/DTD/svg11.dtd">
<!-- Generated by graphviz version 2.40.1 (20161225.0304)
 -->
<!-- Title: oneDegreeRelationshipsDiagramImplied Pages: 1 -->
<svg width="833pt" height="272pt"
 viewBox="0.00 0.00 833.00 272.20" xmlns="http://www.w3.org/2000/svg" xmlns:xlink="http://www.w3.org/1999/xlink">
<g id="graph0" class="graph" transform="scale(1 1) rotate(0) translate(4 268.2)">
<title>oneDegreeRelationshipsDiagramImplied</title>
<polygon fill="#ffffff" stroke="transparent" points="-4,4 -4,-268.2 829,-268.2 829,4 -4,4"/>
<text text-anchor="middle" x="72.4936" y="-7.3" font-family="Helvetica,sans-Serif" font-size="11.00" fill="#000000">Generated by SchemaSpy</text>
<!-- configuracao_lista_espera_criterios_desempate -->
<g id="node1" class="node">
<title>configuracao_lista_espera_criterios_desempate</title>
<g id="a_node1"><a xlink:href="../../tables/configuracao_lista_espera_crite_947b1ca2.html" xlink:title="configuracao_lista_espera_criterios_desempate" target="_top">
<polygon fill="#ffffff" stroke="transparent" points="286,-38.2 286,-260.2 817,-260.2 817,-38.2 286,-38.2"/>
<polygon fill="#f5f5f5" stroke="transparent" points="288.5,-235.2 288.5,-258.2 815.5,-258.2 815.5,-235.2 288.5,-235.2"/>
<polygon fill="none" stroke="#000000" points="288.5,-235.2 288.5,-258.2 815.5,-258.2 815.5,-235.2 288.5,-235.2"/>
<text text-anchor="start" x="293.5" y="-243.8" font-family="Helvetica,sans-Serif" font-weight="bold" font-size="11.00" fill="#000000">configuracao_lista_espera_criterios_desempate</text>
<text text-anchor="start" x="780.5437" y="-243.3" font-family="Helvetica,sans-Serif" font-size="11.00" fill="#000000">[table]</text>
<polygon fill="none" stroke="#000000" points="288.5,-213.2 288.5,-235.2 583.5,-235.2 583.5,-213.2 288.5,-213.2"/>
<text text-anchor="start" x="308.5" y="-220.3" font-family="Helvetica,sans-Serif" font-size="11.00" fill="#000000">sistema</text>
<polygon fill="none" stroke="#000000" points="583.5,-213.2 583.5,-235.2 815.5,-235.2 815.5,-213.2 583.5,-213.2"/>
<text text-anchor="start" x="586.5" y="-220.9" font-family="Helvetica,sans-Serif" font-size="11.00" fill="#000000">int4[10]</text>
<polygon fill="none" stroke="#000000" points="288.5,-191.2 288.5,-213.2 583.5,-213.2 583.5,-191.2 288.5,-191.2"/>
<text text-anchor="start" x="308.5" y="-198.3" font-family="Helvetica,sans-Serif" font-size="11.00" fill="#000000">tipo_registro</text>
<polygon fill="none" stroke="#000000" points="583.5,-191.2 583.5,-213.2 815.5,-213.2 815.5,-191.2 583.5,-191.2"/>
<text text-anchor="start" x="586.5" y="-198.9" font-family="Helvetica,sans-Serif" font-size="11.00" fill="#000000">text[2147483647]</text>
<polygon fill="none" stroke="#000000" points="288.5,-169.2 288.5,-191.2 583.5,-191.2 583.5,-169.2 288.5,-169.2"/>
<text text-anchor="start" x="308.5" y="-176.3" font-family="Helvetica,sans-Serif" font-size="11.00" fill="#000000">id_origem</text>
<polygon fill="none" stroke="#000000" points="583.5,-169.2 583.5,-191.2 815.5,-191.2 815.5,-169.2 583.5,-169.2"/>
<text text-anchor="start" x="586.5" y="-176.9" font-family="Helvetica,sans-Serif" font-size="11.00" fill="#000000">int4[10]</text>
<polygon fill="none" stroke="#000000" points="288.5,-147.2 288.5,-169.2 583.5,-169.2 583.5,-147.2 288.5,-147.2"/>
<text text-anchor="start" x="308.5" y="-154.3" font-family="Helvetica,sans-Serif" font-size="11.00" fill="#000000">id_cloud</text>
<polygon fill="none" stroke="#000000" points="583.5,-147.2 583.5,-169.2 815.5,-169.2 815.5,-147.2 583.5,-147.2"/>
<text text-anchor="start" x="586.5" y="-154.9" font-family="Helvetica,sans-Serif" font-size="11.00" fill="#000000">varchar[2147483647]</text>
<polygon fill="none" stroke="#000000" points="288.5,-125.2 288.5,-147.2 583.5,-147.2 583.5,-125.2 288.5,-125.2"/>
<text text-anchor="start" x="308.5" y="-132.3" font-family="Helvetica,sans-Serif" font-size="11.00" fill="#000000">ordem</text>
<polygon fill="none" stroke="#000000" points="583.5,-125.2 583.5,-147.2 815.5,-147.2 815.5,-125.2 583.5,-125.2"/>
<text text-anchor="start" x="586.5" y="-132.9" font-family="Helvetica,sans-Serif" font-size="11.00" fill="#000000">int4[10]</text>
<polygon fill="none" stroke="#000000" points="288.5,-103.2 288.5,-125.2 583.5,-125.2 583.5,-103.2 288.5,-103.2"/>
<text text-anchor="start" x="308.5" y="-110.3" font-family="Helvetica,sans-Serif" font-size="11.00" fill="#000000">ordenador</text>
<polygon fill="none" stroke="#000000" points="583.5,-103.2 583.5,-125.2 815.5,-125.2 815.5,-103.2 583.5,-103.2"/>
<text text-anchor="start" x="586.2374" y="-110.9" font-family="Helvetica,sans-Serif" font-size="11.00" fill="#000000">&quot;educacao&quot;.&quot;criteriosdesempate&quot;[2147483647]</text>
<polygon fill="none" stroke="#000000" points="288.5,-81.2 288.5,-103.2 583.5,-103.2 583.5,-81.2 288.5,-81.2"/>
<image xlink:href="../../images/foreignKeys.png" width="11px" height="12px" preserveAspectRatio="xMinYMin meet" x="293.5" y="-98.2"/>
<text text-anchor="start" x="308.5" y="-88.3" font-family="Helvetica,sans-Serif" font-size="11.00" fill="#000000">configuracao_lista_espera_origem_id</text>
<polygon fill="none" stroke="#000000" points="583.5,-81.2 583.5,-103.2 815.5,-103.2 815.5,-81.2 583.5,-81.2"/>
<text text-anchor="start" x="586.5" y="-88.9" font-family="Helvetica,sans-Serif" font-size="11.00" fill="#000000">int4[10]</text>
<polygon fill="none" stroke="#000000" points="288.5,-59.2 288.5,-81.2 583.5,-81.2 583.5,-59.2 288.5,-59.2"/>
<text text-anchor="start" x="308.5" y="-66.3" font-family="Helvetica,sans-Serif" font-size="11.00" fill="#000000">configuracao_lista_espera_cloud_id</text>
<polygon fill="none" stroke="#000000" points="583.5,-59.2 583.5,-81.2 815.5,-81.2 815.5,-59.2 583.5,-59.2"/>
<text text-anchor="start" x="586.5" y="-66.9" font-family="Helvetica,sans-Serif" font-size="11.00" fill="#000000">varchar[2147483647]</text>
<polygon fill="#ffffff" stroke="transparent" points="288.5,-40.2 288.5,-59.2 440.5,-59.2 440.5,-40.2 288.5,-40.2"/>
<polygon fill="none" stroke="#000000" points="288.5,-40.2 288.5,-59.2 440.5,-59.2 440.5,-40.2 288.5,-40.2"/>
<text text-anchor="start" x="291.5" y="-46.3" font-family="Helvetica,sans-Serif" font-size="11.00" fill="#000000">&lt; 1</text>
<polygon fill="#ffffff" stroke="transparent" points="440.5,-40.2 440.5,-59.2 583.5,-59.2 583.5,-40.2 440.5,-40.2"/>
<polygon fill="none" stroke="#000000" points="440.5,-40.2 440.5,-59.2 583.5,-59.2 583.5,-40.2 440.5,-40.2"/>
<text text-anchor="start" x="574.3862" y="-46.3" font-family="Helvetica,sans-Serif" font-size="11.00" fill="#000000"> &#160;</text>
<polygon fill="#ffffff" stroke="transparent" points="583.5,-40.2 583.5,-59.2 815.5,-59.2 815.5,-40.2 583.5,-40.2"/>
<polygon fill="none" stroke="#000000" points="583.5,-40.2 583.5,-59.2 815.5,-59.2 815.5,-40.2 583.5,-40.2"/>
<text text-anchor="start" x="796.9053" y="-46.3" font-family="Helvetica,sans-Serif" font-size="11.00" fill="#000000">0 &gt;</text>
<polygon fill="none" stroke="#000000" stroke-width="2" points="287,-39.2 287,-259.2 816,-259.2 816,-39.2 287,-39.2"/>
</a>
</g>
</g>
<!-- inscricao_lista_espera_situacoes -->
<g id="node2" class="node">
<title>inscricao_lista_espera_situacoes</title>
<g id="a_node2"><a xlink:href="../../tables/inscricao_lista_espera_situacoes.html" xlink:title="inscricao_lista_espera_situacoes" target="_top">
<polygon fill="#ffffff" stroke="transparent" points="8,-43.7 8,-126.7 237,-126.7 237,-43.7 8,-43.7"/>
<polygon fill="#f5f5f5" stroke="transparent" points="8.5,-103.2 8.5,-126.2 237.5,-126.2 237.5,-103.2 8.5,-103.2"/>
<polygon fill="none" stroke="#000000" points="8.5,-103.2 8.5,-126.2 237.5,-126.2 237.5,-103.2 8.5,-103.2"/>
<text text-anchor="start" x="13.5" y="-111.8" font-family="Helvetica,sans-Serif" font-weight="bold" font-size="11.00" fill="#000000">inscricao_lista_espera_situacoes</text>
<text text-anchor="start" x="203.0219" y="-111.3" font-family="Helvetica,sans-Serif" font-size="11.00" fill="#000000">[table]</text>
<polygon fill="none" stroke="#000000" points="8.5,-81.2 8.5,-103.2 237.5,-103.2 237.5,-81.2 8.5,-81.2"/>
<image xlink:href="../../images/primaryKeys.png" width="11px" height="12px" preserveAspectRatio="xMinYMin meet" x="13.5" y="-98.2"/>
<text text-anchor="start" x="37.5" y="-88.3" font-family="Helvetica,sans-Serif" font-size="11.00" fill="#000000">id</text>
<polygon fill="none" stroke="#000000" points="8.5,-62.2 8.5,-81.2 237.5,-81.2 237.5,-62.2 8.5,-62.2"/>
<text text-anchor="start" x="11.5" y="-68.3" font-family="Helvetica,sans-Serif" font-size="11.00" fill="#000000">...</text>
<polygon fill="#ffffff" stroke="transparent" points="8.5,-43.2 8.5,-62.2 106.5,-62.2 106.5,-43.2 8.5,-43.2"/>
<polygon fill="none" stroke="#000000" points="8.5,-43.2 8.5,-62.2 106.5,-62.2 106.5,-43.2 8.5,-43.2"/>
<text text-anchor="start" x="11.5" y="-49.3" font-family="Helvetica,sans-Serif" font-size="11.00" fill="#000000"> &#160;</text>
<polygon fill="#ffffff" stroke="transparent" points="106.5,-43.2 106.5,-62.2 161.5,-62.2 161.5,-43.2 106.5,-43.2"/>
<polygon fill="none" stroke="#000000" points="106.5,-43.2 106.5,-62.2 161.5,-62.2 161.5,-43.2 106.5,-43.2"/>
<text text-anchor="start" x="152.3862" y="-49.3" font-family="Helvetica,sans-Serif" font-size="11.00" fill="#000000"> &#160;</text>
<polygon fill="#ffffff" stroke="transparent" points="161.5,-43.2 161.5,-62.2 237.5,-62.2 237.5,-43.2 161.5,-43.2"/>
<polygon fill="none" stroke="#000000" points="161.5,-43.2 161.5,-62.2 237.5,-62.2 237.5,-43.2 161.5,-43.2"/>
<text text-anchor="start" x="206.6755" y="-49.3" font-family="Helvetica,sans-Serif" font-size="11.00" fill="#000000">596 &gt;</text>
</a>
</g>
</g>
<!-- configuracao_lista_espera_criterios_desempate&#45;&gt;inscricao_lista_espera_situacoes -->
<g id="edge1" class="edge">
<title>configuracao_lista_espera_criterios_desempate:w&#45;&gt;inscricao_lista_espera_situacoes:e</title>
<path fill="none" stroke="#000000" stroke-dasharray="5,2" d="M273.776,-92.2C261.7815,-92.2 254.3229,-92.2 237.5,-92.2"/>
<polygon fill="#000000" stroke="#000000" points="280.5,-92.2001 288.5,-95.8 284.5,-92.2 288.5,-92.2 288.5,-92.2 288.5,-92.2 284.5,-92.2 288.5,-88.6 280.5,-92.2001 280.5,-92.2001"/>
<ellipse fill="none" stroke="#000000" cx="277.3" cy="-92.2001" rx="3.2" ry="3.2"/>
</g>
</g>
</svg>
