<?xml version="1.0" encoding="UTF-8" standalone="no"?>
<!DOCTYPE svg PUBLIC "-//W3C//DTD SVG 1.1//EN"
 "http://www.w3.org/Graphics/SVG/1.1/DTD/svg11.dtd">
<!-- Generated by graphviz version 2.40.1 (20161225.0304)
 -->
<!-- Title: oneDegreeRelationshipsDiagramImplied Pages: 1 -->
<svg width="848pt" height="602pt"
 viewBox="0.00 0.00 848.00 602.20" xmlns="http://www.w3.org/2000/svg" xmlns:xlink="http://www.w3.org/1999/xlink">
<g id="graph0" class="graph" transform="scale(1 1) rotate(0) translate(4 598.2)">
<title>oneDegreeRelationshipsDiagramImplied</title>
<polygon fill="#ffffff" stroke="transparent" points="-4,4 -4,-598.2 844,-598.2 844,4 -4,4"/>
<text text-anchor="middle" x="72.4936" y="-7.3" font-family="Helvetica,sans-Serif" font-size="11.00" fill="#000000">Generated by SchemaSpy</text>
<!-- configuracoes_lista_espera -->
<g id="node1" class="node">
<title>configuracoes_lista_espera</title>
<g id="a_node1"><a xlink:href="../../tables/configuracoes_lista_espera.html" xlink:title="configuracoes_lista_espera" target="_top">
<polygon fill="#ffffff" stroke="transparent" points="286,-38.2 286,-590.2 832,-590.2 832,-38.2 286,-38.2"/>
<polygon fill="#f5f5f5" stroke="transparent" points="288,-565.2 288,-588.2 830,-588.2 830,-565.2 288,-565.2"/>
<polygon fill="none" stroke="#000000" points="288,-565.2 288,-588.2 830,-588.2 830,-565.2 288,-565.2"/>
<text text-anchor="start" x="293" y="-573.8" font-family="Helvetica,sans-Serif" font-weight="bold" font-size="11.00" fill="#000000">configuracoes_lista_espera</text>
<text text-anchor="start" x="795.0437" y="-573.3" font-family="Helvetica,sans-Serif" font-size="11.00" fill="#000000">[table]</text>
<polygon fill="none" stroke="#000000" points="288,-543.2 288,-565.2 541,-565.2 541,-543.2 288,-543.2"/>
<text text-anchor="start" x="308" y="-550.3" font-family="Helvetica,sans-Serif" font-size="11.00" fill="#000000">sistema</text>
<polygon fill="none" stroke="#000000" points="541,-543.2 541,-565.2 830,-565.2 830,-543.2 541,-543.2"/>
<text text-anchor="start" x="544" y="-550.9" font-family="Helvetica,sans-Serif" font-size="11.00" fill="#000000">int4[10]</text>
<polygon fill="none" stroke="#000000" points="288,-521.2 288,-543.2 541,-543.2 541,-521.2 288,-521.2"/>
<text text-anchor="start" x="308" y="-528.3" font-family="Helvetica,sans-Serif" font-size="11.00" fill="#000000">tipo_registro</text>
<polygon fill="none" stroke="#000000" points="541,-521.2 541,-543.2 830,-543.2 830,-521.2 541,-521.2"/>
<text text-anchor="start" x="544" y="-528.9" font-family="Helvetica,sans-Serif" font-size="11.00" fill="#000000">text[2147483647]</text>
<polygon fill="none" stroke="#000000" points="288,-499.2 288,-521.2 541,-521.2 541,-499.2 288,-499.2"/>
<text text-anchor="start" x="308" y="-506.3" font-family="Helvetica,sans-Serif" font-size="11.00" fill="#000000">id_origem</text>
<polygon fill="none" stroke="#000000" points="541,-499.2 541,-521.2 830,-521.2 830,-499.2 541,-499.2"/>
<text text-anchor="start" x="544" y="-506.9" font-family="Helvetica,sans-Serif" font-size="11.00" fill="#000000">int4[10]</text>
<polygon fill="none" stroke="#000000" points="288,-477.2 288,-499.2 541,-499.2 541,-477.2 288,-477.2"/>
<text text-anchor="start" x="308" y="-484.3" font-family="Helvetica,sans-Serif" font-size="11.00" fill="#000000">id_cloud</text>
<polygon fill="none" stroke="#000000" points="541,-477.2 541,-499.2 830,-499.2 830,-477.2 541,-477.2"/>
<text text-anchor="start" x="544" y="-484.9" font-family="Helvetica,sans-Serif" font-size="11.00" fill="#000000">varchar[2147483647]</text>
<polygon fill="none" stroke="#000000" points="288,-455.2 288,-477.2 541,-477.2 541,-455.2 288,-455.2"/>
<image xlink:href="../../images/foreignKeys.png" width="11px" height="12px" preserveAspectRatio="xMinYMin meet" x="293" y="-472.2"/>
<text text-anchor="start" x="308" y="-462.3" font-family="Helvetica,sans-Serif" font-size="11.00" fill="#000000">ano_letivo_origem_id</text>
<polygon fill="none" stroke="#000000" points="541,-455.2 541,-477.2 830,-477.2 830,-455.2 541,-455.2"/>
<text text-anchor="start" x="544" y="-462.9" font-family="Helvetica,sans-Serif" font-size="11.00" fill="#000000">int4[10]</text>
<polygon fill="none" stroke="#000000" points="288,-433.2 288,-455.2 541,-455.2 541,-433.2 288,-433.2"/>
<image xlink:href="../../images/foreignKeys.png" width="11px" height="12px" preserveAspectRatio="xMinYMin meet" x="293" y="-450.2"/>
<text text-anchor="start" x="308" y="-440.3" font-family="Helvetica,sans-Serif" font-size="11.00" fill="#000000">ano_letivo_cloud_id</text>
<polygon fill="none" stroke="#000000" points="541,-433.2 541,-455.2 830,-455.2 830,-433.2 541,-433.2"/>
<text text-anchor="start" x="544" y="-440.9" font-family="Helvetica,sans-Serif" font-size="11.00" fill="#000000">int4[10]</text>
<polygon fill="none" stroke="#000000" points="288,-411.2 288,-433.2 541,-433.2 541,-411.2 288,-411.2"/>
<text text-anchor="start" x="308" y="-418.3" font-family="Helvetica,sans-Serif" font-size="11.00" fill="#000000">descricao</text>
<polygon fill="none" stroke="#000000" points="541,-411.2 541,-433.2 830,-433.2 830,-411.2 541,-411.2"/>
<text text-anchor="start" x="544" y="-418.9" font-family="Helvetica,sans-Serif" font-size="11.00" fill="#000000">varchar[2147483647]</text>
<polygon fill="none" stroke="#000000" points="288,-389.2 288,-411.2 541,-411.2 541,-389.2 288,-389.2"/>
<text text-anchor="start" x="308" y="-396.3" font-family="Helvetica,sans-Serif" font-size="11.00" fill="#000000">classificacoes</text>
<polygon fill="none" stroke="#000000" points="541,-389.2 541,-411.2 830,-411.2 830,-389.2 541,-389.2"/>
<text text-anchor="start" x="543.5092" y="-396.9" font-family="Helvetica,sans-Serif" font-size="11.00" fill="#000000">&quot;educacao&quot;.&quot;_tiposclassificacoeslistaespera&quot;[2147483647]</text>
<polygon fill="none" stroke="#000000" points="288,-367.2 288,-389.2 541,-389.2 541,-367.2 288,-367.2"/>
<text text-anchor="start" x="308" y="-374.3" font-family="Helvetica,sans-Serif" font-size="11.00" fill="#000000">permite_registro_outro_estabelecimento</text>
<polygon fill="none" stroke="#000000" points="541,-367.2 541,-389.2 830,-389.2 830,-367.2 541,-367.2"/>
<text text-anchor="start" x="544" y="-374.9" font-family="Helvetica,sans-Serif" font-size="11.00" fill="#000000">bool[1]</text>
<polygon fill="none" stroke="#000000" points="288,-345.2 288,-367.2 541,-367.2 541,-345.2 288,-345.2"/>
<text text-anchor="start" x="308" y="-352.3" font-family="Helvetica,sans-Serif" font-size="11.00" fill="#000000">endereco_area_abrangencia</text>
<polygon fill="none" stroke="#000000" points="541,-345.2 541,-367.2 830,-367.2 830,-345.2 541,-345.2"/>
<text text-anchor="start" x="544" y="-352.9" font-family="Helvetica,sans-Serif" font-size="11.00" fill="#000000">bool[1]</text>
<polygon fill="none" stroke="#000000" points="288,-323.2 288,-345.2 541,-345.2 541,-323.2 288,-323.2"/>
<text text-anchor="start" x="308" y="-330.3" font-family="Helvetica,sans-Serif" font-size="11.00" fill="#000000">permite_alterar_data_hora</text>
<polygon fill="none" stroke="#000000" points="541,-323.2 541,-345.2 830,-345.2 830,-323.2 541,-323.2"/>
<text text-anchor="start" x="544" y="-330.9" font-family="Helvetica,sans-Serif" font-size="11.00" fill="#000000">bool[1]</text>
<polygon fill="none" stroke="#000000" points="288,-301.2 288,-323.2 541,-323.2 541,-301.2 288,-301.2"/>
<text text-anchor="start" x="308" y="-308.3" font-family="Helvetica,sans-Serif" font-size="11.00" fill="#000000">tipo_alteracao_data_hora_list</text>
<polygon fill="none" stroke="#000000" points="541,-301.2 541,-323.2 830,-323.2 830,-301.2 541,-301.2"/>
<text text-anchor="start" x="544" y="-308.9" font-family="Helvetica,sans-Serif" font-size="11.00" fill="#000000">&quot;educacao&quot;.&quot;_tiposalteracaodatahora&quot;[2147483647]</text>
<polygon fill="none" stroke="#000000" points="288,-279.2 288,-301.2 541,-301.2 541,-279.2 288,-279.2"/>
<text text-anchor="start" x="308" y="-286.3" font-family="Helvetica,sans-Serif" font-size="11.00" fill="#000000">atualiza_data_criterios</text>
<polygon fill="none" stroke="#000000" points="541,-279.2 541,-301.2 830,-301.2 830,-279.2 541,-279.2"/>
<text text-anchor="start" x="544" y="-286.9" font-family="Helvetica,sans-Serif" font-size="11.00" fill="#000000">bool[1]</text>
<polygon fill="none" stroke="#000000" points="288,-257.2 288,-279.2 541,-279.2 541,-257.2 288,-257.2"/>
<text text-anchor="start" x="308" y="-264.3" font-family="Helvetica,sans-Serif" font-size="11.00" fill="#000000">qtd_estabelecimentos</text>
<polygon fill="none" stroke="#000000" points="541,-257.2 541,-279.2 830,-279.2 830,-257.2 541,-257.2"/>
<text text-anchor="start" x="544" y="-264.9" font-family="Helvetica,sans-Serif" font-size="11.00" fill="#000000">int4[10]</text>
<polygon fill="none" stroke="#000000" points="288,-235.2 288,-257.2 541,-257.2 541,-235.2 288,-235.2"/>
<text text-anchor="start" x="308" y="-242.3" font-family="Helvetica,sans-Serif" font-size="11.00" fill="#000000">qtd_turnos</text>
<polygon fill="none" stroke="#000000" points="541,-235.2 541,-257.2 830,-257.2 830,-235.2 541,-235.2"/>
<text text-anchor="start" x="544" y="-242.9" font-family="Helvetica,sans-Serif" font-size="11.00" fill="#000000">int4[10]</text>
<polygon fill="none" stroke="#000000" points="288,-213.2 288,-235.2 541,-235.2 541,-213.2 288,-213.2"/>
<text text-anchor="start" x="308" y="-220.3" font-family="Helvetica,sans-Serif" font-size="11.00" fill="#000000">mensagem</text>
<polygon fill="none" stroke="#000000" points="541,-213.2 541,-235.2 830,-235.2 830,-213.2 541,-213.2"/>
<text text-anchor="start" x="544" y="-220.9" font-family="Helvetica,sans-Serif" font-size="11.00" fill="#000000">varchar[2147483647]</text>
<polygon fill="none" stroke="#000000" points="288,-191.2 288,-213.2 541,-213.2 541,-191.2 288,-191.2"/>
<text text-anchor="start" x="308" y="-198.3" font-family="Helvetica,sans-Serif" font-size="11.00" fill="#000000">inativo</text>
<polygon fill="none" stroke="#000000" points="541,-191.2 541,-213.2 830,-213.2 830,-191.2 541,-191.2"/>
<text text-anchor="start" x="544" y="-198.9" font-family="Helvetica,sans-Serif" font-size="11.00" fill="#000000">bool[1]</text>
<polygon fill="none" stroke="#000000" points="288,-169.2 288,-191.2 541,-191.2 541,-169.2 288,-169.2"/>
<text text-anchor="start" x="308" y="-176.3" font-family="Helvetica,sans-Serif" font-size="11.00" fill="#000000">online</text>
<polygon fill="none" stroke="#000000" points="541,-169.2 541,-191.2 830,-191.2 830,-169.2 541,-169.2"/>
<text text-anchor="start" x="544" y="-176.9" font-family="Helvetica,sans-Serif" font-size="11.00" fill="#000000">bool[1]</text>
<polygon fill="none" stroke="#000000" points="288,-147.2 288,-169.2 541,-169.2 541,-147.2 288,-147.2"/>
<text text-anchor="start" x="308" y="-154.3" font-family="Helvetica,sans-Serif" font-size="11.00" fill="#000000">url_inscricao</text>
<polygon fill="none" stroke="#000000" points="541,-147.2 541,-169.2 830,-169.2 830,-147.2 541,-147.2"/>
<text text-anchor="start" x="544" y="-154.9" font-family="Helvetica,sans-Serif" font-size="11.00" fill="#000000">varchar[2147483647]</text>
<polygon fill="none" stroke="#000000" points="288,-125.2 288,-147.2 541,-147.2 541,-125.2 288,-125.2"/>
<text text-anchor="start" x="308" y="-132.3" font-family="Helvetica,sans-Serif" font-size="11.00" fill="#000000">utiliza_criterios</text>
<polygon fill="none" stroke="#000000" points="541,-125.2 541,-147.2 830,-147.2 830,-125.2 541,-125.2"/>
<text text-anchor="start" x="544" y="-132.9" font-family="Helvetica,sans-Serif" font-size="11.00" fill="#000000">bool[1]</text>
<polygon fill="none" stroke="#000000" points="288,-103.2 288,-125.2 541,-125.2 541,-103.2 288,-103.2"/>
<text text-anchor="start" x="308" y="-110.3" font-family="Helvetica,sans-Serif" font-size="11.00" fill="#000000">ocultar_posicao</text>
<polygon fill="none" stroke="#000000" points="541,-103.2 541,-125.2 830,-125.2 830,-103.2 541,-103.2"/>
<text text-anchor="start" x="544" y="-110.9" font-family="Helvetica,sans-Serif" font-size="11.00" fill="#000000">bool[1]</text>
<polygon fill="none" stroke="#000000" points="288,-81.2 288,-103.2 541,-103.2 541,-81.2 288,-81.2"/>
<text text-anchor="start" x="308" y="-88.3" font-family="Helvetica,sans-Serif" font-size="11.00" fill="#000000">encaminhamento</text>
<polygon fill="none" stroke="#000000" points="541,-81.2 541,-103.2 830,-103.2 830,-81.2 541,-81.2"/>
<text text-anchor="start" x="544" y="-88.9" font-family="Helvetica,sans-Serif" font-size="11.00" fill="#000000">bool[1]</text>
<polygon fill="none" stroke="#000000" points="288,-59.2 288,-81.2 541,-81.2 541,-59.2 288,-59.2"/>
<text text-anchor="start" x="308" y="-66.3" font-family="Helvetica,sans-Serif" font-size="11.00" fill="#000000">qtd_dias_encaminhamento</text>
<polygon fill="none" stroke="#000000" points="541,-59.2 541,-81.2 830,-81.2 830,-59.2 541,-59.2"/>
<text text-anchor="start" x="544" y="-66.9" font-family="Helvetica,sans-Serif" font-size="11.00" fill="#000000">int4[10]</text>
<polygon fill="#ffffff" stroke="transparent" points="288,-40.2 288,-59.2 419,-59.2 419,-40.2 288,-40.2"/>
<polygon fill="none" stroke="#000000" points="288,-40.2 288,-59.2 419,-59.2 419,-40.2 288,-40.2"/>
<text text-anchor="start" x="291" y="-46.3" font-family="Helvetica,sans-Serif" font-size="11.00" fill="#000000">&lt; 2</text>
<polygon fill="#ffffff" stroke="transparent" points="419,-40.2 419,-59.2 541,-59.2 541,-40.2 419,-40.2"/>
<polygon fill="none" stroke="#000000" points="419,-40.2 419,-59.2 541,-59.2 541,-40.2 419,-40.2"/>
<text text-anchor="start" x="531.8862" y="-46.3" font-family="Helvetica,sans-Serif" font-size="11.00" fill="#000000"> &#160;</text>
<polygon fill="#ffffff" stroke="transparent" points="541,-40.2 541,-59.2 830,-59.2 830,-40.2 541,-40.2"/>
<polygon fill="none" stroke="#000000" points="541,-40.2 541,-59.2 830,-59.2 830,-40.2 541,-40.2"/>
<text text-anchor="start" x="811.4053" y="-46.3" font-family="Helvetica,sans-Serif" font-size="11.00" fill="#000000">0 &gt;</text>
<polygon fill="none" stroke="#000000" stroke-width="2" points="287,-39.2 287,-589.2 831,-589.2 831,-39.2 287,-39.2"/>
</a>
</g>
</g>
<!-- inscricao_lista_espera_situacoes -->
<g id="node2" class="node">
<title>inscricao_lista_espera_situacoes</title>
<g id="a_node2"><a xlink:href="../../tables/inscricao_lista_espera_situacoes.html" xlink:title="inscricao_lista_espera_situacoes" target="_top">
<polygon fill="#ffffff" stroke="transparent" points="8,-406.7 8,-489.7 237,-489.7 237,-406.7 8,-406.7"/>
<polygon fill="#f5f5f5" stroke="transparent" points="8.5,-466.2 8.5,-489.2 237.5,-489.2 237.5,-466.2 8.5,-466.2"/>
<polygon fill="none" stroke="#000000" points="8.5,-466.2 8.5,-489.2 237.5,-489.2 237.5,-466.2 8.5,-466.2"/>
<text text-anchor="start" x="13.5" y="-474.8" font-family="Helvetica,sans-Serif" font-weight="bold" font-size="11.00" fill="#000000">inscricao_lista_espera_situacoes</text>
<text text-anchor="start" x="203.0219" y="-474.3" font-family="Helvetica,sans-Serif" font-size="11.00" fill="#000000">[table]</text>
<polygon fill="none" stroke="#000000" points="8.5,-444.2 8.5,-466.2 237.5,-466.2 237.5,-444.2 8.5,-444.2"/>
<image xlink:href="../../images/primaryKeys.png" width="11px" height="12px" preserveAspectRatio="xMinYMin meet" x="13.5" y="-461.2"/>
<text text-anchor="start" x="37.5" y="-451.3" font-family="Helvetica,sans-Serif" font-size="11.00" fill="#000000">id</text>
<polygon fill="none" stroke="#000000" points="8.5,-425.2 8.5,-444.2 237.5,-444.2 237.5,-425.2 8.5,-425.2"/>
<text text-anchor="start" x="11.5" y="-431.3" font-family="Helvetica,sans-Serif" font-size="11.00" fill="#000000">...</text>
<polygon fill="#ffffff" stroke="transparent" points="8.5,-406.2 8.5,-425.2 106.5,-425.2 106.5,-406.2 8.5,-406.2"/>
<polygon fill="none" stroke="#000000" points="8.5,-406.2 8.5,-425.2 106.5,-425.2 106.5,-406.2 8.5,-406.2"/>
<text text-anchor="start" x="11.5" y="-412.3" font-family="Helvetica,sans-Serif" font-size="11.00" fill="#000000"> &#160;</text>
<polygon fill="#ffffff" stroke="transparent" points="106.5,-406.2 106.5,-425.2 161.5,-425.2 161.5,-406.2 106.5,-406.2"/>
<polygon fill="none" stroke="#000000" points="106.5,-406.2 106.5,-425.2 161.5,-425.2 161.5,-406.2 106.5,-406.2"/>
<text text-anchor="start" x="152.3862" y="-412.3" font-family="Helvetica,sans-Serif" font-size="11.00" fill="#000000"> &#160;</text>
<polygon fill="#ffffff" stroke="transparent" points="161.5,-406.2 161.5,-425.2 237.5,-425.2 237.5,-406.2 161.5,-406.2"/>
<polygon fill="none" stroke="#000000" points="161.5,-406.2 161.5,-425.2 237.5,-425.2 237.5,-406.2 161.5,-406.2"/>
<text text-anchor="start" x="206.6755" y="-412.3" font-family="Helvetica,sans-Serif" font-size="11.00" fill="#000000">596 &gt;</text>
</a>
</g>
</g>
<!-- configuracoes_lista_espera&#45;&gt;inscricao_lista_espera_situacoes -->
<g id="edge1" class="edge">
<title>configuracoes_lista_espera:w&#45;&gt;inscricao_lista_espera_situacoes:e</title>
<path fill="none" stroke="#000000" stroke-dasharray="5,2" d="M273.6489,-445.9188C261.5992,-449.0125 254.728,-455.2 237.5,-455.2"/>
<polygon fill="#000000" stroke="#000000" points="280.0568,-445.1514 288.4281,-447.7745 284.0284,-444.6757 288,-444.2 288,-444.2 288,-444.2 284.0284,-444.6757 287.5719,-440.6255 280.0568,-445.1514 280.0568,-445.1514"/>
<ellipse fill="none" stroke="#000000" cx="276.8795" cy="-445.5319" rx="3.2" ry="3.2"/>
</g>
<!-- configuracoes_lista_espera&#45;&gt;inscricao_lista_espera_situacoes -->
<g id="edge2" class="edge">
<title>configuracoes_lista_espera:w&#45;&gt;inscricao_lista_espera_situacoes:e</title>
<path fill="none" stroke="#000000" stroke-dasharray="5,2" d="M273.6489,-464.4813C261.5992,-461.3875 254.728,-455.2 237.5,-455.2"/>
<polygon fill="#000000" stroke="#000000" points="280.0568,-465.2486 287.5719,-469.7745 284.0284,-465.7243 288,-466.2 288,-466.2 288,-466.2 284.0284,-465.7243 288.4281,-462.6255 280.0568,-465.2486 280.0568,-465.2486"/>
<ellipse fill="none" stroke="#000000" cx="276.8795" cy="-464.8681" rx="3.2" ry="3.2"/>
</g>
</g>
</svg>
