<?xml version="1.0" encoding="UTF-8" standalone="no"?>
<!DOCTYPE svg PUBLIC "-//W3C//DTD SVG 1.1//EN"
 "http://www.w3.org/Graphics/SVG/1.1/DTD/svg11.dtd">
<!-- Generated by graphviz version 2.40.1 (20161225.0304)
 -->
<!-- Title: oneDegreeRelationshipsDiagramImplied Pages: 1 -->
<svg width="702pt" height="360pt"
 viewBox="0.00 0.00 702.00 360.20" xmlns="http://www.w3.org/2000/svg" xmlns:xlink="http://www.w3.org/1999/xlink">
<g id="graph0" class="graph" transform="scale(1 1) rotate(0) translate(4 356.2)">
<title>oneDegreeRelationshipsDiagramImplied</title>
<polygon fill="#ffffff" stroke="transparent" points="-4,4 -4,-356.2 698,-356.2 698,4 -4,4"/>
<text text-anchor="middle" x="72.4936" y="-7.3" font-family="Helvetica,sans-Serif" font-size="11.00" fill="#000000">Generated by SchemaSpy</text>
<!-- configuracao_lista_espera_criterios_avaliacao -->
<g id="node1" class="node">
<title>configuracao_lista_espera_criterios_avaliacao</title>
<g id="a_node1"><a xlink:href="../../tables/configuracao_lista_espera_crite_112461df.html" xlink:title="configuracao_lista_espera_criterios_avaliacao" target="_top">
<polygon fill="#ffffff" stroke="transparent" points="286,-38.2 286,-348.2 686,-348.2 686,-38.2 286,-38.2"/>
<polygon fill="#f5f5f5" stroke="transparent" points="288,-323.2 288,-346.2 684,-346.2 684,-323.2 288,-323.2"/>
<polygon fill="none" stroke="#000000" points="288,-323.2 288,-346.2 684,-346.2 684,-323.2 288,-323.2"/>
<text text-anchor="start" x="293" y="-331.8" font-family="Helvetica,sans-Serif" font-weight="bold" font-size="11.00" fill="#000000">configuracao_lista_espera_criterios_avaliacao</text>
<text text-anchor="start" x="649.0437" y="-331.3" font-family="Helvetica,sans-Serif" font-size="11.00" fill="#000000">[table]</text>
<polygon fill="none" stroke="#000000" points="288,-301.2 288,-323.2 575,-323.2 575,-301.2 288,-301.2"/>
<text text-anchor="start" x="308" y="-308.3" font-family="Helvetica,sans-Serif" font-size="11.00" fill="#000000">sistema</text>
<polygon fill="none" stroke="#000000" points="575,-301.2 575,-323.2 684,-323.2 684,-301.2 575,-301.2"/>
<text text-anchor="start" x="578" y="-308.9" font-family="Helvetica,sans-Serif" font-size="11.00" fill="#000000">int4[10]</text>
<polygon fill="none" stroke="#000000" points="288,-279.2 288,-301.2 575,-301.2 575,-279.2 288,-279.2"/>
<text text-anchor="start" x="308" y="-286.3" font-family="Helvetica,sans-Serif" font-size="11.00" fill="#000000">tipo_registro</text>
<polygon fill="none" stroke="#000000" points="575,-279.2 575,-301.2 684,-301.2 684,-279.2 575,-279.2"/>
<text text-anchor="start" x="578" y="-286.9" font-family="Helvetica,sans-Serif" font-size="11.00" fill="#000000">text[2147483647]</text>
<polygon fill="none" stroke="#000000" points="288,-257.2 288,-279.2 575,-279.2 575,-257.2 288,-257.2"/>
<text text-anchor="start" x="308" y="-264.3" font-family="Helvetica,sans-Serif" font-size="11.00" fill="#000000">id_origem</text>
<polygon fill="none" stroke="#000000" points="575,-257.2 575,-279.2 684,-279.2 684,-257.2 575,-257.2"/>
<text text-anchor="start" x="578" y="-264.9" font-family="Helvetica,sans-Serif" font-size="11.00" fill="#000000">int4[10]</text>
<polygon fill="none" stroke="#000000" points="288,-235.2 288,-257.2 575,-257.2 575,-235.2 288,-235.2"/>
<text text-anchor="start" x="308" y="-242.3" font-family="Helvetica,sans-Serif" font-size="11.00" fill="#000000">id_cloud</text>
<polygon fill="none" stroke="#000000" points="575,-235.2 575,-257.2 684,-257.2 684,-235.2 575,-235.2"/>
<text text-anchor="start" x="577.5344" y="-242.9" font-family="Helvetica,sans-Serif" font-size="11.00" fill="#000000">varchar[2147483647]</text>
<polygon fill="none" stroke="#000000" points="288,-213.2 288,-235.2 575,-235.2 575,-213.2 288,-213.2"/>
<text text-anchor="start" x="308" y="-220.3" font-family="Helvetica,sans-Serif" font-size="11.00" fill="#000000">pontuacao</text>
<polygon fill="none" stroke="#000000" points="575,-213.2 575,-235.2 684,-235.2 684,-213.2 575,-213.2"/>
<text text-anchor="start" x="578" y="-220.9" font-family="Helvetica,sans-Serif" font-size="11.00" fill="#000000">int4[10]</text>
<polygon fill="none" stroke="#000000" points="288,-191.2 288,-213.2 575,-213.2 575,-191.2 288,-191.2"/>
<text text-anchor="start" x="308" y="-198.3" font-family="Helvetica,sans-Serif" font-size="11.00" fill="#000000">somente_administrador</text>
<polygon fill="none" stroke="#000000" points="575,-191.2 575,-213.2 684,-213.2 684,-191.2 575,-191.2"/>
<text text-anchor="start" x="578" y="-198.9" font-family="Helvetica,sans-Serif" font-size="11.00" fill="#000000">bool[1]</text>
<polygon fill="none" stroke="#000000" points="288,-169.2 288,-191.2 575,-191.2 575,-169.2 288,-169.2"/>
<text text-anchor="start" x="308" y="-176.3" font-family="Helvetica,sans-Serif" font-size="11.00" fill="#000000">usuario_externo</text>
<polygon fill="none" stroke="#000000" points="575,-169.2 575,-191.2 684,-191.2 684,-169.2 575,-169.2"/>
<text text-anchor="start" x="578" y="-176.9" font-family="Helvetica,sans-Serif" font-size="11.00" fill="#000000">bool[1]</text>
<polygon fill="none" stroke="#000000" points="288,-147.2 288,-169.2 575,-169.2 575,-147.2 288,-147.2"/>
<image xlink:href="../../images/foreignKeys.png" width="11px" height="12px" preserveAspectRatio="xMinYMin meet" x="293" y="-164.2"/>
<text text-anchor="start" x="308" y="-154.3" font-family="Helvetica,sans-Serif" font-size="11.00" fill="#000000">configuracao_lista_espera_origem_id</text>
<polygon fill="none" stroke="#000000" points="575,-147.2 575,-169.2 684,-169.2 684,-147.2 575,-147.2"/>
<text text-anchor="start" x="578" y="-154.9" font-family="Helvetica,sans-Serif" font-size="11.00" fill="#000000">int4[10]</text>
<polygon fill="none" stroke="#000000" points="288,-125.2 288,-147.2 575,-147.2 575,-125.2 288,-125.2"/>
<text text-anchor="start" x="308" y="-132.3" font-family="Helvetica,sans-Serif" font-size="11.00" fill="#000000">configuracao_lista_espera_cloud_id</text>
<polygon fill="none" stroke="#000000" points="575,-125.2 575,-147.2 684,-147.2 684,-125.2 575,-125.2"/>
<text text-anchor="start" x="577.5344" y="-132.9" font-family="Helvetica,sans-Serif" font-size="11.00" fill="#000000">varchar[2147483647]</text>
<polygon fill="none" stroke="#000000" points="288,-103.2 288,-125.2 575,-125.2 575,-103.2 288,-103.2"/>
<image xlink:href="../../images/foreignKeys.png" width="11px" height="12px" preserveAspectRatio="xMinYMin meet" x="293" y="-120.2"/>
<text text-anchor="start" x="308" y="-110.3" font-family="Helvetica,sans-Serif" font-size="11.00" fill="#000000">criterios_avaliacao_origem_id</text>
<polygon fill="none" stroke="#000000" points="575,-103.2 575,-125.2 684,-125.2 684,-103.2 575,-103.2"/>
<text text-anchor="start" x="578" y="-110.9" font-family="Helvetica,sans-Serif" font-size="11.00" fill="#000000">int4[10]</text>
<polygon fill="none" stroke="#000000" points="288,-81.2 288,-103.2 575,-103.2 575,-81.2 288,-81.2"/>
<text text-anchor="start" x="308" y="-88.3" font-family="Helvetica,sans-Serif" font-size="11.00" fill="#000000">criterios_avaliacao_cloud_id</text>
<polygon fill="none" stroke="#000000" points="575,-81.2 575,-103.2 684,-103.2 684,-81.2 575,-81.2"/>
<text text-anchor="start" x="577.5344" y="-88.9" font-family="Helvetica,sans-Serif" font-size="11.00" fill="#000000">varchar[2147483647]</text>
<polygon fill="none" stroke="#000000" points="288,-59.2 288,-81.2 575,-81.2 575,-59.2 288,-59.2"/>
<text text-anchor="start" x="308" y="-66.3" font-family="Helvetica,sans-Serif" font-size="11.00" fill="#000000">descricao</text>
<polygon fill="none" stroke="#000000" points="575,-59.2 575,-81.2 684,-81.2 684,-59.2 575,-59.2"/>
<text text-anchor="start" x="577.5344" y="-66.9" font-family="Helvetica,sans-Serif" font-size="11.00" fill="#000000">varchar[2147483647]</text>
<polygon fill="#ffffff" stroke="transparent" points="288,-40.2 288,-59.2 436,-59.2 436,-40.2 288,-40.2"/>
<polygon fill="none" stroke="#000000" points="288,-40.2 288,-59.2 436,-59.2 436,-40.2 288,-40.2"/>
<text text-anchor="start" x="291" y="-46.3" font-family="Helvetica,sans-Serif" font-size="11.00" fill="#000000">&lt; 2</text>
<polygon fill="#ffffff" stroke="transparent" points="436,-40.2 436,-59.2 575,-59.2 575,-40.2 436,-40.2"/>
<polygon fill="none" stroke="#000000" points="436,-40.2 436,-59.2 575,-59.2 575,-40.2 436,-40.2"/>
<text text-anchor="start" x="565.8862" y="-46.3" font-family="Helvetica,sans-Serif" font-size="11.00" fill="#000000"> &#160;</text>
<polygon fill="#ffffff" stroke="transparent" points="575,-40.2 575,-59.2 684,-59.2 684,-40.2 575,-40.2"/>
<polygon fill="none" stroke="#000000" points="575,-40.2 575,-59.2 684,-59.2 684,-40.2 575,-40.2"/>
<text text-anchor="start" x="665.4053" y="-46.3" font-family="Helvetica,sans-Serif" font-size="11.00" fill="#000000">0 &gt;</text>
<polygon fill="none" stroke="#000000" stroke-width="2" points="287,-39.2 287,-347.2 685,-347.2 685,-39.2 287,-39.2"/>
</a>
</g>
</g>
<!-- inscricao_lista_espera_situacoes -->
<g id="node2" class="node">
<title>inscricao_lista_espera_situacoes</title>
<g id="a_node2"><a xlink:href="../../tables/inscricao_lista_espera_situacoes.html" xlink:title="inscricao_lista_espera_situacoes" target="_top">
<polygon fill="#ffffff" stroke="transparent" points="8,-87.7 8,-170.7 237,-170.7 237,-87.7 8,-87.7"/>
<polygon fill="#f5f5f5" stroke="transparent" points="8.5,-147.2 8.5,-170.2 237.5,-170.2 237.5,-147.2 8.5,-147.2"/>
<polygon fill="none" stroke="#000000" points="8.5,-147.2 8.5,-170.2 237.5,-170.2 237.5,-147.2 8.5,-147.2"/>
<text text-anchor="start" x="13.5" y="-155.8" font-family="Helvetica,sans-Serif" font-weight="bold" font-size="11.00" fill="#000000">inscricao_lista_espera_situacoes</text>
<text text-anchor="start" x="203.0219" y="-155.3" font-family="Helvetica,sans-Serif" font-size="11.00" fill="#000000">[table]</text>
<polygon fill="none" stroke="#000000" points="8.5,-125.2 8.5,-147.2 237.5,-147.2 237.5,-125.2 8.5,-125.2"/>
<image xlink:href="../../images/primaryKeys.png" width="11px" height="12px" preserveAspectRatio="xMinYMin meet" x="13.5" y="-142.2"/>
<text text-anchor="start" x="37.5" y="-132.3" font-family="Helvetica,sans-Serif" font-size="11.00" fill="#000000">id</text>
<polygon fill="none" stroke="#000000" points="8.5,-106.2 8.5,-125.2 237.5,-125.2 237.5,-106.2 8.5,-106.2"/>
<text text-anchor="start" x="11.5" y="-112.3" font-family="Helvetica,sans-Serif" font-size="11.00" fill="#000000">...</text>
<polygon fill="#ffffff" stroke="transparent" points="8.5,-87.2 8.5,-106.2 106.5,-106.2 106.5,-87.2 8.5,-87.2"/>
<polygon fill="none" stroke="#000000" points="8.5,-87.2 8.5,-106.2 106.5,-106.2 106.5,-87.2 8.5,-87.2"/>
<text text-anchor="start" x="11.5" y="-93.3" font-family="Helvetica,sans-Serif" font-size="11.00" fill="#000000"> &#160;</text>
<polygon fill="#ffffff" stroke="transparent" points="106.5,-87.2 106.5,-106.2 161.5,-106.2 161.5,-87.2 106.5,-87.2"/>
<polygon fill="none" stroke="#000000" points="106.5,-87.2 106.5,-106.2 161.5,-106.2 161.5,-87.2 106.5,-87.2"/>
<text text-anchor="start" x="152.3862" y="-93.3" font-family="Helvetica,sans-Serif" font-size="11.00" fill="#000000"> &#160;</text>
<polygon fill="#ffffff" stroke="transparent" points="161.5,-87.2 161.5,-106.2 237.5,-106.2 237.5,-87.2 161.5,-87.2"/>
<polygon fill="none" stroke="#000000" points="161.5,-87.2 161.5,-106.2 237.5,-106.2 237.5,-87.2 161.5,-87.2"/>
<text text-anchor="start" x="206.6755" y="-93.3" font-family="Helvetica,sans-Serif" font-size="11.00" fill="#000000">596 &gt;</text>
</a>
</g>
</g>
<!-- configuracao_lista_espera_criterios_avaliacao&#45;&gt;inscricao_lista_espera_situacoes -->
<g id="edge1" class="edge">
<title>configuracao_lista_espera_criterios_avaliacao:w&#45;&gt;inscricao_lista_espera_situacoes:e</title>
<path fill="none" stroke="#000000" stroke-dasharray="5,2" d="M273.5981,-154.9538C261.4282,-148.8342 256.0526,-136.2 237.5,-136.2"/>
<polygon fill="#000000" stroke="#000000" points="280.1958,-156.4409 287.2084,-161.7119 284.0979,-157.3204 288,-158.2 288,-158.2 288,-158.2 284.0979,-157.3204 288.7916,-154.6881 280.1958,-156.4409 280.1958,-156.4409"/>
<ellipse fill="none" stroke="#000000" cx="277.0741" cy="-155.7373" rx="3.2" ry="3.2"/>
</g>
<!-- configuracao_lista_espera_criterios_avaliacao&#45;&gt;inscricao_lista_espera_situacoes -->
<g id="edge2" class="edge">
<title>configuracao_lista_espera_criterios_avaliacao:w&#45;&gt;inscricao_lista_espera_situacoes:e</title>
<path fill="none" stroke="#000000" stroke-dasharray="5,2" d="M273.5981,-117.4462C261.4282,-123.5658 256.0526,-136.2 237.5,-136.2"/>
<polygon fill="#000000" stroke="#000000" points="280.1958,-115.9591 288.7916,-117.7119 284.0979,-115.0796 288,-114.2 288,-114.2 288,-114.2 284.0979,-115.0796 287.2084,-110.6881 280.1958,-115.9591 280.1958,-115.9591"/>
<ellipse fill="none" stroke="#000000" cx="277.0741" cy="-116.6627" rx="3.2" ry="3.2"/>
</g>
</g>
</svg>
