<?xml version="1.0" encoding="UTF-8" standalone="no"?>
<!DOCTYPE svg PUBLIC "-//W3C//DTD SVG 1.1//EN"
 "http://www.w3.org/Graphics/SVG/1.1/DTD/svg11.dtd">
<!-- Generated by graphviz version 2.40.1 (20161225.0304)
 -->
<!-- Title: oneDegreeRelationshipsDiagram Pages: 1 -->
<svg width="519pt" height="382pt"
 viewBox="0.00 0.00 519.00 382.20" xmlns="http://www.w3.org/2000/svg" xmlns:xlink="http://www.w3.org/1999/xlink">
<g id="graph0" class="graph" transform="scale(1 1) rotate(0) translate(4 378.2)">
<title>oneDegreeRelationshipsDiagram</title>
<polygon fill="#ffffff" stroke="transparent" points="-4,4 -4,-378.2 515,-378.2 515,4 -4,4"/>
<text text-anchor="middle" x="72.4936" y="-7.3" font-family="Helvetica,sans-Serif" font-size="11.00" fill="#000000">Generated by SchemaSpy</text>
<!-- cursos_aperfeicoamento -->
<g id="node1" class="node">
<title>cursos_aperfeicoamento</title>
<g id="a_node1"><a xlink:href="../../tables/cursos_aperfeicoamento.html" xlink:title="cursos_aperfeicoamento" target="_top">
<polygon fill="#ffffff" stroke="transparent" points="8,-38.2 8,-370.2 503,-370.2 503,-38.2 8,-38.2"/>
<polygon fill="#f5f5f5" stroke="transparent" points="10.5,-345.2 10.5,-368.2 501.5,-368.2 501.5,-345.2 10.5,-345.2"/>
<polygon fill="none" stroke="#000000" points="10.5,-345.2 10.5,-368.2 501.5,-368.2 501.5,-345.2 10.5,-345.2"/>
<text text-anchor="start" x="15.5" y="-353.8" font-family="Helvetica,sans-Serif" font-weight="bold" font-size="11.00" fill="#000000">cursos_aperfeicoamento</text>
<text text-anchor="start" x="466.5437" y="-353.3" font-family="Helvetica,sans-Serif" font-size="11.00" fill="#000000">[table]</text>
<polygon fill="none" stroke="#000000" points="10.5,-323.2 10.5,-345.2 224.5,-345.2 224.5,-323.2 10.5,-323.2"/>
<text text-anchor="start" x="30.5" y="-330.3" font-family="Helvetica,sans-Serif" font-size="11.00" fill="#000000">sistema</text>
<polygon fill="none" stroke="#000000" points="224.5,-323.2 224.5,-345.2 501.5,-345.2 501.5,-323.2 224.5,-323.2"/>
<text text-anchor="start" x="227.5" y="-330.9" font-family="Helvetica,sans-Serif" font-size="11.00" fill="#000000">int4[10]</text>
<polygon fill="none" stroke="#000000" points="10.5,-301.2 10.5,-323.2 224.5,-323.2 224.5,-301.2 10.5,-301.2"/>
<text text-anchor="start" x="30.5" y="-308.3" font-family="Helvetica,sans-Serif" font-size="11.00" fill="#000000">tipo_registro</text>
<polygon fill="none" stroke="#000000" points="224.5,-301.2 224.5,-323.2 501.5,-323.2 501.5,-301.2 224.5,-301.2"/>
<text text-anchor="start" x="227.5" y="-308.9" font-family="Helvetica,sans-Serif" font-size="11.00" fill="#000000">text[2147483647]</text>
<polygon fill="none" stroke="#000000" points="10.5,-279.2 10.5,-301.2 224.5,-301.2 224.5,-279.2 10.5,-279.2"/>
<text text-anchor="start" x="30.5" y="-286.3" font-family="Helvetica,sans-Serif" font-size="11.00" fill="#000000">id_integracao</text>
<polygon fill="none" stroke="#000000" points="224.5,-279.2 224.5,-301.2 501.5,-301.2 501.5,-279.2 224.5,-279.2"/>
<text text-anchor="start" x="227.5" y="-286.9" font-family="Helvetica,sans-Serif" font-size="11.00" fill="#000000">varchar[2147483647]</text>
<polygon fill="none" stroke="#000000" points="10.5,-257.2 10.5,-279.2 224.5,-279.2 224.5,-257.2 10.5,-257.2"/>
<text text-anchor="start" x="30.5" y="-264.3" font-family="Helvetica,sans-Serif" font-size="11.00" fill="#000000">id_origem</text>
<polygon fill="none" stroke="#000000" points="224.5,-257.2 224.5,-279.2 501.5,-279.2 501.5,-257.2 224.5,-257.2"/>
<text text-anchor="start" x="227.5" y="-264.9" font-family="Helvetica,sans-Serif" font-size="11.00" fill="#000000">int4[10]</text>
<polygon fill="none" stroke="#000000" points="10.5,-235.2 10.5,-257.2 224.5,-257.2 224.5,-235.2 10.5,-235.2"/>
<text text-anchor="start" x="30.5" y="-242.3" font-family="Helvetica,sans-Serif" font-size="11.00" fill="#000000">id_cloud</text>
<polygon fill="none" stroke="#000000" points="224.5,-235.2 224.5,-257.2 501.5,-257.2 501.5,-235.2 224.5,-235.2"/>
<text text-anchor="start" x="227.5" y="-242.9" font-family="Helvetica,sans-Serif" font-size="11.00" fill="#000000">int4[10]</text>
<polygon fill="none" stroke="#000000" points="10.5,-213.2 10.5,-235.2 224.5,-235.2 224.5,-213.2 10.5,-213.2"/>
<text text-anchor="start" x="30.5" y="-220.3" font-family="Helvetica,sans-Serif" font-size="11.00" fill="#000000">descricao</text>
<polygon fill="none" stroke="#000000" points="224.5,-213.2 224.5,-235.2 501.5,-235.2 501.5,-213.2 224.5,-213.2"/>
<text text-anchor="start" x="227.5" y="-220.9" font-family="Helvetica,sans-Serif" font-size="11.00" fill="#000000">varchar[2147483647]</text>
<polygon fill="none" stroke="#000000" points="10.5,-191.2 10.5,-213.2 224.5,-213.2 224.5,-191.2 10.5,-191.2"/>
<text text-anchor="start" x="30.5" y="-198.3" font-family="Helvetica,sans-Serif" font-size="11.00" fill="#000000">tipo_curso_aperfeicoamento</text>
<polygon fill="none" stroke="#000000" points="224.5,-191.2 224.5,-213.2 501.5,-213.2 501.5,-191.2 224.5,-191.2"/>
<text text-anchor="start" x="227.4217" y="-198.9" font-family="Helvetica,sans-Serif" font-size="11.00" fill="#000000">&quot;educacao&quot;.&quot;tiposcursosaperfeicoamento&quot;[2147483647]</text>
<polygon fill="none" stroke="#000000" points="10.5,-169.2 10.5,-191.2 224.5,-191.2 224.5,-169.2 10.5,-169.2"/>
<text text-anchor="start" x="30.5" y="-176.3" font-family="Helvetica,sans-Serif" font-size="11.00" fill="#000000">tipo_curso_outro</text>
<polygon fill="none" stroke="#000000" points="224.5,-169.2 224.5,-191.2 501.5,-191.2 501.5,-169.2 224.5,-169.2"/>
<text text-anchor="start" x="227.5" y="-176.9" font-family="Helvetica,sans-Serif" font-size="11.00" fill="#000000">varchar[2147483647]</text>
<polygon fill="none" stroke="#000000" points="10.5,-147.2 10.5,-169.2 224.5,-169.2 224.5,-147.2 10.5,-147.2"/>
<text text-anchor="start" x="30.5" y="-154.3" font-family="Helvetica,sans-Serif" font-size="11.00" fill="#000000">formacao_continuada</text>
<polygon fill="none" stroke="#000000" points="224.5,-147.2 224.5,-169.2 501.5,-169.2 501.5,-147.2 224.5,-147.2"/>
<text text-anchor="start" x="227.5" y="-154.9" font-family="Helvetica,sans-Serif" font-size="11.00" fill="#000000">bool[1]</text>
<polygon fill="none" stroke="#000000" points="10.5,-125.2 10.5,-147.2 224.5,-147.2 224.5,-125.2 10.5,-125.2"/>
<text text-anchor="start" x="30.5" y="-132.3" font-family="Helvetica,sans-Serif" font-size="11.00" fill="#000000">area_formacao_continuada</text>
<polygon fill="none" stroke="#000000" points="224.5,-125.2 224.5,-147.2 501.5,-147.2 501.5,-125.2 224.5,-125.2"/>
<text text-anchor="start" x="227.5" y="-132.9" font-family="Helvetica,sans-Serif" font-size="11.00" fill="#000000">&quot;educacao&quot;.&quot;areasformacaocontinuada&quot;[2147483647]</text>
<polygon fill="none" stroke="#000000" points="10.5,-103.2 10.5,-125.2 224.5,-125.2 224.5,-103.2 10.5,-103.2"/>
<text text-anchor="start" x="30.5" y="-110.3" font-family="Helvetica,sans-Serif" font-size="11.00" fill="#000000">area_formacao_continuada_outro</text>
<polygon fill="none" stroke="#000000" points="224.5,-103.2 224.5,-125.2 501.5,-125.2 501.5,-103.2 224.5,-103.2"/>
<text text-anchor="start" x="227.5" y="-110.9" font-family="Helvetica,sans-Serif" font-size="11.00" fill="#000000">varchar[2147483647]</text>
<polygon fill="none" stroke="#000000" points="10.5,-81.2 10.5,-103.2 224.5,-103.2 224.5,-81.2 10.5,-81.2"/>
<text text-anchor="start" x="30.5" y="-88.3" font-family="Helvetica,sans-Serif" font-size="11.00" fill="#000000">estabelecimento</text>
<polygon fill="none" stroke="#000000" points="224.5,-81.2 224.5,-103.2 501.5,-103.2 501.5,-81.2 224.5,-81.2"/>
<text text-anchor="start" x="227.5" y="-88.9" font-family="Helvetica,sans-Serif" font-size="11.00" fill="#000000">varchar[2147483647]</text>
<polygon fill="none" stroke="#000000" points="10.5,-59.2 10.5,-81.2 224.5,-81.2 224.5,-59.2 10.5,-59.2"/>
<text text-anchor="start" x="30.5" y="-66.3" font-family="Helvetica,sans-Serif" font-size="11.00" fill="#000000">carga_horaria_em_segundos</text>
<polygon fill="none" stroke="#000000" points="224.5,-59.2 224.5,-81.2 501.5,-81.2 501.5,-59.2 224.5,-59.2"/>
<text text-anchor="start" x="227.5" y="-66.9" font-family="Helvetica,sans-Serif" font-size="11.00" fill="#000000">int4[10]</text>
<polygon fill="#ffffff" stroke="transparent" points="10.5,-40.2 10.5,-59.2 121.5,-59.2 121.5,-40.2 10.5,-40.2"/>
<polygon fill="none" stroke="#000000" points="10.5,-40.2 10.5,-59.2 121.5,-59.2 121.5,-40.2 10.5,-40.2"/>
<text text-anchor="start" x="13.5" y="-46.3" font-family="Helvetica,sans-Serif" font-size="11.00" fill="#000000">&lt; 0</text>
<polygon fill="#ffffff" stroke="transparent" points="121.5,-40.2 121.5,-59.2 224.5,-59.2 224.5,-40.2 121.5,-40.2"/>
<polygon fill="none" stroke="#000000" points="121.5,-40.2 121.5,-59.2 224.5,-59.2 224.5,-40.2 121.5,-40.2"/>
<text text-anchor="start" x="215.3862" y="-46.3" font-family="Helvetica,sans-Serif" font-size="11.00" fill="#000000"> &#160;</text>
<polygon fill="#ffffff" stroke="transparent" points="224.5,-40.2 224.5,-59.2 501.5,-59.2 501.5,-40.2 224.5,-40.2"/>
<polygon fill="none" stroke="#000000" points="224.5,-40.2 224.5,-59.2 501.5,-59.2 501.5,-40.2 224.5,-40.2"/>
<text text-anchor="start" x="482.9053" y="-46.3" font-family="Helvetica,sans-Serif" font-size="11.00" fill="#000000">0 &gt;</text>
<polygon fill="none" stroke="#000000" stroke-width="2" points="9,-39.2 9,-369.2 502,-369.2 502,-39.2 9,-39.2"/>
</a>
</g>
</g>
</g>
</svg>
