<?xml version="1.0" encoding="UTF-8" standalone="no"?>
<!DOCTYPE svg PUBLIC "-//W3C//DTD SVG 1.1//EN"
 "http://www.w3.org/Graphics/SVG/1.1/DTD/svg11.dtd">
<!-- Generated by graphviz version 2.40.1 (20161225.0304)
 -->
<!-- Title: oneDegreeRelationshipsDiagram Pages: 1 -->
<svg width="365pt" height="294pt"
 viewBox="0.00 0.00 365.00 294.20" xmlns="http://www.w3.org/2000/svg" xmlns:xlink="http://www.w3.org/1999/xlink">
<g id="graph0" class="graph" transform="scale(1 1) rotate(0) translate(4 290.2)">
<title>oneDegreeRelationshipsDiagram</title>
<polygon fill="#ffffff" stroke="transparent" points="-4,4 -4,-290.2 361,-290.2 361,4 -4,4"/>
<text text-anchor="middle" x="72.4936" y="-7.3" font-family="Helvetica,sans-Serif" font-size="11.00" fill="#000000">Generated by SchemaSpy</text>
<!-- cursos_educacao_profissional_inep -->
<g id="node1" class="node">
<title>cursos_educacao_profissional_inep</title>
<g id="a_node1"><a xlink:href="../../tables/cursos_educacao_profissional_inep.html" xlink:title="cursos_educacao_profissional_inep" target="_top">
<polygon fill="#ffffff" stroke="transparent" points="8,-38.2 8,-282.2 349,-282.2 349,-38.2 8,-38.2"/>
<polygon fill="#f5f5f5" stroke="transparent" points="10.5,-257.2 10.5,-280.2 347.5,-280.2 347.5,-257.2 10.5,-257.2"/>
<polygon fill="none" stroke="#000000" points="10.5,-257.2 10.5,-280.2 347.5,-280.2 347.5,-257.2 10.5,-257.2"/>
<text text-anchor="start" x="15.5" y="-265.8" font-family="Helvetica,sans-Serif" font-weight="bold" font-size="11.00" fill="#000000">cursos_educacao_profissional_inep</text>
<text text-anchor="start" x="312.5437" y="-265.3" font-family="Helvetica,sans-Serif" font-size="11.00" fill="#000000">[table]</text>
<polygon fill="none" stroke="#000000" points="10.5,-235.2 10.5,-257.2 238.5,-257.2 238.5,-235.2 10.5,-235.2"/>
<text text-anchor="start" x="30.5" y="-242.3" font-family="Helvetica,sans-Serif" font-size="11.00" fill="#000000">sistema</text>
<polygon fill="none" stroke="#000000" points="238.5,-235.2 238.5,-257.2 347.5,-257.2 347.5,-235.2 238.5,-235.2"/>
<text text-anchor="start" x="241.5" y="-242.9" font-family="Helvetica,sans-Serif" font-size="11.00" fill="#000000">int4[10]</text>
<polygon fill="none" stroke="#000000" points="10.5,-213.2 10.5,-235.2 238.5,-235.2 238.5,-213.2 10.5,-213.2"/>
<text text-anchor="start" x="30.5" y="-220.3" font-family="Helvetica,sans-Serif" font-size="11.00" fill="#000000">tipo_registro</text>
<polygon fill="none" stroke="#000000" points="238.5,-213.2 238.5,-235.2 347.5,-235.2 347.5,-213.2 238.5,-213.2"/>
<text text-anchor="start" x="241.5" y="-220.9" font-family="Helvetica,sans-Serif" font-size="11.00" fill="#000000">text[2147483647]</text>
<polygon fill="none" stroke="#000000" points="10.5,-191.2 10.5,-213.2 238.5,-213.2 238.5,-191.2 10.5,-191.2"/>
<text text-anchor="start" x="30.5" y="-198.3" font-family="Helvetica,sans-Serif" font-size="11.00" fill="#000000">id_integracao</text>
<polygon fill="none" stroke="#000000" points="238.5,-191.2 238.5,-213.2 347.5,-213.2 347.5,-191.2 238.5,-191.2"/>
<text text-anchor="start" x="241.0344" y="-198.9" font-family="Helvetica,sans-Serif" font-size="11.00" fill="#000000">varchar[2147483647]</text>
<polygon fill="none" stroke="#000000" points="10.5,-169.2 10.5,-191.2 238.5,-191.2 238.5,-169.2 10.5,-169.2"/>
<text text-anchor="start" x="30.5" y="-176.3" font-family="Helvetica,sans-Serif" font-size="11.00" fill="#000000">id_origem</text>
<polygon fill="none" stroke="#000000" points="238.5,-169.2 238.5,-191.2 347.5,-191.2 347.5,-169.2 238.5,-169.2"/>
<text text-anchor="start" x="241.5" y="-176.9" font-family="Helvetica,sans-Serif" font-size="11.00" fill="#000000">int4[10]</text>
<polygon fill="none" stroke="#000000" points="10.5,-147.2 10.5,-169.2 238.5,-169.2 238.5,-147.2 10.5,-147.2"/>
<text text-anchor="start" x="30.5" y="-154.3" font-family="Helvetica,sans-Serif" font-size="11.00" fill="#000000">id_cloud</text>
<polygon fill="none" stroke="#000000" points="238.5,-147.2 238.5,-169.2 347.5,-169.2 347.5,-147.2 238.5,-147.2"/>
<text text-anchor="start" x="241.5" y="-154.9" font-family="Helvetica,sans-Serif" font-size="11.00" fill="#000000">int4[10]</text>
<polygon fill="none" stroke="#000000" points="10.5,-125.2 10.5,-147.2 238.5,-147.2 238.5,-125.2 10.5,-125.2"/>
<text text-anchor="start" x="30.5" y="-132.3" font-family="Helvetica,sans-Serif" font-size="11.00" fill="#000000">id_eixo</text>
<polygon fill="none" stroke="#000000" points="238.5,-125.2 238.5,-147.2 347.5,-147.2 347.5,-125.2 238.5,-125.2"/>
<text text-anchor="start" x="241.5" y="-132.9" font-family="Helvetica,sans-Serif" font-size="11.00" fill="#000000">int4[10]</text>
<polygon fill="none" stroke="#000000" points="10.5,-103.2 10.5,-125.2 238.5,-125.2 238.5,-103.2 10.5,-103.2"/>
<text text-anchor="start" x="30.5" y="-110.3" font-family="Helvetica,sans-Serif" font-size="11.00" fill="#000000">eixo</text>
<polygon fill="none" stroke="#000000" points="238.5,-103.2 238.5,-125.2 347.5,-125.2 347.5,-103.2 238.5,-103.2"/>
<text text-anchor="start" x="241.0344" y="-110.9" font-family="Helvetica,sans-Serif" font-size="11.00" fill="#000000">varchar[2147483647]</text>
<polygon fill="none" stroke="#000000" points="10.5,-81.2 10.5,-103.2 238.5,-103.2 238.5,-81.2 10.5,-81.2"/>
<text text-anchor="start" x="30.5" y="-88.3" font-family="Helvetica,sans-Serif" font-size="11.00" fill="#000000">id_curso</text>
<polygon fill="none" stroke="#000000" points="238.5,-81.2 238.5,-103.2 347.5,-103.2 347.5,-81.2 238.5,-81.2"/>
<text text-anchor="start" x="241.0344" y="-88.9" font-family="Helvetica,sans-Serif" font-size="11.00" fill="#000000">varchar[2147483647]</text>
<polygon fill="none" stroke="#000000" points="10.5,-59.2 10.5,-81.2 238.5,-81.2 238.5,-59.2 10.5,-59.2"/>
<text text-anchor="start" x="30.5" y="-66.3" font-family="Helvetica,sans-Serif" font-size="11.00" fill="#000000">curso</text>
<polygon fill="none" stroke="#000000" points="238.5,-59.2 238.5,-81.2 347.5,-81.2 347.5,-59.2 238.5,-59.2"/>
<text text-anchor="start" x="241.0344" y="-66.9" font-family="Helvetica,sans-Serif" font-size="11.00" fill="#000000">varchar[2147483647]</text>
<polygon fill="#ffffff" stroke="transparent" points="10.5,-40.2 10.5,-59.2 128.5,-59.2 128.5,-40.2 10.5,-40.2"/>
<polygon fill="none" stroke="#000000" points="10.5,-40.2 10.5,-59.2 128.5,-59.2 128.5,-40.2 10.5,-40.2"/>
<text text-anchor="start" x="13.5" y="-46.3" font-family="Helvetica,sans-Serif" font-size="11.00" fill="#000000">&lt; 0</text>
<polygon fill="#ffffff" stroke="transparent" points="128.5,-40.2 128.5,-59.2 238.5,-59.2 238.5,-40.2 128.5,-40.2"/>
<polygon fill="none" stroke="#000000" points="128.5,-40.2 128.5,-59.2 238.5,-59.2 238.5,-40.2 128.5,-40.2"/>
<text text-anchor="start" x="229.3862" y="-46.3" font-family="Helvetica,sans-Serif" font-size="11.00" fill="#000000"> &#160;</text>
<polygon fill="#ffffff" stroke="transparent" points="238.5,-40.2 238.5,-59.2 347.5,-59.2 347.5,-40.2 238.5,-40.2"/>
<polygon fill="none" stroke="#000000" points="238.5,-40.2 238.5,-59.2 347.5,-59.2 347.5,-40.2 238.5,-40.2"/>
<text text-anchor="start" x="328.9053" y="-46.3" font-family="Helvetica,sans-Serif" font-size="11.00" fill="#000000">0 &gt;</text>
<polygon fill="none" stroke="#000000" stroke-width="2" points="9,-39.2 9,-281.2 348,-281.2 348,-39.2 9,-39.2"/>
</a>
</g>
</g>
</g>
</svg>
