<?xml version="1.0" encoding="UTF-8" standalone="no"?>
<!DOCTYPE svg PUBLIC "-//W3C//DTD SVG 1.1//EN"
 "http://www.w3.org/Graphics/SVG/1.1/DTD/svg11.dtd">
<!-- Generated by graphviz version 2.40.1 (20161225.0304)
 -->
<!-- Title: oneDegreeRelationshipsDiagramImplied Pages: 1 -->
<svg width="656pt" height="360pt"
 viewBox="0.00 0.00 656.00 360.20" xmlns="http://www.w3.org/2000/svg" xmlns:xlink="http://www.w3.org/1999/xlink">
<g id="graph0" class="graph" transform="scale(1 1) rotate(0) translate(4 356.2)">
<title>oneDegreeRelationshipsDiagramImplied</title>
<polygon fill="#ffffff" stroke="transparent" points="-4,4 -4,-356.2 652,-356.2 652,4 -4,4"/>
<text text-anchor="middle" x="72.4936" y="-7.3" font-family="Helvetica,sans-Serif" font-size="11.00" fill="#000000">Generated by SchemaSpy</text>
<!-- cursos_aperfeicoamento_funcionarios -->
<g id="node1" class="node">
<title>cursos_aperfeicoamento_funcionarios</title>
<g id="a_node1"><a xlink:href="../../tables/cursos_aperfeicoamento_funcionarios.html" xlink:title="cursos_aperfeicoamento_funcionarios" target="_top">
<polygon fill="#ffffff" stroke="transparent" points="286,-38.2 286,-348.2 640,-348.2 640,-38.2 286,-38.2"/>
<polygon fill="#f5f5f5" stroke="transparent" points="288,-323.2 288,-346.2 638,-346.2 638,-323.2 288,-323.2"/>
<polygon fill="none" stroke="#000000" points="288,-323.2 288,-346.2 638,-346.2 638,-323.2 288,-323.2"/>
<text text-anchor="start" x="293" y="-331.8" font-family="Helvetica,sans-Serif" font-weight="bold" font-size="11.00" fill="#000000">cursos_aperfeicoamento_funcionarios</text>
<text text-anchor="start" x="603.0437" y="-331.3" font-family="Helvetica,sans-Serif" font-size="11.00" fill="#000000">[table]</text>
<polygon fill="none" stroke="#000000" points="288,-301.2 288,-323.2 529,-323.2 529,-301.2 288,-301.2"/>
<text text-anchor="start" x="308" y="-308.3" font-family="Helvetica,sans-Serif" font-size="11.00" fill="#000000">sistema</text>
<polygon fill="none" stroke="#000000" points="529,-301.2 529,-323.2 638,-323.2 638,-301.2 529,-301.2"/>
<text text-anchor="start" x="532" y="-308.9" font-family="Helvetica,sans-Serif" font-size="11.00" fill="#000000">int4[10]</text>
<polygon fill="none" stroke="#000000" points="288,-279.2 288,-301.2 529,-301.2 529,-279.2 288,-279.2"/>
<text text-anchor="start" x="308" y="-286.3" font-family="Helvetica,sans-Serif" font-size="11.00" fill="#000000">tipo_registro</text>
<polygon fill="none" stroke="#000000" points="529,-279.2 529,-301.2 638,-301.2 638,-279.2 529,-279.2"/>
<text text-anchor="start" x="532" y="-286.9" font-family="Helvetica,sans-Serif" font-size="11.00" fill="#000000">text[2147483647]</text>
<polygon fill="none" stroke="#000000" points="288,-257.2 288,-279.2 529,-279.2 529,-257.2 288,-257.2"/>
<text text-anchor="start" x="308" y="-264.3" font-family="Helvetica,sans-Serif" font-size="11.00" fill="#000000">id_integracao</text>
<polygon fill="none" stroke="#000000" points="529,-257.2 529,-279.2 638,-279.2 638,-257.2 529,-257.2"/>
<text text-anchor="start" x="531.5344" y="-264.9" font-family="Helvetica,sans-Serif" font-size="11.00" fill="#000000">varchar[2147483647]</text>
<polygon fill="none" stroke="#000000" points="288,-235.2 288,-257.2 529,-257.2 529,-235.2 288,-235.2"/>
<text text-anchor="start" x="308" y="-242.3" font-family="Helvetica,sans-Serif" font-size="11.00" fill="#000000">id_origem</text>
<polygon fill="none" stroke="#000000" points="529,-235.2 529,-257.2 638,-257.2 638,-235.2 529,-235.2"/>
<text text-anchor="start" x="532" y="-242.9" font-family="Helvetica,sans-Serif" font-size="11.00" fill="#000000">int4[10]</text>
<polygon fill="none" stroke="#000000" points="288,-213.2 288,-235.2 529,-235.2 529,-213.2 288,-213.2"/>
<text text-anchor="start" x="308" y="-220.3" font-family="Helvetica,sans-Serif" font-size="11.00" fill="#000000">id_cloud</text>
<polygon fill="none" stroke="#000000" points="529,-213.2 529,-235.2 638,-235.2 638,-213.2 529,-213.2"/>
<text text-anchor="start" x="532" y="-220.9" font-family="Helvetica,sans-Serif" font-size="11.00" fill="#000000">int4[10]</text>
<polygon fill="none" stroke="#000000" points="288,-191.2 288,-213.2 529,-213.2 529,-191.2 288,-191.2"/>
<image xlink:href="../../images/foreignKeys.png" width="11px" height="12px" preserveAspectRatio="xMinYMin meet" x="293" y="-208.2"/>
<text text-anchor="start" x="308" y="-198.3" font-family="Helvetica,sans-Serif" font-size="11.00" fill="#000000">servidor_origem_id</text>
<polygon fill="none" stroke="#000000" points="529,-191.2 529,-213.2 638,-213.2 638,-191.2 529,-191.2"/>
<text text-anchor="start" x="532" y="-198.9" font-family="Helvetica,sans-Serif" font-size="11.00" fill="#000000">int4[10]</text>
<polygon fill="none" stroke="#000000" points="288,-169.2 288,-191.2 529,-191.2 529,-169.2 288,-169.2"/>
<image xlink:href="../../images/foreignKeys.png" width="11px" height="12px" preserveAspectRatio="xMinYMin meet" x="293" y="-186.2"/>
<text text-anchor="start" x="308" y="-176.3" font-family="Helvetica,sans-Serif" font-size="11.00" fill="#000000">servidor_cloud_id</text>
<polygon fill="none" stroke="#000000" points="529,-169.2 529,-191.2 638,-191.2 638,-169.2 529,-169.2"/>
<text text-anchor="start" x="532" y="-176.9" font-family="Helvetica,sans-Serif" font-size="11.00" fill="#000000">int4[10]</text>
<polygon fill="none" stroke="#000000" points="288,-147.2 288,-169.2 529,-169.2 529,-147.2 288,-147.2"/>
<image xlink:href="../../images/foreignKeys.png" width="11px" height="12px" preserveAspectRatio="xMinYMin meet" x="293" y="-164.2"/>
<text text-anchor="start" x="308" y="-154.3" font-family="Helvetica,sans-Serif" font-size="11.00" fill="#000000">curso_aperfeicoamento_origem_id</text>
<polygon fill="none" stroke="#000000" points="529,-147.2 529,-169.2 638,-169.2 638,-147.2 529,-147.2"/>
<text text-anchor="start" x="532" y="-154.9" font-family="Helvetica,sans-Serif" font-size="11.00" fill="#000000">int4[10]</text>
<polygon fill="none" stroke="#000000" points="288,-125.2 288,-147.2 529,-147.2 529,-125.2 288,-125.2"/>
<image xlink:href="../../images/foreignKeys.png" width="11px" height="12px" preserveAspectRatio="xMinYMin meet" x="293" y="-142.2"/>
<text text-anchor="start" x="308" y="-132.3" font-family="Helvetica,sans-Serif" font-size="11.00" fill="#000000">curso_aperfeicoamento_cloud_id</text>
<polygon fill="none" stroke="#000000" points="529,-125.2 529,-147.2 638,-147.2 638,-125.2 529,-125.2"/>
<text text-anchor="start" x="532" y="-132.9" font-family="Helvetica,sans-Serif" font-size="11.00" fill="#000000">int4[10]</text>
<polygon fill="none" stroke="#000000" points="288,-103.2 288,-125.2 529,-125.2 529,-103.2 288,-103.2"/>
<text text-anchor="start" x="308" y="-110.3" font-family="Helvetica,sans-Serif" font-size="11.00" fill="#000000">pontuacao</text>
<polygon fill="none" stroke="#000000" points="529,-103.2 529,-125.2 638,-125.2 638,-103.2 529,-103.2"/>
<text text-anchor="start" x="532" y="-110.9" font-family="Helvetica,sans-Serif" font-size="11.00" fill="#000000">int4[10]</text>
<polygon fill="none" stroke="#000000" points="288,-81.2 288,-103.2 529,-103.2 529,-81.2 288,-81.2"/>
<text text-anchor="start" x="308" y="-88.3" font-family="Helvetica,sans-Serif" font-size="11.00" fill="#000000">data_inicio</text>
<polygon fill="none" stroke="#000000" points="529,-81.2 529,-103.2 638,-103.2 638,-81.2 529,-81.2"/>
<text text-anchor="start" x="532" y="-88.9" font-family="Helvetica,sans-Serif" font-size="11.00" fill="#000000">date[13]</text>
<polygon fill="none" stroke="#000000" points="288,-59.2 288,-81.2 529,-81.2 529,-59.2 288,-59.2"/>
<text text-anchor="start" x="308" y="-66.3" font-family="Helvetica,sans-Serif" font-size="11.00" fill="#000000">data_fim</text>
<polygon fill="none" stroke="#000000" points="529,-59.2 529,-81.2 638,-81.2 638,-59.2 529,-59.2"/>
<text text-anchor="start" x="532" y="-66.9" font-family="Helvetica,sans-Serif" font-size="11.00" fill="#000000">date[13]</text>
<polygon fill="#ffffff" stroke="transparent" points="288,-40.2 288,-59.2 413,-59.2 413,-40.2 288,-40.2"/>
<polygon fill="none" stroke="#000000" points="288,-40.2 288,-59.2 413,-59.2 413,-40.2 288,-40.2"/>
<text text-anchor="start" x="291" y="-46.3" font-family="Helvetica,sans-Serif" font-size="11.00" fill="#000000">&lt; 4</text>
<polygon fill="#ffffff" stroke="transparent" points="413,-40.2 413,-59.2 529,-59.2 529,-40.2 413,-40.2"/>
<polygon fill="none" stroke="#000000" points="413,-40.2 413,-59.2 529,-59.2 529,-40.2 413,-40.2"/>
<text text-anchor="start" x="519.8862" y="-46.3" font-family="Helvetica,sans-Serif" font-size="11.00" fill="#000000"> &#160;</text>
<polygon fill="#ffffff" stroke="transparent" points="529,-40.2 529,-59.2 638,-59.2 638,-40.2 529,-40.2"/>
<polygon fill="none" stroke="#000000" points="529,-40.2 529,-59.2 638,-59.2 638,-40.2 529,-40.2"/>
<text text-anchor="start" x="619.4053" y="-46.3" font-family="Helvetica,sans-Serif" font-size="11.00" fill="#000000">0 &gt;</text>
<polygon fill="none" stroke="#000000" stroke-width="2" points="287,-39.2 287,-347.2 639,-347.2 639,-39.2 287,-39.2"/>
</a>
</g>
</g>
<!-- inscricao_lista_espera_situacoes -->
<g id="node2" class="node">
<title>inscricao_lista_espera_situacoes</title>
<g id="a_node2"><a xlink:href="../../tables/inscricao_lista_espera_situacoes.html" xlink:title="inscricao_lista_espera_situacoes" target="_top">
<polygon fill="#ffffff" stroke="transparent" points="8,-120.7 8,-203.7 237,-203.7 237,-120.7 8,-120.7"/>
<polygon fill="#f5f5f5" stroke="transparent" points="8.5,-180.2 8.5,-203.2 237.5,-203.2 237.5,-180.2 8.5,-180.2"/>
<polygon fill="none" stroke="#000000" points="8.5,-180.2 8.5,-203.2 237.5,-203.2 237.5,-180.2 8.5,-180.2"/>
<text text-anchor="start" x="13.5" y="-188.8" font-family="Helvetica,sans-Serif" font-weight="bold" font-size="11.00" fill="#000000">inscricao_lista_espera_situacoes</text>
<text text-anchor="start" x="203.0219" y="-188.3" font-family="Helvetica,sans-Serif" font-size="11.00" fill="#000000">[table]</text>
<polygon fill="none" stroke="#000000" points="8.5,-158.2 8.5,-180.2 237.5,-180.2 237.5,-158.2 8.5,-158.2"/>
<image xlink:href="../../images/primaryKeys.png" width="11px" height="12px" preserveAspectRatio="xMinYMin meet" x="13.5" y="-175.2"/>
<text text-anchor="start" x="37.5" y="-165.3" font-family="Helvetica,sans-Serif" font-size="11.00" fill="#000000">id</text>
<polygon fill="none" stroke="#000000" points="8.5,-139.2 8.5,-158.2 237.5,-158.2 237.5,-139.2 8.5,-139.2"/>
<text text-anchor="start" x="11.5" y="-145.3" font-family="Helvetica,sans-Serif" font-size="11.00" fill="#000000">...</text>
<polygon fill="#ffffff" stroke="transparent" points="8.5,-120.2 8.5,-139.2 106.5,-139.2 106.5,-120.2 8.5,-120.2"/>
<polygon fill="none" stroke="#000000" points="8.5,-120.2 8.5,-139.2 106.5,-139.2 106.5,-120.2 8.5,-120.2"/>
<text text-anchor="start" x="11.5" y="-126.3" font-family="Helvetica,sans-Serif" font-size="11.00" fill="#000000"> &#160;</text>
<polygon fill="#ffffff" stroke="transparent" points="106.5,-120.2 106.5,-139.2 161.5,-139.2 161.5,-120.2 106.5,-120.2"/>
<polygon fill="none" stroke="#000000" points="106.5,-120.2 106.5,-139.2 161.5,-139.2 161.5,-120.2 106.5,-120.2"/>
<text text-anchor="start" x="152.3862" y="-126.3" font-family="Helvetica,sans-Serif" font-size="11.00" fill="#000000"> &#160;</text>
<polygon fill="#ffffff" stroke="transparent" points="161.5,-120.2 161.5,-139.2 237.5,-139.2 237.5,-120.2 161.5,-120.2"/>
<polygon fill="none" stroke="#000000" points="161.5,-120.2 161.5,-139.2 237.5,-139.2 237.5,-120.2 161.5,-120.2"/>
<text text-anchor="start" x="206.6755" y="-126.3" font-family="Helvetica,sans-Serif" font-size="11.00" fill="#000000">596 &gt;</text>
</a>
</g>
</g>
<!-- cursos_aperfeicoamento_funcionarios&#45;&gt;inscricao_lista_espera_situacoes -->
<g id="edge1" class="edge">
<title>cursos_aperfeicoamento_funcionarios:w&#45;&gt;inscricao_lista_espera_situacoes:e</title>
<path fill="none" stroke="#000000" stroke-dasharray="5,2" d="M274.0755,-140.2464C261.1224,-149.0584 258.4466,-169.2 237.5,-169.2"/>
<polygon fill="#000000" stroke="#000000" points="280.3178,-138.4325 289.0046,-139.657 284.1589,-137.3162 288,-136.2 288,-136.2 288,-136.2 284.1589,-137.3162 286.9954,-132.743 280.3178,-138.4325 280.3178,-138.4325"/>
<ellipse fill="none" stroke="#000000" cx="277.2449" cy="-139.3255" rx="3.2" ry="3.2"/>
</g>
<!-- cursos_aperfeicoamento_funcionarios&#45;&gt;inscricao_lista_espera_situacoes -->
<g id="edge2" class="edge">
<title>cursos_aperfeicoamento_funcionarios:w&#45;&gt;inscricao_lista_espera_situacoes:e</title>
<path fill="none" stroke="#000000" stroke-dasharray="5,2" d="M273.6489,-159.9188C261.5992,-163.0125 254.728,-169.2 237.5,-169.2"/>
<polygon fill="#000000" stroke="#000000" points="280.0568,-159.1514 288.4281,-161.7745 284.0284,-158.6757 288,-158.2 288,-158.2 288,-158.2 284.0284,-158.6757 287.5719,-154.6255 280.0568,-159.1514 280.0568,-159.1514"/>
<ellipse fill="none" stroke="#000000" cx="276.8795" cy="-159.5319" rx="3.2" ry="3.2"/>
</g>
<!-- cursos_aperfeicoamento_funcionarios&#45;&gt;inscricao_lista_espera_situacoes -->
<g id="edge3" class="edge">
<title>cursos_aperfeicoamento_funcionarios:w&#45;&gt;inscricao_lista_espera_situacoes:e</title>
<path fill="none" stroke="#000000" stroke-dasharray="5,2" d="M273.6489,-178.4813C261.5992,-175.3875 254.728,-169.2 237.5,-169.2"/>
<polygon fill="#000000" stroke="#000000" points="280.0568,-179.2486 287.5719,-183.7745 284.0284,-179.7243 288,-180.2 288,-180.2 288,-180.2 284.0284,-179.7243 288.4281,-176.6255 280.0568,-179.2486 280.0568,-179.2486"/>
<ellipse fill="none" stroke="#000000" cx="276.8795" cy="-178.8681" rx="3.2" ry="3.2"/>
</g>
<!-- cursos_aperfeicoamento_funcionarios&#45;&gt;inscricao_lista_espera_situacoes -->
<g id="edge4" class="edge">
<title>cursos_aperfeicoamento_funcionarios:w&#45;&gt;inscricao_lista_espera_situacoes:e</title>
<path fill="none" stroke="#000000" stroke-dasharray="5,2" d="M274.0755,-198.1536C261.1224,-189.3416 258.4466,-169.2 237.5,-169.2"/>
<polygon fill="#000000" stroke="#000000" points="280.3178,-199.9675 286.9954,-205.657 284.1589,-201.0838 288,-202.2 288,-202.2 288,-202.2 284.1589,-201.0838 289.0046,-198.743 280.3178,-199.9675 280.3178,-199.9675"/>
<ellipse fill="none" stroke="#000000" cx="277.2449" cy="-199.0745" rx="3.2" ry="3.2"/>
</g>
</g>
</svg>
