<?xml version="1.0" encoding="UTF-8" standalone="no"?>
<!DOCTYPE svg PUBLIC "-//W3C//DTD SVG 1.1//EN"
 "http://www.w3.org/Graphics/SVG/1.1/DTD/svg11.dtd">
<!-- Generated by graphviz version 2.40.1 (20161225.0304)
 -->
<!-- Title: oneDegreeRelationshipsDiagram Pages: 1 -->
<svg width="378pt" height="360pt"
 viewBox="0.00 0.00 378.00 360.20" xmlns="http://www.w3.org/2000/svg" xmlns:xlink="http://www.w3.org/1999/xlink">
<g id="graph0" class="graph" transform="scale(1 1) rotate(0) translate(4 356.2)">
<title>oneDegreeRelationshipsDiagram</title>
<polygon fill="#ffffff" stroke="transparent" points="-4,4 -4,-356.2 374,-356.2 374,4 -4,4"/>
<text text-anchor="middle" x="72.4936" y="-7.3" font-family="Helvetica,sans-Serif" font-size="11.00" fill="#000000">Generated by SchemaSpy</text>
<!-- cursos_aperfeicoamento_funcionarios -->
<g id="node1" class="node">
<title>cursos_aperfeicoamento_funcionarios</title>
<g id="a_node1"><a xlink:href="../../tables/cursos_aperfeicoamento_funcionarios.html" xlink:title="cursos_aperfeicoamento_funcionarios" target="_top">
<polygon fill="#ffffff" stroke="transparent" points="8,-38.2 8,-348.2 362,-348.2 362,-38.2 8,-38.2"/>
<polygon fill="#f5f5f5" stroke="transparent" points="10,-323.2 10,-346.2 360,-346.2 360,-323.2 10,-323.2"/>
<polygon fill="none" stroke="#000000" points="10,-323.2 10,-346.2 360,-346.2 360,-323.2 10,-323.2"/>
<text text-anchor="start" x="15" y="-331.8" font-family="Helvetica,sans-Serif" font-weight="bold" font-size="11.00" fill="#000000">cursos_aperfeicoamento_funcionarios</text>
<text text-anchor="start" x="325.0437" y="-331.3" font-family="Helvetica,sans-Serif" font-size="11.00" fill="#000000">[table]</text>
<polygon fill="none" stroke="#000000" points="10,-301.2 10,-323.2 251,-323.2 251,-301.2 10,-301.2"/>
<text text-anchor="start" x="30" y="-308.3" font-family="Helvetica,sans-Serif" font-size="11.00" fill="#000000">sistema</text>
<polygon fill="none" stroke="#000000" points="251,-301.2 251,-323.2 360,-323.2 360,-301.2 251,-301.2"/>
<text text-anchor="start" x="254" y="-308.9" font-family="Helvetica,sans-Serif" font-size="11.00" fill="#000000">int4[10]</text>
<polygon fill="none" stroke="#000000" points="10,-279.2 10,-301.2 251,-301.2 251,-279.2 10,-279.2"/>
<text text-anchor="start" x="30" y="-286.3" font-family="Helvetica,sans-Serif" font-size="11.00" fill="#000000">tipo_registro</text>
<polygon fill="none" stroke="#000000" points="251,-279.2 251,-301.2 360,-301.2 360,-279.2 251,-279.2"/>
<text text-anchor="start" x="254" y="-286.9" font-family="Helvetica,sans-Serif" font-size="11.00" fill="#000000">text[2147483647]</text>
<polygon fill="none" stroke="#000000" points="10,-257.2 10,-279.2 251,-279.2 251,-257.2 10,-257.2"/>
<text text-anchor="start" x="30" y="-264.3" font-family="Helvetica,sans-Serif" font-size="11.00" fill="#000000">id_integracao</text>
<polygon fill="none" stroke="#000000" points="251,-257.2 251,-279.2 360,-279.2 360,-257.2 251,-257.2"/>
<text text-anchor="start" x="253.5344" y="-264.9" font-family="Helvetica,sans-Serif" font-size="11.00" fill="#000000">varchar[2147483647]</text>
<polygon fill="none" stroke="#000000" points="10,-235.2 10,-257.2 251,-257.2 251,-235.2 10,-235.2"/>
<text text-anchor="start" x="30" y="-242.3" font-family="Helvetica,sans-Serif" font-size="11.00" fill="#000000">id_origem</text>
<polygon fill="none" stroke="#000000" points="251,-235.2 251,-257.2 360,-257.2 360,-235.2 251,-235.2"/>
<text text-anchor="start" x="254" y="-242.9" font-family="Helvetica,sans-Serif" font-size="11.00" fill="#000000">int4[10]</text>
<polygon fill="none" stroke="#000000" points="10,-213.2 10,-235.2 251,-235.2 251,-213.2 10,-213.2"/>
<text text-anchor="start" x="30" y="-220.3" font-family="Helvetica,sans-Serif" font-size="11.00" fill="#000000">id_cloud</text>
<polygon fill="none" stroke="#000000" points="251,-213.2 251,-235.2 360,-235.2 360,-213.2 251,-213.2"/>
<text text-anchor="start" x="254" y="-220.9" font-family="Helvetica,sans-Serif" font-size="11.00" fill="#000000">int4[10]</text>
<polygon fill="none" stroke="#000000" points="10,-191.2 10,-213.2 251,-213.2 251,-191.2 10,-191.2"/>
<image xlink:href="../../images/foreignKeys.png" width="11px" height="12px" preserveAspectRatio="xMinYMin meet" x="15" y="-208.2"/>
<text text-anchor="start" x="30" y="-198.3" font-family="Helvetica,sans-Serif" font-size="11.00" fill="#000000">servidor_origem_id</text>
<polygon fill="none" stroke="#000000" points="251,-191.2 251,-213.2 360,-213.2 360,-191.2 251,-191.2"/>
<text text-anchor="start" x="254" y="-198.9" font-family="Helvetica,sans-Serif" font-size="11.00" fill="#000000">int4[10]</text>
<polygon fill="none" stroke="#000000" points="10,-169.2 10,-191.2 251,-191.2 251,-169.2 10,-169.2"/>
<image xlink:href="../../images/foreignKeys.png" width="11px" height="12px" preserveAspectRatio="xMinYMin meet" x="15" y="-186.2"/>
<text text-anchor="start" x="30" y="-176.3" font-family="Helvetica,sans-Serif" font-size="11.00" fill="#000000">servidor_cloud_id</text>
<polygon fill="none" stroke="#000000" points="251,-169.2 251,-191.2 360,-191.2 360,-169.2 251,-169.2"/>
<text text-anchor="start" x="254" y="-176.9" font-family="Helvetica,sans-Serif" font-size="11.00" fill="#000000">int4[10]</text>
<polygon fill="none" stroke="#000000" points="10,-147.2 10,-169.2 251,-169.2 251,-147.2 10,-147.2"/>
<image xlink:href="../../images/foreignKeys.png" width="11px" height="12px" preserveAspectRatio="xMinYMin meet" x="15" y="-164.2"/>
<text text-anchor="start" x="30" y="-154.3" font-family="Helvetica,sans-Serif" font-size="11.00" fill="#000000">curso_aperfeicoamento_origem_id</text>
<polygon fill="none" stroke="#000000" points="251,-147.2 251,-169.2 360,-169.2 360,-147.2 251,-147.2"/>
<text text-anchor="start" x="254" y="-154.9" font-family="Helvetica,sans-Serif" font-size="11.00" fill="#000000">int4[10]</text>
<polygon fill="none" stroke="#000000" points="10,-125.2 10,-147.2 251,-147.2 251,-125.2 10,-125.2"/>
<image xlink:href="../../images/foreignKeys.png" width="11px" height="12px" preserveAspectRatio="xMinYMin meet" x="15" y="-142.2"/>
<text text-anchor="start" x="30" y="-132.3" font-family="Helvetica,sans-Serif" font-size="11.00" fill="#000000">curso_aperfeicoamento_cloud_id</text>
<polygon fill="none" stroke="#000000" points="251,-125.2 251,-147.2 360,-147.2 360,-125.2 251,-125.2"/>
<text text-anchor="start" x="254" y="-132.9" font-family="Helvetica,sans-Serif" font-size="11.00" fill="#000000">int4[10]</text>
<polygon fill="none" stroke="#000000" points="10,-103.2 10,-125.2 251,-125.2 251,-103.2 10,-103.2"/>
<text text-anchor="start" x="30" y="-110.3" font-family="Helvetica,sans-Serif" font-size="11.00" fill="#000000">pontuacao</text>
<polygon fill="none" stroke="#000000" points="251,-103.2 251,-125.2 360,-125.2 360,-103.2 251,-103.2"/>
<text text-anchor="start" x="254" y="-110.9" font-family="Helvetica,sans-Serif" font-size="11.00" fill="#000000">int4[10]</text>
<polygon fill="none" stroke="#000000" points="10,-81.2 10,-103.2 251,-103.2 251,-81.2 10,-81.2"/>
<text text-anchor="start" x="30" y="-88.3" font-family="Helvetica,sans-Serif" font-size="11.00" fill="#000000">data_inicio</text>
<polygon fill="none" stroke="#000000" points="251,-81.2 251,-103.2 360,-103.2 360,-81.2 251,-81.2"/>
<text text-anchor="start" x="254" y="-88.9" font-family="Helvetica,sans-Serif" font-size="11.00" fill="#000000">date[13]</text>
<polygon fill="none" stroke="#000000" points="10,-59.2 10,-81.2 251,-81.2 251,-59.2 10,-59.2"/>
<text text-anchor="start" x="30" y="-66.3" font-family="Helvetica,sans-Serif" font-size="11.00" fill="#000000">data_fim</text>
<polygon fill="none" stroke="#000000" points="251,-59.2 251,-81.2 360,-81.2 360,-59.2 251,-59.2"/>
<text text-anchor="start" x="254" y="-66.9" font-family="Helvetica,sans-Serif" font-size="11.00" fill="#000000">date[13]</text>
<polygon fill="#ffffff" stroke="transparent" points="10,-40.2 10,-59.2 135,-59.2 135,-40.2 10,-40.2"/>
<polygon fill="none" stroke="#000000" points="10,-40.2 10,-59.2 135,-59.2 135,-40.2 10,-40.2"/>
<text text-anchor="start" x="13" y="-46.3" font-family="Helvetica,sans-Serif" font-size="11.00" fill="#000000">&lt; 0</text>
<polygon fill="#ffffff" stroke="transparent" points="135,-40.2 135,-59.2 251,-59.2 251,-40.2 135,-40.2"/>
<polygon fill="none" stroke="#000000" points="135,-40.2 135,-59.2 251,-59.2 251,-40.2 135,-40.2"/>
<text text-anchor="start" x="241.8862" y="-46.3" font-family="Helvetica,sans-Serif" font-size="11.00" fill="#000000"> &#160;</text>
<polygon fill="#ffffff" stroke="transparent" points="251,-40.2 251,-59.2 360,-59.2 360,-40.2 251,-40.2"/>
<polygon fill="none" stroke="#000000" points="251,-40.2 251,-59.2 360,-59.2 360,-40.2 251,-40.2"/>
<text text-anchor="start" x="341.4053" y="-46.3" font-family="Helvetica,sans-Serif" font-size="11.00" fill="#000000">0 &gt;</text>
<polygon fill="none" stroke="#000000" stroke-width="2" points="9,-39.2 9,-347.2 361,-347.2 361,-39.2 9,-39.2"/>
</a>
</g>
</g>
</g>
</svg>
