<?xml version="1.0" encoding="UTF-8" standalone="no"?>
<!DOCTYPE svg PUBLIC "-//W3C//DTD SVG 1.1//EN"
 "http://www.w3.org/Graphics/SVG/1.1/DTD/svg11.dtd">
<!-- Generated by graphviz version 2.40.1 (20161225.0304)
 -->
<!-- Title: oneDegreeRelationshipsDiagramImplied Pages: 1 -->
<svg width="713pt" height="470pt"
 viewBox="0.00 0.00 713.00 470.20" xmlns="http://www.w3.org/2000/svg" xmlns:xlink="http://www.w3.org/1999/xlink">
<g id="graph0" class="graph" transform="scale(1 1) rotate(0) translate(4 466.2)">
<title>oneDegreeRelationshipsDiagramImplied</title>
<polygon fill="#ffffff" stroke="transparent" points="-4,4 -4,-466.2 709,-466.2 709,4 -4,4"/>
<text text-anchor="middle" x="72.4936" y="-7.3" font-family="Helvetica,sans-Serif" font-size="11.00" fill="#000000">Generated by SchemaSpy</text>
<!-- dependencias_fisicas -->
<g id="node1" class="node">
<title>dependencias_fisicas</title>
<g id="a_node1"><a xlink:href="../../tables/dependencias_fisicas.html" xlink:title="dependencias_fisicas" target="_top">
<polygon fill="#ffffff" stroke="transparent" points="286,-38.2 286,-458.2 697,-458.2 697,-38.2 286,-38.2"/>
<polygon fill="#f5f5f5" stroke="transparent" points="288.5,-433.2 288.5,-456.2 695.5,-456.2 695.5,-433.2 288.5,-433.2"/>
<polygon fill="none" stroke="#000000" points="288.5,-433.2 288.5,-456.2 695.5,-456.2 695.5,-433.2 288.5,-433.2"/>
<text text-anchor="start" x="293.5" y="-441.8" font-family="Helvetica,sans-Serif" font-weight="bold" font-size="11.00" fill="#000000">dependencias_fisicas</text>
<text text-anchor="start" x="660.5437" y="-441.3" font-family="Helvetica,sans-Serif" font-size="11.00" fill="#000000">[table]</text>
<polygon fill="none" stroke="#000000" points="288.5,-411.2 288.5,-433.2 475.5,-433.2 475.5,-411.2 288.5,-411.2"/>
<text text-anchor="start" x="308.5" y="-418.3" font-family="Helvetica,sans-Serif" font-size="11.00" fill="#000000">sistema</text>
<polygon fill="none" stroke="#000000" points="475.5,-411.2 475.5,-433.2 695.5,-433.2 695.5,-411.2 475.5,-411.2"/>
<text text-anchor="start" x="478.5" y="-418.9" font-family="Helvetica,sans-Serif" font-size="11.00" fill="#000000">int4[10]</text>
<polygon fill="none" stroke="#000000" points="288.5,-389.2 288.5,-411.2 475.5,-411.2 475.5,-389.2 288.5,-389.2"/>
<text text-anchor="start" x="308.5" y="-396.3" font-family="Helvetica,sans-Serif" font-size="11.00" fill="#000000">tipo_registro</text>
<polygon fill="none" stroke="#000000" points="475.5,-389.2 475.5,-411.2 695.5,-411.2 695.5,-389.2 475.5,-389.2"/>
<text text-anchor="start" x="478.5" y="-396.9" font-family="Helvetica,sans-Serif" font-size="11.00" fill="#000000">text[2147483647]</text>
<polygon fill="none" stroke="#000000" points="288.5,-367.2 288.5,-389.2 475.5,-389.2 475.5,-367.2 288.5,-367.2"/>
<text text-anchor="start" x="308.5" y="-374.3" font-family="Helvetica,sans-Serif" font-size="11.00" fill="#000000">id_integracao</text>
<polygon fill="none" stroke="#000000" points="475.5,-367.2 475.5,-389.2 695.5,-389.2 695.5,-367.2 475.5,-367.2"/>
<text text-anchor="start" x="478.5" y="-374.9" font-family="Helvetica,sans-Serif" font-size="11.00" fill="#000000">varchar[2147483647]</text>
<polygon fill="none" stroke="#000000" points="288.5,-345.2 288.5,-367.2 475.5,-367.2 475.5,-345.2 288.5,-345.2"/>
<text text-anchor="start" x="308.5" y="-352.3" font-family="Helvetica,sans-Serif" font-size="11.00" fill="#000000">id_origem</text>
<polygon fill="none" stroke="#000000" points="475.5,-345.2 475.5,-367.2 695.5,-367.2 695.5,-345.2 475.5,-345.2"/>
<text text-anchor="start" x="478.5" y="-352.9" font-family="Helvetica,sans-Serif" font-size="11.00" fill="#000000">int4[10]</text>
<polygon fill="none" stroke="#000000" points="288.5,-323.2 288.5,-345.2 475.5,-345.2 475.5,-323.2 288.5,-323.2"/>
<text text-anchor="start" x="308.5" y="-330.3" font-family="Helvetica,sans-Serif" font-size="11.00" fill="#000000">id_cloud</text>
<polygon fill="none" stroke="#000000" points="475.5,-323.2 475.5,-345.2 695.5,-345.2 695.5,-323.2 475.5,-323.2"/>
<text text-anchor="start" x="478.5" y="-330.9" font-family="Helvetica,sans-Serif" font-size="11.00" fill="#000000">int4[10]</text>
<polygon fill="none" stroke="#000000" points="288.5,-301.2 288.5,-323.2 475.5,-323.2 475.5,-301.2 288.5,-301.2"/>
<text text-anchor="start" x="308.5" y="-308.3" font-family="Helvetica,sans-Serif" font-size="11.00" fill="#000000">descricao</text>
<polygon fill="none" stroke="#000000" points="475.5,-301.2 475.5,-323.2 695.5,-323.2 695.5,-301.2 475.5,-301.2"/>
<text text-anchor="start" x="478.5" y="-308.9" font-family="Helvetica,sans-Serif" font-size="11.00" fill="#000000">varchar[2147483647]</text>
<polygon fill="none" stroke="#000000" points="288.5,-279.2 288.5,-301.2 475.5,-301.2 475.5,-279.2 288.5,-279.2"/>
<text text-anchor="start" x="308.5" y="-286.3" font-family="Helvetica,sans-Serif" font-size="11.00" fill="#000000">ocupacao</text>
<polygon fill="none" stroke="#000000" points="475.5,-279.2 475.5,-301.2 695.5,-301.2 695.5,-279.2 475.5,-279.2"/>
<text text-anchor="start" x="478.0377" y="-286.9" font-family="Helvetica,sans-Serif" font-size="11.00" fill="#000000">&quot;educacao&quot;.&quot;formasocupacao&quot;[2147483647]</text>
<polygon fill="none" stroke="#000000" points="288.5,-257.2 288.5,-279.2 475.5,-279.2 475.5,-257.2 288.5,-257.2"/>
<text text-anchor="start" x="308.5" y="-264.3" font-family="Helvetica,sans-Serif" font-size="11.00" fill="#000000">area_total</text>
<polygon fill="none" stroke="#000000" points="475.5,-257.2 475.5,-279.2 695.5,-279.2 695.5,-257.2 475.5,-257.2"/>
<text text-anchor="start" x="478.5" y="-264.9" font-family="Helvetica,sans-Serif" font-size="11.00" fill="#000000">numeric[0]</text>
<polygon fill="none" stroke="#000000" points="288.5,-235.2 288.5,-257.2 475.5,-257.2 475.5,-235.2 288.5,-235.2"/>
<text text-anchor="start" x="308.5" y="-242.3" font-family="Helvetica,sans-Serif" font-size="11.00" fill="#000000">area_util</text>
<polygon fill="none" stroke="#000000" points="475.5,-235.2 475.5,-257.2 695.5,-257.2 695.5,-235.2 475.5,-235.2"/>
<text text-anchor="start" x="478.5" y="-242.9" font-family="Helvetica,sans-Serif" font-size="11.00" fill="#000000">numeric[0]</text>
<polygon fill="none" stroke="#000000" points="288.5,-213.2 288.5,-235.2 475.5,-235.2 475.5,-213.2 288.5,-213.2"/>
<text text-anchor="start" x="308.5" y="-220.3" font-family="Helvetica,sans-Serif" font-size="11.00" fill="#000000">observacao</text>
<polygon fill="none" stroke="#000000" points="475.5,-213.2 475.5,-235.2 695.5,-235.2 695.5,-213.2 475.5,-213.2"/>
<text text-anchor="start" x="478.5" y="-220.9" font-family="Helvetica,sans-Serif" font-size="11.00" fill="#000000">varchar[2147483647]</text>
<polygon fill="none" stroke="#000000" points="288.5,-191.2 288.5,-213.2 475.5,-213.2 475.5,-191.2 288.5,-191.2"/>
<text text-anchor="start" x="308.5" y="-198.3" font-family="Helvetica,sans-Serif" font-size="11.00" fill="#000000">disponivel</text>
<polygon fill="none" stroke="#000000" points="475.5,-191.2 475.5,-213.2 695.5,-213.2 695.5,-191.2 475.5,-191.2"/>
<text text-anchor="start" x="478.5" y="-198.9" font-family="Helvetica,sans-Serif" font-size="11.00" fill="#000000">bool[1]</text>
<polygon fill="none" stroke="#000000" points="288.5,-169.2 288.5,-191.2 475.5,-191.2 475.5,-169.2 288.5,-169.2"/>
<text text-anchor="start" x="308.5" y="-176.3" font-family="Helvetica,sans-Serif" font-size="11.00" fill="#000000">recurso_deficientes</text>
<polygon fill="none" stroke="#000000" points="475.5,-169.2 475.5,-191.2 695.5,-191.2 695.5,-169.2 475.5,-169.2"/>
<text text-anchor="start" x="478.5" y="-176.9" font-family="Helvetica,sans-Serif" font-size="11.00" fill="#000000">bool[1]</text>
<polygon fill="none" stroke="#000000" points="288.5,-147.2 288.5,-169.2 475.5,-169.2 475.5,-147.2 288.5,-147.2"/>
<text text-anchor="start" x="308.5" y="-154.3" font-family="Helvetica,sans-Serif" font-size="11.00" fill="#000000">motivo_indisponibilidade</text>
<polygon fill="none" stroke="#000000" points="475.5,-147.2 475.5,-169.2 695.5,-169.2 695.5,-147.2 475.5,-147.2"/>
<text text-anchor="start" x="478.5" y="-154.9" font-family="Helvetica,sans-Serif" font-size="11.00" fill="#000000">varchar[2147483647]</text>
<polygon fill="none" stroke="#000000" points="288.5,-125.2 288.5,-147.2 475.5,-147.2 475.5,-125.2 288.5,-125.2"/>
<image xlink:href="../../images/foreignKeys.png" width="11px" height="12px" preserveAspectRatio="xMinYMin meet" x="293.5" y="-142.2"/>
<text text-anchor="start" x="308.5" y="-132.3" font-family="Helvetica,sans-Serif" font-size="11.00" fill="#000000">tipo_dependencia_origem_id</text>
<polygon fill="none" stroke="#000000" points="475.5,-125.2 475.5,-147.2 695.5,-147.2 695.5,-125.2 475.5,-125.2"/>
<text text-anchor="start" x="478.5" y="-132.9" font-family="Helvetica,sans-Serif" font-size="11.00" fill="#000000">int4[10]</text>
<polygon fill="none" stroke="#000000" points="288.5,-103.2 288.5,-125.2 475.5,-125.2 475.5,-103.2 288.5,-103.2"/>
<image xlink:href="../../images/foreignKeys.png" width="11px" height="12px" preserveAspectRatio="xMinYMin meet" x="293.5" y="-120.2"/>
<text text-anchor="start" x="308.5" y="-110.3" font-family="Helvetica,sans-Serif" font-size="11.00" fill="#000000">tipo_dependencia_cloud_id</text>
<polygon fill="none" stroke="#000000" points="475.5,-103.2 475.5,-125.2 695.5,-125.2 695.5,-103.2 475.5,-103.2"/>
<text text-anchor="start" x="478.5" y="-110.9" font-family="Helvetica,sans-Serif" font-size="11.00" fill="#000000">int4[10]</text>
<polygon fill="none" stroke="#000000" points="288.5,-81.2 288.5,-103.2 475.5,-103.2 475.5,-81.2 288.5,-81.2"/>
<image xlink:href="../../images/foreignKeys.png" width="11px" height="12px" preserveAspectRatio="xMinYMin meet" x="293.5" y="-98.2"/>
<text text-anchor="start" x="308.5" y="-88.3" font-family="Helvetica,sans-Serif" font-size="11.00" fill="#000000">estabelecimento_origem_id</text>
<polygon fill="none" stroke="#000000" points="475.5,-81.2 475.5,-103.2 695.5,-103.2 695.5,-81.2 475.5,-81.2"/>
<text text-anchor="start" x="478.5" y="-88.9" font-family="Helvetica,sans-Serif" font-size="11.00" fill="#000000">int4[10]</text>
<polygon fill="none" stroke="#000000" points="288.5,-59.2 288.5,-81.2 475.5,-81.2 475.5,-59.2 288.5,-59.2"/>
<image xlink:href="../../images/foreignKeys.png" width="11px" height="12px" preserveAspectRatio="xMinYMin meet" x="293.5" y="-76.2"/>
<text text-anchor="start" x="308.5" y="-66.3" font-family="Helvetica,sans-Serif" font-size="11.00" fill="#000000">estabelecimento_cloud_id</text>
<polygon fill="none" stroke="#000000" points="475.5,-59.2 475.5,-81.2 695.5,-81.2 695.5,-59.2 475.5,-59.2"/>
<text text-anchor="start" x="478.5" y="-66.9" font-family="Helvetica,sans-Serif" font-size="11.00" fill="#000000">int4[10]</text>
<polygon fill="#ffffff" stroke="transparent" points="288.5,-40.2 288.5,-59.2 386.5,-59.2 386.5,-40.2 288.5,-40.2"/>
<polygon fill="none" stroke="#000000" points="288.5,-40.2 288.5,-59.2 386.5,-59.2 386.5,-40.2 288.5,-40.2"/>
<text text-anchor="start" x="291.5" y="-46.3" font-family="Helvetica,sans-Serif" font-size="11.00" fill="#000000">&lt; 4</text>
<polygon fill="#ffffff" stroke="transparent" points="386.5,-40.2 386.5,-59.2 475.5,-59.2 475.5,-40.2 386.5,-40.2"/>
<polygon fill="none" stroke="#000000" points="386.5,-40.2 386.5,-59.2 475.5,-59.2 475.5,-40.2 386.5,-40.2"/>
<text text-anchor="start" x="466.3862" y="-46.3" font-family="Helvetica,sans-Serif" font-size="11.00" fill="#000000"> &#160;</text>
<polygon fill="#ffffff" stroke="transparent" points="475.5,-40.2 475.5,-59.2 695.5,-59.2 695.5,-40.2 475.5,-40.2"/>
<polygon fill="none" stroke="#000000" points="475.5,-40.2 475.5,-59.2 695.5,-59.2 695.5,-40.2 475.5,-40.2"/>
<text text-anchor="start" x="676.9053" y="-46.3" font-family="Helvetica,sans-Serif" font-size="11.00" fill="#000000">0 &gt;</text>
<polygon fill="none" stroke="#000000" stroke-width="2" points="287,-39.2 287,-457.2 696,-457.2 696,-39.2 287,-39.2"/>
</a>
</g>
</g>
<!-- inscricao_lista_espera_situacoes -->
<g id="node2" class="node">
<title>inscricao_lista_espera_situacoes</title>
<g id="a_node2"><a xlink:href="../../tables/inscricao_lista_espera_situacoes.html" xlink:title="inscricao_lista_espera_situacoes" target="_top">
<polygon fill="#ffffff" stroke="transparent" points="8,-54.7 8,-137.7 237,-137.7 237,-54.7 8,-54.7"/>
<polygon fill="#f5f5f5" stroke="transparent" points="8.5,-114.2 8.5,-137.2 237.5,-137.2 237.5,-114.2 8.5,-114.2"/>
<polygon fill="none" stroke="#000000" points="8.5,-114.2 8.5,-137.2 237.5,-137.2 237.5,-114.2 8.5,-114.2"/>
<text text-anchor="start" x="13.5" y="-122.8" font-family="Helvetica,sans-Serif" font-weight="bold" font-size="11.00" fill="#000000">inscricao_lista_espera_situacoes</text>
<text text-anchor="start" x="203.0219" y="-122.3" font-family="Helvetica,sans-Serif" font-size="11.00" fill="#000000">[table]</text>
<polygon fill="none" stroke="#000000" points="8.5,-92.2 8.5,-114.2 237.5,-114.2 237.5,-92.2 8.5,-92.2"/>
<image xlink:href="../../images/primaryKeys.png" width="11px" height="12px" preserveAspectRatio="xMinYMin meet" x="13.5" y="-109.2"/>
<text text-anchor="start" x="37.5" y="-99.3" font-family="Helvetica,sans-Serif" font-size="11.00" fill="#000000">id</text>
<polygon fill="none" stroke="#000000" points="8.5,-73.2 8.5,-92.2 237.5,-92.2 237.5,-73.2 8.5,-73.2"/>
<text text-anchor="start" x="11.5" y="-79.3" font-family="Helvetica,sans-Serif" font-size="11.00" fill="#000000">...</text>
<polygon fill="#ffffff" stroke="transparent" points="8.5,-54.2 8.5,-73.2 106.5,-73.2 106.5,-54.2 8.5,-54.2"/>
<polygon fill="none" stroke="#000000" points="8.5,-54.2 8.5,-73.2 106.5,-73.2 106.5,-54.2 8.5,-54.2"/>
<text text-anchor="start" x="11.5" y="-60.3" font-family="Helvetica,sans-Serif" font-size="11.00" fill="#000000"> &#160;</text>
<polygon fill="#ffffff" stroke="transparent" points="106.5,-54.2 106.5,-73.2 161.5,-73.2 161.5,-54.2 106.5,-54.2"/>
<polygon fill="none" stroke="#000000" points="106.5,-54.2 106.5,-73.2 161.5,-73.2 161.5,-54.2 106.5,-54.2"/>
<text text-anchor="start" x="152.3862" y="-60.3" font-family="Helvetica,sans-Serif" font-size="11.00" fill="#000000"> &#160;</text>
<polygon fill="#ffffff" stroke="transparent" points="161.5,-54.2 161.5,-73.2 237.5,-73.2 237.5,-54.2 161.5,-54.2"/>
<polygon fill="none" stroke="#000000" points="161.5,-54.2 161.5,-73.2 237.5,-73.2 237.5,-54.2 161.5,-54.2"/>
<text text-anchor="start" x="206.6755" y="-60.3" font-family="Helvetica,sans-Serif" font-size="11.00" fill="#000000">596 &gt;</text>
</a>
</g>
</g>
<!-- dependencias_fisicas&#45;&gt;inscricao_lista_espera_situacoes -->
<g id="edge1" class="edge">
<title>dependencias_fisicas:w&#45;&gt;inscricao_lista_espera_situacoes:e</title>
<path fill="none" stroke="#000000" stroke-dasharray="5,2" d="M274.4604,-74.2464C261.3775,-83.0584 258.5921,-103.2 237.5,-103.2"/>
<polygon fill="#000000" stroke="#000000" points="280.8129,-72.4156 289.497,-73.6592 284.6565,-71.3078 288.5,-70.2 288.5,-70.2 288.5,-70.2 284.6565,-71.3078 287.503,-66.7408 280.8129,-72.4156 280.8129,-72.4156"/>
<ellipse fill="none" stroke="#000000" cx="277.7381" cy="-73.3018" rx="3.2" ry="3.2"/>
</g>
<!-- dependencias_fisicas&#45;&gt;inscricao_lista_espera_situacoes -->
<g id="edge2" class="edge">
<title>dependencias_fisicas:w&#45;&gt;inscricao_lista_espera_situacoes:e</title>
<path fill="none" stroke="#000000" stroke-dasharray="5,2" d="M274.0097,-93.9188C261.8398,-97.0125 254.8909,-103.2 237.5,-103.2"/>
<polygon fill="#000000" stroke="#000000" points="280.5557,-93.1424 288.9241,-95.7749 284.5278,-92.6712 288.5,-92.2 288.5,-92.2 288.5,-92.2 284.5278,-92.6712 288.0759,-88.6251 280.5557,-93.1424 280.5557,-93.1424"/>
<ellipse fill="none" stroke="#000000" cx="277.378" cy="-93.5193" rx="3.2" ry="3.2"/>
</g>
<!-- dependencias_fisicas&#45;&gt;inscricao_lista_espera_situacoes -->
<g id="edge3" class="edge">
<title>dependencias_fisicas:w&#45;&gt;inscricao_lista_espera_situacoes:e</title>
<path fill="none" stroke="#000000" stroke-dasharray="5,2" d="M274.0097,-112.4813C261.8398,-109.3875 254.8909,-103.2 237.5,-103.2"/>
<polygon fill="#000000" stroke="#000000" points="280.5557,-113.2576 288.0759,-117.7749 284.5278,-113.7288 288.5,-114.2 288.5,-114.2 288.5,-114.2 284.5278,-113.7288 288.9241,-110.6251 280.5557,-113.2576 280.5557,-113.2576"/>
<ellipse fill="none" stroke="#000000" cx="277.378" cy="-112.8807" rx="3.2" ry="3.2"/>
</g>
<!-- dependencias_fisicas&#45;&gt;inscricao_lista_espera_situacoes -->
<g id="edge4" class="edge">
<title>dependencias_fisicas:w&#45;&gt;inscricao_lista_espera_situacoes:e</title>
<path fill="none" stroke="#000000" stroke-dasharray="5,2" d="M274.4604,-132.1536C261.3775,-123.3416 258.5921,-103.2 237.5,-103.2"/>
<polygon fill="#000000" stroke="#000000" points="280.8129,-133.9844 287.503,-139.6592 284.6565,-135.0922 288.5,-136.2 288.5,-136.2 288.5,-136.2 284.6565,-135.0922 289.497,-132.7408 280.8129,-133.9844 280.8129,-133.9844"/>
<ellipse fill="none" stroke="#000000" cx="277.7381" cy="-133.0982" rx="3.2" ry="3.2"/>
</g>
</g>
</svg>
