<?xml version="1.0" encoding="UTF-8" standalone="no"?>
<!DOCTYPE svg PUBLIC "-//W3C//DTD SVG 1.1//EN"
 "http://www.w3.org/Graphics/SVG/1.1/DTD/svg11.dtd">
<!-- Generated by graphviz version 2.40.1 (20161225.0304)
 -->
<!-- Title: oneDegreeRelationshipsDiagram Pages: 1 -->
<svg width="357pt" height="602pt"
 viewBox="0.00 0.00 357.00 602.20" xmlns="http://www.w3.org/2000/svg" xmlns:xlink="http://www.w3.org/1999/xlink">
<g id="graph0" class="graph" transform="scale(1 1) rotate(0) translate(4 598.2)">
<title>oneDegreeRelationshipsDiagram</title>
<polygon fill="#ffffff" stroke="transparent" points="-4,4 -4,-598.2 353,-598.2 353,4 -4,4"/>
<text text-anchor="middle" x="72.4936" y="-7.3" font-family="Helvetica,sans-Serif" font-size="11.00" fill="#000000">Generated by SchemaSpy</text>
<!-- disciplinas_eja_modular -->
<g id="node1" class="node">
<title>disciplinas_eja_modular</title>
<g id="a_node1"><a xlink:href="../../tables/disciplinas_eja_modular.html" xlink:title="disciplinas_eja_modular" target="_top">
<polygon fill="#ffffff" stroke="transparent" points="8,-38.2 8,-590.2 341,-590.2 341,-38.2 8,-38.2"/>
<polygon fill="#f5f5f5" stroke="transparent" points="10.5,-565.2 10.5,-588.2 339.5,-588.2 339.5,-565.2 10.5,-565.2"/>
<polygon fill="none" stroke="#000000" points="10.5,-565.2 10.5,-588.2 339.5,-588.2 339.5,-565.2 10.5,-565.2"/>
<text text-anchor="start" x="15.5" y="-573.8" font-family="Helvetica,sans-Serif" font-weight="bold" font-size="11.00" fill="#000000">disciplinas_eja_modular</text>
<text text-anchor="start" x="304.5437" y="-573.3" font-family="Helvetica,sans-Serif" font-size="11.00" fill="#000000">[table]</text>
<polygon fill="none" stroke="#000000" points="10.5,-543.2 10.5,-565.2 230.5,-565.2 230.5,-543.2 10.5,-543.2"/>
<text text-anchor="start" x="30.5" y="-550.3" font-family="Helvetica,sans-Serif" font-size="11.00" fill="#000000">sistema</text>
<polygon fill="none" stroke="#000000" points="230.5,-543.2 230.5,-565.2 339.5,-565.2 339.5,-543.2 230.5,-543.2"/>
<text text-anchor="start" x="233.5" y="-550.9" font-family="Helvetica,sans-Serif" font-size="11.00" fill="#000000">int4[10]</text>
<polygon fill="none" stroke="#000000" points="10.5,-521.2 10.5,-543.2 230.5,-543.2 230.5,-521.2 10.5,-521.2"/>
<text text-anchor="start" x="30.5" y="-528.3" font-family="Helvetica,sans-Serif" font-size="11.00" fill="#000000">tipo_registro</text>
<polygon fill="none" stroke="#000000" points="230.5,-521.2 230.5,-543.2 339.5,-543.2 339.5,-521.2 230.5,-521.2"/>
<text text-anchor="start" x="233.5" y="-528.9" font-family="Helvetica,sans-Serif" font-size="11.00" fill="#000000">text[2147483647]</text>
<polygon fill="none" stroke="#000000" points="10.5,-499.2 10.5,-521.2 230.5,-521.2 230.5,-499.2 10.5,-499.2"/>
<text text-anchor="start" x="30.5" y="-506.3" font-family="Helvetica,sans-Serif" font-size="11.00" fill="#000000">id_integracao</text>
<polygon fill="none" stroke="#000000" points="230.5,-499.2 230.5,-521.2 339.5,-521.2 339.5,-499.2 230.5,-499.2"/>
<text text-anchor="start" x="233.0344" y="-506.9" font-family="Helvetica,sans-Serif" font-size="11.00" fill="#000000">varchar[2147483647]</text>
<polygon fill="none" stroke="#000000" points="10.5,-477.2 10.5,-499.2 230.5,-499.2 230.5,-477.2 10.5,-477.2"/>
<text text-anchor="start" x="30.5" y="-484.3" font-family="Helvetica,sans-Serif" font-size="11.00" fill="#000000">id_origem</text>
<polygon fill="none" stroke="#000000" points="230.5,-477.2 230.5,-499.2 339.5,-499.2 339.5,-477.2 230.5,-477.2"/>
<text text-anchor="start" x="233.5" y="-484.9" font-family="Helvetica,sans-Serif" font-size="11.00" fill="#000000">int4[10]</text>
<polygon fill="none" stroke="#000000" points="10.5,-455.2 10.5,-477.2 230.5,-477.2 230.5,-455.2 10.5,-455.2"/>
<text text-anchor="start" x="30.5" y="-462.3" font-family="Helvetica,sans-Serif" font-size="11.00" fill="#000000">id_cloud</text>
<polygon fill="none" stroke="#000000" points="230.5,-455.2 230.5,-477.2 339.5,-477.2 339.5,-455.2 230.5,-455.2"/>
<text text-anchor="start" x="233.5" y="-462.9" font-family="Helvetica,sans-Serif" font-size="11.00" fill="#000000">int4[10]</text>
<polygon fill="none" stroke="#000000" points="10.5,-433.2 10.5,-455.2 230.5,-455.2 230.5,-433.2 10.5,-433.2"/>
<image xlink:href="../../images/foreignKeys.png" width="11px" height="12px" preserveAspectRatio="xMinYMin meet" x="15.5" y="-450.2"/>
<text text-anchor="start" x="30.5" y="-440.3" font-family="Helvetica,sans-Serif" font-size="11.00" fill="#000000">ano_letivo_origem_id</text>
<polygon fill="none" stroke="#000000" points="230.5,-433.2 230.5,-455.2 339.5,-455.2 339.5,-433.2 230.5,-433.2"/>
<text text-anchor="start" x="233.5" y="-440.9" font-family="Helvetica,sans-Serif" font-size="11.00" fill="#000000">int4[10]</text>
<polygon fill="none" stroke="#000000" points="10.5,-411.2 10.5,-433.2 230.5,-433.2 230.5,-411.2 10.5,-411.2"/>
<image xlink:href="../../images/foreignKeys.png" width="11px" height="12px" preserveAspectRatio="xMinYMin meet" x="15.5" y="-428.2"/>
<text text-anchor="start" x="30.5" y="-418.3" font-family="Helvetica,sans-Serif" font-size="11.00" fill="#000000">ano_letivo_cloud_id</text>
<polygon fill="none" stroke="#000000" points="230.5,-411.2 230.5,-433.2 339.5,-433.2 339.5,-411.2 230.5,-411.2"/>
<text text-anchor="start" x="233.5" y="-418.9" font-family="Helvetica,sans-Serif" font-size="11.00" fill="#000000">int4[10]</text>
<polygon fill="none" stroke="#000000" points="10.5,-389.2 10.5,-411.2 230.5,-411.2 230.5,-389.2 10.5,-389.2"/>
<image xlink:href="../../images/foreignKeys.png" width="11px" height="12px" preserveAspectRatio="xMinYMin meet" x="15.5" y="-406.2"/>
<text text-anchor="start" x="30.5" y="-396.3" font-family="Helvetica,sans-Serif" font-size="11.00" fill="#000000">estabelecimento_origem_id</text>
<polygon fill="none" stroke="#000000" points="230.5,-389.2 230.5,-411.2 339.5,-411.2 339.5,-389.2 230.5,-389.2"/>
<text text-anchor="start" x="233.5" y="-396.9" font-family="Helvetica,sans-Serif" font-size="11.00" fill="#000000">int4[10]</text>
<polygon fill="none" stroke="#000000" points="10.5,-367.2 10.5,-389.2 230.5,-389.2 230.5,-367.2 10.5,-367.2"/>
<image xlink:href="../../images/foreignKeys.png" width="11px" height="12px" preserveAspectRatio="xMinYMin meet" x="15.5" y="-384.2"/>
<text text-anchor="start" x="30.5" y="-374.3" font-family="Helvetica,sans-Serif" font-size="11.00" fill="#000000">estabelecimento_cloud_id</text>
<polygon fill="none" stroke="#000000" points="230.5,-367.2 230.5,-389.2 339.5,-389.2 339.5,-367.2 230.5,-367.2"/>
<text text-anchor="start" x="233.5" y="-374.9" font-family="Helvetica,sans-Serif" font-size="11.00" fill="#000000">int4[10]</text>
<polygon fill="none" stroke="#000000" points="10.5,-345.2 10.5,-367.2 230.5,-367.2 230.5,-345.2 10.5,-345.2"/>
<text text-anchor="start" x="30.5" y="-352.3" font-family="Helvetica,sans-Serif" font-size="11.00" fill="#000000">quantidade_maxima_alunos</text>
<polygon fill="none" stroke="#000000" points="230.5,-345.2 230.5,-367.2 339.5,-367.2 339.5,-345.2 230.5,-345.2"/>
<text text-anchor="start" x="233.5" y="-352.9" font-family="Helvetica,sans-Serif" font-size="11.00" fill="#000000">int4[10]</text>
<polygon fill="none" stroke="#000000" points="10.5,-323.2 10.5,-345.2 230.5,-345.2 230.5,-323.2 10.5,-323.2"/>
<text text-anchor="start" x="30.5" y="-330.3" font-family="Helvetica,sans-Serif" font-size="11.00" fill="#000000">quantidade_aulas_semanais</text>
<polygon fill="none" stroke="#000000" points="230.5,-323.2 230.5,-345.2 339.5,-345.2 339.5,-323.2 230.5,-323.2"/>
<text text-anchor="start" x="233.5" y="-330.9" font-family="Helvetica,sans-Serif" font-size="11.00" fill="#000000">int4[10]</text>
<polygon fill="none" stroke="#000000" points="10.5,-301.2 10.5,-323.2 230.5,-323.2 230.5,-301.2 10.5,-301.2"/>
<text text-anchor="start" x="30.5" y="-308.3" font-family="Helvetica,sans-Serif" font-size="11.00" fill="#000000">quantidade_alunos</text>
<polygon fill="none" stroke="#000000" points="230.5,-301.2 230.5,-323.2 339.5,-323.2 339.5,-301.2 230.5,-301.2"/>
<text text-anchor="start" x="233.5" y="-308.9" font-family="Helvetica,sans-Serif" font-size="11.00" fill="#000000">int4[10]</text>
<polygon fill="none" stroke="#000000" points="10.5,-279.2 10.5,-301.2 230.5,-301.2 230.5,-279.2 10.5,-279.2"/>
<text text-anchor="start" x="30.5" y="-286.3" font-family="Helvetica,sans-Serif" font-size="11.00" fill="#000000">data_inicio</text>
<polygon fill="none" stroke="#000000" points="230.5,-279.2 230.5,-301.2 339.5,-301.2 339.5,-279.2 230.5,-279.2"/>
<text text-anchor="start" x="233.5" y="-286.9" font-family="Helvetica,sans-Serif" font-size="11.00" fill="#000000">date[13]</text>
<polygon fill="none" stroke="#000000" points="10.5,-257.2 10.5,-279.2 230.5,-279.2 230.5,-257.2 10.5,-257.2"/>
<text text-anchor="start" x="30.5" y="-264.3" font-family="Helvetica,sans-Serif" font-size="11.00" fill="#000000">data_fim</text>
<polygon fill="none" stroke="#000000" points="230.5,-257.2 230.5,-279.2 339.5,-279.2 339.5,-257.2 230.5,-257.2"/>
<text text-anchor="start" x="233.5" y="-264.9" font-family="Helvetica,sans-Serif" font-size="11.00" fill="#000000">date[13]</text>
<polygon fill="none" stroke="#000000" points="10.5,-235.2 10.5,-257.2 230.5,-257.2 230.5,-235.2 10.5,-235.2"/>
<text text-anchor="start" x="30.5" y="-242.3" font-family="Helvetica,sans-Serif" font-size="11.00" fill="#000000">tipo</text>
<polygon fill="none" stroke="#000000" points="230.5,-235.2 230.5,-257.2 339.5,-257.2 339.5,-235.2 230.5,-235.2"/>
<text text-anchor="start" x="233.0344" y="-242.9" font-family="Helvetica,sans-Serif" font-size="11.00" fill="#000000">varchar[2147483647]</text>
<polygon fill="none" stroke="#000000" points="10.5,-213.2 10.5,-235.2 230.5,-235.2 230.5,-213.2 10.5,-213.2"/>
<image xlink:href="../../images/foreignKeys.png" width="11px" height="12px" preserveAspectRatio="xMinYMin meet" x="15.5" y="-230.2"/>
<text text-anchor="start" x="30.5" y="-220.3" font-family="Helvetica,sans-Serif" font-size="11.00" fill="#000000">turma_pai_origem_id</text>
<polygon fill="none" stroke="#000000" points="230.5,-213.2 230.5,-235.2 339.5,-235.2 339.5,-213.2 230.5,-213.2"/>
<text text-anchor="start" x="233.5" y="-220.9" font-family="Helvetica,sans-Serif" font-size="11.00" fill="#000000">int4[10]</text>
<polygon fill="none" stroke="#000000" points="10.5,-191.2 10.5,-213.2 230.5,-213.2 230.5,-191.2 10.5,-191.2"/>
<image xlink:href="../../images/foreignKeys.png" width="11px" height="12px" preserveAspectRatio="xMinYMin meet" x="15.5" y="-208.2"/>
<text text-anchor="start" x="30.5" y="-198.3" font-family="Helvetica,sans-Serif" font-size="11.00" fill="#000000">turma_pai_cloud_id</text>
<polygon fill="none" stroke="#000000" points="230.5,-191.2 230.5,-213.2 339.5,-213.2 339.5,-191.2 230.5,-191.2"/>
<text text-anchor="start" x="233.5" y="-198.9" font-family="Helvetica,sans-Serif" font-size="11.00" fill="#000000">int4[10]</text>
<polygon fill="none" stroke="#000000" points="10.5,-169.2 10.5,-191.2 230.5,-191.2 230.5,-169.2 10.5,-169.2"/>
<image xlink:href="../../images/foreignKeys.png" width="11px" height="12px" preserveAspectRatio="xMinYMin meet" x="15.5" y="-186.2"/>
<text text-anchor="start" x="30.5" y="-176.3" font-family="Helvetica,sans-Serif" font-size="11.00" fill="#000000">etapa_matriz_disciplina_origem_id</text>
<polygon fill="none" stroke="#000000" points="230.5,-169.2 230.5,-191.2 339.5,-191.2 339.5,-169.2 230.5,-169.2"/>
<text text-anchor="start" x="233.5" y="-176.9" font-family="Helvetica,sans-Serif" font-size="11.00" fill="#000000">int4[10]</text>
<polygon fill="none" stroke="#000000" points="10.5,-147.2 10.5,-169.2 230.5,-169.2 230.5,-147.2 10.5,-147.2"/>
<image xlink:href="../../images/foreignKeys.png" width="11px" height="12px" preserveAspectRatio="xMinYMin meet" x="15.5" y="-164.2"/>
<text text-anchor="start" x="30.5" y="-154.3" font-family="Helvetica,sans-Serif" font-size="11.00" fill="#000000">etapa_matriz_disciplina_cloud_id</text>
<polygon fill="none" stroke="#000000" points="230.5,-147.2 230.5,-169.2 339.5,-169.2 339.5,-147.2 230.5,-147.2"/>
<text text-anchor="start" x="233.5" y="-154.9" font-family="Helvetica,sans-Serif" font-size="11.00" fill="#000000">int4[10]</text>
<polygon fill="none" stroke="#000000" points="10.5,-125.2 10.5,-147.2 230.5,-147.2 230.5,-125.2 10.5,-125.2"/>
<image xlink:href="../../images/foreignKeys.png" width="11px" height="12px" preserveAspectRatio="xMinYMin meet" x="15.5" y="-142.2"/>
<text text-anchor="start" x="30.5" y="-132.3" font-family="Helvetica,sans-Serif" font-size="11.00" fill="#000000">dependencia_fisica_origem_id</text>
<polygon fill="none" stroke="#000000" points="230.5,-125.2 230.5,-147.2 339.5,-147.2 339.5,-125.2 230.5,-125.2"/>
<text text-anchor="start" x="233.5" y="-132.9" font-family="Helvetica,sans-Serif" font-size="11.00" fill="#000000">int4[10]</text>
<polygon fill="none" stroke="#000000" points="10.5,-103.2 10.5,-125.2 230.5,-125.2 230.5,-103.2 10.5,-103.2"/>
<image xlink:href="../../images/foreignKeys.png" width="11px" height="12px" preserveAspectRatio="xMinYMin meet" x="15.5" y="-120.2"/>
<text text-anchor="start" x="30.5" y="-110.3" font-family="Helvetica,sans-Serif" font-size="11.00" fill="#000000">dependencia_fisica_cloud_id</text>
<polygon fill="none" stroke="#000000" points="230.5,-103.2 230.5,-125.2 339.5,-125.2 339.5,-103.2 230.5,-103.2"/>
<text text-anchor="start" x="233.5" y="-110.9" font-family="Helvetica,sans-Serif" font-size="11.00" fill="#000000">int4[10]</text>
<polygon fill="none" stroke="#000000" points="10.5,-81.2 10.5,-103.2 230.5,-103.2 230.5,-81.2 10.5,-81.2"/>
<image xlink:href="../../images/foreignKeys.png" width="11px" height="12px" preserveAspectRatio="xMinYMin meet" x="15.5" y="-98.2"/>
<text text-anchor="start" x="30.5" y="-88.3" font-family="Helvetica,sans-Serif" font-size="11.00" fill="#000000">professor_origem_id</text>
<polygon fill="none" stroke="#000000" points="230.5,-81.2 230.5,-103.2 339.5,-103.2 339.5,-81.2 230.5,-81.2"/>
<text text-anchor="start" x="233.5" y="-88.9" font-family="Helvetica,sans-Serif" font-size="11.00" fill="#000000">int4[10]</text>
<polygon fill="none" stroke="#000000" points="10.5,-59.2 10.5,-81.2 230.5,-81.2 230.5,-59.2 10.5,-59.2"/>
<image xlink:href="../../images/foreignKeys.png" width="11px" height="12px" preserveAspectRatio="xMinYMin meet" x="15.5" y="-76.2"/>
<text text-anchor="start" x="30.5" y="-66.3" font-family="Helvetica,sans-Serif" font-size="11.00" fill="#000000">professor_cloud_id</text>
<polygon fill="none" stroke="#000000" points="230.5,-59.2 230.5,-81.2 339.5,-81.2 339.5,-59.2 230.5,-59.2"/>
<text text-anchor="start" x="233.5" y="-66.9" font-family="Helvetica,sans-Serif" font-size="11.00" fill="#000000">int4[10]</text>
<polygon fill="#ffffff" stroke="transparent" points="10.5,-40.2 10.5,-59.2 124.5,-59.2 124.5,-40.2 10.5,-40.2"/>
<polygon fill="none" stroke="#000000" points="10.5,-40.2 10.5,-59.2 124.5,-59.2 124.5,-40.2 10.5,-40.2"/>
<text text-anchor="start" x="13.5" y="-46.3" font-family="Helvetica,sans-Serif" font-size="11.00" fill="#000000">&lt; 0</text>
<polygon fill="#ffffff" stroke="transparent" points="124.5,-40.2 124.5,-59.2 230.5,-59.2 230.5,-40.2 124.5,-40.2"/>
<polygon fill="none" stroke="#000000" points="124.5,-40.2 124.5,-59.2 230.5,-59.2 230.5,-40.2 124.5,-40.2"/>
<text text-anchor="start" x="221.3862" y="-46.3" font-family="Helvetica,sans-Serif" font-size="11.00" fill="#000000"> &#160;</text>
<polygon fill="#ffffff" stroke="transparent" points="230.5,-40.2 230.5,-59.2 339.5,-59.2 339.5,-40.2 230.5,-40.2"/>
<polygon fill="none" stroke="#000000" points="230.5,-40.2 230.5,-59.2 339.5,-59.2 339.5,-40.2 230.5,-40.2"/>
<text text-anchor="start" x="320.9053" y="-46.3" font-family="Helvetica,sans-Serif" font-size="11.00" fill="#000000">0 &gt;</text>
<polygon fill="none" stroke="#000000" stroke-width="2" points="9,-39.2 9,-589.2 340,-589.2 340,-39.2 9,-39.2"/>
</a>
</g>
</g>
</g>
</svg>
