<?xml version="1.0" encoding="UTF-8" standalone="no"?>
<!DOCTYPE svg PUBLIC "-//W3C//DTD SVG 1.1//EN"
 "http://www.w3.org/Graphics/SVG/1.1/DTD/svg11.dtd">
<!-- Generated by graphviz version 2.40.1 (20161225.0304)
 -->
<!-- Title: oneDegreeRelationshipsDiagramImplied Pages: 1 -->
<svg width="635pt" height="602pt"
 viewBox="0.00 0.00 635.00 602.20" xmlns="http://www.w3.org/2000/svg" xmlns:xlink="http://www.w3.org/1999/xlink">
<g id="graph0" class="graph" transform="scale(1 1) rotate(0) translate(4 598.2)">
<title>oneDegreeRelationshipsDiagramImplied</title>
<polygon fill="#ffffff" stroke="transparent" points="-4,4 -4,-598.2 631,-598.2 631,4 -4,4"/>
<text text-anchor="middle" x="72.4936" y="-7.3" font-family="Helvetica,sans-Serif" font-size="11.00" fill="#000000">Generated by SchemaSpy</text>
<!-- disciplinas_eja_modular -->
<g id="node1" class="node">
<title>disciplinas_eja_modular</title>
<g id="a_node1"><a xlink:href="../../tables/disciplinas_eja_modular.html" xlink:title="disciplinas_eja_modular" target="_top">
<polygon fill="#ffffff" stroke="transparent" points="286,-38.2 286,-590.2 619,-590.2 619,-38.2 286,-38.2"/>
<polygon fill="#f5f5f5" stroke="transparent" points="288.5,-565.2 288.5,-588.2 617.5,-588.2 617.5,-565.2 288.5,-565.2"/>
<polygon fill="none" stroke="#000000" points="288.5,-565.2 288.5,-588.2 617.5,-588.2 617.5,-565.2 288.5,-565.2"/>
<text text-anchor="start" x="293.5" y="-573.8" font-family="Helvetica,sans-Serif" font-weight="bold" font-size="11.00" fill="#000000">disciplinas_eja_modular</text>
<text text-anchor="start" x="582.5437" y="-573.3" font-family="Helvetica,sans-Serif" font-size="11.00" fill="#000000">[table]</text>
<polygon fill="none" stroke="#000000" points="288.5,-543.2 288.5,-565.2 508.5,-565.2 508.5,-543.2 288.5,-543.2"/>
<text text-anchor="start" x="308.5" y="-550.3" font-family="Helvetica,sans-Serif" font-size="11.00" fill="#000000">sistema</text>
<polygon fill="none" stroke="#000000" points="508.5,-543.2 508.5,-565.2 617.5,-565.2 617.5,-543.2 508.5,-543.2"/>
<text text-anchor="start" x="511.5" y="-550.9" font-family="Helvetica,sans-Serif" font-size="11.00" fill="#000000">int4[10]</text>
<polygon fill="none" stroke="#000000" points="288.5,-521.2 288.5,-543.2 508.5,-543.2 508.5,-521.2 288.5,-521.2"/>
<text text-anchor="start" x="308.5" y="-528.3" font-family="Helvetica,sans-Serif" font-size="11.00" fill="#000000">tipo_registro</text>
<polygon fill="none" stroke="#000000" points="508.5,-521.2 508.5,-543.2 617.5,-543.2 617.5,-521.2 508.5,-521.2"/>
<text text-anchor="start" x="511.5" y="-528.9" font-family="Helvetica,sans-Serif" font-size="11.00" fill="#000000">text[2147483647]</text>
<polygon fill="none" stroke="#000000" points="288.5,-499.2 288.5,-521.2 508.5,-521.2 508.5,-499.2 288.5,-499.2"/>
<text text-anchor="start" x="308.5" y="-506.3" font-family="Helvetica,sans-Serif" font-size="11.00" fill="#000000">id_integracao</text>
<polygon fill="none" stroke="#000000" points="508.5,-499.2 508.5,-521.2 617.5,-521.2 617.5,-499.2 508.5,-499.2"/>
<text text-anchor="start" x="511.0344" y="-506.9" font-family="Helvetica,sans-Serif" font-size="11.00" fill="#000000">varchar[2147483647]</text>
<polygon fill="none" stroke="#000000" points="288.5,-477.2 288.5,-499.2 508.5,-499.2 508.5,-477.2 288.5,-477.2"/>
<text text-anchor="start" x="308.5" y="-484.3" font-family="Helvetica,sans-Serif" font-size="11.00" fill="#000000">id_origem</text>
<polygon fill="none" stroke="#000000" points="508.5,-477.2 508.5,-499.2 617.5,-499.2 617.5,-477.2 508.5,-477.2"/>
<text text-anchor="start" x="511.5" y="-484.9" font-family="Helvetica,sans-Serif" font-size="11.00" fill="#000000">int4[10]</text>
<polygon fill="none" stroke="#000000" points="288.5,-455.2 288.5,-477.2 508.5,-477.2 508.5,-455.2 288.5,-455.2"/>
<text text-anchor="start" x="308.5" y="-462.3" font-family="Helvetica,sans-Serif" font-size="11.00" fill="#000000">id_cloud</text>
<polygon fill="none" stroke="#000000" points="508.5,-455.2 508.5,-477.2 617.5,-477.2 617.5,-455.2 508.5,-455.2"/>
<text text-anchor="start" x="511.5" y="-462.9" font-family="Helvetica,sans-Serif" font-size="11.00" fill="#000000">int4[10]</text>
<polygon fill="none" stroke="#000000" points="288.5,-433.2 288.5,-455.2 508.5,-455.2 508.5,-433.2 288.5,-433.2"/>
<image xlink:href="../../images/foreignKeys.png" width="11px" height="12px" preserveAspectRatio="xMinYMin meet" x="293.5" y="-450.2"/>
<text text-anchor="start" x="308.5" y="-440.3" font-family="Helvetica,sans-Serif" font-size="11.00" fill="#000000">ano_letivo_origem_id</text>
<polygon fill="none" stroke="#000000" points="508.5,-433.2 508.5,-455.2 617.5,-455.2 617.5,-433.2 508.5,-433.2"/>
<text text-anchor="start" x="511.5" y="-440.9" font-family="Helvetica,sans-Serif" font-size="11.00" fill="#000000">int4[10]</text>
<polygon fill="none" stroke="#000000" points="288.5,-411.2 288.5,-433.2 508.5,-433.2 508.5,-411.2 288.5,-411.2"/>
<image xlink:href="../../images/foreignKeys.png" width="11px" height="12px" preserveAspectRatio="xMinYMin meet" x="293.5" y="-428.2"/>
<text text-anchor="start" x="308.5" y="-418.3" font-family="Helvetica,sans-Serif" font-size="11.00" fill="#000000">ano_letivo_cloud_id</text>
<polygon fill="none" stroke="#000000" points="508.5,-411.2 508.5,-433.2 617.5,-433.2 617.5,-411.2 508.5,-411.2"/>
<text text-anchor="start" x="511.5" y="-418.9" font-family="Helvetica,sans-Serif" font-size="11.00" fill="#000000">int4[10]</text>
<polygon fill="none" stroke="#000000" points="288.5,-389.2 288.5,-411.2 508.5,-411.2 508.5,-389.2 288.5,-389.2"/>
<image xlink:href="../../images/foreignKeys.png" width="11px" height="12px" preserveAspectRatio="xMinYMin meet" x="293.5" y="-406.2"/>
<text text-anchor="start" x="308.5" y="-396.3" font-family="Helvetica,sans-Serif" font-size="11.00" fill="#000000">estabelecimento_origem_id</text>
<polygon fill="none" stroke="#000000" points="508.5,-389.2 508.5,-411.2 617.5,-411.2 617.5,-389.2 508.5,-389.2"/>
<text text-anchor="start" x="511.5" y="-396.9" font-family="Helvetica,sans-Serif" font-size="11.00" fill="#000000">int4[10]</text>
<polygon fill="none" stroke="#000000" points="288.5,-367.2 288.5,-389.2 508.5,-389.2 508.5,-367.2 288.5,-367.2"/>
<image xlink:href="../../images/foreignKeys.png" width="11px" height="12px" preserveAspectRatio="xMinYMin meet" x="293.5" y="-384.2"/>
<text text-anchor="start" x="308.5" y="-374.3" font-family="Helvetica,sans-Serif" font-size="11.00" fill="#000000">estabelecimento_cloud_id</text>
<polygon fill="none" stroke="#000000" points="508.5,-367.2 508.5,-389.2 617.5,-389.2 617.5,-367.2 508.5,-367.2"/>
<text text-anchor="start" x="511.5" y="-374.9" font-family="Helvetica,sans-Serif" font-size="11.00" fill="#000000">int4[10]</text>
<polygon fill="none" stroke="#000000" points="288.5,-345.2 288.5,-367.2 508.5,-367.2 508.5,-345.2 288.5,-345.2"/>
<text text-anchor="start" x="308.5" y="-352.3" font-family="Helvetica,sans-Serif" font-size="11.00" fill="#000000">quantidade_maxima_alunos</text>
<polygon fill="none" stroke="#000000" points="508.5,-345.2 508.5,-367.2 617.5,-367.2 617.5,-345.2 508.5,-345.2"/>
<text text-anchor="start" x="511.5" y="-352.9" font-family="Helvetica,sans-Serif" font-size="11.00" fill="#000000">int4[10]</text>
<polygon fill="none" stroke="#000000" points="288.5,-323.2 288.5,-345.2 508.5,-345.2 508.5,-323.2 288.5,-323.2"/>
<text text-anchor="start" x="308.5" y="-330.3" font-family="Helvetica,sans-Serif" font-size="11.00" fill="#000000">quantidade_aulas_semanais</text>
<polygon fill="none" stroke="#000000" points="508.5,-323.2 508.5,-345.2 617.5,-345.2 617.5,-323.2 508.5,-323.2"/>
<text text-anchor="start" x="511.5" y="-330.9" font-family="Helvetica,sans-Serif" font-size="11.00" fill="#000000">int4[10]</text>
<polygon fill="none" stroke="#000000" points="288.5,-301.2 288.5,-323.2 508.5,-323.2 508.5,-301.2 288.5,-301.2"/>
<text text-anchor="start" x="308.5" y="-308.3" font-family="Helvetica,sans-Serif" font-size="11.00" fill="#000000">quantidade_alunos</text>
<polygon fill="none" stroke="#000000" points="508.5,-301.2 508.5,-323.2 617.5,-323.2 617.5,-301.2 508.5,-301.2"/>
<text text-anchor="start" x="511.5" y="-308.9" font-family="Helvetica,sans-Serif" font-size="11.00" fill="#000000">int4[10]</text>
<polygon fill="none" stroke="#000000" points="288.5,-279.2 288.5,-301.2 508.5,-301.2 508.5,-279.2 288.5,-279.2"/>
<text text-anchor="start" x="308.5" y="-286.3" font-family="Helvetica,sans-Serif" font-size="11.00" fill="#000000">data_inicio</text>
<polygon fill="none" stroke="#000000" points="508.5,-279.2 508.5,-301.2 617.5,-301.2 617.5,-279.2 508.5,-279.2"/>
<text text-anchor="start" x="511.5" y="-286.9" font-family="Helvetica,sans-Serif" font-size="11.00" fill="#000000">date[13]</text>
<polygon fill="none" stroke="#000000" points="288.5,-257.2 288.5,-279.2 508.5,-279.2 508.5,-257.2 288.5,-257.2"/>
<text text-anchor="start" x="308.5" y="-264.3" font-family="Helvetica,sans-Serif" font-size="11.00" fill="#000000">data_fim</text>
<polygon fill="none" stroke="#000000" points="508.5,-257.2 508.5,-279.2 617.5,-279.2 617.5,-257.2 508.5,-257.2"/>
<text text-anchor="start" x="511.5" y="-264.9" font-family="Helvetica,sans-Serif" font-size="11.00" fill="#000000">date[13]</text>
<polygon fill="none" stroke="#000000" points="288.5,-235.2 288.5,-257.2 508.5,-257.2 508.5,-235.2 288.5,-235.2"/>
<text text-anchor="start" x="308.5" y="-242.3" font-family="Helvetica,sans-Serif" font-size="11.00" fill="#000000">tipo</text>
<polygon fill="none" stroke="#000000" points="508.5,-235.2 508.5,-257.2 617.5,-257.2 617.5,-235.2 508.5,-235.2"/>
<text text-anchor="start" x="511.0344" y="-242.9" font-family="Helvetica,sans-Serif" font-size="11.00" fill="#000000">varchar[2147483647]</text>
<polygon fill="none" stroke="#000000" points="288.5,-213.2 288.5,-235.2 508.5,-235.2 508.5,-213.2 288.5,-213.2"/>
<image xlink:href="../../images/foreignKeys.png" width="11px" height="12px" preserveAspectRatio="xMinYMin meet" x="293.5" y="-230.2"/>
<text text-anchor="start" x="308.5" y="-220.3" font-family="Helvetica,sans-Serif" font-size="11.00" fill="#000000">turma_pai_origem_id</text>
<polygon fill="none" stroke="#000000" points="508.5,-213.2 508.5,-235.2 617.5,-235.2 617.5,-213.2 508.5,-213.2"/>
<text text-anchor="start" x="511.5" y="-220.9" font-family="Helvetica,sans-Serif" font-size="11.00" fill="#000000">int4[10]</text>
<polygon fill="none" stroke="#000000" points="288.5,-191.2 288.5,-213.2 508.5,-213.2 508.5,-191.2 288.5,-191.2"/>
<image xlink:href="../../images/foreignKeys.png" width="11px" height="12px" preserveAspectRatio="xMinYMin meet" x="293.5" y="-208.2"/>
<text text-anchor="start" x="308.5" y="-198.3" font-family="Helvetica,sans-Serif" font-size="11.00" fill="#000000">turma_pai_cloud_id</text>
<polygon fill="none" stroke="#000000" points="508.5,-191.2 508.5,-213.2 617.5,-213.2 617.5,-191.2 508.5,-191.2"/>
<text text-anchor="start" x="511.5" y="-198.9" font-family="Helvetica,sans-Serif" font-size="11.00" fill="#000000">int4[10]</text>
<polygon fill="none" stroke="#000000" points="288.5,-169.2 288.5,-191.2 508.5,-191.2 508.5,-169.2 288.5,-169.2"/>
<image xlink:href="../../images/foreignKeys.png" width="11px" height="12px" preserveAspectRatio="xMinYMin meet" x="293.5" y="-186.2"/>
<text text-anchor="start" x="308.5" y="-176.3" font-family="Helvetica,sans-Serif" font-size="11.00" fill="#000000">etapa_matriz_disciplina_origem_id</text>
<polygon fill="none" stroke="#000000" points="508.5,-169.2 508.5,-191.2 617.5,-191.2 617.5,-169.2 508.5,-169.2"/>
<text text-anchor="start" x="511.5" y="-176.9" font-family="Helvetica,sans-Serif" font-size="11.00" fill="#000000">int4[10]</text>
<polygon fill="none" stroke="#000000" points="288.5,-147.2 288.5,-169.2 508.5,-169.2 508.5,-147.2 288.5,-147.2"/>
<image xlink:href="../../images/foreignKeys.png" width="11px" height="12px" preserveAspectRatio="xMinYMin meet" x="293.5" y="-164.2"/>
<text text-anchor="start" x="308.5" y="-154.3" font-family="Helvetica,sans-Serif" font-size="11.00" fill="#000000">etapa_matriz_disciplina_cloud_id</text>
<polygon fill="none" stroke="#000000" points="508.5,-147.2 508.5,-169.2 617.5,-169.2 617.5,-147.2 508.5,-147.2"/>
<text text-anchor="start" x="511.5" y="-154.9" font-family="Helvetica,sans-Serif" font-size="11.00" fill="#000000">int4[10]</text>
<polygon fill="none" stroke="#000000" points="288.5,-125.2 288.5,-147.2 508.5,-147.2 508.5,-125.2 288.5,-125.2"/>
<image xlink:href="../../images/foreignKeys.png" width="11px" height="12px" preserveAspectRatio="xMinYMin meet" x="293.5" y="-142.2"/>
<text text-anchor="start" x="308.5" y="-132.3" font-family="Helvetica,sans-Serif" font-size="11.00" fill="#000000">dependencia_fisica_origem_id</text>
<polygon fill="none" stroke="#000000" points="508.5,-125.2 508.5,-147.2 617.5,-147.2 617.5,-125.2 508.5,-125.2"/>
<text text-anchor="start" x="511.5" y="-132.9" font-family="Helvetica,sans-Serif" font-size="11.00" fill="#000000">int4[10]</text>
<polygon fill="none" stroke="#000000" points="288.5,-103.2 288.5,-125.2 508.5,-125.2 508.5,-103.2 288.5,-103.2"/>
<image xlink:href="../../images/foreignKeys.png" width="11px" height="12px" preserveAspectRatio="xMinYMin meet" x="293.5" y="-120.2"/>
<text text-anchor="start" x="308.5" y="-110.3" font-family="Helvetica,sans-Serif" font-size="11.00" fill="#000000">dependencia_fisica_cloud_id</text>
<polygon fill="none" stroke="#000000" points="508.5,-103.2 508.5,-125.2 617.5,-125.2 617.5,-103.2 508.5,-103.2"/>
<text text-anchor="start" x="511.5" y="-110.9" font-family="Helvetica,sans-Serif" font-size="11.00" fill="#000000">int4[10]</text>
<polygon fill="none" stroke="#000000" points="288.5,-81.2 288.5,-103.2 508.5,-103.2 508.5,-81.2 288.5,-81.2"/>
<image xlink:href="../../images/foreignKeys.png" width="11px" height="12px" preserveAspectRatio="xMinYMin meet" x="293.5" y="-98.2"/>
<text text-anchor="start" x="308.5" y="-88.3" font-family="Helvetica,sans-Serif" font-size="11.00" fill="#000000">professor_origem_id</text>
<polygon fill="none" stroke="#000000" points="508.5,-81.2 508.5,-103.2 617.5,-103.2 617.5,-81.2 508.5,-81.2"/>
<text text-anchor="start" x="511.5" y="-88.9" font-family="Helvetica,sans-Serif" font-size="11.00" fill="#000000">int4[10]</text>
<polygon fill="none" stroke="#000000" points="288.5,-59.2 288.5,-81.2 508.5,-81.2 508.5,-59.2 288.5,-59.2"/>
<image xlink:href="../../images/foreignKeys.png" width="11px" height="12px" preserveAspectRatio="xMinYMin meet" x="293.5" y="-76.2"/>
<text text-anchor="start" x="308.5" y="-66.3" font-family="Helvetica,sans-Serif" font-size="11.00" fill="#000000">professor_cloud_id</text>
<polygon fill="none" stroke="#000000" points="508.5,-59.2 508.5,-81.2 617.5,-81.2 617.5,-59.2 508.5,-59.2"/>
<text text-anchor="start" x="511.5" y="-66.9" font-family="Helvetica,sans-Serif" font-size="11.00" fill="#000000">int4[10]</text>
<polygon fill="#ffffff" stroke="transparent" points="288.5,-40.2 288.5,-59.2 405.5,-59.2 405.5,-40.2 288.5,-40.2"/>
<polygon fill="none" stroke="#000000" points="288.5,-40.2 288.5,-59.2 405.5,-59.2 405.5,-40.2 288.5,-40.2"/>
<text text-anchor="start" x="291.5" y="-46.3" font-family="Helvetica,sans-Serif" font-size="11.00" fill="#000000">&lt; 12</text>
<polygon fill="#ffffff" stroke="transparent" points="405.5,-40.2 405.5,-59.2 508.5,-59.2 508.5,-40.2 405.5,-40.2"/>
<polygon fill="none" stroke="#000000" points="405.5,-40.2 405.5,-59.2 508.5,-59.2 508.5,-40.2 405.5,-40.2"/>
<text text-anchor="start" x="499.3862" y="-46.3" font-family="Helvetica,sans-Serif" font-size="11.00" fill="#000000"> &#160;</text>
<polygon fill="#ffffff" stroke="transparent" points="508.5,-40.2 508.5,-59.2 617.5,-59.2 617.5,-40.2 508.5,-40.2"/>
<polygon fill="none" stroke="#000000" points="508.5,-40.2 508.5,-59.2 617.5,-59.2 617.5,-40.2 508.5,-40.2"/>
<text text-anchor="start" x="598.9053" y="-46.3" font-family="Helvetica,sans-Serif" font-size="11.00" fill="#000000">0 &gt;</text>
<polygon fill="none" stroke="#000000" stroke-width="2" points="287,-39.2 287,-589.2 618,-589.2 618,-39.2 287,-39.2"/>
</a>
</g>
</g>
<!-- inscricao_lista_espera_situacoes -->
<g id="node2" class="node">
<title>inscricao_lista_espera_situacoes</title>
<g id="a_node2"><a xlink:href="../../tables/inscricao_lista_espera_situacoes.html" xlink:title="inscricao_lista_espera_situacoes" target="_top">
<polygon fill="#ffffff" stroke="transparent" points="8,-142.7 8,-225.7 237,-225.7 237,-142.7 8,-142.7"/>
<polygon fill="#f5f5f5" stroke="transparent" points="8.5,-202.2 8.5,-225.2 237.5,-225.2 237.5,-202.2 8.5,-202.2"/>
<polygon fill="none" stroke="#000000" points="8.5,-202.2 8.5,-225.2 237.5,-225.2 237.5,-202.2 8.5,-202.2"/>
<text text-anchor="start" x="13.5" y="-210.8" font-family="Helvetica,sans-Serif" font-weight="bold" font-size="11.00" fill="#000000">inscricao_lista_espera_situacoes</text>
<text text-anchor="start" x="203.0219" y="-210.3" font-family="Helvetica,sans-Serif" font-size="11.00" fill="#000000">[table]</text>
<polygon fill="none" stroke="#000000" points="8.5,-180.2 8.5,-202.2 237.5,-202.2 237.5,-180.2 8.5,-180.2"/>
<image xlink:href="../../images/primaryKeys.png" width="11px" height="12px" preserveAspectRatio="xMinYMin meet" x="13.5" y="-197.2"/>
<text text-anchor="start" x="37.5" y="-187.3" font-family="Helvetica,sans-Serif" font-size="11.00" fill="#000000">id</text>
<polygon fill="none" stroke="#000000" points="8.5,-161.2 8.5,-180.2 237.5,-180.2 237.5,-161.2 8.5,-161.2"/>
<text text-anchor="start" x="11.5" y="-167.3" font-family="Helvetica,sans-Serif" font-size="11.00" fill="#000000">...</text>
<polygon fill="#ffffff" stroke="transparent" points="8.5,-142.2 8.5,-161.2 106.5,-161.2 106.5,-142.2 8.5,-142.2"/>
<polygon fill="none" stroke="#000000" points="8.5,-142.2 8.5,-161.2 106.5,-161.2 106.5,-142.2 8.5,-142.2"/>
<text text-anchor="start" x="11.5" y="-148.3" font-family="Helvetica,sans-Serif" font-size="11.00" fill="#000000"> &#160;</text>
<polygon fill="#ffffff" stroke="transparent" points="106.5,-142.2 106.5,-161.2 161.5,-161.2 161.5,-142.2 106.5,-142.2"/>
<polygon fill="none" stroke="#000000" points="106.5,-142.2 106.5,-161.2 161.5,-161.2 161.5,-142.2 106.5,-142.2"/>
<text text-anchor="start" x="152.3862" y="-148.3" font-family="Helvetica,sans-Serif" font-size="11.00" fill="#000000"> &#160;</text>
<polygon fill="#ffffff" stroke="transparent" points="161.5,-142.2 161.5,-161.2 237.5,-161.2 237.5,-142.2 161.5,-142.2"/>
<polygon fill="none" stroke="#000000" points="161.5,-142.2 161.5,-161.2 237.5,-161.2 237.5,-142.2 161.5,-142.2"/>
<text text-anchor="start" x="206.6755" y="-148.3" font-family="Helvetica,sans-Serif" font-size="11.00" fill="#000000">596 &gt;</text>
</a>
</g>
</g>
<!-- disciplinas_eja_modular&#45;&gt;inscricao_lista_espera_situacoes -->
<g id="edge1" class="edge">
<title>disciplinas_eja_modular:w&#45;&gt;inscricao_lista_espera_situacoes:e</title>
<path fill="none" stroke="#000000" stroke-dasharray="5,2" d="M273.9951,-420.3406C199.4245,-398.4791 337.0946,-191.2 237.5,-191.2"/>
<polygon fill="#000000" stroke="#000000" points="280.5649,-421.1827 288.0422,-425.7708 284.5325,-421.6914 288.5,-422.2 288.5,-422.2 288.5,-422.2 284.5325,-421.6914 288.9578,-418.6292 280.5649,-421.1827 280.5649,-421.1827"/>
<ellipse fill="none" stroke="#000000" cx="277.3909" cy="-420.7758" rx="3.2" ry="3.2"/>
</g>
<!-- disciplinas_eja_modular&#45;&gt;inscricao_lista_espera_situacoes -->
<g id="edge2" class="edge">
<title>disciplinas_eja_modular:w&#45;&gt;inscricao_lista_espera_situacoes:e</title>
<path fill="none" stroke="#000000" stroke-dasharray="5,2" d="M273.9827,-442.5175C190.1972,-420.5664 346.7174,-191.2 237.5,-191.2"/>
<polygon fill="#000000" stroke="#000000" points="280.5532,-443.279 288.0855,-447.7761 284.5266,-443.7395 288.5,-444.2 288.5,-444.2 288.5,-444.2 284.5266,-443.7395 288.9145,-440.6239 280.5532,-443.279 280.5532,-443.279"/>
<ellipse fill="none" stroke="#000000" cx="277.3745" cy="-442.9105" rx="3.2" ry="3.2"/>
</g>
<!-- disciplinas_eja_modular&#45;&gt;inscricao_lista_espera_situacoes -->
<g id="edge3" class="edge">
<title>disciplinas_eja_modular:w&#45;&gt;inscricao_lista_espera_situacoes:e</title>
<path fill="none" stroke="#000000" stroke-dasharray="5,2" d="M274.5177,-118.7861C255.094,-135.3628 272.4549,-191.2 237.5,-191.2"/>
<polygon fill="#000000" stroke="#000000" points="280.8984,-116.6933 289.622,-117.6207 284.6992,-115.4466 288.5,-114.2 288.5,-114.2 288.5,-114.2 284.6992,-115.4466 287.378,-110.7793 280.8984,-116.6933 280.8984,-116.6933"/>
<ellipse fill="none" stroke="#000000" cx="277.8578" cy="-117.6906" rx="3.2" ry="3.2"/>
</g>
<!-- disciplinas_eja_modular&#45;&gt;inscricao_lista_espera_situacoes -->
<g id="edge4" class="edge">
<title>disciplinas_eja_modular:w&#45;&gt;inscricao_lista_espera_situacoes:e</title>
<path fill="none" stroke="#000000" stroke-dasharray="5,2" d="M274.7081,-140.8893C259.2137,-154.1898 264.8462,-191.2 237.5,-191.2"/>
<polygon fill="#000000" stroke="#000000" points="280.9258,-138.7753 289.6589,-139.6084 284.7129,-137.4876 288.5,-136.2 288.5,-136.2 288.5,-136.2 284.7129,-137.4876 287.3411,-132.7916 280.9258,-138.7753 280.9258,-138.7753"/>
<ellipse fill="none" stroke="#000000" cx="277.8961" cy="-139.8054" rx="3.2" ry="3.2"/>
</g>
<!-- disciplinas_eja_modular&#45;&gt;inscricao_lista_espera_situacoes -->
<g id="edge5" class="edge">
<title>disciplinas_eja_modular:w&#45;&gt;inscricao_lista_espera_situacoes:e</title>
<path fill="none" stroke="#000000" stroke-dasharray="5,2" d="M273.9608,-375.8356C217.5479,-354.1887 317.9259,-191.2 237.5,-191.2"/>
<polygon fill="#000000" stroke="#000000" points="280.6037,-376.9159 287.9221,-381.7533 284.5519,-377.5579 288.5,-378.2 288.5,-378.2 288.5,-378.2 284.5519,-377.5579 289.0779,-374.6467 280.6037,-376.9159 280.6037,-376.9159"/>
<ellipse fill="none" stroke="#000000" cx="277.4452" cy="-376.4022" rx="3.2" ry="3.2"/>
</g>
<!-- disciplinas_eja_modular&#45;&gt;inscricao_lista_espera_situacoes -->
<g id="edge6" class="edge">
<title>disciplinas_eja_modular:w&#45;&gt;inscricao_lista_espera_situacoes:e</title>
<path fill="none" stroke="#000000" stroke-dasharray="5,2" d="M274.027,-398.1315C208.5089,-376.4254 327.512,-191.2 237.5,-191.2"/>
<polygon fill="#000000" stroke="#000000" points="280.5805,-399.0681 287.9906,-403.7638 284.5402,-399.634 288.5,-400.2 288.5,-400.2 288.5,-400.2 284.5402,-399.634 289.0094,-396.6362 280.5805,-399.0681 280.5805,-399.0681"/>
<ellipse fill="none" stroke="#000000" cx="277.4127" cy="-398.6153" rx="3.2" ry="3.2"/>
</g>
<!-- disciplinas_eja_modular&#45;&gt;inscricao_lista_espera_situacoes -->
<g id="edge7" class="edge">
<title>disciplinas_eja_modular:w&#45;&gt;inscricao_lista_espera_situacoes:e</title>
<path fill="none" stroke="#000000" stroke-dasharray="5,2" d="M274.4604,-162.2464C261.3775,-171.0584 258.5921,-191.2 237.5,-191.2"/>
<polygon fill="#000000" stroke="#000000" points="280.8129,-160.4156 289.497,-161.6592 284.6565,-159.3078 288.5,-158.2 288.5,-158.2 288.5,-158.2 284.6565,-159.3078 287.503,-154.7408 280.8129,-160.4156 280.8129,-160.4156"/>
<ellipse fill="none" stroke="#000000" cx="277.7381" cy="-161.3018" rx="3.2" ry="3.2"/>
</g>
<!-- disciplinas_eja_modular&#45;&gt;inscricao_lista_espera_situacoes -->
<g id="edge8" class="edge">
<title>disciplinas_eja_modular:w&#45;&gt;inscricao_lista_espera_situacoes:e</title>
<path fill="none" stroke="#000000" stroke-dasharray="5,2" d="M274.0097,-181.9188C261.8398,-185.0125 254.8909,-191.2 237.5,-191.2"/>
<polygon fill="#000000" stroke="#000000" points="280.5557,-181.1424 288.9241,-183.7749 284.5278,-180.6712 288.5,-180.2 288.5,-180.2 288.5,-180.2 284.5278,-180.6712 288.0759,-176.6251 280.5557,-181.1424 280.5557,-181.1424"/>
<ellipse fill="none" stroke="#000000" cx="277.378" cy="-181.5193" rx="3.2" ry="3.2"/>
</g>
<!-- disciplinas_eja_modular&#45;&gt;inscricao_lista_espera_situacoes -->
<g id="edge9" class="edge">
<title>disciplinas_eja_modular:w&#45;&gt;inscricao_lista_espera_situacoes:e</title>
<path fill="none" stroke="#000000" stroke-dasharray="5,2" d="M274.2982,-73.6908C242.2098,-93.53 289.9323,-191.2 237.5,-191.2"/>
<polygon fill="#000000" stroke="#000000" points="280.7312,-72.1096 289.3593,-73.6959 284.6156,-71.1548 288.5,-70.2 288.5,-70.2 288.5,-70.2 284.6156,-71.1548 287.6407,-66.7041 280.7312,-72.1096 280.7312,-72.1096"/>
<ellipse fill="none" stroke="#000000" cx="277.6237" cy="-72.8734" rx="3.2" ry="3.2"/>
</g>
<!-- disciplinas_eja_modular&#45;&gt;inscricao_lista_espera_situacoes -->
<g id="edge10" class="edge">
<title>disciplinas_eja_modular:w&#45;&gt;inscricao_lista_espera_situacoes:e</title>
<path fill="none" stroke="#000000" stroke-dasharray="5,2" d="M274.4616,-96.2035C249.198,-114.7249 281.0017,-191.2 237.5,-191.2"/>
<polygon fill="#000000" stroke="#000000" points="280.8067,-94.394 289.4873,-95.662 284.6534,-93.297 288.5,-92.2 288.5,-92.2 288.5,-92.2 284.6534,-93.297 287.5127,-88.738 280.8067,-94.394 280.8067,-94.394"/>
<ellipse fill="none" stroke="#000000" cx="277.7294" cy="-95.2717" rx="3.2" ry="3.2"/>
</g>
<!-- disciplinas_eja_modular&#45;&gt;inscricao_lista_espera_situacoes -->
<g id="edge11" class="edge">
<title>disciplinas_eja_modular:w&#45;&gt;inscricao_lista_espera_situacoes:e</title>
<path fill="none" stroke="#000000" stroke-dasharray="5,2" d="M274.0097,-200.4813C261.8398,-197.3875 254.8909,-191.2 237.5,-191.2"/>
<polygon fill="#000000" stroke="#000000" points="280.5557,-201.2576 288.0759,-205.7749 284.5278,-201.7288 288.5,-202.2 288.5,-202.2 288.5,-202.2 284.5278,-201.7288 288.9241,-198.6251 280.5557,-201.2576 280.5557,-201.2576"/>
<ellipse fill="none" stroke="#000000" cx="277.378" cy="-200.8807" rx="3.2" ry="3.2"/>
</g>
<!-- disciplinas_eja_modular&#45;&gt;inscricao_lista_espera_situacoes -->
<g id="edge12" class="edge">
<title>disciplinas_eja_modular:w&#45;&gt;inscricao_lista_espera_situacoes:e</title>
<path fill="none" stroke="#000000" stroke-dasharray="5,2" d="M274.4604,-220.1536C261.3775,-211.3416 258.5921,-191.2 237.5,-191.2"/>
<polygon fill="#000000" stroke="#000000" points="280.8129,-221.9844 287.503,-227.6592 284.6565,-223.0922 288.5,-224.2 288.5,-224.2 288.5,-224.2 284.6565,-223.0922 289.497,-220.7408 280.8129,-221.9844 280.8129,-221.9844"/>
<ellipse fill="none" stroke="#000000" cx="277.7381" cy="-221.0982" rx="3.2" ry="3.2"/>
</g>
</g>
</svg>
