<?xml version="1.0" encoding="UTF-8" standalone="no"?>
<!DOCTYPE svg PUBLIC "-//W3C//DTD SVG 1.1//EN"
 "http://www.w3.org/Graphics/SVG/1.1/DTD/svg11.dtd">
<!-- Generated by graphviz version 2.40.1 (20161225.0304)
 -->
<!-- Title: oneDegreeRelationshipsDiagram Pages: 1 -->
<svg width="506pt" height="316pt"
 viewBox="0.00 0.00 506.00 316.20" xmlns="http://www.w3.org/2000/svg" xmlns:xlink="http://www.w3.org/1999/xlink">
<g id="graph0" class="graph" transform="scale(1 1) rotate(0) translate(4 312.2)">
<title>oneDegreeRelationshipsDiagram</title>
<polygon fill="#ffffff" stroke="transparent" points="-4,4 -4,-312.2 502,-312.2 502,4 -4,4"/>
<text text-anchor="middle" x="72.4936" y="-7.3" font-family="Helvetica,sans-Serif" font-size="11.00" fill="#000000">Generated by SchemaSpy</text>
<!-- disciplinas -->
<g id="node1" class="node">
<title>disciplinas</title>
<g id="a_node1"><a xlink:href="../../tables/disciplinas.html" xlink:title="disciplinas" target="_top">
<polygon fill="#ffffff" stroke="transparent" points="8,-38.2 8,-304.2 490,-304.2 490,-38.2 8,-38.2"/>
<polygon fill="#f5f5f5" stroke="transparent" points="10,-279.2 10,-302.2 488,-302.2 488,-279.2 10,-279.2"/>
<polygon fill="none" stroke="#000000" points="10,-279.2 10,-302.2 488,-302.2 488,-279.2 10,-279.2"/>
<text text-anchor="start" x="15" y="-287.8" font-family="Helvetica,sans-Serif" font-weight="bold" font-size="11.00" fill="#000000">disciplinas</text>
<text text-anchor="start" x="453.0437" y="-287.3" font-family="Helvetica,sans-Serif" font-size="11.00" fill="#000000">[table]</text>
<polygon fill="none" stroke="#000000" points="10,-257.2 10,-279.2 227,-279.2 227,-257.2 10,-257.2"/>
<text text-anchor="start" x="30" y="-264.3" font-family="Helvetica,sans-Serif" font-size="11.00" fill="#000000">sistema</text>
<polygon fill="none" stroke="#000000" points="227,-257.2 227,-279.2 488,-279.2 488,-257.2 227,-257.2"/>
<text text-anchor="start" x="230" y="-264.9" font-family="Helvetica,sans-Serif" font-size="11.00" fill="#000000">int4[10]</text>
<polygon fill="none" stroke="#000000" points="10,-235.2 10,-257.2 227,-257.2 227,-235.2 10,-235.2"/>
<text text-anchor="start" x="30" y="-242.3" font-family="Helvetica,sans-Serif" font-size="11.00" fill="#000000">tipo_registro</text>
<polygon fill="none" stroke="#000000" points="227,-235.2 227,-257.2 488,-257.2 488,-235.2 227,-235.2"/>
<text text-anchor="start" x="230" y="-242.9" font-family="Helvetica,sans-Serif" font-size="11.00" fill="#000000">text[2147483647]</text>
<polygon fill="none" stroke="#000000" points="10,-213.2 10,-235.2 227,-235.2 227,-213.2 10,-213.2"/>
<text text-anchor="start" x="30" y="-220.3" font-family="Helvetica,sans-Serif" font-size="11.00" fill="#000000">id_integracao</text>
<polygon fill="none" stroke="#000000" points="227,-213.2 227,-235.2 488,-235.2 488,-213.2 227,-213.2"/>
<text text-anchor="start" x="230" y="-220.9" font-family="Helvetica,sans-Serif" font-size="11.00" fill="#000000">varchar[2147483647]</text>
<polygon fill="none" stroke="#000000" points="10,-191.2 10,-213.2 227,-213.2 227,-191.2 10,-191.2"/>
<text text-anchor="start" x="30" y="-198.3" font-family="Helvetica,sans-Serif" font-size="11.00" fill="#000000">id_origem</text>
<polygon fill="none" stroke="#000000" points="227,-191.2 227,-213.2 488,-213.2 488,-191.2 227,-191.2"/>
<text text-anchor="start" x="230" y="-198.9" font-family="Helvetica,sans-Serif" font-size="11.00" fill="#000000">int4[10]</text>
<polygon fill="none" stroke="#000000" points="10,-169.2 10,-191.2 227,-191.2 227,-169.2 10,-169.2"/>
<text text-anchor="start" x="30" y="-176.3" font-family="Helvetica,sans-Serif" font-size="11.00" fill="#000000">id_cloud</text>
<polygon fill="none" stroke="#000000" points="227,-169.2 227,-191.2 488,-191.2 488,-169.2 227,-169.2"/>
<text text-anchor="start" x="230" y="-176.9" font-family="Helvetica,sans-Serif" font-size="11.00" fill="#000000">int4[10]</text>
<polygon fill="none" stroke="#000000" points="10,-147.2 10,-169.2 227,-169.2 227,-147.2 10,-147.2"/>
<text text-anchor="start" x="30" y="-154.3" font-family="Helvetica,sans-Serif" font-size="11.00" fill="#000000">descricao</text>
<polygon fill="none" stroke="#000000" points="227,-147.2 227,-169.2 488,-169.2 488,-147.2 227,-147.2"/>
<text text-anchor="start" x="230" y="-154.9" font-family="Helvetica,sans-Serif" font-size="11.00" fill="#000000">varchar[60]</text>
<polygon fill="none" stroke="#000000" points="10,-125.2 10,-147.2 227,-147.2 227,-125.2 10,-125.2"/>
<text text-anchor="start" x="30" y="-132.3" font-family="Helvetica,sans-Serif" font-size="11.00" fill="#000000">sigla</text>
<polygon fill="none" stroke="#000000" points="227,-125.2 227,-147.2 488,-147.2 488,-125.2 227,-125.2"/>
<text text-anchor="start" x="230" y="-132.9" font-family="Helvetica,sans-Serif" font-size="11.00" fill="#000000">varchar[5]</text>
<polygon fill="none" stroke="#000000" points="10,-103.2 10,-125.2 227,-125.2 227,-103.2 10,-103.2"/>
<text text-anchor="start" x="30" y="-110.3" font-family="Helvetica,sans-Serif" font-size="11.00" fill="#000000">inep</text>
<polygon fill="none" stroke="#000000" points="227,-103.2 227,-125.2 488,-125.2 488,-103.2 227,-103.2"/>
<text text-anchor="start" x="230" y="-110.9" font-family="Helvetica,sans-Serif" font-size="11.00" fill="#000000">int4[10]</text>
<polygon fill="none" stroke="#000000" points="10,-81.2 10,-103.2 227,-103.2 227,-81.2 10,-81.2"/>
<text text-anchor="start" x="30" y="-88.3" font-family="Helvetica,sans-Serif" font-size="11.00" fill="#000000">considera_unidade_ensino_medio</text>
<polygon fill="none" stroke="#000000" points="227,-81.2 227,-103.2 488,-103.2 488,-81.2 227,-81.2"/>
<text text-anchor="start" x="230" y="-88.9" font-family="Helvetica,sans-Serif" font-size="11.00" fill="#000000">bool[1]</text>
<polygon fill="none" stroke="#000000" points="10,-59.2 10,-81.2 227,-81.2 227,-59.2 10,-59.2"/>
<text text-anchor="start" x="30" y="-66.3" font-family="Helvetica,sans-Serif" font-size="11.00" fill="#000000">classificacao_unidade_inep</text>
<polygon fill="none" stroke="#000000" points="227,-59.2 227,-81.2 488,-81.2 488,-59.2 227,-59.2"/>
<text text-anchor="start" x="229.5601" y="-66.9" font-family="Helvetica,sans-Serif" font-size="11.00" fill="#000000">&quot;educacao&quot;.&quot;classificacaounidadeinep&quot;[2147483647]</text>
<polygon fill="#ffffff" stroke="transparent" points="10,-40.2 10,-59.2 123,-59.2 123,-40.2 10,-40.2"/>
<polygon fill="none" stroke="#000000" points="10,-40.2 10,-59.2 123,-59.2 123,-40.2 10,-40.2"/>
<text text-anchor="start" x="13" y="-46.3" font-family="Helvetica,sans-Serif" font-size="11.00" fill="#000000">&lt; 0</text>
<polygon fill="#ffffff" stroke="transparent" points="123,-40.2 123,-59.2 227,-59.2 227,-40.2 123,-40.2"/>
<polygon fill="none" stroke="#000000" points="123,-40.2 123,-59.2 227,-59.2 227,-40.2 123,-40.2"/>
<text text-anchor="start" x="217.8862" y="-46.3" font-family="Helvetica,sans-Serif" font-size="11.00" fill="#000000"> &#160;</text>
<polygon fill="#ffffff" stroke="transparent" points="227,-40.2 227,-59.2 488,-59.2 488,-40.2 227,-40.2"/>
<polygon fill="none" stroke="#000000" points="227,-40.2 227,-59.2 488,-59.2 488,-40.2 227,-40.2"/>
<text text-anchor="start" x="469.4053" y="-46.3" font-family="Helvetica,sans-Serif" font-size="11.00" fill="#000000">0 &gt;</text>
<polygon fill="none" stroke="#000000" stroke-width="2" points="9,-39.2 9,-303.2 489,-303.2 489,-39.2 9,-39.2"/>
</a>
</g>
</g>
</g>
</svg>
