<?xml version="1.0" encoding="UTF-8" standalone="no"?>
<!DOCTYPE svg PUBLIC "-//W3C//DTD SVG 1.1//EN"
 "http://www.w3.org/Graphics/SVG/1.1/DTD/svg11.dtd">
<!-- Generated by graphviz version 2.40.1 (20161225.0304)
 -->
<!-- Title: oneDegreeRelationshipsDiagramImplied Pages: 1 -->
<svg width="809pt" height="624pt"
 viewBox="0.00 0.00 809.00 624.20" xmlns="http://www.w3.org/2000/svg" xmlns:xlink="http://www.w3.org/1999/xlink">
<g id="graph0" class="graph" transform="scale(1 1) rotate(0) translate(4 620.2)">
<title>oneDegreeRelationshipsDiagramImplied</title>
<polygon fill="#ffffff" stroke="transparent" points="-4,4 -4,-620.2 805,-620.2 805,4 -4,4"/>
<text text-anchor="middle" x="72.4936" y="-7.3" font-family="Helvetica,sans-Serif" font-size="11.00" fill="#000000">Generated by SchemaSpy</text>
<!-- encaminhamentos_lista_espera -->
<g id="node1" class="node">
<title>encaminhamentos_lista_espera</title>
<g id="a_node1"><a xlink:href="../../tables/encaminhamentos_lista_espera.html" xlink:title="encaminhamentos_lista_espera" target="_top">
<polygon fill="#ffffff" stroke="transparent" points="286,-38.2 286,-612.2 793,-612.2 793,-38.2 286,-38.2"/>
<polygon fill="#f5f5f5" stroke="transparent" points="288.5,-587.2 288.5,-610.2 791.5,-610.2 791.5,-587.2 288.5,-587.2"/>
<polygon fill="none" stroke="#000000" points="288.5,-587.2 288.5,-610.2 791.5,-610.2 791.5,-587.2 288.5,-587.2"/>
<text text-anchor="start" x="293.5" y="-595.8" font-family="Helvetica,sans-Serif" font-weight="bold" font-size="11.00" fill="#000000">encaminhamentos_lista_espera</text>
<text text-anchor="start" x="756.5437" y="-595.3" font-family="Helvetica,sans-Serif" font-size="11.00" fill="#000000">[table]</text>
<polygon fill="none" stroke="#000000" points="288.5,-565.2 288.5,-587.2 551.5,-587.2 551.5,-565.2 288.5,-565.2"/>
<text text-anchor="start" x="308.5" y="-572.3" font-family="Helvetica,sans-Serif" font-size="11.00" fill="#000000">sistema</text>
<polygon fill="none" stroke="#000000" points="551.5,-565.2 551.5,-587.2 791.5,-587.2 791.5,-565.2 551.5,-565.2"/>
<text text-anchor="start" x="554.5" y="-572.9" font-family="Helvetica,sans-Serif" font-size="11.00" fill="#000000">int4[10]</text>
<polygon fill="none" stroke="#000000" points="288.5,-543.2 288.5,-565.2 551.5,-565.2 551.5,-543.2 288.5,-543.2"/>
<text text-anchor="start" x="308.5" y="-550.3" font-family="Helvetica,sans-Serif" font-size="11.00" fill="#000000">tipo_registro</text>
<polygon fill="none" stroke="#000000" points="551.5,-543.2 551.5,-565.2 791.5,-565.2 791.5,-543.2 551.5,-543.2"/>
<text text-anchor="start" x="554.5" y="-550.9" font-family="Helvetica,sans-Serif" font-size="11.00" fill="#000000">text[2147483647]</text>
<polygon fill="none" stroke="#000000" points="288.5,-521.2 288.5,-543.2 551.5,-543.2 551.5,-521.2 288.5,-521.2"/>
<text text-anchor="start" x="308.5" y="-528.3" font-family="Helvetica,sans-Serif" font-size="11.00" fill="#000000">id_origem</text>
<polygon fill="none" stroke="#000000" points="551.5,-521.2 551.5,-543.2 791.5,-543.2 791.5,-521.2 551.5,-521.2"/>
<text text-anchor="start" x="554.5" y="-528.9" font-family="Helvetica,sans-Serif" font-size="11.00" fill="#000000">int4[10]</text>
<polygon fill="none" stroke="#000000" points="288.5,-499.2 288.5,-521.2 551.5,-521.2 551.5,-499.2 288.5,-499.2"/>
<text text-anchor="start" x="308.5" y="-506.3" font-family="Helvetica,sans-Serif" font-size="11.00" fill="#000000">id_cloud</text>
<polygon fill="none" stroke="#000000" points="551.5,-499.2 551.5,-521.2 791.5,-521.2 791.5,-499.2 551.5,-499.2"/>
<text text-anchor="start" x="554.5" y="-506.9" font-family="Helvetica,sans-Serif" font-size="11.00" fill="#000000">varchar[2147483647]</text>
<polygon fill="none" stroke="#000000" points="288.5,-477.2 288.5,-499.2 551.5,-499.2 551.5,-477.2 288.5,-477.2"/>
<image xlink:href="../../images/foreignKeys.png" width="11px" height="12px" preserveAspectRatio="xMinYMin meet" x="293.5" y="-494.2"/>
<text text-anchor="start" x="308.5" y="-484.3" font-family="Helvetica,sans-Serif" font-size="11.00" fill="#000000">inscricao_origem_id</text>
<polygon fill="none" stroke="#000000" points="551.5,-477.2 551.5,-499.2 791.5,-499.2 791.5,-477.2 551.5,-477.2"/>
<text text-anchor="start" x="554.5" y="-484.9" font-family="Helvetica,sans-Serif" font-size="11.00" fill="#000000">int4[10]</text>
<polygon fill="none" stroke="#000000" points="288.5,-455.2 288.5,-477.2 551.5,-477.2 551.5,-455.2 288.5,-455.2"/>
<text text-anchor="start" x="308.5" y="-462.3" font-family="Helvetica,sans-Serif" font-size="11.00" fill="#000000">inscricao_cloud_id</text>
<polygon fill="none" stroke="#000000" points="551.5,-455.2 551.5,-477.2 791.5,-477.2 791.5,-455.2 551.5,-455.2"/>
<text text-anchor="start" x="554.5" y="-462.9" font-family="Helvetica,sans-Serif" font-size="11.00" fill="#000000">varchar[2147483647]</text>
<polygon fill="none" stroke="#000000" points="288.5,-433.2 288.5,-455.2 551.5,-455.2 551.5,-433.2 288.5,-433.2"/>
<image xlink:href="../../images/foreignKeys.png" width="11px" height="12px" preserveAspectRatio="xMinYMin meet" x="293.5" y="-450.2"/>
<text text-anchor="start" x="308.5" y="-440.3" font-family="Helvetica,sans-Serif" font-size="11.00" fill="#000000">etapa_origem_id</text>
<polygon fill="none" stroke="#000000" points="551.5,-433.2 551.5,-455.2 791.5,-455.2 791.5,-433.2 551.5,-433.2"/>
<text text-anchor="start" x="554.5" y="-440.9" font-family="Helvetica,sans-Serif" font-size="11.00" fill="#000000">int4[10]</text>
<polygon fill="none" stroke="#000000" points="288.5,-411.2 288.5,-433.2 551.5,-433.2 551.5,-411.2 288.5,-411.2"/>
<text text-anchor="start" x="308.5" y="-418.3" font-family="Helvetica,sans-Serif" font-size="11.00" fill="#000000">etapa_cloud_id</text>
<polygon fill="none" stroke="#000000" points="551.5,-411.2 551.5,-433.2 791.5,-433.2 791.5,-411.2 551.5,-411.2"/>
<text text-anchor="start" x="554.5" y="-418.9" font-family="Helvetica,sans-Serif" font-size="11.00" fill="#000000">varchar[2147483647]</text>
<polygon fill="none" stroke="#000000" points="288.5,-389.2 288.5,-411.2 551.5,-411.2 551.5,-389.2 288.5,-389.2"/>
<image xlink:href="../../images/foreignKeys.png" width="11px" height="12px" preserveAspectRatio="xMinYMin meet" x="293.5" y="-406.2"/>
<text text-anchor="start" x="308.5" y="-396.3" font-family="Helvetica,sans-Serif" font-size="11.00" fill="#000000">configuracao_origem_id</text>
<polygon fill="none" stroke="#000000" points="551.5,-389.2 551.5,-411.2 791.5,-411.2 791.5,-389.2 551.5,-389.2"/>
<text text-anchor="start" x="554.5" y="-396.9" font-family="Helvetica,sans-Serif" font-size="11.00" fill="#000000">int4[10]</text>
<polygon fill="none" stroke="#000000" points="288.5,-367.2 288.5,-389.2 551.5,-389.2 551.5,-367.2 288.5,-367.2"/>
<text text-anchor="start" x="308.5" y="-374.3" font-family="Helvetica,sans-Serif" font-size="11.00" fill="#000000">configuracao_cloud_id</text>
<polygon fill="none" stroke="#000000" points="551.5,-367.2 551.5,-389.2 791.5,-389.2 791.5,-367.2 551.5,-367.2"/>
<text text-anchor="start" x="554.5" y="-374.9" font-family="Helvetica,sans-Serif" font-size="11.00" fill="#000000">varchar[2147483647]</text>
<polygon fill="none" stroke="#000000" points="288.5,-345.2 288.5,-367.2 551.5,-367.2 551.5,-345.2 288.5,-345.2"/>
<text text-anchor="start" x="308.5" y="-352.3" font-family="Helvetica,sans-Serif" font-size="11.00" fill="#000000">estabelecimento_encaminhado_origem_id</text>
<polygon fill="none" stroke="#000000" points="551.5,-345.2 551.5,-367.2 791.5,-367.2 791.5,-345.2 551.5,-345.2"/>
<text text-anchor="start" x="554.5" y="-352.9" font-family="Helvetica,sans-Serif" font-size="11.00" fill="#000000">varchar[2147483647]</text>
<polygon fill="none" stroke="#000000" points="288.5,-323.2 288.5,-345.2 551.5,-345.2 551.5,-323.2 288.5,-323.2"/>
<text text-anchor="start" x="308.5" y="-330.3" font-family="Helvetica,sans-Serif" font-size="11.00" fill="#000000">estabelecimento_encaminhado_cloud_id</text>
<polygon fill="none" stroke="#000000" points="551.5,-323.2 551.5,-345.2 791.5,-345.2 791.5,-323.2 551.5,-323.2"/>
<text text-anchor="start" x="554.5" y="-330.9" font-family="Helvetica,sans-Serif" font-size="11.00" fill="#000000">varchar[2147483647]</text>
<polygon fill="none" stroke="#000000" points="288.5,-301.2 288.5,-323.2 551.5,-323.2 551.5,-301.2 288.5,-301.2"/>
<text text-anchor="start" x="308.5" y="-308.3" font-family="Helvetica,sans-Serif" font-size="11.00" fill="#000000">turnos</text>
<polygon fill="none" stroke="#000000" points="551.5,-301.2 551.5,-323.2 791.5,-323.2 791.5,-301.2 551.5,-301.2"/>
<text text-anchor="start" x="554.5" y="-308.9" font-family="Helvetica,sans-Serif" font-size="11.00" fill="#000000">&quot;educacao&quot;.&quot;_turnos&quot;[2147483647]</text>
<polygon fill="none" stroke="#000000" points="288.5,-279.2 288.5,-301.2 551.5,-301.2 551.5,-279.2 288.5,-279.2"/>
<text text-anchor="start" x="308.5" y="-286.3" font-family="Helvetica,sans-Serif" font-size="11.00" fill="#000000">data_encaminhamento</text>
<polygon fill="none" stroke="#000000" points="551.5,-279.2 551.5,-301.2 791.5,-301.2 791.5,-279.2 551.5,-279.2"/>
<text text-anchor="start" x="554.5" y="-286.9" font-family="Helvetica,sans-Serif" font-size="11.00" fill="#000000">date[13]</text>
<polygon fill="none" stroke="#000000" points="288.5,-257.2 288.5,-279.2 551.5,-279.2 551.5,-257.2 288.5,-257.2"/>
<text text-anchor="start" x="308.5" y="-264.3" font-family="Helvetica,sans-Serif" font-size="11.00" fill="#000000">data_prazo_matricula</text>
<polygon fill="none" stroke="#000000" points="551.5,-257.2 551.5,-279.2 791.5,-279.2 791.5,-257.2 551.5,-257.2"/>
<text text-anchor="start" x="554.5" y="-264.9" font-family="Helvetica,sans-Serif" font-size="11.00" fill="#000000">date[13]</text>
<polygon fill="none" stroke="#000000" points="288.5,-235.2 288.5,-257.2 551.5,-257.2 551.5,-235.2 288.5,-235.2"/>
<text text-anchor="start" x="308.5" y="-242.3" font-family="Helvetica,sans-Serif" font-size="11.00" fill="#000000">etapa</text>
<polygon fill="none" stroke="#000000" points="551.5,-235.2 551.5,-257.2 791.5,-257.2 791.5,-235.2 551.5,-235.2"/>
<text text-anchor="start" x="554.5" y="-242.9" font-family="Helvetica,sans-Serif" font-size="11.00" fill="#000000">varchar[2147483647]</text>
<polygon fill="none" stroke="#000000" points="288.5,-213.2 288.5,-235.2 551.5,-235.2 551.5,-213.2 288.5,-213.2"/>
<text text-anchor="start" x="308.5" y="-220.3" font-family="Helvetica,sans-Serif" font-size="11.00" fill="#000000">nome</text>
<polygon fill="none" stroke="#000000" points="551.5,-213.2 551.5,-235.2 791.5,-235.2 791.5,-213.2 551.5,-213.2"/>
<text text-anchor="start" x="554.5" y="-220.9" font-family="Helvetica,sans-Serif" font-size="11.00" fill="#000000">varchar[2147483647]</text>
<polygon fill="none" stroke="#000000" points="288.5,-191.2 288.5,-213.2 551.5,-213.2 551.5,-191.2 288.5,-191.2"/>
<text text-anchor="start" x="308.5" y="-198.3" font-family="Helvetica,sans-Serif" font-size="11.00" fill="#000000">nome_mae</text>
<polygon fill="none" stroke="#000000" points="551.5,-191.2 551.5,-213.2 791.5,-213.2 791.5,-191.2 551.5,-191.2"/>
<text text-anchor="start" x="554.5" y="-198.9" font-family="Helvetica,sans-Serif" font-size="11.00" fill="#000000">varchar[2147483647]</text>
<polygon fill="none" stroke="#000000" points="288.5,-169.2 288.5,-191.2 551.5,-191.2 551.5,-169.2 288.5,-169.2"/>
<text text-anchor="start" x="308.5" y="-176.3" font-family="Helvetica,sans-Serif" font-size="11.00" fill="#000000">data_nascimento</text>
<polygon fill="none" stroke="#000000" points="551.5,-169.2 551.5,-191.2 791.5,-191.2 791.5,-169.2 551.5,-169.2"/>
<text text-anchor="start" x="554.5" y="-176.9" font-family="Helvetica,sans-Serif" font-size="11.00" fill="#000000">date[13]</text>
<polygon fill="none" stroke="#000000" points="288.5,-147.2 288.5,-169.2 551.5,-169.2 551.5,-147.2 288.5,-147.2"/>
<text text-anchor="start" x="308.5" y="-154.3" font-family="Helvetica,sans-Serif" font-size="11.00" fill="#000000">filtro_etapa</text>
<polygon fill="none" stroke="#000000" points="551.5,-147.2 551.5,-169.2 791.5,-169.2 791.5,-147.2 551.5,-147.2"/>
<text text-anchor="start" x="554.5" y="-154.9" font-family="Helvetica,sans-Serif" font-size="11.00" fill="#000000">varchar[2147483647]</text>
<polygon fill="none" stroke="#000000" points="288.5,-125.2 288.5,-147.2 551.5,-147.2 551.5,-125.2 288.5,-125.2"/>
<text text-anchor="start" x="308.5" y="-132.3" font-family="Helvetica,sans-Serif" font-size="11.00" fill="#000000">filtro_nivel</text>
<polygon fill="none" stroke="#000000" points="551.5,-125.2 551.5,-147.2 791.5,-147.2 791.5,-125.2 551.5,-125.2"/>
<text text-anchor="start" x="554.5" y="-132.9" font-family="Helvetica,sans-Serif" font-size="11.00" fill="#000000">&quot;educacao&quot;.&quot;niveisescolares&quot;[2147483647]</text>
<polygon fill="none" stroke="#000000" points="288.5,-103.2 288.5,-125.2 551.5,-125.2 551.5,-103.2 288.5,-103.2"/>
<text text-anchor="start" x="308.5" y="-110.3" font-family="Helvetica,sans-Serif" font-size="11.00" fill="#000000">filtro_modalidade</text>
<polygon fill="none" stroke="#000000" points="551.5,-103.2 551.5,-125.2 791.5,-125.2 791.5,-103.2 551.5,-103.2"/>
<text text-anchor="start" x="554.2637" y="-110.9" font-family="Helvetica,sans-Serif" font-size="11.00" fill="#000000">&quot;educacao&quot;.&quot;tiposfiltromodalidade&quot;[2147483647]</text>
<polygon fill="none" stroke="#000000" points="288.5,-81.2 288.5,-103.2 551.5,-103.2 551.5,-81.2 288.5,-81.2"/>
<image xlink:href="../../images/foreignKeys.png" width="11px" height="12px" preserveAspectRatio="xMinYMin meet" x="293.5" y="-98.2"/>
<text text-anchor="start" x="308.5" y="-88.3" font-family="Helvetica,sans-Serif" font-size="11.00" fill="#000000">ano_letivo_origem_id</text>
<polygon fill="none" stroke="#000000" points="551.5,-81.2 551.5,-103.2 791.5,-103.2 791.5,-81.2 551.5,-81.2"/>
<text text-anchor="start" x="554.5" y="-88.9" font-family="Helvetica,sans-Serif" font-size="11.00" fill="#000000">int4[10]</text>
<polygon fill="none" stroke="#000000" points="288.5,-59.2 288.5,-81.2 551.5,-81.2 551.5,-59.2 288.5,-59.2"/>
<image xlink:href="../../images/foreignKeys.png" width="11px" height="12px" preserveAspectRatio="xMinYMin meet" x="293.5" y="-76.2"/>
<text text-anchor="start" x="308.5" y="-66.3" font-family="Helvetica,sans-Serif" font-size="11.00" fill="#000000">ano_letivo_cloud_id</text>
<polygon fill="none" stroke="#000000" points="551.5,-59.2 551.5,-81.2 791.5,-81.2 791.5,-59.2 551.5,-59.2"/>
<text text-anchor="start" x="554.5" y="-66.9" font-family="Helvetica,sans-Serif" font-size="11.00" fill="#000000">int4[10]</text>
<polygon fill="#ffffff" stroke="transparent" points="288.5,-40.2 288.5,-59.2 424.5,-59.2 424.5,-40.2 288.5,-40.2"/>
<polygon fill="none" stroke="#000000" points="288.5,-40.2 288.5,-59.2 424.5,-59.2 424.5,-40.2 288.5,-40.2"/>
<text text-anchor="start" x="291.5" y="-46.3" font-family="Helvetica,sans-Serif" font-size="11.00" fill="#000000">&lt; 5</text>
<polygon fill="#ffffff" stroke="transparent" points="424.5,-40.2 424.5,-59.2 551.5,-59.2 551.5,-40.2 424.5,-40.2"/>
<polygon fill="none" stroke="#000000" points="424.5,-40.2 424.5,-59.2 551.5,-59.2 551.5,-40.2 424.5,-40.2"/>
<text text-anchor="start" x="542.3862" y="-46.3" font-family="Helvetica,sans-Serif" font-size="11.00" fill="#000000"> &#160;</text>
<polygon fill="#ffffff" stroke="transparent" points="551.5,-40.2 551.5,-59.2 791.5,-59.2 791.5,-40.2 551.5,-40.2"/>
<polygon fill="none" stroke="#000000" points="551.5,-40.2 551.5,-59.2 791.5,-59.2 791.5,-40.2 551.5,-40.2"/>
<text text-anchor="start" x="772.9053" y="-46.3" font-family="Helvetica,sans-Serif" font-size="11.00" fill="#000000">0 &gt;</text>
<polygon fill="none" stroke="#000000" stroke-width="2" points="287,-39.2 287,-611.2 792,-611.2 792,-39.2 287,-39.2"/>
</a>
</g>
</g>
<!-- inscricao_lista_espera_situacoes -->
<g id="node2" class="node">
<title>inscricao_lista_espera_situacoes</title>
<g id="a_node2"><a xlink:href="../../tables/inscricao_lista_espera_situacoes.html" xlink:title="inscricao_lista_espera_situacoes" target="_top">
<polygon fill="#ffffff" stroke="transparent" points="8,-351.7 8,-434.7 237,-434.7 237,-351.7 8,-351.7"/>
<polygon fill="#f5f5f5" stroke="transparent" points="8.5,-411.2 8.5,-434.2 237.5,-434.2 237.5,-411.2 8.5,-411.2"/>
<polygon fill="none" stroke="#000000" points="8.5,-411.2 8.5,-434.2 237.5,-434.2 237.5,-411.2 8.5,-411.2"/>
<text text-anchor="start" x="13.5" y="-419.8" font-family="Helvetica,sans-Serif" font-weight="bold" font-size="11.00" fill="#000000">inscricao_lista_espera_situacoes</text>
<text text-anchor="start" x="203.0219" y="-419.3" font-family="Helvetica,sans-Serif" font-size="11.00" fill="#000000">[table]</text>
<polygon fill="none" stroke="#000000" points="8.5,-389.2 8.5,-411.2 237.5,-411.2 237.5,-389.2 8.5,-389.2"/>
<image xlink:href="../../images/primaryKeys.png" width="11px" height="12px" preserveAspectRatio="xMinYMin meet" x="13.5" y="-406.2"/>
<text text-anchor="start" x="37.5" y="-396.3" font-family="Helvetica,sans-Serif" font-size="11.00" fill="#000000">id</text>
<polygon fill="none" stroke="#000000" points="8.5,-370.2 8.5,-389.2 237.5,-389.2 237.5,-370.2 8.5,-370.2"/>
<text text-anchor="start" x="11.5" y="-376.3" font-family="Helvetica,sans-Serif" font-size="11.00" fill="#000000">...</text>
<polygon fill="#ffffff" stroke="transparent" points="8.5,-351.2 8.5,-370.2 106.5,-370.2 106.5,-351.2 8.5,-351.2"/>
<polygon fill="none" stroke="#000000" points="8.5,-351.2 8.5,-370.2 106.5,-370.2 106.5,-351.2 8.5,-351.2"/>
<text text-anchor="start" x="11.5" y="-357.3" font-family="Helvetica,sans-Serif" font-size="11.00" fill="#000000"> &#160;</text>
<polygon fill="#ffffff" stroke="transparent" points="106.5,-351.2 106.5,-370.2 161.5,-370.2 161.5,-351.2 106.5,-351.2"/>
<polygon fill="none" stroke="#000000" points="106.5,-351.2 106.5,-370.2 161.5,-370.2 161.5,-351.2 106.5,-351.2"/>
<text text-anchor="start" x="152.3862" y="-357.3" font-family="Helvetica,sans-Serif" font-size="11.00" fill="#000000"> &#160;</text>
<polygon fill="#ffffff" stroke="transparent" points="161.5,-351.2 161.5,-370.2 237.5,-370.2 237.5,-351.2 161.5,-351.2"/>
<polygon fill="none" stroke="#000000" points="161.5,-351.2 161.5,-370.2 237.5,-370.2 237.5,-351.2 161.5,-351.2"/>
<text text-anchor="start" x="206.6755" y="-357.3" font-family="Helvetica,sans-Serif" font-size="11.00" fill="#000000">596 &gt;</text>
</a>
</g>
</g>
<!-- encaminhamentos_lista_espera&#45;&gt;inscricao_lista_espera_situacoes -->
<g id="edge1" class="edge">
<title>encaminhamentos_lista_espera:w&#45;&gt;inscricao_lista_espera_situacoes:e</title>
<path fill="none" stroke="#000000" stroke-dasharray="5,2" d="M273.9197,-71.4614C157.3415,-93.6168 380.5455,-400.2 237.5,-400.2"/>
<polygon fill="#000000" stroke="#000000" points="280.5298,-70.8896 288.8103,-73.7866 284.5149,-70.5448 288.5,-70.2 288.5,-70.2 288.5,-70.2 284.5149,-70.5448 288.1897,-66.6134 280.5298,-70.8896 280.5298,-70.8896"/>
<ellipse fill="none" stroke="#000000" cx="277.3417" cy="-71.1654" rx="3.2" ry="3.2"/>
</g>
<!-- encaminhamentos_lista_espera&#45;&gt;inscricao_lista_espera_situacoes -->
<g id="edge2" class="edge">
<title>encaminhamentos_lista_espera:w&#45;&gt;inscricao_lista_espera_situacoes:e</title>
<path fill="none" stroke="#000000" stroke-dasharray="5,2" d="M273.8684,-93.5732C166.8856,-115.7925 370.8328,-400.2 237.5,-400.2"/>
<polygon fill="#000000" stroke="#000000" points="280.535,-92.9476 288.8364,-95.7842 284.5175,-92.5738 288.5,-92.2 288.5,-92.2 288.5,-92.2 284.5175,-92.5738 288.1636,-88.6158 280.535,-92.9476 280.535,-92.9476"/>
<ellipse fill="none" stroke="#000000" cx="277.349" cy="-93.2466" rx="3.2" ry="3.2"/>
</g>
<!-- encaminhamentos_lista_espera&#45;&gt;inscricao_lista_espera_situacoes -->
<g id="edge3" class="edge">
<title>encaminhamentos_lista_espera:w&#45;&gt;inscricao_lista_espera_situacoes:e</title>
<path fill="none" stroke="#000000" stroke-dasharray="5,2" d="M273.776,-400.2C261.7815,-400.2 254.3229,-400.2 237.5,-400.2"/>
<polygon fill="#000000" stroke="#000000" points="280.5,-400.2001 288.5,-403.8 284.5,-400.2 288.5,-400.2 288.5,-400.2 288.5,-400.2 284.5,-400.2 288.5,-396.6 280.5,-400.2001 280.5,-400.2001"/>
<ellipse fill="none" stroke="#000000" cx="277.3" cy="-400.2001" rx="3.2" ry="3.2"/>
</g>
<!-- encaminhamentos_lista_espera&#45;&gt;inscricao_lista_espera_situacoes -->
<g id="edge4" class="edge">
<title>encaminhamentos_lista_espera:w&#45;&gt;inscricao_lista_espera_situacoes:e</title>
<path fill="none" stroke="#000000" stroke-dasharray="5,2" d="M274.4107,-439.4912C260.5669,-428.1404 261.3557,-400.2 237.5,-400.2"/>
<polygon fill="#000000" stroke="#000000" points="280.9125,-441.6642 287.3589,-447.6144 284.7063,-442.9321 288.5,-444.2 288.5,-444.2 288.5,-444.2 284.7063,-442.9321 289.6411,-440.7856 280.9125,-441.6642 280.9125,-441.6642"/>
<ellipse fill="none" stroke="#000000" cx="277.8775" cy="-440.6498" rx="3.2" ry="3.2"/>
</g>
<!-- encaminhamentos_lista_espera&#45;&gt;inscricao_lista_espera_situacoes -->
<g id="edge5" class="edge">
<title>encaminhamentos_lista_espera:w&#45;&gt;inscricao_lista_espera_situacoes:e</title>
<path fill="none" stroke="#000000" stroke-dasharray="5,2" d="M274.5699,-483.9556C252.2709,-466.3772 276.7009,-400.2 237.5,-400.2"/>
<polygon fill="#000000" stroke="#000000" points="280.8473,-485.8682 287.4507,-491.6437 284.6737,-487.0341 288.5,-488.2 288.5,-488.2 288.5,-488.2 284.6737,-487.0341 289.5493,-484.7563 280.8473,-485.8682 280.8473,-485.8682"/>
<ellipse fill="none" stroke="#000000" cx="277.7863" cy="-484.9355" rx="3.2" ry="3.2"/>
</g>
</g>
</svg>
