<?xml version="1.0" encoding="UTF-8" standalone="no"?>
<!DOCTYPE svg PUBLIC "-//W3C//DTD SVG 1.1//EN"
 "http://www.w3.org/Graphics/SVG/1.1/DTD/svg11.dtd">
<!-- Generated by graphviz version 2.40.1 (20161225.0304)
 -->
<!-- Title: oneDegreeRelationshipsDiagram Pages: 1 -->
<svg width="531pt" height="624pt"
 viewBox="0.00 0.00 531.00 624.20" xmlns="http://www.w3.org/2000/svg" xmlns:xlink="http://www.w3.org/1999/xlink">
<g id="graph0" class="graph" transform="scale(1 1) rotate(0) translate(4 620.2)">
<title>oneDegreeRelationshipsDiagram</title>
<polygon fill="#ffffff" stroke="transparent" points="-4,4 -4,-620.2 527,-620.2 527,4 -4,4"/>
<text text-anchor="middle" x="72.4936" y="-7.3" font-family="Helvetica,sans-Serif" font-size="11.00" fill="#000000">Generated by SchemaSpy</text>
<!-- encaminhamentos_lista_espera -->
<g id="node1" class="node">
<title>encaminhamentos_lista_espera</title>
<g id="a_node1"><a xlink:href="../../tables/encaminhamentos_lista_espera.html" xlink:title="encaminhamentos_lista_espera" target="_top">
<polygon fill="#ffffff" stroke="transparent" points="8,-38.2 8,-612.2 515,-612.2 515,-38.2 8,-38.2"/>
<polygon fill="#f5f5f5" stroke="transparent" points="10.5,-587.2 10.5,-610.2 513.5,-610.2 513.5,-587.2 10.5,-587.2"/>
<polygon fill="none" stroke="#000000" points="10.5,-587.2 10.5,-610.2 513.5,-610.2 513.5,-587.2 10.5,-587.2"/>
<text text-anchor="start" x="15.5" y="-595.8" font-family="Helvetica,sans-Serif" font-weight="bold" font-size="11.00" fill="#000000">encaminhamentos_lista_espera</text>
<text text-anchor="start" x="478.5437" y="-595.3" font-family="Helvetica,sans-Serif" font-size="11.00" fill="#000000">[table]</text>
<polygon fill="none" stroke="#000000" points="10.5,-565.2 10.5,-587.2 273.5,-587.2 273.5,-565.2 10.5,-565.2"/>
<text text-anchor="start" x="30.5" y="-572.3" font-family="Helvetica,sans-Serif" font-size="11.00" fill="#000000">sistema</text>
<polygon fill="none" stroke="#000000" points="273.5,-565.2 273.5,-587.2 513.5,-587.2 513.5,-565.2 273.5,-565.2"/>
<text text-anchor="start" x="276.5" y="-572.9" font-family="Helvetica,sans-Serif" font-size="11.00" fill="#000000">int4[10]</text>
<polygon fill="none" stroke="#000000" points="10.5,-543.2 10.5,-565.2 273.5,-565.2 273.5,-543.2 10.5,-543.2"/>
<text text-anchor="start" x="30.5" y="-550.3" font-family="Helvetica,sans-Serif" font-size="11.00" fill="#000000">tipo_registro</text>
<polygon fill="none" stroke="#000000" points="273.5,-543.2 273.5,-565.2 513.5,-565.2 513.5,-543.2 273.5,-543.2"/>
<text text-anchor="start" x="276.5" y="-550.9" font-family="Helvetica,sans-Serif" font-size="11.00" fill="#000000">text[2147483647]</text>
<polygon fill="none" stroke="#000000" points="10.5,-521.2 10.5,-543.2 273.5,-543.2 273.5,-521.2 10.5,-521.2"/>
<text text-anchor="start" x="30.5" y="-528.3" font-family="Helvetica,sans-Serif" font-size="11.00" fill="#000000">id_origem</text>
<polygon fill="none" stroke="#000000" points="273.5,-521.2 273.5,-543.2 513.5,-543.2 513.5,-521.2 273.5,-521.2"/>
<text text-anchor="start" x="276.5" y="-528.9" font-family="Helvetica,sans-Serif" font-size="11.00" fill="#000000">int4[10]</text>
<polygon fill="none" stroke="#000000" points="10.5,-499.2 10.5,-521.2 273.5,-521.2 273.5,-499.2 10.5,-499.2"/>
<text text-anchor="start" x="30.5" y="-506.3" font-family="Helvetica,sans-Serif" font-size="11.00" fill="#000000">id_cloud</text>
<polygon fill="none" stroke="#000000" points="273.5,-499.2 273.5,-521.2 513.5,-521.2 513.5,-499.2 273.5,-499.2"/>
<text text-anchor="start" x="276.5" y="-506.9" font-family="Helvetica,sans-Serif" font-size="11.00" fill="#000000">varchar[2147483647]</text>
<polygon fill="none" stroke="#000000" points="10.5,-477.2 10.5,-499.2 273.5,-499.2 273.5,-477.2 10.5,-477.2"/>
<image xlink:href="../../images/foreignKeys.png" width="11px" height="12px" preserveAspectRatio="xMinYMin meet" x="15.5" y="-494.2"/>
<text text-anchor="start" x="30.5" y="-484.3" font-family="Helvetica,sans-Serif" font-size="11.00" fill="#000000">inscricao_origem_id</text>
<polygon fill="none" stroke="#000000" points="273.5,-477.2 273.5,-499.2 513.5,-499.2 513.5,-477.2 273.5,-477.2"/>
<text text-anchor="start" x="276.5" y="-484.9" font-family="Helvetica,sans-Serif" font-size="11.00" fill="#000000">int4[10]</text>
<polygon fill="none" stroke="#000000" points="10.5,-455.2 10.5,-477.2 273.5,-477.2 273.5,-455.2 10.5,-455.2"/>
<text text-anchor="start" x="30.5" y="-462.3" font-family="Helvetica,sans-Serif" font-size="11.00" fill="#000000">inscricao_cloud_id</text>
<polygon fill="none" stroke="#000000" points="273.5,-455.2 273.5,-477.2 513.5,-477.2 513.5,-455.2 273.5,-455.2"/>
<text text-anchor="start" x="276.5" y="-462.9" font-family="Helvetica,sans-Serif" font-size="11.00" fill="#000000">varchar[2147483647]</text>
<polygon fill="none" stroke="#000000" points="10.5,-433.2 10.5,-455.2 273.5,-455.2 273.5,-433.2 10.5,-433.2"/>
<image xlink:href="../../images/foreignKeys.png" width="11px" height="12px" preserveAspectRatio="xMinYMin meet" x="15.5" y="-450.2"/>
<text text-anchor="start" x="30.5" y="-440.3" font-family="Helvetica,sans-Serif" font-size="11.00" fill="#000000">etapa_origem_id</text>
<polygon fill="none" stroke="#000000" points="273.5,-433.2 273.5,-455.2 513.5,-455.2 513.5,-433.2 273.5,-433.2"/>
<text text-anchor="start" x="276.5" y="-440.9" font-family="Helvetica,sans-Serif" font-size="11.00" fill="#000000">int4[10]</text>
<polygon fill="none" stroke="#000000" points="10.5,-411.2 10.5,-433.2 273.5,-433.2 273.5,-411.2 10.5,-411.2"/>
<text text-anchor="start" x="30.5" y="-418.3" font-family="Helvetica,sans-Serif" font-size="11.00" fill="#000000">etapa_cloud_id</text>
<polygon fill="none" stroke="#000000" points="273.5,-411.2 273.5,-433.2 513.5,-433.2 513.5,-411.2 273.5,-411.2"/>
<text text-anchor="start" x="276.5" y="-418.9" font-family="Helvetica,sans-Serif" font-size="11.00" fill="#000000">varchar[2147483647]</text>
<polygon fill="none" stroke="#000000" points="10.5,-389.2 10.5,-411.2 273.5,-411.2 273.5,-389.2 10.5,-389.2"/>
<image xlink:href="../../images/foreignKeys.png" width="11px" height="12px" preserveAspectRatio="xMinYMin meet" x="15.5" y="-406.2"/>
<text text-anchor="start" x="30.5" y="-396.3" font-family="Helvetica,sans-Serif" font-size="11.00" fill="#000000">configuracao_origem_id</text>
<polygon fill="none" stroke="#000000" points="273.5,-389.2 273.5,-411.2 513.5,-411.2 513.5,-389.2 273.5,-389.2"/>
<text text-anchor="start" x="276.5" y="-396.9" font-family="Helvetica,sans-Serif" font-size="11.00" fill="#000000">int4[10]</text>
<polygon fill="none" stroke="#000000" points="10.5,-367.2 10.5,-389.2 273.5,-389.2 273.5,-367.2 10.5,-367.2"/>
<text text-anchor="start" x="30.5" y="-374.3" font-family="Helvetica,sans-Serif" font-size="11.00" fill="#000000">configuracao_cloud_id</text>
<polygon fill="none" stroke="#000000" points="273.5,-367.2 273.5,-389.2 513.5,-389.2 513.5,-367.2 273.5,-367.2"/>
<text text-anchor="start" x="276.5" y="-374.9" font-family="Helvetica,sans-Serif" font-size="11.00" fill="#000000">varchar[2147483647]</text>
<polygon fill="none" stroke="#000000" points="10.5,-345.2 10.5,-367.2 273.5,-367.2 273.5,-345.2 10.5,-345.2"/>
<text text-anchor="start" x="30.5" y="-352.3" font-family="Helvetica,sans-Serif" font-size="11.00" fill="#000000">estabelecimento_encaminhado_origem_id</text>
<polygon fill="none" stroke="#000000" points="273.5,-345.2 273.5,-367.2 513.5,-367.2 513.5,-345.2 273.5,-345.2"/>
<text text-anchor="start" x="276.5" y="-352.9" font-family="Helvetica,sans-Serif" font-size="11.00" fill="#000000">varchar[2147483647]</text>
<polygon fill="none" stroke="#000000" points="10.5,-323.2 10.5,-345.2 273.5,-345.2 273.5,-323.2 10.5,-323.2"/>
<text text-anchor="start" x="30.5" y="-330.3" font-family="Helvetica,sans-Serif" font-size="11.00" fill="#000000">estabelecimento_encaminhado_cloud_id</text>
<polygon fill="none" stroke="#000000" points="273.5,-323.2 273.5,-345.2 513.5,-345.2 513.5,-323.2 273.5,-323.2"/>
<text text-anchor="start" x="276.5" y="-330.9" font-family="Helvetica,sans-Serif" font-size="11.00" fill="#000000">varchar[2147483647]</text>
<polygon fill="none" stroke="#000000" points="10.5,-301.2 10.5,-323.2 273.5,-323.2 273.5,-301.2 10.5,-301.2"/>
<text text-anchor="start" x="30.5" y="-308.3" font-family="Helvetica,sans-Serif" font-size="11.00" fill="#000000">turnos</text>
<polygon fill="none" stroke="#000000" points="273.5,-301.2 273.5,-323.2 513.5,-323.2 513.5,-301.2 273.5,-301.2"/>
<text text-anchor="start" x="276.5" y="-308.9" font-family="Helvetica,sans-Serif" font-size="11.00" fill="#000000">&quot;educacao&quot;.&quot;_turnos&quot;[2147483647]</text>
<polygon fill="none" stroke="#000000" points="10.5,-279.2 10.5,-301.2 273.5,-301.2 273.5,-279.2 10.5,-279.2"/>
<text text-anchor="start" x="30.5" y="-286.3" font-family="Helvetica,sans-Serif" font-size="11.00" fill="#000000">data_encaminhamento</text>
<polygon fill="none" stroke="#000000" points="273.5,-279.2 273.5,-301.2 513.5,-301.2 513.5,-279.2 273.5,-279.2"/>
<text text-anchor="start" x="276.5" y="-286.9" font-family="Helvetica,sans-Serif" font-size="11.00" fill="#000000">date[13]</text>
<polygon fill="none" stroke="#000000" points="10.5,-257.2 10.5,-279.2 273.5,-279.2 273.5,-257.2 10.5,-257.2"/>
<text text-anchor="start" x="30.5" y="-264.3" font-family="Helvetica,sans-Serif" font-size="11.00" fill="#000000">data_prazo_matricula</text>
<polygon fill="none" stroke="#000000" points="273.5,-257.2 273.5,-279.2 513.5,-279.2 513.5,-257.2 273.5,-257.2"/>
<text text-anchor="start" x="276.5" y="-264.9" font-family="Helvetica,sans-Serif" font-size="11.00" fill="#000000">date[13]</text>
<polygon fill="none" stroke="#000000" points="10.5,-235.2 10.5,-257.2 273.5,-257.2 273.5,-235.2 10.5,-235.2"/>
<text text-anchor="start" x="30.5" y="-242.3" font-family="Helvetica,sans-Serif" font-size="11.00" fill="#000000">etapa</text>
<polygon fill="none" stroke="#000000" points="273.5,-235.2 273.5,-257.2 513.5,-257.2 513.5,-235.2 273.5,-235.2"/>
<text text-anchor="start" x="276.5" y="-242.9" font-family="Helvetica,sans-Serif" font-size="11.00" fill="#000000">varchar[2147483647]</text>
<polygon fill="none" stroke="#000000" points="10.5,-213.2 10.5,-235.2 273.5,-235.2 273.5,-213.2 10.5,-213.2"/>
<text text-anchor="start" x="30.5" y="-220.3" font-family="Helvetica,sans-Serif" font-size="11.00" fill="#000000">nome</text>
<polygon fill="none" stroke="#000000" points="273.5,-213.2 273.5,-235.2 513.5,-235.2 513.5,-213.2 273.5,-213.2"/>
<text text-anchor="start" x="276.5" y="-220.9" font-family="Helvetica,sans-Serif" font-size="11.00" fill="#000000">varchar[2147483647]</text>
<polygon fill="none" stroke="#000000" points="10.5,-191.2 10.5,-213.2 273.5,-213.2 273.5,-191.2 10.5,-191.2"/>
<text text-anchor="start" x="30.5" y="-198.3" font-family="Helvetica,sans-Serif" font-size="11.00" fill="#000000">nome_mae</text>
<polygon fill="none" stroke="#000000" points="273.5,-191.2 273.5,-213.2 513.5,-213.2 513.5,-191.2 273.5,-191.2"/>
<text text-anchor="start" x="276.5" y="-198.9" font-family="Helvetica,sans-Serif" font-size="11.00" fill="#000000">varchar[2147483647]</text>
<polygon fill="none" stroke="#000000" points="10.5,-169.2 10.5,-191.2 273.5,-191.2 273.5,-169.2 10.5,-169.2"/>
<text text-anchor="start" x="30.5" y="-176.3" font-family="Helvetica,sans-Serif" font-size="11.00" fill="#000000">data_nascimento</text>
<polygon fill="none" stroke="#000000" points="273.5,-169.2 273.5,-191.2 513.5,-191.2 513.5,-169.2 273.5,-169.2"/>
<text text-anchor="start" x="276.5" y="-176.9" font-family="Helvetica,sans-Serif" font-size="11.00" fill="#000000">date[13]</text>
<polygon fill="none" stroke="#000000" points="10.5,-147.2 10.5,-169.2 273.5,-169.2 273.5,-147.2 10.5,-147.2"/>
<text text-anchor="start" x="30.5" y="-154.3" font-family="Helvetica,sans-Serif" font-size="11.00" fill="#000000">filtro_etapa</text>
<polygon fill="none" stroke="#000000" points="273.5,-147.2 273.5,-169.2 513.5,-169.2 513.5,-147.2 273.5,-147.2"/>
<text text-anchor="start" x="276.5" y="-154.9" font-family="Helvetica,sans-Serif" font-size="11.00" fill="#000000">varchar[2147483647]</text>
<polygon fill="none" stroke="#000000" points="10.5,-125.2 10.5,-147.2 273.5,-147.2 273.5,-125.2 10.5,-125.2"/>
<text text-anchor="start" x="30.5" y="-132.3" font-family="Helvetica,sans-Serif" font-size="11.00" fill="#000000">filtro_nivel</text>
<polygon fill="none" stroke="#000000" points="273.5,-125.2 273.5,-147.2 513.5,-147.2 513.5,-125.2 273.5,-125.2"/>
<text text-anchor="start" x="276.5" y="-132.9" font-family="Helvetica,sans-Serif" font-size="11.00" fill="#000000">&quot;educacao&quot;.&quot;niveisescolares&quot;[2147483647]</text>
<polygon fill="none" stroke="#000000" points="10.5,-103.2 10.5,-125.2 273.5,-125.2 273.5,-103.2 10.5,-103.2"/>
<text text-anchor="start" x="30.5" y="-110.3" font-family="Helvetica,sans-Serif" font-size="11.00" fill="#000000">filtro_modalidade</text>
<polygon fill="none" stroke="#000000" points="273.5,-103.2 273.5,-125.2 513.5,-125.2 513.5,-103.2 273.5,-103.2"/>
<text text-anchor="start" x="276.2637" y="-110.9" font-family="Helvetica,sans-Serif" font-size="11.00" fill="#000000">&quot;educacao&quot;.&quot;tiposfiltromodalidade&quot;[2147483647]</text>
<polygon fill="none" stroke="#000000" points="10.5,-81.2 10.5,-103.2 273.5,-103.2 273.5,-81.2 10.5,-81.2"/>
<image xlink:href="../../images/foreignKeys.png" width="11px" height="12px" preserveAspectRatio="xMinYMin meet" x="15.5" y="-98.2"/>
<text text-anchor="start" x="30.5" y="-88.3" font-family="Helvetica,sans-Serif" font-size="11.00" fill="#000000">ano_letivo_origem_id</text>
<polygon fill="none" stroke="#000000" points="273.5,-81.2 273.5,-103.2 513.5,-103.2 513.5,-81.2 273.5,-81.2"/>
<text text-anchor="start" x="276.5" y="-88.9" font-family="Helvetica,sans-Serif" font-size="11.00" fill="#000000">int4[10]</text>
<polygon fill="none" stroke="#000000" points="10.5,-59.2 10.5,-81.2 273.5,-81.2 273.5,-59.2 10.5,-59.2"/>
<image xlink:href="../../images/foreignKeys.png" width="11px" height="12px" preserveAspectRatio="xMinYMin meet" x="15.5" y="-76.2"/>
<text text-anchor="start" x="30.5" y="-66.3" font-family="Helvetica,sans-Serif" font-size="11.00" fill="#000000">ano_letivo_cloud_id</text>
<polygon fill="none" stroke="#000000" points="273.5,-59.2 273.5,-81.2 513.5,-81.2 513.5,-59.2 273.5,-59.2"/>
<text text-anchor="start" x="276.5" y="-66.9" font-family="Helvetica,sans-Serif" font-size="11.00" fill="#000000">int4[10]</text>
<polygon fill="#ffffff" stroke="transparent" points="10.5,-40.2 10.5,-59.2 146.5,-59.2 146.5,-40.2 10.5,-40.2"/>
<polygon fill="none" stroke="#000000" points="10.5,-40.2 10.5,-59.2 146.5,-59.2 146.5,-40.2 10.5,-40.2"/>
<text text-anchor="start" x="13.5" y="-46.3" font-family="Helvetica,sans-Serif" font-size="11.00" fill="#000000">&lt; 0</text>
<polygon fill="#ffffff" stroke="transparent" points="146.5,-40.2 146.5,-59.2 273.5,-59.2 273.5,-40.2 146.5,-40.2"/>
<polygon fill="none" stroke="#000000" points="146.5,-40.2 146.5,-59.2 273.5,-59.2 273.5,-40.2 146.5,-40.2"/>
<text text-anchor="start" x="264.3862" y="-46.3" font-family="Helvetica,sans-Serif" font-size="11.00" fill="#000000"> &#160;</text>
<polygon fill="#ffffff" stroke="transparent" points="273.5,-40.2 273.5,-59.2 513.5,-59.2 513.5,-40.2 273.5,-40.2"/>
<polygon fill="none" stroke="#000000" points="273.5,-40.2 273.5,-59.2 513.5,-59.2 513.5,-40.2 273.5,-40.2"/>
<text text-anchor="start" x="494.9053" y="-46.3" font-family="Helvetica,sans-Serif" font-size="11.00" fill="#000000">0 &gt;</text>
<polygon fill="none" stroke="#000000" stroke-width="2" points="9,-39.2 9,-611.2 514,-611.2 514,-39.2 9,-39.2"/>
</a>
</g>
</g>
</g>
</svg>
