<?xml version="1.0" encoding="UTF-8" standalone="no"?>
<!DOCTYPE svg PUBLIC "-//W3C//DTD SVG 1.1//EN"
 "http://www.w3.org/Graphics/SVG/1.1/DTD/svg11.dtd">
<!-- Generated by graphviz version 2.40.1 (20161225.0304)
 -->
<!-- Title: oneDegreeRelationshipsDiagram Pages: 1 -->
<svg width="454pt" height="690pt"
 viewBox="0.00 0.00 454.00 690.20" xmlns="http://www.w3.org/2000/svg" xmlns:xlink="http://www.w3.org/1999/xlink">
<g id="graph0" class="graph" transform="scale(1 1) rotate(0) translate(4 686.2)">
<title>oneDegreeRelationshipsDiagram</title>
<polygon fill="#ffffff" stroke="transparent" points="-4,4 -4,-686.2 450,-686.2 450,4 -4,4"/>
<text text-anchor="middle" x="72.4936" y="-7.3" font-family="Helvetica,sans-Serif" font-size="11.00" fill="#000000">Generated by SchemaSpy</text>
<!-- enderecos -->
<g id="node1" class="node">
<title>enderecos</title>
<g id="a_node1"><a xlink:href="../../tables/enderecos.html" xlink:title="enderecos" target="_top">
<polygon fill="#ffffff" stroke="transparent" points="8,-38.2 8,-678.2 438,-678.2 438,-38.2 8,-38.2"/>
<polygon fill="#f5f5f5" stroke="transparent" points="10,-653.2 10,-676.2 436,-676.2 436,-653.2 10,-653.2"/>
<polygon fill="none" stroke="#000000" points="10,-653.2 10,-676.2 436,-676.2 436,-653.2 10,-653.2"/>
<text text-anchor="start" x="15" y="-661.8" font-family="Helvetica,sans-Serif" font-weight="bold" font-size="11.00" fill="#000000">enderecos</text>
<text text-anchor="start" x="401.0437" y="-661.3" font-family="Helvetica,sans-Serif" font-size="11.00" fill="#000000">[table]</text>
<polygon fill="none" stroke="#000000" points="10,-631.2 10,-653.2 172,-653.2 172,-631.2 10,-631.2"/>
<text text-anchor="start" x="30" y="-638.3" font-family="Helvetica,sans-Serif" font-size="11.00" fill="#000000">sistema</text>
<polygon fill="none" stroke="#000000" points="172,-631.2 172,-653.2 436,-653.2 436,-631.2 172,-631.2"/>
<text text-anchor="start" x="175" y="-638.9" font-family="Helvetica,sans-Serif" font-size="11.00" fill="#000000">int4[10]</text>
<polygon fill="none" stroke="#000000" points="10,-609.2 10,-631.2 172,-631.2 172,-609.2 10,-609.2"/>
<text text-anchor="start" x="30" y="-616.3" font-family="Helvetica,sans-Serif" font-size="11.00" fill="#000000">tipo_registro</text>
<polygon fill="none" stroke="#000000" points="172,-609.2 172,-631.2 436,-631.2 436,-609.2 172,-609.2"/>
<text text-anchor="start" x="175" y="-616.9" font-family="Helvetica,sans-Serif" font-size="11.00" fill="#000000">text[2147483647]</text>
<polygon fill="none" stroke="#000000" points="10,-587.2 10,-609.2 172,-609.2 172,-587.2 10,-587.2"/>
<text text-anchor="start" x="30" y="-594.3" font-family="Helvetica,sans-Serif" font-size="11.00" fill="#000000">id_integracao</text>
<polygon fill="none" stroke="#000000" points="172,-587.2 172,-609.2 436,-609.2 436,-587.2 172,-587.2"/>
<text text-anchor="start" x="175" y="-594.9" font-family="Helvetica,sans-Serif" font-size="11.00" fill="#000000">varchar[2147483647]</text>
<polygon fill="none" stroke="#000000" points="10,-565.2 10,-587.2 172,-587.2 172,-565.2 10,-565.2"/>
<text text-anchor="start" x="30" y="-572.3" font-family="Helvetica,sans-Serif" font-size="11.00" fill="#000000">id_origem</text>
<polygon fill="none" stroke="#000000" points="172,-565.2 172,-587.2 436,-587.2 436,-565.2 172,-565.2"/>
<text text-anchor="start" x="175" y="-572.9" font-family="Helvetica,sans-Serif" font-size="11.00" fill="#000000">int4[10]</text>
<polygon fill="none" stroke="#000000" points="10,-543.2 10,-565.2 172,-565.2 172,-543.2 10,-543.2"/>
<text text-anchor="start" x="30" y="-550.3" font-family="Helvetica,sans-Serif" font-size="11.00" fill="#000000">id_cloud</text>
<polygon fill="none" stroke="#000000" points="172,-543.2 172,-565.2 436,-565.2 436,-543.2 172,-543.2"/>
<text text-anchor="start" x="175" y="-550.9" font-family="Helvetica,sans-Serif" font-size="11.00" fill="#000000">int4[10]</text>
<polygon fill="none" stroke="#000000" points="10,-521.2 10,-543.2 172,-543.2 172,-521.2 10,-521.2"/>
<text text-anchor="start" x="30" y="-528.3" font-family="Helvetica,sans-Serif" font-size="11.00" fill="#000000">principal</text>
<polygon fill="none" stroke="#000000" points="172,-521.2 172,-543.2 436,-543.2 436,-521.2 172,-521.2"/>
<text text-anchor="start" x="175" y="-528.9" font-family="Helvetica,sans-Serif" font-size="11.00" fill="#000000">bool[1]</text>
<polygon fill="none" stroke="#000000" points="10,-499.2 10,-521.2 172,-521.2 172,-499.2 10,-499.2"/>
<text text-anchor="start" x="30" y="-506.3" font-family="Helvetica,sans-Serif" font-size="11.00" fill="#000000">descricao</text>
<polygon fill="none" stroke="#000000" points="172,-499.2 172,-521.2 436,-521.2 436,-499.2 172,-499.2"/>
<text text-anchor="start" x="175" y="-506.9" font-family="Helvetica,sans-Serif" font-size="11.00" fill="#000000">varchar[20]</text>
<polygon fill="none" stroke="#000000" points="10,-477.2 10,-499.2 172,-499.2 172,-477.2 10,-477.2"/>
<text text-anchor="start" x="30" y="-484.3" font-family="Helvetica,sans-Serif" font-size="11.00" fill="#000000">cep</text>
<polygon fill="none" stroke="#000000" points="172,-477.2 172,-499.2 436,-499.2 436,-477.2 172,-477.2"/>
<text text-anchor="start" x="175" y="-484.9" font-family="Helvetica,sans-Serif" font-size="11.00" fill="#000000">varchar[8]</text>
<polygon fill="none" stroke="#000000" points="10,-455.2 10,-477.2 172,-477.2 172,-455.2 10,-455.2"/>
<text text-anchor="start" x="30" y="-462.3" font-family="Helvetica,sans-Serif" font-size="11.00" fill="#000000">numero</text>
<polygon fill="none" stroke="#000000" points="172,-455.2 172,-477.2 436,-477.2 436,-455.2 172,-455.2"/>
<text text-anchor="start" x="175" y="-462.9" font-family="Helvetica,sans-Serif" font-size="11.00" fill="#000000">varchar[8]</text>
<polygon fill="none" stroke="#000000" points="10,-433.2 10,-455.2 172,-455.2 172,-433.2 10,-433.2"/>
<text text-anchor="start" x="30" y="-440.3" font-family="Helvetica,sans-Serif" font-size="11.00" fill="#000000">logradouro</text>
<polygon fill="none" stroke="#000000" points="172,-433.2 172,-455.2 436,-455.2 436,-433.2 172,-433.2"/>
<text text-anchor="start" x="175" y="-440.9" font-family="Helvetica,sans-Serif" font-size="11.00" fill="#000000">varchar[150]</text>
<polygon fill="none" stroke="#000000" points="10,-411.2 10,-433.2 172,-433.2 172,-411.2 10,-411.2"/>
<text text-anchor="start" x="30" y="-418.3" font-family="Helvetica,sans-Serif" font-size="11.00" fill="#000000">complemento</text>
<polygon fill="none" stroke="#000000" points="172,-411.2 172,-433.2 436,-433.2 436,-411.2 172,-411.2"/>
<text text-anchor="start" x="175" y="-418.9" font-family="Helvetica,sans-Serif" font-size="11.00" fill="#000000">varchar[60]</text>
<polygon fill="none" stroke="#000000" points="10,-389.2 10,-411.2 172,-411.2 172,-389.2 10,-389.2"/>
<text text-anchor="start" x="30" y="-396.3" font-family="Helvetica,sans-Serif" font-size="11.00" fill="#000000">condominio</text>
<polygon fill="none" stroke="#000000" points="172,-389.2 172,-411.2 436,-411.2 436,-389.2 172,-389.2"/>
<text text-anchor="start" x="175" y="-396.9" font-family="Helvetica,sans-Serif" font-size="11.00" fill="#000000">varchar[50]</text>
<polygon fill="none" stroke="#000000" points="10,-367.2 10,-389.2 172,-389.2 172,-367.2 10,-367.2"/>
<text text-anchor="start" x="30" y="-374.3" font-family="Helvetica,sans-Serif" font-size="11.00" fill="#000000">bloco</text>
<polygon fill="none" stroke="#000000" points="172,-367.2 172,-389.2 436,-389.2 436,-367.2 172,-367.2"/>
<text text-anchor="start" x="175" y="-374.9" font-family="Helvetica,sans-Serif" font-size="11.00" fill="#000000">varchar[6]</text>
<polygon fill="none" stroke="#000000" points="10,-345.2 10,-367.2 172,-367.2 172,-345.2 10,-345.2"/>
<text text-anchor="start" x="30" y="-352.3" font-family="Helvetica,sans-Serif" font-size="11.00" fill="#000000">apartamento</text>
<polygon fill="none" stroke="#000000" points="172,-345.2 172,-367.2 436,-367.2 436,-345.2 172,-345.2"/>
<text text-anchor="start" x="175" y="-352.9" font-family="Helvetica,sans-Serif" font-size="11.00" fill="#000000">varchar[8]</text>
<polygon fill="none" stroke="#000000" points="10,-323.2 10,-345.2 172,-345.2 172,-323.2 10,-323.2"/>
<text text-anchor="start" x="30" y="-330.3" font-family="Helvetica,sans-Serif" font-size="11.00" fill="#000000">loteamento</text>
<polygon fill="none" stroke="#000000" points="172,-323.2 172,-345.2 436,-345.2 436,-323.2 172,-323.2"/>
<text text-anchor="start" x="175" y="-330.9" font-family="Helvetica,sans-Serif" font-size="11.00" fill="#000000">varchar[50]</text>
<polygon fill="none" stroke="#000000" points="10,-301.2 10,-323.2 172,-323.2 172,-301.2 10,-301.2"/>
<text text-anchor="start" x="30" y="-308.3" font-family="Helvetica,sans-Serif" font-size="11.00" fill="#000000">bairro</text>
<polygon fill="none" stroke="#000000" points="172,-301.2 172,-323.2 436,-323.2 436,-301.2 172,-301.2"/>
<text text-anchor="start" x="175" y="-308.9" font-family="Helvetica,sans-Serif" font-size="11.00" fill="#000000">varchar[50]</text>
<polygon fill="none" stroke="#000000" points="10,-279.2 10,-301.2 172,-301.2 172,-279.2 10,-279.2"/>
<image xlink:href="../../images/foreignKeys.png" width="11px" height="12px" preserveAspectRatio="xMinYMin meet" x="15" y="-296.2"/>
<text text-anchor="start" x="30" y="-286.3" font-family="Helvetica,sans-Serif" font-size="11.00" fill="#000000">distrito_inep_origem_id</text>
<polygon fill="none" stroke="#000000" points="172,-279.2 172,-301.2 436,-301.2 436,-279.2 172,-279.2"/>
<text text-anchor="start" x="175" y="-286.9" font-family="Helvetica,sans-Serif" font-size="11.00" fill="#000000">int4[10]</text>
<polygon fill="none" stroke="#000000" points="10,-257.2 10,-279.2 172,-279.2 172,-257.2 10,-257.2"/>
<image xlink:href="../../images/foreignKeys.png" width="11px" height="12px" preserveAspectRatio="xMinYMin meet" x="15" y="-274.2"/>
<text text-anchor="start" x="30" y="-264.3" font-family="Helvetica,sans-Serif" font-size="11.00" fill="#000000">distrito_inep_cloud_id</text>
<polygon fill="none" stroke="#000000" points="172,-257.2 172,-279.2 436,-279.2 436,-257.2 172,-257.2"/>
<text text-anchor="start" x="175" y="-264.9" font-family="Helvetica,sans-Serif" font-size="11.00" fill="#000000">int4[10]</text>
<polygon fill="none" stroke="#000000" points="10,-235.2 10,-257.2 172,-257.2 172,-235.2 10,-235.2"/>
<image xlink:href="../../images/foreignKeys.png" width="11px" height="12px" preserveAspectRatio="xMinYMin meet" x="15" y="-252.2"/>
<text text-anchor="start" x="30" y="-242.3" font-family="Helvetica,sans-Serif" font-size="11.00" fill="#000000">municipio_origem_id</text>
<polygon fill="none" stroke="#000000" points="172,-235.2 172,-257.2 436,-257.2 436,-235.2 172,-235.2"/>
<text text-anchor="start" x="175" y="-242.9" font-family="Helvetica,sans-Serif" font-size="11.00" fill="#000000">int4[10]</text>
<polygon fill="none" stroke="#000000" points="10,-213.2 10,-235.2 172,-235.2 172,-213.2 10,-213.2"/>
<image xlink:href="../../images/foreignKeys.png" width="11px" height="12px" preserveAspectRatio="xMinYMin meet" x="15" y="-230.2"/>
<text text-anchor="start" x="30" y="-220.3" font-family="Helvetica,sans-Serif" font-size="11.00" fill="#000000">municipio_cloud_id</text>
<polygon fill="none" stroke="#000000" points="172,-213.2 172,-235.2 436,-235.2 436,-213.2 172,-213.2"/>
<text text-anchor="start" x="175" y="-220.9" font-family="Helvetica,sans-Serif" font-size="11.00" fill="#000000">int4[10]</text>
<polygon fill="none" stroke="#000000" points="10,-191.2 10,-213.2 172,-213.2 172,-191.2 10,-191.2"/>
<text text-anchor="start" x="30" y="-198.3" font-family="Helvetica,sans-Serif" font-size="11.00" fill="#000000">observacao</text>
<polygon fill="none" stroke="#000000" points="172,-191.2 172,-213.2 436,-213.2 436,-191.2 172,-191.2"/>
<text text-anchor="start" x="175" y="-198.9" font-family="Helvetica,sans-Serif" font-size="11.00" fill="#000000">varchar[60]</text>
<polygon fill="none" stroke="#000000" points="10,-169.2 10,-191.2 172,-191.2 172,-169.2 10,-169.2"/>
<image xlink:href="../../images/foreignKeys.png" width="11px" height="12px" preserveAspectRatio="xMinYMin meet" x="15" y="-186.2"/>
<text text-anchor="start" x="30" y="-176.3" font-family="Helvetica,sans-Serif" font-size="11.00" fill="#000000">estado_origem_id</text>
<polygon fill="none" stroke="#000000" points="172,-169.2 172,-191.2 436,-191.2 436,-169.2 172,-169.2"/>
<text text-anchor="start" x="175" y="-176.9" font-family="Helvetica,sans-Serif" font-size="11.00" fill="#000000">int4[10]</text>
<polygon fill="none" stroke="#000000" points="10,-147.2 10,-169.2 172,-169.2 172,-147.2 10,-147.2"/>
<image xlink:href="../../images/foreignKeys.png" width="11px" height="12px" preserveAspectRatio="xMinYMin meet" x="15" y="-164.2"/>
<text text-anchor="start" x="30" y="-154.3" font-family="Helvetica,sans-Serif" font-size="11.00" fill="#000000">estado_cloud_id</text>
<polygon fill="none" stroke="#000000" points="172,-147.2 172,-169.2 436,-169.2 436,-147.2 172,-147.2"/>
<text text-anchor="start" x="175" y="-154.9" font-family="Helvetica,sans-Serif" font-size="11.00" fill="#000000">int4[10]</text>
<polygon fill="none" stroke="#000000" points="10,-125.2 10,-147.2 172,-147.2 172,-125.2 10,-125.2"/>
<text text-anchor="start" x="30" y="-132.3" font-family="Helvetica,sans-Serif" font-size="11.00" fill="#000000">latitude</text>
<polygon fill="none" stroke="#000000" points="172,-125.2 172,-147.2 436,-147.2 436,-125.2 172,-125.2"/>
<text text-anchor="start" x="175" y="-132.9" font-family="Helvetica,sans-Serif" font-size="11.00" fill="#000000">float8[17,17]</text>
<polygon fill="none" stroke="#000000" points="10,-103.2 10,-125.2 172,-125.2 172,-103.2 10,-103.2"/>
<text text-anchor="start" x="30" y="-110.3" font-family="Helvetica,sans-Serif" font-size="11.00" fill="#000000">longitude</text>
<polygon fill="none" stroke="#000000" points="172,-103.2 172,-125.2 436,-125.2 436,-103.2 172,-103.2"/>
<text text-anchor="start" x="175" y="-110.9" font-family="Helvetica,sans-Serif" font-size="11.00" fill="#000000">float8[17,17]</text>
<polygon fill="none" stroke="#000000" points="10,-81.2 10,-103.2 172,-103.2 172,-81.2 10,-81.2"/>
<text text-anchor="start" x="30" y="-88.3" font-family="Helvetica,sans-Serif" font-size="11.00" fill="#000000">localizacao_zona</text>
<polygon fill="none" stroke="#000000" points="172,-81.2 172,-103.2 436,-103.2 436,-81.2 172,-81.2"/>
<text text-anchor="start" x="175" y="-88.9" font-family="Helvetica,sans-Serif" font-size="11.00" fill="#000000">&quot;educacao&quot;.&quot;localizacoes&quot;[2147483647]</text>
<polygon fill="none" stroke="#000000" points="10,-59.2 10,-81.2 172,-81.2 172,-59.2 10,-59.2"/>
<text text-anchor="start" x="30" y="-66.3" font-family="Helvetica,sans-Serif" font-size="11.00" fill="#000000">localizacao_diferenciada</text>
<polygon fill="none" stroke="#000000" points="172,-59.2 172,-81.2 436,-81.2 436,-59.2 172,-59.2"/>
<text text-anchor="start" x="174.5366" y="-66.9" font-family="Helvetica,sans-Serif" font-size="11.00" fill="#000000">&quot;educacao&quot;.&quot;localizacoesdiferenciadas&quot;[2147483647]</text>
<polygon fill="#ffffff" stroke="transparent" points="10,-40.2 10,-59.2 95,-59.2 95,-40.2 10,-40.2"/>
<polygon fill="none" stroke="#000000" points="10,-40.2 10,-59.2 95,-59.2 95,-40.2 10,-40.2"/>
<text text-anchor="start" x="13" y="-46.3" font-family="Helvetica,sans-Serif" font-size="11.00" fill="#000000">&lt; 0</text>
<polygon fill="#ffffff" stroke="transparent" points="95,-40.2 95,-59.2 172,-59.2 172,-40.2 95,-40.2"/>
<polygon fill="none" stroke="#000000" points="95,-40.2 95,-59.2 172,-59.2 172,-40.2 95,-40.2"/>
<text text-anchor="start" x="162.8862" y="-46.3" font-family="Helvetica,sans-Serif" font-size="11.00" fill="#000000"> &#160;</text>
<polygon fill="#ffffff" stroke="transparent" points="172,-40.2 172,-59.2 436,-59.2 436,-40.2 172,-40.2"/>
<polygon fill="none" stroke="#000000" points="172,-40.2 172,-59.2 436,-59.2 436,-40.2 172,-40.2"/>
<text text-anchor="start" x="417.4053" y="-46.3" font-family="Helvetica,sans-Serif" font-size="11.00" fill="#000000">0 &gt;</text>
<polygon fill="none" stroke="#000000" stroke-width="2" points="9,-39.2 9,-677.2 437,-677.2 437,-39.2 9,-39.2"/>
</a>
</g>
</g>
</g>
</svg>
