<?xml version="1.0" encoding="UTF-8" standalone="no"?>
<!DOCTYPE svg PUBLIC "-//W3C//DTD SVG 1.1//EN"
 "http://www.w3.org/Graphics/SVG/1.1/DTD/svg11.dtd">
<!-- Generated by graphviz version 2.40.1 (20161225.0304)
 -->
<!-- Title: oneDegreeRelationshipsDiagramImplied Pages: 1 -->
<svg width="732pt" height="690pt"
 viewBox="0.00 0.00 732.00 690.20" xmlns="http://www.w3.org/2000/svg" xmlns:xlink="http://www.w3.org/1999/xlink">
<g id="graph0" class="graph" transform="scale(1 1) rotate(0) translate(4 686.2)">
<title>oneDegreeRelationshipsDiagramImplied</title>
<polygon fill="#ffffff" stroke="transparent" points="-4,4 -4,-686.2 728,-686.2 728,4 -4,4"/>
<text text-anchor="middle" x="72.4936" y="-7.3" font-family="Helvetica,sans-Serif" font-size="11.00" fill="#000000">Generated by SchemaSpy</text>
<!-- enderecos -->
<g id="node1" class="node">
<title>enderecos</title>
<g id="a_node1"><a xlink:href="../../tables/enderecos.html" xlink:title="enderecos" target="_top">
<polygon fill="#ffffff" stroke="transparent" points="286,-38.2 286,-678.2 716,-678.2 716,-38.2 286,-38.2"/>
<polygon fill="#f5f5f5" stroke="transparent" points="288,-653.2 288,-676.2 714,-676.2 714,-653.2 288,-653.2"/>
<polygon fill="none" stroke="#000000" points="288,-653.2 288,-676.2 714,-676.2 714,-653.2 288,-653.2"/>
<text text-anchor="start" x="293" y="-661.8" font-family="Helvetica,sans-Serif" font-weight="bold" font-size="11.00" fill="#000000">enderecos</text>
<text text-anchor="start" x="679.0437" y="-661.3" font-family="Helvetica,sans-Serif" font-size="11.00" fill="#000000">[table]</text>
<polygon fill="none" stroke="#000000" points="288,-631.2 288,-653.2 450,-653.2 450,-631.2 288,-631.2"/>
<text text-anchor="start" x="308" y="-638.3" font-family="Helvetica,sans-Serif" font-size="11.00" fill="#000000">sistema</text>
<polygon fill="none" stroke="#000000" points="450,-631.2 450,-653.2 714,-653.2 714,-631.2 450,-631.2"/>
<text text-anchor="start" x="453" y="-638.9" font-family="Helvetica,sans-Serif" font-size="11.00" fill="#000000">int4[10]</text>
<polygon fill="none" stroke="#000000" points="288,-609.2 288,-631.2 450,-631.2 450,-609.2 288,-609.2"/>
<text text-anchor="start" x="308" y="-616.3" font-family="Helvetica,sans-Serif" font-size="11.00" fill="#000000">tipo_registro</text>
<polygon fill="none" stroke="#000000" points="450,-609.2 450,-631.2 714,-631.2 714,-609.2 450,-609.2"/>
<text text-anchor="start" x="453" y="-616.9" font-family="Helvetica,sans-Serif" font-size="11.00" fill="#000000">text[2147483647]</text>
<polygon fill="none" stroke="#000000" points="288,-587.2 288,-609.2 450,-609.2 450,-587.2 288,-587.2"/>
<text text-anchor="start" x="308" y="-594.3" font-family="Helvetica,sans-Serif" font-size="11.00" fill="#000000">id_integracao</text>
<polygon fill="none" stroke="#000000" points="450,-587.2 450,-609.2 714,-609.2 714,-587.2 450,-587.2"/>
<text text-anchor="start" x="453" y="-594.9" font-family="Helvetica,sans-Serif" font-size="11.00" fill="#000000">varchar[2147483647]</text>
<polygon fill="none" stroke="#000000" points="288,-565.2 288,-587.2 450,-587.2 450,-565.2 288,-565.2"/>
<text text-anchor="start" x="308" y="-572.3" font-family="Helvetica,sans-Serif" font-size="11.00" fill="#000000">id_origem</text>
<polygon fill="none" stroke="#000000" points="450,-565.2 450,-587.2 714,-587.2 714,-565.2 450,-565.2"/>
<text text-anchor="start" x="453" y="-572.9" font-family="Helvetica,sans-Serif" font-size="11.00" fill="#000000">int4[10]</text>
<polygon fill="none" stroke="#000000" points="288,-543.2 288,-565.2 450,-565.2 450,-543.2 288,-543.2"/>
<text text-anchor="start" x="308" y="-550.3" font-family="Helvetica,sans-Serif" font-size="11.00" fill="#000000">id_cloud</text>
<polygon fill="none" stroke="#000000" points="450,-543.2 450,-565.2 714,-565.2 714,-543.2 450,-543.2"/>
<text text-anchor="start" x="453" y="-550.9" font-family="Helvetica,sans-Serif" font-size="11.00" fill="#000000">int4[10]</text>
<polygon fill="none" stroke="#000000" points="288,-521.2 288,-543.2 450,-543.2 450,-521.2 288,-521.2"/>
<text text-anchor="start" x="308" y="-528.3" font-family="Helvetica,sans-Serif" font-size="11.00" fill="#000000">principal</text>
<polygon fill="none" stroke="#000000" points="450,-521.2 450,-543.2 714,-543.2 714,-521.2 450,-521.2"/>
<text text-anchor="start" x="453" y="-528.9" font-family="Helvetica,sans-Serif" font-size="11.00" fill="#000000">bool[1]</text>
<polygon fill="none" stroke="#000000" points="288,-499.2 288,-521.2 450,-521.2 450,-499.2 288,-499.2"/>
<text text-anchor="start" x="308" y="-506.3" font-family="Helvetica,sans-Serif" font-size="11.00" fill="#000000">descricao</text>
<polygon fill="none" stroke="#000000" points="450,-499.2 450,-521.2 714,-521.2 714,-499.2 450,-499.2"/>
<text text-anchor="start" x="453" y="-506.9" font-family="Helvetica,sans-Serif" font-size="11.00" fill="#000000">varchar[20]</text>
<polygon fill="none" stroke="#000000" points="288,-477.2 288,-499.2 450,-499.2 450,-477.2 288,-477.2"/>
<text text-anchor="start" x="308" y="-484.3" font-family="Helvetica,sans-Serif" font-size="11.00" fill="#000000">cep</text>
<polygon fill="none" stroke="#000000" points="450,-477.2 450,-499.2 714,-499.2 714,-477.2 450,-477.2"/>
<text text-anchor="start" x="453" y="-484.9" font-family="Helvetica,sans-Serif" font-size="11.00" fill="#000000">varchar[8]</text>
<polygon fill="none" stroke="#000000" points="288,-455.2 288,-477.2 450,-477.2 450,-455.2 288,-455.2"/>
<text text-anchor="start" x="308" y="-462.3" font-family="Helvetica,sans-Serif" font-size="11.00" fill="#000000">numero</text>
<polygon fill="none" stroke="#000000" points="450,-455.2 450,-477.2 714,-477.2 714,-455.2 450,-455.2"/>
<text text-anchor="start" x="453" y="-462.9" font-family="Helvetica,sans-Serif" font-size="11.00" fill="#000000">varchar[8]</text>
<polygon fill="none" stroke="#000000" points="288,-433.2 288,-455.2 450,-455.2 450,-433.2 288,-433.2"/>
<text text-anchor="start" x="308" y="-440.3" font-family="Helvetica,sans-Serif" font-size="11.00" fill="#000000">logradouro</text>
<polygon fill="none" stroke="#000000" points="450,-433.2 450,-455.2 714,-455.2 714,-433.2 450,-433.2"/>
<text text-anchor="start" x="453" y="-440.9" font-family="Helvetica,sans-Serif" font-size="11.00" fill="#000000">varchar[150]</text>
<polygon fill="none" stroke="#000000" points="288,-411.2 288,-433.2 450,-433.2 450,-411.2 288,-411.2"/>
<text text-anchor="start" x="308" y="-418.3" font-family="Helvetica,sans-Serif" font-size="11.00" fill="#000000">complemento</text>
<polygon fill="none" stroke="#000000" points="450,-411.2 450,-433.2 714,-433.2 714,-411.2 450,-411.2"/>
<text text-anchor="start" x="453" y="-418.9" font-family="Helvetica,sans-Serif" font-size="11.00" fill="#000000">varchar[60]</text>
<polygon fill="none" stroke="#000000" points="288,-389.2 288,-411.2 450,-411.2 450,-389.2 288,-389.2"/>
<text text-anchor="start" x="308" y="-396.3" font-family="Helvetica,sans-Serif" font-size="11.00" fill="#000000">condominio</text>
<polygon fill="none" stroke="#000000" points="450,-389.2 450,-411.2 714,-411.2 714,-389.2 450,-389.2"/>
<text text-anchor="start" x="453" y="-396.9" font-family="Helvetica,sans-Serif" font-size="11.00" fill="#000000">varchar[50]</text>
<polygon fill="none" stroke="#000000" points="288,-367.2 288,-389.2 450,-389.2 450,-367.2 288,-367.2"/>
<text text-anchor="start" x="308" y="-374.3" font-family="Helvetica,sans-Serif" font-size="11.00" fill="#000000">bloco</text>
<polygon fill="none" stroke="#000000" points="450,-367.2 450,-389.2 714,-389.2 714,-367.2 450,-367.2"/>
<text text-anchor="start" x="453" y="-374.9" font-family="Helvetica,sans-Serif" font-size="11.00" fill="#000000">varchar[6]</text>
<polygon fill="none" stroke="#000000" points="288,-345.2 288,-367.2 450,-367.2 450,-345.2 288,-345.2"/>
<text text-anchor="start" x="308" y="-352.3" font-family="Helvetica,sans-Serif" font-size="11.00" fill="#000000">apartamento</text>
<polygon fill="none" stroke="#000000" points="450,-345.2 450,-367.2 714,-367.2 714,-345.2 450,-345.2"/>
<text text-anchor="start" x="453" y="-352.9" font-family="Helvetica,sans-Serif" font-size="11.00" fill="#000000">varchar[8]</text>
<polygon fill="none" stroke="#000000" points="288,-323.2 288,-345.2 450,-345.2 450,-323.2 288,-323.2"/>
<text text-anchor="start" x="308" y="-330.3" font-family="Helvetica,sans-Serif" font-size="11.00" fill="#000000">loteamento</text>
<polygon fill="none" stroke="#000000" points="450,-323.2 450,-345.2 714,-345.2 714,-323.2 450,-323.2"/>
<text text-anchor="start" x="453" y="-330.9" font-family="Helvetica,sans-Serif" font-size="11.00" fill="#000000">varchar[50]</text>
<polygon fill="none" stroke="#000000" points="288,-301.2 288,-323.2 450,-323.2 450,-301.2 288,-301.2"/>
<text text-anchor="start" x="308" y="-308.3" font-family="Helvetica,sans-Serif" font-size="11.00" fill="#000000">bairro</text>
<polygon fill="none" stroke="#000000" points="450,-301.2 450,-323.2 714,-323.2 714,-301.2 450,-301.2"/>
<text text-anchor="start" x="453" y="-308.9" font-family="Helvetica,sans-Serif" font-size="11.00" fill="#000000">varchar[50]</text>
<polygon fill="none" stroke="#000000" points="288,-279.2 288,-301.2 450,-301.2 450,-279.2 288,-279.2"/>
<image xlink:href="../../images/foreignKeys.png" width="11px" height="12px" preserveAspectRatio="xMinYMin meet" x="293" y="-296.2"/>
<text text-anchor="start" x="308" y="-286.3" font-family="Helvetica,sans-Serif" font-size="11.00" fill="#000000">distrito_inep_origem_id</text>
<polygon fill="none" stroke="#000000" points="450,-279.2 450,-301.2 714,-301.2 714,-279.2 450,-279.2"/>
<text text-anchor="start" x="453" y="-286.9" font-family="Helvetica,sans-Serif" font-size="11.00" fill="#000000">int4[10]</text>
<polygon fill="none" stroke="#000000" points="288,-257.2 288,-279.2 450,-279.2 450,-257.2 288,-257.2"/>
<image xlink:href="../../images/foreignKeys.png" width="11px" height="12px" preserveAspectRatio="xMinYMin meet" x="293" y="-274.2"/>
<text text-anchor="start" x="308" y="-264.3" font-family="Helvetica,sans-Serif" font-size="11.00" fill="#000000">distrito_inep_cloud_id</text>
<polygon fill="none" stroke="#000000" points="450,-257.2 450,-279.2 714,-279.2 714,-257.2 450,-257.2"/>
<text text-anchor="start" x="453" y="-264.9" font-family="Helvetica,sans-Serif" font-size="11.00" fill="#000000">int4[10]</text>
<polygon fill="none" stroke="#000000" points="288,-235.2 288,-257.2 450,-257.2 450,-235.2 288,-235.2"/>
<image xlink:href="../../images/foreignKeys.png" width="11px" height="12px" preserveAspectRatio="xMinYMin meet" x="293" y="-252.2"/>
<text text-anchor="start" x="308" y="-242.3" font-family="Helvetica,sans-Serif" font-size="11.00" fill="#000000">municipio_origem_id</text>
<polygon fill="none" stroke="#000000" points="450,-235.2 450,-257.2 714,-257.2 714,-235.2 450,-235.2"/>
<text text-anchor="start" x="453" y="-242.9" font-family="Helvetica,sans-Serif" font-size="11.00" fill="#000000">int4[10]</text>
<polygon fill="none" stroke="#000000" points="288,-213.2 288,-235.2 450,-235.2 450,-213.2 288,-213.2"/>
<image xlink:href="../../images/foreignKeys.png" width="11px" height="12px" preserveAspectRatio="xMinYMin meet" x="293" y="-230.2"/>
<text text-anchor="start" x="308" y="-220.3" font-family="Helvetica,sans-Serif" font-size="11.00" fill="#000000">municipio_cloud_id</text>
<polygon fill="none" stroke="#000000" points="450,-213.2 450,-235.2 714,-235.2 714,-213.2 450,-213.2"/>
<text text-anchor="start" x="453" y="-220.9" font-family="Helvetica,sans-Serif" font-size="11.00" fill="#000000">int4[10]</text>
<polygon fill="none" stroke="#000000" points="288,-191.2 288,-213.2 450,-213.2 450,-191.2 288,-191.2"/>
<text text-anchor="start" x="308" y="-198.3" font-family="Helvetica,sans-Serif" font-size="11.00" fill="#000000">observacao</text>
<polygon fill="none" stroke="#000000" points="450,-191.2 450,-213.2 714,-213.2 714,-191.2 450,-191.2"/>
<text text-anchor="start" x="453" y="-198.9" font-family="Helvetica,sans-Serif" font-size="11.00" fill="#000000">varchar[60]</text>
<polygon fill="none" stroke="#000000" points="288,-169.2 288,-191.2 450,-191.2 450,-169.2 288,-169.2"/>
<image xlink:href="../../images/foreignKeys.png" width="11px" height="12px" preserveAspectRatio="xMinYMin meet" x="293" y="-186.2"/>
<text text-anchor="start" x="308" y="-176.3" font-family="Helvetica,sans-Serif" font-size="11.00" fill="#000000">estado_origem_id</text>
<polygon fill="none" stroke="#000000" points="450,-169.2 450,-191.2 714,-191.2 714,-169.2 450,-169.2"/>
<text text-anchor="start" x="453" y="-176.9" font-family="Helvetica,sans-Serif" font-size="11.00" fill="#000000">int4[10]</text>
<polygon fill="none" stroke="#000000" points="288,-147.2 288,-169.2 450,-169.2 450,-147.2 288,-147.2"/>
<image xlink:href="../../images/foreignKeys.png" width="11px" height="12px" preserveAspectRatio="xMinYMin meet" x="293" y="-164.2"/>
<text text-anchor="start" x="308" y="-154.3" font-family="Helvetica,sans-Serif" font-size="11.00" fill="#000000">estado_cloud_id</text>
<polygon fill="none" stroke="#000000" points="450,-147.2 450,-169.2 714,-169.2 714,-147.2 450,-147.2"/>
<text text-anchor="start" x="453" y="-154.9" font-family="Helvetica,sans-Serif" font-size="11.00" fill="#000000">int4[10]</text>
<polygon fill="none" stroke="#000000" points="288,-125.2 288,-147.2 450,-147.2 450,-125.2 288,-125.2"/>
<text text-anchor="start" x="308" y="-132.3" font-family="Helvetica,sans-Serif" font-size="11.00" fill="#000000">latitude</text>
<polygon fill="none" stroke="#000000" points="450,-125.2 450,-147.2 714,-147.2 714,-125.2 450,-125.2"/>
<text text-anchor="start" x="453" y="-132.9" font-family="Helvetica,sans-Serif" font-size="11.00" fill="#000000">float8[17,17]</text>
<polygon fill="none" stroke="#000000" points="288,-103.2 288,-125.2 450,-125.2 450,-103.2 288,-103.2"/>
<text text-anchor="start" x="308" y="-110.3" font-family="Helvetica,sans-Serif" font-size="11.00" fill="#000000">longitude</text>
<polygon fill="none" stroke="#000000" points="450,-103.2 450,-125.2 714,-125.2 714,-103.2 450,-103.2"/>
<text text-anchor="start" x="453" y="-110.9" font-family="Helvetica,sans-Serif" font-size="11.00" fill="#000000">float8[17,17]</text>
<polygon fill="none" stroke="#000000" points="288,-81.2 288,-103.2 450,-103.2 450,-81.2 288,-81.2"/>
<text text-anchor="start" x="308" y="-88.3" font-family="Helvetica,sans-Serif" font-size="11.00" fill="#000000">localizacao_zona</text>
<polygon fill="none" stroke="#000000" points="450,-81.2 450,-103.2 714,-103.2 714,-81.2 450,-81.2"/>
<text text-anchor="start" x="453" y="-88.9" font-family="Helvetica,sans-Serif" font-size="11.00" fill="#000000">&quot;educacao&quot;.&quot;localizacoes&quot;[2147483647]</text>
<polygon fill="none" stroke="#000000" points="288,-59.2 288,-81.2 450,-81.2 450,-59.2 288,-59.2"/>
<text text-anchor="start" x="308" y="-66.3" font-family="Helvetica,sans-Serif" font-size="11.00" fill="#000000">localizacao_diferenciada</text>
<polygon fill="none" stroke="#000000" points="450,-59.2 450,-81.2 714,-81.2 714,-59.2 450,-59.2"/>
<text text-anchor="start" x="452.5366" y="-66.9" font-family="Helvetica,sans-Serif" font-size="11.00" fill="#000000">&quot;educacao&quot;.&quot;localizacoesdiferenciadas&quot;[2147483647]</text>
<polygon fill="#ffffff" stroke="transparent" points="288,-40.2 288,-59.2 373,-59.2 373,-40.2 288,-40.2"/>
<polygon fill="none" stroke="#000000" points="288,-40.2 288,-59.2 373,-59.2 373,-40.2 288,-40.2"/>
<text text-anchor="start" x="291" y="-46.3" font-family="Helvetica,sans-Serif" font-size="11.00" fill="#000000">&lt; 6</text>
<polygon fill="#ffffff" stroke="transparent" points="373,-40.2 373,-59.2 450,-59.2 450,-40.2 373,-40.2"/>
<polygon fill="none" stroke="#000000" points="373,-40.2 373,-59.2 450,-59.2 450,-40.2 373,-40.2"/>
<text text-anchor="start" x="440.8862" y="-46.3" font-family="Helvetica,sans-Serif" font-size="11.00" fill="#000000"> &#160;</text>
<polygon fill="#ffffff" stroke="transparent" points="450,-40.2 450,-59.2 714,-59.2 714,-40.2 450,-40.2"/>
<polygon fill="none" stroke="#000000" points="450,-40.2 450,-59.2 714,-59.2 714,-40.2 450,-40.2"/>
<text text-anchor="start" x="695.4053" y="-46.3" font-family="Helvetica,sans-Serif" font-size="11.00" fill="#000000">0 &gt;</text>
<polygon fill="none" stroke="#000000" stroke-width="2" points="287,-39.2 287,-677.2 715,-677.2 715,-39.2 287,-39.2"/>
</a>
</g>
</g>
<!-- inscricao_lista_espera_situacoes -->
<g id="node2" class="node">
<title>inscricao_lista_espera_situacoes</title>
<g id="a_node2"><a xlink:href="../../tables/inscricao_lista_espera_situacoes.html" xlink:title="inscricao_lista_espera_situacoes" target="_top">
<polygon fill="#ffffff" stroke="transparent" points="8,-186.7 8,-269.7 237,-269.7 237,-186.7 8,-186.7"/>
<polygon fill="#f5f5f5" stroke="transparent" points="8.5,-246.2 8.5,-269.2 237.5,-269.2 237.5,-246.2 8.5,-246.2"/>
<polygon fill="none" stroke="#000000" points="8.5,-246.2 8.5,-269.2 237.5,-269.2 237.5,-246.2 8.5,-246.2"/>
<text text-anchor="start" x="13.5" y="-254.8" font-family="Helvetica,sans-Serif" font-weight="bold" font-size="11.00" fill="#000000">inscricao_lista_espera_situacoes</text>
<text text-anchor="start" x="203.0219" y="-254.3" font-family="Helvetica,sans-Serif" font-size="11.00" fill="#000000">[table]</text>
<polygon fill="none" stroke="#000000" points="8.5,-224.2 8.5,-246.2 237.5,-246.2 237.5,-224.2 8.5,-224.2"/>
<image xlink:href="../../images/primaryKeys.png" width="11px" height="12px" preserveAspectRatio="xMinYMin meet" x="13.5" y="-241.2"/>
<text text-anchor="start" x="37.5" y="-231.3" font-family="Helvetica,sans-Serif" font-size="11.00" fill="#000000">id</text>
<polygon fill="none" stroke="#000000" points="8.5,-205.2 8.5,-224.2 237.5,-224.2 237.5,-205.2 8.5,-205.2"/>
<text text-anchor="start" x="11.5" y="-211.3" font-family="Helvetica,sans-Serif" font-size="11.00" fill="#000000">...</text>
<polygon fill="#ffffff" stroke="transparent" points="8.5,-186.2 8.5,-205.2 106.5,-205.2 106.5,-186.2 8.5,-186.2"/>
<polygon fill="none" stroke="#000000" points="8.5,-186.2 8.5,-205.2 106.5,-205.2 106.5,-186.2 8.5,-186.2"/>
<text text-anchor="start" x="11.5" y="-192.3" font-family="Helvetica,sans-Serif" font-size="11.00" fill="#000000"> &#160;</text>
<polygon fill="#ffffff" stroke="transparent" points="106.5,-186.2 106.5,-205.2 161.5,-205.2 161.5,-186.2 106.5,-186.2"/>
<polygon fill="none" stroke="#000000" points="106.5,-186.2 106.5,-205.2 161.5,-205.2 161.5,-186.2 106.5,-186.2"/>
<text text-anchor="start" x="152.3862" y="-192.3" font-family="Helvetica,sans-Serif" font-size="11.00" fill="#000000"> &#160;</text>
<polygon fill="#ffffff" stroke="transparent" points="161.5,-186.2 161.5,-205.2 237.5,-205.2 237.5,-186.2 161.5,-186.2"/>
<polygon fill="none" stroke="#000000" points="161.5,-186.2 161.5,-205.2 237.5,-205.2 237.5,-186.2 161.5,-186.2"/>
<text text-anchor="start" x="206.6755" y="-192.3" font-family="Helvetica,sans-Serif" font-size="11.00" fill="#000000">596 &gt;</text>
</a>
</g>
</g>
<!-- enderecos&#45;&gt;inscricao_lista_espera_situacoes -->
<g id="edge1" class="edge">
<title>enderecos:w&#45;&gt;inscricao_lista_espera_situacoes:e</title>
<path fill="none" stroke="#000000" stroke-dasharray="5,2" d="M274.0755,-264.1536C261.1224,-255.3416 258.4466,-235.2 237.5,-235.2"/>
<polygon fill="#000000" stroke="#000000" points="280.3178,-265.9675 286.9954,-271.657 284.1589,-267.0838 288,-268.2 288,-268.2 288,-268.2 284.1589,-267.0838 289.0046,-264.743 280.3178,-265.9675 280.3178,-265.9675"/>
<ellipse fill="none" stroke="#000000" cx="277.2449" cy="-265.0745" rx="3.2" ry="3.2"/>
</g>
<!-- enderecos&#45;&gt;inscricao_lista_espera_situacoes -->
<g id="edge2" class="edge">
<title>enderecos:w&#45;&gt;inscricao_lista_espera_situacoes:e</title>
<path fill="none" stroke="#000000" stroke-dasharray="5,2" d="M274.2934,-285.5107C258.9342,-272.2102 264.7226,-235.2 237.5,-235.2"/>
<polygon fill="#000000" stroke="#000000" points="280.4307,-287.6104 286.8347,-293.6062 284.2154,-288.9052 288,-290.2 288,-290.2 288,-290.2 284.2154,-288.9052 289.1653,-286.7938 280.4307,-287.6104 280.4307,-287.6104"/>
<ellipse fill="none" stroke="#000000" cx="277.403" cy="-286.5745" rx="3.2" ry="3.2"/>
</g>
<!-- enderecos&#45;&gt;inscricao_lista_espera_situacoes -->
<g id="edge3" class="edge">
<title>enderecos:w&#45;&gt;inscricao_lista_espera_situacoes:e</title>
<path fill="none" stroke="#000000" stroke-dasharray="5,2" d="M274.0801,-162.7861C254.7892,-179.3628 272.3508,-235.2 237.5,-235.2"/>
<polygon fill="#000000" stroke="#000000" points="280.4018,-160.7034 289.1265,-161.6192 284.2009,-159.4517 288,-158.2 288,-158.2 288,-158.2 284.2009,-159.4517 286.8735,-154.7808 280.4018,-160.7034 280.4018,-160.7034"/>
<ellipse fill="none" stroke="#000000" cx="277.3625" cy="-161.7047" rx="3.2" ry="3.2"/>
</g>
<!-- enderecos&#45;&gt;inscricao_lista_espera_situacoes -->
<g id="edge4" class="edge">
<title>enderecos:w&#45;&gt;inscricao_lista_espera_situacoes:e</title>
<path fill="none" stroke="#000000" stroke-dasharray="5,2" d="M274.2934,-184.8893C258.9342,-198.1898 264.7226,-235.2 237.5,-235.2"/>
<polygon fill="#000000" stroke="#000000" points="280.4307,-182.7896 289.1653,-183.6062 284.2154,-181.4948 288,-180.2 288,-180.2 288,-180.2 284.2154,-181.4948 286.8347,-176.7938 280.4307,-182.7896 280.4307,-182.7896"/>
<ellipse fill="none" stroke="#000000" cx="277.403" cy="-183.8255" rx="3.2" ry="3.2"/>
</g>
<!-- enderecos&#45;&gt;inscricao_lista_espera_situacoes -->
<g id="edge5" class="edge">
<title>enderecos:w&#45;&gt;inscricao_lista_espera_situacoes:e</title>
<path fill="none" stroke="#000000" stroke-dasharray="5,2" d="M273.6489,-225.9188C261.5992,-229.0125 254.728,-235.2 237.5,-235.2"/>
<polygon fill="#000000" stroke="#000000" points="280.0568,-225.1514 288.4281,-227.7745 284.0284,-224.6757 288,-224.2 288,-224.2 288,-224.2 284.0284,-224.6757 287.5719,-220.6255 280.0568,-225.1514 280.0568,-225.1514"/>
<ellipse fill="none" stroke="#000000" cx="276.8795" cy="-225.5319" rx="3.2" ry="3.2"/>
</g>
<!-- enderecos&#45;&gt;inscricao_lista_espera_situacoes -->
<g id="edge6" class="edge">
<title>enderecos:w&#45;&gt;inscricao_lista_espera_situacoes:e</title>
<path fill="none" stroke="#000000" stroke-dasharray="5,2" d="M273.6489,-244.4813C261.5992,-241.3875 254.728,-235.2 237.5,-235.2"/>
<polygon fill="#000000" stroke="#000000" points="280.0568,-245.2486 287.5719,-249.7745 284.0284,-245.7243 288,-246.2 288,-246.2 288,-246.2 284.0284,-245.7243 288.4281,-242.6255 280.0568,-245.2486 280.0568,-245.2486"/>
<ellipse fill="none" stroke="#000000" cx="276.8795" cy="-244.8681" rx="3.2" ry="3.2"/>
</g>
</g>
</svg>
