<?xml version="1.0" encoding="UTF-8" standalone="no"?>
<!DOCTYPE svg PUBLIC "-//W3C//DTD SVG 1.1//EN"
 "http://www.w3.org/Graphics/SVG/1.1/DTD/svg11.dtd">
<!-- Generated by graphviz version 2.40.1 (20161225.0304)
 -->
<!-- Title: oneDegreeRelationshipsDiagramImplied Pages: 1 -->
<svg width="705pt" height="492pt"
 viewBox="0.00 0.00 705.00 492.20" xmlns="http://www.w3.org/2000/svg" xmlns:xlink="http://www.w3.org/1999/xlink">
<g id="graph0" class="graph" transform="scale(1 1) rotate(0) translate(4 488.2)">
<title>oneDegreeRelationshipsDiagramImplied</title>
<polygon fill="#ffffff" stroke="transparent" points="-4,4 -4,-488.2 701,-488.2 701,4 -4,4"/>
<text text-anchor="middle" x="72.4936" y="-7.3" font-family="Helvetica,sans-Serif" font-size="11.00" fill="#000000">Generated by SchemaSpy</text>
<!-- enturmacoes -->
<g id="node1" class="node">
<title>enturmacoes</title>
<g id="a_node1"><a xlink:href="../../tables/enturmacoes.html" xlink:title="enturmacoes" target="_top">
<polygon fill="#ffffff" stroke="transparent" points="286,-38.2 286,-480.2 689,-480.2 689,-38.2 286,-38.2"/>
<polygon fill="#f5f5f5" stroke="transparent" points="288.5,-455.2 288.5,-478.2 687.5,-478.2 687.5,-455.2 288.5,-455.2"/>
<polygon fill="none" stroke="#000000" points="288.5,-455.2 288.5,-478.2 687.5,-478.2 687.5,-455.2 288.5,-455.2"/>
<text text-anchor="start" x="293.5" y="-463.8" font-family="Helvetica,sans-Serif" font-weight="bold" font-size="11.00" fill="#000000">enturmacoes</text>
<text text-anchor="start" x="652.5437" y="-463.3" font-family="Helvetica,sans-Serif" font-size="11.00" fill="#000000">[table]</text>
<polygon fill="none" stroke="#000000" points="288.5,-433.2 288.5,-455.2 467.5,-455.2 467.5,-433.2 288.5,-433.2"/>
<text text-anchor="start" x="308.5" y="-440.3" font-family="Helvetica,sans-Serif" font-size="11.00" fill="#000000">sistema</text>
<polygon fill="none" stroke="#000000" points="467.5,-433.2 467.5,-455.2 687.5,-455.2 687.5,-433.2 467.5,-433.2"/>
<text text-anchor="start" x="470.5" y="-440.9" font-family="Helvetica,sans-Serif" font-size="11.00" fill="#000000">int4[10]</text>
<polygon fill="none" stroke="#000000" points="288.5,-411.2 288.5,-433.2 467.5,-433.2 467.5,-411.2 288.5,-411.2"/>
<text text-anchor="start" x="308.5" y="-418.3" font-family="Helvetica,sans-Serif" font-size="11.00" fill="#000000">tipo_registro</text>
<polygon fill="none" stroke="#000000" points="467.5,-411.2 467.5,-433.2 687.5,-433.2 687.5,-411.2 467.5,-411.2"/>
<text text-anchor="start" x="470.5" y="-418.9" font-family="Helvetica,sans-Serif" font-size="11.00" fill="#000000">text[2147483647]</text>
<polygon fill="none" stroke="#000000" points="288.5,-389.2 288.5,-411.2 467.5,-411.2 467.5,-389.2 288.5,-389.2"/>
<text text-anchor="start" x="308.5" y="-396.3" font-family="Helvetica,sans-Serif" font-size="11.00" fill="#000000">id_integracao</text>
<polygon fill="none" stroke="#000000" points="467.5,-389.2 467.5,-411.2 687.5,-411.2 687.5,-389.2 467.5,-389.2"/>
<text text-anchor="start" x="470.5" y="-396.9" font-family="Helvetica,sans-Serif" font-size="11.00" fill="#000000">varchar[2147483647]</text>
<polygon fill="none" stroke="#000000" points="288.5,-367.2 288.5,-389.2 467.5,-389.2 467.5,-367.2 288.5,-367.2"/>
<text text-anchor="start" x="308.5" y="-374.3" font-family="Helvetica,sans-Serif" font-size="11.00" fill="#000000">id_origem</text>
<polygon fill="none" stroke="#000000" points="467.5,-367.2 467.5,-389.2 687.5,-389.2 687.5,-367.2 467.5,-367.2"/>
<text text-anchor="start" x="470.5" y="-374.9" font-family="Helvetica,sans-Serif" font-size="11.00" fill="#000000">int4[10]</text>
<polygon fill="none" stroke="#000000" points="288.5,-345.2 288.5,-367.2 467.5,-367.2 467.5,-345.2 288.5,-345.2"/>
<text text-anchor="start" x="308.5" y="-352.3" font-family="Helvetica,sans-Serif" font-size="11.00" fill="#000000">id_cloud</text>
<polygon fill="none" stroke="#000000" points="467.5,-345.2 467.5,-367.2 687.5,-367.2 687.5,-345.2 467.5,-345.2"/>
<text text-anchor="start" x="470.5" y="-352.9" font-family="Helvetica,sans-Serif" font-size="11.00" fill="#000000">int4[10]</text>
<polygon fill="none" stroke="#000000" points="288.5,-323.2 288.5,-345.2 467.5,-345.2 467.5,-323.2 288.5,-323.2"/>
<image xlink:href="../../images/foreignKeys.png" width="11px" height="12px" preserveAspectRatio="xMinYMin meet" x="293.5" y="-340.2"/>
<text text-anchor="start" x="308.5" y="-330.3" font-family="Helvetica,sans-Serif" font-size="11.00" fill="#000000">ano_letivo_origem_id</text>
<polygon fill="none" stroke="#000000" points="467.5,-323.2 467.5,-345.2 687.5,-345.2 687.5,-323.2 467.5,-323.2"/>
<text text-anchor="start" x="470.5" y="-330.9" font-family="Helvetica,sans-Serif" font-size="11.00" fill="#000000">int4[10]</text>
<polygon fill="none" stroke="#000000" points="288.5,-301.2 288.5,-323.2 467.5,-323.2 467.5,-301.2 288.5,-301.2"/>
<image xlink:href="../../images/foreignKeys.png" width="11px" height="12px" preserveAspectRatio="xMinYMin meet" x="293.5" y="-318.2"/>
<text text-anchor="start" x="308.5" y="-308.3" font-family="Helvetica,sans-Serif" font-size="11.00" fill="#000000">ano_letivo_cloud_id</text>
<polygon fill="none" stroke="#000000" points="467.5,-301.2 467.5,-323.2 687.5,-323.2 687.5,-301.2 467.5,-301.2"/>
<text text-anchor="start" x="470.5" y="-308.9" font-family="Helvetica,sans-Serif" font-size="11.00" fill="#000000">int4[10]</text>
<polygon fill="none" stroke="#000000" points="288.5,-279.2 288.5,-301.2 467.5,-301.2 467.5,-279.2 288.5,-279.2"/>
<image xlink:href="../../images/foreignKeys.png" width="11px" height="12px" preserveAspectRatio="xMinYMin meet" x="293.5" y="-296.2"/>
<text text-anchor="start" x="308.5" y="-286.3" font-family="Helvetica,sans-Serif" font-size="11.00" fill="#000000">estabelecimento_origem_id</text>
<polygon fill="none" stroke="#000000" points="467.5,-279.2 467.5,-301.2 687.5,-301.2 687.5,-279.2 467.5,-279.2"/>
<text text-anchor="start" x="470.5" y="-286.9" font-family="Helvetica,sans-Serif" font-size="11.00" fill="#000000">int4[10]</text>
<polygon fill="none" stroke="#000000" points="288.5,-257.2 288.5,-279.2 467.5,-279.2 467.5,-257.2 288.5,-257.2"/>
<image xlink:href="../../images/foreignKeys.png" width="11px" height="12px" preserveAspectRatio="xMinYMin meet" x="293.5" y="-274.2"/>
<text text-anchor="start" x="308.5" y="-264.3" font-family="Helvetica,sans-Serif" font-size="11.00" fill="#000000">estabelecimento_cloud_id</text>
<polygon fill="none" stroke="#000000" points="467.5,-257.2 467.5,-279.2 687.5,-279.2 687.5,-257.2 467.5,-257.2"/>
<text text-anchor="start" x="470.5" y="-264.9" font-family="Helvetica,sans-Serif" font-size="11.00" fill="#000000">int4[10]</text>
<polygon fill="none" stroke="#000000" points="288.5,-235.2 288.5,-257.2 467.5,-257.2 467.5,-235.2 288.5,-235.2"/>
<image xlink:href="../../images/foreignKeys.png" width="11px" height="12px" preserveAspectRatio="xMinYMin meet" x="293.5" y="-252.2"/>
<text text-anchor="start" x="308.5" y="-242.3" font-family="Helvetica,sans-Serif" font-size="11.00" fill="#000000">turma_origem_id</text>
<polygon fill="none" stroke="#000000" points="467.5,-235.2 467.5,-257.2 687.5,-257.2 687.5,-235.2 467.5,-235.2"/>
<text text-anchor="start" x="470.5" y="-242.9" font-family="Helvetica,sans-Serif" font-size="11.00" fill="#000000">int4[10]</text>
<polygon fill="none" stroke="#000000" points="288.5,-213.2 288.5,-235.2 467.5,-235.2 467.5,-213.2 288.5,-213.2"/>
<image xlink:href="../../images/foreignKeys.png" width="11px" height="12px" preserveAspectRatio="xMinYMin meet" x="293.5" y="-230.2"/>
<text text-anchor="start" x="308.5" y="-220.3" font-family="Helvetica,sans-Serif" font-size="11.00" fill="#000000">turma_cloud_id</text>
<polygon fill="none" stroke="#000000" points="467.5,-213.2 467.5,-235.2 687.5,-235.2 687.5,-213.2 467.5,-213.2"/>
<text text-anchor="start" x="470.5" y="-220.9" font-family="Helvetica,sans-Serif" font-size="11.00" fill="#000000">int4[10]</text>
<polygon fill="none" stroke="#000000" points="288.5,-191.2 288.5,-213.2 467.5,-213.2 467.5,-191.2 288.5,-191.2"/>
<image xlink:href="../../images/foreignKeys.png" width="11px" height="12px" preserveAspectRatio="xMinYMin meet" x="293.5" y="-208.2"/>
<text text-anchor="start" x="308.5" y="-198.3" font-family="Helvetica,sans-Serif" font-size="11.00" fill="#000000">matricula_origem_id</text>
<polygon fill="none" stroke="#000000" points="467.5,-191.2 467.5,-213.2 687.5,-213.2 687.5,-191.2 467.5,-191.2"/>
<text text-anchor="start" x="470.5" y="-198.9" font-family="Helvetica,sans-Serif" font-size="11.00" fill="#000000">int4[10]</text>
<polygon fill="none" stroke="#000000" points="288.5,-169.2 288.5,-191.2 467.5,-191.2 467.5,-169.2 288.5,-169.2"/>
<image xlink:href="../../images/foreignKeys.png" width="11px" height="12px" preserveAspectRatio="xMinYMin meet" x="293.5" y="-186.2"/>
<text text-anchor="start" x="308.5" y="-176.3" font-family="Helvetica,sans-Serif" font-size="11.00" fill="#000000">matricula_cloud_id</text>
<polygon fill="none" stroke="#000000" points="467.5,-169.2 467.5,-191.2 687.5,-191.2 687.5,-169.2 467.5,-169.2"/>
<text text-anchor="start" x="470.5" y="-176.9" font-family="Helvetica,sans-Serif" font-size="11.00" fill="#000000">int4[10]</text>
<polygon fill="none" stroke="#000000" points="288.5,-147.2 288.5,-169.2 467.5,-169.2 467.5,-147.2 288.5,-147.2"/>
<image xlink:href="../../images/foreignKeys.png" width="11px" height="12px" preserveAspectRatio="xMinYMin meet" x="293.5" y="-164.2"/>
<text text-anchor="start" x="308.5" y="-154.3" font-family="Helvetica,sans-Serif" font-size="11.00" fill="#000000">grupo_id</text>
<polygon fill="none" stroke="#000000" points="467.5,-147.2 467.5,-169.2 687.5,-169.2 687.5,-147.2 467.5,-147.2"/>
<text text-anchor="start" x="470.5" y="-154.9" font-family="Helvetica,sans-Serif" font-size="11.00" fill="#000000">int4[10]</text>
<polygon fill="none" stroke="#000000" points="288.5,-125.2 288.5,-147.2 467.5,-147.2 467.5,-125.2 288.5,-125.2"/>
<text text-anchor="start" x="308.5" y="-132.3" font-family="Helvetica,sans-Serif" font-size="11.00" fill="#000000">tipo</text>
<polygon fill="none" stroke="#000000" points="467.5,-125.2 467.5,-147.2 687.5,-147.2 687.5,-125.2 467.5,-125.2"/>
<text text-anchor="start" x="470.0388" y="-132.9" font-family="Helvetica,sans-Serif" font-size="11.00" fill="#000000">&quot;educacao&quot;.&quot;tiposenturmacao&quot;[2147483647]</text>
<polygon fill="none" stroke="#000000" points="288.5,-103.2 288.5,-125.2 467.5,-125.2 467.5,-103.2 288.5,-103.2"/>
<text text-anchor="start" x="308.5" y="-110.3" font-family="Helvetica,sans-Serif" font-size="11.00" fill="#000000">numero_chamada</text>
<polygon fill="none" stroke="#000000" points="467.5,-103.2 467.5,-125.2 687.5,-125.2 687.5,-103.2 467.5,-103.2"/>
<text text-anchor="start" x="470.5" y="-110.9" font-family="Helvetica,sans-Serif" font-size="11.00" fill="#000000">int4[10]</text>
<polygon fill="none" stroke="#000000" points="288.5,-81.2 288.5,-103.2 467.5,-103.2 467.5,-81.2 288.5,-81.2"/>
<text text-anchor="start" x="308.5" y="-88.3" font-family="Helvetica,sans-Serif" font-size="11.00" fill="#000000">data_inicio</text>
<polygon fill="none" stroke="#000000" points="467.5,-81.2 467.5,-103.2 687.5,-103.2 687.5,-81.2 467.5,-81.2"/>
<text text-anchor="start" x="470.5" y="-88.9" font-family="Helvetica,sans-Serif" font-size="11.00" fill="#000000">date[13]</text>
<polygon fill="none" stroke="#000000" points="288.5,-59.2 288.5,-81.2 467.5,-81.2 467.5,-59.2 288.5,-59.2"/>
<text text-anchor="start" x="308.5" y="-66.3" font-family="Helvetica,sans-Serif" font-size="11.00" fill="#000000">data_fim</text>
<polygon fill="none" stroke="#000000" points="467.5,-59.2 467.5,-81.2 687.5,-81.2 687.5,-59.2 467.5,-59.2"/>
<text text-anchor="start" x="470.5" y="-66.9" font-family="Helvetica,sans-Serif" font-size="11.00" fill="#000000">date[13]</text>
<polygon fill="#ffffff" stroke="transparent" points="288.5,-40.2 288.5,-59.2 382.5,-59.2 382.5,-40.2 288.5,-40.2"/>
<polygon fill="none" stroke="#000000" points="288.5,-40.2 288.5,-59.2 382.5,-59.2 382.5,-40.2 288.5,-40.2"/>
<text text-anchor="start" x="291.5" y="-46.3" font-family="Helvetica,sans-Serif" font-size="11.00" fill="#000000">&lt; 9</text>
<polygon fill="#ffffff" stroke="transparent" points="382.5,-40.2 382.5,-59.2 467.5,-59.2 467.5,-40.2 382.5,-40.2"/>
<polygon fill="none" stroke="#000000" points="382.5,-40.2 382.5,-59.2 467.5,-59.2 467.5,-40.2 382.5,-40.2"/>
<text text-anchor="start" x="458.3862" y="-46.3" font-family="Helvetica,sans-Serif" font-size="11.00" fill="#000000"> &#160;</text>
<polygon fill="#ffffff" stroke="transparent" points="467.5,-40.2 467.5,-59.2 687.5,-59.2 687.5,-40.2 467.5,-40.2"/>
<polygon fill="none" stroke="#000000" points="467.5,-40.2 467.5,-59.2 687.5,-59.2 687.5,-40.2 467.5,-40.2"/>
<text text-anchor="start" x="668.9053" y="-46.3" font-family="Helvetica,sans-Serif" font-size="11.00" fill="#000000">0 &gt;</text>
<polygon fill="none" stroke="#000000" stroke-width="2" points="287,-39.2 287,-479.2 688,-479.2 688,-39.2 287,-39.2"/>
</a>
</g>
</g>
<!-- inscricao_lista_espera_situacoes -->
<g id="node2" class="node">
<title>inscricao_lista_espera_situacoes</title>
<g id="a_node2"><a xlink:href="../../tables/inscricao_lista_espera_situacoes.html" xlink:title="inscricao_lista_espera_situacoes" target="_top">
<polygon fill="#ffffff" stroke="transparent" points="8,-197.7 8,-280.7 237,-280.7 237,-197.7 8,-197.7"/>
<polygon fill="#f5f5f5" stroke="transparent" points="8.5,-257.2 8.5,-280.2 237.5,-280.2 237.5,-257.2 8.5,-257.2"/>
<polygon fill="none" stroke="#000000" points="8.5,-257.2 8.5,-280.2 237.5,-280.2 237.5,-257.2 8.5,-257.2"/>
<text text-anchor="start" x="13.5" y="-265.8" font-family="Helvetica,sans-Serif" font-weight="bold" font-size="11.00" fill="#000000">inscricao_lista_espera_situacoes</text>
<text text-anchor="start" x="203.0219" y="-265.3" font-family="Helvetica,sans-Serif" font-size="11.00" fill="#000000">[table]</text>
<polygon fill="none" stroke="#000000" points="8.5,-235.2 8.5,-257.2 237.5,-257.2 237.5,-235.2 8.5,-235.2"/>
<image xlink:href="../../images/primaryKeys.png" width="11px" height="12px" preserveAspectRatio="xMinYMin meet" x="13.5" y="-252.2"/>
<text text-anchor="start" x="37.5" y="-242.3" font-family="Helvetica,sans-Serif" font-size="11.00" fill="#000000">id</text>
<polygon fill="none" stroke="#000000" points="8.5,-216.2 8.5,-235.2 237.5,-235.2 237.5,-216.2 8.5,-216.2"/>
<text text-anchor="start" x="11.5" y="-222.3" font-family="Helvetica,sans-Serif" font-size="11.00" fill="#000000">...</text>
<polygon fill="#ffffff" stroke="transparent" points="8.5,-197.2 8.5,-216.2 106.5,-216.2 106.5,-197.2 8.5,-197.2"/>
<polygon fill="none" stroke="#000000" points="8.5,-197.2 8.5,-216.2 106.5,-216.2 106.5,-197.2 8.5,-197.2"/>
<text text-anchor="start" x="11.5" y="-203.3" font-family="Helvetica,sans-Serif" font-size="11.00" fill="#000000"> &#160;</text>
<polygon fill="#ffffff" stroke="transparent" points="106.5,-197.2 106.5,-216.2 161.5,-216.2 161.5,-197.2 106.5,-197.2"/>
<polygon fill="none" stroke="#000000" points="106.5,-197.2 106.5,-216.2 161.5,-216.2 161.5,-197.2 106.5,-197.2"/>
<text text-anchor="start" x="152.3862" y="-203.3" font-family="Helvetica,sans-Serif" font-size="11.00" fill="#000000"> &#160;</text>
<polygon fill="#ffffff" stroke="transparent" points="161.5,-197.2 161.5,-216.2 237.5,-216.2 237.5,-197.2 161.5,-197.2"/>
<polygon fill="none" stroke="#000000" points="161.5,-197.2 161.5,-216.2 237.5,-216.2 237.5,-197.2 161.5,-197.2"/>
<text text-anchor="start" x="206.6755" y="-203.3" font-family="Helvetica,sans-Serif" font-size="11.00" fill="#000000">596 &gt;</text>
</a>
</g>
</g>
<!-- enturmacoes&#45;&gt;inscricao_lista_espera_situacoes -->
<g id="edge1" class="edge">
<title>enturmacoes:w&#45;&gt;inscricao_lista_espera_situacoes:e</title>
<path fill="none" stroke="#000000" stroke-dasharray="5,2" d="M274.5846,-307.4534C257.402,-292.3202 268.4886,-246.2 237.5,-246.2"/>
<polygon fill="#000000" stroke="#000000" points="280.9284,-309.6173 287.3378,-315.6072 284.7142,-310.9086 288.5,-312.2 288.5,-312.2 288.5,-312.2 284.7142,-310.9086 289.6622,-308.7928 280.9284,-309.6173 280.9284,-309.6173"/>
<ellipse fill="none" stroke="#000000" cx="277.8997" cy="-308.5842" rx="3.2" ry="3.2"/>
</g>
<!-- enturmacoes&#45;&gt;inscricao_lista_espera_situacoes -->
<g id="edge2" class="edge">
<title>enturmacoes:w&#45;&gt;inscricao_lista_espera_situacoes:e</title>
<path fill="none" stroke="#000000" stroke-dasharray="5,2" d="M274.5699,-329.9556C252.2709,-312.3772 276.7009,-246.2 237.5,-246.2"/>
<polygon fill="#000000" stroke="#000000" points="280.8473,-331.8682 287.4507,-337.6437 284.6737,-333.0341 288.5,-334.2 288.5,-334.2 288.5,-334.2 284.6737,-333.0341 289.5493,-330.7563 280.8473,-331.8682 280.8473,-331.8682"/>
<ellipse fill="none" stroke="#000000" cx="277.7863" cy="-330.9355" rx="3.2" ry="3.2"/>
</g>
<!-- enturmacoes&#45;&gt;inscricao_lista_espera_situacoes -->
<g id="edge3" class="edge">
<title>enturmacoes:w&#45;&gt;inscricao_lista_espera_situacoes:e</title>
<path fill="none" stroke="#000000" stroke-dasharray="5,2" d="M274.3489,-265.141C261.7843,-259.096 256.4,-246.2 237.5,-246.2"/>
<polygon fill="#000000" stroke="#000000" points="280.6806,-266.5097 287.7393,-271.7187 284.5903,-267.3548 288.5,-268.2 288.5,-268.2 288.5,-268.2 284.5903,-267.3548 289.2607,-264.6813 280.6806,-266.5097 280.6806,-266.5097"/>
<ellipse fill="none" stroke="#000000" cx="277.5528" cy="-265.8335" rx="3.2" ry="3.2"/>
</g>
<!-- enturmacoes&#45;&gt;inscricao_lista_espera_situacoes -->
<g id="edge4" class="edge">
<title>enturmacoes:w&#45;&gt;inscricao_lista_espera_situacoes:e</title>
<path fill="none" stroke="#000000" stroke-dasharray="5,2" d="M274.4107,-285.4912C260.5669,-274.1404 261.3557,-246.2 237.5,-246.2"/>
<polygon fill="#000000" stroke="#000000" points="280.9125,-287.6642 287.3589,-293.6144 284.7063,-288.9321 288.5,-290.2 288.5,-290.2 288.5,-290.2 284.7063,-288.9321 289.6411,-286.7856 280.9125,-287.6642 280.9125,-287.6642"/>
<ellipse fill="none" stroke="#000000" cx="277.8775" cy="-286.6498" rx="3.2" ry="3.2"/>
</g>
<!-- enturmacoes&#45;&gt;inscricao_lista_espera_situacoes -->
<g id="edge5" class="edge">
<title>enturmacoes:w&#45;&gt;inscricao_lista_espera_situacoes:e</title>
<path fill="none" stroke="#000000" stroke-dasharray="5,2" d="M274.5699,-162.4444C252.2709,-180.0228 276.7009,-246.2 237.5,-246.2"/>
<polygon fill="#000000" stroke="#000000" points="280.8473,-160.5318 289.5493,-161.6437 284.6737,-159.3659 288.5,-158.2 288.5,-158.2 288.5,-158.2 284.6737,-159.3659 287.4507,-154.7563 280.8473,-160.5318 280.8473,-160.5318"/>
<ellipse fill="none" stroke="#000000" cx="277.7863" cy="-161.4645" rx="3.2" ry="3.2"/>
</g>
<!-- enturmacoes&#45;&gt;inscricao_lista_espera_situacoes -->
<g id="edge6" class="edge">
<title>enturmacoes:w&#45;&gt;inscricao_lista_espera_situacoes:e</title>
<path fill="none" stroke="#000000" stroke-dasharray="5,2" d="M274.5846,-184.9466C257.402,-200.0798 268.4886,-246.2 237.5,-246.2"/>
<polygon fill="#000000" stroke="#000000" points="280.9284,-182.7827 289.6622,-183.6072 284.7142,-181.4914 288.5,-180.2 288.5,-180.2 288.5,-180.2 284.7142,-181.4914 287.3378,-176.7928 280.9284,-182.7827 280.9284,-182.7827"/>
<ellipse fill="none" stroke="#000000" cx="277.8997" cy="-183.8158" rx="3.2" ry="3.2"/>
</g>
<!-- enturmacoes&#45;&gt;inscricao_lista_espera_situacoes -->
<g id="edge7" class="edge">
<title>enturmacoes:w&#45;&gt;inscricao_lista_espera_situacoes:e</title>
<path fill="none" stroke="#000000" stroke-dasharray="5,2" d="M274.4107,-206.9088C260.5669,-218.2596 261.3557,-246.2 237.5,-246.2"/>
<polygon fill="#000000" stroke="#000000" points="280.9125,-204.7358 289.6411,-205.6144 284.7063,-203.4679 288.5,-202.2 288.5,-202.2 288.5,-202.2 284.7063,-203.4679 287.3589,-198.7856 280.9125,-204.7358 280.9125,-204.7358"/>
<ellipse fill="none" stroke="#000000" cx="277.8775" cy="-205.7502" rx="3.2" ry="3.2"/>
</g>
<!-- enturmacoes&#45;&gt;inscricao_lista_espera_situacoes -->
<g id="edge8" class="edge">
<title>enturmacoes:w&#45;&gt;inscricao_lista_espera_situacoes:e</title>
<path fill="none" stroke="#000000" stroke-dasharray="5,2" d="M274.3489,-227.259C261.7843,-233.304 256.4,-246.2 237.5,-246.2"/>
<polygon fill="#000000" stroke="#000000" points="280.6806,-225.8903 289.2607,-227.7187 284.5903,-225.0452 288.5,-224.2 288.5,-224.2 288.5,-224.2 284.5903,-225.0452 287.7393,-220.6813 280.6806,-225.8903 280.6806,-225.8903"/>
<ellipse fill="none" stroke="#000000" cx="277.5528" cy="-226.5665" rx="3.2" ry="3.2"/>
</g>
<!-- enturmacoes&#45;&gt;inscricao_lista_espera_situacoes -->
<g id="edge9" class="edge">
<title>enturmacoes:w&#45;&gt;inscricao_lista_espera_situacoes:e</title>
<path fill="none" stroke="#000000" stroke-dasharray="5,2" d="M273.776,-246.2C261.7815,-246.2 254.3229,-246.2 237.5,-246.2"/>
<polygon fill="#000000" stroke="#000000" points="280.5,-246.2001 288.5,-249.8 284.5,-246.2 288.5,-246.2 288.5,-246.2 288.5,-246.2 284.5,-246.2 288.5,-242.6 280.5,-246.2001 280.5,-246.2001"/>
<ellipse fill="none" stroke="#000000" cx="277.3" cy="-246.2001" rx="3.2" ry="3.2"/>
</g>
</g>
</svg>
