<?xml version="1.0" encoding="UTF-8" standalone="no"?>
<!DOCTYPE svg PUBLIC "-//W3C//DTD SVG 1.1//EN"
 "http://www.w3.org/Graphics/SVG/1.1/DTD/svg11.dtd">
<!-- Generated by graphviz version 2.40.1 (20161225.0304)
 -->
<!-- Title: oneDegreeRelationshipsDiagramImplied Pages: 1 -->
<svg width="776pt" height="492pt"
 viewBox="0.00 0.00 776.00 492.20" xmlns="http://www.w3.org/2000/svg" xmlns:xlink="http://www.w3.org/1999/xlink">
<g id="graph0" class="graph" transform="scale(1 1) rotate(0) translate(4 488.2)">
<title>oneDegreeRelationshipsDiagramImplied</title>
<polygon fill="#ffffff" stroke="transparent" points="-4,4 -4,-488.2 772,-488.2 772,4 -4,4"/>
<text text-anchor="middle" x="72.4936" y="-7.3" font-family="Helvetica,sans-Serif" font-size="11.00" fill="#000000">Generated by SchemaSpy</text>
<!-- enturmacoes_funcionarios -->
<g id="node1" class="node">
<title>enturmacoes_funcionarios</title>
<g id="a_node1"><a xlink:href="../../tables/enturmacoes_funcionarios.html" xlink:title="enturmacoes_funcionarios" target="_top">
<polygon fill="#ffffff" stroke="transparent" points="286,-38.2 286,-480.2 760,-480.2 760,-38.2 286,-38.2"/>
<polygon fill="#f5f5f5" stroke="transparent" points="288,-455.2 288,-478.2 758,-478.2 758,-455.2 288,-455.2"/>
<polygon fill="none" stroke="#000000" points="288,-455.2 288,-478.2 758,-478.2 758,-455.2 288,-455.2"/>
<text text-anchor="start" x="293" y="-463.8" font-family="Helvetica,sans-Serif" font-weight="bold" font-size="11.00" fill="#000000">enturmacoes_funcionarios</text>
<text text-anchor="start" x="723.0437" y="-463.3" font-family="Helvetica,sans-Serif" font-size="11.00" fill="#000000">[table]</text>
<polygon fill="none" stroke="#000000" points="288,-433.2 288,-455.2 473,-455.2 473,-433.2 288,-433.2"/>
<text text-anchor="start" x="308" y="-440.3" font-family="Helvetica,sans-Serif" font-size="11.00" fill="#000000">sistema</text>
<polygon fill="none" stroke="#000000" points="473,-433.2 473,-455.2 758,-455.2 758,-433.2 473,-433.2"/>
<text text-anchor="start" x="476" y="-440.9" font-family="Helvetica,sans-Serif" font-size="11.00" fill="#000000">int4[10]</text>
<polygon fill="none" stroke="#000000" points="288,-411.2 288,-433.2 473,-433.2 473,-411.2 288,-411.2"/>
<text text-anchor="start" x="308" y="-418.3" font-family="Helvetica,sans-Serif" font-size="11.00" fill="#000000">tipo_registro</text>
<polygon fill="none" stroke="#000000" points="473,-411.2 473,-433.2 758,-433.2 758,-411.2 473,-411.2"/>
<text text-anchor="start" x="476" y="-418.9" font-family="Helvetica,sans-Serif" font-size="11.00" fill="#000000">text[2147483647]</text>
<polygon fill="none" stroke="#000000" points="288,-389.2 288,-411.2 473,-411.2 473,-389.2 288,-389.2"/>
<text text-anchor="start" x="308" y="-396.3" font-family="Helvetica,sans-Serif" font-size="11.00" fill="#000000">id_integracao</text>
<polygon fill="none" stroke="#000000" points="473,-389.2 473,-411.2 758,-411.2 758,-389.2 473,-389.2"/>
<text text-anchor="start" x="476" y="-396.9" font-family="Helvetica,sans-Serif" font-size="11.00" fill="#000000">varchar[2147483647]</text>
<polygon fill="none" stroke="#000000" points="288,-367.2 288,-389.2 473,-389.2 473,-367.2 288,-367.2"/>
<text text-anchor="start" x="308" y="-374.3" font-family="Helvetica,sans-Serif" font-size="11.00" fill="#000000">id_origem</text>
<polygon fill="none" stroke="#000000" points="473,-367.2 473,-389.2 758,-389.2 758,-367.2 473,-367.2"/>
<text text-anchor="start" x="476" y="-374.9" font-family="Helvetica,sans-Serif" font-size="11.00" fill="#000000">int4[10]</text>
<polygon fill="none" stroke="#000000" points="288,-345.2 288,-367.2 473,-367.2 473,-345.2 288,-345.2"/>
<text text-anchor="start" x="308" y="-352.3" font-family="Helvetica,sans-Serif" font-size="11.00" fill="#000000">id_cloud</text>
<polygon fill="none" stroke="#000000" points="473,-345.2 473,-367.2 758,-367.2 758,-345.2 473,-345.2"/>
<text text-anchor="start" x="476" y="-352.9" font-family="Helvetica,sans-Serif" font-size="11.00" fill="#000000">int4[10]</text>
<polygon fill="none" stroke="#000000" points="288,-323.2 288,-345.2 473,-345.2 473,-323.2 288,-323.2"/>
<text text-anchor="start" x="308" y="-330.3" font-family="Helvetica,sans-Serif" font-size="11.00" fill="#000000">tipo</text>
<polygon fill="none" stroke="#000000" points="473,-323.2 473,-345.2 758,-345.2 758,-323.2 473,-323.2"/>
<text text-anchor="start" x="475.6438" y="-330.9" font-family="Helvetica,sans-Serif" font-size="11.00" fill="#000000">&quot;educacao&quot;.&quot;tiposenturmacoesfuncionarios&quot;[2147483647]</text>
<polygon fill="none" stroke="#000000" points="288,-301.2 288,-323.2 473,-323.2 473,-301.2 288,-301.2"/>
<text text-anchor="start" x="308" y="-308.3" font-family="Helvetica,sans-Serif" font-size="11.00" fill="#000000">tipo_regente</text>
<polygon fill="none" stroke="#000000" points="473,-301.2 473,-323.2 758,-323.2 758,-301.2 473,-301.2"/>
<text text-anchor="start" x="476" y="-308.9" font-family="Helvetica,sans-Serif" font-size="11.00" fill="#000000">&quot;educacao&quot;.&quot;tiposregente&quot;[2147483647]</text>
<polygon fill="none" stroke="#000000" points="288,-279.2 288,-301.2 473,-301.2 473,-279.2 288,-279.2"/>
<text text-anchor="start" x="308" y="-286.3" font-family="Helvetica,sans-Serif" font-size="11.00" fill="#000000">data_enturmacao</text>
<polygon fill="none" stroke="#000000" points="473,-279.2 473,-301.2 758,-301.2 758,-279.2 473,-279.2"/>
<text text-anchor="start" x="476" y="-286.9" font-family="Helvetica,sans-Serif" font-size="11.00" fill="#000000">date[13]</text>
<polygon fill="none" stroke="#000000" points="288,-257.2 288,-279.2 473,-279.2 473,-257.2 288,-257.2"/>
<text text-anchor="start" x="308" y="-264.3" font-family="Helvetica,sans-Serif" font-size="11.00" fill="#000000">data_encerramento</text>
<polygon fill="none" stroke="#000000" points="473,-257.2 473,-279.2 758,-279.2 758,-257.2 473,-257.2"/>
<text text-anchor="start" x="476" y="-264.9" font-family="Helvetica,sans-Serif" font-size="11.00" fill="#000000">date[13]</text>
<polygon fill="none" stroke="#000000" points="288,-235.2 288,-257.2 473,-257.2 473,-235.2 288,-235.2"/>
<text text-anchor="start" x="308" y="-242.3" font-family="Helvetica,sans-Serif" font-size="11.00" fill="#000000">motivo_encerramento</text>
<polygon fill="none" stroke="#000000" points="473,-235.2 473,-257.2 758,-257.2 758,-235.2 473,-235.2"/>
<text text-anchor="start" x="476" y="-242.9" font-family="Helvetica,sans-Serif" font-size="11.00" fill="#000000">varchar[2147483647]</text>
<polygon fill="none" stroke="#000000" points="288,-213.2 288,-235.2 473,-235.2 473,-213.2 288,-213.2"/>
<image xlink:href="../../images/foreignKeys.png" width="11px" height="12px" preserveAspectRatio="xMinYMin meet" x="293" y="-230.2"/>
<text text-anchor="start" x="308" y="-220.3" font-family="Helvetica,sans-Serif" font-size="11.00" fill="#000000">item_educacional_origem_id</text>
<polygon fill="none" stroke="#000000" points="473,-213.2 473,-235.2 758,-235.2 758,-213.2 473,-213.2"/>
<text text-anchor="start" x="476" y="-220.9" font-family="Helvetica,sans-Serif" font-size="11.00" fill="#000000">int4[10]</text>
<polygon fill="none" stroke="#000000" points="288,-191.2 288,-213.2 473,-213.2 473,-191.2 288,-191.2"/>
<image xlink:href="../../images/foreignKeys.png" width="11px" height="12px" preserveAspectRatio="xMinYMin meet" x="293" y="-208.2"/>
<text text-anchor="start" x="308" y="-198.3" font-family="Helvetica,sans-Serif" font-size="11.00" fill="#000000">item_educacional_cloud_id</text>
<polygon fill="none" stroke="#000000" points="473,-191.2 473,-213.2 758,-213.2 758,-191.2 473,-191.2"/>
<text text-anchor="start" x="476" y="-198.9" font-family="Helvetica,sans-Serif" font-size="11.00" fill="#000000">int4[10]</text>
<polygon fill="none" stroke="#000000" points="288,-169.2 288,-191.2 473,-191.2 473,-169.2 288,-169.2"/>
<image xlink:href="../../images/foreignKeys.png" width="11px" height="12px" preserveAspectRatio="xMinYMin meet" x="293" y="-186.2"/>
<text text-anchor="start" x="308" y="-176.3" font-family="Helvetica,sans-Serif" font-size="11.00" fill="#000000">estabelecimento_origem_id</text>
<polygon fill="none" stroke="#000000" points="473,-169.2 473,-191.2 758,-191.2 758,-169.2 473,-169.2"/>
<text text-anchor="start" x="476" y="-176.9" font-family="Helvetica,sans-Serif" font-size="11.00" fill="#000000">int4[10]</text>
<polygon fill="none" stroke="#000000" points="288,-147.2 288,-169.2 473,-169.2 473,-147.2 288,-147.2"/>
<image xlink:href="../../images/foreignKeys.png" width="11px" height="12px" preserveAspectRatio="xMinYMin meet" x="293" y="-164.2"/>
<text text-anchor="start" x="308" y="-154.3" font-family="Helvetica,sans-Serif" font-size="11.00" fill="#000000">estabelecimento_cloud_id</text>
<polygon fill="none" stroke="#000000" points="473,-147.2 473,-169.2 758,-169.2 758,-147.2 473,-147.2"/>
<text text-anchor="start" x="476" y="-154.9" font-family="Helvetica,sans-Serif" font-size="11.00" fill="#000000">int4[10]</text>
<polygon fill="none" stroke="#000000" points="288,-125.2 288,-147.2 473,-147.2 473,-125.2 288,-125.2"/>
<image xlink:href="../../images/foreignKeys.png" width="11px" height="12px" preserveAspectRatio="xMinYMin meet" x="293" y="-142.2"/>
<text text-anchor="start" x="308" y="-132.3" font-family="Helvetica,sans-Serif" font-size="11.00" fill="#000000">ano_letivo_origem_id</text>
<polygon fill="none" stroke="#000000" points="473,-125.2 473,-147.2 758,-147.2 758,-125.2 473,-125.2"/>
<text text-anchor="start" x="476" y="-132.9" font-family="Helvetica,sans-Serif" font-size="11.00" fill="#000000">int4[10]</text>
<polygon fill="none" stroke="#000000" points="288,-103.2 288,-125.2 473,-125.2 473,-103.2 288,-103.2"/>
<image xlink:href="../../images/foreignKeys.png" width="11px" height="12px" preserveAspectRatio="xMinYMin meet" x="293" y="-120.2"/>
<text text-anchor="start" x="308" y="-110.3" font-family="Helvetica,sans-Serif" font-size="11.00" fill="#000000">ano_letivo_cloud_id</text>
<polygon fill="none" stroke="#000000" points="473,-103.2 473,-125.2 758,-125.2 758,-103.2 473,-103.2"/>
<text text-anchor="start" x="476" y="-110.9" font-family="Helvetica,sans-Serif" font-size="11.00" fill="#000000">int4[10]</text>
<polygon fill="none" stroke="#000000" points="288,-81.2 288,-103.2 473,-103.2 473,-81.2 288,-81.2"/>
<image xlink:href="../../images/foreignKeys.png" width="11px" height="12px" preserveAspectRatio="xMinYMin meet" x="293" y="-98.2"/>
<text text-anchor="start" x="308" y="-88.3" font-family="Helvetica,sans-Serif" font-size="11.00" fill="#000000">professor_origem_id</text>
<polygon fill="none" stroke="#000000" points="473,-81.2 473,-103.2 758,-103.2 758,-81.2 473,-81.2"/>
<text text-anchor="start" x="476" y="-88.9" font-family="Helvetica,sans-Serif" font-size="11.00" fill="#000000">int4[10]</text>
<polygon fill="none" stroke="#000000" points="288,-59.2 288,-81.2 473,-81.2 473,-59.2 288,-59.2"/>
<image xlink:href="../../images/foreignKeys.png" width="11px" height="12px" preserveAspectRatio="xMinYMin meet" x="293" y="-76.2"/>
<text text-anchor="start" x="308" y="-66.3" font-family="Helvetica,sans-Serif" font-size="11.00" fill="#000000">professor_cloud_id</text>
<polygon fill="none" stroke="#000000" points="473,-59.2 473,-81.2 758,-81.2 758,-59.2 473,-59.2"/>
<text text-anchor="start" x="476" y="-66.9" font-family="Helvetica,sans-Serif" font-size="11.00" fill="#000000">int4[10]</text>
<polygon fill="#ffffff" stroke="transparent" points="288,-40.2 288,-59.2 385,-59.2 385,-40.2 288,-40.2"/>
<polygon fill="none" stroke="#000000" points="288,-40.2 288,-59.2 385,-59.2 385,-40.2 288,-40.2"/>
<text text-anchor="start" x="291" y="-46.3" font-family="Helvetica,sans-Serif" font-size="11.00" fill="#000000">&lt; 8</text>
<polygon fill="#ffffff" stroke="transparent" points="385,-40.2 385,-59.2 473,-59.2 473,-40.2 385,-40.2"/>
<polygon fill="none" stroke="#000000" points="385,-40.2 385,-59.2 473,-59.2 473,-40.2 385,-40.2"/>
<text text-anchor="start" x="463.8862" y="-46.3" font-family="Helvetica,sans-Serif" font-size="11.00" fill="#000000"> &#160;</text>
<polygon fill="#ffffff" stroke="transparent" points="473,-40.2 473,-59.2 758,-59.2 758,-40.2 473,-40.2"/>
<polygon fill="none" stroke="#000000" points="473,-40.2 473,-59.2 758,-59.2 758,-40.2 473,-40.2"/>
<text text-anchor="start" x="739.4053" y="-46.3" font-family="Helvetica,sans-Serif" font-size="11.00" fill="#000000">0 &gt;</text>
<polygon fill="none" stroke="#000000" stroke-width="2" points="287,-39.2 287,-479.2 759,-479.2 759,-39.2 287,-39.2"/>
</a>
</g>
</g>
<!-- inscricao_lista_espera_situacoes -->
<g id="node2" class="node">
<title>inscricao_lista_espera_situacoes</title>
<g id="a_node2"><a xlink:href="../../tables/inscricao_lista_espera_situacoes.html" xlink:title="inscricao_lista_espera_situacoes" target="_top">
<polygon fill="#ffffff" stroke="transparent" points="8,-98.7 8,-181.7 237,-181.7 237,-98.7 8,-98.7"/>
<polygon fill="#f5f5f5" stroke="transparent" points="8.5,-158.2 8.5,-181.2 237.5,-181.2 237.5,-158.2 8.5,-158.2"/>
<polygon fill="none" stroke="#000000" points="8.5,-158.2 8.5,-181.2 237.5,-181.2 237.5,-158.2 8.5,-158.2"/>
<text text-anchor="start" x="13.5" y="-166.8" font-family="Helvetica,sans-Serif" font-weight="bold" font-size="11.00" fill="#000000">inscricao_lista_espera_situacoes</text>
<text text-anchor="start" x="203.0219" y="-166.3" font-family="Helvetica,sans-Serif" font-size="11.00" fill="#000000">[table]</text>
<polygon fill="none" stroke="#000000" points="8.5,-136.2 8.5,-158.2 237.5,-158.2 237.5,-136.2 8.5,-136.2"/>
<image xlink:href="../../images/primaryKeys.png" width="11px" height="12px" preserveAspectRatio="xMinYMin meet" x="13.5" y="-153.2"/>
<text text-anchor="start" x="37.5" y="-143.3" font-family="Helvetica,sans-Serif" font-size="11.00" fill="#000000">id</text>
<polygon fill="none" stroke="#000000" points="8.5,-117.2 8.5,-136.2 237.5,-136.2 237.5,-117.2 8.5,-117.2"/>
<text text-anchor="start" x="11.5" y="-123.3" font-family="Helvetica,sans-Serif" font-size="11.00" fill="#000000">...</text>
<polygon fill="#ffffff" stroke="transparent" points="8.5,-98.2 8.5,-117.2 106.5,-117.2 106.5,-98.2 8.5,-98.2"/>
<polygon fill="none" stroke="#000000" points="8.5,-98.2 8.5,-117.2 106.5,-117.2 106.5,-98.2 8.5,-98.2"/>
<text text-anchor="start" x="11.5" y="-104.3" font-family="Helvetica,sans-Serif" font-size="11.00" fill="#000000"> &#160;</text>
<polygon fill="#ffffff" stroke="transparent" points="106.5,-98.2 106.5,-117.2 161.5,-117.2 161.5,-98.2 106.5,-98.2"/>
<polygon fill="none" stroke="#000000" points="106.5,-98.2 106.5,-117.2 161.5,-117.2 161.5,-98.2 106.5,-98.2"/>
<text text-anchor="start" x="152.3862" y="-104.3" font-family="Helvetica,sans-Serif" font-size="11.00" fill="#000000"> &#160;</text>
<polygon fill="#ffffff" stroke="transparent" points="161.5,-98.2 161.5,-117.2 237.5,-117.2 237.5,-98.2 161.5,-98.2"/>
<polygon fill="none" stroke="#000000" points="161.5,-98.2 161.5,-117.2 237.5,-117.2 237.5,-98.2 161.5,-98.2"/>
<text text-anchor="start" x="206.6755" y="-104.3" font-family="Helvetica,sans-Serif" font-size="11.00" fill="#000000">596 &gt;</text>
</a>
</g>
</g>
<!-- enturmacoes_funcionarios&#45;&gt;inscricao_lista_espera_situacoes -->
<g id="edge1" class="edge">
<title>enturmacoes_funcionarios:w&#45;&gt;inscricao_lista_espera_situacoes:e</title>
<path fill="none" stroke="#000000" stroke-dasharray="5,2" d="M274.0755,-118.2464C261.1224,-127.0584 258.4466,-147.2 237.5,-147.2"/>
<polygon fill="#000000" stroke="#000000" points="280.3178,-116.4325 289.0046,-117.657 284.1589,-115.3162 288,-114.2 288,-114.2 288,-114.2 284.1589,-115.3162 286.9954,-110.743 280.3178,-116.4325 280.3178,-116.4325"/>
<ellipse fill="none" stroke="#000000" cx="277.2449" cy="-117.3255" rx="3.2" ry="3.2"/>
</g>
<!-- enturmacoes_funcionarios&#45;&gt;inscricao_lista_espera_situacoes -->
<g id="edge2" class="edge">
<title>enturmacoes_funcionarios:w&#45;&gt;inscricao_lista_espera_situacoes:e</title>
<path fill="none" stroke="#000000" stroke-dasharray="5,2" d="M273.6489,-137.9188C261.5992,-141.0125 254.728,-147.2 237.5,-147.2"/>
<polygon fill="#000000" stroke="#000000" points="280.0568,-137.1514 288.4281,-139.7745 284.0284,-136.6757 288,-136.2 288,-136.2 288,-136.2 284.0284,-136.6757 287.5719,-132.6255 280.0568,-137.1514 280.0568,-137.1514"/>
<ellipse fill="none" stroke="#000000" cx="276.8795" cy="-137.5319" rx="3.2" ry="3.2"/>
</g>
<!-- enturmacoes_funcionarios&#45;&gt;inscricao_lista_espera_situacoes -->
<g id="edge3" class="edge">
<title>enturmacoes_funcionarios:w&#45;&gt;inscricao_lista_espera_situacoes:e</title>
<path fill="none" stroke="#000000" stroke-dasharray="5,2" d="M273.6489,-156.4813C261.5992,-153.3875 254.728,-147.2 237.5,-147.2"/>
<polygon fill="#000000" stroke="#000000" points="280.0568,-157.2486 287.5719,-161.7745 284.0284,-157.7243 288,-158.2 288,-158.2 288,-158.2 284.0284,-157.7243 288.4281,-154.6255 280.0568,-157.2486 280.0568,-157.2486"/>
<ellipse fill="none" stroke="#000000" cx="276.8795" cy="-156.8681" rx="3.2" ry="3.2"/>
</g>
<!-- enturmacoes_funcionarios&#45;&gt;inscricao_lista_espera_situacoes -->
<g id="edge4" class="edge">
<title>enturmacoes_funcionarios:w&#45;&gt;inscricao_lista_espera_situacoes:e</title>
<path fill="none" stroke="#000000" stroke-dasharray="5,2" d="M274.0755,-176.1536C261.1224,-167.3416 258.4466,-147.2 237.5,-147.2"/>
<polygon fill="#000000" stroke="#000000" points="280.3178,-177.9675 286.9954,-183.657 284.1589,-179.0838 288,-180.2 288,-180.2 288,-180.2 284.1589,-179.0838 289.0046,-176.743 280.3178,-177.9675 280.3178,-177.9675"/>
<ellipse fill="none" stroke="#000000" cx="277.2449" cy="-177.0745" rx="3.2" ry="3.2"/>
</g>
<!-- enturmacoes_funcionarios&#45;&gt;inscricao_lista_espera_situacoes -->
<g id="edge5" class="edge">
<title>enturmacoes_funcionarios:w&#45;&gt;inscricao_lista_espera_situacoes:e</title>
<path fill="none" stroke="#000000" stroke-dasharray="5,2" d="M274.2934,-197.5107C258.9342,-184.2102 264.7226,-147.2 237.5,-147.2"/>
<polygon fill="#000000" stroke="#000000" points="280.4307,-199.6104 286.8347,-205.6062 284.2154,-200.9052 288,-202.2 288,-202.2 288,-202.2 284.2154,-200.9052 289.1653,-198.7938 280.4307,-199.6104 280.4307,-199.6104"/>
<ellipse fill="none" stroke="#000000" cx="277.403" cy="-198.5745" rx="3.2" ry="3.2"/>
</g>
<!-- enturmacoes_funcionarios&#45;&gt;inscricao_lista_espera_situacoes -->
<g id="edge6" class="edge">
<title>enturmacoes_funcionarios:w&#45;&gt;inscricao_lista_espera_situacoes:e</title>
<path fill="none" stroke="#000000" stroke-dasharray="5,2" d="M274.0801,-219.6139C254.7892,-203.0372 272.3508,-147.2 237.5,-147.2"/>
<polygon fill="#000000" stroke="#000000" points="280.4018,-221.6966 286.8735,-227.6192 284.2009,-222.9483 288,-224.2 288,-224.2 288,-224.2 284.2009,-222.9483 289.1265,-220.7808 280.4018,-221.6966 280.4018,-221.6966"/>
<ellipse fill="none" stroke="#000000" cx="277.3625" cy="-220.6953" rx="3.2" ry="3.2"/>
</g>
<!-- enturmacoes_funcionarios&#45;&gt;inscricao_lista_espera_situacoes -->
<g id="edge7" class="edge">
<title>enturmacoes_funcionarios:w&#45;&gt;inscricao_lista_espera_situacoes:e</title>
<path fill="none" stroke="#000000" stroke-dasharray="5,2" d="M274.0801,-74.7861C254.7892,-91.3628 272.3508,-147.2 237.5,-147.2"/>
<polygon fill="#000000" stroke="#000000" points="280.4018,-72.7034 289.1265,-73.6192 284.2009,-71.4517 288,-70.2 288,-70.2 288,-70.2 284.2009,-71.4517 286.8735,-66.7808 280.4018,-72.7034 280.4018,-72.7034"/>
<ellipse fill="none" stroke="#000000" cx="277.3625" cy="-73.7047" rx="3.2" ry="3.2"/>
</g>
<!-- enturmacoes_funcionarios&#45;&gt;inscricao_lista_espera_situacoes -->
<g id="edge8" class="edge">
<title>enturmacoes_funcionarios:w&#45;&gt;inscricao_lista_espera_situacoes:e</title>
<path fill="none" stroke="#000000" stroke-dasharray="5,2" d="M274.2934,-96.8893C258.9342,-110.1898 264.7226,-147.2 237.5,-147.2"/>
<polygon fill="#000000" stroke="#000000" points="280.4307,-94.7896 289.1653,-95.6062 284.2154,-93.4948 288,-92.2 288,-92.2 288,-92.2 284.2154,-93.4948 286.8347,-88.7938 280.4307,-94.7896 280.4307,-94.7896"/>
<ellipse fill="none" stroke="#000000" cx="277.403" cy="-95.8255" rx="3.2" ry="3.2"/>
</g>
</g>
</svg>
