<?xml version="1.0" encoding="UTF-8" standalone="no"?>
<!DOCTYPE svg PUBLIC "-//W3C//DTD SVG 1.1//EN"
 "http://www.w3.org/Graphics/SVG/1.1/DTD/svg11.dtd">
<!-- Generated by graphviz version 2.40.1 (20161225.0304)
 -->
<!-- Title: oneDegreeRelationshipsDiagramImplied Pages: 1 -->
<svg width="524pt" height="322pt"
 viewBox="0.00 0.00 524.00 321.70" xmlns="http://www.w3.org/2000/svg" xmlns:xlink="http://www.w3.org/1999/xlink">
<g id="graph0" class="graph" transform="scale(1 1) rotate(0) translate(4 317.7)">
<title>oneDegreeRelationshipsDiagramImplied</title>
<polygon fill="#ffffff" stroke="transparent" points="-4,4 -4,-317.7 520,-317.7 520,4 -4,4"/>
<text text-anchor="middle" x="72.4936" y="-7.3" font-family="Helvetica,sans-Serif" font-size="11.00" fill="#000000">Generated by SchemaSpy</text>
<!-- estados -->
<g id="node1" class="node">
<title>estados</title>
<g id="a_node1"><a xlink:href="../../tables/estados.html" xlink:title="estados" target="_top">
<polygon fill="#ffffff" stroke="transparent" points="286,-43.7 286,-309.7 508,-309.7 508,-43.7 286,-43.7"/>
<polygon fill="#f5f5f5" stroke="transparent" points="288,-284.7 288,-307.7 506,-307.7 506,-284.7 288,-284.7"/>
<polygon fill="none" stroke="#000000" points="288,-284.7 288,-307.7 506,-307.7 506,-284.7 288,-284.7"/>
<text text-anchor="start" x="293" y="-293.3" font-family="Helvetica,sans-Serif" font-weight="bold" font-size="11.00" fill="#000000">estados</text>
<text text-anchor="start" x="471.0437" y="-292.8" font-family="Helvetica,sans-Serif" font-size="11.00" fill="#000000">[table]</text>
<polygon fill="none" stroke="#000000" points="288,-262.7 288,-284.7 397,-284.7 397,-262.7 288,-262.7"/>
<text text-anchor="start" x="308" y="-269.8" font-family="Helvetica,sans-Serif" font-size="11.00" fill="#000000">sistema</text>
<polygon fill="none" stroke="#000000" points="397,-262.7 397,-284.7 506,-284.7 506,-262.7 397,-262.7"/>
<text text-anchor="start" x="400" y="-270.4" font-family="Helvetica,sans-Serif" font-size="11.00" fill="#000000">int4[10]</text>
<polygon fill="none" stroke="#000000" points="288,-240.7 288,-262.7 397,-262.7 397,-240.7 288,-240.7"/>
<text text-anchor="start" x="308" y="-247.8" font-family="Helvetica,sans-Serif" font-size="11.00" fill="#000000">tipo_registro</text>
<polygon fill="none" stroke="#000000" points="397,-240.7 397,-262.7 506,-262.7 506,-240.7 397,-240.7"/>
<text text-anchor="start" x="400" y="-248.4" font-family="Helvetica,sans-Serif" font-size="11.00" fill="#000000">text[2147483647]</text>
<polygon fill="none" stroke="#000000" points="288,-218.7 288,-240.7 397,-240.7 397,-218.7 288,-218.7"/>
<text text-anchor="start" x="308" y="-225.8" font-family="Helvetica,sans-Serif" font-size="11.00" fill="#000000">id_integracao</text>
<polygon fill="none" stroke="#000000" points="397,-218.7 397,-240.7 506,-240.7 506,-218.7 397,-218.7"/>
<text text-anchor="start" x="399.5344" y="-226.4" font-family="Helvetica,sans-Serif" font-size="11.00" fill="#000000">varchar[2147483647]</text>
<polygon fill="none" stroke="#000000" points="288,-196.7 288,-218.7 397,-218.7 397,-196.7 288,-196.7"/>
<text text-anchor="start" x="308" y="-203.8" font-family="Helvetica,sans-Serif" font-size="11.00" fill="#000000">id_origem</text>
<polygon fill="none" stroke="#000000" points="397,-196.7 397,-218.7 506,-218.7 506,-196.7 397,-196.7"/>
<text text-anchor="start" x="400" y="-204.4" font-family="Helvetica,sans-Serif" font-size="11.00" fill="#000000">int4[10]</text>
<polygon fill="none" stroke="#000000" points="288,-174.7 288,-196.7 397,-196.7 397,-174.7 288,-174.7"/>
<text text-anchor="start" x="308" y="-181.8" font-family="Helvetica,sans-Serif" font-size="11.00" fill="#000000">id_cloud</text>
<polygon fill="none" stroke="#000000" points="397,-174.7 397,-196.7 506,-196.7 506,-174.7 397,-174.7"/>
<text text-anchor="start" x="400" y="-182.4" font-family="Helvetica,sans-Serif" font-size="11.00" fill="#000000">int4[10]</text>
<polygon fill="none" stroke="#000000" points="288,-152.7 288,-174.7 397,-174.7 397,-152.7 288,-152.7"/>
<text text-anchor="start" x="308" y="-159.8" font-family="Helvetica,sans-Serif" font-size="11.00" fill="#000000">nome</text>
<polygon fill="none" stroke="#000000" points="397,-152.7 397,-174.7 506,-174.7 506,-152.7 397,-152.7"/>
<text text-anchor="start" x="400" y="-160.4" font-family="Helvetica,sans-Serif" font-size="11.00" fill="#000000">varchar[50]</text>
<polygon fill="none" stroke="#000000" points="288,-130.7 288,-152.7 397,-152.7 397,-130.7 288,-130.7"/>
<text text-anchor="start" x="308" y="-137.8" font-family="Helvetica,sans-Serif" font-size="11.00" fill="#000000">uf</text>
<polygon fill="none" stroke="#000000" points="397,-130.7 397,-152.7 506,-152.7 506,-130.7 397,-130.7"/>
<text text-anchor="start" x="400" y="-138.4" font-family="Helvetica,sans-Serif" font-size="11.00" fill="#000000">varchar[2]</text>
<polygon fill="none" stroke="#000000" points="288,-108.7 288,-130.7 397,-130.7 397,-108.7 288,-108.7"/>
<text text-anchor="start" x="308" y="-115.8" font-family="Helvetica,sans-Serif" font-size="11.00" fill="#000000">codigoibge</text>
<polygon fill="none" stroke="#000000" points="397,-108.7 397,-130.7 506,-130.7 506,-108.7 397,-108.7"/>
<text text-anchor="start" x="400" y="-116.4" font-family="Helvetica,sans-Serif" font-size="11.00" fill="#000000">varchar[2]</text>
<polygon fill="none" stroke="#000000" points="288,-86.7 288,-108.7 397,-108.7 397,-86.7 288,-86.7"/>
<image xlink:href="../../images/foreignKeys.png" width="11px" height="12px" preserveAspectRatio="xMinYMin meet" x="293" y="-103.7"/>
<text text-anchor="start" x="308" y="-93.8" font-family="Helvetica,sans-Serif" font-size="11.00" fill="#000000">pais_origem_id</text>
<polygon fill="none" stroke="#000000" points="397,-86.7 397,-108.7 506,-108.7 506,-86.7 397,-86.7"/>
<text text-anchor="start" x="400" y="-94.4" font-family="Helvetica,sans-Serif" font-size="11.00" fill="#000000">int4[10]</text>
<polygon fill="none" stroke="#000000" points="288,-64.7 288,-86.7 397,-86.7 397,-64.7 288,-64.7"/>
<image xlink:href="../../images/foreignKeys.png" width="11px" height="12px" preserveAspectRatio="xMinYMin meet" x="293" y="-81.7"/>
<text text-anchor="start" x="308" y="-71.8" font-family="Helvetica,sans-Serif" font-size="11.00" fill="#000000">pais_cloud_id</text>
<polygon fill="none" stroke="#000000" points="397,-64.7 397,-86.7 506,-86.7 506,-64.7 397,-64.7"/>
<text text-anchor="start" x="400" y="-72.4" font-family="Helvetica,sans-Serif" font-size="11.00" fill="#000000">int4[10]</text>
<polygon fill="#ffffff" stroke="transparent" points="288,-45.7 288,-64.7 347,-64.7 347,-45.7 288,-45.7"/>
<polygon fill="none" stroke="#000000" points="288,-45.7 288,-64.7 347,-64.7 347,-45.7 288,-45.7"/>
<text text-anchor="start" x="291" y="-51.8" font-family="Helvetica,sans-Serif" font-size="11.00" fill="#000000">&lt; 2</text>
<polygon fill="#ffffff" stroke="transparent" points="347,-45.7 347,-64.7 397,-64.7 397,-45.7 347,-45.7"/>
<polygon fill="none" stroke="#000000" points="347,-45.7 347,-64.7 397,-64.7 397,-45.7 347,-45.7"/>
<text text-anchor="start" x="387.8862" y="-51.8" font-family="Helvetica,sans-Serif" font-size="11.00" fill="#000000"> &#160;</text>
<polygon fill="#ffffff" stroke="transparent" points="397,-45.7 397,-64.7 506,-64.7 506,-45.7 397,-45.7"/>
<polygon fill="none" stroke="#000000" points="397,-45.7 397,-64.7 506,-64.7 506,-45.7 397,-45.7"/>
<text text-anchor="start" x="487.4053" y="-51.8" font-family="Helvetica,sans-Serif" font-size="11.00" fill="#000000">0 &gt;</text>
<polygon fill="none" stroke="#000000" stroke-width="2" points="287,-44.7 287,-308.7 507,-308.7 507,-44.7 287,-44.7"/>
</a>
</g>
</g>
<!-- inscricao_lista_espera_situacoes -->
<g id="node2" class="node">
<title>inscricao_lista_espera_situacoes</title>
<g id="a_node2"><a xlink:href="../../tables/inscricao_lista_espera_situacoes.html" xlink:title="inscricao_lista_espera_situacoes" target="_top">
<polygon fill="#ffffff" stroke="transparent" points="8,-38.2 8,-121.2 237,-121.2 237,-38.2 8,-38.2"/>
<polygon fill="#f5f5f5" stroke="transparent" points="8.5,-97.7 8.5,-120.7 237.5,-120.7 237.5,-97.7 8.5,-97.7"/>
<polygon fill="none" stroke="#000000" points="8.5,-97.7 8.5,-120.7 237.5,-120.7 237.5,-97.7 8.5,-97.7"/>
<text text-anchor="start" x="13.5" y="-106.3" font-family="Helvetica,sans-Serif" font-weight="bold" font-size="11.00" fill="#000000">inscricao_lista_espera_situacoes</text>
<text text-anchor="start" x="203.0219" y="-105.8" font-family="Helvetica,sans-Serif" font-size="11.00" fill="#000000">[table]</text>
<polygon fill="none" stroke="#000000" points="8.5,-75.7 8.5,-97.7 237.5,-97.7 237.5,-75.7 8.5,-75.7"/>
<image xlink:href="../../images/primaryKeys.png" width="11px" height="12px" preserveAspectRatio="xMinYMin meet" x="13.5" y="-92.7"/>
<text text-anchor="start" x="37.5" y="-82.8" font-family="Helvetica,sans-Serif" font-size="11.00" fill="#000000">id</text>
<polygon fill="none" stroke="#000000" points="8.5,-56.7 8.5,-75.7 237.5,-75.7 237.5,-56.7 8.5,-56.7"/>
<text text-anchor="start" x="11.5" y="-62.8" font-family="Helvetica,sans-Serif" font-size="11.00" fill="#000000">...</text>
<polygon fill="#ffffff" stroke="transparent" points="8.5,-37.7 8.5,-56.7 106.5,-56.7 106.5,-37.7 8.5,-37.7"/>
<polygon fill="none" stroke="#000000" points="8.5,-37.7 8.5,-56.7 106.5,-56.7 106.5,-37.7 8.5,-37.7"/>
<text text-anchor="start" x="11.5" y="-43.8" font-family="Helvetica,sans-Serif" font-size="11.00" fill="#000000"> &#160;</text>
<polygon fill="#ffffff" stroke="transparent" points="106.5,-37.7 106.5,-56.7 161.5,-56.7 161.5,-37.7 106.5,-37.7"/>
<polygon fill="none" stroke="#000000" points="106.5,-37.7 106.5,-56.7 161.5,-56.7 161.5,-37.7 106.5,-37.7"/>
<text text-anchor="start" x="152.3862" y="-43.8" font-family="Helvetica,sans-Serif" font-size="11.00" fill="#000000"> &#160;</text>
<polygon fill="#ffffff" stroke="transparent" points="161.5,-37.7 161.5,-56.7 237.5,-56.7 237.5,-37.7 161.5,-37.7"/>
<polygon fill="none" stroke="#000000" points="161.5,-37.7 161.5,-56.7 237.5,-56.7 237.5,-37.7 161.5,-37.7"/>
<text text-anchor="start" x="206.6755" y="-43.8" font-family="Helvetica,sans-Serif" font-size="11.00" fill="#000000">596 &gt;</text>
</a>
</g>
</g>
<!-- estados&#45;&gt;inscricao_lista_espera_situacoes -->
<g id="edge1" class="edge">
<title>estados:w&#45;&gt;inscricao_lista_espera_situacoes:e</title>
<path fill="none" stroke="#000000" stroke-dasharray="5,2" d="M273.6489,-77.4188C261.5992,-80.5125 254.728,-86.7 237.5,-86.7"/>
<polygon fill="#000000" stroke="#000000" points="280.0568,-76.6514 288.4281,-79.2745 284.0284,-76.1757 288,-75.7 288,-75.7 288,-75.7 284.0284,-76.1757 287.5719,-72.1255 280.0568,-76.6514 280.0568,-76.6514"/>
<ellipse fill="none" stroke="#000000" cx="276.8795" cy="-77.0319" rx="3.2" ry="3.2"/>
</g>
<!-- estados&#45;&gt;inscricao_lista_espera_situacoes -->
<g id="edge2" class="edge">
<title>estados:w&#45;&gt;inscricao_lista_espera_situacoes:e</title>
<path fill="none" stroke="#000000" stroke-dasharray="5,2" d="M273.6489,-95.9813C261.5992,-92.8875 254.728,-86.7 237.5,-86.7"/>
<polygon fill="#000000" stroke="#000000" points="280.0568,-96.7486 287.5719,-101.2745 284.0284,-97.2243 288,-97.7 288,-97.7 288,-97.7 284.0284,-97.2243 288.4281,-94.1255 280.0568,-96.7486 280.0568,-96.7486"/>
<ellipse fill="none" stroke="#000000" cx="276.8795" cy="-96.3681" rx="3.2" ry="3.2"/>
</g>
</g>
</svg>
