<?xml version="1.0" encoding="UTF-8" standalone="no"?>
<!DOCTYPE svg PUBLIC "-//W3C//DTD SVG 1.1//EN"
 "http://www.w3.org/Graphics/SVG/1.1/DTD/svg11.dtd">
<!-- Generated by graphviz version 2.40.1 (20161225.0304)
 -->
<!-- Title: oneDegreeRelationshipsDiagram Pages: 1 -->
<svg width="599pt" height="1284pt"
 viewBox="0.00 0.00 599.00 1284.20" xmlns="http://www.w3.org/2000/svg" xmlns:xlink="http://www.w3.org/1999/xlink">
<g id="graph0" class="graph" transform="scale(1 1) rotate(0) translate(4 1280.2)">
<title>oneDegreeRelationshipsDiagram</title>
<polygon fill="#ffffff" stroke="transparent" points="-4,4 -4,-1280.2 595,-1280.2 595,4 -4,4"/>
<text text-anchor="middle" x="72.4936" y="-7.3" font-family="Helvetica,sans-Serif" font-size="11.00" fill="#000000">Generated by SchemaSpy</text>
<!-- estabelecimentos -->
<g id="node1" class="node">
<title>estabelecimentos</title>
<g id="a_node1"><a xlink:href="../../tables/estabelecimentos.html" xlink:title="estabelecimentos" target="_top">
<polygon fill="#ffffff" stroke="transparent" points="8,-38.2 8,-1272.2 583,-1272.2 583,-38.2 8,-38.2"/>
<polygon fill="#f5f5f5" stroke="transparent" points="10.5,-1247.2 10.5,-1270.2 581.5,-1270.2 581.5,-1247.2 10.5,-1247.2"/>
<polygon fill="none" stroke="#000000" points="10.5,-1247.2 10.5,-1270.2 581.5,-1270.2 581.5,-1247.2 10.5,-1247.2"/>
<text text-anchor="start" x="15.5" y="-1255.8" font-family="Helvetica,sans-Serif" font-weight="bold" font-size="11.00" fill="#000000">estabelecimentos</text>
<text text-anchor="start" x="546.5437" y="-1255.3" font-family="Helvetica,sans-Serif" font-size="11.00" fill="#000000">[table]</text>
<polygon fill="none" stroke="#000000" points="10.5,-1225.2 10.5,-1247.2 277.5,-1247.2 277.5,-1225.2 10.5,-1225.2"/>
<text text-anchor="start" x="30.5" y="-1232.3" font-family="Helvetica,sans-Serif" font-size="11.00" fill="#000000">sistema</text>
<polygon fill="none" stroke="#000000" points="277.5,-1225.2 277.5,-1247.2 581.5,-1247.2 581.5,-1225.2 277.5,-1225.2"/>
<text text-anchor="start" x="280.5" y="-1232.9" font-family="Helvetica,sans-Serif" font-size="11.00" fill="#000000">int4[10]</text>
<polygon fill="none" stroke="#000000" points="10.5,-1203.2 10.5,-1225.2 277.5,-1225.2 277.5,-1203.2 10.5,-1203.2"/>
<text text-anchor="start" x="30.5" y="-1210.3" font-family="Helvetica,sans-Serif" font-size="11.00" fill="#000000">tipo_registro</text>
<polygon fill="none" stroke="#000000" points="277.5,-1203.2 277.5,-1225.2 581.5,-1225.2 581.5,-1203.2 277.5,-1203.2"/>
<text text-anchor="start" x="280.5" y="-1210.9" font-family="Helvetica,sans-Serif" font-size="11.00" fill="#000000">text[2147483647]</text>
<polygon fill="none" stroke="#000000" points="10.5,-1181.2 10.5,-1203.2 277.5,-1203.2 277.5,-1181.2 10.5,-1181.2"/>
<text text-anchor="start" x="30.5" y="-1188.3" font-family="Helvetica,sans-Serif" font-size="11.00" fill="#000000">id_integracao</text>
<polygon fill="none" stroke="#000000" points="277.5,-1181.2 277.5,-1203.2 581.5,-1203.2 581.5,-1181.2 277.5,-1181.2"/>
<text text-anchor="start" x="280.5" y="-1188.9" font-family="Helvetica,sans-Serif" font-size="11.00" fill="#000000">varchar[2147483647]</text>
<polygon fill="none" stroke="#000000" points="10.5,-1159.2 10.5,-1181.2 277.5,-1181.2 277.5,-1159.2 10.5,-1159.2"/>
<text text-anchor="start" x="30.5" y="-1166.3" font-family="Helvetica,sans-Serif" font-size="11.00" fill="#000000">id_origem</text>
<polygon fill="none" stroke="#000000" points="277.5,-1159.2 277.5,-1181.2 581.5,-1181.2 581.5,-1159.2 277.5,-1159.2"/>
<text text-anchor="start" x="280.5" y="-1166.9" font-family="Helvetica,sans-Serif" font-size="11.00" fill="#000000">int4[10]</text>
<polygon fill="none" stroke="#000000" points="10.5,-1137.2 10.5,-1159.2 277.5,-1159.2 277.5,-1137.2 10.5,-1137.2"/>
<text text-anchor="start" x="30.5" y="-1144.3" font-family="Helvetica,sans-Serif" font-size="11.00" fill="#000000">id_cloud</text>
<polygon fill="none" stroke="#000000" points="277.5,-1137.2 277.5,-1159.2 581.5,-1159.2 581.5,-1137.2 277.5,-1137.2"/>
<text text-anchor="start" x="280.5" y="-1144.9" font-family="Helvetica,sans-Serif" font-size="11.00" fill="#000000">int4[10]</text>
<polygon fill="none" stroke="#000000" points="10.5,-1115.2 10.5,-1137.2 277.5,-1137.2 277.5,-1115.2 10.5,-1115.2"/>
<text text-anchor="start" x="30.5" y="-1122.3" font-family="Helvetica,sans-Serif" font-size="11.00" fill="#000000">dependencia_administrativa</text>
<polygon fill="none" stroke="#000000" points="277.5,-1115.2 277.5,-1137.2 581.5,-1137.2 581.5,-1115.2 277.5,-1115.2"/>
<text text-anchor="start" x="280.5" y="-1122.9" font-family="Helvetica,sans-Serif" font-size="11.00" fill="#000000">&quot;educacao&quot;.&quot;dependenciasadministrativas&quot;[2147483647]</text>
<polygon fill="none" stroke="#000000" points="10.5,-1093.2 10.5,-1115.2 277.5,-1115.2 277.5,-1093.2 10.5,-1093.2"/>
<text text-anchor="start" x="30.5" y="-1100.3" font-family="Helvetica,sans-Serif" font-size="11.00" fill="#000000">codigo_inep</text>
<polygon fill="none" stroke="#000000" points="277.5,-1093.2 277.5,-1115.2 581.5,-1115.2 581.5,-1093.2 277.5,-1093.2"/>
<text text-anchor="start" x="280.5" y="-1100.9" font-family="Helvetica,sans-Serif" font-size="11.00" fill="#000000">varchar[2147483647]</text>
<polygon fill="none" stroke="#000000" points="10.5,-1071.2 10.5,-1093.2 277.5,-1093.2 277.5,-1071.2 10.5,-1071.2"/>
<text text-anchor="start" x="30.5" y="-1078.3" font-family="Helvetica,sans-Serif" font-size="11.00" fill="#000000">telefone_publico</text>
<polygon fill="none" stroke="#000000" points="277.5,-1071.2 277.5,-1093.2 581.5,-1093.2 581.5,-1071.2 277.5,-1071.2"/>
<text text-anchor="start" x="280.5" y="-1078.9" font-family="Helvetica,sans-Serif" font-size="11.00" fill="#000000">varchar[2147483647]</text>
<polygon fill="none" stroke="#000000" points="10.5,-1049.2 10.5,-1071.2 277.5,-1071.2 277.5,-1049.2 10.5,-1049.2"/>
<text text-anchor="start" x="30.5" y="-1056.3" font-family="Helvetica,sans-Serif" font-size="11.00" fill="#000000">area_abrangencia</text>
<polygon fill="none" stroke="#000000" points="277.5,-1049.2 277.5,-1071.2 581.5,-1071.2 581.5,-1049.2 277.5,-1049.2"/>
<text text-anchor="start" x="280.5" y="-1056.9" font-family="Helvetica,sans-Serif" font-size="11.00" fill="#000000">varchar[2147483647]</text>
<polygon fill="none" stroke="#000000" points="10.5,-1027.2 10.5,-1049.2 277.5,-1049.2 277.5,-1027.2 10.5,-1027.2"/>
<text text-anchor="start" x="30.5" y="-1034.3" font-family="Helvetica,sans-Serif" font-size="11.00" fill="#000000">situacao_funcionamento</text>
<polygon fill="none" stroke="#000000" points="277.5,-1027.2 277.5,-1049.2 581.5,-1049.2 581.5,-1027.2 277.5,-1027.2"/>
<text text-anchor="start" x="280.5" y="-1034.9" font-family="Helvetica,sans-Serif" font-size="11.00" fill="#000000">&quot;educacao&quot;.&quot;situacoesfuncionamento&quot;[2147483647]</text>
<polygon fill="none" stroke="#000000" points="10.5,-1005.2 10.5,-1027.2 277.5,-1027.2 277.5,-1005.2 10.5,-1005.2"/>
<text text-anchor="start" x="30.5" y="-1012.3" font-family="Helvetica,sans-Serif" font-size="11.00" fill="#000000">educacao_indigina</text>
<polygon fill="none" stroke="#000000" points="277.5,-1005.2 277.5,-1027.2 581.5,-1027.2 581.5,-1005.2 277.5,-1005.2"/>
<text text-anchor="start" x="280.5" y="-1012.9" font-family="Helvetica,sans-Serif" font-size="11.00" fill="#000000">bool[1]</text>
<polygon fill="none" stroke="#000000" points="10.5,-983.2 10.5,-1005.2 277.5,-1005.2 277.5,-983.2 10.5,-983.2"/>
<text text-anchor="start" x="30.5" y="-990.3" font-family="Helvetica,sans-Serif" font-size="11.00" fill="#000000">lingua_ensino_ministrado</text>
<polygon fill="none" stroke="#000000" points="277.5,-983.2 277.5,-1005.2 581.5,-1005.2 581.5,-983.2 277.5,-983.2"/>
<text text-anchor="start" x="280.5" y="-990.9" font-family="Helvetica,sans-Serif" font-size="11.00" fill="#000000">&quot;educacao&quot;.&quot;linguasensinoministrado&quot;[2147483647]</text>
<polygon fill="none" stroke="#000000" points="10.5,-961.2 10.5,-983.2 277.5,-983.2 277.5,-961.2 10.5,-961.2"/>
<image xlink:href="../../images/foreignKeys.png" width="11px" height="12px" preserveAspectRatio="xMinYMin meet" x="15.5" y="-978.2"/>
<text text-anchor="start" x="30.5" y="-968.3" font-family="Helvetica,sans-Serif" font-size="11.00" fill="#000000">lingua_indigena_origem_id</text>
<polygon fill="none" stroke="#000000" points="277.5,-961.2 277.5,-983.2 581.5,-983.2 581.5,-961.2 277.5,-961.2"/>
<text text-anchor="start" x="280.5" y="-968.9" font-family="Helvetica,sans-Serif" font-size="11.00" fill="#000000">int4[10]</text>
<polygon fill="none" stroke="#000000" points="10.5,-939.2 10.5,-961.2 277.5,-961.2 277.5,-939.2 10.5,-939.2"/>
<image xlink:href="../../images/foreignKeys.png" width="11px" height="12px" preserveAspectRatio="xMinYMin meet" x="15.5" y="-956.2"/>
<text text-anchor="start" x="30.5" y="-946.3" font-family="Helvetica,sans-Serif" font-size="11.00" fill="#000000">lingua_indigena_cloud_id</text>
<polygon fill="none" stroke="#000000" points="277.5,-939.2 277.5,-961.2 581.5,-961.2 581.5,-939.2 277.5,-939.2"/>
<text text-anchor="start" x="280.5" y="-946.9" font-family="Helvetica,sans-Serif" font-size="11.00" fill="#000000">int4[10]</text>
<polygon fill="none" stroke="#000000" points="10.5,-917.2 10.5,-939.2 277.5,-939.2 277.5,-917.2 10.5,-917.2"/>
<text text-anchor="start" x="30.5" y="-924.3" font-family="Helvetica,sans-Serif" font-size="11.00" fill="#000000">unidade</text>
<polygon fill="none" stroke="#000000" points="277.5,-917.2 277.5,-939.2 581.5,-939.2 581.5,-917.2 277.5,-917.2"/>
<text text-anchor="start" x="280.5" y="-924.9" font-family="Helvetica,sans-Serif" font-size="11.00" fill="#000000">&quot;educacao&quot;.&quot;unidades&quot;[2147483647]</text>
<polygon fill="none" stroke="#000000" points="10.5,-895.2 10.5,-917.2 277.5,-917.2 277.5,-895.2 10.5,-895.2"/>
<text text-anchor="start" x="30.5" y="-902.3" font-family="Helvetica,sans-Serif" font-size="11.00" fill="#000000">alimentacao_escolar</text>
<polygon fill="none" stroke="#000000" points="277.5,-895.2 277.5,-917.2 581.5,-917.2 581.5,-895.2 277.5,-895.2"/>
<text text-anchor="start" x="280.5" y="-902.9" font-family="Helvetica,sans-Serif" font-size="11.00" fill="#000000">bool[1]</text>
<polygon fill="none" stroke="#000000" points="10.5,-873.2 10.5,-895.2 277.5,-895.2 277.5,-873.2 10.5,-873.2"/>
<text text-anchor="start" x="30.5" y="-880.3" font-family="Helvetica,sans-Serif" font-size="11.00" fill="#000000">turmas_brasil_alfabetizado</text>
<polygon fill="none" stroke="#000000" points="277.5,-873.2 277.5,-895.2 581.5,-895.2 581.5,-873.2 277.5,-873.2"/>
<text text-anchor="start" x="280.5" y="-880.9" font-family="Helvetica,sans-Serif" font-size="11.00" fill="#000000">bool[1]</text>
<polygon fill="none" stroke="#000000" points="10.5,-851.2 10.5,-873.2 277.5,-873.2 277.5,-851.2 10.5,-851.2"/>
<text text-anchor="start" x="30.5" y="-858.3" font-family="Helvetica,sans-Serif" font-size="11.00" fill="#000000">abre_final_semana</text>
<polygon fill="none" stroke="#000000" points="277.5,-851.2 277.5,-873.2 581.5,-873.2 581.5,-851.2 277.5,-851.2"/>
<text text-anchor="start" x="280.5" y="-858.9" font-family="Helvetica,sans-Serif" font-size="11.00" fill="#000000">bool[1]</text>
<polygon fill="none" stroke="#000000" points="10.5,-829.2 10.5,-851.2 277.5,-851.2 277.5,-829.2 10.5,-829.2"/>
<text text-anchor="start" x="30.5" y="-836.3" font-family="Helvetica,sans-Serif" font-size="11.00" fill="#000000">proposta_formacao_alternancia</text>
<polygon fill="none" stroke="#000000" points="277.5,-829.2 277.5,-851.2 581.5,-851.2 581.5,-829.2 277.5,-829.2"/>
<text text-anchor="start" x="280.5" y="-836.9" font-family="Helvetica,sans-Serif" font-size="11.00" fill="#000000">bool[1]</text>
<polygon fill="none" stroke="#000000" points="10.5,-807.2 10.5,-829.2 277.5,-829.2 277.5,-807.2 10.5,-807.2"/>
<text text-anchor="start" x="30.5" y="-814.3" font-family="Helvetica,sans-Serif" font-size="11.00" fill="#000000">observacao</text>
<polygon fill="none" stroke="#000000" points="277.5,-807.2 277.5,-829.2 581.5,-829.2 581.5,-807.2 277.5,-807.2"/>
<text text-anchor="start" x="280.5" y="-814.9" font-family="Helvetica,sans-Serif" font-size="11.00" fill="#000000">varchar[2147483647]</text>
<polygon fill="none" stroke="#000000" points="10.5,-785.2 10.5,-807.2 277.5,-807.2 277.5,-785.2 10.5,-785.2"/>
<text text-anchor="start" x="30.5" y="-792.3" font-family="Helvetica,sans-Serif" font-size="11.00" fill="#000000">convencoes</text>
<polygon fill="none" stroke="#000000" points="277.5,-785.2 277.5,-807.2 581.5,-807.2 581.5,-785.2 277.5,-785.2"/>
<text text-anchor="start" x="280.5" y="-792.9" font-family="Helvetica,sans-Serif" font-size="11.00" fill="#000000">varchar[2147483647]</text>
<polygon fill="none" stroke="#000000" points="10.5,-763.2 10.5,-785.2 277.5,-785.2 277.5,-763.2 10.5,-763.2"/>
<text text-anchor="start" x="30.5" y="-770.3" font-family="Helvetica,sans-Serif" font-size="11.00" fill="#000000">perfil_comunidade</text>
<polygon fill="none" stroke="#000000" points="277.5,-763.2 277.5,-785.2 581.5,-785.2 581.5,-763.2 277.5,-763.2"/>
<text text-anchor="start" x="280.5" y="-770.9" font-family="Helvetica,sans-Serif" font-size="11.00" fill="#000000">varchar[2147483647]</text>
<polygon fill="none" stroke="#000000" points="10.5,-741.2 10.5,-763.2 277.5,-763.2 277.5,-741.2 10.5,-741.2"/>
<text text-anchor="start" x="30.5" y="-748.3" font-family="Helvetica,sans-Serif" font-size="11.00" fill="#000000">outrolocal_funcionamento</text>
<polygon fill="none" stroke="#000000" points="277.5,-741.2 277.5,-763.2 581.5,-763.2 581.5,-741.2 277.5,-741.2"/>
<text text-anchor="start" x="280.5" y="-748.9" font-family="Helvetica,sans-Serif" font-size="11.00" fill="#000000">varchar[2147483647]</text>
<polygon fill="none" stroke="#000000" points="10.5,-719.2 10.5,-741.2 277.5,-741.2 277.5,-719.2 10.5,-719.2"/>
<text text-anchor="start" x="30.5" y="-726.3" font-family="Helvetica,sans-Serif" font-size="11.00" fill="#000000">forma_ocupacao</text>
<polygon fill="none" stroke="#000000" points="277.5,-719.2 277.5,-741.2 581.5,-741.2 581.5,-719.2 277.5,-719.2"/>
<text text-anchor="start" x="280.5" y="-726.9" font-family="Helvetica,sans-Serif" font-size="11.00" fill="#000000">&quot;educacao&quot;.&quot;formasocupacao&quot;[2147483647]</text>
<polygon fill="none" stroke="#000000" points="10.5,-697.2 10.5,-719.2 277.5,-719.2 277.5,-697.2 10.5,-697.2"/>
<text text-anchor="start" x="30.5" y="-704.3" font-family="Helvetica,sans-Serif" font-size="11.00" fill="#000000">area_total</text>
<polygon fill="none" stroke="#000000" points="277.5,-697.2 277.5,-719.2 581.5,-719.2 581.5,-697.2 277.5,-697.2"/>
<text text-anchor="start" x="280.5" y="-704.9" font-family="Helvetica,sans-Serif" font-size="11.00" fill="#000000">numeric[0]</text>
<polygon fill="none" stroke="#000000" points="10.5,-675.2 10.5,-697.2 277.5,-697.2 277.5,-675.2 10.5,-675.2"/>
<text text-anchor="start" x="30.5" y="-682.3" font-family="Helvetica,sans-Serif" font-size="11.00" fill="#000000">agua_filtrada</text>
<polygon fill="none" stroke="#000000" points="277.5,-675.2 277.5,-697.2 581.5,-697.2 581.5,-675.2 277.5,-675.2"/>
<text text-anchor="start" x="280.5" y="-682.9" font-family="Helvetica,sans-Serif" font-size="11.00" fill="#000000">bool[1]</text>
<polygon fill="none" stroke="#000000" points="10.5,-653.2 10.5,-675.2 277.5,-675.2 277.5,-653.2 10.5,-653.2"/>
<text text-anchor="start" x="30.5" y="-660.3" font-family="Helvetica,sans-Serif" font-size="11.00" fill="#000000">outra_destinacao_lixo</text>
<polygon fill="none" stroke="#000000" points="277.5,-653.2 277.5,-675.2 581.5,-675.2 581.5,-653.2 277.5,-653.2"/>
<text text-anchor="start" x="280.5" y="-660.9" font-family="Helvetica,sans-Serif" font-size="11.00" fill="#000000">varchar[2147483647]</text>
<polygon fill="none" stroke="#000000" points="10.5,-631.2 10.5,-653.2 277.5,-653.2 277.5,-631.2 10.5,-631.2"/>
<text text-anchor="start" x="30.5" y="-638.3" font-family="Helvetica,sans-Serif" font-size="11.00" fill="#000000">acesso_internet</text>
<polygon fill="none" stroke="#000000" points="277.5,-631.2 277.5,-653.2 581.5,-653.2 581.5,-631.2 277.5,-631.2"/>
<text text-anchor="start" x="280.5" y="-638.9" font-family="Helvetica,sans-Serif" font-size="11.00" fill="#000000">&quot;educacao&quot;.&quot;formasacessointernet&quot;[2147483647]</text>
<polygon fill="none" stroke="#000000" points="10.5,-609.2 10.5,-631.2 277.5,-631.2 277.5,-609.2 10.5,-609.2"/>
<image xlink:href="../../images/foreignKeys.png" width="11px" height="12px" preserveAspectRatio="xMinYMin meet" x="15.5" y="-626.2"/>
<text text-anchor="start" x="30.5" y="-616.3" font-family="Helvetica,sans-Serif" font-size="11.00" fill="#000000">pessoa_origem_id</text>
<polygon fill="none" stroke="#000000" points="277.5,-609.2 277.5,-631.2 581.5,-631.2 581.5,-609.2 277.5,-609.2"/>
<text text-anchor="start" x="280.5" y="-616.9" font-family="Helvetica,sans-Serif" font-size="11.00" fill="#000000">int4[10]</text>
<polygon fill="none" stroke="#000000" points="10.5,-587.2 10.5,-609.2 277.5,-609.2 277.5,-587.2 10.5,-587.2"/>
<image xlink:href="../../images/foreignKeys.png" width="11px" height="12px" preserveAspectRatio="xMinYMin meet" x="15.5" y="-604.2"/>
<text text-anchor="start" x="30.5" y="-594.3" font-family="Helvetica,sans-Serif" font-size="11.00" fill="#000000">pessoa_cloud_id</text>
<polygon fill="none" stroke="#000000" points="277.5,-587.2 277.5,-609.2 581.5,-609.2 581.5,-587.2 277.5,-587.2"/>
<text text-anchor="start" x="280.5" y="-594.9" font-family="Helvetica,sans-Serif" font-size="11.00" fill="#000000">int4[10]</text>
<polygon fill="none" stroke="#000000" points="10.5,-565.2 10.5,-587.2 277.5,-587.2 277.5,-565.2 10.5,-565.2"/>
<text text-anchor="start" x="30.5" y="-572.3" font-family="Helvetica,sans-Serif" font-size="11.00" fill="#000000">nome</text>
<polygon fill="none" stroke="#000000" points="277.5,-565.2 277.5,-587.2 581.5,-587.2 581.5,-565.2 277.5,-565.2"/>
<text text-anchor="start" x="280.5" y="-572.9" font-family="Helvetica,sans-Serif" font-size="11.00" fill="#000000">varchar[155]</text>
<polygon fill="none" stroke="#000000" points="10.5,-543.2 10.5,-565.2 277.5,-565.2 277.5,-543.2 10.5,-543.2"/>
<text text-anchor="start" x="30.5" y="-550.3" font-family="Helvetica,sans-Serif" font-size="11.00" fill="#000000">site</text>
<polygon fill="none" stroke="#000000" points="277.5,-543.2 277.5,-565.2 581.5,-565.2 581.5,-543.2 277.5,-543.2"/>
<text text-anchor="start" x="280.5" y="-550.9" font-family="Helvetica,sans-Serif" font-size="11.00" fill="#000000">varchar[2147483647]</text>
<polygon fill="none" stroke="#000000" points="10.5,-521.2 10.5,-543.2 277.5,-543.2 277.5,-521.2 10.5,-521.2"/>
<text text-anchor="start" x="30.5" y="-528.3" font-family="Helvetica,sans-Serif" font-size="11.00" fill="#000000">nome_fantasia</text>
<polygon fill="none" stroke="#000000" points="277.5,-521.2 277.5,-543.2 581.5,-543.2 581.5,-521.2 277.5,-521.2"/>
<text text-anchor="start" x="280.5" y="-528.9" font-family="Helvetica,sans-Serif" font-size="11.00" fill="#000000">varchar[155]</text>
<polygon fill="none" stroke="#000000" points="10.5,-499.2 10.5,-521.2 277.5,-521.2 277.5,-499.2 10.5,-499.2"/>
<text text-anchor="start" x="30.5" y="-506.3" font-family="Helvetica,sans-Serif" font-size="11.00" fill="#000000">cnpj</text>
<polygon fill="none" stroke="#000000" points="277.5,-499.2 277.5,-521.2 581.5,-521.2 581.5,-499.2 277.5,-499.2"/>
<text text-anchor="start" x="280.5" y="-506.9" font-family="Helvetica,sans-Serif" font-size="11.00" fill="#000000">varchar[14]</text>
<polygon fill="none" stroke="#000000" points="10.5,-477.2 10.5,-499.2 277.5,-499.2 277.5,-477.2 10.5,-477.2"/>
<text text-anchor="start" x="30.5" y="-484.3" font-family="Helvetica,sans-Serif" font-size="11.00" fill="#000000">data_registro</text>
<polygon fill="none" stroke="#000000" points="277.5,-477.2 277.5,-499.2 581.5,-499.2 581.5,-477.2 277.5,-477.2"/>
<text text-anchor="start" x="280.5" y="-484.9" font-family="Helvetica,sans-Serif" font-size="11.00" fill="#000000">date[13]</text>
<polygon fill="none" stroke="#000000" points="10.5,-455.2 10.5,-477.2 277.5,-477.2 277.5,-455.2 10.5,-455.2"/>
<text text-anchor="start" x="30.5" y="-462.3" font-family="Helvetica,sans-Serif" font-size="11.00" fill="#000000">exame_selecao</text>
<polygon fill="none" stroke="#000000" points="277.5,-455.2 277.5,-477.2 581.5,-477.2 581.5,-455.2 277.5,-455.2"/>
<text text-anchor="start" x="280.5" y="-462.9" font-family="Helvetica,sans-Serif" font-size="11.00" fill="#000000">bool[1]</text>
<polygon fill="none" stroke="#000000" points="10.5,-433.2 10.5,-455.2 277.5,-455.2 277.5,-433.2 10.5,-433.2"/>
<text text-anchor="start" x="30.5" y="-440.3" font-family="Helvetica,sans-Serif" font-size="11.00" fill="#000000">compartilha_espaco_comunidade</text>
<polygon fill="none" stroke="#000000" points="277.5,-433.2 277.5,-455.2 581.5,-455.2 581.5,-433.2 277.5,-433.2"/>
<text text-anchor="start" x="280.5" y="-440.9" font-family="Helvetica,sans-Serif" font-size="11.00" fill="#000000">bool[1]</text>
<polygon fill="none" stroke="#000000" points="10.5,-411.2 10.5,-433.2 277.5,-433.2 277.5,-411.2 10.5,-411.2"/>
<text text-anchor="start" x="30.5" y="-418.3" font-family="Helvetica,sans-Serif" font-size="11.00" fill="#000000">usa_espaco_atividade_aluno</text>
<polygon fill="none" stroke="#000000" points="277.5,-411.2 277.5,-433.2 581.5,-433.2 581.5,-411.2 277.5,-411.2"/>
<text text-anchor="start" x="280.5" y="-418.9" font-family="Helvetica,sans-Serif" font-size="11.00" fill="#000000">bool[1]</text>
<polygon fill="none" stroke="#000000" points="10.5,-389.2 10.5,-411.2 277.5,-411.2 277.5,-389.2 10.5,-389.2"/>
<text text-anchor="start" x="30.5" y="-396.3" font-family="Helvetica,sans-Serif" font-size="11.00" fill="#000000">projeto_politico_atualizado</text>
<polygon fill="none" stroke="#000000" points="277.5,-389.2 277.5,-411.2 581.5,-411.2 581.5,-389.2 277.5,-389.2"/>
<text text-anchor="start" x="280.5" y="-396.9" font-family="Helvetica,sans-Serif" font-size="11.00" fill="#000000">&quot;educacao&quot;.&quot;opcoesppp&quot;[2147483647]</text>
<polygon fill="none" stroke="#000000" points="10.5,-367.2 10.5,-389.2 277.5,-389.2 277.5,-367.2 10.5,-367.2"/>
<text text-anchor="start" x="30.5" y="-374.3" font-family="Helvetica,sans-Serif" font-size="11.00" fill="#000000">regulamentacao_autorizacao</text>
<polygon fill="none" stroke="#000000" points="277.5,-367.2 277.5,-389.2 581.5,-389.2 581.5,-367.2 277.5,-367.2"/>
<text text-anchor="start" x="280.5" y="-374.9" font-family="Helvetica,sans-Serif" font-size="11.00" fill="#000000">&quot;educacao&quot;.&quot;situacoesregulamentacao&quot;[2147483647]</text>
<polygon fill="none" stroke="#000000" points="10.5,-345.2 10.5,-367.2 277.5,-367.2 277.5,-345.2 10.5,-345.2"/>
<text text-anchor="start" x="30.5" y="-352.3" font-family="Helvetica,sans-Serif" font-size="11.00" fill="#000000">esfera_administrativa_conselho</text>
<polygon fill="none" stroke="#000000" points="277.5,-345.2 277.5,-367.2 581.5,-367.2 581.5,-345.2 277.5,-345.2"/>
<text text-anchor="start" x="280.5" y="-352.9" font-family="Helvetica,sans-Serif" font-size="11.00" fill="#000000">&quot;educacao&quot;.&quot;esferasadministrativas&quot;[2147483647]</text>
<polygon fill="none" stroke="#000000" points="10.5,-323.2 10.5,-345.2 277.5,-345.2 277.5,-323.2 10.5,-323.2"/>
<text text-anchor="start" x="30.5" y="-330.3" font-family="Helvetica,sans-Serif" font-size="11.00" fill="#000000">cnpj_mantenedora_principal</text>
<polygon fill="none" stroke="#000000" points="277.5,-323.2 277.5,-345.2 581.5,-345.2 581.5,-323.2 277.5,-323.2"/>
<text text-anchor="start" x="280.5" y="-330.9" font-family="Helvetica,sans-Serif" font-size="11.00" fill="#000000">varchar[2147483647]</text>
<polygon fill="none" stroke="#000000" points="10.5,-301.2 10.5,-323.2 277.5,-323.2 277.5,-301.2 10.5,-301.2"/>
<text text-anchor="start" x="30.5" y="-308.3" font-family="Helvetica,sans-Serif" font-size="11.00" fill="#000000">categoria_escola_privada</text>
<polygon fill="none" stroke="#000000" points="277.5,-301.2 277.5,-323.2 581.5,-323.2 581.5,-301.2 277.5,-301.2"/>
<text text-anchor="start" x="280.5" y="-308.9" font-family="Helvetica,sans-Serif" font-size="11.00" fill="#000000">&quot;educacao&quot;.&quot;categoriasescolaprivada&quot;[2147483647]</text>
<polygon fill="none" stroke="#000000" points="10.5,-279.2 10.5,-301.2 277.5,-301.2 277.5,-279.2 10.5,-279.2"/>
<text text-anchor="start" x="30.5" y="-286.3" font-family="Helvetica,sans-Serif" font-size="11.00" fill="#000000">destinacoes_lixos</text>
<polygon fill="none" stroke="#000000" points="277.5,-279.2 277.5,-301.2 581.5,-301.2 581.5,-279.2 277.5,-279.2"/>
<text text-anchor="start" x="280.5" y="-286.9" font-family="Helvetica,sans-Serif" font-size="11.00" fill="#000000">&quot;educacao&quot;.&quot;_tiposdestinacaolixo&quot;[2147483647]</text>
<polygon fill="none" stroke="#000000" points="10.5,-257.2 10.5,-279.2 277.5,-279.2 277.5,-257.2 10.5,-257.2"/>
<text text-anchor="start" x="30.5" y="-264.3" font-family="Helvetica,sans-Serif" font-size="11.00" fill="#000000">esgotos_sanitarios</text>
<polygon fill="none" stroke="#000000" points="277.5,-257.2 277.5,-279.2 581.5,-279.2 581.5,-257.2 277.5,-257.2"/>
<text text-anchor="start" x="280.5" y="-264.9" font-family="Helvetica,sans-Serif" font-size="11.00" fill="#000000">&quot;educacao&quot;.&quot;_tipossaneamento&quot;[2147483647]</text>
<polygon fill="none" stroke="#000000" points="10.5,-235.2 10.5,-257.2 277.5,-257.2 277.5,-235.2 10.5,-235.2"/>
<text text-anchor="start" x="30.5" y="-242.3" font-family="Helvetica,sans-Serif" font-size="11.00" fill="#000000">materias_didaticos</text>
<polygon fill="none" stroke="#000000" points="277.5,-235.2 277.5,-257.2 581.5,-257.2 581.5,-235.2 277.5,-235.2"/>
<text text-anchor="start" x="280.5" y="-242.9" font-family="Helvetica,sans-Serif" font-size="11.00" fill="#000000">&quot;educacao&quot;.&quot;_tiposmateriaisdidaticos&quot;[2147483647]</text>
<polygon fill="none" stroke="#000000" points="10.5,-213.2 10.5,-235.2 277.5,-235.2 277.5,-213.2 10.5,-213.2"/>
<text text-anchor="start" x="30.5" y="-220.3" font-family="Helvetica,sans-Serif" font-size="11.00" fill="#000000">energias_eletricas</text>
<polygon fill="none" stroke="#000000" points="277.5,-213.2 277.5,-235.2 581.5,-235.2 581.5,-213.2 277.5,-213.2"/>
<text text-anchor="start" x="280.5" y="-220.9" font-family="Helvetica,sans-Serif" font-size="11.00" fill="#000000">&quot;educacao&quot;.&quot;_tiposfornecimentoenergia&quot;[2147483647]</text>
<polygon fill="none" stroke="#000000" points="10.5,-191.2 10.5,-213.2 277.5,-213.2 277.5,-191.2 10.5,-191.2"/>
<text text-anchor="start" x="30.5" y="-198.3" font-family="Helvetica,sans-Serif" font-size="11.00" fill="#000000">formas_abastecimentos</text>
<polygon fill="none" stroke="#000000" points="277.5,-191.2 277.5,-213.2 581.5,-213.2 581.5,-191.2 277.5,-191.2"/>
<text text-anchor="start" x="280.472" y="-198.9" font-family="Helvetica,sans-Serif" font-size="11.00" fill="#000000">&quot;educacao&quot;.&quot;_tiposfornecimentoabastecimento&quot;[2147483647]</text>
<polygon fill="none" stroke="#000000" points="10.5,-169.2 10.5,-191.2 277.5,-191.2 277.5,-169.2 10.5,-169.2"/>
<text text-anchor="start" x="30.5" y="-176.3" font-family="Helvetica,sans-Serif" font-size="11.00" fill="#000000">locais_funcionamentos</text>
<polygon fill="none" stroke="#000000" points="277.5,-169.2 277.5,-191.2 581.5,-191.2 581.5,-169.2 277.5,-169.2"/>
<text text-anchor="start" x="280.5" y="-176.9" font-family="Helvetica,sans-Serif" font-size="11.00" fill="#000000">&quot;educacao&quot;.&quot;_tiposlocaisfuncionamento&quot;[2147483647]</text>
<polygon fill="none" stroke="#000000" points="10.5,-147.2 10.5,-169.2 277.5,-169.2 277.5,-147.2 10.5,-147.2"/>
<text text-anchor="start" x="30.5" y="-154.3" font-family="Helvetica,sans-Serif" font-size="11.00" fill="#000000">mantenedoras_escola_privada</text>
<polygon fill="none" stroke="#000000" points="277.5,-147.2 277.5,-169.2 581.5,-169.2 581.5,-147.2 277.5,-147.2"/>
<text text-anchor="start" x="280.5" y="-154.9" font-family="Helvetica,sans-Serif" font-size="11.00" fill="#000000">&quot;educacao&quot;.&quot;_tiposmantenedora&quot;[2147483647]</text>
<polygon fill="none" stroke="#000000" points="10.5,-125.2 10.5,-147.2 277.5,-147.2 277.5,-125.2 10.5,-125.2"/>
<text text-anchor="start" x="30.5" y="-132.3" font-family="Helvetica,sans-Serif" font-size="11.00" fill="#000000">instrumentos_desenvolvimento_atividades</text>
<polygon fill="none" stroke="#000000" points="277.5,-125.2 277.5,-147.2 581.5,-147.2 581.5,-125.2 277.5,-125.2"/>
<text text-anchor="start" x="280.5" y="-132.9" font-family="Helvetica,sans-Serif" font-size="11.00" fill="#000000">&quot;educacao&quot;.&quot;_tiposinstrumento&quot;[2147483647]</text>
<polygon fill="none" stroke="#000000" points="10.5,-103.2 10.5,-125.2 277.5,-125.2 277.5,-103.2 10.5,-103.2"/>
<text text-anchor="start" x="30.5" y="-110.3" font-family="Helvetica,sans-Serif" font-size="11.00" fill="#000000">orgaos_colegiados</text>
<polygon fill="none" stroke="#000000" points="277.5,-103.2 277.5,-125.2 581.5,-125.2 581.5,-103.2 277.5,-103.2"/>
<text text-anchor="start" x="280.5" y="-110.9" font-family="Helvetica,sans-Serif" font-size="11.00" fill="#000000">&quot;educacao&quot;.&quot;_tiposorgaoscolegiados&quot;[2147483647]</text>
<polygon fill="none" stroke="#000000" points="10.5,-81.2 10.5,-103.2 277.5,-103.2 277.5,-81.2 10.5,-81.2"/>
<text text-anchor="start" x="30.5" y="-88.3" font-family="Helvetica,sans-Serif" font-size="11.00" fill="#000000">grupos_cotas</text>
<polygon fill="none" stroke="#000000" points="277.5,-81.2 277.5,-103.2 581.5,-103.2 581.5,-81.2 277.5,-81.2"/>
<text text-anchor="start" x="280.5" y="-88.9" font-family="Helvetica,sans-Serif" font-size="11.00" fill="#000000">&quot;educacao&quot;.&quot;_tiposcotas&quot;[2147483647]</text>
<polygon fill="none" stroke="#000000" points="10.5,-59.2 10.5,-81.2 277.5,-81.2 277.5,-59.2 10.5,-59.2"/>
<text text-anchor="start" x="30.5" y="-66.3" font-family="Helvetica,sans-Serif" font-size="11.00" fill="#000000">formas_organizacao_ensino</text>
<polygon fill="none" stroke="#000000" points="277.5,-59.2 277.5,-81.2 581.5,-81.2 581.5,-59.2 277.5,-59.2"/>
<text text-anchor="start" x="280.5" y="-66.9" font-family="Helvetica,sans-Serif" font-size="11.00" fill="#000000">&quot;educacao&quot;.&quot;_tiposorganizacaoensino&quot;[2147483647]</text>
<polygon fill="#ffffff" stroke="transparent" points="10.5,-40.2 10.5,-59.2 148.5,-59.2 148.5,-40.2 10.5,-40.2"/>
<polygon fill="none" stroke="#000000" points="10.5,-40.2 10.5,-59.2 148.5,-59.2 148.5,-40.2 10.5,-40.2"/>
<text text-anchor="start" x="13.5" y="-46.3" font-family="Helvetica,sans-Serif" font-size="11.00" fill="#000000">&lt; 0</text>
<polygon fill="#ffffff" stroke="transparent" points="148.5,-40.2 148.5,-59.2 277.5,-59.2 277.5,-40.2 148.5,-40.2"/>
<polygon fill="none" stroke="#000000" points="148.5,-40.2 148.5,-59.2 277.5,-59.2 277.5,-40.2 148.5,-40.2"/>
<text text-anchor="start" x="268.3862" y="-46.3" font-family="Helvetica,sans-Serif" font-size="11.00" fill="#000000"> &#160;</text>
<polygon fill="#ffffff" stroke="transparent" points="277.5,-40.2 277.5,-59.2 581.5,-59.2 581.5,-40.2 277.5,-40.2"/>
<polygon fill="none" stroke="#000000" points="277.5,-40.2 277.5,-59.2 581.5,-59.2 581.5,-40.2 277.5,-40.2"/>
<text text-anchor="start" x="562.9053" y="-46.3" font-family="Helvetica,sans-Serif" font-size="11.00" fill="#000000">0 &gt;</text>
<polygon fill="none" stroke="#000000" stroke-width="2" points="9,-39.2 9,-1271.2 582,-1271.2 582,-39.2 9,-39.2"/>
</a>
</g>
</g>
</g>
</svg>
