<?xml version="1.0" encoding="UTF-8" standalone="no"?>
<!DOCTYPE svg PUBLIC "-//W3C//DTD SVG 1.1//EN"
 "http://www.w3.org/Graphics/SVG/1.1/DTD/svg11.dtd">
<!-- Generated by graphviz version 2.40.1 (20161225.0304)
 -->
<!-- Title: oneDegreeRelationshipsDiagram Pages: 1 -->
<svg width="246pt" height="316pt"
 viewBox="0.00 0.00 246.00 316.20" xmlns="http://www.w3.org/2000/svg" xmlns:xlink="http://www.w3.org/1999/xlink">
<g id="graph0" class="graph" transform="scale(1 1) rotate(0) translate(4 312.2)">
<title>oneDegreeRelationshipsDiagram</title>
<polygon fill="#ffffff" stroke="transparent" points="-4,4 -4,-312.2 242,-312.2 242,4 -4,4"/>
<text text-anchor="middle" x="72.4936" y="-7.3" font-family="Helvetica,sans-Serif" font-size="11.00" fill="#000000">Generated by SchemaSpy</text>
<!-- estados -->
<g id="node1" class="node">
<title>estados</title>
<g id="a_node1"><a xlink:href="../../tables/estados.html" xlink:title="estados" target="_top">
<polygon fill="#ffffff" stroke="transparent" points="8,-38.2 8,-304.2 230,-304.2 230,-38.2 8,-38.2"/>
<polygon fill="#f5f5f5" stroke="transparent" points="10,-279.2 10,-302.2 228,-302.2 228,-279.2 10,-279.2"/>
<polygon fill="none" stroke="#000000" points="10,-279.2 10,-302.2 228,-302.2 228,-279.2 10,-279.2"/>
<text text-anchor="start" x="15" y="-287.8" font-family="Helvetica,sans-Serif" font-weight="bold" font-size="11.00" fill="#000000">estados</text>
<text text-anchor="start" x="193.0437" y="-287.3" font-family="Helvetica,sans-Serif" font-size="11.00" fill="#000000">[table]</text>
<polygon fill="none" stroke="#000000" points="10,-257.2 10,-279.2 119,-279.2 119,-257.2 10,-257.2"/>
<text text-anchor="start" x="30" y="-264.3" font-family="Helvetica,sans-Serif" font-size="11.00" fill="#000000">sistema</text>
<polygon fill="none" stroke="#000000" points="119,-257.2 119,-279.2 228,-279.2 228,-257.2 119,-257.2"/>
<text text-anchor="start" x="122" y="-264.9" font-family="Helvetica,sans-Serif" font-size="11.00" fill="#000000">int4[10]</text>
<polygon fill="none" stroke="#000000" points="10,-235.2 10,-257.2 119,-257.2 119,-235.2 10,-235.2"/>
<text text-anchor="start" x="30" y="-242.3" font-family="Helvetica,sans-Serif" font-size="11.00" fill="#000000">tipo_registro</text>
<polygon fill="none" stroke="#000000" points="119,-235.2 119,-257.2 228,-257.2 228,-235.2 119,-235.2"/>
<text text-anchor="start" x="122" y="-242.9" font-family="Helvetica,sans-Serif" font-size="11.00" fill="#000000">text[2147483647]</text>
<polygon fill="none" stroke="#000000" points="10,-213.2 10,-235.2 119,-235.2 119,-213.2 10,-213.2"/>
<text text-anchor="start" x="30" y="-220.3" font-family="Helvetica,sans-Serif" font-size="11.00" fill="#000000">id_integracao</text>
<polygon fill="none" stroke="#000000" points="119,-213.2 119,-235.2 228,-235.2 228,-213.2 119,-213.2"/>
<text text-anchor="start" x="121.5344" y="-220.9" font-family="Helvetica,sans-Serif" font-size="11.00" fill="#000000">varchar[2147483647]</text>
<polygon fill="none" stroke="#000000" points="10,-191.2 10,-213.2 119,-213.2 119,-191.2 10,-191.2"/>
<text text-anchor="start" x="30" y="-198.3" font-family="Helvetica,sans-Serif" font-size="11.00" fill="#000000">id_origem</text>
<polygon fill="none" stroke="#000000" points="119,-191.2 119,-213.2 228,-213.2 228,-191.2 119,-191.2"/>
<text text-anchor="start" x="122" y="-198.9" font-family="Helvetica,sans-Serif" font-size="11.00" fill="#000000">int4[10]</text>
<polygon fill="none" stroke="#000000" points="10,-169.2 10,-191.2 119,-191.2 119,-169.2 10,-169.2"/>
<text text-anchor="start" x="30" y="-176.3" font-family="Helvetica,sans-Serif" font-size="11.00" fill="#000000">id_cloud</text>
<polygon fill="none" stroke="#000000" points="119,-169.2 119,-191.2 228,-191.2 228,-169.2 119,-169.2"/>
<text text-anchor="start" x="122" y="-176.9" font-family="Helvetica,sans-Serif" font-size="11.00" fill="#000000">int4[10]</text>
<polygon fill="none" stroke="#000000" points="10,-147.2 10,-169.2 119,-169.2 119,-147.2 10,-147.2"/>
<text text-anchor="start" x="30" y="-154.3" font-family="Helvetica,sans-Serif" font-size="11.00" fill="#000000">nome</text>
<polygon fill="none" stroke="#000000" points="119,-147.2 119,-169.2 228,-169.2 228,-147.2 119,-147.2"/>
<text text-anchor="start" x="122" y="-154.9" font-family="Helvetica,sans-Serif" font-size="11.00" fill="#000000">varchar[50]</text>
<polygon fill="none" stroke="#000000" points="10,-125.2 10,-147.2 119,-147.2 119,-125.2 10,-125.2"/>
<text text-anchor="start" x="30" y="-132.3" font-family="Helvetica,sans-Serif" font-size="11.00" fill="#000000">uf</text>
<polygon fill="none" stroke="#000000" points="119,-125.2 119,-147.2 228,-147.2 228,-125.2 119,-125.2"/>
<text text-anchor="start" x="122" y="-132.9" font-family="Helvetica,sans-Serif" font-size="11.00" fill="#000000">varchar[2]</text>
<polygon fill="none" stroke="#000000" points="10,-103.2 10,-125.2 119,-125.2 119,-103.2 10,-103.2"/>
<text text-anchor="start" x="30" y="-110.3" font-family="Helvetica,sans-Serif" font-size="11.00" fill="#000000">codigoibge</text>
<polygon fill="none" stroke="#000000" points="119,-103.2 119,-125.2 228,-125.2 228,-103.2 119,-103.2"/>
<text text-anchor="start" x="122" y="-110.9" font-family="Helvetica,sans-Serif" font-size="11.00" fill="#000000">varchar[2]</text>
<polygon fill="none" stroke="#000000" points="10,-81.2 10,-103.2 119,-103.2 119,-81.2 10,-81.2"/>
<image xlink:href="../../images/foreignKeys.png" width="11px" height="12px" preserveAspectRatio="xMinYMin meet" x="15" y="-98.2"/>
<text text-anchor="start" x="30" y="-88.3" font-family="Helvetica,sans-Serif" font-size="11.00" fill="#000000">pais_origem_id</text>
<polygon fill="none" stroke="#000000" points="119,-81.2 119,-103.2 228,-103.2 228,-81.2 119,-81.2"/>
<text text-anchor="start" x="122" y="-88.9" font-family="Helvetica,sans-Serif" font-size="11.00" fill="#000000">int4[10]</text>
<polygon fill="none" stroke="#000000" points="10,-59.2 10,-81.2 119,-81.2 119,-59.2 10,-59.2"/>
<image xlink:href="../../images/foreignKeys.png" width="11px" height="12px" preserveAspectRatio="xMinYMin meet" x="15" y="-76.2"/>
<text text-anchor="start" x="30" y="-66.3" font-family="Helvetica,sans-Serif" font-size="11.00" fill="#000000">pais_cloud_id</text>
<polygon fill="none" stroke="#000000" points="119,-59.2 119,-81.2 228,-81.2 228,-59.2 119,-59.2"/>
<text text-anchor="start" x="122" y="-66.9" font-family="Helvetica,sans-Serif" font-size="11.00" fill="#000000">int4[10]</text>
<polygon fill="#ffffff" stroke="transparent" points="10,-40.2 10,-59.2 69,-59.2 69,-40.2 10,-40.2"/>
<polygon fill="none" stroke="#000000" points="10,-40.2 10,-59.2 69,-59.2 69,-40.2 10,-40.2"/>
<text text-anchor="start" x="13" y="-46.3" font-family="Helvetica,sans-Serif" font-size="11.00" fill="#000000">&lt; 0</text>
<polygon fill="#ffffff" stroke="transparent" points="69,-40.2 69,-59.2 119,-59.2 119,-40.2 69,-40.2"/>
<polygon fill="none" stroke="#000000" points="69,-40.2 69,-59.2 119,-59.2 119,-40.2 69,-40.2"/>
<text text-anchor="start" x="109.8862" y="-46.3" font-family="Helvetica,sans-Serif" font-size="11.00" fill="#000000"> &#160;</text>
<polygon fill="#ffffff" stroke="transparent" points="119,-40.2 119,-59.2 228,-59.2 228,-40.2 119,-40.2"/>
<polygon fill="none" stroke="#000000" points="119,-40.2 119,-59.2 228,-59.2 228,-40.2 119,-40.2"/>
<text text-anchor="start" x="209.4053" y="-46.3" font-family="Helvetica,sans-Serif" font-size="11.00" fill="#000000">0 &gt;</text>
<polygon fill="none" stroke="#000000" stroke-width="2" points="9,-39.2 9,-303.2 229,-303.2 229,-39.2 9,-39.2"/>
</a>
</g>
</g>
</g>
</svg>
