<?xml version="1.0" encoding="UTF-8" standalone="no"?>
<!DOCTYPE svg PUBLIC "-//W3C//DTD SVG 1.1//EN"
 "http://www.w3.org/Graphics/SVG/1.1/DTD/svg11.dtd">
<!-- Generated by graphviz version 2.40.1 (20161225.0304)
 -->
<!-- Title: oneDegreeRelationshipsDiagramImplied Pages: 1 -->
<svg width="706pt" height="514pt"
 viewBox="0.00 0.00 706.00 514.20" xmlns="http://www.w3.org/2000/svg" xmlns:xlink="http://www.w3.org/1999/xlink">
<g id="graph0" class="graph" transform="scale(1 1) rotate(0) translate(4 510.2)">
<title>oneDegreeRelationshipsDiagramImplied</title>
<polygon fill="#ffffff" stroke="transparent" points="-4,4 -4,-510.2 702,-510.2 702,4 -4,4"/>
<text text-anchor="middle" x="72.4936" y="-7.3" font-family="Helvetica,sans-Serif" font-size="11.00" fill="#000000">Generated by SchemaSpy</text>
<!-- estrangeiros -->
<g id="node1" class="node">
<title>estrangeiros</title>
<g id="a_node1"><a xlink:href="../../tables/estrangeiros.html" xlink:title="estrangeiros" target="_top">
<polygon fill="#ffffff" stroke="transparent" points="286,-38.2 286,-502.2 690,-502.2 690,-38.2 286,-38.2"/>
<polygon fill="#f5f5f5" stroke="transparent" points="288,-477.2 288,-500.2 688,-500.2 688,-477.2 288,-477.2"/>
<polygon fill="none" stroke="#000000" points="288,-477.2 288,-500.2 688,-500.2 688,-477.2 288,-477.2"/>
<text text-anchor="start" x="293" y="-485.8" font-family="Helvetica,sans-Serif" font-weight="bold" font-size="11.00" fill="#000000">estrangeiros</text>
<text text-anchor="start" x="653.0437" y="-485.3" font-family="Helvetica,sans-Serif" font-size="11.00" fill="#000000">[table]</text>
<polygon fill="none" stroke="#000000" points="288,-455.2 288,-477.2 503,-477.2 503,-455.2 288,-455.2"/>
<text text-anchor="start" x="308" y="-462.3" font-family="Helvetica,sans-Serif" font-size="11.00" fill="#000000">sistema</text>
<polygon fill="none" stroke="#000000" points="503,-455.2 503,-477.2 688,-477.2 688,-455.2 503,-455.2"/>
<text text-anchor="start" x="506" y="-462.9" font-family="Helvetica,sans-Serif" font-size="11.00" fill="#000000">int4[10]</text>
<polygon fill="none" stroke="#000000" points="288,-433.2 288,-455.2 503,-455.2 503,-433.2 288,-433.2"/>
<text text-anchor="start" x="308" y="-440.3" font-family="Helvetica,sans-Serif" font-size="11.00" fill="#000000">tipo_registro</text>
<polygon fill="none" stroke="#000000" points="503,-433.2 503,-455.2 688,-455.2 688,-433.2 503,-433.2"/>
<text text-anchor="start" x="506" y="-440.9" font-family="Helvetica,sans-Serif" font-size="11.00" fill="#000000">text[2147483647]</text>
<polygon fill="none" stroke="#000000" points="288,-411.2 288,-433.2 503,-433.2 503,-411.2 288,-411.2"/>
<text text-anchor="start" x="308" y="-418.3" font-family="Helvetica,sans-Serif" font-size="11.00" fill="#000000">id_integracao</text>
<polygon fill="none" stroke="#000000" points="503,-411.2 503,-433.2 688,-433.2 688,-411.2 503,-411.2"/>
<text text-anchor="start" x="506" y="-418.9" font-family="Helvetica,sans-Serif" font-size="11.00" fill="#000000">varchar[2147483647]</text>
<polygon fill="none" stroke="#000000" points="288,-389.2 288,-411.2 503,-411.2 503,-389.2 288,-389.2"/>
<text text-anchor="start" x="308" y="-396.3" font-family="Helvetica,sans-Serif" font-size="11.00" fill="#000000">id_origem</text>
<polygon fill="none" stroke="#000000" points="503,-389.2 503,-411.2 688,-411.2 688,-389.2 503,-389.2"/>
<text text-anchor="start" x="506" y="-396.9" font-family="Helvetica,sans-Serif" font-size="11.00" fill="#000000">int4[10]</text>
<polygon fill="none" stroke="#000000" points="288,-367.2 288,-389.2 503,-389.2 503,-367.2 288,-367.2"/>
<text text-anchor="start" x="308" y="-374.3" font-family="Helvetica,sans-Serif" font-size="11.00" fill="#000000">id_cloud</text>
<polygon fill="none" stroke="#000000" points="503,-367.2 503,-389.2 688,-389.2 688,-367.2 503,-367.2"/>
<text text-anchor="start" x="506" y="-374.9" font-family="Helvetica,sans-Serif" font-size="11.00" fill="#000000">int4[10]</text>
<polygon fill="none" stroke="#000000" points="288,-345.2 288,-367.2 503,-367.2 503,-345.2 288,-345.2"/>
<image xlink:href="../../images/foreignKeys.png" width="11px" height="12px" preserveAspectRatio="xMinYMin meet" x="293" y="-362.2"/>
<text text-anchor="start" x="308" y="-352.3" font-family="Helvetica,sans-Serif" font-size="11.00" fill="#000000">pessoa_origem_id</text>
<polygon fill="none" stroke="#000000" points="503,-345.2 503,-367.2 688,-367.2 688,-345.2 503,-345.2"/>
<text text-anchor="start" x="506" y="-352.9" font-family="Helvetica,sans-Serif" font-size="11.00" fill="#000000">int4[10]</text>
<polygon fill="none" stroke="#000000" points="288,-323.2 288,-345.2 503,-345.2 503,-323.2 288,-323.2"/>
<image xlink:href="../../images/foreignKeys.png" width="11px" height="12px" preserveAspectRatio="xMinYMin meet" x="293" y="-340.2"/>
<text text-anchor="start" x="308" y="-330.3" font-family="Helvetica,sans-Serif" font-size="11.00" fill="#000000">pessoa_cloud_id</text>
<polygon fill="none" stroke="#000000" points="503,-323.2 503,-345.2 688,-345.2 688,-323.2 503,-323.2"/>
<text text-anchor="start" x="506" y="-330.9" font-family="Helvetica,sans-Serif" font-size="11.00" fill="#000000">int4[10]</text>
<polygon fill="none" stroke="#000000" points="288,-301.2 288,-323.2 503,-323.2 503,-301.2 288,-301.2"/>
<text text-anchor="start" x="308" y="-308.3" font-family="Helvetica,sans-Serif" font-size="11.00" fill="#000000">identidade</text>
<polygon fill="none" stroke="#000000" points="503,-301.2 503,-323.2 688,-323.2 688,-301.2 503,-301.2"/>
<text text-anchor="start" x="506" y="-308.9" font-family="Helvetica,sans-Serif" font-size="11.00" fill="#000000">varchar[20]</text>
<polygon fill="none" stroke="#000000" points="288,-279.2 288,-301.2 503,-301.2 503,-279.2 288,-279.2"/>
<text text-anchor="start" x="308" y="-286.3" font-family="Helvetica,sans-Serif" font-size="11.00" fill="#000000">orgao_emissor_identidade</text>
<polygon fill="none" stroke="#000000" points="503,-279.2 503,-301.2 688,-301.2 688,-279.2 503,-279.2"/>
<text text-anchor="start" x="506" y="-286.9" font-family="Helvetica,sans-Serif" font-size="11.00" fill="#000000">varchar[8]</text>
<polygon fill="none" stroke="#000000" points="288,-257.2 288,-279.2 503,-279.2 503,-257.2 288,-257.2"/>
<text text-anchor="start" x="308" y="-264.3" font-family="Helvetica,sans-Serif" font-size="11.00" fill="#000000">data_chegada</text>
<polygon fill="none" stroke="#000000" points="503,-257.2 503,-279.2 688,-279.2 688,-257.2 503,-257.2"/>
<text text-anchor="start" x="506" y="-264.9" font-family="Helvetica,sans-Serif" font-size="11.00" fill="#000000">varchar[2147483647]</text>
<polygon fill="none" stroke="#000000" points="288,-235.2 288,-257.2 503,-257.2 503,-235.2 288,-235.2"/>
<text text-anchor="start" x="308" y="-242.3" font-family="Helvetica,sans-Serif" font-size="11.00" fill="#000000">ano_chegada</text>
<polygon fill="none" stroke="#000000" points="503,-235.2 503,-257.2 688,-257.2 688,-235.2 503,-235.2"/>
<text text-anchor="start" x="506" y="-242.9" font-family="Helvetica,sans-Serif" font-size="11.00" fill="#000000">varchar[2147483647]</text>
<polygon fill="none" stroke="#000000" points="288,-213.2 288,-235.2 503,-235.2 503,-213.2 288,-213.2"/>
<text text-anchor="start" x="308" y="-220.3" font-family="Helvetica,sans-Serif" font-size="11.00" fill="#000000">tipo_visto</text>
<polygon fill="none" stroke="#000000" points="503,-213.2 503,-235.2 688,-235.2 688,-213.2 503,-213.2"/>
<text text-anchor="start" x="505.7675" y="-220.9" font-family="Helvetica,sans-Serif" font-size="11.00" fill="#000000">&quot;educacao&quot;.&quot;tiposvisto&quot;[2147483647]</text>
<polygon fill="none" stroke="#000000" points="288,-191.2 288,-213.2 503,-213.2 503,-191.2 288,-191.2"/>
<text text-anchor="start" x="308" y="-198.3" font-family="Helvetica,sans-Serif" font-size="11.00" fill="#000000">carteira_trabalho</text>
<polygon fill="none" stroke="#000000" points="503,-191.2 503,-213.2 688,-213.2 688,-191.2 503,-191.2"/>
<text text-anchor="start" x="506" y="-198.9" font-family="Helvetica,sans-Serif" font-size="11.00" fill="#000000">varchar[2147483647]</text>
<polygon fill="none" stroke="#000000" points="288,-169.2 288,-191.2 503,-191.2 503,-169.2 288,-169.2"/>
<text text-anchor="start" x="308" y="-176.3" font-family="Helvetica,sans-Serif" font-size="11.00" fill="#000000">serie_carteira_trabalho</text>
<polygon fill="none" stroke="#000000" points="503,-169.2 503,-191.2 688,-191.2 688,-169.2 503,-169.2"/>
<text text-anchor="start" x="506" y="-176.9" font-family="Helvetica,sans-Serif" font-size="11.00" fill="#000000">varchar[2147483647]</text>
<polygon fill="none" stroke="#000000" points="288,-147.2 288,-169.2 503,-169.2 503,-147.2 288,-147.2"/>
<text text-anchor="start" x="308" y="-154.3" font-family="Helvetica,sans-Serif" font-size="11.00" fill="#000000">data_expedicao_carteira_trabalho</text>
<polygon fill="none" stroke="#000000" points="503,-147.2 503,-169.2 688,-169.2 688,-147.2 503,-147.2"/>
<text text-anchor="start" x="506" y="-154.9" font-family="Helvetica,sans-Serif" font-size="11.00" fill="#000000">date[13]</text>
<polygon fill="none" stroke="#000000" points="288,-125.2 288,-147.2 503,-147.2 503,-125.2 288,-125.2"/>
<text text-anchor="start" x="308" y="-132.3" font-family="Helvetica,sans-Serif" font-size="11.00" fill="#000000">data_expedicao_identidade</text>
<polygon fill="none" stroke="#000000" points="503,-125.2 503,-147.2 688,-147.2 688,-125.2 503,-125.2"/>
<text text-anchor="start" x="506" y="-132.9" font-family="Helvetica,sans-Serif" font-size="11.00" fill="#000000">date[13]</text>
<polygon fill="none" stroke="#000000" points="288,-103.2 288,-125.2 503,-125.2 503,-103.2 288,-103.2"/>
<text text-anchor="start" x="308" y="-110.3" font-family="Helvetica,sans-Serif" font-size="11.00" fill="#000000">data_validade_identidade</text>
<polygon fill="none" stroke="#000000" points="503,-103.2 503,-125.2 688,-125.2 688,-103.2 503,-103.2"/>
<text text-anchor="start" x="506" y="-110.9" font-family="Helvetica,sans-Serif" font-size="11.00" fill="#000000">date[13]</text>
<polygon fill="none" stroke="#000000" points="288,-81.2 288,-103.2 503,-103.2 503,-81.2 288,-81.2"/>
<text text-anchor="start" x="308" y="-88.3" font-family="Helvetica,sans-Serif" font-size="11.00" fill="#000000">data_validade_carteira_trabalho</text>
<polygon fill="none" stroke="#000000" points="503,-81.2 503,-103.2 688,-103.2 688,-81.2 503,-81.2"/>
<text text-anchor="start" x="506" y="-88.9" font-family="Helvetica,sans-Serif" font-size="11.00" fill="#000000">date[13]</text>
<polygon fill="none" stroke="#000000" points="288,-59.2 288,-81.2 503,-81.2 503,-59.2 288,-59.2"/>
<text text-anchor="start" x="308" y="-66.3" font-family="Helvetica,sans-Serif" font-size="11.00" fill="#000000">data_validade_visto</text>
<polygon fill="none" stroke="#000000" points="503,-59.2 503,-81.2 688,-81.2 688,-59.2 503,-59.2"/>
<text text-anchor="start" x="506" y="-66.9" font-family="Helvetica,sans-Serif" font-size="11.00" fill="#000000">date[13]</text>
<polygon fill="#ffffff" stroke="transparent" points="288,-40.2 288,-59.2 400,-59.2 400,-40.2 288,-40.2"/>
<polygon fill="none" stroke="#000000" points="288,-40.2 288,-59.2 400,-59.2 400,-40.2 288,-40.2"/>
<text text-anchor="start" x="291" y="-46.3" font-family="Helvetica,sans-Serif" font-size="11.00" fill="#000000">&lt; 2</text>
<polygon fill="#ffffff" stroke="transparent" points="400,-40.2 400,-59.2 503,-59.2 503,-40.2 400,-40.2"/>
<polygon fill="none" stroke="#000000" points="400,-40.2 400,-59.2 503,-59.2 503,-40.2 400,-40.2"/>
<text text-anchor="start" x="493.8862" y="-46.3" font-family="Helvetica,sans-Serif" font-size="11.00" fill="#000000"> &#160;</text>
<polygon fill="#ffffff" stroke="transparent" points="503,-40.2 503,-59.2 688,-59.2 688,-40.2 503,-40.2"/>
<polygon fill="none" stroke="#000000" points="503,-40.2 503,-59.2 688,-59.2 688,-40.2 503,-40.2"/>
<text text-anchor="start" x="669.4053" y="-46.3" font-family="Helvetica,sans-Serif" font-size="11.00" fill="#000000">0 &gt;</text>
<polygon fill="none" stroke="#000000" stroke-width="2" points="287,-39.2 287,-501.2 689,-501.2 689,-39.2 287,-39.2"/>
</a>
</g>
</g>
<!-- inscricao_lista_espera_situacoes -->
<g id="node2" class="node">
<title>inscricao_lista_espera_situacoes</title>
<g id="a_node2"><a xlink:href="../../tables/inscricao_lista_espera_situacoes.html" xlink:title="inscricao_lista_espera_situacoes" target="_top">
<polygon fill="#ffffff" stroke="transparent" points="8,-296.7 8,-379.7 237,-379.7 237,-296.7 8,-296.7"/>
<polygon fill="#f5f5f5" stroke="transparent" points="8.5,-356.2 8.5,-379.2 237.5,-379.2 237.5,-356.2 8.5,-356.2"/>
<polygon fill="none" stroke="#000000" points="8.5,-356.2 8.5,-379.2 237.5,-379.2 237.5,-356.2 8.5,-356.2"/>
<text text-anchor="start" x="13.5" y="-364.8" font-family="Helvetica,sans-Serif" font-weight="bold" font-size="11.00" fill="#000000">inscricao_lista_espera_situacoes</text>
<text text-anchor="start" x="203.0219" y="-364.3" font-family="Helvetica,sans-Serif" font-size="11.00" fill="#000000">[table]</text>
<polygon fill="none" stroke="#000000" points="8.5,-334.2 8.5,-356.2 237.5,-356.2 237.5,-334.2 8.5,-334.2"/>
<image xlink:href="../../images/primaryKeys.png" width="11px" height="12px" preserveAspectRatio="xMinYMin meet" x="13.5" y="-351.2"/>
<text text-anchor="start" x="37.5" y="-341.3" font-family="Helvetica,sans-Serif" font-size="11.00" fill="#000000">id</text>
<polygon fill="none" stroke="#000000" points="8.5,-315.2 8.5,-334.2 237.5,-334.2 237.5,-315.2 8.5,-315.2"/>
<text text-anchor="start" x="11.5" y="-321.3" font-family="Helvetica,sans-Serif" font-size="11.00" fill="#000000">...</text>
<polygon fill="#ffffff" stroke="transparent" points="8.5,-296.2 8.5,-315.2 106.5,-315.2 106.5,-296.2 8.5,-296.2"/>
<polygon fill="none" stroke="#000000" points="8.5,-296.2 8.5,-315.2 106.5,-315.2 106.5,-296.2 8.5,-296.2"/>
<text text-anchor="start" x="11.5" y="-302.3" font-family="Helvetica,sans-Serif" font-size="11.00" fill="#000000"> &#160;</text>
<polygon fill="#ffffff" stroke="transparent" points="106.5,-296.2 106.5,-315.2 161.5,-315.2 161.5,-296.2 106.5,-296.2"/>
<polygon fill="none" stroke="#000000" points="106.5,-296.2 106.5,-315.2 161.5,-315.2 161.5,-296.2 106.5,-296.2"/>
<text text-anchor="start" x="152.3862" y="-302.3" font-family="Helvetica,sans-Serif" font-size="11.00" fill="#000000"> &#160;</text>
<polygon fill="#ffffff" stroke="transparent" points="161.5,-296.2 161.5,-315.2 237.5,-315.2 237.5,-296.2 161.5,-296.2"/>
<polygon fill="none" stroke="#000000" points="161.5,-296.2 161.5,-315.2 237.5,-315.2 237.5,-296.2 161.5,-296.2"/>
<text text-anchor="start" x="206.6755" y="-302.3" font-family="Helvetica,sans-Serif" font-size="11.00" fill="#000000">596 &gt;</text>
</a>
</g>
</g>
<!-- estrangeiros&#45;&gt;inscricao_lista_espera_situacoes -->
<g id="edge1" class="edge">
<title>estrangeiros:w&#45;&gt;inscricao_lista_espera_situacoes:e</title>
<path fill="none" stroke="#000000" stroke-dasharray="5,2" d="M273.6489,-335.9188C261.5992,-339.0125 254.728,-345.2 237.5,-345.2"/>
<polygon fill="#000000" stroke="#000000" points="280.0568,-335.1514 288.4281,-337.7745 284.0284,-334.6757 288,-334.2 288,-334.2 288,-334.2 284.0284,-334.6757 287.5719,-330.6255 280.0568,-335.1514 280.0568,-335.1514"/>
<ellipse fill="none" stroke="#000000" cx="276.8795" cy="-335.5319" rx="3.2" ry="3.2"/>
</g>
<!-- estrangeiros&#45;&gt;inscricao_lista_espera_situacoes -->
<g id="edge2" class="edge">
<title>estrangeiros:w&#45;&gt;inscricao_lista_espera_situacoes:e</title>
<path fill="none" stroke="#000000" stroke-dasharray="5,2" d="M273.6489,-354.4813C261.5992,-351.3875 254.728,-345.2 237.5,-345.2"/>
<polygon fill="#000000" stroke="#000000" points="280.0568,-355.2486 287.5719,-359.7745 284.0284,-355.7243 288,-356.2 288,-356.2 288,-356.2 284.0284,-355.7243 288.4281,-352.6255 280.0568,-355.2486 280.0568,-355.2486"/>
<ellipse fill="none" stroke="#000000" cx="276.8795" cy="-354.8681" rx="3.2" ry="3.2"/>
</g>
</g>
</svg>
