<?xml version="1.0" encoding="UTF-8" standalone="no"?>
<!DOCTYPE svg PUBLIC "-//W3C//DTD SVG 1.1//EN"
 "http://www.w3.org/Graphics/SVG/1.1/DTD/svg11.dtd">
<!-- Generated by graphviz version 2.40.1 (20161225.0304)
 -->
<!-- Title: oneDegreeRelationshipsDiagram Pages: 1 -->
<svg width="428pt" height="514pt"
 viewBox="0.00 0.00 428.00 514.20" xmlns="http://www.w3.org/2000/svg" xmlns:xlink="http://www.w3.org/1999/xlink">
<g id="graph0" class="graph" transform="scale(1 1) rotate(0) translate(4 510.2)">
<title>oneDegreeRelationshipsDiagram</title>
<polygon fill="#ffffff" stroke="transparent" points="-4,4 -4,-510.2 424,-510.2 424,4 -4,4"/>
<text text-anchor="middle" x="72.4936" y="-7.3" font-family="Helvetica,sans-Serif" font-size="11.00" fill="#000000">Generated by SchemaSpy</text>
<!-- estrangeiros -->
<g id="node1" class="node">
<title>estrangeiros</title>
<g id="a_node1"><a xlink:href="../../tables/estrangeiros.html" xlink:title="estrangeiros" target="_top">
<polygon fill="#ffffff" stroke="transparent" points="8,-38.2 8,-502.2 412,-502.2 412,-38.2 8,-38.2"/>
<polygon fill="#f5f5f5" stroke="transparent" points="10,-477.2 10,-500.2 410,-500.2 410,-477.2 10,-477.2"/>
<polygon fill="none" stroke="#000000" points="10,-477.2 10,-500.2 410,-500.2 410,-477.2 10,-477.2"/>
<text text-anchor="start" x="15" y="-485.8" font-family="Helvetica,sans-Serif" font-weight="bold" font-size="11.00" fill="#000000">estrangeiros</text>
<text text-anchor="start" x="375.0437" y="-485.3" font-family="Helvetica,sans-Serif" font-size="11.00" fill="#000000">[table]</text>
<polygon fill="none" stroke="#000000" points="10,-455.2 10,-477.2 225,-477.2 225,-455.2 10,-455.2"/>
<text text-anchor="start" x="30" y="-462.3" font-family="Helvetica,sans-Serif" font-size="11.00" fill="#000000">sistema</text>
<polygon fill="none" stroke="#000000" points="225,-455.2 225,-477.2 410,-477.2 410,-455.2 225,-455.2"/>
<text text-anchor="start" x="228" y="-462.9" font-family="Helvetica,sans-Serif" font-size="11.00" fill="#000000">int4[10]</text>
<polygon fill="none" stroke="#000000" points="10,-433.2 10,-455.2 225,-455.2 225,-433.2 10,-433.2"/>
<text text-anchor="start" x="30" y="-440.3" font-family="Helvetica,sans-Serif" font-size="11.00" fill="#000000">tipo_registro</text>
<polygon fill="none" stroke="#000000" points="225,-433.2 225,-455.2 410,-455.2 410,-433.2 225,-433.2"/>
<text text-anchor="start" x="228" y="-440.9" font-family="Helvetica,sans-Serif" font-size="11.00" fill="#000000">text[2147483647]</text>
<polygon fill="none" stroke="#000000" points="10,-411.2 10,-433.2 225,-433.2 225,-411.2 10,-411.2"/>
<text text-anchor="start" x="30" y="-418.3" font-family="Helvetica,sans-Serif" font-size="11.00" fill="#000000">id_integracao</text>
<polygon fill="none" stroke="#000000" points="225,-411.2 225,-433.2 410,-433.2 410,-411.2 225,-411.2"/>
<text text-anchor="start" x="228" y="-418.9" font-family="Helvetica,sans-Serif" font-size="11.00" fill="#000000">varchar[2147483647]</text>
<polygon fill="none" stroke="#000000" points="10,-389.2 10,-411.2 225,-411.2 225,-389.2 10,-389.2"/>
<text text-anchor="start" x="30" y="-396.3" font-family="Helvetica,sans-Serif" font-size="11.00" fill="#000000">id_origem</text>
<polygon fill="none" stroke="#000000" points="225,-389.2 225,-411.2 410,-411.2 410,-389.2 225,-389.2"/>
<text text-anchor="start" x="228" y="-396.9" font-family="Helvetica,sans-Serif" font-size="11.00" fill="#000000">int4[10]</text>
<polygon fill="none" stroke="#000000" points="10,-367.2 10,-389.2 225,-389.2 225,-367.2 10,-367.2"/>
<text text-anchor="start" x="30" y="-374.3" font-family="Helvetica,sans-Serif" font-size="11.00" fill="#000000">id_cloud</text>
<polygon fill="none" stroke="#000000" points="225,-367.2 225,-389.2 410,-389.2 410,-367.2 225,-367.2"/>
<text text-anchor="start" x="228" y="-374.9" font-family="Helvetica,sans-Serif" font-size="11.00" fill="#000000">int4[10]</text>
<polygon fill="none" stroke="#000000" points="10,-345.2 10,-367.2 225,-367.2 225,-345.2 10,-345.2"/>
<image xlink:href="../../images/foreignKeys.png" width="11px" height="12px" preserveAspectRatio="xMinYMin meet" x="15" y="-362.2"/>
<text text-anchor="start" x="30" y="-352.3" font-family="Helvetica,sans-Serif" font-size="11.00" fill="#000000">pessoa_origem_id</text>
<polygon fill="none" stroke="#000000" points="225,-345.2 225,-367.2 410,-367.2 410,-345.2 225,-345.2"/>
<text text-anchor="start" x="228" y="-352.9" font-family="Helvetica,sans-Serif" font-size="11.00" fill="#000000">int4[10]</text>
<polygon fill="none" stroke="#000000" points="10,-323.2 10,-345.2 225,-345.2 225,-323.2 10,-323.2"/>
<image xlink:href="../../images/foreignKeys.png" width="11px" height="12px" preserveAspectRatio="xMinYMin meet" x="15" y="-340.2"/>
<text text-anchor="start" x="30" y="-330.3" font-family="Helvetica,sans-Serif" font-size="11.00" fill="#000000">pessoa_cloud_id</text>
<polygon fill="none" stroke="#000000" points="225,-323.2 225,-345.2 410,-345.2 410,-323.2 225,-323.2"/>
<text text-anchor="start" x="228" y="-330.9" font-family="Helvetica,sans-Serif" font-size="11.00" fill="#000000">int4[10]</text>
<polygon fill="none" stroke="#000000" points="10,-301.2 10,-323.2 225,-323.2 225,-301.2 10,-301.2"/>
<text text-anchor="start" x="30" y="-308.3" font-family="Helvetica,sans-Serif" font-size="11.00" fill="#000000">identidade</text>
<polygon fill="none" stroke="#000000" points="225,-301.2 225,-323.2 410,-323.2 410,-301.2 225,-301.2"/>
<text text-anchor="start" x="228" y="-308.9" font-family="Helvetica,sans-Serif" font-size="11.00" fill="#000000">varchar[20]</text>
<polygon fill="none" stroke="#000000" points="10,-279.2 10,-301.2 225,-301.2 225,-279.2 10,-279.2"/>
<text text-anchor="start" x="30" y="-286.3" font-family="Helvetica,sans-Serif" font-size="11.00" fill="#000000">orgao_emissor_identidade</text>
<polygon fill="none" stroke="#000000" points="225,-279.2 225,-301.2 410,-301.2 410,-279.2 225,-279.2"/>
<text text-anchor="start" x="228" y="-286.9" font-family="Helvetica,sans-Serif" font-size="11.00" fill="#000000">varchar[8]</text>
<polygon fill="none" stroke="#000000" points="10,-257.2 10,-279.2 225,-279.2 225,-257.2 10,-257.2"/>
<text text-anchor="start" x="30" y="-264.3" font-family="Helvetica,sans-Serif" font-size="11.00" fill="#000000">data_chegada</text>
<polygon fill="none" stroke="#000000" points="225,-257.2 225,-279.2 410,-279.2 410,-257.2 225,-257.2"/>
<text text-anchor="start" x="228" y="-264.9" font-family="Helvetica,sans-Serif" font-size="11.00" fill="#000000">varchar[2147483647]</text>
<polygon fill="none" stroke="#000000" points="10,-235.2 10,-257.2 225,-257.2 225,-235.2 10,-235.2"/>
<text text-anchor="start" x="30" y="-242.3" font-family="Helvetica,sans-Serif" font-size="11.00" fill="#000000">ano_chegada</text>
<polygon fill="none" stroke="#000000" points="225,-235.2 225,-257.2 410,-257.2 410,-235.2 225,-235.2"/>
<text text-anchor="start" x="228" y="-242.9" font-family="Helvetica,sans-Serif" font-size="11.00" fill="#000000">varchar[2147483647]</text>
<polygon fill="none" stroke="#000000" points="10,-213.2 10,-235.2 225,-235.2 225,-213.2 10,-213.2"/>
<text text-anchor="start" x="30" y="-220.3" font-family="Helvetica,sans-Serif" font-size="11.00" fill="#000000">tipo_visto</text>
<polygon fill="none" stroke="#000000" points="225,-213.2 225,-235.2 410,-235.2 410,-213.2 225,-213.2"/>
<text text-anchor="start" x="227.7675" y="-220.9" font-family="Helvetica,sans-Serif" font-size="11.00" fill="#000000">&quot;educacao&quot;.&quot;tiposvisto&quot;[2147483647]</text>
<polygon fill="none" stroke="#000000" points="10,-191.2 10,-213.2 225,-213.2 225,-191.2 10,-191.2"/>
<text text-anchor="start" x="30" y="-198.3" font-family="Helvetica,sans-Serif" font-size="11.00" fill="#000000">carteira_trabalho</text>
<polygon fill="none" stroke="#000000" points="225,-191.2 225,-213.2 410,-213.2 410,-191.2 225,-191.2"/>
<text text-anchor="start" x="228" y="-198.9" font-family="Helvetica,sans-Serif" font-size="11.00" fill="#000000">varchar[2147483647]</text>
<polygon fill="none" stroke="#000000" points="10,-169.2 10,-191.2 225,-191.2 225,-169.2 10,-169.2"/>
<text text-anchor="start" x="30" y="-176.3" font-family="Helvetica,sans-Serif" font-size="11.00" fill="#000000">serie_carteira_trabalho</text>
<polygon fill="none" stroke="#000000" points="225,-169.2 225,-191.2 410,-191.2 410,-169.2 225,-169.2"/>
<text text-anchor="start" x="228" y="-176.9" font-family="Helvetica,sans-Serif" font-size="11.00" fill="#000000">varchar[2147483647]</text>
<polygon fill="none" stroke="#000000" points="10,-147.2 10,-169.2 225,-169.2 225,-147.2 10,-147.2"/>
<text text-anchor="start" x="30" y="-154.3" font-family="Helvetica,sans-Serif" font-size="11.00" fill="#000000">data_expedicao_carteira_trabalho</text>
<polygon fill="none" stroke="#000000" points="225,-147.2 225,-169.2 410,-169.2 410,-147.2 225,-147.2"/>
<text text-anchor="start" x="228" y="-154.9" font-family="Helvetica,sans-Serif" font-size="11.00" fill="#000000">date[13]</text>
<polygon fill="none" stroke="#000000" points="10,-125.2 10,-147.2 225,-147.2 225,-125.2 10,-125.2"/>
<text text-anchor="start" x="30" y="-132.3" font-family="Helvetica,sans-Serif" font-size="11.00" fill="#000000">data_expedicao_identidade</text>
<polygon fill="none" stroke="#000000" points="225,-125.2 225,-147.2 410,-147.2 410,-125.2 225,-125.2"/>
<text text-anchor="start" x="228" y="-132.9" font-family="Helvetica,sans-Serif" font-size="11.00" fill="#000000">date[13]</text>
<polygon fill="none" stroke="#000000" points="10,-103.2 10,-125.2 225,-125.2 225,-103.2 10,-103.2"/>
<text text-anchor="start" x="30" y="-110.3" font-family="Helvetica,sans-Serif" font-size="11.00" fill="#000000">data_validade_identidade</text>
<polygon fill="none" stroke="#000000" points="225,-103.2 225,-125.2 410,-125.2 410,-103.2 225,-103.2"/>
<text text-anchor="start" x="228" y="-110.9" font-family="Helvetica,sans-Serif" font-size="11.00" fill="#000000">date[13]</text>
<polygon fill="none" stroke="#000000" points="10,-81.2 10,-103.2 225,-103.2 225,-81.2 10,-81.2"/>
<text text-anchor="start" x="30" y="-88.3" font-family="Helvetica,sans-Serif" font-size="11.00" fill="#000000">data_validade_carteira_trabalho</text>
<polygon fill="none" stroke="#000000" points="225,-81.2 225,-103.2 410,-103.2 410,-81.2 225,-81.2"/>
<text text-anchor="start" x="228" y="-88.9" font-family="Helvetica,sans-Serif" font-size="11.00" fill="#000000">date[13]</text>
<polygon fill="none" stroke="#000000" points="10,-59.2 10,-81.2 225,-81.2 225,-59.2 10,-59.2"/>
<text text-anchor="start" x="30" y="-66.3" font-family="Helvetica,sans-Serif" font-size="11.00" fill="#000000">data_validade_visto</text>
<polygon fill="none" stroke="#000000" points="225,-59.2 225,-81.2 410,-81.2 410,-59.2 225,-59.2"/>
<text text-anchor="start" x="228" y="-66.9" font-family="Helvetica,sans-Serif" font-size="11.00" fill="#000000">date[13]</text>
<polygon fill="#ffffff" stroke="transparent" points="10,-40.2 10,-59.2 122,-59.2 122,-40.2 10,-40.2"/>
<polygon fill="none" stroke="#000000" points="10,-40.2 10,-59.2 122,-59.2 122,-40.2 10,-40.2"/>
<text text-anchor="start" x="13" y="-46.3" font-family="Helvetica,sans-Serif" font-size="11.00" fill="#000000">&lt; 0</text>
<polygon fill="#ffffff" stroke="transparent" points="122,-40.2 122,-59.2 225,-59.2 225,-40.2 122,-40.2"/>
<polygon fill="none" stroke="#000000" points="122,-40.2 122,-59.2 225,-59.2 225,-40.2 122,-40.2"/>
<text text-anchor="start" x="215.8862" y="-46.3" font-family="Helvetica,sans-Serif" font-size="11.00" fill="#000000"> &#160;</text>
<polygon fill="#ffffff" stroke="transparent" points="225,-40.2 225,-59.2 410,-59.2 410,-40.2 225,-40.2"/>
<polygon fill="none" stroke="#000000" points="225,-40.2 225,-59.2 410,-59.2 410,-40.2 225,-40.2"/>
<text text-anchor="start" x="391.4053" y="-46.3" font-family="Helvetica,sans-Serif" font-size="11.00" fill="#000000">0 &gt;</text>
<polygon fill="none" stroke="#000000" stroke-width="2" points="9,-39.2 9,-501.2 411,-501.2 411,-39.2 9,-39.2"/>
</a>
</g>
</g>
</g>
</svg>
