<?xml version="1.0" encoding="UTF-8" standalone="no"?>
<!DOCTYPE svg PUBLIC "-//W3C//DTD SVG 1.1//EN"
 "http://www.w3.org/Graphics/SVG/1.1/DTD/svg11.dtd">
<!-- Generated by graphviz version 2.40.1 (20161225.0304)
 -->
<!-- Title: oneDegreeRelationshipsDiagram Pages: 1 -->
<svg width="427pt" height="316pt"
 viewBox="0.00 0.00 427.00 316.20" xmlns="http://www.w3.org/2000/svg" xmlns:xlink="http://www.w3.org/1999/xlink">
<g id="graph0" class="graph" transform="scale(1 1) rotate(0) translate(4 312.2)">
<title>oneDegreeRelationshipsDiagram</title>
<polygon fill="#ffffff" stroke="transparent" points="-4,4 -4,-312.2 423,-312.2 423,4 -4,4"/>
<text text-anchor="middle" x="72.4936" y="-7.3" font-family="Helvetica,sans-Serif" font-size="11.00" fill="#000000">Generated by SchemaSpy</text>
<!-- etapas_niveis_matriculas -->
<g id="node1" class="node">
<title>etapas_niveis_matriculas</title>
<g id="a_node1"><a xlink:href="../../tables/etapas_niveis_matriculas.html" xlink:title="etapas_niveis_matriculas" target="_top">
<polygon fill="#ffffff" stroke="transparent" points="8,-38.2 8,-304.2 411,-304.2 411,-38.2 8,-38.2"/>
<polygon fill="#f5f5f5" stroke="transparent" points="10.5,-279.2 10.5,-302.2 409.5,-302.2 409.5,-279.2 10.5,-279.2"/>
<polygon fill="none" stroke="#000000" points="10.5,-279.2 10.5,-302.2 409.5,-302.2 409.5,-279.2 10.5,-279.2"/>
<text text-anchor="start" x="15.5" y="-287.8" font-family="Helvetica,sans-Serif" font-weight="bold" font-size="11.00" fill="#000000">etapas_niveis_matriculas</text>
<text text-anchor="start" x="374.5437" y="-287.3" font-family="Helvetica,sans-Serif" font-size="11.00" fill="#000000">[table]</text>
<polygon fill="none" stroke="#000000" points="10.5,-257.2 10.5,-279.2 176.5,-279.2 176.5,-257.2 10.5,-257.2"/>
<text text-anchor="start" x="30.5" y="-264.3" font-family="Helvetica,sans-Serif" font-size="11.00" fill="#000000">sistema</text>
<polygon fill="none" stroke="#000000" points="176.5,-257.2 176.5,-279.2 409.5,-279.2 409.5,-257.2 176.5,-257.2"/>
<text text-anchor="start" x="179.5" y="-264.9" font-family="Helvetica,sans-Serif" font-size="11.00" fill="#000000">int4[10]</text>
<polygon fill="none" stroke="#000000" points="10.5,-235.2 10.5,-257.2 176.5,-257.2 176.5,-235.2 10.5,-235.2"/>
<text text-anchor="start" x="30.5" y="-242.3" font-family="Helvetica,sans-Serif" font-size="11.00" fill="#000000">tipo_registro</text>
<polygon fill="none" stroke="#000000" points="176.5,-235.2 176.5,-257.2 409.5,-257.2 409.5,-235.2 176.5,-235.2"/>
<text text-anchor="start" x="179.5" y="-242.9" font-family="Helvetica,sans-Serif" font-size="11.00" fill="#000000">text[2147483647]</text>
<polygon fill="none" stroke="#000000" points="10.5,-213.2 10.5,-235.2 176.5,-235.2 176.5,-213.2 10.5,-213.2"/>
<text text-anchor="start" x="30.5" y="-220.3" font-family="Helvetica,sans-Serif" font-size="11.00" fill="#000000">id_integracao</text>
<polygon fill="none" stroke="#000000" points="176.5,-213.2 176.5,-235.2 409.5,-235.2 409.5,-213.2 176.5,-213.2"/>
<text text-anchor="start" x="179.5" y="-220.9" font-family="Helvetica,sans-Serif" font-size="11.00" fill="#000000">varchar[2147483647]</text>
<polygon fill="none" stroke="#000000" points="10.5,-191.2 10.5,-213.2 176.5,-213.2 176.5,-191.2 10.5,-191.2"/>
<text text-anchor="start" x="30.5" y="-198.3" font-family="Helvetica,sans-Serif" font-size="11.00" fill="#000000">id_origem</text>
<polygon fill="none" stroke="#000000" points="176.5,-191.2 176.5,-213.2 409.5,-213.2 409.5,-191.2 176.5,-191.2"/>
<text text-anchor="start" x="179.5" y="-198.9" font-family="Helvetica,sans-Serif" font-size="11.00" fill="#000000">int4[10]</text>
<polygon fill="none" stroke="#000000" points="10.5,-169.2 10.5,-191.2 176.5,-191.2 176.5,-169.2 10.5,-169.2"/>
<text text-anchor="start" x="30.5" y="-176.3" font-family="Helvetica,sans-Serif" font-size="11.00" fill="#000000">id_cloud</text>
<polygon fill="none" stroke="#000000" points="176.5,-169.2 176.5,-191.2 409.5,-191.2 409.5,-169.2 176.5,-169.2"/>
<text text-anchor="start" x="179.5" y="-176.9" font-family="Helvetica,sans-Serif" font-size="11.00" fill="#000000">int4[10]</text>
<polygon fill="none" stroke="#000000" points="10.5,-147.2 10.5,-169.2 176.5,-169.2 176.5,-147.2 10.5,-147.2"/>
<image xlink:href="../../images/foreignKeys.png" width="11px" height="12px" preserveAspectRatio="xMinYMin meet" x="15.5" y="-164.2"/>
<text text-anchor="start" x="30.5" y="-154.3" font-family="Helvetica,sans-Serif" font-size="11.00" fill="#000000">matricula_origem_id</text>
<polygon fill="none" stroke="#000000" points="176.5,-147.2 176.5,-169.2 409.5,-169.2 409.5,-147.2 176.5,-147.2"/>
<text text-anchor="start" x="179.5" y="-154.9" font-family="Helvetica,sans-Serif" font-size="11.00" fill="#000000">int4[10]</text>
<polygon fill="none" stroke="#000000" points="10.5,-125.2 10.5,-147.2 176.5,-147.2 176.5,-125.2 10.5,-125.2"/>
<image xlink:href="../../images/foreignKeys.png" width="11px" height="12px" preserveAspectRatio="xMinYMin meet" x="15.5" y="-142.2"/>
<text text-anchor="start" x="30.5" y="-132.3" font-family="Helvetica,sans-Serif" font-size="11.00" fill="#000000">matricula_cloud_id</text>
<polygon fill="none" stroke="#000000" points="176.5,-125.2 176.5,-147.2 409.5,-147.2 409.5,-125.2 176.5,-125.2"/>
<text text-anchor="start" x="179.5" y="-132.9" font-family="Helvetica,sans-Serif" font-size="11.00" fill="#000000">int4[10]</text>
<polygon fill="none" stroke="#000000" points="10.5,-103.2 10.5,-125.2 176.5,-125.2 176.5,-103.2 10.5,-103.2"/>
<text text-anchor="start" x="30.5" y="-110.3" font-family="Helvetica,sans-Serif" font-size="11.00" fill="#000000">nivel_escolar</text>
<polygon fill="none" stroke="#000000" points="176.5,-103.2 176.5,-125.2 409.5,-125.2 409.5,-103.2 176.5,-103.2"/>
<text text-anchor="start" x="179.5" y="-110.9" font-family="Helvetica,sans-Serif" font-size="11.00" fill="#000000">&quot;educacao&quot;.&quot;niveisescolares&quot;[2147483647]</text>
<polygon fill="none" stroke="#000000" points="10.5,-81.2 10.5,-103.2 176.5,-103.2 176.5,-81.2 10.5,-81.2"/>
<text text-anchor="start" x="30.5" y="-88.3" font-family="Helvetica,sans-Serif" font-size="11.00" fill="#000000">equivalencia</text>
<polygon fill="none" stroke="#000000" points="176.5,-81.2 176.5,-103.2 409.5,-103.2 409.5,-81.2 176.5,-81.2"/>
<text text-anchor="start" x="179.1159" y="-88.9" font-family="Helvetica,sans-Serif" font-size="11.00" fill="#000000">&quot;educacao&quot;.&quot;etapaequivalencias&quot;[2147483647]</text>
<polygon fill="none" stroke="#000000" points="10.5,-59.2 10.5,-81.2 176.5,-81.2 176.5,-59.2 10.5,-59.2"/>
<text text-anchor="start" x="30.5" y="-66.3" font-family="Helvetica,sans-Serif" font-size="11.00" fill="#000000">habilitacao</text>
<polygon fill="none" stroke="#000000" points="176.5,-59.2 176.5,-81.2 409.5,-81.2 409.5,-59.2 176.5,-59.2"/>
<text text-anchor="start" x="179.5" y="-66.9" font-family="Helvetica,sans-Serif" font-size="11.00" fill="#000000">bool[1]</text>
<polygon fill="#ffffff" stroke="transparent" points="10.5,-40.2 10.5,-59.2 97.5,-59.2 97.5,-40.2 10.5,-40.2"/>
<polygon fill="none" stroke="#000000" points="10.5,-40.2 10.5,-59.2 97.5,-59.2 97.5,-40.2 10.5,-40.2"/>
<text text-anchor="start" x="13.5" y="-46.3" font-family="Helvetica,sans-Serif" font-size="11.00" fill="#000000">&lt; 0</text>
<polygon fill="#ffffff" stroke="transparent" points="97.5,-40.2 97.5,-59.2 176.5,-59.2 176.5,-40.2 97.5,-40.2"/>
<polygon fill="none" stroke="#000000" points="97.5,-40.2 97.5,-59.2 176.5,-59.2 176.5,-40.2 97.5,-40.2"/>
<text text-anchor="start" x="167.3862" y="-46.3" font-family="Helvetica,sans-Serif" font-size="11.00" fill="#000000"> &#160;</text>
<polygon fill="#ffffff" stroke="transparent" points="176.5,-40.2 176.5,-59.2 409.5,-59.2 409.5,-40.2 176.5,-40.2"/>
<polygon fill="none" stroke="#000000" points="176.5,-40.2 176.5,-59.2 409.5,-59.2 409.5,-40.2 176.5,-40.2"/>
<text text-anchor="start" x="390.9053" y="-46.3" font-family="Helvetica,sans-Serif" font-size="11.00" fill="#000000">0 &gt;</text>
<polygon fill="none" stroke="#000000" stroke-width="2" points="9,-39.2 9,-303.2 410,-303.2 410,-39.2 9,-39.2"/>
</a>
</g>
</g>
</g>
</svg>
