<?xml version="1.0" encoding="UTF-8" standalone="no"?>
<!DOCTYPE svg PUBLIC "-//W3C//DTD SVG 1.1//EN"
 "http://www.w3.org/Graphics/SVG/1.1/DTD/svg11.dtd">
<!-- Generated by graphviz version 2.40.1 (20161225.0304)
 -->
<!-- Title: oneDegreeRelationshipsDiagramImplied Pages: 1 -->
<svg width="566pt" height="294pt"
 viewBox="0.00 0.00 566.00 294.20" xmlns="http://www.w3.org/2000/svg" xmlns:xlink="http://www.w3.org/1999/xlink">
<g id="graph0" class="graph" transform="scale(1 1) rotate(0) translate(4 290.2)">
<title>oneDegreeRelationshipsDiagramImplied</title>
<polygon fill="#ffffff" stroke="transparent" points="-4,4 -4,-290.2 562,-290.2 562,4 -4,4"/>
<text text-anchor="middle" x="72.4936" y="-7.3" font-family="Helvetica,sans-Serif" font-size="11.00" fill="#000000">Generated by SchemaSpy</text>
<!-- etapas_inep -->
<g id="node1" class="node">
<title>etapas_inep</title>
<g id="a_node1"><a xlink:href="../../tables/etapas_inep.html" xlink:title="etapas_inep" target="_top">
<polygon fill="#ffffff" stroke="transparent" points="286,-38.2 286,-282.2 550,-282.2 550,-38.2 286,-38.2"/>
<polygon fill="#f5f5f5" stroke="transparent" points="288,-257.2 288,-280.2 548,-280.2 548,-257.2 288,-257.2"/>
<polygon fill="none" stroke="#000000" points="288,-257.2 288,-280.2 548,-280.2 548,-257.2 288,-257.2"/>
<text text-anchor="start" x="293" y="-265.8" font-family="Helvetica,sans-Serif" font-weight="bold" font-size="11.00" fill="#000000">etapas_inep</text>
<text text-anchor="start" x="513.0437" y="-265.3" font-family="Helvetica,sans-Serif" font-size="11.00" fill="#000000">[table]</text>
<polygon fill="none" stroke="#000000" points="288,-235.2 288,-257.2 439,-257.2 439,-235.2 288,-235.2"/>
<image xlink:href="../../images/foreignKeys.png" width="11px" height="12px" preserveAspectRatio="xMinYMin meet" x="293" y="-252.2"/>
<text text-anchor="start" x="308" y="-242.3" font-family="Helvetica,sans-Serif" font-size="11.00" fill="#000000">id</text>
<polygon fill="none" stroke="#000000" points="439,-235.2 439,-257.2 548,-257.2 548,-235.2 439,-235.2"/>
<text text-anchor="start" x="442" y="-242.9" font-family="Helvetica,sans-Serif" font-size="11.00" fill="#000000">int4[10]</text>
<polygon fill="none" stroke="#000000" points="288,-213.2 288,-235.2 439,-235.2 439,-213.2 288,-213.2"/>
<text text-anchor="start" x="308" y="-220.3" font-family="Helvetica,sans-Serif" font-size="11.00" fill="#000000">codigo_inep</text>
<polygon fill="none" stroke="#000000" points="439,-213.2 439,-235.2 548,-235.2 548,-213.2 439,-213.2"/>
<text text-anchor="start" x="442" y="-220.9" font-family="Helvetica,sans-Serif" font-size="11.00" fill="#000000">int4[10]</text>
<polygon fill="none" stroke="#000000" points="288,-191.2 288,-213.2 439,-213.2 439,-191.2 288,-191.2"/>
<text text-anchor="start" x="308" y="-198.3" font-family="Helvetica,sans-Serif" font-size="11.00" fill="#000000">educacao_profissional</text>
<polygon fill="none" stroke="#000000" points="439,-191.2 439,-213.2 548,-213.2 548,-191.2 439,-191.2"/>
<text text-anchor="start" x="442" y="-198.9" font-family="Helvetica,sans-Serif" font-size="11.00" fill="#000000">bool[1]</text>
<polygon fill="none" stroke="#000000" points="288,-169.2 288,-191.2 439,-191.2 439,-169.2 288,-169.2"/>
<text text-anchor="start" x="308" y="-176.3" font-family="Helvetica,sans-Serif" font-size="11.00" fill="#000000">eja</text>
<polygon fill="none" stroke="#000000" points="439,-169.2 439,-191.2 548,-191.2 548,-169.2 439,-169.2"/>
<text text-anchor="start" x="442" y="-176.9" font-family="Helvetica,sans-Serif" font-size="11.00" fill="#000000">bool[1]</text>
<polygon fill="none" stroke="#000000" points="288,-147.2 288,-169.2 439,-169.2 439,-147.2 288,-147.2"/>
<text text-anchor="start" x="308" y="-154.3" font-family="Helvetica,sans-Serif" font-size="11.00" fill="#000000">especial</text>
<polygon fill="none" stroke="#000000" points="439,-147.2 439,-169.2 548,-169.2 548,-147.2 439,-147.2"/>
<text text-anchor="start" x="442" y="-154.9" font-family="Helvetica,sans-Serif" font-size="11.00" fill="#000000">bool[1]</text>
<polygon fill="none" stroke="#000000" points="288,-125.2 288,-147.2 439,-147.2 439,-125.2 288,-125.2"/>
<text text-anchor="start" x="308" y="-132.3" font-family="Helvetica,sans-Serif" font-size="11.00" fill="#000000">nome</text>
<polygon fill="none" stroke="#000000" points="439,-125.2 439,-147.2 548,-147.2 548,-125.2 439,-125.2"/>
<text text-anchor="start" x="441.5344" y="-132.9" font-family="Helvetica,sans-Serif" font-size="11.00" fill="#000000">varchar[2147483647]</text>
<polygon fill="none" stroke="#000000" points="288,-103.2 288,-125.2 439,-125.2 439,-103.2 288,-103.2"/>
<text text-anchor="start" x="308" y="-110.3" font-family="Helvetica,sans-Serif" font-size="11.00" fill="#000000">regular</text>
<polygon fill="none" stroke="#000000" points="439,-103.2 439,-125.2 548,-125.2 548,-103.2 439,-103.2"/>
<text text-anchor="start" x="442" y="-110.9" font-family="Helvetica,sans-Serif" font-size="11.00" fill="#000000">bool[1]</text>
<polygon fill="none" stroke="#000000" points="288,-81.2 288,-103.2 439,-103.2 439,-81.2 288,-81.2"/>
<text text-anchor="start" x="308" y="-88.3" font-family="Helvetica,sans-Serif" font-size="11.00" fill="#000000">turma_multietapa</text>
<polygon fill="none" stroke="#000000" points="439,-81.2 439,-103.2 548,-103.2 548,-81.2 439,-81.2"/>
<text text-anchor="start" x="442" y="-88.9" font-family="Helvetica,sans-Serif" font-size="11.00" fill="#000000">bool[1]</text>
<polygon fill="none" stroke="#000000" points="288,-59.2 288,-81.2 439,-81.2 439,-59.2 288,-59.2"/>
<text text-anchor="start" x="308" y="-66.3" font-family="Helvetica,sans-Serif" font-size="11.00" fill="#000000">turma_unificada</text>
<polygon fill="none" stroke="#000000" points="439,-59.2 439,-81.2 548,-81.2 548,-59.2 439,-59.2"/>
<text text-anchor="start" x="442" y="-66.9" font-family="Helvetica,sans-Serif" font-size="11.00" fill="#000000">bool[1]</text>
<polygon fill="#ffffff" stroke="transparent" points="288,-40.2 288,-59.2 349,-59.2 349,-40.2 288,-40.2"/>
<polygon fill="none" stroke="#000000" points="288,-40.2 288,-59.2 349,-59.2 349,-40.2 288,-40.2"/>
<text text-anchor="start" x="291" y="-46.3" font-family="Helvetica,sans-Serif" font-size="11.00" fill="#000000">&lt; 1</text>
<polygon fill="#ffffff" stroke="transparent" points="349,-40.2 349,-59.2 439,-59.2 439,-40.2 349,-40.2"/>
<polygon fill="none" stroke="#000000" points="349,-40.2 349,-59.2 439,-59.2 439,-40.2 349,-40.2"/>
<text text-anchor="start" x="391.3807" y="-46.3" font-family="Helvetica,sans-Serif" font-size="11.00" fill="#000000">320 rows</text>
<polygon fill="#ffffff" stroke="transparent" points="439,-40.2 439,-59.2 548,-59.2 548,-40.2 439,-40.2"/>
<polygon fill="none" stroke="#000000" points="439,-40.2 439,-59.2 548,-59.2 548,-40.2 439,-40.2"/>
<text text-anchor="start" x="529.4053" y="-46.3" font-family="Helvetica,sans-Serif" font-size="11.00" fill="#000000">0 &gt;</text>
<polygon fill="none" stroke="#000000" stroke-width="2" points="287,-39.2 287,-281.2 549,-281.2 549,-39.2 287,-39.2"/>
</a>
</g>
</g>
<!-- inscricao_lista_espera_situacoes -->
<g id="node2" class="node">
<title>inscricao_lista_espera_situacoes</title>
<g id="a_node2"><a xlink:href="../../tables/inscricao_lista_espera_situacoes.html" xlink:title="inscricao_lista_espera_situacoes" target="_top">
<polygon fill="#ffffff" stroke="transparent" points="8,-197.7 8,-280.7 237,-280.7 237,-197.7 8,-197.7"/>
<polygon fill="#f5f5f5" stroke="transparent" points="8.5,-257.2 8.5,-280.2 237.5,-280.2 237.5,-257.2 8.5,-257.2"/>
<polygon fill="none" stroke="#000000" points="8.5,-257.2 8.5,-280.2 237.5,-280.2 237.5,-257.2 8.5,-257.2"/>
<text text-anchor="start" x="13.5" y="-265.8" font-family="Helvetica,sans-Serif" font-weight="bold" font-size="11.00" fill="#000000">inscricao_lista_espera_situacoes</text>
<text text-anchor="start" x="203.0219" y="-265.3" font-family="Helvetica,sans-Serif" font-size="11.00" fill="#000000">[table]</text>
<polygon fill="none" stroke="#000000" points="8.5,-235.2 8.5,-257.2 237.5,-257.2 237.5,-235.2 8.5,-235.2"/>
<image xlink:href="../../images/primaryKeys.png" width="11px" height="12px" preserveAspectRatio="xMinYMin meet" x="13.5" y="-252.2"/>
<text text-anchor="start" x="37.5" y="-242.3" font-family="Helvetica,sans-Serif" font-size="11.00" fill="#000000">id</text>
<polygon fill="none" stroke="#000000" points="8.5,-216.2 8.5,-235.2 237.5,-235.2 237.5,-216.2 8.5,-216.2"/>
<text text-anchor="start" x="11.5" y="-222.3" font-family="Helvetica,sans-Serif" font-size="11.00" fill="#000000">...</text>
<polygon fill="#ffffff" stroke="transparent" points="8.5,-197.2 8.5,-216.2 106.5,-216.2 106.5,-197.2 8.5,-197.2"/>
<polygon fill="none" stroke="#000000" points="8.5,-197.2 8.5,-216.2 106.5,-216.2 106.5,-197.2 8.5,-197.2"/>
<text text-anchor="start" x="11.5" y="-203.3" font-family="Helvetica,sans-Serif" font-size="11.00" fill="#000000"> &#160;</text>
<polygon fill="#ffffff" stroke="transparent" points="106.5,-197.2 106.5,-216.2 161.5,-216.2 161.5,-197.2 106.5,-197.2"/>
<polygon fill="none" stroke="#000000" points="106.5,-197.2 106.5,-216.2 161.5,-216.2 161.5,-197.2 106.5,-197.2"/>
<text text-anchor="start" x="152.3862" y="-203.3" font-family="Helvetica,sans-Serif" font-size="11.00" fill="#000000"> &#160;</text>
<polygon fill="#ffffff" stroke="transparent" points="161.5,-197.2 161.5,-216.2 237.5,-216.2 237.5,-197.2 161.5,-197.2"/>
<polygon fill="none" stroke="#000000" points="161.5,-197.2 161.5,-216.2 237.5,-216.2 237.5,-197.2 161.5,-197.2"/>
<text text-anchor="start" x="206.6755" y="-203.3" font-family="Helvetica,sans-Serif" font-size="11.00" fill="#000000">596 &gt;</text>
</a>
</g>
</g>
<!-- etapas_inep&#45;&gt;inscricao_lista_espera_situacoes -->
<g id="edge1" class="edge">
<title>etapas_inep:w&#45;&gt;inscricao_lista_espera_situacoes:e</title>
<path fill="none" stroke="#000000" stroke-dasharray="5,2" d="M273.4203,-246.2C261.5435,-246.2 254.158,-246.2 237.5,-246.2"/>
<polygon fill="#000000" stroke="#000000" points="280,-246.2001 288,-249.8 284,-246.2 288,-246.2 288,-246.2 288,-246.2 284,-246.2 288,-242.6 280,-246.2001 280,-246.2001"/>
<ellipse fill="none" stroke="#000000" cx="276.8" cy="-246.2001" rx="3.2" ry="3.2"/>
</g>
</g>
</svg>
