<?xml version="1.0" encoding="UTF-8" standalone="no"?>
<!DOCTYPE svg PUBLIC "-//W3C//DTD SVG 1.1//EN"
 "http://www.w3.org/Graphics/SVG/1.1/DTD/svg11.dtd">
<!-- Generated by graphviz version 2.40.1 (20161225.0304)
 -->
<!-- Title: oneDegreeRelationshipsDiagramImplied Pages: 1 -->
<svg width="705pt" height="316pt"
 viewBox="0.00 0.00 705.00 316.20" xmlns="http://www.w3.org/2000/svg" xmlns:xlink="http://www.w3.org/1999/xlink">
<g id="graph0" class="graph" transform="scale(1 1) rotate(0) translate(4 312.2)">
<title>oneDegreeRelationshipsDiagramImplied</title>
<polygon fill="#ffffff" stroke="transparent" points="-4,4 -4,-312.2 701,-312.2 701,4 -4,4"/>
<text text-anchor="middle" x="72.4936" y="-7.3" font-family="Helvetica,sans-Serif" font-size="11.00" fill="#000000">Generated by SchemaSpy</text>
<!-- etapas_niveis_matriculas -->
<g id="node1" class="node">
<title>etapas_niveis_matriculas</title>
<g id="a_node1"><a xlink:href="../../tables/etapas_niveis_matriculas.html" xlink:title="etapas_niveis_matriculas" target="_top">
<polygon fill="#ffffff" stroke="transparent" points="286,-38.2 286,-304.2 689,-304.2 689,-38.2 286,-38.2"/>
<polygon fill="#f5f5f5" stroke="transparent" points="288.5,-279.2 288.5,-302.2 687.5,-302.2 687.5,-279.2 288.5,-279.2"/>
<polygon fill="none" stroke="#000000" points="288.5,-279.2 288.5,-302.2 687.5,-302.2 687.5,-279.2 288.5,-279.2"/>
<text text-anchor="start" x="293.5" y="-287.8" font-family="Helvetica,sans-Serif" font-weight="bold" font-size="11.00" fill="#000000">etapas_niveis_matriculas</text>
<text text-anchor="start" x="652.5437" y="-287.3" font-family="Helvetica,sans-Serif" font-size="11.00" fill="#000000">[table]</text>
<polygon fill="none" stroke="#000000" points="288.5,-257.2 288.5,-279.2 454.5,-279.2 454.5,-257.2 288.5,-257.2"/>
<text text-anchor="start" x="308.5" y="-264.3" font-family="Helvetica,sans-Serif" font-size="11.00" fill="#000000">sistema</text>
<polygon fill="none" stroke="#000000" points="454.5,-257.2 454.5,-279.2 687.5,-279.2 687.5,-257.2 454.5,-257.2"/>
<text text-anchor="start" x="457.5" y="-264.9" font-family="Helvetica,sans-Serif" font-size="11.00" fill="#000000">int4[10]</text>
<polygon fill="none" stroke="#000000" points="288.5,-235.2 288.5,-257.2 454.5,-257.2 454.5,-235.2 288.5,-235.2"/>
<text text-anchor="start" x="308.5" y="-242.3" font-family="Helvetica,sans-Serif" font-size="11.00" fill="#000000">tipo_registro</text>
<polygon fill="none" stroke="#000000" points="454.5,-235.2 454.5,-257.2 687.5,-257.2 687.5,-235.2 454.5,-235.2"/>
<text text-anchor="start" x="457.5" y="-242.9" font-family="Helvetica,sans-Serif" font-size="11.00" fill="#000000">text[2147483647]</text>
<polygon fill="none" stroke="#000000" points="288.5,-213.2 288.5,-235.2 454.5,-235.2 454.5,-213.2 288.5,-213.2"/>
<text text-anchor="start" x="308.5" y="-220.3" font-family="Helvetica,sans-Serif" font-size="11.00" fill="#000000">id_integracao</text>
<polygon fill="none" stroke="#000000" points="454.5,-213.2 454.5,-235.2 687.5,-235.2 687.5,-213.2 454.5,-213.2"/>
<text text-anchor="start" x="457.5" y="-220.9" font-family="Helvetica,sans-Serif" font-size="11.00" fill="#000000">varchar[2147483647]</text>
<polygon fill="none" stroke="#000000" points="288.5,-191.2 288.5,-213.2 454.5,-213.2 454.5,-191.2 288.5,-191.2"/>
<text text-anchor="start" x="308.5" y="-198.3" font-family="Helvetica,sans-Serif" font-size="11.00" fill="#000000">id_origem</text>
<polygon fill="none" stroke="#000000" points="454.5,-191.2 454.5,-213.2 687.5,-213.2 687.5,-191.2 454.5,-191.2"/>
<text text-anchor="start" x="457.5" y="-198.9" font-family="Helvetica,sans-Serif" font-size="11.00" fill="#000000">int4[10]</text>
<polygon fill="none" stroke="#000000" points="288.5,-169.2 288.5,-191.2 454.5,-191.2 454.5,-169.2 288.5,-169.2"/>
<text text-anchor="start" x="308.5" y="-176.3" font-family="Helvetica,sans-Serif" font-size="11.00" fill="#000000">id_cloud</text>
<polygon fill="none" stroke="#000000" points="454.5,-169.2 454.5,-191.2 687.5,-191.2 687.5,-169.2 454.5,-169.2"/>
<text text-anchor="start" x="457.5" y="-176.9" font-family="Helvetica,sans-Serif" font-size="11.00" fill="#000000">int4[10]</text>
<polygon fill="none" stroke="#000000" points="288.5,-147.2 288.5,-169.2 454.5,-169.2 454.5,-147.2 288.5,-147.2"/>
<image xlink:href="../../images/foreignKeys.png" width="11px" height="12px" preserveAspectRatio="xMinYMin meet" x="293.5" y="-164.2"/>
<text text-anchor="start" x="308.5" y="-154.3" font-family="Helvetica,sans-Serif" font-size="11.00" fill="#000000">matricula_origem_id</text>
<polygon fill="none" stroke="#000000" points="454.5,-147.2 454.5,-169.2 687.5,-169.2 687.5,-147.2 454.5,-147.2"/>
<text text-anchor="start" x="457.5" y="-154.9" font-family="Helvetica,sans-Serif" font-size="11.00" fill="#000000">int4[10]</text>
<polygon fill="none" stroke="#000000" points="288.5,-125.2 288.5,-147.2 454.5,-147.2 454.5,-125.2 288.5,-125.2"/>
<image xlink:href="../../images/foreignKeys.png" width="11px" height="12px" preserveAspectRatio="xMinYMin meet" x="293.5" y="-142.2"/>
<text text-anchor="start" x="308.5" y="-132.3" font-family="Helvetica,sans-Serif" font-size="11.00" fill="#000000">matricula_cloud_id</text>
<polygon fill="none" stroke="#000000" points="454.5,-125.2 454.5,-147.2 687.5,-147.2 687.5,-125.2 454.5,-125.2"/>
<text text-anchor="start" x="457.5" y="-132.9" font-family="Helvetica,sans-Serif" font-size="11.00" fill="#000000">int4[10]</text>
<polygon fill="none" stroke="#000000" points="288.5,-103.2 288.5,-125.2 454.5,-125.2 454.5,-103.2 288.5,-103.2"/>
<text text-anchor="start" x="308.5" y="-110.3" font-family="Helvetica,sans-Serif" font-size="11.00" fill="#000000">nivel_escolar</text>
<polygon fill="none" stroke="#000000" points="454.5,-103.2 454.5,-125.2 687.5,-125.2 687.5,-103.2 454.5,-103.2"/>
<text text-anchor="start" x="457.5" y="-110.9" font-family="Helvetica,sans-Serif" font-size="11.00" fill="#000000">&quot;educacao&quot;.&quot;niveisescolares&quot;[2147483647]</text>
<polygon fill="none" stroke="#000000" points="288.5,-81.2 288.5,-103.2 454.5,-103.2 454.5,-81.2 288.5,-81.2"/>
<text text-anchor="start" x="308.5" y="-88.3" font-family="Helvetica,sans-Serif" font-size="11.00" fill="#000000">equivalencia</text>
<polygon fill="none" stroke="#000000" points="454.5,-81.2 454.5,-103.2 687.5,-103.2 687.5,-81.2 454.5,-81.2"/>
<text text-anchor="start" x="457.1159" y="-88.9" font-family="Helvetica,sans-Serif" font-size="11.00" fill="#000000">&quot;educacao&quot;.&quot;etapaequivalencias&quot;[2147483647]</text>
<polygon fill="none" stroke="#000000" points="288.5,-59.2 288.5,-81.2 454.5,-81.2 454.5,-59.2 288.5,-59.2"/>
<text text-anchor="start" x="308.5" y="-66.3" font-family="Helvetica,sans-Serif" font-size="11.00" fill="#000000">habilitacao</text>
<polygon fill="none" stroke="#000000" points="454.5,-59.2 454.5,-81.2 687.5,-81.2 687.5,-59.2 454.5,-59.2"/>
<text text-anchor="start" x="457.5" y="-66.9" font-family="Helvetica,sans-Serif" font-size="11.00" fill="#000000">bool[1]</text>
<polygon fill="#ffffff" stroke="transparent" points="288.5,-40.2 288.5,-59.2 375.5,-59.2 375.5,-40.2 288.5,-40.2"/>
<polygon fill="none" stroke="#000000" points="288.5,-40.2 288.5,-59.2 375.5,-59.2 375.5,-40.2 288.5,-40.2"/>
<text text-anchor="start" x="291.5" y="-46.3" font-family="Helvetica,sans-Serif" font-size="11.00" fill="#000000">&lt; 2</text>
<polygon fill="#ffffff" stroke="transparent" points="375.5,-40.2 375.5,-59.2 454.5,-59.2 454.5,-40.2 375.5,-40.2"/>
<polygon fill="none" stroke="#000000" points="375.5,-40.2 375.5,-59.2 454.5,-59.2 454.5,-40.2 375.5,-40.2"/>
<text text-anchor="start" x="445.3862" y="-46.3" font-family="Helvetica,sans-Serif" font-size="11.00" fill="#000000"> &#160;</text>
<polygon fill="#ffffff" stroke="transparent" points="454.5,-40.2 454.5,-59.2 687.5,-59.2 687.5,-40.2 454.5,-40.2"/>
<polygon fill="none" stroke="#000000" points="454.5,-40.2 454.5,-59.2 687.5,-59.2 687.5,-40.2 454.5,-40.2"/>
<text text-anchor="start" x="668.9053" y="-46.3" font-family="Helvetica,sans-Serif" font-size="11.00" fill="#000000">0 &gt;</text>
<polygon fill="none" stroke="#000000" stroke-width="2" points="287,-39.2 287,-303.2 688,-303.2 688,-39.2 287,-39.2"/>
</a>
</g>
</g>
<!-- inscricao_lista_espera_situacoes -->
<g id="node2" class="node">
<title>inscricao_lista_espera_situacoes</title>
<g id="a_node2"><a xlink:href="../../tables/inscricao_lista_espera_situacoes.html" xlink:title="inscricao_lista_espera_situacoes" target="_top">
<polygon fill="#ffffff" stroke="transparent" points="8,-98.7 8,-181.7 237,-181.7 237,-98.7 8,-98.7"/>
<polygon fill="#f5f5f5" stroke="transparent" points="8.5,-158.2 8.5,-181.2 237.5,-181.2 237.5,-158.2 8.5,-158.2"/>
<polygon fill="none" stroke="#000000" points="8.5,-158.2 8.5,-181.2 237.5,-181.2 237.5,-158.2 8.5,-158.2"/>
<text text-anchor="start" x="13.5" y="-166.8" font-family="Helvetica,sans-Serif" font-weight="bold" font-size="11.00" fill="#000000">inscricao_lista_espera_situacoes</text>
<text text-anchor="start" x="203.0219" y="-166.3" font-family="Helvetica,sans-Serif" font-size="11.00" fill="#000000">[table]</text>
<polygon fill="none" stroke="#000000" points="8.5,-136.2 8.5,-158.2 237.5,-158.2 237.5,-136.2 8.5,-136.2"/>
<image xlink:href="../../images/primaryKeys.png" width="11px" height="12px" preserveAspectRatio="xMinYMin meet" x="13.5" y="-153.2"/>
<text text-anchor="start" x="37.5" y="-143.3" font-family="Helvetica,sans-Serif" font-size="11.00" fill="#000000">id</text>
<polygon fill="none" stroke="#000000" points="8.5,-117.2 8.5,-136.2 237.5,-136.2 237.5,-117.2 8.5,-117.2"/>
<text text-anchor="start" x="11.5" y="-123.3" font-family="Helvetica,sans-Serif" font-size="11.00" fill="#000000">...</text>
<polygon fill="#ffffff" stroke="transparent" points="8.5,-98.2 8.5,-117.2 106.5,-117.2 106.5,-98.2 8.5,-98.2"/>
<polygon fill="none" stroke="#000000" points="8.5,-98.2 8.5,-117.2 106.5,-117.2 106.5,-98.2 8.5,-98.2"/>
<text text-anchor="start" x="11.5" y="-104.3" font-family="Helvetica,sans-Serif" font-size="11.00" fill="#000000"> &#160;</text>
<polygon fill="#ffffff" stroke="transparent" points="106.5,-98.2 106.5,-117.2 161.5,-117.2 161.5,-98.2 106.5,-98.2"/>
<polygon fill="none" stroke="#000000" points="106.5,-98.2 106.5,-117.2 161.5,-117.2 161.5,-98.2 106.5,-98.2"/>
<text text-anchor="start" x="152.3862" y="-104.3" font-family="Helvetica,sans-Serif" font-size="11.00" fill="#000000"> &#160;</text>
<polygon fill="#ffffff" stroke="transparent" points="161.5,-98.2 161.5,-117.2 237.5,-117.2 237.5,-98.2 161.5,-98.2"/>
<polygon fill="none" stroke="#000000" points="161.5,-98.2 161.5,-117.2 237.5,-117.2 237.5,-98.2 161.5,-98.2"/>
<text text-anchor="start" x="206.6755" y="-104.3" font-family="Helvetica,sans-Serif" font-size="11.00" fill="#000000">596 &gt;</text>
</a>
</g>
</g>
<!-- etapas_niveis_matriculas&#45;&gt;inscricao_lista_espera_situacoes -->
<g id="edge1" class="edge">
<title>etapas_niveis_matriculas:w&#45;&gt;inscricao_lista_espera_situacoes:e</title>
<path fill="none" stroke="#000000" stroke-dasharray="5,2" d="M274.0097,-137.9188C261.8398,-141.0125 254.8909,-147.2 237.5,-147.2"/>
<polygon fill="#000000" stroke="#000000" points="280.5557,-137.1424 288.9241,-139.7749 284.5278,-136.6712 288.5,-136.2 288.5,-136.2 288.5,-136.2 284.5278,-136.6712 288.0759,-132.6251 280.5557,-137.1424 280.5557,-137.1424"/>
<ellipse fill="none" stroke="#000000" cx="277.378" cy="-137.5193" rx="3.2" ry="3.2"/>
</g>
<!-- etapas_niveis_matriculas&#45;&gt;inscricao_lista_espera_situacoes -->
<g id="edge2" class="edge">
<title>etapas_niveis_matriculas:w&#45;&gt;inscricao_lista_espera_situacoes:e</title>
<path fill="none" stroke="#000000" stroke-dasharray="5,2" d="M274.0097,-156.4813C261.8398,-153.3875 254.8909,-147.2 237.5,-147.2"/>
<polygon fill="#000000" stroke="#000000" points="280.5557,-157.2576 288.0759,-161.7749 284.5278,-157.7288 288.5,-158.2 288.5,-158.2 288.5,-158.2 284.5278,-157.7288 288.9241,-154.6251 280.5557,-157.2576 280.5557,-157.2576"/>
<ellipse fill="none" stroke="#000000" cx="277.378" cy="-156.8807" rx="3.2" ry="3.2"/>
</g>
</g>
</svg>
