<?xml version="1.0" encoding="UTF-8" standalone="no"?>
<!DOCTYPE svg PUBLIC "-//W3C//DTD SVG 1.1//EN"
 "http://www.w3.org/Graphics/SVG/1.1/DTD/svg11.dtd">
<!-- Generated by graphviz version 2.40.1 (20161225.0304)
 -->
<!-- Title: oneDegreeRelationshipsDiagram Pages: 1 -->
<svg width="462pt" height="558pt"
 viewBox="0.00 0.00 462.00 558.20" xmlns="http://www.w3.org/2000/svg" xmlns:xlink="http://www.w3.org/1999/xlink">
<g id="graph0" class="graph" transform="scale(1 1) rotate(0) translate(4 554.2)">
<title>oneDegreeRelationshipsDiagram</title>
<polygon fill="#ffffff" stroke="transparent" points="-4,4 -4,-554.2 458,-554.2 458,4 -4,4"/>
<text text-anchor="middle" x="72.4936" y="-7.3" font-family="Helvetica,sans-Serif" font-size="11.00" fill="#000000">Generated by SchemaSpy</text>
<!-- etapas_matriz -->
<g id="node1" class="node">
<title>etapas_matriz</title>
<g id="a_node1"><a xlink:href="../../tables/etapas_matriz.html" xlink:title="etapas_matriz" target="_top">
<polygon fill="#ffffff" stroke="transparent" points="8,-38.2 8,-546.2 446,-546.2 446,-38.2 8,-38.2"/>
<polygon fill="#f5f5f5" stroke="transparent" points="10,-521.2 10,-544.2 444,-544.2 444,-521.2 10,-521.2"/>
<polygon fill="none" stroke="#000000" points="10,-521.2 10,-544.2 444,-544.2 444,-521.2 10,-521.2"/>
<text text-anchor="start" x="15" y="-529.8" font-family="Helvetica,sans-Serif" font-weight="bold" font-size="11.00" fill="#000000">etapas_matriz</text>
<text text-anchor="start" x="409.0437" y="-529.3" font-family="Helvetica,sans-Serif" font-size="11.00" fill="#000000">[table]</text>
<polygon fill="none" stroke="#000000" points="10,-499.2 10,-521.2 205,-521.2 205,-499.2 10,-499.2"/>
<text text-anchor="start" x="30" y="-506.3" font-family="Helvetica,sans-Serif" font-size="11.00" fill="#000000">sistema</text>
<polygon fill="none" stroke="#000000" points="205,-499.2 205,-521.2 444,-521.2 444,-499.2 205,-499.2"/>
<text text-anchor="start" x="208" y="-506.9" font-family="Helvetica,sans-Serif" font-size="11.00" fill="#000000">int4[10]</text>
<polygon fill="none" stroke="#000000" points="10,-477.2 10,-499.2 205,-499.2 205,-477.2 10,-477.2"/>
<text text-anchor="start" x="30" y="-484.3" font-family="Helvetica,sans-Serif" font-size="11.00" fill="#000000">tipo_registro</text>
<polygon fill="none" stroke="#000000" points="205,-477.2 205,-499.2 444,-499.2 444,-477.2 205,-477.2"/>
<text text-anchor="start" x="208" y="-484.9" font-family="Helvetica,sans-Serif" font-size="11.00" fill="#000000">text[2147483647]</text>
<polygon fill="none" stroke="#000000" points="10,-455.2 10,-477.2 205,-477.2 205,-455.2 10,-455.2"/>
<text text-anchor="start" x="30" y="-462.3" font-family="Helvetica,sans-Serif" font-size="11.00" fill="#000000">id_integracao</text>
<polygon fill="none" stroke="#000000" points="205,-455.2 205,-477.2 444,-477.2 444,-455.2 205,-455.2"/>
<text text-anchor="start" x="208" y="-462.9" font-family="Helvetica,sans-Serif" font-size="11.00" fill="#000000">varchar[2147483647]</text>
<polygon fill="none" stroke="#000000" points="10,-433.2 10,-455.2 205,-455.2 205,-433.2 10,-433.2"/>
<text text-anchor="start" x="30" y="-440.3" font-family="Helvetica,sans-Serif" font-size="11.00" fill="#000000">id_origem</text>
<polygon fill="none" stroke="#000000" points="205,-433.2 205,-455.2 444,-455.2 444,-433.2 205,-433.2"/>
<text text-anchor="start" x="208" y="-440.9" font-family="Helvetica,sans-Serif" font-size="11.00" fill="#000000">int4[10]</text>
<polygon fill="none" stroke="#000000" points="10,-411.2 10,-433.2 205,-433.2 205,-411.2 10,-411.2"/>
<text text-anchor="start" x="30" y="-418.3" font-family="Helvetica,sans-Serif" font-size="11.00" fill="#000000">id_cloud</text>
<polygon fill="none" stroke="#000000" points="205,-411.2 205,-433.2 444,-433.2 444,-411.2 205,-411.2"/>
<text text-anchor="start" x="208" y="-418.9" font-family="Helvetica,sans-Serif" font-size="11.00" fill="#000000">int4[10]</text>
<polygon fill="none" stroke="#000000" points="10,-389.2 10,-411.2 205,-411.2 205,-389.2 10,-389.2"/>
<text text-anchor="start" x="30" y="-396.3" font-family="Helvetica,sans-Serif" font-size="11.00" fill="#000000">identificacao</text>
<polygon fill="none" stroke="#000000" points="205,-389.2 205,-411.2 444,-411.2 444,-389.2 205,-389.2"/>
<text text-anchor="start" x="208" y="-396.9" font-family="Helvetica,sans-Serif" font-size="11.00" fill="#000000">varchar[6]</text>
<polygon fill="none" stroke="#000000" points="10,-367.2 10,-389.2 205,-389.2 205,-367.2 10,-367.2"/>
<text text-anchor="start" x="30" y="-374.3" font-family="Helvetica,sans-Serif" font-size="11.00" fill="#000000">quantidade_dependencias</text>
<polygon fill="none" stroke="#000000" points="205,-367.2 205,-389.2 444,-389.2 444,-367.2 205,-367.2"/>
<text text-anchor="start" x="208" y="-374.9" font-family="Helvetica,sans-Serif" font-size="11.00" fill="#000000">int2[5]</text>
<polygon fill="none" stroke="#000000" points="10,-345.2 10,-367.2 205,-367.2 205,-345.2 10,-345.2"/>
<text text-anchor="start" x="30" y="-352.3" font-family="Helvetica,sans-Serif" font-size="11.00" fill="#000000">classificacao</text>
<polygon fill="none" stroke="#000000" points="205,-345.2 205,-367.2 444,-367.2 444,-345.2 205,-345.2"/>
<text text-anchor="start" x="208" y="-352.9" font-family="Helvetica,sans-Serif" font-size="11.00" fill="#000000">varchar[2147483647]</text>
<polygon fill="none" stroke="#000000" points="10,-323.2 10,-345.2 205,-345.2 205,-323.2 10,-323.2"/>
<text text-anchor="start" x="30" y="-330.3" font-family="Helvetica,sans-Serif" font-size="11.00" fill="#000000">cor_classificacao</text>
<polygon fill="none" stroke="#000000" points="205,-323.2 205,-345.2 444,-345.2 444,-323.2 205,-323.2"/>
<text text-anchor="start" x="208" y="-330.9" font-family="Helvetica,sans-Serif" font-size="11.00" fill="#000000">varchar[2147483647]</text>
<polygon fill="none" stroke="#000000" points="10,-301.2 10,-323.2 205,-323.2 205,-301.2 10,-301.2"/>
<text text-anchor="start" x="30" y="-308.3" font-family="Helvetica,sans-Serif" font-size="11.00" fill="#000000">ano_idade_minima</text>
<polygon fill="none" stroke="#000000" points="205,-301.2 205,-323.2 444,-323.2 444,-301.2 205,-301.2"/>
<text text-anchor="start" x="208" y="-308.9" font-family="Helvetica,sans-Serif" font-size="11.00" fill="#000000">int2[5]</text>
<polygon fill="none" stroke="#000000" points="10,-279.2 10,-301.2 205,-301.2 205,-279.2 10,-279.2"/>
<text text-anchor="start" x="30" y="-286.3" font-family="Helvetica,sans-Serif" font-size="11.00" fill="#000000">ano_idade_maxima</text>
<polygon fill="none" stroke="#000000" points="205,-279.2 205,-301.2 444,-301.2 444,-279.2 205,-279.2"/>
<text text-anchor="start" x="208" y="-286.9" font-family="Helvetica,sans-Serif" font-size="11.00" fill="#000000">int2[5]</text>
<polygon fill="none" stroke="#000000" points="10,-257.2 10,-279.2 205,-279.2 205,-257.2 10,-257.2"/>
<text text-anchor="start" x="30" y="-264.3" font-family="Helvetica,sans-Serif" font-size="11.00" fill="#000000">mes_idade_minima</text>
<polygon fill="none" stroke="#000000" points="205,-257.2 205,-279.2 444,-279.2 444,-257.2 205,-257.2"/>
<text text-anchor="start" x="208" y="-264.9" font-family="Helvetica,sans-Serif" font-size="11.00" fill="#000000">int2[5]</text>
<polygon fill="none" stroke="#000000" points="10,-235.2 10,-257.2 205,-257.2 205,-235.2 10,-235.2"/>
<text text-anchor="start" x="30" y="-242.3" font-family="Helvetica,sans-Serif" font-size="11.00" fill="#000000">mes_idade_maxima</text>
<polygon fill="none" stroke="#000000" points="205,-235.2 205,-257.2 444,-257.2 444,-235.2 205,-235.2"/>
<text text-anchor="start" x="208" y="-242.9" font-family="Helvetica,sans-Serif" font-size="11.00" fill="#000000">int2[5]</text>
<polygon fill="none" stroke="#000000" points="10,-213.2 10,-235.2 205,-235.2 205,-213.2 10,-213.2"/>
<text text-anchor="start" x="30" y="-220.3" font-family="Helvetica,sans-Serif" font-size="11.00" fill="#000000">ordem</text>
<polygon fill="none" stroke="#000000" points="205,-213.2 205,-235.2 444,-235.2 444,-213.2 205,-213.2"/>
<text text-anchor="start" x="208" y="-220.9" font-family="Helvetica,sans-Serif" font-size="11.00" fill="#000000">int4[10]</text>
<polygon fill="none" stroke="#000000" points="10,-191.2 10,-213.2 205,-213.2 205,-191.2 10,-191.2"/>
<text text-anchor="start" x="30" y="-198.3" font-family="Helvetica,sans-Serif" font-size="11.00" fill="#000000">equivalencias</text>
<polygon fill="none" stroke="#000000" points="205,-191.2 205,-213.2 444,-213.2 444,-191.2 205,-191.2"/>
<text text-anchor="start" x="207.5585" y="-198.9" font-family="Helvetica,sans-Serif" font-size="11.00" fill="#000000">&quot;educacao&quot;.&quot;_etapaequivalencias&quot;[2147483647]</text>
<polygon fill="none" stroke="#000000" points="10,-169.2 10,-191.2 205,-191.2 205,-169.2 10,-169.2"/>
<image xlink:href="../../images/foreignKeys.png" width="11px" height="12px" preserveAspectRatio="xMinYMin meet" x="15" y="-186.2"/>
<text text-anchor="start" x="30" y="-176.3" font-family="Helvetica,sans-Serif" font-size="11.00" fill="#000000">etapa_ensino_inep_origem_id</text>
<polygon fill="none" stroke="#000000" points="205,-169.2 205,-191.2 444,-191.2 444,-169.2 205,-169.2"/>
<text text-anchor="start" x="208" y="-176.9" font-family="Helvetica,sans-Serif" font-size="11.00" fill="#000000">int4[10]</text>
<polygon fill="none" stroke="#000000" points="10,-147.2 10,-169.2 205,-169.2 205,-147.2 10,-147.2"/>
<image xlink:href="../../images/foreignKeys.png" width="11px" height="12px" preserveAspectRatio="xMinYMin meet" x="15" y="-164.2"/>
<text text-anchor="start" x="30" y="-154.3" font-family="Helvetica,sans-Serif" font-size="11.00" fill="#000000">etapa_ensino_inep_cloud_id</text>
<polygon fill="none" stroke="#000000" points="205,-147.2 205,-169.2 444,-169.2 444,-147.2 205,-147.2"/>
<text text-anchor="start" x="208" y="-154.9" font-family="Helvetica,sans-Serif" font-size="11.00" fill="#000000">int4[10]</text>
<polygon fill="none" stroke="#000000" points="10,-125.2 10,-147.2 205,-147.2 205,-125.2 10,-125.2"/>
<image xlink:href="../../images/foreignKeys.png" width="11px" height="12px" preserveAspectRatio="xMinYMin meet" x="15" y="-142.2"/>
<text text-anchor="start" x="30" y="-132.3" font-family="Helvetica,sans-Serif" font-size="11.00" fill="#000000">matriz_origem_id</text>
<polygon fill="none" stroke="#000000" points="205,-125.2 205,-147.2 444,-147.2 444,-125.2 205,-125.2"/>
<text text-anchor="start" x="208" y="-132.9" font-family="Helvetica,sans-Serif" font-size="11.00" fill="#000000">int4[10]</text>
<polygon fill="none" stroke="#000000" points="10,-103.2 10,-125.2 205,-125.2 205,-103.2 10,-103.2"/>
<image xlink:href="../../images/foreignKeys.png" width="11px" height="12px" preserveAspectRatio="xMinYMin meet" x="15" y="-120.2"/>
<text text-anchor="start" x="30" y="-110.3" font-family="Helvetica,sans-Serif" font-size="11.00" fill="#000000">matriz_cloud_id</text>
<polygon fill="none" stroke="#000000" points="205,-103.2 205,-125.2 444,-125.2 444,-103.2 205,-103.2"/>
<text text-anchor="start" x="208" y="-110.9" font-family="Helvetica,sans-Serif" font-size="11.00" fill="#000000">int4[10]</text>
<polygon fill="none" stroke="#000000" points="10,-81.2 10,-103.2 205,-103.2 205,-81.2 10,-81.2"/>
<text text-anchor="start" x="30" y="-88.3" font-family="Helvetica,sans-Serif" font-size="11.00" fill="#000000">dia_completar_idade_minima</text>
<polygon fill="none" stroke="#000000" points="205,-81.2 205,-103.2 444,-103.2 444,-81.2 205,-81.2"/>
<text text-anchor="start" x="208" y="-88.9" font-family="Helvetica,sans-Serif" font-size="11.00" fill="#000000">int2[5]</text>
<polygon fill="none" stroke="#000000" points="10,-59.2 10,-81.2 205,-81.2 205,-59.2 10,-59.2"/>
<text text-anchor="start" x="30" y="-66.3" font-family="Helvetica,sans-Serif" font-size="11.00" fill="#000000">mes_completar_idade_minima</text>
<polygon fill="none" stroke="#000000" points="205,-59.2 205,-81.2 444,-81.2 444,-59.2 205,-59.2"/>
<text text-anchor="start" x="208" y="-66.9" font-family="Helvetica,sans-Serif" font-size="11.00" fill="#000000">int2[5]</text>
<polygon fill="#ffffff" stroke="transparent" points="10,-40.2 10,-59.2 112,-59.2 112,-40.2 10,-40.2"/>
<polygon fill="none" stroke="#000000" points="10,-40.2 10,-59.2 112,-59.2 112,-40.2 10,-40.2"/>
<text text-anchor="start" x="13" y="-46.3" font-family="Helvetica,sans-Serif" font-size="11.00" fill="#000000">&lt; 0</text>
<polygon fill="#ffffff" stroke="transparent" points="112,-40.2 112,-59.2 205,-59.2 205,-40.2 112,-40.2"/>
<polygon fill="none" stroke="#000000" points="112,-40.2 112,-59.2 205,-59.2 205,-40.2 112,-40.2"/>
<text text-anchor="start" x="195.8862" y="-46.3" font-family="Helvetica,sans-Serif" font-size="11.00" fill="#000000"> &#160;</text>
<polygon fill="#ffffff" stroke="transparent" points="205,-40.2 205,-59.2 444,-59.2 444,-40.2 205,-40.2"/>
<polygon fill="none" stroke="#000000" points="205,-40.2 205,-59.2 444,-59.2 444,-40.2 205,-40.2"/>
<text text-anchor="start" x="425.4053" y="-46.3" font-family="Helvetica,sans-Serif" font-size="11.00" fill="#000000">0 &gt;</text>
<polygon fill="none" stroke="#000000" stroke-width="2" points="9,-39.2 9,-545.2 445,-545.2 445,-39.2 9,-39.2"/>
</a>
</g>
</g>
</g>
</svg>
