<?xml version="1.0" encoding="UTF-8" standalone="no"?>
<!DOCTYPE svg PUBLIC "-//W3C//DTD SVG 1.1//EN"
 "http://www.w3.org/Graphics/SVG/1.1/DTD/svg11.dtd">
<!-- Generated by graphviz version 2.40.1 (20161225.0304)
 -->
<!-- Title: oneDegreeRelationshipsDiagramImplied Pages: 1 -->
<svg width="755pt" height="470pt"
 viewBox="0.00 0.00 755.00 470.20" xmlns="http://www.w3.org/2000/svg" xmlns:xlink="http://www.w3.org/1999/xlink">
<g id="graph0" class="graph" transform="scale(1 1) rotate(0) translate(4 466.2)">
<title>oneDegreeRelationshipsDiagramImplied</title>
<polygon fill="#ffffff" stroke="transparent" points="-4,4 -4,-466.2 751,-466.2 751,4 -4,4"/>
<text text-anchor="middle" x="72.4936" y="-7.3" font-family="Helvetica,sans-Serif" font-size="11.00" fill="#000000">Generated by SchemaSpy</text>
<!-- etapas_matriz_disciplinas -->
<g id="node1" class="node">
<title>etapas_matriz_disciplinas</title>
<g id="a_node1"><a xlink:href="../../tables/etapas_matriz_disciplinas.html" xlink:title="etapas_matriz_disciplinas" target="_top">
<polygon fill="#ffffff" stroke="transparent" points="286,-38.2 286,-458.2 739,-458.2 739,-38.2 286,-38.2"/>
<polygon fill="#f5f5f5" stroke="transparent" points="288.5,-433.2 288.5,-456.2 737.5,-456.2 737.5,-433.2 288.5,-433.2"/>
<polygon fill="none" stroke="#000000" points="288.5,-433.2 288.5,-456.2 737.5,-456.2 737.5,-433.2 288.5,-433.2"/>
<text text-anchor="start" x="293.5" y="-441.8" font-family="Helvetica,sans-Serif" font-weight="bold" font-size="11.00" fill="#000000">etapas_matriz_disciplinas</text>
<text text-anchor="start" x="702.5437" y="-441.3" font-family="Helvetica,sans-Serif" font-size="11.00" fill="#000000">[table]</text>
<polygon fill="none" stroke="#000000" points="288.5,-411.2 288.5,-433.2 484.5,-433.2 484.5,-411.2 288.5,-411.2"/>
<text text-anchor="start" x="308.5" y="-418.3" font-family="Helvetica,sans-Serif" font-size="11.00" fill="#000000">sistema</text>
<polygon fill="none" stroke="#000000" points="484.5,-411.2 484.5,-433.2 737.5,-433.2 737.5,-411.2 484.5,-411.2"/>
<text text-anchor="start" x="487.5" y="-418.9" font-family="Helvetica,sans-Serif" font-size="11.00" fill="#000000">int4[10]</text>
<polygon fill="none" stroke="#000000" points="288.5,-389.2 288.5,-411.2 484.5,-411.2 484.5,-389.2 288.5,-389.2"/>
<text text-anchor="start" x="308.5" y="-396.3" font-family="Helvetica,sans-Serif" font-size="11.00" fill="#000000">tipo_registro</text>
<polygon fill="none" stroke="#000000" points="484.5,-389.2 484.5,-411.2 737.5,-411.2 737.5,-389.2 484.5,-389.2"/>
<text text-anchor="start" x="487.5" y="-396.9" font-family="Helvetica,sans-Serif" font-size="11.00" fill="#000000">text[2147483647]</text>
<polygon fill="none" stroke="#000000" points="288.5,-367.2 288.5,-389.2 484.5,-389.2 484.5,-367.2 288.5,-367.2"/>
<text text-anchor="start" x="308.5" y="-374.3" font-family="Helvetica,sans-Serif" font-size="11.00" fill="#000000">id_integracao</text>
<polygon fill="none" stroke="#000000" points="484.5,-367.2 484.5,-389.2 737.5,-389.2 737.5,-367.2 484.5,-367.2"/>
<text text-anchor="start" x="487.5" y="-374.9" font-family="Helvetica,sans-Serif" font-size="11.00" fill="#000000">varchar[2147483647]</text>
<polygon fill="none" stroke="#000000" points="288.5,-345.2 288.5,-367.2 484.5,-367.2 484.5,-345.2 288.5,-345.2"/>
<text text-anchor="start" x="308.5" y="-352.3" font-family="Helvetica,sans-Serif" font-size="11.00" fill="#000000">id_origem</text>
<polygon fill="none" stroke="#000000" points="484.5,-345.2 484.5,-367.2 737.5,-367.2 737.5,-345.2 484.5,-345.2"/>
<text text-anchor="start" x="487.5" y="-352.9" font-family="Helvetica,sans-Serif" font-size="11.00" fill="#000000">int4[10]</text>
<polygon fill="none" stroke="#000000" points="288.5,-323.2 288.5,-345.2 484.5,-345.2 484.5,-323.2 288.5,-323.2"/>
<text text-anchor="start" x="308.5" y="-330.3" font-family="Helvetica,sans-Serif" font-size="11.00" fill="#000000">id_cloud</text>
<polygon fill="none" stroke="#000000" points="484.5,-323.2 484.5,-345.2 737.5,-345.2 737.5,-323.2 484.5,-323.2"/>
<text text-anchor="start" x="487.5" y="-330.9" font-family="Helvetica,sans-Serif" font-size="11.00" fill="#000000">int4[10]</text>
<polygon fill="none" stroke="#000000" points="288.5,-301.2 288.5,-323.2 484.5,-323.2 484.5,-301.2 288.5,-301.2"/>
<text text-anchor="start" x="308.5" y="-308.3" font-family="Helvetica,sans-Serif" font-size="11.00" fill="#000000">carga_horaria_horas</text>
<polygon fill="none" stroke="#000000" points="484.5,-301.2 484.5,-323.2 737.5,-323.2 737.5,-301.2 484.5,-301.2"/>
<text text-anchor="start" x="487.5" y="-308.9" font-family="Helvetica,sans-Serif" font-size="11.00" fill="#000000">int2[5]</text>
<polygon fill="none" stroke="#000000" points="288.5,-279.2 288.5,-301.2 484.5,-301.2 484.5,-279.2 288.5,-279.2"/>
<text text-anchor="start" x="308.5" y="-286.3" font-family="Helvetica,sans-Serif" font-size="11.00" fill="#000000">carga_horaria_minutos</text>
<polygon fill="none" stroke="#000000" points="484.5,-279.2 484.5,-301.2 737.5,-301.2 737.5,-279.2 484.5,-279.2"/>
<text text-anchor="start" x="487.5" y="-286.9" font-family="Helvetica,sans-Serif" font-size="11.00" fill="#000000">int2[5]</text>
<polygon fill="none" stroke="#000000" points="288.5,-257.2 288.5,-279.2 484.5,-279.2 484.5,-257.2 288.5,-257.2"/>
<text text-anchor="start" x="308.5" y="-264.3" font-family="Helvetica,sans-Serif" font-size="11.00" fill="#000000">orientacao_curricular</text>
<polygon fill="none" stroke="#000000" points="484.5,-257.2 484.5,-279.2 737.5,-279.2 737.5,-257.2 484.5,-257.2"/>
<text text-anchor="start" x="487.3496" y="-264.9" font-family="Helvetica,sans-Serif" font-size="11.00" fill="#000000">&quot;educacao&quot;.&quot;orientacoescurriculares&quot;[2147483647]</text>
<polygon fill="none" stroke="#000000" points="288.5,-235.2 288.5,-257.2 484.5,-257.2 484.5,-235.2 288.5,-235.2"/>
<text text-anchor="start" x="308.5" y="-242.3" font-family="Helvetica,sans-Serif" font-size="11.00" fill="#000000">quantidade_modulos</text>
<polygon fill="none" stroke="#000000" points="484.5,-235.2 484.5,-257.2 737.5,-257.2 737.5,-235.2 484.5,-235.2"/>
<text text-anchor="start" x="487.5" y="-242.9" font-family="Helvetica,sans-Serif" font-size="11.00" fill="#000000">int4[10]</text>
<polygon fill="none" stroke="#000000" points="288.5,-213.2 288.5,-235.2 484.5,-235.2 484.5,-213.2 288.5,-213.2"/>
<image xlink:href="../../images/foreignKeys.png" width="11px" height="12px" preserveAspectRatio="xMinYMin meet" x="293.5" y="-230.2"/>
<text text-anchor="start" x="308.5" y="-220.3" font-family="Helvetica,sans-Serif" font-size="11.00" fill="#000000">etapa_origem_id</text>
<polygon fill="none" stroke="#000000" points="484.5,-213.2 484.5,-235.2 737.5,-235.2 737.5,-213.2 484.5,-213.2"/>
<text text-anchor="start" x="487.5" y="-220.9" font-family="Helvetica,sans-Serif" font-size="11.00" fill="#000000">int4[10]</text>
<polygon fill="none" stroke="#000000" points="288.5,-191.2 288.5,-213.2 484.5,-213.2 484.5,-191.2 288.5,-191.2"/>
<image xlink:href="../../images/foreignKeys.png" width="11px" height="12px" preserveAspectRatio="xMinYMin meet" x="293.5" y="-208.2"/>
<text text-anchor="start" x="308.5" y="-198.3" font-family="Helvetica,sans-Serif" font-size="11.00" fill="#000000">etapa_cloud_id</text>
<polygon fill="none" stroke="#000000" points="484.5,-191.2 484.5,-213.2 737.5,-213.2 737.5,-191.2 484.5,-191.2"/>
<text text-anchor="start" x="487.5" y="-198.9" font-family="Helvetica,sans-Serif" font-size="11.00" fill="#000000">int4[10]</text>
<polygon fill="none" stroke="#000000" points="288.5,-169.2 288.5,-191.2 484.5,-191.2 484.5,-169.2 288.5,-169.2"/>
<image xlink:href="../../images/foreignKeys.png" width="11px" height="12px" preserveAspectRatio="xMinYMin meet" x="293.5" y="-186.2"/>
<text text-anchor="start" x="308.5" y="-176.3" font-family="Helvetica,sans-Serif" font-size="11.00" fill="#000000">disciplina_origem_id</text>
<polygon fill="none" stroke="#000000" points="484.5,-169.2 484.5,-191.2 737.5,-191.2 737.5,-169.2 484.5,-169.2"/>
<text text-anchor="start" x="487.5" y="-176.9" font-family="Helvetica,sans-Serif" font-size="11.00" fill="#000000">int4[10]</text>
<polygon fill="none" stroke="#000000" points="288.5,-147.2 288.5,-169.2 484.5,-169.2 484.5,-147.2 288.5,-147.2"/>
<image xlink:href="../../images/foreignKeys.png" width="11px" height="12px" preserveAspectRatio="xMinYMin meet" x="293.5" y="-164.2"/>
<text text-anchor="start" x="308.5" y="-154.3" font-family="Helvetica,sans-Serif" font-size="11.00" fill="#000000">disciplina_cloud_id</text>
<polygon fill="none" stroke="#000000" points="484.5,-147.2 484.5,-169.2 737.5,-169.2 737.5,-147.2 484.5,-147.2"/>
<text text-anchor="start" x="487.5" y="-154.9" font-family="Helvetica,sans-Serif" font-size="11.00" fill="#000000">int4[10]</text>
<polygon fill="none" stroke="#000000" points="288.5,-125.2 288.5,-147.2 484.5,-147.2 484.5,-125.2 288.5,-125.2"/>
<image xlink:href="../../images/foreignKeys.png" width="11px" height="12px" preserveAspectRatio="xMinYMin meet" x="293.5" y="-142.2"/>
<text text-anchor="start" x="308.5" y="-132.3" font-family="Helvetica,sans-Serif" font-size="11.00" fill="#000000">eixo_tematico_origem_id</text>
<polygon fill="none" stroke="#000000" points="484.5,-125.2 484.5,-147.2 737.5,-147.2 737.5,-125.2 484.5,-125.2"/>
<text text-anchor="start" x="487.5" y="-132.9" font-family="Helvetica,sans-Serif" font-size="11.00" fill="#000000">int4[10]</text>
<polygon fill="none" stroke="#000000" points="288.5,-103.2 288.5,-125.2 484.5,-125.2 484.5,-103.2 288.5,-103.2"/>
<image xlink:href="../../images/foreignKeys.png" width="11px" height="12px" preserveAspectRatio="xMinYMin meet" x="293.5" y="-120.2"/>
<text text-anchor="start" x="308.5" y="-110.3" font-family="Helvetica,sans-Serif" font-size="11.00" fill="#000000">eixo_tematico_cloud_id</text>
<polygon fill="none" stroke="#000000" points="484.5,-103.2 484.5,-125.2 737.5,-125.2 737.5,-103.2 484.5,-103.2"/>
<text text-anchor="start" x="487.5" y="-110.9" font-family="Helvetica,sans-Serif" font-size="11.00" fill="#000000">int4[10]</text>
<polygon fill="none" stroke="#000000" points="288.5,-81.2 288.5,-103.2 484.5,-103.2 484.5,-81.2 288.5,-81.2"/>
<image xlink:href="../../images/foreignKeys.png" width="11px" height="12px" preserveAspectRatio="xMinYMin meet" x="293.5" y="-98.2"/>
<text text-anchor="start" x="308.5" y="-88.3" font-family="Helvetica,sans-Serif" font-size="11.00" fill="#000000">campo_experiencia_origem_id</text>
<polygon fill="none" stroke="#000000" points="484.5,-81.2 484.5,-103.2 737.5,-103.2 737.5,-81.2 484.5,-81.2"/>
<text text-anchor="start" x="487.5" y="-88.9" font-family="Helvetica,sans-Serif" font-size="11.00" fill="#000000">int4[10]</text>
<polygon fill="none" stroke="#000000" points="288.5,-59.2 288.5,-81.2 484.5,-81.2 484.5,-59.2 288.5,-59.2"/>
<image xlink:href="../../images/foreignKeys.png" width="11px" height="12px" preserveAspectRatio="xMinYMin meet" x="293.5" y="-76.2"/>
<text text-anchor="start" x="308.5" y="-66.3" font-family="Helvetica,sans-Serif" font-size="11.00" fill="#000000">campo_experiencia_cloud_id</text>
<polygon fill="none" stroke="#000000" points="484.5,-59.2 484.5,-81.2 737.5,-81.2 737.5,-59.2 484.5,-59.2"/>
<text text-anchor="start" x="487.5" y="-66.9" font-family="Helvetica,sans-Serif" font-size="11.00" fill="#000000">int4[10]</text>
<polygon fill="#ffffff" stroke="transparent" points="288.5,-40.2 288.5,-59.2 390.5,-59.2 390.5,-40.2 288.5,-40.2"/>
<polygon fill="none" stroke="#000000" points="288.5,-40.2 288.5,-59.2 390.5,-59.2 390.5,-40.2 288.5,-40.2"/>
<text text-anchor="start" x="291.5" y="-46.3" font-family="Helvetica,sans-Serif" font-size="11.00" fill="#000000">&lt; 8</text>
<polygon fill="#ffffff" stroke="transparent" points="390.5,-40.2 390.5,-59.2 484.5,-59.2 484.5,-40.2 390.5,-40.2"/>
<polygon fill="none" stroke="#000000" points="390.5,-40.2 390.5,-59.2 484.5,-59.2 484.5,-40.2 390.5,-40.2"/>
<text text-anchor="start" x="475.3862" y="-46.3" font-family="Helvetica,sans-Serif" font-size="11.00" fill="#000000"> &#160;</text>
<polygon fill="#ffffff" stroke="transparent" points="484.5,-40.2 484.5,-59.2 737.5,-59.2 737.5,-40.2 484.5,-40.2"/>
<polygon fill="none" stroke="#000000" points="484.5,-40.2 484.5,-59.2 737.5,-59.2 737.5,-40.2 484.5,-40.2"/>
<text text-anchor="start" x="718.9053" y="-46.3" font-family="Helvetica,sans-Serif" font-size="11.00" fill="#000000">0 &gt;</text>
<polygon fill="none" stroke="#000000" stroke-width="2" points="287,-39.2 287,-457.2 738,-457.2 738,-39.2 287,-39.2"/>
</a>
</g>
</g>
<!-- inscricao_lista_espera_situacoes -->
<g id="node2" class="node">
<title>inscricao_lista_espera_situacoes</title>
<g id="a_node2"><a xlink:href="../../tables/inscricao_lista_espera_situacoes.html" xlink:title="inscricao_lista_espera_situacoes" target="_top">
<polygon fill="#ffffff" stroke="transparent" points="8,-98.7 8,-181.7 237,-181.7 237,-98.7 8,-98.7"/>
<polygon fill="#f5f5f5" stroke="transparent" points="8.5,-158.2 8.5,-181.2 237.5,-181.2 237.5,-158.2 8.5,-158.2"/>
<polygon fill="none" stroke="#000000" points="8.5,-158.2 8.5,-181.2 237.5,-181.2 237.5,-158.2 8.5,-158.2"/>
<text text-anchor="start" x="13.5" y="-166.8" font-family="Helvetica,sans-Serif" font-weight="bold" font-size="11.00" fill="#000000">inscricao_lista_espera_situacoes</text>
<text text-anchor="start" x="203.0219" y="-166.3" font-family="Helvetica,sans-Serif" font-size="11.00" fill="#000000">[table]</text>
<polygon fill="none" stroke="#000000" points="8.5,-136.2 8.5,-158.2 237.5,-158.2 237.5,-136.2 8.5,-136.2"/>
<image xlink:href="../../images/primaryKeys.png" width="11px" height="12px" preserveAspectRatio="xMinYMin meet" x="13.5" y="-153.2"/>
<text text-anchor="start" x="37.5" y="-143.3" font-family="Helvetica,sans-Serif" font-size="11.00" fill="#000000">id</text>
<polygon fill="none" stroke="#000000" points="8.5,-117.2 8.5,-136.2 237.5,-136.2 237.5,-117.2 8.5,-117.2"/>
<text text-anchor="start" x="11.5" y="-123.3" font-family="Helvetica,sans-Serif" font-size="11.00" fill="#000000">...</text>
<polygon fill="#ffffff" stroke="transparent" points="8.5,-98.2 8.5,-117.2 106.5,-117.2 106.5,-98.2 8.5,-98.2"/>
<polygon fill="none" stroke="#000000" points="8.5,-98.2 8.5,-117.2 106.5,-117.2 106.5,-98.2 8.5,-98.2"/>
<text text-anchor="start" x="11.5" y="-104.3" font-family="Helvetica,sans-Serif" font-size="11.00" fill="#000000"> &#160;</text>
<polygon fill="#ffffff" stroke="transparent" points="106.5,-98.2 106.5,-117.2 161.5,-117.2 161.5,-98.2 106.5,-98.2"/>
<polygon fill="none" stroke="#000000" points="106.5,-98.2 106.5,-117.2 161.5,-117.2 161.5,-98.2 106.5,-98.2"/>
<text text-anchor="start" x="152.3862" y="-104.3" font-family="Helvetica,sans-Serif" font-size="11.00" fill="#000000"> &#160;</text>
<polygon fill="#ffffff" stroke="transparent" points="161.5,-98.2 161.5,-117.2 237.5,-117.2 237.5,-98.2 161.5,-98.2"/>
<polygon fill="none" stroke="#000000" points="161.5,-98.2 161.5,-117.2 237.5,-117.2 237.5,-98.2 161.5,-98.2"/>
<text text-anchor="start" x="206.6755" y="-104.3" font-family="Helvetica,sans-Serif" font-size="11.00" fill="#000000">596 &gt;</text>
</a>
</g>
</g>
<!-- etapas_matriz_disciplinas&#45;&gt;inscricao_lista_espera_situacoes -->
<g id="edge1" class="edge">
<title>etapas_matriz_disciplinas:w&#45;&gt;inscricao_lista_espera_situacoes:e</title>
<path fill="none" stroke="#000000" stroke-dasharray="5,2" d="M274.5177,-74.7861C255.094,-91.3628 272.4549,-147.2 237.5,-147.2"/>
<polygon fill="#000000" stroke="#000000" points="280.8984,-72.6933 289.622,-73.6207 284.6992,-71.4466 288.5,-70.2 288.5,-70.2 288.5,-70.2 284.6992,-71.4466 287.378,-66.7793 280.8984,-72.6933 280.8984,-72.6933"/>
<ellipse fill="none" stroke="#000000" cx="277.8578" cy="-73.6906" rx="3.2" ry="3.2"/>
</g>
<!-- etapas_matriz_disciplinas&#45;&gt;inscricao_lista_espera_situacoes -->
<g id="edge2" class="edge">
<title>etapas_matriz_disciplinas:w&#45;&gt;inscricao_lista_espera_situacoes:e</title>
<path fill="none" stroke="#000000" stroke-dasharray="5,2" d="M274.7081,-96.8893C259.2137,-110.1898 264.8462,-147.2 237.5,-147.2"/>
<polygon fill="#000000" stroke="#000000" points="280.9258,-94.7753 289.6589,-95.6084 284.7129,-93.4876 288.5,-92.2 288.5,-92.2 288.5,-92.2 284.7129,-93.4876 287.3411,-88.7916 280.9258,-94.7753 280.9258,-94.7753"/>
<ellipse fill="none" stroke="#000000" cx="277.8961" cy="-95.8054" rx="3.2" ry="3.2"/>
</g>
<!-- etapas_matriz_disciplinas&#45;&gt;inscricao_lista_espera_situacoes -->
<g id="edge3" class="edge">
<title>etapas_matriz_disciplinas:w&#45;&gt;inscricao_lista_espera_situacoes:e</title>
<path fill="none" stroke="#000000" stroke-dasharray="5,2" d="M274.0097,-156.4813C261.8398,-153.3875 254.8909,-147.2 237.5,-147.2"/>
<polygon fill="#000000" stroke="#000000" points="280.5557,-157.2576 288.0759,-161.7749 284.5278,-157.7288 288.5,-158.2 288.5,-158.2 288.5,-158.2 284.5278,-157.7288 288.9241,-154.6251 280.5557,-157.2576 280.5557,-157.2576"/>
<ellipse fill="none" stroke="#000000" cx="277.378" cy="-156.8807" rx="3.2" ry="3.2"/>
</g>
<!-- etapas_matriz_disciplinas&#45;&gt;inscricao_lista_espera_situacoes -->
<g id="edge4" class="edge">
<title>etapas_matriz_disciplinas:w&#45;&gt;inscricao_lista_espera_situacoes:e</title>
<path fill="none" stroke="#000000" stroke-dasharray="5,2" d="M274.4604,-176.1536C261.3775,-167.3416 258.5921,-147.2 237.5,-147.2"/>
<polygon fill="#000000" stroke="#000000" points="280.8129,-177.9844 287.503,-183.6592 284.6565,-179.0922 288.5,-180.2 288.5,-180.2 288.5,-180.2 284.6565,-179.0922 289.497,-176.7408 280.8129,-177.9844 280.8129,-177.9844"/>
<ellipse fill="none" stroke="#000000" cx="277.7381" cy="-177.0982" rx="3.2" ry="3.2"/>
</g>
<!-- etapas_matriz_disciplinas&#45;&gt;inscricao_lista_espera_situacoes -->
<g id="edge5" class="edge">
<title>etapas_matriz_disciplinas:w&#45;&gt;inscricao_lista_espera_situacoes:e</title>
<path fill="none" stroke="#000000" stroke-dasharray="5,2" d="M274.4604,-118.2464C261.3775,-127.0584 258.5921,-147.2 237.5,-147.2"/>
<polygon fill="#000000" stroke="#000000" points="280.8129,-116.4156 289.497,-117.6592 284.6565,-115.3078 288.5,-114.2 288.5,-114.2 288.5,-114.2 284.6565,-115.3078 287.503,-110.7408 280.8129,-116.4156 280.8129,-116.4156"/>
<ellipse fill="none" stroke="#000000" cx="277.7381" cy="-117.3018" rx="3.2" ry="3.2"/>
</g>
<!-- etapas_matriz_disciplinas&#45;&gt;inscricao_lista_espera_situacoes -->
<g id="edge6" class="edge">
<title>etapas_matriz_disciplinas:w&#45;&gt;inscricao_lista_espera_situacoes:e</title>
<path fill="none" stroke="#000000" stroke-dasharray="5,2" d="M274.0097,-137.9188C261.8398,-141.0125 254.8909,-147.2 237.5,-147.2"/>
<polygon fill="#000000" stroke="#000000" points="280.5557,-137.1424 288.9241,-139.7749 284.5278,-136.6712 288.5,-136.2 288.5,-136.2 288.5,-136.2 284.5278,-136.6712 288.0759,-132.6251 280.5557,-137.1424 280.5557,-137.1424"/>
<ellipse fill="none" stroke="#000000" cx="277.378" cy="-137.5193" rx="3.2" ry="3.2"/>
</g>
<!-- etapas_matriz_disciplinas&#45;&gt;inscricao_lista_espera_situacoes -->
<g id="edge7" class="edge">
<title>etapas_matriz_disciplinas:w&#45;&gt;inscricao_lista_espera_situacoes:e</title>
<path fill="none" stroke="#000000" stroke-dasharray="5,2" d="M274.7081,-197.5107C259.2137,-184.2102 264.8462,-147.2 237.5,-147.2"/>
<polygon fill="#000000" stroke="#000000" points="280.9258,-199.6247 287.3411,-205.6084 284.7129,-200.9124 288.5,-202.2 288.5,-202.2 288.5,-202.2 284.7129,-200.9124 289.6589,-198.7916 280.9258,-199.6247 280.9258,-199.6247"/>
<ellipse fill="none" stroke="#000000" cx="277.8961" cy="-198.5946" rx="3.2" ry="3.2"/>
</g>
<!-- etapas_matriz_disciplinas&#45;&gt;inscricao_lista_espera_situacoes -->
<g id="edge8" class="edge">
<title>etapas_matriz_disciplinas:w&#45;&gt;inscricao_lista_espera_situacoes:e</title>
<path fill="none" stroke="#000000" stroke-dasharray="5,2" d="M274.5177,-219.6139C255.094,-203.0372 272.4549,-147.2 237.5,-147.2"/>
<polygon fill="#000000" stroke="#000000" points="280.8984,-221.7067 287.378,-227.6207 284.6992,-222.9534 288.5,-224.2 288.5,-224.2 288.5,-224.2 284.6992,-222.9534 289.622,-220.7793 280.8984,-221.7067 280.8984,-221.7067"/>
<ellipse fill="none" stroke="#000000" cx="277.8578" cy="-220.7094" rx="3.2" ry="3.2"/>
</g>
</g>
</svg>
