<?xml version="1.0" encoding="UTF-8" standalone="no"?>
<!DOCTYPE svg PUBLIC "-//W3C//DTD SVG 1.1//EN"
 "http://www.w3.org/Graphics/SVG/1.1/DTD/svg11.dtd">
<!-- Generated by graphviz version 2.40.1 (20161225.0304)
 -->
<!-- Title: oneDegreeRelationshipsDiagram Pages: 1 -->
<svg width="272pt" height="316pt"
 viewBox="0.00 0.00 272.00 316.20" xmlns="http://www.w3.org/2000/svg" xmlns:xlink="http://www.w3.org/1999/xlink">
<g id="graph0" class="graph" transform="scale(1 1) rotate(0) translate(4 312.2)">
<title>oneDegreeRelationshipsDiagram</title>
<polygon fill="#ffffff" stroke="transparent" points="-4,4 -4,-312.2 268,-312.2 268,4 -4,4"/>
<text text-anchor="middle" x="72.4936" y="-7.3" font-family="Helvetica,sans-Serif" font-size="11.00" fill="#000000">Generated by SchemaSpy</text>
<!-- etapas_ensino_inep -->
<g id="node1" class="node">
<title>etapas_ensino_inep</title>
<g id="a_node1"><a xlink:href="../../tables/etapas_ensino_inep.html" xlink:title="etapas_ensino_inep" target="_top">
<polygon fill="#ffffff" stroke="transparent" points="8,-38.2 8,-304.2 256,-304.2 256,-38.2 8,-38.2"/>
<polygon fill="#f5f5f5" stroke="transparent" points="10,-279.2 10,-302.2 254,-302.2 254,-279.2 10,-279.2"/>
<polygon fill="none" stroke="#000000" points="10,-279.2 10,-302.2 254,-302.2 254,-279.2 10,-279.2"/>
<text text-anchor="start" x="15" y="-287.8" font-family="Helvetica,sans-Serif" font-weight="bold" font-size="11.00" fill="#000000">etapas_ensino_inep</text>
<text text-anchor="start" x="219.0437" y="-287.3" font-family="Helvetica,sans-Serif" font-size="11.00" fill="#000000">[table]</text>
<polygon fill="none" stroke="#000000" points="10,-257.2 10,-279.2 145,-279.2 145,-257.2 10,-257.2"/>
<text text-anchor="start" x="30" y="-264.3" font-family="Helvetica,sans-Serif" font-size="11.00" fill="#000000">sistema</text>
<polygon fill="none" stroke="#000000" points="145,-257.2 145,-279.2 254,-279.2 254,-257.2 145,-257.2"/>
<text text-anchor="start" x="148" y="-264.9" font-family="Helvetica,sans-Serif" font-size="11.00" fill="#000000">int4[10]</text>
<polygon fill="none" stroke="#000000" points="10,-235.2 10,-257.2 145,-257.2 145,-235.2 10,-235.2"/>
<text text-anchor="start" x="30" y="-242.3" font-family="Helvetica,sans-Serif" font-size="11.00" fill="#000000">tipo_registro</text>
<polygon fill="none" stroke="#000000" points="145,-235.2 145,-257.2 254,-257.2 254,-235.2 145,-235.2"/>
<text text-anchor="start" x="148" y="-242.9" font-family="Helvetica,sans-Serif" font-size="11.00" fill="#000000">text[2147483647]</text>
<polygon fill="none" stroke="#000000" points="10,-213.2 10,-235.2 145,-235.2 145,-213.2 10,-213.2"/>
<text text-anchor="start" x="30" y="-220.3" font-family="Helvetica,sans-Serif" font-size="11.00" fill="#000000">id_integracao</text>
<polygon fill="none" stroke="#000000" points="145,-213.2 145,-235.2 254,-235.2 254,-213.2 145,-213.2"/>
<text text-anchor="start" x="147.5344" y="-220.9" font-family="Helvetica,sans-Serif" font-size="11.00" fill="#000000">varchar[2147483647]</text>
<polygon fill="none" stroke="#000000" points="10,-191.2 10,-213.2 145,-213.2 145,-191.2 10,-191.2"/>
<text text-anchor="start" x="30" y="-198.3" font-family="Helvetica,sans-Serif" font-size="11.00" fill="#000000">id_origem</text>
<polygon fill="none" stroke="#000000" points="145,-191.2 145,-213.2 254,-213.2 254,-191.2 145,-191.2"/>
<text text-anchor="start" x="148" y="-198.9" font-family="Helvetica,sans-Serif" font-size="11.00" fill="#000000">int4[10]</text>
<polygon fill="none" stroke="#000000" points="10,-169.2 10,-191.2 145,-191.2 145,-169.2 10,-169.2"/>
<text text-anchor="start" x="30" y="-176.3" font-family="Helvetica,sans-Serif" font-size="11.00" fill="#000000">id_cloud</text>
<polygon fill="none" stroke="#000000" points="145,-169.2 145,-191.2 254,-191.2 254,-169.2 145,-169.2"/>
<text text-anchor="start" x="148" y="-176.9" font-family="Helvetica,sans-Serif" font-size="11.00" fill="#000000">int4[10]</text>
<polygon fill="none" stroke="#000000" points="10,-147.2 10,-169.2 145,-169.2 145,-147.2 10,-147.2"/>
<text text-anchor="start" x="30" y="-154.3" font-family="Helvetica,sans-Serif" font-size="11.00" fill="#000000">nome</text>
<polygon fill="none" stroke="#000000" points="145,-147.2 145,-169.2 254,-169.2 254,-147.2 145,-147.2"/>
<text text-anchor="start" x="147.5344" y="-154.9" font-family="Helvetica,sans-Serif" font-size="11.00" fill="#000000">varchar[2147483647]</text>
<polygon fill="none" stroke="#000000" points="10,-125.2 10,-147.2 145,-147.2 145,-125.2 10,-125.2"/>
<text text-anchor="start" x="30" y="-132.3" font-family="Helvetica,sans-Serif" font-size="11.00" fill="#000000">codigo_inep</text>
<polygon fill="none" stroke="#000000" points="145,-125.2 145,-147.2 254,-147.2 254,-125.2 145,-125.2"/>
<text text-anchor="start" x="148" y="-132.9" font-family="Helvetica,sans-Serif" font-size="11.00" fill="#000000">int4[10]</text>
<polygon fill="none" stroke="#000000" points="10,-103.2 10,-125.2 145,-125.2 145,-103.2 10,-103.2"/>
<text text-anchor="start" x="30" y="-110.3" font-family="Helvetica,sans-Serif" font-size="11.00" fill="#000000">eja</text>
<polygon fill="none" stroke="#000000" points="145,-103.2 145,-125.2 254,-125.2 254,-103.2 145,-103.2"/>
<text text-anchor="start" x="148" y="-110.9" font-family="Helvetica,sans-Serif" font-size="11.00" fill="#000000">bool[1]</text>
<polygon fill="none" stroke="#000000" points="10,-81.2 10,-103.2 145,-103.2 145,-81.2 10,-81.2"/>
<text text-anchor="start" x="30" y="-88.3" font-family="Helvetica,sans-Serif" font-size="11.00" fill="#000000">especial</text>
<polygon fill="none" stroke="#000000" points="145,-81.2 145,-103.2 254,-103.2 254,-81.2 145,-81.2"/>
<text text-anchor="start" x="148" y="-88.9" font-family="Helvetica,sans-Serif" font-size="11.00" fill="#000000">bool[1]</text>
<polygon fill="none" stroke="#000000" points="10,-59.2 10,-81.2 145,-81.2 145,-59.2 10,-59.2"/>
<text text-anchor="start" x="30" y="-66.3" font-family="Helvetica,sans-Serif" font-size="11.00" fill="#000000">regular</text>
<polygon fill="none" stroke="#000000" points="145,-59.2 145,-81.2 254,-81.2 254,-59.2 145,-59.2"/>
<text text-anchor="start" x="148" y="-66.9" font-family="Helvetica,sans-Serif" font-size="11.00" fill="#000000">bool[1]</text>
<polygon fill="#ffffff" stroke="transparent" points="10,-40.2 10,-59.2 82,-59.2 82,-40.2 10,-40.2"/>
<polygon fill="none" stroke="#000000" points="10,-40.2 10,-59.2 82,-59.2 82,-40.2 10,-40.2"/>
<text text-anchor="start" x="13" y="-46.3" font-family="Helvetica,sans-Serif" font-size="11.00" fill="#000000">&lt; 0</text>
<polygon fill="#ffffff" stroke="transparent" points="82,-40.2 82,-59.2 145,-59.2 145,-40.2 82,-40.2"/>
<polygon fill="none" stroke="#000000" points="82,-40.2 82,-59.2 145,-59.2 145,-40.2 82,-40.2"/>
<text text-anchor="start" x="135.8862" y="-46.3" font-family="Helvetica,sans-Serif" font-size="11.00" fill="#000000"> &#160;</text>
<polygon fill="#ffffff" stroke="transparent" points="145,-40.2 145,-59.2 254,-59.2 254,-40.2 145,-40.2"/>
<polygon fill="none" stroke="#000000" points="145,-40.2 145,-59.2 254,-59.2 254,-40.2 145,-40.2"/>
<text text-anchor="start" x="235.4053" y="-46.3" font-family="Helvetica,sans-Serif" font-size="11.00" fill="#000000">0 &gt;</text>
<polygon fill="none" stroke="#000000" stroke-width="2" points="9,-39.2 9,-303.2 255,-303.2 255,-39.2 9,-39.2"/>
</a>
</g>
</g>
</g>
</svg>
