<?xml version="1.0" encoding="UTF-8" standalone="no"?>
<!DOCTYPE svg PUBLIC "-//W3C//DTD SVG 1.1//EN"
 "http://www.w3.org/Graphics/SVG/1.1/DTD/svg11.dtd">
<!-- Generated by graphviz version 2.40.1 (20161225.0304)
 -->
<!-- Title: oneDegreeRelationshipsDiagram Pages: 1 -->
<svg width="290pt" height="140pt"
 viewBox="0.00 0.00 290.00 140.20" xmlns="http://www.w3.org/2000/svg" xmlns:xlink="http://www.w3.org/1999/xlink">
<g id="graph0" class="graph" transform="scale(1 1) rotate(0) translate(4 136.2)">
<title>oneDegreeRelationshipsDiagram</title>
<polygon fill="#ffffff" stroke="transparent" points="-4,4 -4,-136.2 286,-136.2 286,4 -4,4"/>
<text text-anchor="middle" x="72.4936" y="-7.3" font-family="Helvetica,sans-Serif" font-size="11.00" fill="#000000">Generated by SchemaSpy</text>
<!-- etapa_matriz_disciplina_objetivos -->
<g id="node1" class="node">
<title>etapa_matriz_disciplina_objetivos</title>
<g id="a_node1"><a xlink:href="../../tables/etapa_matriz_disciplina_objetivos.html" xlink:title="etapa_matriz_disciplina_objetivos" target="_top">
<polygon fill="#ffffff" stroke="transparent" points="8,-38.2 8,-128.2 274,-128.2 274,-38.2 8,-38.2"/>
<polygon fill="#f5f5f5" stroke="transparent" points="10,-103.2 10,-126.2 272,-126.2 272,-103.2 10,-103.2"/>
<polygon fill="none" stroke="#000000" points="10,-103.2 10,-126.2 272,-126.2 272,-103.2 10,-103.2"/>
<text text-anchor="start" x="15" y="-111.8" font-family="Helvetica,sans-Serif" font-weight="bold" font-size="11.00" fill="#000000">etapa_matriz_disciplina_objetivos</text>
<text text-anchor="start" x="237.0437" y="-111.3" font-family="Helvetica,sans-Serif" font-size="11.00" fill="#000000">[table]</text>
<polygon fill="none" stroke="#000000" points="10,-81.2 10,-103.2 230,-103.2 230,-81.2 10,-81.2"/>
<image xlink:href="../../images/foreignKeys.png" width="11px" height="12px" preserveAspectRatio="xMinYMin meet" x="15" y="-98.2"/>
<text text-anchor="start" x="30" y="-88.3" font-family="Helvetica,sans-Serif" font-size="11.00" fill="#000000">objetivo_origem_id</text>
<polygon fill="none" stroke="#000000" points="230,-81.2 230,-103.2 272,-103.2 272,-81.2 230,-81.2"/>
<text text-anchor="start" x="232.9644" y="-88.9" font-family="Helvetica,sans-Serif" font-size="11.00" fill="#000000">int4[10]</text>
<polygon fill="none" stroke="#000000" points="10,-59.2 10,-81.2 230,-81.2 230,-59.2 10,-59.2"/>
<image xlink:href="../../images/foreignKeys.png" width="11px" height="12px" preserveAspectRatio="xMinYMin meet" x="15" y="-76.2"/>
<text text-anchor="start" x="30" y="-66.3" font-family="Helvetica,sans-Serif" font-size="11.00" fill="#000000">etapa_matriz_disciplina_origem_id</text>
<polygon fill="none" stroke="#000000" points="230,-59.2 230,-81.2 272,-81.2 272,-59.2 230,-59.2"/>
<text text-anchor="start" x="232.9644" y="-66.9" font-family="Helvetica,sans-Serif" font-size="11.00" fill="#000000">int4[10]</text>
<polygon fill="#ffffff" stroke="transparent" points="10,-40.2 10,-59.2 124,-59.2 124,-40.2 10,-40.2"/>
<polygon fill="none" stroke="#000000" points="10,-40.2 10,-59.2 124,-59.2 124,-40.2 10,-40.2"/>
<text text-anchor="start" x="13" y="-46.3" font-family="Helvetica,sans-Serif" font-size="11.00" fill="#000000">&lt; 0</text>
<polygon fill="#ffffff" stroke="transparent" points="124,-40.2 124,-59.2 230,-59.2 230,-40.2 124,-40.2"/>
<polygon fill="none" stroke="#000000" points="124,-40.2 124,-59.2 230,-59.2 230,-40.2 124,-40.2"/>
<text text-anchor="start" x="220.8862" y="-46.3" font-family="Helvetica,sans-Serif" font-size="11.00" fill="#000000"> &#160;</text>
<polygon fill="#ffffff" stroke="transparent" points="230,-40.2 230,-59.2 272,-59.2 272,-40.2 230,-40.2"/>
<polygon fill="none" stroke="#000000" points="230,-40.2 230,-59.2 272,-59.2 272,-40.2 230,-40.2"/>
<text text-anchor="start" x="253.4053" y="-46.3" font-family="Helvetica,sans-Serif" font-size="11.00" fill="#000000">0 &gt;</text>
<polygon fill="none" stroke="#000000" stroke-width="2" points="9,-39.2 9,-127.2 273,-127.2 273,-39.2 9,-39.2"/>
</a>
</g>
</g>
</g>
</svg>
