<?xml version="1.0" encoding="UTF-8" standalone="no"?>
<!DOCTYPE svg PUBLIC "-//W3C//DTD SVG 1.1//EN"
 "http://www.w3.org/Graphics/SVG/1.1/DTD/svg11.dtd">
<!-- Generated by graphviz version 2.40.1 (20161225.0304)
 -->
<!-- Title: oneDegreeRelationshipsDiagramImplied Pages: 1 -->
<svg width="796pt" height="426pt"
 viewBox="0.00 0.00 796.00 426.20" xmlns="http://www.w3.org/2000/svg" xmlns:xlink="http://www.w3.org/1999/xlink">
<g id="graph0" class="graph" transform="scale(1 1) rotate(0) translate(4 422.2)">
<title>oneDegreeRelationshipsDiagramImplied</title>
<polygon fill="#ffffff" stroke="transparent" points="-4,4 -4,-422.2 792,-422.2 792,4 -4,4"/>
<text text-anchor="middle" x="72.4936" y="-7.3" font-family="Helvetica,sans-Serif" font-size="11.00" fill="#000000">Generated by SchemaSpy</text>
<!-- etapas_lista_espera -->
<g id="node1" class="node">
<title>etapas_lista_espera</title>
<g id="a_node1"><a xlink:href="../../tables/etapas_lista_espera.html" xlink:title="etapas_lista_espera" target="_top">
<polygon fill="#ffffff" stroke="transparent" points="286,-38.2 286,-414.2 780,-414.2 780,-38.2 286,-38.2"/>
<polygon fill="#f5f5f5" stroke="transparent" points="288,-389.2 288,-412.2 778,-412.2 778,-389.2 288,-389.2"/>
<polygon fill="none" stroke="#000000" points="288,-389.2 288,-412.2 778,-412.2 778,-389.2 288,-389.2"/>
<text text-anchor="start" x="293" y="-397.8" font-family="Helvetica,sans-Serif" font-weight="bold" font-size="11.00" fill="#000000">etapas_lista_espera</text>
<text text-anchor="start" x="743.0437" y="-397.3" font-family="Helvetica,sans-Serif" font-size="11.00" fill="#000000">[table]</text>
<polygon fill="none" stroke="#000000" points="288,-367.2 288,-389.2 539,-389.2 539,-367.2 288,-367.2"/>
<text text-anchor="start" x="308" y="-374.3" font-family="Helvetica,sans-Serif" font-size="11.00" fill="#000000">sistema</text>
<polygon fill="none" stroke="#000000" points="539,-367.2 539,-389.2 778,-389.2 778,-367.2 539,-367.2"/>
<text text-anchor="start" x="542" y="-374.9" font-family="Helvetica,sans-Serif" font-size="11.00" fill="#000000">int4[10]</text>
<polygon fill="none" stroke="#000000" points="288,-345.2 288,-367.2 539,-367.2 539,-345.2 288,-345.2"/>
<text text-anchor="start" x="308" y="-352.3" font-family="Helvetica,sans-Serif" font-size="11.00" fill="#000000">tipo_registro</text>
<polygon fill="none" stroke="#000000" points="539,-345.2 539,-367.2 778,-367.2 778,-345.2 539,-345.2"/>
<text text-anchor="start" x="542" y="-352.9" font-family="Helvetica,sans-Serif" font-size="11.00" fill="#000000">text[2147483647]</text>
<polygon fill="none" stroke="#000000" points="288,-323.2 288,-345.2 539,-345.2 539,-323.2 288,-323.2"/>
<text text-anchor="start" x="308" y="-330.3" font-family="Helvetica,sans-Serif" font-size="11.00" fill="#000000">id_origem</text>
<polygon fill="none" stroke="#000000" points="539,-323.2 539,-345.2 778,-345.2 778,-323.2 539,-323.2"/>
<text text-anchor="start" x="542" y="-330.9" font-family="Helvetica,sans-Serif" font-size="11.00" fill="#000000">int4[10]</text>
<polygon fill="none" stroke="#000000" points="288,-301.2 288,-323.2 539,-323.2 539,-301.2 288,-301.2"/>
<text text-anchor="start" x="308" y="-308.3" font-family="Helvetica,sans-Serif" font-size="11.00" fill="#000000">id_cloud</text>
<polygon fill="none" stroke="#000000" points="539,-301.2 539,-323.2 778,-323.2 778,-301.2 539,-301.2"/>
<text text-anchor="start" x="542" y="-308.9" font-family="Helvetica,sans-Serif" font-size="11.00" fill="#000000">varchar[2147483647]</text>
<polygon fill="none" stroke="#000000" points="288,-279.2 288,-301.2 539,-301.2 539,-279.2 288,-279.2"/>
<text text-anchor="start" x="308" y="-286.3" font-family="Helvetica,sans-Serif" font-size="11.00" fill="#000000">turnos</text>
<polygon fill="none" stroke="#000000" points="539,-279.2 539,-301.2 778,-301.2 778,-279.2 539,-279.2"/>
<text text-anchor="start" x="542" y="-286.9" font-family="Helvetica,sans-Serif" font-size="11.00" fill="#000000">&quot;educacao&quot;.&quot;_turnos&quot;[2147483647]</text>
<polygon fill="none" stroke="#000000" points="288,-257.2 288,-279.2 539,-279.2 539,-257.2 288,-257.2"/>
<text text-anchor="start" x="308" y="-264.3" font-family="Helvetica,sans-Serif" font-size="11.00" fill="#000000">descricao</text>
<polygon fill="none" stroke="#000000" points="539,-257.2 539,-279.2 778,-279.2 778,-257.2 539,-257.2"/>
<text text-anchor="start" x="542" y="-264.9" font-family="Helvetica,sans-Serif" font-size="11.00" fill="#000000">varchar[2147483647]</text>
<polygon fill="none" stroke="#000000" points="288,-235.2 288,-257.2 539,-257.2 539,-235.2 288,-235.2"/>
<text text-anchor="start" x="308" y="-242.3" font-family="Helvetica,sans-Serif" font-size="11.00" fill="#000000">ano_idade_maxima</text>
<polygon fill="none" stroke="#000000" points="539,-235.2 539,-257.2 778,-257.2 778,-235.2 539,-235.2"/>
<text text-anchor="start" x="542" y="-242.9" font-family="Helvetica,sans-Serif" font-size="11.00" fill="#000000">int4[10]</text>
<polygon fill="none" stroke="#000000" points="288,-213.2 288,-235.2 539,-235.2 539,-213.2 288,-213.2"/>
<text text-anchor="start" x="308" y="-220.3" font-family="Helvetica,sans-Serif" font-size="11.00" fill="#000000">ano_idade_minima</text>
<polygon fill="none" stroke="#000000" points="539,-213.2 539,-235.2 778,-235.2 778,-213.2 539,-213.2"/>
<text text-anchor="start" x="542" y="-220.9" font-family="Helvetica,sans-Serif" font-size="11.00" fill="#000000">int4[10]</text>
<polygon fill="none" stroke="#000000" points="288,-191.2 288,-213.2 539,-213.2 539,-191.2 288,-191.2"/>
<text text-anchor="start" x="308" y="-198.3" font-family="Helvetica,sans-Serif" font-size="11.00" fill="#000000">mes_idade_maxima</text>
<polygon fill="none" stroke="#000000" points="539,-191.2 539,-213.2 778,-213.2 778,-191.2 539,-191.2"/>
<text text-anchor="start" x="542" y="-198.9" font-family="Helvetica,sans-Serif" font-size="11.00" fill="#000000">int4[10]</text>
<polygon fill="none" stroke="#000000" points="288,-169.2 288,-191.2 539,-191.2 539,-169.2 288,-169.2"/>
<text text-anchor="start" x="308" y="-176.3" font-family="Helvetica,sans-Serif" font-size="11.00" fill="#000000">mes_idade_minima</text>
<polygon fill="none" stroke="#000000" points="539,-169.2 539,-191.2 778,-191.2 778,-169.2 539,-169.2"/>
<text text-anchor="start" x="542" y="-176.9" font-family="Helvetica,sans-Serif" font-size="11.00" fill="#000000">int4[10]</text>
<polygon fill="none" stroke="#000000" points="288,-147.2 288,-169.2 539,-169.2 539,-147.2 288,-147.2"/>
<text text-anchor="start" x="308" y="-154.3" font-family="Helvetica,sans-Serif" font-size="11.00" fill="#000000">tipo_data_corte</text>
<polygon fill="none" stroke="#000000" points="539,-147.2 539,-169.2 778,-169.2 778,-147.2 539,-147.2"/>
<text text-anchor="start" x="542" y="-154.9" font-family="Helvetica,sans-Serif" font-size="11.00" fill="#000000">&quot;educacao&quot;.&quot;tiposdatacorte&quot;[2147483647]</text>
<polygon fill="none" stroke="#000000" points="288,-125.2 288,-147.2 539,-147.2 539,-125.2 288,-125.2"/>
<text text-anchor="start" x="308" y="-132.3" font-family="Helvetica,sans-Serif" font-size="11.00" fill="#000000">dia_mes_para_completar_idade_minima</text>
<polygon fill="none" stroke="#000000" points="539,-125.2 539,-147.2 778,-147.2 778,-125.2 539,-125.2"/>
<text text-anchor="start" x="542" y="-132.9" font-family="Helvetica,sans-Serif" font-size="11.00" fill="#000000">varchar[2147483647]</text>
<polygon fill="none" stroke="#000000" points="288,-103.2 288,-125.2 539,-125.2 539,-103.2 288,-103.2"/>
<text text-anchor="start" x="308" y="-110.3" font-family="Helvetica,sans-Serif" font-size="11.00" fill="#000000">equivalencia</text>
<polygon fill="none" stroke="#000000" points="539,-103.2 539,-125.2 778,-125.2 778,-103.2 539,-103.2"/>
<text text-anchor="start" x="541.5585" y="-110.9" font-family="Helvetica,sans-Serif" font-size="11.00" fill="#000000">&quot;educacao&quot;.&quot;_etapaequivalencias&quot;[2147483647]</text>
<polygon fill="none" stroke="#000000" points="288,-81.2 288,-103.2 539,-103.2 539,-81.2 288,-81.2"/>
<image xlink:href="../../images/foreignKeys.png" width="11px" height="12px" preserveAspectRatio="xMinYMin meet" x="293" y="-98.2"/>
<text text-anchor="start" x="308" y="-88.3" font-family="Helvetica,sans-Serif" font-size="11.00" fill="#000000">nivel_lista_espera_origem_id</text>
<polygon fill="none" stroke="#000000" points="539,-81.2 539,-103.2 778,-103.2 778,-81.2 539,-81.2"/>
<text text-anchor="start" x="542" y="-88.9" font-family="Helvetica,sans-Serif" font-size="11.00" fill="#000000">int4[10]</text>
<polygon fill="none" stroke="#000000" points="288,-59.2 288,-81.2 539,-81.2 539,-59.2 288,-59.2"/>
<text text-anchor="start" x="308" y="-66.3" font-family="Helvetica,sans-Serif" font-size="11.00" fill="#000000">nivel_lista_espera_cloud_id</text>
<polygon fill="none" stroke="#000000" points="539,-59.2 539,-81.2 778,-81.2 778,-59.2 539,-59.2"/>
<text text-anchor="start" x="542" y="-66.9" font-family="Helvetica,sans-Serif" font-size="11.00" fill="#000000">varchar[2147483647]</text>
<polygon fill="#ffffff" stroke="transparent" points="288,-40.2 288,-59.2 418,-59.2 418,-40.2 288,-40.2"/>
<polygon fill="none" stroke="#000000" points="288,-40.2 288,-59.2 418,-59.2 418,-40.2 288,-40.2"/>
<text text-anchor="start" x="291" y="-46.3" font-family="Helvetica,sans-Serif" font-size="11.00" fill="#000000">&lt; 1</text>
<polygon fill="#ffffff" stroke="transparent" points="418,-40.2 418,-59.2 539,-59.2 539,-40.2 418,-40.2"/>
<polygon fill="none" stroke="#000000" points="418,-40.2 418,-59.2 539,-59.2 539,-40.2 418,-40.2"/>
<text text-anchor="start" x="529.8862" y="-46.3" font-family="Helvetica,sans-Serif" font-size="11.00" fill="#000000"> &#160;</text>
<polygon fill="#ffffff" stroke="transparent" points="539,-40.2 539,-59.2 778,-59.2 778,-40.2 539,-40.2"/>
<polygon fill="none" stroke="#000000" points="539,-40.2 539,-59.2 778,-59.2 778,-40.2 539,-40.2"/>
<text text-anchor="start" x="759.4053" y="-46.3" font-family="Helvetica,sans-Serif" font-size="11.00" fill="#000000">0 &gt;</text>
<polygon fill="none" stroke="#000000" stroke-width="2" points="287,-39.2 287,-413.2 779,-413.2 779,-39.2 287,-39.2"/>
</a>
</g>
</g>
<!-- inscricao_lista_espera_situacoes -->
<g id="node2" class="node">
<title>inscricao_lista_espera_situacoes</title>
<g id="a_node2"><a xlink:href="../../tables/inscricao_lista_espera_situacoes.html" xlink:title="inscricao_lista_espera_situacoes" target="_top">
<polygon fill="#ffffff" stroke="transparent" points="8,-43.7 8,-126.7 237,-126.7 237,-43.7 8,-43.7"/>
<polygon fill="#f5f5f5" stroke="transparent" points="8.5,-103.2 8.5,-126.2 237.5,-126.2 237.5,-103.2 8.5,-103.2"/>
<polygon fill="none" stroke="#000000" points="8.5,-103.2 8.5,-126.2 237.5,-126.2 237.5,-103.2 8.5,-103.2"/>
<text text-anchor="start" x="13.5" y="-111.8" font-family="Helvetica,sans-Serif" font-weight="bold" font-size="11.00" fill="#000000">inscricao_lista_espera_situacoes</text>
<text text-anchor="start" x="203.0219" y="-111.3" font-family="Helvetica,sans-Serif" font-size="11.00" fill="#000000">[table]</text>
<polygon fill="none" stroke="#000000" points="8.5,-81.2 8.5,-103.2 237.5,-103.2 237.5,-81.2 8.5,-81.2"/>
<image xlink:href="../../images/primaryKeys.png" width="11px" height="12px" preserveAspectRatio="xMinYMin meet" x="13.5" y="-98.2"/>
<text text-anchor="start" x="37.5" y="-88.3" font-family="Helvetica,sans-Serif" font-size="11.00" fill="#000000">id</text>
<polygon fill="none" stroke="#000000" points="8.5,-62.2 8.5,-81.2 237.5,-81.2 237.5,-62.2 8.5,-62.2"/>
<text text-anchor="start" x="11.5" y="-68.3" font-family="Helvetica,sans-Serif" font-size="11.00" fill="#000000">...</text>
<polygon fill="#ffffff" stroke="transparent" points="8.5,-43.2 8.5,-62.2 106.5,-62.2 106.5,-43.2 8.5,-43.2"/>
<polygon fill="none" stroke="#000000" points="8.5,-43.2 8.5,-62.2 106.5,-62.2 106.5,-43.2 8.5,-43.2"/>
<text text-anchor="start" x="11.5" y="-49.3" font-family="Helvetica,sans-Serif" font-size="11.00" fill="#000000"> &#160;</text>
<polygon fill="#ffffff" stroke="transparent" points="106.5,-43.2 106.5,-62.2 161.5,-62.2 161.5,-43.2 106.5,-43.2"/>
<polygon fill="none" stroke="#000000" points="106.5,-43.2 106.5,-62.2 161.5,-62.2 161.5,-43.2 106.5,-43.2"/>
<text text-anchor="start" x="152.3862" y="-49.3" font-family="Helvetica,sans-Serif" font-size="11.00" fill="#000000"> &#160;</text>
<polygon fill="#ffffff" stroke="transparent" points="161.5,-43.2 161.5,-62.2 237.5,-62.2 237.5,-43.2 161.5,-43.2"/>
<polygon fill="none" stroke="#000000" points="161.5,-43.2 161.5,-62.2 237.5,-62.2 237.5,-43.2 161.5,-43.2"/>
<text text-anchor="start" x="206.6755" y="-49.3" font-family="Helvetica,sans-Serif" font-size="11.00" fill="#000000">596 &gt;</text>
</a>
</g>
</g>
<!-- etapas_lista_espera&#45;&gt;inscricao_lista_espera_situacoes -->
<g id="edge1" class="edge">
<title>etapas_lista_espera:w&#45;&gt;inscricao_lista_espera_situacoes:e</title>
<path fill="none" stroke="#000000" stroke-dasharray="5,2" d="M273.4203,-92.2C261.5435,-92.2 254.158,-92.2 237.5,-92.2"/>
<polygon fill="#000000" stroke="#000000" points="280,-92.2001 288,-95.8 284,-92.2 288,-92.2 288,-92.2 288,-92.2 284,-92.2 288,-88.6 280,-92.2001 280,-92.2001"/>
<ellipse fill="none" stroke="#000000" cx="276.8" cy="-92.2001" rx="3.2" ry="3.2"/>
</g>
</g>
</svg>
