<?xml version="1.0" encoding="UTF-8" standalone="no"?>
<!DOCTYPE svg PUBLIC "-//W3C//DTD SVG 1.1//EN"
 "http://www.w3.org/Graphics/SVG/1.1/DTD/svg11.dtd">
<!-- Generated by graphviz version 2.40.1 (20161225.0304)
 -->
<!-- Title: oneDegreeRelationshipsDiagramImplied Pages: 1 -->
<svg width="740pt" height="558pt"
 viewBox="0.00 0.00 740.00 558.20" xmlns="http://www.w3.org/2000/svg" xmlns:xlink="http://www.w3.org/1999/xlink">
<g id="graph0" class="graph" transform="scale(1 1) rotate(0) translate(4 554.2)">
<title>oneDegreeRelationshipsDiagramImplied</title>
<polygon fill="#ffffff" stroke="transparent" points="-4,4 -4,-554.2 736,-554.2 736,4 -4,4"/>
<text text-anchor="middle" x="72.4936" y="-7.3" font-family="Helvetica,sans-Serif" font-size="11.00" fill="#000000">Generated by SchemaSpy</text>
<!-- etapas_matriz -->
<g id="node1" class="node">
<title>etapas_matriz</title>
<g id="a_node1"><a xlink:href="../../tables/etapas_matriz.html" xlink:title="etapas_matriz" target="_top">
<polygon fill="#ffffff" stroke="transparent" points="286,-38.2 286,-546.2 724,-546.2 724,-38.2 286,-38.2"/>
<polygon fill="#f5f5f5" stroke="transparent" points="288,-521.2 288,-544.2 722,-544.2 722,-521.2 288,-521.2"/>
<polygon fill="none" stroke="#000000" points="288,-521.2 288,-544.2 722,-544.2 722,-521.2 288,-521.2"/>
<text text-anchor="start" x="293" y="-529.8" font-family="Helvetica,sans-Serif" font-weight="bold" font-size="11.00" fill="#000000">etapas_matriz</text>
<text text-anchor="start" x="687.0437" y="-529.3" font-family="Helvetica,sans-Serif" font-size="11.00" fill="#000000">[table]</text>
<polygon fill="none" stroke="#000000" points="288,-499.2 288,-521.2 483,-521.2 483,-499.2 288,-499.2"/>
<text text-anchor="start" x="308" y="-506.3" font-family="Helvetica,sans-Serif" font-size="11.00" fill="#000000">sistema</text>
<polygon fill="none" stroke="#000000" points="483,-499.2 483,-521.2 722,-521.2 722,-499.2 483,-499.2"/>
<text text-anchor="start" x="486" y="-506.9" font-family="Helvetica,sans-Serif" font-size="11.00" fill="#000000">int4[10]</text>
<polygon fill="none" stroke="#000000" points="288,-477.2 288,-499.2 483,-499.2 483,-477.2 288,-477.2"/>
<text text-anchor="start" x="308" y="-484.3" font-family="Helvetica,sans-Serif" font-size="11.00" fill="#000000">tipo_registro</text>
<polygon fill="none" stroke="#000000" points="483,-477.2 483,-499.2 722,-499.2 722,-477.2 483,-477.2"/>
<text text-anchor="start" x="486" y="-484.9" font-family="Helvetica,sans-Serif" font-size="11.00" fill="#000000">text[2147483647]</text>
<polygon fill="none" stroke="#000000" points="288,-455.2 288,-477.2 483,-477.2 483,-455.2 288,-455.2"/>
<text text-anchor="start" x="308" y="-462.3" font-family="Helvetica,sans-Serif" font-size="11.00" fill="#000000">id_integracao</text>
<polygon fill="none" stroke="#000000" points="483,-455.2 483,-477.2 722,-477.2 722,-455.2 483,-455.2"/>
<text text-anchor="start" x="486" y="-462.9" font-family="Helvetica,sans-Serif" font-size="11.00" fill="#000000">varchar[2147483647]</text>
<polygon fill="none" stroke="#000000" points="288,-433.2 288,-455.2 483,-455.2 483,-433.2 288,-433.2"/>
<text text-anchor="start" x="308" y="-440.3" font-family="Helvetica,sans-Serif" font-size="11.00" fill="#000000">id_origem</text>
<polygon fill="none" stroke="#000000" points="483,-433.2 483,-455.2 722,-455.2 722,-433.2 483,-433.2"/>
<text text-anchor="start" x="486" y="-440.9" font-family="Helvetica,sans-Serif" font-size="11.00" fill="#000000">int4[10]</text>
<polygon fill="none" stroke="#000000" points="288,-411.2 288,-433.2 483,-433.2 483,-411.2 288,-411.2"/>
<text text-anchor="start" x="308" y="-418.3" font-family="Helvetica,sans-Serif" font-size="11.00" fill="#000000">id_cloud</text>
<polygon fill="none" stroke="#000000" points="483,-411.2 483,-433.2 722,-433.2 722,-411.2 483,-411.2"/>
<text text-anchor="start" x="486" y="-418.9" font-family="Helvetica,sans-Serif" font-size="11.00" fill="#000000">int4[10]</text>
<polygon fill="none" stroke="#000000" points="288,-389.2 288,-411.2 483,-411.2 483,-389.2 288,-389.2"/>
<text text-anchor="start" x="308" y="-396.3" font-family="Helvetica,sans-Serif" font-size="11.00" fill="#000000">identificacao</text>
<polygon fill="none" stroke="#000000" points="483,-389.2 483,-411.2 722,-411.2 722,-389.2 483,-389.2"/>
<text text-anchor="start" x="486" y="-396.9" font-family="Helvetica,sans-Serif" font-size="11.00" fill="#000000">varchar[6]</text>
<polygon fill="none" stroke="#000000" points="288,-367.2 288,-389.2 483,-389.2 483,-367.2 288,-367.2"/>
<text text-anchor="start" x="308" y="-374.3" font-family="Helvetica,sans-Serif" font-size="11.00" fill="#000000">quantidade_dependencias</text>
<polygon fill="none" stroke="#000000" points="483,-367.2 483,-389.2 722,-389.2 722,-367.2 483,-367.2"/>
<text text-anchor="start" x="486" y="-374.9" font-family="Helvetica,sans-Serif" font-size="11.00" fill="#000000">int2[5]</text>
<polygon fill="none" stroke="#000000" points="288,-345.2 288,-367.2 483,-367.2 483,-345.2 288,-345.2"/>
<text text-anchor="start" x="308" y="-352.3" font-family="Helvetica,sans-Serif" font-size="11.00" fill="#000000">classificacao</text>
<polygon fill="none" stroke="#000000" points="483,-345.2 483,-367.2 722,-367.2 722,-345.2 483,-345.2"/>
<text text-anchor="start" x="486" y="-352.9" font-family="Helvetica,sans-Serif" font-size="11.00" fill="#000000">varchar[2147483647]</text>
<polygon fill="none" stroke="#000000" points="288,-323.2 288,-345.2 483,-345.2 483,-323.2 288,-323.2"/>
<text text-anchor="start" x="308" y="-330.3" font-family="Helvetica,sans-Serif" font-size="11.00" fill="#000000">cor_classificacao</text>
<polygon fill="none" stroke="#000000" points="483,-323.2 483,-345.2 722,-345.2 722,-323.2 483,-323.2"/>
<text text-anchor="start" x="486" y="-330.9" font-family="Helvetica,sans-Serif" font-size="11.00" fill="#000000">varchar[2147483647]</text>
<polygon fill="none" stroke="#000000" points="288,-301.2 288,-323.2 483,-323.2 483,-301.2 288,-301.2"/>
<text text-anchor="start" x="308" y="-308.3" font-family="Helvetica,sans-Serif" font-size="11.00" fill="#000000">ano_idade_minima</text>
<polygon fill="none" stroke="#000000" points="483,-301.2 483,-323.2 722,-323.2 722,-301.2 483,-301.2"/>
<text text-anchor="start" x="486" y="-308.9" font-family="Helvetica,sans-Serif" font-size="11.00" fill="#000000">int2[5]</text>
<polygon fill="none" stroke="#000000" points="288,-279.2 288,-301.2 483,-301.2 483,-279.2 288,-279.2"/>
<text text-anchor="start" x="308" y="-286.3" font-family="Helvetica,sans-Serif" font-size="11.00" fill="#000000">ano_idade_maxima</text>
<polygon fill="none" stroke="#000000" points="483,-279.2 483,-301.2 722,-301.2 722,-279.2 483,-279.2"/>
<text text-anchor="start" x="486" y="-286.9" font-family="Helvetica,sans-Serif" font-size="11.00" fill="#000000">int2[5]</text>
<polygon fill="none" stroke="#000000" points="288,-257.2 288,-279.2 483,-279.2 483,-257.2 288,-257.2"/>
<text text-anchor="start" x="308" y="-264.3" font-family="Helvetica,sans-Serif" font-size="11.00" fill="#000000">mes_idade_minima</text>
<polygon fill="none" stroke="#000000" points="483,-257.2 483,-279.2 722,-279.2 722,-257.2 483,-257.2"/>
<text text-anchor="start" x="486" y="-264.9" font-family="Helvetica,sans-Serif" font-size="11.00" fill="#000000">int2[5]</text>
<polygon fill="none" stroke="#000000" points="288,-235.2 288,-257.2 483,-257.2 483,-235.2 288,-235.2"/>
<text text-anchor="start" x="308" y="-242.3" font-family="Helvetica,sans-Serif" font-size="11.00" fill="#000000">mes_idade_maxima</text>
<polygon fill="none" stroke="#000000" points="483,-235.2 483,-257.2 722,-257.2 722,-235.2 483,-235.2"/>
<text text-anchor="start" x="486" y="-242.9" font-family="Helvetica,sans-Serif" font-size="11.00" fill="#000000">int2[5]</text>
<polygon fill="none" stroke="#000000" points="288,-213.2 288,-235.2 483,-235.2 483,-213.2 288,-213.2"/>
<text text-anchor="start" x="308" y="-220.3" font-family="Helvetica,sans-Serif" font-size="11.00" fill="#000000">ordem</text>
<polygon fill="none" stroke="#000000" points="483,-213.2 483,-235.2 722,-235.2 722,-213.2 483,-213.2"/>
<text text-anchor="start" x="486" y="-220.9" font-family="Helvetica,sans-Serif" font-size="11.00" fill="#000000">int4[10]</text>
<polygon fill="none" stroke="#000000" points="288,-191.2 288,-213.2 483,-213.2 483,-191.2 288,-191.2"/>
<text text-anchor="start" x="308" y="-198.3" font-family="Helvetica,sans-Serif" font-size="11.00" fill="#000000">equivalencias</text>
<polygon fill="none" stroke="#000000" points="483,-191.2 483,-213.2 722,-213.2 722,-191.2 483,-191.2"/>
<text text-anchor="start" x="485.5585" y="-198.9" font-family="Helvetica,sans-Serif" font-size="11.00" fill="#000000">&quot;educacao&quot;.&quot;_etapaequivalencias&quot;[2147483647]</text>
<polygon fill="none" stroke="#000000" points="288,-169.2 288,-191.2 483,-191.2 483,-169.2 288,-169.2"/>
<image xlink:href="../../images/foreignKeys.png" width="11px" height="12px" preserveAspectRatio="xMinYMin meet" x="293" y="-186.2"/>
<text text-anchor="start" x="308" y="-176.3" font-family="Helvetica,sans-Serif" font-size="11.00" fill="#000000">etapa_ensino_inep_origem_id</text>
<polygon fill="none" stroke="#000000" points="483,-169.2 483,-191.2 722,-191.2 722,-169.2 483,-169.2"/>
<text text-anchor="start" x="486" y="-176.9" font-family="Helvetica,sans-Serif" font-size="11.00" fill="#000000">int4[10]</text>
<polygon fill="none" stroke="#000000" points="288,-147.2 288,-169.2 483,-169.2 483,-147.2 288,-147.2"/>
<image xlink:href="../../images/foreignKeys.png" width="11px" height="12px" preserveAspectRatio="xMinYMin meet" x="293" y="-164.2"/>
<text text-anchor="start" x="308" y="-154.3" font-family="Helvetica,sans-Serif" font-size="11.00" fill="#000000">etapa_ensino_inep_cloud_id</text>
<polygon fill="none" stroke="#000000" points="483,-147.2 483,-169.2 722,-169.2 722,-147.2 483,-147.2"/>
<text text-anchor="start" x="486" y="-154.9" font-family="Helvetica,sans-Serif" font-size="11.00" fill="#000000">int4[10]</text>
<polygon fill="none" stroke="#000000" points="288,-125.2 288,-147.2 483,-147.2 483,-125.2 288,-125.2"/>
<image xlink:href="../../images/foreignKeys.png" width="11px" height="12px" preserveAspectRatio="xMinYMin meet" x="293" y="-142.2"/>
<text text-anchor="start" x="308" y="-132.3" font-family="Helvetica,sans-Serif" font-size="11.00" fill="#000000">matriz_origem_id</text>
<polygon fill="none" stroke="#000000" points="483,-125.2 483,-147.2 722,-147.2 722,-125.2 483,-125.2"/>
<text text-anchor="start" x="486" y="-132.9" font-family="Helvetica,sans-Serif" font-size="11.00" fill="#000000">int4[10]</text>
<polygon fill="none" stroke="#000000" points="288,-103.2 288,-125.2 483,-125.2 483,-103.2 288,-103.2"/>
<image xlink:href="../../images/foreignKeys.png" width="11px" height="12px" preserveAspectRatio="xMinYMin meet" x="293" y="-120.2"/>
<text text-anchor="start" x="308" y="-110.3" font-family="Helvetica,sans-Serif" font-size="11.00" fill="#000000">matriz_cloud_id</text>
<polygon fill="none" stroke="#000000" points="483,-103.2 483,-125.2 722,-125.2 722,-103.2 483,-103.2"/>
<text text-anchor="start" x="486" y="-110.9" font-family="Helvetica,sans-Serif" font-size="11.00" fill="#000000">int4[10]</text>
<polygon fill="none" stroke="#000000" points="288,-81.2 288,-103.2 483,-103.2 483,-81.2 288,-81.2"/>
<text text-anchor="start" x="308" y="-88.3" font-family="Helvetica,sans-Serif" font-size="11.00" fill="#000000">dia_completar_idade_minima</text>
<polygon fill="none" stroke="#000000" points="483,-81.2 483,-103.2 722,-103.2 722,-81.2 483,-81.2"/>
<text text-anchor="start" x="486" y="-88.9" font-family="Helvetica,sans-Serif" font-size="11.00" fill="#000000">int2[5]</text>
<polygon fill="none" stroke="#000000" points="288,-59.2 288,-81.2 483,-81.2 483,-59.2 288,-59.2"/>
<text text-anchor="start" x="308" y="-66.3" font-family="Helvetica,sans-Serif" font-size="11.00" fill="#000000">mes_completar_idade_minima</text>
<polygon fill="none" stroke="#000000" points="483,-59.2 483,-81.2 722,-81.2 722,-59.2 483,-59.2"/>
<text text-anchor="start" x="486" y="-66.9" font-family="Helvetica,sans-Serif" font-size="11.00" fill="#000000">int2[5]</text>
<polygon fill="#ffffff" stroke="transparent" points="288,-40.2 288,-59.2 390,-59.2 390,-40.2 288,-40.2"/>
<polygon fill="none" stroke="#000000" points="288,-40.2 288,-59.2 390,-59.2 390,-40.2 288,-40.2"/>
<text text-anchor="start" x="291" y="-46.3" font-family="Helvetica,sans-Serif" font-size="11.00" fill="#000000">&lt; 4</text>
<polygon fill="#ffffff" stroke="transparent" points="390,-40.2 390,-59.2 483,-59.2 483,-40.2 390,-40.2"/>
<polygon fill="none" stroke="#000000" points="390,-40.2 390,-59.2 483,-59.2 483,-40.2 390,-40.2"/>
<text text-anchor="start" x="473.8862" y="-46.3" font-family="Helvetica,sans-Serif" font-size="11.00" fill="#000000"> &#160;</text>
<polygon fill="#ffffff" stroke="transparent" points="483,-40.2 483,-59.2 722,-59.2 722,-40.2 483,-40.2"/>
<polygon fill="none" stroke="#000000" points="483,-40.2 483,-59.2 722,-59.2 722,-40.2 483,-40.2"/>
<text text-anchor="start" x="703.4053" y="-46.3" font-family="Helvetica,sans-Serif" font-size="11.00" fill="#000000">0 &gt;</text>
<polygon fill="none" stroke="#000000" stroke-width="2" points="287,-39.2 287,-545.2 723,-545.2 723,-39.2 287,-39.2"/>
</a>
</g>
</g>
<!-- inscricao_lista_espera_situacoes -->
<g id="node2" class="node">
<title>inscricao_lista_espera_situacoes</title>
<g id="a_node2"><a xlink:href="../../tables/inscricao_lista_espera_situacoes.html" xlink:title="inscricao_lista_espera_situacoes" target="_top">
<polygon fill="#ffffff" stroke="transparent" points="8,-98.7 8,-181.7 237,-181.7 237,-98.7 8,-98.7"/>
<polygon fill="#f5f5f5" stroke="transparent" points="8.5,-158.2 8.5,-181.2 237.5,-181.2 237.5,-158.2 8.5,-158.2"/>
<polygon fill="none" stroke="#000000" points="8.5,-158.2 8.5,-181.2 237.5,-181.2 237.5,-158.2 8.5,-158.2"/>
<text text-anchor="start" x="13.5" y="-166.8" font-family="Helvetica,sans-Serif" font-weight="bold" font-size="11.00" fill="#000000">inscricao_lista_espera_situacoes</text>
<text text-anchor="start" x="203.0219" y="-166.3" font-family="Helvetica,sans-Serif" font-size="11.00" fill="#000000">[table]</text>
<polygon fill="none" stroke="#000000" points="8.5,-136.2 8.5,-158.2 237.5,-158.2 237.5,-136.2 8.5,-136.2"/>
<image xlink:href="../../images/primaryKeys.png" width="11px" height="12px" preserveAspectRatio="xMinYMin meet" x="13.5" y="-153.2"/>
<text text-anchor="start" x="37.5" y="-143.3" font-family="Helvetica,sans-Serif" font-size="11.00" fill="#000000">id</text>
<polygon fill="none" stroke="#000000" points="8.5,-117.2 8.5,-136.2 237.5,-136.2 237.5,-117.2 8.5,-117.2"/>
<text text-anchor="start" x="11.5" y="-123.3" font-family="Helvetica,sans-Serif" font-size="11.00" fill="#000000">...</text>
<polygon fill="#ffffff" stroke="transparent" points="8.5,-98.2 8.5,-117.2 106.5,-117.2 106.5,-98.2 8.5,-98.2"/>
<polygon fill="none" stroke="#000000" points="8.5,-98.2 8.5,-117.2 106.5,-117.2 106.5,-98.2 8.5,-98.2"/>
<text text-anchor="start" x="11.5" y="-104.3" font-family="Helvetica,sans-Serif" font-size="11.00" fill="#000000"> &#160;</text>
<polygon fill="#ffffff" stroke="transparent" points="106.5,-98.2 106.5,-117.2 161.5,-117.2 161.5,-98.2 106.5,-98.2"/>
<polygon fill="none" stroke="#000000" points="106.5,-98.2 106.5,-117.2 161.5,-117.2 161.5,-98.2 106.5,-98.2"/>
<text text-anchor="start" x="152.3862" y="-104.3" font-family="Helvetica,sans-Serif" font-size="11.00" fill="#000000"> &#160;</text>
<polygon fill="#ffffff" stroke="transparent" points="161.5,-98.2 161.5,-117.2 237.5,-117.2 237.5,-98.2 161.5,-98.2"/>
<polygon fill="none" stroke="#000000" points="161.5,-98.2 161.5,-117.2 237.5,-117.2 237.5,-98.2 161.5,-98.2"/>
<text text-anchor="start" x="206.6755" y="-104.3" font-family="Helvetica,sans-Serif" font-size="11.00" fill="#000000">596 &gt;</text>
</a>
</g>
</g>
<!-- etapas_matriz&#45;&gt;inscricao_lista_espera_situacoes -->
<g id="edge1" class="edge">
<title>etapas_matriz:w&#45;&gt;inscricao_lista_espera_situacoes:e</title>
<path fill="none" stroke="#000000" stroke-dasharray="5,2" d="M273.6489,-156.4813C261.5992,-153.3875 254.728,-147.2 237.5,-147.2"/>
<polygon fill="#000000" stroke="#000000" points="280.0568,-157.2486 287.5719,-161.7745 284.0284,-157.7243 288,-158.2 288,-158.2 288,-158.2 284.0284,-157.7243 288.4281,-154.6255 280.0568,-157.2486 280.0568,-157.2486"/>
<ellipse fill="none" stroke="#000000" cx="276.8795" cy="-156.8681" rx="3.2" ry="3.2"/>
</g>
<!-- etapas_matriz&#45;&gt;inscricao_lista_espera_situacoes -->
<g id="edge2" class="edge">
<title>etapas_matriz:w&#45;&gt;inscricao_lista_espera_situacoes:e</title>
<path fill="none" stroke="#000000" stroke-dasharray="5,2" d="M274.0755,-176.1536C261.1224,-167.3416 258.4466,-147.2 237.5,-147.2"/>
<polygon fill="#000000" stroke="#000000" points="280.3178,-177.9675 286.9954,-183.657 284.1589,-179.0838 288,-180.2 288,-180.2 288,-180.2 284.1589,-179.0838 289.0046,-176.743 280.3178,-177.9675 280.3178,-177.9675"/>
<ellipse fill="none" stroke="#000000" cx="277.2449" cy="-177.0745" rx="3.2" ry="3.2"/>
</g>
<!-- etapas_matriz&#45;&gt;inscricao_lista_espera_situacoes -->
<g id="edge3" class="edge">
<title>etapas_matriz:w&#45;&gt;inscricao_lista_espera_situacoes:e</title>
<path fill="none" stroke="#000000" stroke-dasharray="5,2" d="M274.0755,-118.2464C261.1224,-127.0584 258.4466,-147.2 237.5,-147.2"/>
<polygon fill="#000000" stroke="#000000" points="280.3178,-116.4325 289.0046,-117.657 284.1589,-115.3162 288,-114.2 288,-114.2 288,-114.2 284.1589,-115.3162 286.9954,-110.743 280.3178,-116.4325 280.3178,-116.4325"/>
<ellipse fill="none" stroke="#000000" cx="277.2449" cy="-117.3255" rx="3.2" ry="3.2"/>
</g>
<!-- etapas_matriz&#45;&gt;inscricao_lista_espera_situacoes -->
<g id="edge4" class="edge">
<title>etapas_matriz:w&#45;&gt;inscricao_lista_espera_situacoes:e</title>
<path fill="none" stroke="#000000" stroke-dasharray="5,2" d="M273.6489,-137.9188C261.5992,-141.0125 254.728,-147.2 237.5,-147.2"/>
<polygon fill="#000000" stroke="#000000" points="280.0568,-137.1514 288.4281,-139.7745 284.0284,-136.6757 288,-136.2 288,-136.2 288,-136.2 284.0284,-136.6757 287.5719,-132.6255 280.0568,-137.1514 280.0568,-137.1514"/>
<ellipse fill="none" stroke="#000000" cx="276.8795" cy="-137.5319" rx="3.2" ry="3.2"/>
</g>
</g>
</svg>
