<?xml version="1.0" encoding="UTF-8" standalone="no"?>
<!DOCTYPE svg PUBLIC "-//W3C//DTD SVG 1.1//EN"
 "http://www.w3.org/Graphics/SVG/1.1/DTD/svg11.dtd">
<!-- Generated by graphviz version 2.40.1 (20161225.0304)
 -->
<!-- Title: oneDegreeRelationshipsDiagram Pages: 1 -->
<svg width="518pt" height="426pt"
 viewBox="0.00 0.00 518.00 426.20" xmlns="http://www.w3.org/2000/svg" xmlns:xlink="http://www.w3.org/1999/xlink">
<g id="graph0" class="graph" transform="scale(1 1) rotate(0) translate(4 422.2)">
<title>oneDegreeRelationshipsDiagram</title>
<polygon fill="#ffffff" stroke="transparent" points="-4,4 -4,-422.2 514,-422.2 514,4 -4,4"/>
<text text-anchor="middle" x="72.4936" y="-7.3" font-family="Helvetica,sans-Serif" font-size="11.00" fill="#000000">Generated by SchemaSpy</text>
<!-- etapas_lista_espera -->
<g id="node1" class="node">
<title>etapas_lista_espera</title>
<g id="a_node1"><a xlink:href="../../tables/etapas_lista_espera.html" xlink:title="etapas_lista_espera" target="_top">
<polygon fill="#ffffff" stroke="transparent" points="8,-38.2 8,-414.2 502,-414.2 502,-38.2 8,-38.2"/>
<polygon fill="#f5f5f5" stroke="transparent" points="10,-389.2 10,-412.2 500,-412.2 500,-389.2 10,-389.2"/>
<polygon fill="none" stroke="#000000" points="10,-389.2 10,-412.2 500,-412.2 500,-389.2 10,-389.2"/>
<text text-anchor="start" x="15" y="-397.8" font-family="Helvetica,sans-Serif" font-weight="bold" font-size="11.00" fill="#000000">etapas_lista_espera</text>
<text text-anchor="start" x="465.0437" y="-397.3" font-family="Helvetica,sans-Serif" font-size="11.00" fill="#000000">[table]</text>
<polygon fill="none" stroke="#000000" points="10,-367.2 10,-389.2 261,-389.2 261,-367.2 10,-367.2"/>
<text text-anchor="start" x="30" y="-374.3" font-family="Helvetica,sans-Serif" font-size="11.00" fill="#000000">sistema</text>
<polygon fill="none" stroke="#000000" points="261,-367.2 261,-389.2 500,-389.2 500,-367.2 261,-367.2"/>
<text text-anchor="start" x="264" y="-374.9" font-family="Helvetica,sans-Serif" font-size="11.00" fill="#000000">int4[10]</text>
<polygon fill="none" stroke="#000000" points="10,-345.2 10,-367.2 261,-367.2 261,-345.2 10,-345.2"/>
<text text-anchor="start" x="30" y="-352.3" font-family="Helvetica,sans-Serif" font-size="11.00" fill="#000000">tipo_registro</text>
<polygon fill="none" stroke="#000000" points="261,-345.2 261,-367.2 500,-367.2 500,-345.2 261,-345.2"/>
<text text-anchor="start" x="264" y="-352.9" font-family="Helvetica,sans-Serif" font-size="11.00" fill="#000000">text[2147483647]</text>
<polygon fill="none" stroke="#000000" points="10,-323.2 10,-345.2 261,-345.2 261,-323.2 10,-323.2"/>
<text text-anchor="start" x="30" y="-330.3" font-family="Helvetica,sans-Serif" font-size="11.00" fill="#000000">id_origem</text>
<polygon fill="none" stroke="#000000" points="261,-323.2 261,-345.2 500,-345.2 500,-323.2 261,-323.2"/>
<text text-anchor="start" x="264" y="-330.9" font-family="Helvetica,sans-Serif" font-size="11.00" fill="#000000">int4[10]</text>
<polygon fill="none" stroke="#000000" points="10,-301.2 10,-323.2 261,-323.2 261,-301.2 10,-301.2"/>
<text text-anchor="start" x="30" y="-308.3" font-family="Helvetica,sans-Serif" font-size="11.00" fill="#000000">id_cloud</text>
<polygon fill="none" stroke="#000000" points="261,-301.2 261,-323.2 500,-323.2 500,-301.2 261,-301.2"/>
<text text-anchor="start" x="264" y="-308.9" font-family="Helvetica,sans-Serif" font-size="11.00" fill="#000000">varchar[2147483647]</text>
<polygon fill="none" stroke="#000000" points="10,-279.2 10,-301.2 261,-301.2 261,-279.2 10,-279.2"/>
<text text-anchor="start" x="30" y="-286.3" font-family="Helvetica,sans-Serif" font-size="11.00" fill="#000000">turnos</text>
<polygon fill="none" stroke="#000000" points="261,-279.2 261,-301.2 500,-301.2 500,-279.2 261,-279.2"/>
<text text-anchor="start" x="264" y="-286.9" font-family="Helvetica,sans-Serif" font-size="11.00" fill="#000000">&quot;educacao&quot;.&quot;_turnos&quot;[2147483647]</text>
<polygon fill="none" stroke="#000000" points="10,-257.2 10,-279.2 261,-279.2 261,-257.2 10,-257.2"/>
<text text-anchor="start" x="30" y="-264.3" font-family="Helvetica,sans-Serif" font-size="11.00" fill="#000000">descricao</text>
<polygon fill="none" stroke="#000000" points="261,-257.2 261,-279.2 500,-279.2 500,-257.2 261,-257.2"/>
<text text-anchor="start" x="264" y="-264.9" font-family="Helvetica,sans-Serif" font-size="11.00" fill="#000000">varchar[2147483647]</text>
<polygon fill="none" stroke="#000000" points="10,-235.2 10,-257.2 261,-257.2 261,-235.2 10,-235.2"/>
<text text-anchor="start" x="30" y="-242.3" font-family="Helvetica,sans-Serif" font-size="11.00" fill="#000000">ano_idade_maxima</text>
<polygon fill="none" stroke="#000000" points="261,-235.2 261,-257.2 500,-257.2 500,-235.2 261,-235.2"/>
<text text-anchor="start" x="264" y="-242.9" font-family="Helvetica,sans-Serif" font-size="11.00" fill="#000000">int4[10]</text>
<polygon fill="none" stroke="#000000" points="10,-213.2 10,-235.2 261,-235.2 261,-213.2 10,-213.2"/>
<text text-anchor="start" x="30" y="-220.3" font-family="Helvetica,sans-Serif" font-size="11.00" fill="#000000">ano_idade_minima</text>
<polygon fill="none" stroke="#000000" points="261,-213.2 261,-235.2 500,-235.2 500,-213.2 261,-213.2"/>
<text text-anchor="start" x="264" y="-220.9" font-family="Helvetica,sans-Serif" font-size="11.00" fill="#000000">int4[10]</text>
<polygon fill="none" stroke="#000000" points="10,-191.2 10,-213.2 261,-213.2 261,-191.2 10,-191.2"/>
<text text-anchor="start" x="30" y="-198.3" font-family="Helvetica,sans-Serif" font-size="11.00" fill="#000000">mes_idade_maxima</text>
<polygon fill="none" stroke="#000000" points="261,-191.2 261,-213.2 500,-213.2 500,-191.2 261,-191.2"/>
<text text-anchor="start" x="264" y="-198.9" font-family="Helvetica,sans-Serif" font-size="11.00" fill="#000000">int4[10]</text>
<polygon fill="none" stroke="#000000" points="10,-169.2 10,-191.2 261,-191.2 261,-169.2 10,-169.2"/>
<text text-anchor="start" x="30" y="-176.3" font-family="Helvetica,sans-Serif" font-size="11.00" fill="#000000">mes_idade_minima</text>
<polygon fill="none" stroke="#000000" points="261,-169.2 261,-191.2 500,-191.2 500,-169.2 261,-169.2"/>
<text text-anchor="start" x="264" y="-176.9" font-family="Helvetica,sans-Serif" font-size="11.00" fill="#000000">int4[10]</text>
<polygon fill="none" stroke="#000000" points="10,-147.2 10,-169.2 261,-169.2 261,-147.2 10,-147.2"/>
<text text-anchor="start" x="30" y="-154.3" font-family="Helvetica,sans-Serif" font-size="11.00" fill="#000000">tipo_data_corte</text>
<polygon fill="none" stroke="#000000" points="261,-147.2 261,-169.2 500,-169.2 500,-147.2 261,-147.2"/>
<text text-anchor="start" x="264" y="-154.9" font-family="Helvetica,sans-Serif" font-size="11.00" fill="#000000">&quot;educacao&quot;.&quot;tiposdatacorte&quot;[2147483647]</text>
<polygon fill="none" stroke="#000000" points="10,-125.2 10,-147.2 261,-147.2 261,-125.2 10,-125.2"/>
<text text-anchor="start" x="30" y="-132.3" font-family="Helvetica,sans-Serif" font-size="11.00" fill="#000000">dia_mes_para_completar_idade_minima</text>
<polygon fill="none" stroke="#000000" points="261,-125.2 261,-147.2 500,-147.2 500,-125.2 261,-125.2"/>
<text text-anchor="start" x="264" y="-132.9" font-family="Helvetica,sans-Serif" font-size="11.00" fill="#000000">varchar[2147483647]</text>
<polygon fill="none" stroke="#000000" points="10,-103.2 10,-125.2 261,-125.2 261,-103.2 10,-103.2"/>
<text text-anchor="start" x="30" y="-110.3" font-family="Helvetica,sans-Serif" font-size="11.00" fill="#000000">equivalencia</text>
<polygon fill="none" stroke="#000000" points="261,-103.2 261,-125.2 500,-125.2 500,-103.2 261,-103.2"/>
<text text-anchor="start" x="263.5585" y="-110.9" font-family="Helvetica,sans-Serif" font-size="11.00" fill="#000000">&quot;educacao&quot;.&quot;_etapaequivalencias&quot;[2147483647]</text>
<polygon fill="none" stroke="#000000" points="10,-81.2 10,-103.2 261,-103.2 261,-81.2 10,-81.2"/>
<image xlink:href="../../images/foreignKeys.png" width="11px" height="12px" preserveAspectRatio="xMinYMin meet" x="15" y="-98.2"/>
<text text-anchor="start" x="30" y="-88.3" font-family="Helvetica,sans-Serif" font-size="11.00" fill="#000000">nivel_lista_espera_origem_id</text>
<polygon fill="none" stroke="#000000" points="261,-81.2 261,-103.2 500,-103.2 500,-81.2 261,-81.2"/>
<text text-anchor="start" x="264" y="-88.9" font-family="Helvetica,sans-Serif" font-size="11.00" fill="#000000">int4[10]</text>
<polygon fill="none" stroke="#000000" points="10,-59.2 10,-81.2 261,-81.2 261,-59.2 10,-59.2"/>
<text text-anchor="start" x="30" y="-66.3" font-family="Helvetica,sans-Serif" font-size="11.00" fill="#000000">nivel_lista_espera_cloud_id</text>
<polygon fill="none" stroke="#000000" points="261,-59.2 261,-81.2 500,-81.2 500,-59.2 261,-59.2"/>
<text text-anchor="start" x="264" y="-66.9" font-family="Helvetica,sans-Serif" font-size="11.00" fill="#000000">varchar[2147483647]</text>
<polygon fill="#ffffff" stroke="transparent" points="10,-40.2 10,-59.2 140,-59.2 140,-40.2 10,-40.2"/>
<polygon fill="none" stroke="#000000" points="10,-40.2 10,-59.2 140,-59.2 140,-40.2 10,-40.2"/>
<text text-anchor="start" x="13" y="-46.3" font-family="Helvetica,sans-Serif" font-size="11.00" fill="#000000">&lt; 0</text>
<polygon fill="#ffffff" stroke="transparent" points="140,-40.2 140,-59.2 261,-59.2 261,-40.2 140,-40.2"/>
<polygon fill="none" stroke="#000000" points="140,-40.2 140,-59.2 261,-59.2 261,-40.2 140,-40.2"/>
<text text-anchor="start" x="251.8862" y="-46.3" font-family="Helvetica,sans-Serif" font-size="11.00" fill="#000000"> &#160;</text>
<polygon fill="#ffffff" stroke="transparent" points="261,-40.2 261,-59.2 500,-59.2 500,-40.2 261,-40.2"/>
<polygon fill="none" stroke="#000000" points="261,-40.2 261,-59.2 500,-59.2 500,-40.2 261,-40.2"/>
<text text-anchor="start" x="481.4053" y="-46.3" font-family="Helvetica,sans-Serif" font-size="11.00" fill="#000000">0 &gt;</text>
<polygon fill="none" stroke="#000000" stroke-width="2" points="9,-39.2 9,-413.2 501,-413.2 501,-39.2 9,-39.2"/>
</a>
</g>
</g>
</g>
</svg>
