<?xml version="1.0" encoding="UTF-8" standalone="no"?>
<!DOCTYPE svg PUBLIC "-//W3C//DTD SVG 1.1//EN"
 "http://www.w3.org/Graphics/SVG/1.1/DTD/svg11.dtd">
<!-- Generated by graphviz version 2.40.1 (20161225.0304)
 -->
<!-- Title: oneDegreeRelationshipsDiagramImplied Pages: 1 -->
<svg width="746pt" height="734pt"
 viewBox="0.00 0.00 746.00 734.20" xmlns="http://www.w3.org/2000/svg" xmlns:xlink="http://www.w3.org/1999/xlink">
<g id="graph0" class="graph" transform="scale(1 1) rotate(0) translate(4 730.2)">
<title>oneDegreeRelationshipsDiagramImplied</title>
<polygon fill="#ffffff" stroke="transparent" points="-4,4 -4,-730.2 742,-730.2 742,4 -4,4"/>
<text text-anchor="middle" x="72.4936" y="-7.3" font-family="Helvetica,sans-Serif" font-size="11.00" fill="#000000">Generated by SchemaSpy</text>
<!-- filiacoes -->
<g id="node1" class="node">
<title>filiacoes</title>
<g id="a_node1"><a xlink:href="../../tables/filiacoes.html" xlink:title="filiacoes" target="_top">
<polygon fill="#ffffff" stroke="transparent" points="286,-38.2 286,-722.2 730,-722.2 730,-38.2 286,-38.2"/>
<polygon fill="#f5f5f5" stroke="transparent" points="288,-697.2 288,-720.2 728,-720.2 728,-697.2 288,-697.2"/>
<polygon fill="none" stroke="#000000" points="288,-697.2 288,-720.2 728,-720.2 728,-697.2 288,-697.2"/>
<text text-anchor="start" x="293" y="-705.8" font-family="Helvetica,sans-Serif" font-weight="bold" font-size="11.00" fill="#000000">filiacoes</text>
<text text-anchor="start" x="693.0437" y="-705.3" font-family="Helvetica,sans-Serif" font-size="11.00" fill="#000000">[table]</text>
<polygon fill="none" stroke="#000000" points="288,-675.2 288,-697.2 503,-697.2 503,-675.2 288,-675.2"/>
<text text-anchor="start" x="308" y="-682.3" font-family="Helvetica,sans-Serif" font-size="11.00" fill="#000000">sistema</text>
<polygon fill="none" stroke="#000000" points="503,-675.2 503,-697.2 728,-697.2 728,-675.2 503,-675.2"/>
<text text-anchor="start" x="506" y="-682.9" font-family="Helvetica,sans-Serif" font-size="11.00" fill="#000000">int4[10]</text>
<polygon fill="none" stroke="#000000" points="288,-653.2 288,-675.2 503,-675.2 503,-653.2 288,-653.2"/>
<text text-anchor="start" x="308" y="-660.3" font-family="Helvetica,sans-Serif" font-size="11.00" fill="#000000">tipo_registro</text>
<polygon fill="none" stroke="#000000" points="503,-653.2 503,-675.2 728,-675.2 728,-653.2 503,-653.2"/>
<text text-anchor="start" x="506" y="-660.9" font-family="Helvetica,sans-Serif" font-size="11.00" fill="#000000">text[2147483647]</text>
<polygon fill="none" stroke="#000000" points="288,-631.2 288,-653.2 503,-653.2 503,-631.2 288,-631.2"/>
<text text-anchor="start" x="308" y="-638.3" font-family="Helvetica,sans-Serif" font-size="11.00" fill="#000000">id_integracao</text>
<polygon fill="none" stroke="#000000" points="503,-631.2 503,-653.2 728,-653.2 728,-631.2 503,-631.2"/>
<text text-anchor="start" x="506" y="-638.9" font-family="Helvetica,sans-Serif" font-size="11.00" fill="#000000">varchar[2147483647]</text>
<polygon fill="none" stroke="#000000" points="288,-609.2 288,-631.2 503,-631.2 503,-609.2 288,-609.2"/>
<text text-anchor="start" x="308" y="-616.3" font-family="Helvetica,sans-Serif" font-size="11.00" fill="#000000">id_origem</text>
<polygon fill="none" stroke="#000000" points="503,-609.2 503,-631.2 728,-631.2 728,-609.2 503,-609.2"/>
<text text-anchor="start" x="506" y="-616.9" font-family="Helvetica,sans-Serif" font-size="11.00" fill="#000000">int4[10]</text>
<polygon fill="none" stroke="#000000" points="288,-587.2 288,-609.2 503,-609.2 503,-587.2 288,-587.2"/>
<text text-anchor="start" x="308" y="-594.3" font-family="Helvetica,sans-Serif" font-size="11.00" fill="#000000">id_cloud</text>
<polygon fill="none" stroke="#000000" points="503,-587.2 503,-609.2 728,-609.2 728,-587.2 503,-587.2"/>
<text text-anchor="start" x="506" y="-594.9" font-family="Helvetica,sans-Serif" font-size="11.00" fill="#000000">int4[10]</text>
<polygon fill="none" stroke="#000000" points="288,-565.2 288,-587.2 503,-587.2 503,-565.2 288,-565.2"/>
<text text-anchor="start" x="308" y="-572.3" font-family="Helvetica,sans-Serif" font-size="11.00" fill="#000000">nome</text>
<polygon fill="none" stroke="#000000" points="503,-565.2 503,-587.2 728,-587.2 728,-565.2 503,-565.2"/>
<text text-anchor="start" x="506" y="-572.9" font-family="Helvetica,sans-Serif" font-size="11.00" fill="#000000">varchar[155]</text>
<polygon fill="none" stroke="#000000" points="288,-543.2 288,-565.2 503,-565.2 503,-543.2 288,-543.2"/>
<text text-anchor="start" x="308" y="-550.3" font-family="Helvetica,sans-Serif" font-size="11.00" fill="#000000">telefone</text>
<polygon fill="none" stroke="#000000" points="503,-543.2 503,-565.2 728,-565.2 728,-543.2 503,-543.2"/>
<text text-anchor="start" x="506" y="-550.9" font-family="Helvetica,sans-Serif" font-size="11.00" fill="#000000">varchar[11]</text>
<polygon fill="none" stroke="#000000" points="288,-521.2 288,-543.2 503,-543.2 503,-521.2 288,-521.2"/>
<text text-anchor="start" x="308" y="-528.3" font-family="Helvetica,sans-Serif" font-size="11.00" fill="#000000">celular</text>
<polygon fill="none" stroke="#000000" points="503,-521.2 503,-543.2 728,-543.2 728,-521.2 503,-521.2"/>
<text text-anchor="start" x="506" y="-528.9" font-family="Helvetica,sans-Serif" font-size="11.00" fill="#000000">varchar[11]</text>
<polygon fill="none" stroke="#000000" points="288,-499.2 288,-521.2 503,-521.2 503,-499.2 288,-499.2"/>
<text text-anchor="start" x="308" y="-506.3" font-family="Helvetica,sans-Serif" font-size="11.00" fill="#000000">email</text>
<polygon fill="none" stroke="#000000" points="503,-499.2 503,-521.2 728,-521.2 728,-499.2 503,-499.2"/>
<text text-anchor="start" x="506" y="-506.9" font-family="Helvetica,sans-Serif" font-size="11.00" fill="#000000">varchar[60]</text>
<polygon fill="none" stroke="#000000" points="288,-477.2 288,-499.2 503,-499.2 503,-477.2 288,-477.2"/>
<image xlink:href="../../images/foreignKeys.png" width="11px" height="12px" preserveAspectRatio="xMinYMin meet" x="293" y="-494.2"/>
<text text-anchor="start" x="308" y="-484.3" font-family="Helvetica,sans-Serif" font-size="11.00" fill="#000000">municipio_nascimento_origem_id</text>
<polygon fill="none" stroke="#000000" points="503,-477.2 503,-499.2 728,-499.2 728,-477.2 503,-477.2"/>
<text text-anchor="start" x="506" y="-484.9" font-family="Helvetica,sans-Serif" font-size="11.00" fill="#000000">int4[10]</text>
<polygon fill="none" stroke="#000000" points="288,-455.2 288,-477.2 503,-477.2 503,-455.2 288,-455.2"/>
<image xlink:href="../../images/foreignKeys.png" width="11px" height="12px" preserveAspectRatio="xMinYMin meet" x="293" y="-472.2"/>
<text text-anchor="start" x="308" y="-462.3" font-family="Helvetica,sans-Serif" font-size="11.00" fill="#000000">municipio_nascimento_cloud_id</text>
<polygon fill="none" stroke="#000000" points="503,-455.2 503,-477.2 728,-477.2 728,-455.2 503,-455.2"/>
<text text-anchor="start" x="506" y="-462.9" font-family="Helvetica,sans-Serif" font-size="11.00" fill="#000000">int4[10]</text>
<polygon fill="none" stroke="#000000" points="288,-433.2 288,-455.2 503,-455.2 503,-433.2 288,-433.2"/>
<text text-anchor="start" x="308" y="-440.3" font-family="Helvetica,sans-Serif" font-size="11.00" fill="#000000">data_nascimento</text>
<polygon fill="none" stroke="#000000" points="503,-433.2 503,-455.2 728,-455.2 728,-433.2 503,-433.2"/>
<text text-anchor="start" x="506" y="-440.9" font-family="Helvetica,sans-Serif" font-size="11.00" fill="#000000">date[13]</text>
<polygon fill="none" stroke="#000000" points="288,-411.2 288,-433.2 503,-433.2 503,-411.2 288,-411.2"/>
<text text-anchor="start" x="308" y="-418.3" font-family="Helvetica,sans-Serif" font-size="11.00" fill="#000000">sexo</text>
<polygon fill="none" stroke="#000000" points="503,-411.2 503,-433.2 728,-433.2 728,-411.2 503,-411.2"/>
<text text-anchor="start" x="506" y="-418.9" font-family="Helvetica,sans-Serif" font-size="11.00" fill="#000000">&quot;educacao&quot;.&quot;sexos&quot;[2147483647]</text>
<polygon fill="none" stroke="#000000" points="288,-389.2 288,-411.2 503,-411.2 503,-389.2 288,-389.2"/>
<text text-anchor="start" x="308" y="-396.3" font-family="Helvetica,sans-Serif" font-size="11.00" fill="#000000">estado_civil</text>
<polygon fill="none" stroke="#000000" points="503,-389.2 503,-411.2 728,-411.2 728,-389.2 503,-389.2"/>
<text text-anchor="start" x="506" y="-396.9" font-family="Helvetica,sans-Serif" font-size="11.00" fill="#000000">&quot;educacao&quot;.&quot;estadoscivis&quot;[2147483647]</text>
<polygon fill="none" stroke="#000000" points="288,-367.2 288,-389.2 503,-389.2 503,-367.2 288,-367.2"/>
<text text-anchor="start" x="308" y="-374.3" font-family="Helvetica,sans-Serif" font-size="11.00" fill="#000000">grau_instrucao</text>
<polygon fill="none" stroke="#000000" points="503,-367.2 503,-389.2 728,-389.2 728,-367.2 503,-367.2"/>
<text text-anchor="start" x="506" y="-374.9" font-family="Helvetica,sans-Serif" font-size="11.00" fill="#000000">&quot;educacao&quot;.&quot;grausinstrucao&quot;[2147483647]</text>
<polygon fill="none" stroke="#000000" points="288,-345.2 288,-367.2 503,-367.2 503,-345.2 288,-345.2"/>
<text text-anchor="start" x="308" y="-352.3" font-family="Helvetica,sans-Serif" font-size="11.00" fill="#000000">rg</text>
<polygon fill="none" stroke="#000000" points="503,-345.2 503,-367.2 728,-367.2 728,-345.2 503,-345.2"/>
<text text-anchor="start" x="506" y="-352.9" font-family="Helvetica,sans-Serif" font-size="11.00" fill="#000000">varchar[20]</text>
<polygon fill="none" stroke="#000000" points="288,-323.2 288,-345.2 503,-345.2 503,-323.2 288,-323.2"/>
<text text-anchor="start" x="308" y="-330.3" font-family="Helvetica,sans-Serif" font-size="11.00" fill="#000000">cpf</text>
<polygon fill="none" stroke="#000000" points="503,-323.2 503,-345.2 728,-345.2 728,-323.2 503,-323.2"/>
<text text-anchor="start" x="506" y="-330.9" font-family="Helvetica,sans-Serif" font-size="11.00" fill="#000000">varchar[11]</text>
<polygon fill="none" stroke="#000000" points="288,-301.2 288,-323.2 503,-323.2 503,-301.2 288,-301.2"/>
<text text-anchor="start" x="308" y="-308.3" font-family="Helvetica,sans-Serif" font-size="11.00" fill="#000000">data_obito</text>
<polygon fill="none" stroke="#000000" points="503,-301.2 503,-323.2 728,-323.2 728,-301.2 503,-301.2"/>
<text text-anchor="start" x="506" y="-308.9" font-family="Helvetica,sans-Serif" font-size="11.00" fill="#000000">date[13]</text>
<polygon fill="none" stroke="#000000" points="288,-279.2 288,-301.2 503,-301.2 503,-279.2 288,-279.2"/>
<text text-anchor="start" x="308" y="-286.3" font-family="Helvetica,sans-Serif" font-size="11.00" fill="#000000">livro</text>
<polygon fill="none" stroke="#000000" points="503,-279.2 503,-301.2 728,-301.2 728,-279.2 503,-279.2"/>
<text text-anchor="start" x="506" y="-286.9" font-family="Helvetica,sans-Serif" font-size="11.00" fill="#000000">varchar[15]</text>
<polygon fill="none" stroke="#000000" points="288,-257.2 288,-279.2 503,-279.2 503,-257.2 288,-257.2"/>
<text text-anchor="start" x="308" y="-264.3" font-family="Helvetica,sans-Serif" font-size="11.00" fill="#000000">pagina</text>
<polygon fill="none" stroke="#000000" points="503,-257.2 503,-279.2 728,-279.2 728,-257.2 503,-257.2"/>
<text text-anchor="start" x="506" y="-264.9" font-family="Helvetica,sans-Serif" font-size="11.00" fill="#000000">varchar[5]</text>
<polygon fill="none" stroke="#000000" points="288,-235.2 288,-257.2 503,-257.2 503,-235.2 288,-235.2"/>
<text text-anchor="start" x="308" y="-242.3" font-family="Helvetica,sans-Serif" font-size="11.00" fill="#000000">certidao</text>
<polygon fill="none" stroke="#000000" points="503,-235.2 503,-257.2 728,-257.2 728,-235.2 503,-235.2"/>
<text text-anchor="start" x="506" y="-242.9" font-family="Helvetica,sans-Serif" font-size="11.00" fill="#000000">varchar[32]</text>
<polygon fill="none" stroke="#000000" points="288,-213.2 288,-235.2 503,-235.2 503,-213.2 288,-213.2"/>
<text text-anchor="start" x="308" y="-220.3" font-family="Helvetica,sans-Serif" font-size="11.00" fill="#000000">causa_mortis</text>
<polygon fill="none" stroke="#000000" points="503,-213.2 503,-235.2 728,-235.2 728,-213.2 503,-213.2"/>
<text text-anchor="start" x="506" y="-220.9" font-family="Helvetica,sans-Serif" font-size="11.00" fill="#000000">varchar[255]</text>
<polygon fill="none" stroke="#000000" points="288,-191.2 288,-213.2 503,-213.2 503,-191.2 288,-191.2"/>
<text text-anchor="start" x="308" y="-198.3" font-family="Helvetica,sans-Serif" font-size="11.00" fill="#000000">data_emissao_certidao</text>
<polygon fill="none" stroke="#000000" points="503,-191.2 503,-213.2 728,-213.2 728,-191.2 503,-191.2"/>
<text text-anchor="start" x="506" y="-198.9" font-family="Helvetica,sans-Serif" font-size="11.00" fill="#000000">date[13]</text>
<polygon fill="none" stroke="#000000" points="288,-169.2 288,-191.2 503,-191.2 503,-169.2 288,-169.2"/>
<text text-anchor="start" x="308" y="-176.3" font-family="Helvetica,sans-Serif" font-size="11.00" fill="#000000">telefone_comercial</text>
<polygon fill="none" stroke="#000000" points="503,-169.2 503,-191.2 728,-191.2 728,-169.2 503,-169.2"/>
<text text-anchor="start" x="506" y="-176.9" font-family="Helvetica,sans-Serif" font-size="11.00" fill="#000000">varchar[11]</text>
<polygon fill="none" stroke="#000000" points="288,-147.2 288,-169.2 503,-169.2 503,-147.2 288,-147.2"/>
<text text-anchor="start" x="308" y="-154.3" font-family="Helvetica,sans-Serif" font-size="11.00" fill="#000000">permite_envio_email</text>
<polygon fill="none" stroke="#000000" points="503,-147.2 503,-169.2 728,-169.2 728,-147.2 503,-147.2"/>
<text text-anchor="start" x="506" y="-154.9" font-family="Helvetica,sans-Serif" font-size="11.00" fill="#000000">bool[1]</text>
<polygon fill="none" stroke="#000000" points="288,-125.2 288,-147.2 503,-147.2 503,-125.2 288,-125.2"/>
<text text-anchor="start" x="308" y="-132.3" font-family="Helvetica,sans-Serif" font-size="11.00" fill="#000000">permite_envio_sms</text>
<polygon fill="none" stroke="#000000" points="503,-125.2 503,-147.2 728,-147.2 728,-125.2 503,-125.2"/>
<text text-anchor="start" x="506" y="-132.9" font-family="Helvetica,sans-Serif" font-size="11.00" fill="#000000">bool[1]</text>
<polygon fill="none" stroke="#000000" points="288,-103.2 288,-125.2 503,-125.2 503,-103.2 288,-103.2"/>
<text text-anchor="start" x="308" y="-110.3" font-family="Helvetica,sans-Serif" font-size="11.00" fill="#000000">local_trabalho</text>
<polygon fill="none" stroke="#000000" points="503,-103.2 503,-125.2 728,-125.2 728,-103.2 503,-103.2"/>
<text text-anchor="start" x="506" y="-110.9" font-family="Helvetica,sans-Serif" font-size="11.00" fill="#000000">varchar[50]</text>
<polygon fill="none" stroke="#000000" points="288,-81.2 288,-103.2 503,-103.2 503,-81.2 288,-81.2"/>
<text text-anchor="start" x="308" y="-88.3" font-family="Helvetica,sans-Serif" font-size="11.00" fill="#000000">situacao_trabalho</text>
<polygon fill="none" stroke="#000000" points="503,-81.2 503,-103.2 728,-103.2 728,-81.2 503,-81.2"/>
<text text-anchor="start" x="505.5919" y="-88.9" font-family="Helvetica,sans-Serif" font-size="11.00" fill="#000000">&quot;educacao&quot;.&quot;situacoestrabalho&quot;[2147483647]</text>
<polygon fill="none" stroke="#000000" points="288,-59.2 288,-81.2 503,-81.2 503,-59.2 288,-59.2"/>
<text text-anchor="start" x="308" y="-66.3" font-family="Helvetica,sans-Serif" font-size="11.00" fill="#000000">profissao</text>
<polygon fill="none" stroke="#000000" points="503,-59.2 503,-81.2 728,-81.2 728,-59.2 503,-59.2"/>
<text text-anchor="start" x="506" y="-66.9" font-family="Helvetica,sans-Serif" font-size="11.00" fill="#000000">varchar[50]</text>
<polygon fill="#ffffff" stroke="transparent" points="288,-40.2 288,-59.2 400,-59.2 400,-40.2 288,-40.2"/>
<polygon fill="none" stroke="#000000" points="288,-40.2 288,-59.2 400,-59.2 400,-40.2 288,-40.2"/>
<text text-anchor="start" x="291" y="-46.3" font-family="Helvetica,sans-Serif" font-size="11.00" fill="#000000">&lt; 2</text>
<polygon fill="#ffffff" stroke="transparent" points="400,-40.2 400,-59.2 503,-59.2 503,-40.2 400,-40.2"/>
<polygon fill="none" stroke="#000000" points="400,-40.2 400,-59.2 503,-59.2 503,-40.2 400,-40.2"/>
<text text-anchor="start" x="493.8862" y="-46.3" font-family="Helvetica,sans-Serif" font-size="11.00" fill="#000000"> &#160;</text>
<polygon fill="#ffffff" stroke="transparent" points="503,-40.2 503,-59.2 728,-59.2 728,-40.2 503,-40.2"/>
<polygon fill="none" stroke="#000000" points="503,-40.2 503,-59.2 728,-59.2 728,-40.2 503,-40.2"/>
<text text-anchor="start" x="709.4053" y="-46.3" font-family="Helvetica,sans-Serif" font-size="11.00" fill="#000000">0 &gt;</text>
<polygon fill="none" stroke="#000000" stroke-width="2" points="287,-39.2 287,-721.2 729,-721.2 729,-39.2 287,-39.2"/>
</a>
</g>
</g>
<!-- inscricao_lista_espera_situacoes -->
<g id="node2" class="node">
<title>inscricao_lista_espera_situacoes</title>
<g id="a_node2"><a xlink:href="../../tables/inscricao_lista_espera_situacoes.html" xlink:title="inscricao_lista_espera_situacoes" target="_top">
<polygon fill="#ffffff" stroke="transparent" points="8,-428.7 8,-511.7 237,-511.7 237,-428.7 8,-428.7"/>
<polygon fill="#f5f5f5" stroke="transparent" points="8.5,-488.2 8.5,-511.2 237.5,-511.2 237.5,-488.2 8.5,-488.2"/>
<polygon fill="none" stroke="#000000" points="8.5,-488.2 8.5,-511.2 237.5,-511.2 237.5,-488.2 8.5,-488.2"/>
<text text-anchor="start" x="13.5" y="-496.8" font-family="Helvetica,sans-Serif" font-weight="bold" font-size="11.00" fill="#000000">inscricao_lista_espera_situacoes</text>
<text text-anchor="start" x="203.0219" y="-496.3" font-family="Helvetica,sans-Serif" font-size="11.00" fill="#000000">[table]</text>
<polygon fill="none" stroke="#000000" points="8.5,-466.2 8.5,-488.2 237.5,-488.2 237.5,-466.2 8.5,-466.2"/>
<image xlink:href="../../images/primaryKeys.png" width="11px" height="12px" preserveAspectRatio="xMinYMin meet" x="13.5" y="-483.2"/>
<text text-anchor="start" x="37.5" y="-473.3" font-family="Helvetica,sans-Serif" font-size="11.00" fill="#000000">id</text>
<polygon fill="none" stroke="#000000" points="8.5,-447.2 8.5,-466.2 237.5,-466.2 237.5,-447.2 8.5,-447.2"/>
<text text-anchor="start" x="11.5" y="-453.3" font-family="Helvetica,sans-Serif" font-size="11.00" fill="#000000">...</text>
<polygon fill="#ffffff" stroke="transparent" points="8.5,-428.2 8.5,-447.2 106.5,-447.2 106.5,-428.2 8.5,-428.2"/>
<polygon fill="none" stroke="#000000" points="8.5,-428.2 8.5,-447.2 106.5,-447.2 106.5,-428.2 8.5,-428.2"/>
<text text-anchor="start" x="11.5" y="-434.3" font-family="Helvetica,sans-Serif" font-size="11.00" fill="#000000"> &#160;</text>
<polygon fill="#ffffff" stroke="transparent" points="106.5,-428.2 106.5,-447.2 161.5,-447.2 161.5,-428.2 106.5,-428.2"/>
<polygon fill="none" stroke="#000000" points="106.5,-428.2 106.5,-447.2 161.5,-447.2 161.5,-428.2 106.5,-428.2"/>
<text text-anchor="start" x="152.3862" y="-434.3" font-family="Helvetica,sans-Serif" font-size="11.00" fill="#000000"> &#160;</text>
<polygon fill="#ffffff" stroke="transparent" points="161.5,-428.2 161.5,-447.2 237.5,-447.2 237.5,-428.2 161.5,-428.2"/>
<polygon fill="none" stroke="#000000" points="161.5,-428.2 161.5,-447.2 237.5,-447.2 237.5,-428.2 161.5,-428.2"/>
<text text-anchor="start" x="206.6755" y="-434.3" font-family="Helvetica,sans-Serif" font-size="11.00" fill="#000000">596 &gt;</text>
</a>
</g>
</g>
<!-- filiacoes&#45;&gt;inscricao_lista_espera_situacoes -->
<g id="edge1" class="edge">
<title>filiacoes:w&#45;&gt;inscricao_lista_espera_situacoes:e</title>
<path fill="none" stroke="#000000" stroke-dasharray="5,2" d="M273.6489,-467.9188C261.5992,-471.0125 254.728,-477.2 237.5,-477.2"/>
<polygon fill="#000000" stroke="#000000" points="280.0568,-467.1514 288.4281,-469.7745 284.0284,-466.6757 288,-466.2 288,-466.2 288,-466.2 284.0284,-466.6757 287.5719,-462.6255 280.0568,-467.1514 280.0568,-467.1514"/>
<ellipse fill="none" stroke="#000000" cx="276.8795" cy="-467.5319" rx="3.2" ry="3.2"/>
</g>
<!-- filiacoes&#45;&gt;inscricao_lista_espera_situacoes -->
<g id="edge2" class="edge">
<title>filiacoes:w&#45;&gt;inscricao_lista_espera_situacoes:e</title>
<path fill="none" stroke="#000000" stroke-dasharray="5,2" d="M273.6489,-486.4813C261.5992,-483.3875 254.728,-477.2 237.5,-477.2"/>
<polygon fill="#000000" stroke="#000000" points="280.0568,-487.2486 287.5719,-491.7745 284.0284,-487.7243 288,-488.2 288,-488.2 288,-488.2 284.0284,-487.7243 288.4281,-484.6255 280.0568,-487.2486 280.0568,-487.2486"/>
<ellipse fill="none" stroke="#000000" cx="276.8795" cy="-486.8681" rx="3.2" ry="3.2"/>
</g>
</g>
</svg>
