<?xml version="1.0" encoding="UTF-8" standalone="no"?>
<!DOCTYPE svg PUBLIC "-//W3C//DTD SVG 1.1//EN"
 "http://www.w3.org/Graphics/SVG/1.1/DTD/svg11.dtd">
<!-- Generated by graphviz version 2.40.1 (20161225.0304)
 -->
<!-- Title: oneDegreeRelationshipsDiagram Pages: 1 -->
<svg width="578pt" height="470pt"
 viewBox="0.00 0.00 578.00 470.20" xmlns="http://www.w3.org/2000/svg" xmlns:xlink="http://www.w3.org/1999/xlink">
<g id="graph0" class="graph" transform="scale(1 1) rotate(0) translate(4 466.2)">
<title>oneDegreeRelationshipsDiagram</title>
<polygon fill="#ffffff" stroke="transparent" points="-4,4 -4,-466.2 574,-466.2 574,4 -4,4"/>
<text text-anchor="middle" x="72.4936" y="-7.3" font-family="Helvetica,sans-Serif" font-size="11.00" fill="#000000">Generated by SchemaSpy</text>
<!-- formacoes_pos_graduacao_funcionarios -->
<g id="node1" class="node">
<title>formacoes_pos_graduacao_funcionarios</title>
<g id="a_node1"><a xlink:href="../../tables/formacoes_pos_graduacao_funcionarios.html" xlink:title="formacoes_pos_graduacao_funcionarios" target="_top">
<polygon fill="#ffffff" stroke="transparent" points="8,-38.2 8,-458.2 562,-458.2 562,-38.2 8,-38.2"/>
<polygon fill="#f5f5f5" stroke="transparent" points="10,-433.2 10,-456.2 560,-456.2 560,-433.2 10,-433.2"/>
<polygon fill="none" stroke="#000000" points="10,-433.2 10,-456.2 560,-456.2 560,-433.2 10,-433.2"/>
<text text-anchor="start" x="15" y="-441.8" font-family="Helvetica,sans-Serif" font-weight="bold" font-size="11.00" fill="#000000">formacoes_pos_graduacao_funcionarios</text>
<text text-anchor="start" x="525.0437" y="-441.3" font-family="Helvetica,sans-Serif" font-size="11.00" fill="#000000">[table]</text>
<polygon fill="none" stroke="#000000" points="10,-411.2 10,-433.2 275,-433.2 275,-411.2 10,-411.2"/>
<text text-anchor="start" x="30" y="-418.3" font-family="Helvetica,sans-Serif" font-size="11.00" fill="#000000">sistema</text>
<polygon fill="none" stroke="#000000" points="275,-411.2 275,-433.2 560,-433.2 560,-411.2 275,-411.2"/>
<text text-anchor="start" x="278" y="-418.9" font-family="Helvetica,sans-Serif" font-size="11.00" fill="#000000">int4[10]</text>
<polygon fill="none" stroke="#000000" points="10,-389.2 10,-411.2 275,-411.2 275,-389.2 10,-389.2"/>
<text text-anchor="start" x="30" y="-396.3" font-family="Helvetica,sans-Serif" font-size="11.00" fill="#000000">tipo_registro</text>
<polygon fill="none" stroke="#000000" points="275,-389.2 275,-411.2 560,-411.2 560,-389.2 275,-389.2"/>
<text text-anchor="start" x="278" y="-396.9" font-family="Helvetica,sans-Serif" font-size="11.00" fill="#000000">text[2147483647]</text>
<polygon fill="none" stroke="#000000" points="10,-367.2 10,-389.2 275,-389.2 275,-367.2 10,-367.2"/>
<text text-anchor="start" x="30" y="-374.3" font-family="Helvetica,sans-Serif" font-size="11.00" fill="#000000">id_integracao</text>
<polygon fill="none" stroke="#000000" points="275,-367.2 275,-389.2 560,-389.2 560,-367.2 275,-367.2"/>
<text text-anchor="start" x="278" y="-374.9" font-family="Helvetica,sans-Serif" font-size="11.00" fill="#000000">varchar[2147483647]</text>
<polygon fill="none" stroke="#000000" points="10,-345.2 10,-367.2 275,-367.2 275,-345.2 10,-345.2"/>
<text text-anchor="start" x="30" y="-352.3" font-family="Helvetica,sans-Serif" font-size="11.00" fill="#000000">id_origem</text>
<polygon fill="none" stroke="#000000" points="275,-345.2 275,-367.2 560,-367.2 560,-345.2 275,-345.2"/>
<text text-anchor="start" x="278" y="-352.9" font-family="Helvetica,sans-Serif" font-size="11.00" fill="#000000">int4[10]</text>
<polygon fill="none" stroke="#000000" points="10,-323.2 10,-345.2 275,-345.2 275,-323.2 10,-323.2"/>
<text text-anchor="start" x="30" y="-330.3" font-family="Helvetica,sans-Serif" font-size="11.00" fill="#000000">id_cloud</text>
<polygon fill="none" stroke="#000000" points="275,-323.2 275,-345.2 560,-345.2 560,-323.2 275,-323.2"/>
<text text-anchor="start" x="278" y="-330.9" font-family="Helvetica,sans-Serif" font-size="11.00" fill="#000000">int4[10]</text>
<polygon fill="none" stroke="#000000" points="10,-301.2 10,-323.2 275,-323.2 275,-301.2 10,-301.2"/>
<image xlink:href="../../images/foreignKeys.png" width="11px" height="12px" preserveAspectRatio="xMinYMin meet" x="15" y="-318.2"/>
<text text-anchor="start" x="30" y="-308.3" font-family="Helvetica,sans-Serif" font-size="11.00" fill="#000000">area_formacao_pos_graduacao_origem_id</text>
<polygon fill="none" stroke="#000000" points="275,-301.2 275,-323.2 560,-323.2 560,-301.2 275,-301.2"/>
<text text-anchor="start" x="278" y="-308.9" font-family="Helvetica,sans-Serif" font-size="11.00" fill="#000000">int4[10]</text>
<polygon fill="none" stroke="#000000" points="10,-279.2 10,-301.2 275,-301.2 275,-279.2 10,-279.2"/>
<image xlink:href="../../images/foreignKeys.png" width="11px" height="12px" preserveAspectRatio="xMinYMin meet" x="15" y="-296.2"/>
<text text-anchor="start" x="30" y="-286.3" font-family="Helvetica,sans-Serif" font-size="11.00" fill="#000000">area_formacao_pos_graduacao_cloud_id</text>
<polygon fill="none" stroke="#000000" points="275,-279.2 275,-301.2 560,-301.2 560,-279.2 275,-279.2"/>
<text text-anchor="start" x="278" y="-286.9" font-family="Helvetica,sans-Serif" font-size="11.00" fill="#000000">int4[10]</text>
<polygon fill="none" stroke="#000000" points="10,-257.2 10,-279.2 275,-279.2 275,-257.2 10,-257.2"/>
<image xlink:href="../../images/foreignKeys.png" width="11px" height="12px" preserveAspectRatio="xMinYMin meet" x="15" y="-274.2"/>
<text text-anchor="start" x="30" y="-264.3" font-family="Helvetica,sans-Serif" font-size="11.00" fill="#000000">servidor_origem_id</text>
<polygon fill="none" stroke="#000000" points="275,-257.2 275,-279.2 560,-279.2 560,-257.2 275,-257.2"/>
<text text-anchor="start" x="278" y="-264.9" font-family="Helvetica,sans-Serif" font-size="11.00" fill="#000000">int4[10]</text>
<polygon fill="none" stroke="#000000" points="10,-235.2 10,-257.2 275,-257.2 275,-235.2 10,-235.2"/>
<image xlink:href="../../images/foreignKeys.png" width="11px" height="12px" preserveAspectRatio="xMinYMin meet" x="15" y="-252.2"/>
<text text-anchor="start" x="30" y="-242.3" font-family="Helvetica,sans-Serif" font-size="11.00" fill="#000000">servidor_cloud_id</text>
<polygon fill="none" stroke="#000000" points="275,-235.2 275,-257.2 560,-257.2 560,-235.2 275,-235.2"/>
<text text-anchor="start" x="278" y="-242.9" font-family="Helvetica,sans-Serif" font-size="11.00" fill="#000000">int4[10]</text>
<polygon fill="none" stroke="#000000" points="10,-213.2 10,-235.2 275,-235.2 275,-213.2 10,-213.2"/>
<text text-anchor="start" x="30" y="-220.3" font-family="Helvetica,sans-Serif" font-size="11.00" fill="#000000">descricao</text>
<polygon fill="none" stroke="#000000" points="275,-213.2 275,-235.2 560,-235.2 560,-213.2 275,-213.2"/>
<text text-anchor="start" x="278" y="-220.9" font-family="Helvetica,sans-Serif" font-size="11.00" fill="#000000">varchar[2147483647]</text>
<polygon fill="none" stroke="#000000" points="10,-191.2 10,-213.2 275,-213.2 275,-191.2 10,-191.2"/>
<text text-anchor="start" x="30" y="-198.3" font-family="Helvetica,sans-Serif" font-size="11.00" fill="#000000">tipo_formacao_pos_graduacao</text>
<polygon fill="none" stroke="#000000" points="275,-191.2 275,-213.2 560,-213.2 560,-191.2 275,-191.2"/>
<text text-anchor="start" x="278" y="-198.9" font-family="Helvetica,sans-Serif" font-size="11.00" fill="#000000">&quot;educacao&quot;.&quot;tiposformacaoposgraduacao&quot;[2147483647]</text>
<polygon fill="none" stroke="#000000" points="10,-169.2 10,-191.2 275,-191.2 275,-169.2 10,-169.2"/>
<text text-anchor="start" x="30" y="-176.3" font-family="Helvetica,sans-Serif" font-size="11.00" fill="#000000">situacao</text>
<polygon fill="none" stroke="#000000" points="275,-169.2 275,-191.2 560,-191.2 560,-169.2 275,-169.2"/>
<text text-anchor="start" x="277.6438" y="-176.9" font-family="Helvetica,sans-Serif" font-size="11.00" fill="#000000">&quot;educacao&quot;.&quot;situacoesformacaofuncionario&quot;[2147483647]</text>
<polygon fill="none" stroke="#000000" points="10,-147.2 10,-169.2 275,-169.2 275,-147.2 10,-147.2"/>
<text text-anchor="start" x="30" y="-154.3" font-family="Helvetica,sans-Serif" font-size="11.00" fill="#000000">ano_inicio</text>
<polygon fill="none" stroke="#000000" points="275,-147.2 275,-169.2 560,-169.2 560,-147.2 275,-147.2"/>
<text text-anchor="start" x="278" y="-154.9" font-family="Helvetica,sans-Serif" font-size="11.00" fill="#000000">varchar[2147483647]</text>
<polygon fill="none" stroke="#000000" points="10,-125.2 10,-147.2 275,-147.2 275,-125.2 10,-125.2"/>
<text text-anchor="start" x="30" y="-132.3" font-family="Helvetica,sans-Serif" font-size="11.00" fill="#000000">ano_fim</text>
<polygon fill="none" stroke="#000000" points="275,-125.2 275,-147.2 560,-147.2 560,-125.2 275,-125.2"/>
<text text-anchor="start" x="278" y="-132.9" font-family="Helvetica,sans-Serif" font-size="11.00" fill="#000000">varchar[2147483647]</text>
<polygon fill="none" stroke="#000000" points="10,-103.2 10,-125.2 275,-125.2 275,-103.2 10,-103.2"/>
<text text-anchor="start" x="30" y="-110.3" font-family="Helvetica,sans-Serif" font-size="11.00" fill="#000000">carga_horaria_hora</text>
<polygon fill="none" stroke="#000000" points="275,-103.2 275,-125.2 560,-125.2 560,-103.2 275,-103.2"/>
<text text-anchor="start" x="278" y="-110.9" font-family="Helvetica,sans-Serif" font-size="11.00" fill="#000000">int4[10]</text>
<polygon fill="none" stroke="#000000" points="10,-81.2 10,-103.2 275,-103.2 275,-81.2 10,-81.2"/>
<text text-anchor="start" x="30" y="-88.3" font-family="Helvetica,sans-Serif" font-size="11.00" fill="#000000">carga_horaria_minuto</text>
<polygon fill="none" stroke="#000000" points="275,-81.2 275,-103.2 560,-103.2 560,-81.2 275,-81.2"/>
<text text-anchor="start" x="278" y="-88.9" font-family="Helvetica,sans-Serif" font-size="11.00" fill="#000000">int4[10]</text>
<polygon fill="none" stroke="#000000" points="10,-59.2 10,-81.2 275,-81.2 275,-59.2 10,-59.2"/>
<text text-anchor="start" x="30" y="-66.3" font-family="Helvetica,sans-Serif" font-size="11.00" fill="#000000">instituicao</text>
<polygon fill="none" stroke="#000000" points="275,-59.2 275,-81.2 560,-81.2 560,-59.2 275,-59.2"/>
<text text-anchor="start" x="278" y="-66.9" font-family="Helvetica,sans-Serif" font-size="11.00" fill="#000000">varchar[2147483647]</text>
<polygon fill="#ffffff" stroke="transparent" points="10,-40.2 10,-59.2 147,-59.2 147,-40.2 10,-40.2"/>
<polygon fill="none" stroke="#000000" points="10,-40.2 10,-59.2 147,-59.2 147,-40.2 10,-40.2"/>
<text text-anchor="start" x="13" y="-46.3" font-family="Helvetica,sans-Serif" font-size="11.00" fill="#000000">&lt; 0</text>
<polygon fill="#ffffff" stroke="transparent" points="147,-40.2 147,-59.2 275,-59.2 275,-40.2 147,-40.2"/>
<polygon fill="none" stroke="#000000" points="147,-40.2 147,-59.2 275,-59.2 275,-40.2 147,-40.2"/>
<text text-anchor="start" x="265.8862" y="-46.3" font-family="Helvetica,sans-Serif" font-size="11.00" fill="#000000"> &#160;</text>
<polygon fill="#ffffff" stroke="transparent" points="275,-40.2 275,-59.2 560,-59.2 560,-40.2 275,-40.2"/>
<polygon fill="none" stroke="#000000" points="275,-40.2 275,-59.2 560,-59.2 560,-40.2 275,-40.2"/>
<text text-anchor="start" x="541.4053" y="-46.3" font-family="Helvetica,sans-Serif" font-size="11.00" fill="#000000">0 &gt;</text>
<polygon fill="none" stroke="#000000" stroke-width="2" points="9,-39.2 9,-457.2 561,-457.2 561,-39.2 9,-39.2"/>
</a>
</g>
</g>
</g>
</svg>
