<?xml version="1.0" encoding="UTF-8" standalone="no"?>
<!DOCTYPE svg PUBLIC "-//W3C//DTD SVG 1.1//EN"
 "http://www.w3.org/Graphics/SVG/1.1/DTD/svg11.dtd">
<!-- Generated by graphviz version 2.40.1 (20161225.0304)
 -->
<!-- Title: oneDegreeRelationshipsDiagramImplied Pages: 1 -->
<svg width="856pt" height="470pt"
 viewBox="0.00 0.00 856.00 470.20" xmlns="http://www.w3.org/2000/svg" xmlns:xlink="http://www.w3.org/1999/xlink">
<g id="graph0" class="graph" transform="scale(1 1) rotate(0) translate(4 466.2)">
<title>oneDegreeRelationshipsDiagramImplied</title>
<polygon fill="#ffffff" stroke="transparent" points="-4,4 -4,-466.2 852,-466.2 852,4 -4,4"/>
<text text-anchor="middle" x="72.4936" y="-7.3" font-family="Helvetica,sans-Serif" font-size="11.00" fill="#000000">Generated by SchemaSpy</text>
<!-- formacoes_pos_graduacao_funcionarios -->
<g id="node1" class="node">
<title>formacoes_pos_graduacao_funcionarios</title>
<g id="a_node1"><a xlink:href="../../tables/formacoes_pos_graduacao_funcionarios.html" xlink:title="formacoes_pos_graduacao_funcionarios" target="_top">
<polygon fill="#ffffff" stroke="transparent" points="286,-38.2 286,-458.2 840,-458.2 840,-38.2 286,-38.2"/>
<polygon fill="#f5f5f5" stroke="transparent" points="288,-433.2 288,-456.2 838,-456.2 838,-433.2 288,-433.2"/>
<polygon fill="none" stroke="#000000" points="288,-433.2 288,-456.2 838,-456.2 838,-433.2 288,-433.2"/>
<text text-anchor="start" x="293" y="-441.8" font-family="Helvetica,sans-Serif" font-weight="bold" font-size="11.00" fill="#000000">formacoes_pos_graduacao_funcionarios</text>
<text text-anchor="start" x="803.0437" y="-441.3" font-family="Helvetica,sans-Serif" font-size="11.00" fill="#000000">[table]</text>
<polygon fill="none" stroke="#000000" points="288,-411.2 288,-433.2 553,-433.2 553,-411.2 288,-411.2"/>
<text text-anchor="start" x="308" y="-418.3" font-family="Helvetica,sans-Serif" font-size="11.00" fill="#000000">sistema</text>
<polygon fill="none" stroke="#000000" points="553,-411.2 553,-433.2 838,-433.2 838,-411.2 553,-411.2"/>
<text text-anchor="start" x="556" y="-418.9" font-family="Helvetica,sans-Serif" font-size="11.00" fill="#000000">int4[10]</text>
<polygon fill="none" stroke="#000000" points="288,-389.2 288,-411.2 553,-411.2 553,-389.2 288,-389.2"/>
<text text-anchor="start" x="308" y="-396.3" font-family="Helvetica,sans-Serif" font-size="11.00" fill="#000000">tipo_registro</text>
<polygon fill="none" stroke="#000000" points="553,-389.2 553,-411.2 838,-411.2 838,-389.2 553,-389.2"/>
<text text-anchor="start" x="556" y="-396.9" font-family="Helvetica,sans-Serif" font-size="11.00" fill="#000000">text[2147483647]</text>
<polygon fill="none" stroke="#000000" points="288,-367.2 288,-389.2 553,-389.2 553,-367.2 288,-367.2"/>
<text text-anchor="start" x="308" y="-374.3" font-family="Helvetica,sans-Serif" font-size="11.00" fill="#000000">id_integracao</text>
<polygon fill="none" stroke="#000000" points="553,-367.2 553,-389.2 838,-389.2 838,-367.2 553,-367.2"/>
<text text-anchor="start" x="556" y="-374.9" font-family="Helvetica,sans-Serif" font-size="11.00" fill="#000000">varchar[2147483647]</text>
<polygon fill="none" stroke="#000000" points="288,-345.2 288,-367.2 553,-367.2 553,-345.2 288,-345.2"/>
<text text-anchor="start" x="308" y="-352.3" font-family="Helvetica,sans-Serif" font-size="11.00" fill="#000000">id_origem</text>
<polygon fill="none" stroke="#000000" points="553,-345.2 553,-367.2 838,-367.2 838,-345.2 553,-345.2"/>
<text text-anchor="start" x="556" y="-352.9" font-family="Helvetica,sans-Serif" font-size="11.00" fill="#000000">int4[10]</text>
<polygon fill="none" stroke="#000000" points="288,-323.2 288,-345.2 553,-345.2 553,-323.2 288,-323.2"/>
<text text-anchor="start" x="308" y="-330.3" font-family="Helvetica,sans-Serif" font-size="11.00" fill="#000000">id_cloud</text>
<polygon fill="none" stroke="#000000" points="553,-323.2 553,-345.2 838,-345.2 838,-323.2 553,-323.2"/>
<text text-anchor="start" x="556" y="-330.9" font-family="Helvetica,sans-Serif" font-size="11.00" fill="#000000">int4[10]</text>
<polygon fill="none" stroke="#000000" points="288,-301.2 288,-323.2 553,-323.2 553,-301.2 288,-301.2"/>
<image xlink:href="../../images/foreignKeys.png" width="11px" height="12px" preserveAspectRatio="xMinYMin meet" x="293" y="-318.2"/>
<text text-anchor="start" x="308" y="-308.3" font-family="Helvetica,sans-Serif" font-size="11.00" fill="#000000">area_formacao_pos_graduacao_origem_id</text>
<polygon fill="none" stroke="#000000" points="553,-301.2 553,-323.2 838,-323.2 838,-301.2 553,-301.2"/>
<text text-anchor="start" x="556" y="-308.9" font-family="Helvetica,sans-Serif" font-size="11.00" fill="#000000">int4[10]</text>
<polygon fill="none" stroke="#000000" points="288,-279.2 288,-301.2 553,-301.2 553,-279.2 288,-279.2"/>
<image xlink:href="../../images/foreignKeys.png" width="11px" height="12px" preserveAspectRatio="xMinYMin meet" x="293" y="-296.2"/>
<text text-anchor="start" x="308" y="-286.3" font-family="Helvetica,sans-Serif" font-size="11.00" fill="#000000">area_formacao_pos_graduacao_cloud_id</text>
<polygon fill="none" stroke="#000000" points="553,-279.2 553,-301.2 838,-301.2 838,-279.2 553,-279.2"/>
<text text-anchor="start" x="556" y="-286.9" font-family="Helvetica,sans-Serif" font-size="11.00" fill="#000000">int4[10]</text>
<polygon fill="none" stroke="#000000" points="288,-257.2 288,-279.2 553,-279.2 553,-257.2 288,-257.2"/>
<image xlink:href="../../images/foreignKeys.png" width="11px" height="12px" preserveAspectRatio="xMinYMin meet" x="293" y="-274.2"/>
<text text-anchor="start" x="308" y="-264.3" font-family="Helvetica,sans-Serif" font-size="11.00" fill="#000000">servidor_origem_id</text>
<polygon fill="none" stroke="#000000" points="553,-257.2 553,-279.2 838,-279.2 838,-257.2 553,-257.2"/>
<text text-anchor="start" x="556" y="-264.9" font-family="Helvetica,sans-Serif" font-size="11.00" fill="#000000">int4[10]</text>
<polygon fill="none" stroke="#000000" points="288,-235.2 288,-257.2 553,-257.2 553,-235.2 288,-235.2"/>
<image xlink:href="../../images/foreignKeys.png" width="11px" height="12px" preserveAspectRatio="xMinYMin meet" x="293" y="-252.2"/>
<text text-anchor="start" x="308" y="-242.3" font-family="Helvetica,sans-Serif" font-size="11.00" fill="#000000">servidor_cloud_id</text>
<polygon fill="none" stroke="#000000" points="553,-235.2 553,-257.2 838,-257.2 838,-235.2 553,-235.2"/>
<text text-anchor="start" x="556" y="-242.9" font-family="Helvetica,sans-Serif" font-size="11.00" fill="#000000">int4[10]</text>
<polygon fill="none" stroke="#000000" points="288,-213.2 288,-235.2 553,-235.2 553,-213.2 288,-213.2"/>
<text text-anchor="start" x="308" y="-220.3" font-family="Helvetica,sans-Serif" font-size="11.00" fill="#000000">descricao</text>
<polygon fill="none" stroke="#000000" points="553,-213.2 553,-235.2 838,-235.2 838,-213.2 553,-213.2"/>
<text text-anchor="start" x="556" y="-220.9" font-family="Helvetica,sans-Serif" font-size="11.00" fill="#000000">varchar[2147483647]</text>
<polygon fill="none" stroke="#000000" points="288,-191.2 288,-213.2 553,-213.2 553,-191.2 288,-191.2"/>
<text text-anchor="start" x="308" y="-198.3" font-family="Helvetica,sans-Serif" font-size="11.00" fill="#000000">tipo_formacao_pos_graduacao</text>
<polygon fill="none" stroke="#000000" points="553,-191.2 553,-213.2 838,-213.2 838,-191.2 553,-191.2"/>
<text text-anchor="start" x="556" y="-198.9" font-family="Helvetica,sans-Serif" font-size="11.00" fill="#000000">&quot;educacao&quot;.&quot;tiposformacaoposgraduacao&quot;[2147483647]</text>
<polygon fill="none" stroke="#000000" points="288,-169.2 288,-191.2 553,-191.2 553,-169.2 288,-169.2"/>
<text text-anchor="start" x="308" y="-176.3" font-family="Helvetica,sans-Serif" font-size="11.00" fill="#000000">situacao</text>
<polygon fill="none" stroke="#000000" points="553,-169.2 553,-191.2 838,-191.2 838,-169.2 553,-169.2"/>
<text text-anchor="start" x="555.6438" y="-176.9" font-family="Helvetica,sans-Serif" font-size="11.00" fill="#000000">&quot;educacao&quot;.&quot;situacoesformacaofuncionario&quot;[2147483647]</text>
<polygon fill="none" stroke="#000000" points="288,-147.2 288,-169.2 553,-169.2 553,-147.2 288,-147.2"/>
<text text-anchor="start" x="308" y="-154.3" font-family="Helvetica,sans-Serif" font-size="11.00" fill="#000000">ano_inicio</text>
<polygon fill="none" stroke="#000000" points="553,-147.2 553,-169.2 838,-169.2 838,-147.2 553,-147.2"/>
<text text-anchor="start" x="556" y="-154.9" font-family="Helvetica,sans-Serif" font-size="11.00" fill="#000000">varchar[2147483647]</text>
<polygon fill="none" stroke="#000000" points="288,-125.2 288,-147.2 553,-147.2 553,-125.2 288,-125.2"/>
<text text-anchor="start" x="308" y="-132.3" font-family="Helvetica,sans-Serif" font-size="11.00" fill="#000000">ano_fim</text>
<polygon fill="none" stroke="#000000" points="553,-125.2 553,-147.2 838,-147.2 838,-125.2 553,-125.2"/>
<text text-anchor="start" x="556" y="-132.9" font-family="Helvetica,sans-Serif" font-size="11.00" fill="#000000">varchar[2147483647]</text>
<polygon fill="none" stroke="#000000" points="288,-103.2 288,-125.2 553,-125.2 553,-103.2 288,-103.2"/>
<text text-anchor="start" x="308" y="-110.3" font-family="Helvetica,sans-Serif" font-size="11.00" fill="#000000">carga_horaria_hora</text>
<polygon fill="none" stroke="#000000" points="553,-103.2 553,-125.2 838,-125.2 838,-103.2 553,-103.2"/>
<text text-anchor="start" x="556" y="-110.9" font-family="Helvetica,sans-Serif" font-size="11.00" fill="#000000">int4[10]</text>
<polygon fill="none" stroke="#000000" points="288,-81.2 288,-103.2 553,-103.2 553,-81.2 288,-81.2"/>
<text text-anchor="start" x="308" y="-88.3" font-family="Helvetica,sans-Serif" font-size="11.00" fill="#000000">carga_horaria_minuto</text>
<polygon fill="none" stroke="#000000" points="553,-81.2 553,-103.2 838,-103.2 838,-81.2 553,-81.2"/>
<text text-anchor="start" x="556" y="-88.9" font-family="Helvetica,sans-Serif" font-size="11.00" fill="#000000">int4[10]</text>
<polygon fill="none" stroke="#000000" points="288,-59.2 288,-81.2 553,-81.2 553,-59.2 288,-59.2"/>
<text text-anchor="start" x="308" y="-66.3" font-family="Helvetica,sans-Serif" font-size="11.00" fill="#000000">instituicao</text>
<polygon fill="none" stroke="#000000" points="553,-59.2 553,-81.2 838,-81.2 838,-59.2 553,-59.2"/>
<text text-anchor="start" x="556" y="-66.9" font-family="Helvetica,sans-Serif" font-size="11.00" fill="#000000">varchar[2147483647]</text>
<polygon fill="#ffffff" stroke="transparent" points="288,-40.2 288,-59.2 425,-59.2 425,-40.2 288,-40.2"/>
<polygon fill="none" stroke="#000000" points="288,-40.2 288,-59.2 425,-59.2 425,-40.2 288,-40.2"/>
<text text-anchor="start" x="291" y="-46.3" font-family="Helvetica,sans-Serif" font-size="11.00" fill="#000000">&lt; 4</text>
<polygon fill="#ffffff" stroke="transparent" points="425,-40.2 425,-59.2 553,-59.2 553,-40.2 425,-40.2"/>
<polygon fill="none" stroke="#000000" points="425,-40.2 425,-59.2 553,-59.2 553,-40.2 425,-40.2"/>
<text text-anchor="start" x="543.8862" y="-46.3" font-family="Helvetica,sans-Serif" font-size="11.00" fill="#000000"> &#160;</text>
<polygon fill="#ffffff" stroke="transparent" points="553,-40.2 553,-59.2 838,-59.2 838,-40.2 553,-40.2"/>
<polygon fill="none" stroke="#000000" points="553,-40.2 553,-59.2 838,-59.2 838,-40.2 553,-40.2"/>
<text text-anchor="start" x="819.4053" y="-46.3" font-family="Helvetica,sans-Serif" font-size="11.00" fill="#000000">0 &gt;</text>
<polygon fill="none" stroke="#000000" stroke-width="2" points="287,-39.2 287,-457.2 839,-457.2 839,-39.2 287,-39.2"/>
</a>
</g>
</g>
<!-- inscricao_lista_espera_situacoes -->
<g id="node2" class="node">
<title>inscricao_lista_espera_situacoes</title>
<g id="a_node2"><a xlink:href="../../tables/inscricao_lista_espera_situacoes.html" xlink:title="inscricao_lista_espera_situacoes" target="_top">
<polygon fill="#ffffff" stroke="transparent" points="8,-230.7 8,-313.7 237,-313.7 237,-230.7 8,-230.7"/>
<polygon fill="#f5f5f5" stroke="transparent" points="8.5,-290.2 8.5,-313.2 237.5,-313.2 237.5,-290.2 8.5,-290.2"/>
<polygon fill="none" stroke="#000000" points="8.5,-290.2 8.5,-313.2 237.5,-313.2 237.5,-290.2 8.5,-290.2"/>
<text text-anchor="start" x="13.5" y="-298.8" font-family="Helvetica,sans-Serif" font-weight="bold" font-size="11.00" fill="#000000">inscricao_lista_espera_situacoes</text>
<text text-anchor="start" x="203.0219" y="-298.3" font-family="Helvetica,sans-Serif" font-size="11.00" fill="#000000">[table]</text>
<polygon fill="none" stroke="#000000" points="8.5,-268.2 8.5,-290.2 237.5,-290.2 237.5,-268.2 8.5,-268.2"/>
<image xlink:href="../../images/primaryKeys.png" width="11px" height="12px" preserveAspectRatio="xMinYMin meet" x="13.5" y="-285.2"/>
<text text-anchor="start" x="37.5" y="-275.3" font-family="Helvetica,sans-Serif" font-size="11.00" fill="#000000">id</text>
<polygon fill="none" stroke="#000000" points="8.5,-249.2 8.5,-268.2 237.5,-268.2 237.5,-249.2 8.5,-249.2"/>
<text text-anchor="start" x="11.5" y="-255.3" font-family="Helvetica,sans-Serif" font-size="11.00" fill="#000000">...</text>
<polygon fill="#ffffff" stroke="transparent" points="8.5,-230.2 8.5,-249.2 106.5,-249.2 106.5,-230.2 8.5,-230.2"/>
<polygon fill="none" stroke="#000000" points="8.5,-230.2 8.5,-249.2 106.5,-249.2 106.5,-230.2 8.5,-230.2"/>
<text text-anchor="start" x="11.5" y="-236.3" font-family="Helvetica,sans-Serif" font-size="11.00" fill="#000000"> &#160;</text>
<polygon fill="#ffffff" stroke="transparent" points="106.5,-230.2 106.5,-249.2 161.5,-249.2 161.5,-230.2 106.5,-230.2"/>
<polygon fill="none" stroke="#000000" points="106.5,-230.2 106.5,-249.2 161.5,-249.2 161.5,-230.2 106.5,-230.2"/>
<text text-anchor="start" x="152.3862" y="-236.3" font-family="Helvetica,sans-Serif" font-size="11.00" fill="#000000"> &#160;</text>
<polygon fill="#ffffff" stroke="transparent" points="161.5,-230.2 161.5,-249.2 237.5,-249.2 237.5,-230.2 161.5,-230.2"/>
<polygon fill="none" stroke="#000000" points="161.5,-230.2 161.5,-249.2 237.5,-249.2 237.5,-230.2 161.5,-230.2"/>
<text text-anchor="start" x="206.6755" y="-236.3" font-family="Helvetica,sans-Serif" font-size="11.00" fill="#000000">596 &gt;</text>
</a>
</g>
</g>
<!-- formacoes_pos_graduacao_funcionarios&#45;&gt;inscricao_lista_espera_situacoes -->
<g id="edge1" class="edge">
<title>formacoes_pos_graduacao_funcionarios:w&#45;&gt;inscricao_lista_espera_situacoes:e</title>
<path fill="none" stroke="#000000" stroke-dasharray="5,2" d="M273.6489,-288.4813C261.5992,-285.3875 254.728,-279.2 237.5,-279.2"/>
<polygon fill="#000000" stroke="#000000" points="280.0568,-289.2486 287.5719,-293.7745 284.0284,-289.7243 288,-290.2 288,-290.2 288,-290.2 284.0284,-289.7243 288.4281,-286.6255 280.0568,-289.2486 280.0568,-289.2486"/>
<ellipse fill="none" stroke="#000000" cx="276.8795" cy="-288.8681" rx="3.2" ry="3.2"/>
</g>
<!-- formacoes_pos_graduacao_funcionarios&#45;&gt;inscricao_lista_espera_situacoes -->
<g id="edge2" class="edge">
<title>formacoes_pos_graduacao_funcionarios:w&#45;&gt;inscricao_lista_espera_situacoes:e</title>
<path fill="none" stroke="#000000" stroke-dasharray="5,2" d="M274.0755,-308.1536C261.1224,-299.3416 258.4466,-279.2 237.5,-279.2"/>
<polygon fill="#000000" stroke="#000000" points="280.3178,-309.9675 286.9954,-315.657 284.1589,-311.0838 288,-312.2 288,-312.2 288,-312.2 284.1589,-311.0838 289.0046,-308.743 280.3178,-309.9675 280.3178,-309.9675"/>
<ellipse fill="none" stroke="#000000" cx="277.2449" cy="-309.0745" rx="3.2" ry="3.2"/>
</g>
<!-- formacoes_pos_graduacao_funcionarios&#45;&gt;inscricao_lista_espera_situacoes -->
<g id="edge3" class="edge">
<title>formacoes_pos_graduacao_funcionarios:w&#45;&gt;inscricao_lista_espera_situacoes:e</title>
<path fill="none" stroke="#000000" stroke-dasharray="5,2" d="M274.0755,-250.2464C261.1224,-259.0584 258.4466,-279.2 237.5,-279.2"/>
<polygon fill="#000000" stroke="#000000" points="280.3178,-248.4325 289.0046,-249.657 284.1589,-247.3162 288,-246.2 288,-246.2 288,-246.2 284.1589,-247.3162 286.9954,-242.743 280.3178,-248.4325 280.3178,-248.4325"/>
<ellipse fill="none" stroke="#000000" cx="277.2449" cy="-249.3255" rx="3.2" ry="3.2"/>
</g>
<!-- formacoes_pos_graduacao_funcionarios&#45;&gt;inscricao_lista_espera_situacoes -->
<g id="edge4" class="edge">
<title>formacoes_pos_graduacao_funcionarios:w&#45;&gt;inscricao_lista_espera_situacoes:e</title>
<path fill="none" stroke="#000000" stroke-dasharray="5,2" d="M273.6489,-269.9188C261.5992,-273.0125 254.728,-279.2 237.5,-279.2"/>
<polygon fill="#000000" stroke="#000000" points="280.0568,-269.1514 288.4281,-271.7745 284.0284,-268.6757 288,-268.2 288,-268.2 288,-268.2 284.0284,-268.6757 287.5719,-264.6255 280.0568,-269.1514 280.0568,-269.1514"/>
<ellipse fill="none" stroke="#000000" cx="276.8795" cy="-269.5319" rx="3.2" ry="3.2"/>
</g>
</g>
</svg>
