<?xml version="1.0" encoding="UTF-8" standalone="no"?>
<!DOCTYPE svg PUBLIC "-//W3C//DTD SVG 1.1//EN"
 "http://www.w3.org/Graphics/SVG/1.1/DTD/svg11.dtd">
<!-- Generated by graphviz version 2.40.1 (20161225.0304)
 -->
<!-- Title: oneDegreeRelationshipsDiagramImplied Pages: 1 -->
<svg width="756pt" height="1592pt"
 viewBox="0.00 0.00 756.00 1592.20" xmlns="http://www.w3.org/2000/svg" xmlns:xlink="http://www.w3.org/1999/xlink">
<g id="graph0" class="graph" transform="scale(1 1) rotate(0) translate(4 1588.2)">
<title>oneDegreeRelationshipsDiagramImplied</title>
<polygon fill="#ffffff" stroke="transparent" points="-4,4 -4,-1588.2 752,-1588.2 752,4 -4,4"/>
<text text-anchor="middle" x="72.4936" y="-7.3" font-family="Helvetica,sans-Serif" font-size="11.00" fill="#000000">Generated by SchemaSpy</text>
<!-- funcionarios -->
<g id="node1" class="node">
<title>funcionarios</title>
<g id="a_node1"><a xlink:href="../../tables/funcionarios.html" xlink:title="funcionarios" target="_top">
<polygon fill="#ffffff" stroke="transparent" points="286,-38.2 286,-1580.2 740,-1580.2 740,-38.2 286,-38.2"/>
<polygon fill="#f5f5f5" stroke="transparent" points="288,-1555.2 288,-1578.2 738,-1578.2 738,-1555.2 288,-1555.2"/>
<polygon fill="none" stroke="#000000" points="288,-1555.2 288,-1578.2 738,-1578.2 738,-1555.2 288,-1555.2"/>
<text text-anchor="start" x="293" y="-1563.8" font-family="Helvetica,sans-Serif" font-weight="bold" font-size="11.00" fill="#000000">funcionarios</text>
<text text-anchor="start" x="703.0437" y="-1563.3" font-family="Helvetica,sans-Serif" font-size="11.00" fill="#000000">[table]</text>
<polygon fill="none" stroke="#000000" points="288,-1533.2 288,-1555.2 513,-1555.2 513,-1533.2 288,-1533.2"/>
<text text-anchor="start" x="308" y="-1540.3" font-family="Helvetica,sans-Serif" font-size="11.00" fill="#000000">sistema</text>
<polygon fill="none" stroke="#000000" points="513,-1533.2 513,-1555.2 738,-1555.2 738,-1533.2 513,-1533.2"/>
<text text-anchor="start" x="516" y="-1540.9" font-family="Helvetica,sans-Serif" font-size="11.00" fill="#000000">int4[10]</text>
<polygon fill="none" stroke="#000000" points="288,-1511.2 288,-1533.2 513,-1533.2 513,-1511.2 288,-1511.2"/>
<text text-anchor="start" x="308" y="-1518.3" font-family="Helvetica,sans-Serif" font-size="11.00" fill="#000000">tipo_registro</text>
<polygon fill="none" stroke="#000000" points="513,-1511.2 513,-1533.2 738,-1533.2 738,-1511.2 513,-1511.2"/>
<text text-anchor="start" x="516" y="-1518.9" font-family="Helvetica,sans-Serif" font-size="11.00" fill="#000000">text[2147483647]</text>
<polygon fill="none" stroke="#000000" points="288,-1489.2 288,-1511.2 513,-1511.2 513,-1489.2 288,-1489.2"/>
<text text-anchor="start" x="308" y="-1496.3" font-family="Helvetica,sans-Serif" font-size="11.00" fill="#000000">id_integracao</text>
<polygon fill="none" stroke="#000000" points="513,-1489.2 513,-1511.2 738,-1511.2 738,-1489.2 513,-1489.2"/>
<text text-anchor="start" x="516" y="-1496.9" font-family="Helvetica,sans-Serif" font-size="11.00" fill="#000000">varchar[2147483647]</text>
<polygon fill="none" stroke="#000000" points="288,-1467.2 288,-1489.2 513,-1489.2 513,-1467.2 288,-1467.2"/>
<text text-anchor="start" x="308" y="-1474.3" font-family="Helvetica,sans-Serif" font-size="11.00" fill="#000000">id_origem</text>
<polygon fill="none" stroke="#000000" points="513,-1467.2 513,-1489.2 738,-1489.2 738,-1467.2 513,-1467.2"/>
<text text-anchor="start" x="516" y="-1474.9" font-family="Helvetica,sans-Serif" font-size="11.00" fill="#000000">int4[10]</text>
<polygon fill="none" stroke="#000000" points="288,-1445.2 288,-1467.2 513,-1467.2 513,-1445.2 288,-1445.2"/>
<text text-anchor="start" x="308" y="-1452.3" font-family="Helvetica,sans-Serif" font-size="11.00" fill="#000000">id_cloud</text>
<polygon fill="none" stroke="#000000" points="513,-1445.2 513,-1467.2 738,-1467.2 738,-1445.2 513,-1445.2"/>
<text text-anchor="start" x="516" y="-1452.9" font-family="Helvetica,sans-Serif" font-size="11.00" fill="#000000">int4[10]</text>
<polygon fill="none" stroke="#000000" points="288,-1423.2 288,-1445.2 513,-1445.2 513,-1423.2 288,-1423.2"/>
<text text-anchor="start" x="308" y="-1430.3" font-family="Helvetica,sans-Serif" font-size="11.00" fill="#000000">chave_acesso</text>
<polygon fill="none" stroke="#000000" points="513,-1423.2 513,-1445.2 738,-1445.2 738,-1423.2 513,-1423.2"/>
<text text-anchor="start" x="516" y="-1430.9" font-family="Helvetica,sans-Serif" font-size="11.00" fill="#000000">varchar[2147483647]</text>
<polygon fill="none" stroke="#000000" points="288,-1401.2 288,-1423.2 513,-1423.2 513,-1401.2 288,-1401.2"/>
<text text-anchor="start" x="308" y="-1408.3" font-family="Helvetica,sans-Serif" font-size="11.00" fill="#000000">usuario</text>
<polygon fill="none" stroke="#000000" points="513,-1401.2 513,-1423.2 738,-1423.2 738,-1401.2 513,-1401.2"/>
<text text-anchor="start" x="516" y="-1408.9" font-family="Helvetica,sans-Serif" font-size="11.00" fill="#000000">varchar[2147483647]</text>
<polygon fill="none" stroke="#000000" points="288,-1379.2 288,-1401.2 513,-1401.2 513,-1379.2 288,-1379.2"/>
<text text-anchor="start" x="308" y="-1386.3" font-family="Helvetica,sans-Serif" font-size="11.00" fill="#000000">modelo_certidao</text>
<polygon fill="none" stroke="#000000" points="513,-1379.2 513,-1401.2 738,-1401.2 738,-1379.2 513,-1379.2"/>
<text text-anchor="start" x="515.5968" y="-1386.9" font-family="Helvetica,sans-Serif" font-size="11.00" fill="#000000">&quot;educacao&quot;.&quot;modeloscertidoes&quot;[2147483647]</text>
<polygon fill="none" stroke="#000000" points="288,-1357.2 288,-1379.2 513,-1379.2 513,-1357.2 288,-1357.2"/>
<text text-anchor="start" x="308" y="-1364.3" font-family="Helvetica,sans-Serif" font-size="11.00" fill="#000000">numero_certidao</text>
<polygon fill="none" stroke="#000000" points="513,-1357.2 513,-1379.2 738,-1379.2 738,-1357.2 513,-1357.2"/>
<text text-anchor="start" x="516" y="-1364.9" font-family="Helvetica,sans-Serif" font-size="11.00" fill="#000000">varchar[2147483647]</text>
<polygon fill="none" stroke="#000000" points="288,-1335.2 288,-1357.2 513,-1357.2 513,-1335.2 288,-1335.2"/>
<text text-anchor="start" x="308" y="-1342.3" font-family="Helvetica,sans-Serif" font-size="11.00" fill="#000000">numero_termo</text>
<polygon fill="none" stroke="#000000" points="513,-1335.2 513,-1357.2 738,-1357.2 738,-1335.2 513,-1335.2"/>
<text text-anchor="start" x="516" y="-1342.9" font-family="Helvetica,sans-Serif" font-size="11.00" fill="#000000">varchar[2147483647]</text>
<polygon fill="none" stroke="#000000" points="288,-1313.2 288,-1335.2 513,-1335.2 513,-1313.2 288,-1313.2"/>
<text text-anchor="start" x="308" y="-1320.3" font-family="Helvetica,sans-Serif" font-size="11.00" fill="#000000">folha_certidao</text>
<polygon fill="none" stroke="#000000" points="513,-1313.2 513,-1335.2 738,-1335.2 738,-1313.2 513,-1313.2"/>
<text text-anchor="start" x="516" y="-1320.9" font-family="Helvetica,sans-Serif" font-size="11.00" fill="#000000">varchar[2147483647]</text>
<polygon fill="none" stroke="#000000" points="288,-1291.2 288,-1313.2 513,-1313.2 513,-1291.2 288,-1291.2"/>
<text text-anchor="start" x="308" y="-1298.3" font-family="Helvetica,sans-Serif" font-size="11.00" fill="#000000">livro_certidao</text>
<polygon fill="none" stroke="#000000" points="513,-1291.2 513,-1313.2 738,-1313.2 738,-1291.2 513,-1291.2"/>
<text text-anchor="start" x="516" y="-1298.9" font-family="Helvetica,sans-Serif" font-size="11.00" fill="#000000">varchar[2147483647]</text>
<polygon fill="none" stroke="#000000" points="288,-1269.2 288,-1291.2 513,-1291.2 513,-1269.2 288,-1269.2"/>
<text text-anchor="start" x="308" y="-1276.3" font-family="Helvetica,sans-Serif" font-size="11.00" fill="#000000">emissao_certidao</text>
<polygon fill="none" stroke="#000000" points="513,-1269.2 513,-1291.2 738,-1291.2 738,-1269.2 513,-1269.2"/>
<text text-anchor="start" x="516" y="-1276.9" font-family="Helvetica,sans-Serif" font-size="11.00" fill="#000000">date[13]</text>
<polygon fill="none" stroke="#000000" points="288,-1247.2 288,-1269.2 513,-1269.2 513,-1247.2 288,-1247.2"/>
<text text-anchor="start" x="308" y="-1254.3" font-family="Helvetica,sans-Serif" font-size="11.00" fill="#000000">identificacao_inep</text>
<polygon fill="none" stroke="#000000" points="513,-1247.2 513,-1269.2 738,-1269.2 738,-1247.2 513,-1247.2"/>
<text text-anchor="start" x="516" y="-1254.9" font-family="Helvetica,sans-Serif" font-size="11.00" fill="#000000">varchar[2147483647]</text>
<polygon fill="none" stroke="#000000" points="288,-1225.2 288,-1247.2 513,-1247.2 513,-1225.2 288,-1225.2"/>
<text text-anchor="start" x="308" y="-1232.3" font-family="Helvetica,sans-Serif" font-size="11.00" fill="#000000">certidao_civil</text>
<polygon fill="none" stroke="#000000" points="513,-1225.2 513,-1247.2 738,-1247.2 738,-1225.2 513,-1225.2"/>
<text text-anchor="start" x="516" y="-1232.9" font-family="Helvetica,sans-Serif" font-size="11.00" fill="#000000">&quot;educacao&quot;.&quot;certidoescivis&quot;[2147483647]</text>
<polygon fill="none" stroke="#000000" points="288,-1203.2 288,-1225.2 513,-1225.2 513,-1203.2 288,-1203.2"/>
<text text-anchor="start" x="308" y="-1210.3" font-family="Helvetica,sans-Serif" font-size="11.00" fill="#000000">conjuge</text>
<polygon fill="none" stroke="#000000" points="513,-1203.2 513,-1225.2 738,-1225.2 738,-1203.2 513,-1203.2"/>
<text text-anchor="start" x="516" y="-1210.9" font-family="Helvetica,sans-Serif" font-size="11.00" fill="#000000">varchar[2147483647]</text>
<polygon fill="none" stroke="#000000" points="288,-1181.2 288,-1203.2 513,-1203.2 513,-1181.2 288,-1181.2"/>
<text text-anchor="start" x="308" y="-1188.3" font-family="Helvetica,sans-Serif" font-size="11.00" fill="#000000">nome_pai</text>
<polygon fill="none" stroke="#000000" points="513,-1181.2 513,-1203.2 738,-1203.2 738,-1181.2 513,-1181.2"/>
<text text-anchor="start" x="516" y="-1188.9" font-family="Helvetica,sans-Serif" font-size="11.00" fill="#000000">varchar[2147483647]</text>
<polygon fill="none" stroke="#000000" points="288,-1159.2 288,-1181.2 513,-1181.2 513,-1159.2 288,-1159.2"/>
<text text-anchor="start" x="308" y="-1166.3" font-family="Helvetica,sans-Serif" font-size="11.00" fill="#000000">naturalizado</text>
<polygon fill="none" stroke="#000000" points="513,-1159.2 513,-1181.2 738,-1181.2 738,-1159.2 513,-1159.2"/>
<text text-anchor="start" x="516" y="-1166.9" font-family="Helvetica,sans-Serif" font-size="11.00" fill="#000000">bool[1]</text>
<polygon fill="none" stroke="#000000" points="288,-1137.2 288,-1159.2 513,-1159.2 513,-1137.2 288,-1137.2"/>
<text text-anchor="start" x="308" y="-1144.3" font-family="Helvetica,sans-Serif" font-size="11.00" fill="#000000">nome_mae</text>
<polygon fill="none" stroke="#000000" points="513,-1137.2 513,-1159.2 738,-1159.2 738,-1137.2 513,-1137.2"/>
<text text-anchor="start" x="516" y="-1144.9" font-family="Helvetica,sans-Serif" font-size="11.00" fill="#000000">varchar[2147483647]</text>
<polygon fill="none" stroke="#000000" points="288,-1115.2 288,-1137.2 513,-1137.2 513,-1115.2 288,-1115.2"/>
<text text-anchor="start" x="308" y="-1122.3" font-family="Helvetica,sans-Serif" font-size="11.00" fill="#000000">parametro_criacao_credencial</text>
<polygon fill="none" stroke="#000000" points="513,-1115.2 513,-1137.2 738,-1137.2 738,-1115.2 513,-1115.2"/>
<text text-anchor="start" x="516" y="-1122.9" font-family="Helvetica,sans-Serif" font-size="11.00" fill="#000000">varchar[2147483647]</text>
<polygon fill="none" stroke="#000000" points="288,-1093.2 288,-1115.2 513,-1115.2 513,-1093.2 288,-1093.2"/>
<image xlink:href="../../images/foreignKeys.png" width="11px" height="12px" preserveAspectRatio="xMinYMin meet" x="293" y="-1110.2"/>
<text text-anchor="start" x="308" y="-1100.3" font-family="Helvetica,sans-Serif" font-size="11.00" fill="#000000">cartorio_certidao_origem_id</text>
<polygon fill="none" stroke="#000000" points="513,-1093.2 513,-1115.2 738,-1115.2 738,-1093.2 513,-1093.2"/>
<text text-anchor="start" x="516" y="-1100.9" font-family="Helvetica,sans-Serif" font-size="11.00" fill="#000000">int4[10]</text>
<polygon fill="none" stroke="#000000" points="288,-1071.2 288,-1093.2 513,-1093.2 513,-1071.2 288,-1071.2"/>
<image xlink:href="../../images/foreignKeys.png" width="11px" height="12px" preserveAspectRatio="xMinYMin meet" x="293" y="-1088.2"/>
<text text-anchor="start" x="308" y="-1078.3" font-family="Helvetica,sans-Serif" font-size="11.00" fill="#000000">cartorio_certidao_cloud_id</text>
<polygon fill="none" stroke="#000000" points="513,-1071.2 513,-1093.2 738,-1093.2 738,-1071.2 513,-1071.2"/>
<text text-anchor="start" x="516" y="-1078.9" font-family="Helvetica,sans-Serif" font-size="11.00" fill="#000000">int4[10]</text>
<polygon fill="none" stroke="#000000" points="288,-1049.2 288,-1071.2 513,-1071.2 513,-1049.2 288,-1049.2"/>
<image xlink:href="../../images/foreignKeys.png" width="11px" height="12px" preserveAspectRatio="xMinYMin meet" x="293" y="-1066.2"/>
<text text-anchor="start" x="308" y="-1056.3" font-family="Helvetica,sans-Serif" font-size="11.00" fill="#000000">municipio_certidao_origem_id</text>
<polygon fill="none" stroke="#000000" points="513,-1049.2 513,-1071.2 738,-1071.2 738,-1049.2 513,-1049.2"/>
<text text-anchor="start" x="516" y="-1056.9" font-family="Helvetica,sans-Serif" font-size="11.00" fill="#000000">int4[10]</text>
<polygon fill="none" stroke="#000000" points="288,-1027.2 288,-1049.2 513,-1049.2 513,-1027.2 288,-1027.2"/>
<image xlink:href="../../images/foreignKeys.png" width="11px" height="12px" preserveAspectRatio="xMinYMin meet" x="293" y="-1044.2"/>
<text text-anchor="start" x="308" y="-1034.3" font-family="Helvetica,sans-Serif" font-size="11.00" fill="#000000">municipio_certidao_cloud_id</text>
<polygon fill="none" stroke="#000000" points="513,-1027.2 513,-1049.2 738,-1049.2 738,-1027.2 513,-1027.2"/>
<text text-anchor="start" x="516" y="-1034.9" font-family="Helvetica,sans-Serif" font-size="11.00" fill="#000000">int4[10]</text>
<polygon fill="none" stroke="#000000" points="288,-1005.2 288,-1027.2 513,-1027.2 513,-1005.2 288,-1005.2"/>
<image xlink:href="../../images/foreignKeys.png" width="11px" height="12px" preserveAspectRatio="xMinYMin meet" x="293" y="-1022.2"/>
<text text-anchor="start" x="308" y="-1012.3" font-family="Helvetica,sans-Serif" font-size="11.00" fill="#000000">pais_origem_origem_id</text>
<polygon fill="none" stroke="#000000" points="513,-1005.2 513,-1027.2 738,-1027.2 738,-1005.2 513,-1005.2"/>
<text text-anchor="start" x="516" y="-1012.9" font-family="Helvetica,sans-Serif" font-size="11.00" fill="#000000">int4[10]</text>
<polygon fill="none" stroke="#000000" points="288,-983.2 288,-1005.2 513,-1005.2 513,-983.2 288,-983.2"/>
<image xlink:href="../../images/foreignKeys.png" width="11px" height="12px" preserveAspectRatio="xMinYMin meet" x="293" y="-1000.2"/>
<text text-anchor="start" x="308" y="-990.3" font-family="Helvetica,sans-Serif" font-size="11.00" fill="#000000">pais_origem_cloud_id</text>
<polygon fill="none" stroke="#000000" points="513,-983.2 513,-1005.2 738,-1005.2 738,-983.2 513,-983.2"/>
<text text-anchor="start" x="516" y="-990.9" font-family="Helvetica,sans-Serif" font-size="11.00" fill="#000000">int4[10]</text>
<polygon fill="none" stroke="#000000" points="288,-961.2 288,-983.2 513,-983.2 513,-961.2 288,-961.2"/>
<image xlink:href="../../images/foreignKeys.png" width="11px" height="12px" preserveAspectRatio="xMinYMin meet" x="293" y="-978.2"/>
<text text-anchor="start" x="308" y="-968.3" font-family="Helvetica,sans-Serif" font-size="11.00" fill="#000000">orgao_emissor_rg_origem_id</text>
<polygon fill="none" stroke="#000000" points="513,-961.2 513,-983.2 738,-983.2 738,-961.2 513,-961.2"/>
<text text-anchor="start" x="516" y="-968.9" font-family="Helvetica,sans-Serif" font-size="11.00" fill="#000000">int4[10]</text>
<polygon fill="none" stroke="#000000" points="288,-939.2 288,-961.2 513,-961.2 513,-939.2 288,-939.2"/>
<image xlink:href="../../images/foreignKeys.png" width="11px" height="12px" preserveAspectRatio="xMinYMin meet" x="293" y="-956.2"/>
<text text-anchor="start" x="308" y="-946.3" font-family="Helvetica,sans-Serif" font-size="11.00" fill="#000000">orgao_emissor_rg_cloud_id</text>
<polygon fill="none" stroke="#000000" points="513,-939.2 513,-961.2 738,-961.2 738,-939.2 513,-939.2"/>
<text text-anchor="start" x="516" y="-946.9" font-family="Helvetica,sans-Serif" font-size="11.00" fill="#000000">int4[10]</text>
<polygon fill="none" stroke="#000000" points="288,-917.2 288,-939.2 513,-939.2 513,-917.2 288,-917.2"/>
<image xlink:href="../../images/foreignKeys.png" width="11px" height="12px" preserveAspectRatio="xMinYMin meet" x="293" y="-934.2"/>
<text text-anchor="start" x="308" y="-924.3" font-family="Helvetica,sans-Serif" font-size="11.00" fill="#000000">pessoa_origem_id</text>
<polygon fill="none" stroke="#000000" points="513,-917.2 513,-939.2 738,-939.2 738,-917.2 513,-917.2"/>
<text text-anchor="start" x="516" y="-924.9" font-family="Helvetica,sans-Serif" font-size="11.00" fill="#000000">int4[10]</text>
<polygon fill="none" stroke="#000000" points="288,-895.2 288,-917.2 513,-917.2 513,-895.2 288,-895.2"/>
<image xlink:href="../../images/foreignKeys.png" width="11px" height="12px" preserveAspectRatio="xMinYMin meet" x="293" y="-912.2"/>
<text text-anchor="start" x="308" y="-902.3" font-family="Helvetica,sans-Serif" font-size="11.00" fill="#000000">pessoa_cloud_id</text>
<polygon fill="none" stroke="#000000" points="513,-895.2 513,-917.2 738,-917.2 738,-895.2 513,-895.2"/>
<text text-anchor="start" x="516" y="-902.9" font-family="Helvetica,sans-Serif" font-size="11.00" fill="#000000">int4[10]</text>
<polygon fill="none" stroke="#000000" points="288,-873.2 288,-895.2 513,-895.2 513,-873.2 288,-873.2"/>
<text text-anchor="start" x="308" y="-880.3" font-family="Helvetica,sans-Serif" font-size="11.00" fill="#000000">nome</text>
<polygon fill="none" stroke="#000000" points="513,-873.2 513,-895.2 738,-895.2 738,-873.2 513,-873.2"/>
<text text-anchor="start" x="516" y="-880.9" font-family="Helvetica,sans-Serif" font-size="11.00" fill="#000000">varchar[155]</text>
<polygon fill="none" stroke="#000000" points="288,-851.2 288,-873.2 513,-873.2 513,-851.2 288,-851.2"/>
<text text-anchor="start" x="308" y="-858.3" font-family="Helvetica,sans-Serif" font-size="11.00" fill="#000000">nome_fantasia</text>
<polygon fill="none" stroke="#000000" points="513,-851.2 513,-873.2 738,-873.2 738,-851.2 513,-851.2"/>
<text text-anchor="start" x="516" y="-858.9" font-family="Helvetica,sans-Serif" font-size="11.00" fill="#000000">varchar[155]</text>
<polygon fill="none" stroke="#000000" points="288,-829.2 288,-851.2 513,-851.2 513,-829.2 288,-829.2"/>
<text text-anchor="start" x="308" y="-836.3" font-family="Helvetica,sans-Serif" font-size="11.00" fill="#000000">cpf</text>
<polygon fill="none" stroke="#000000" points="513,-829.2 513,-851.2 738,-851.2 738,-829.2 513,-829.2"/>
<text text-anchor="start" x="516" y="-836.9" font-family="Helvetica,sans-Serif" font-size="11.00" fill="#000000">varchar[11]</text>
<polygon fill="none" stroke="#000000" points="288,-807.2 288,-829.2 513,-829.2 513,-807.2 288,-807.2"/>
<text text-anchor="start" x="308" y="-814.3" font-family="Helvetica,sans-Serif" font-size="11.00" fill="#000000">sexo</text>
<polygon fill="none" stroke="#000000" points="513,-807.2 513,-829.2 738,-829.2 738,-807.2 513,-807.2"/>
<text text-anchor="start" x="516" y="-814.9" font-family="Helvetica,sans-Serif" font-size="11.00" fill="#000000">&quot;educacao&quot;.&quot;sexos&quot;[2147483647]</text>
<polygon fill="none" stroke="#000000" points="288,-785.2 288,-807.2 513,-807.2 513,-785.2 288,-785.2"/>
<image xlink:href="../../images/foreignKeys.png" width="11px" height="12px" preserveAspectRatio="xMinYMin meet" x="293" y="-802.2"/>
<text text-anchor="start" x="308" y="-792.3" font-family="Helvetica,sans-Serif" font-size="11.00" fill="#000000">municipio_nascimento_origem_id</text>
<polygon fill="none" stroke="#000000" points="513,-785.2 513,-807.2 738,-807.2 738,-785.2 513,-785.2"/>
<text text-anchor="start" x="516" y="-792.9" font-family="Helvetica,sans-Serif" font-size="11.00" fill="#000000">int4[10]</text>
<polygon fill="none" stroke="#000000" points="288,-763.2 288,-785.2 513,-785.2 513,-763.2 288,-763.2"/>
<image xlink:href="../../images/foreignKeys.png" width="11px" height="12px" preserveAspectRatio="xMinYMin meet" x="293" y="-780.2"/>
<text text-anchor="start" x="308" y="-770.3" font-family="Helvetica,sans-Serif" font-size="11.00" fill="#000000">municipio_nascimento_cloud_id</text>
<polygon fill="none" stroke="#000000" points="513,-763.2 513,-785.2 738,-785.2 738,-763.2 513,-763.2"/>
<text text-anchor="start" x="516" y="-770.9" font-family="Helvetica,sans-Serif" font-size="11.00" fill="#000000">int4[10]</text>
<polygon fill="none" stroke="#000000" points="288,-741.2 288,-763.2 513,-763.2 513,-741.2 288,-741.2"/>
<text text-anchor="start" x="308" y="-748.3" font-family="Helvetica,sans-Serif" font-size="11.00" fill="#000000">data_nascimento</text>
<polygon fill="none" stroke="#000000" points="513,-741.2 513,-763.2 738,-763.2 738,-741.2 513,-741.2"/>
<text text-anchor="start" x="516" y="-748.9" font-family="Helvetica,sans-Serif" font-size="11.00" fill="#000000">date[13]</text>
<polygon fill="none" stroke="#000000" points="288,-719.2 288,-741.2 513,-741.2 513,-719.2 288,-719.2"/>
<text text-anchor="start" x="308" y="-726.3" font-family="Helvetica,sans-Serif" font-size="11.00" fill="#000000">grau_instrucao</text>
<polygon fill="none" stroke="#000000" points="513,-719.2 513,-741.2 738,-741.2 738,-719.2 513,-719.2"/>
<text text-anchor="start" x="516" y="-726.9" font-family="Helvetica,sans-Serif" font-size="11.00" fill="#000000">&quot;educacao&quot;.&quot;grausinstrucao&quot;[2147483647]</text>
<polygon fill="none" stroke="#000000" points="288,-697.2 288,-719.2 513,-719.2 513,-697.2 288,-697.2"/>
<text text-anchor="start" x="308" y="-704.3" font-family="Helvetica,sans-Serif" font-size="11.00" fill="#000000">estado_civil</text>
<polygon fill="none" stroke="#000000" points="513,-697.2 513,-719.2 738,-719.2 738,-697.2 513,-697.2"/>
<text text-anchor="start" x="516" y="-704.9" font-family="Helvetica,sans-Serif" font-size="11.00" fill="#000000">&quot;educacao&quot;.&quot;estadoscivis&quot;[2147483647]</text>
<polygon fill="none" stroke="#000000" points="288,-675.2 288,-697.2 513,-697.2 513,-675.2 288,-675.2"/>
<text text-anchor="start" x="308" y="-682.3" font-family="Helvetica,sans-Serif" font-size="11.00" fill="#000000">rg</text>
<polygon fill="none" stroke="#000000" points="513,-675.2 513,-697.2 738,-697.2 738,-675.2 513,-675.2"/>
<text text-anchor="start" x="516" y="-682.9" font-family="Helvetica,sans-Serif" font-size="11.00" fill="#000000">varchar[20]</text>
<polygon fill="none" stroke="#000000" points="288,-653.2 288,-675.2 513,-675.2 513,-653.2 288,-653.2"/>
<text text-anchor="start" x="308" y="-660.3" font-family="Helvetica,sans-Serif" font-size="11.00" fill="#000000">data_emissao_rg</text>
<polygon fill="none" stroke="#000000" points="513,-653.2 513,-675.2 738,-675.2 738,-653.2 513,-653.2"/>
<text text-anchor="start" x="516" y="-660.9" font-family="Helvetica,sans-Serif" font-size="11.00" fill="#000000">date[13]</text>
<polygon fill="none" stroke="#000000" points="288,-631.2 288,-653.2 513,-653.2 513,-631.2 288,-631.2"/>
<text text-anchor="start" x="308" y="-638.3" font-family="Helvetica,sans-Serif" font-size="11.00" fill="#000000">uf_emissao_rg</text>
<polygon fill="none" stroke="#000000" points="513,-631.2 513,-653.2 738,-653.2 738,-631.2 513,-631.2"/>
<text text-anchor="start" x="516" y="-638.9" font-family="Helvetica,sans-Serif" font-size="11.00" fill="#000000">&quot;educacao&quot;.&quot;ufs&quot;[2147483647]</text>
<polygon fill="none" stroke="#000000" points="288,-609.2 288,-631.2 513,-631.2 513,-609.2 288,-609.2"/>
<text text-anchor="start" x="308" y="-616.3" font-family="Helvetica,sans-Serif" font-size="11.00" fill="#000000">pis</text>
<polygon fill="none" stroke="#000000" points="513,-609.2 513,-631.2 738,-631.2 738,-609.2 513,-609.2"/>
<text text-anchor="start" x="516" y="-616.9" font-family="Helvetica,sans-Serif" font-size="11.00" fill="#000000">varchar[11]</text>
<polygon fill="none" stroke="#000000" points="288,-587.2 288,-609.2 513,-609.2 513,-587.2 288,-587.2"/>
<text text-anchor="start" x="308" y="-594.3" font-family="Helvetica,sans-Serif" font-size="11.00" fill="#000000">data_emissao_pis</text>
<polygon fill="none" stroke="#000000" points="513,-587.2 513,-609.2 738,-609.2 738,-587.2 513,-587.2"/>
<text text-anchor="start" x="516" y="-594.9" font-family="Helvetica,sans-Serif" font-size="11.00" fill="#000000">date[13]</text>
<polygon fill="none" stroke="#000000" points="288,-565.2 288,-587.2 513,-587.2 513,-565.2 288,-565.2"/>
<text text-anchor="start" x="308" y="-572.3" font-family="Helvetica,sans-Serif" font-size="11.00" fill="#000000">carteira_trabalho</text>
<polygon fill="none" stroke="#000000" points="513,-565.2 513,-587.2 738,-587.2 738,-565.2 513,-565.2"/>
<text text-anchor="start" x="516" y="-572.9" font-family="Helvetica,sans-Serif" font-size="11.00" fill="#000000">varchar[7]</text>
<polygon fill="none" stroke="#000000" points="288,-543.2 288,-565.2 513,-565.2 513,-543.2 288,-543.2"/>
<text text-anchor="start" x="308" y="-550.3" font-family="Helvetica,sans-Serif" font-size="11.00" fill="#000000">serie_carteira_trabalho</text>
<polygon fill="none" stroke="#000000" points="513,-543.2 513,-565.2 738,-565.2 738,-543.2 513,-543.2"/>
<text text-anchor="start" x="516" y="-550.9" font-family="Helvetica,sans-Serif" font-size="11.00" fill="#000000">varchar[5]</text>
<polygon fill="none" stroke="#000000" points="288,-521.2 288,-543.2 513,-543.2 513,-521.2 288,-521.2"/>
<text text-anchor="start" x="308" y="-528.3" font-family="Helvetica,sans-Serif" font-size="11.00" fill="#000000">data_emissao_carteira</text>
<polygon fill="none" stroke="#000000" points="513,-521.2 513,-543.2 738,-543.2 738,-521.2 513,-521.2"/>
<text text-anchor="start" x="516" y="-528.9" font-family="Helvetica,sans-Serif" font-size="11.00" fill="#000000">date[13]</text>
<polygon fill="none" stroke="#000000" points="288,-499.2 288,-521.2 513,-521.2 513,-499.2 288,-499.2"/>
<text text-anchor="start" x="308" y="-506.3" font-family="Helvetica,sans-Serif" font-size="11.00" fill="#000000">uf_emissao_carteira</text>
<polygon fill="none" stroke="#000000" points="513,-499.2 513,-521.2 738,-521.2 738,-499.2 513,-499.2"/>
<text text-anchor="start" x="516" y="-506.9" font-family="Helvetica,sans-Serif" font-size="11.00" fill="#000000">&quot;educacao&quot;.&quot;ufs&quot;[2147483647]</text>
<polygon fill="none" stroke="#000000" points="288,-477.2 288,-499.2 513,-499.2 513,-477.2 288,-477.2"/>
<text text-anchor="start" x="308" y="-484.3" font-family="Helvetica,sans-Serif" font-size="11.00" fill="#000000">nacionalidade</text>
<polygon fill="none" stroke="#000000" points="513,-477.2 513,-499.2 738,-499.2 738,-477.2 513,-477.2"/>
<text text-anchor="start" x="516" y="-484.9" font-family="Helvetica,sans-Serif" font-size="11.00" fill="#000000">&quot;educacao&quot;.&quot;nacionalidades&quot;[2147483647]</text>
<polygon fill="none" stroke="#000000" points="288,-455.2 288,-477.2 513,-477.2 513,-455.2 288,-455.2"/>
<text text-anchor="start" x="308" y="-462.3" font-family="Helvetica,sans-Serif" font-size="11.00" fill="#000000">identidade</text>
<polygon fill="none" stroke="#000000" points="513,-455.2 513,-477.2 738,-477.2 738,-455.2 513,-455.2"/>
<text text-anchor="start" x="516" y="-462.9" font-family="Helvetica,sans-Serif" font-size="11.00" fill="#000000">varchar[20]</text>
<polygon fill="none" stroke="#000000" points="288,-433.2 288,-455.2 513,-455.2 513,-433.2 288,-433.2"/>
<text text-anchor="start" x="308" y="-440.3" font-family="Helvetica,sans-Serif" font-size="11.00" fill="#000000">orgao_emissor_identidade</text>
<polygon fill="none" stroke="#000000" points="513,-433.2 513,-455.2 738,-455.2 738,-433.2 513,-433.2"/>
<text text-anchor="start" x="516" y="-440.9" font-family="Helvetica,sans-Serif" font-size="11.00" fill="#000000">varchar[8]</text>
<polygon fill="none" stroke="#000000" points="288,-411.2 288,-433.2 513,-433.2 513,-411.2 288,-411.2"/>
<text text-anchor="start" x="308" y="-418.3" font-family="Helvetica,sans-Serif" font-size="11.00" fill="#000000">data_chegada</text>
<polygon fill="none" stroke="#000000" points="513,-411.2 513,-433.2 738,-433.2 738,-411.2 513,-411.2"/>
<text text-anchor="start" x="516" y="-418.9" font-family="Helvetica,sans-Serif" font-size="11.00" fill="#000000">date[13]</text>
<polygon fill="none" stroke="#000000" points="288,-389.2 288,-411.2 513,-411.2 513,-389.2 288,-389.2"/>
<text text-anchor="start" x="308" y="-396.3" font-family="Helvetica,sans-Serif" font-size="11.00" fill="#000000">ano_chegada</text>
<polygon fill="none" stroke="#000000" points="513,-389.2 513,-411.2 738,-411.2 738,-389.2 513,-389.2"/>
<text text-anchor="start" x="516" y="-396.9" font-family="Helvetica,sans-Serif" font-size="11.00" fill="#000000">varchar[2147483647]</text>
<polygon fill="none" stroke="#000000" points="288,-367.2 288,-389.2 513,-389.2 513,-367.2 288,-367.2"/>
<text text-anchor="start" x="308" y="-374.3" font-family="Helvetica,sans-Serif" font-size="11.00" fill="#000000">tipo_visto</text>
<polygon fill="none" stroke="#000000" points="513,-367.2 513,-389.2 738,-389.2 738,-367.2 513,-367.2"/>
<text text-anchor="start" x="516" y="-374.9" font-family="Helvetica,sans-Serif" font-size="11.00" fill="#000000">&quot;educacao&quot;.&quot;tiposvisto&quot;[2147483647]</text>
<polygon fill="none" stroke="#000000" points="288,-345.2 288,-367.2 513,-367.2 513,-345.2 288,-345.2"/>
<text text-anchor="start" x="308" y="-352.3" font-family="Helvetica,sans-Serif" font-size="11.00" fill="#000000">estrangeiro_carteira_trabalho</text>
<polygon fill="none" stroke="#000000" points="513,-345.2 513,-367.2 738,-367.2 738,-345.2 513,-345.2"/>
<text text-anchor="start" x="516" y="-352.9" font-family="Helvetica,sans-Serif" font-size="11.00" fill="#000000">varchar[2147483647]</text>
<polygon fill="none" stroke="#000000" points="288,-323.2 288,-345.2 513,-345.2 513,-323.2 288,-323.2"/>
<text text-anchor="start" x="308" y="-330.3" font-family="Helvetica,sans-Serif" font-size="11.00" fill="#000000">estrangeiro_serie_carteira_trabalho</text>
<polygon fill="none" stroke="#000000" points="513,-323.2 513,-345.2 738,-345.2 738,-323.2 513,-323.2"/>
<text text-anchor="start" x="516" y="-330.9" font-family="Helvetica,sans-Serif" font-size="11.00" fill="#000000">varchar[2147483647]</text>
<polygon fill="none" stroke="#000000" points="288,-301.2 288,-323.2 513,-323.2 513,-301.2 288,-301.2"/>
<text text-anchor="start" x="308" y="-308.3" font-family="Helvetica,sans-Serif" font-size="11.00" fill="#000000">data_expedicao_carteira_trabalho</text>
<polygon fill="none" stroke="#000000" points="513,-301.2 513,-323.2 738,-323.2 738,-301.2 513,-301.2"/>
<text text-anchor="start" x="516" y="-308.9" font-family="Helvetica,sans-Serif" font-size="11.00" fill="#000000">date[13]</text>
<polygon fill="none" stroke="#000000" points="288,-279.2 288,-301.2 513,-301.2 513,-279.2 288,-279.2"/>
<text text-anchor="start" x="308" y="-286.3" font-family="Helvetica,sans-Serif" font-size="11.00" fill="#000000">data_expedicao_identidade</text>
<polygon fill="none" stroke="#000000" points="513,-279.2 513,-301.2 738,-301.2 738,-279.2 513,-279.2"/>
<text text-anchor="start" x="516" y="-286.9" font-family="Helvetica,sans-Serif" font-size="11.00" fill="#000000">date[13]</text>
<polygon fill="none" stroke="#000000" points="288,-257.2 288,-279.2 513,-279.2 513,-257.2 288,-257.2"/>
<text text-anchor="start" x="308" y="-264.3" font-family="Helvetica,sans-Serif" font-size="11.00" fill="#000000">data_validade_identidade</text>
<polygon fill="none" stroke="#000000" points="513,-257.2 513,-279.2 738,-279.2 738,-257.2 513,-257.2"/>
<text text-anchor="start" x="516" y="-264.9" font-family="Helvetica,sans-Serif" font-size="11.00" fill="#000000">date[13]</text>
<polygon fill="none" stroke="#000000" points="288,-235.2 288,-257.2 513,-257.2 513,-235.2 288,-235.2"/>
<text text-anchor="start" x="308" y="-242.3" font-family="Helvetica,sans-Serif" font-size="11.00" fill="#000000">data_validade_carteira_trabalho</text>
<polygon fill="none" stroke="#000000" points="513,-235.2 513,-257.2 738,-257.2 738,-235.2 513,-235.2"/>
<text text-anchor="start" x="516" y="-242.9" font-family="Helvetica,sans-Serif" font-size="11.00" fill="#000000">date[13]</text>
<polygon fill="none" stroke="#000000" points="288,-213.2 288,-235.2 513,-235.2 513,-213.2 288,-213.2"/>
<text text-anchor="start" x="308" y="-220.3" font-family="Helvetica,sans-Serif" font-size="11.00" fill="#000000">data_validade_visto</text>
<polygon fill="none" stroke="#000000" points="513,-213.2 513,-235.2 738,-235.2 738,-213.2 513,-213.2"/>
<text text-anchor="start" x="516" y="-220.9" font-family="Helvetica,sans-Serif" font-size="11.00" fill="#000000">date[13]</text>
<polygon fill="none" stroke="#000000" points="288,-191.2 288,-213.2 513,-213.2 513,-191.2 288,-191.2"/>
<text text-anchor="start" x="308" y="-198.3" font-family="Helvetica,sans-Serif" font-size="11.00" fill="#000000">zona_eleitoral</text>
<polygon fill="none" stroke="#000000" points="513,-191.2 513,-213.2 738,-213.2 738,-191.2 513,-191.2"/>
<text text-anchor="start" x="516" y="-198.9" font-family="Helvetica,sans-Serif" font-size="11.00" fill="#000000">varchar[3]</text>
<polygon fill="none" stroke="#000000" points="288,-169.2 288,-191.2 513,-191.2 513,-169.2 288,-169.2"/>
<text text-anchor="start" x="308" y="-176.3" font-family="Helvetica,sans-Serif" font-size="11.00" fill="#000000">secao_eleitoral</text>
<polygon fill="none" stroke="#000000" points="513,-169.2 513,-191.2 738,-191.2 738,-169.2 513,-169.2"/>
<text text-anchor="start" x="516" y="-176.9" font-family="Helvetica,sans-Serif" font-size="11.00" fill="#000000">varchar[4]</text>
<polygon fill="none" stroke="#000000" points="288,-147.2 288,-169.2 513,-169.2 513,-147.2 288,-147.2"/>
<text text-anchor="start" x="308" y="-154.3" font-family="Helvetica,sans-Serif" font-size="11.00" fill="#000000">titulo_eleitor</text>
<polygon fill="none" stroke="#000000" points="513,-147.2 513,-169.2 738,-169.2 738,-147.2 513,-147.2"/>
<text text-anchor="start" x="516" y="-154.9" font-family="Helvetica,sans-Serif" font-size="11.00" fill="#000000">varchar[16]</text>
<polygon fill="none" stroke="#000000" points="288,-125.2 288,-147.2 513,-147.2 513,-125.2 288,-125.2"/>
<text text-anchor="start" x="308" y="-132.3" font-family="Helvetica,sans-Serif" font-size="11.00" fill="#000000">raca</text>
<polygon fill="none" stroke="#000000" points="513,-125.2 513,-147.2 738,-147.2 738,-125.2 513,-125.2"/>
<text text-anchor="start" x="516" y="-132.9" font-family="Helvetica,sans-Serif" font-size="11.00" fill="#000000">&quot;educacao&quot;.&quot;racas&quot;[2147483647]</text>
<polygon fill="none" stroke="#000000" points="288,-103.2 288,-125.2 513,-125.2 513,-103.2 288,-103.2"/>
<text text-anchor="start" x="308" y="-110.3" font-family="Helvetica,sans-Serif" font-size="11.00" fill="#000000">data_obito</text>
<polygon fill="none" stroke="#000000" points="513,-103.2 513,-125.2 738,-125.2 738,-103.2 513,-103.2"/>
<text text-anchor="start" x="516" y="-110.9" font-family="Helvetica,sans-Serif" font-size="11.00" fill="#000000">date[13]</text>
<polygon fill="none" stroke="#000000" points="288,-81.2 288,-103.2 513,-103.2 513,-81.2 288,-81.2"/>
<text text-anchor="start" x="308" y="-88.3" font-family="Helvetica,sans-Serif" font-size="11.00" fill="#000000">certidao</text>
<polygon fill="none" stroke="#000000" points="513,-81.2 513,-103.2 738,-103.2 738,-81.2 513,-81.2"/>
<text text-anchor="start" x="516" y="-88.9" font-family="Helvetica,sans-Serif" font-size="11.00" fill="#000000">varchar[32]</text>
<polygon fill="none" stroke="#000000" points="288,-59.2 288,-81.2 513,-81.2 513,-59.2 288,-59.2"/>
<text text-anchor="start" x="308" y="-66.3" font-family="Helvetica,sans-Serif" font-size="11.00" fill="#000000">causa_mortis</text>
<polygon fill="none" stroke="#000000" points="513,-59.2 513,-81.2 738,-81.2 738,-59.2 513,-59.2"/>
<text text-anchor="start" x="516" y="-66.9" font-family="Helvetica,sans-Serif" font-size="11.00" fill="#000000">varchar[255]</text>
<polygon fill="#ffffff" stroke="transparent" points="288,-40.2 288,-59.2 408,-59.2 408,-40.2 288,-40.2"/>
<polygon fill="none" stroke="#000000" points="288,-40.2 288,-59.2 408,-59.2 408,-40.2 288,-40.2"/>
<text text-anchor="start" x="291" y="-46.3" font-family="Helvetica,sans-Serif" font-size="11.00" fill="#000000">&lt; 12</text>
<polygon fill="#ffffff" stroke="transparent" points="408,-40.2 408,-59.2 513,-59.2 513,-40.2 408,-40.2"/>
<polygon fill="none" stroke="#000000" points="408,-40.2 408,-59.2 513,-59.2 513,-40.2 408,-40.2"/>
<text text-anchor="start" x="503.8862" y="-46.3" font-family="Helvetica,sans-Serif" font-size="11.00" fill="#000000"> &#160;</text>
<polygon fill="#ffffff" stroke="transparent" points="513,-40.2 513,-59.2 738,-59.2 738,-40.2 513,-40.2"/>
<polygon fill="none" stroke="#000000" points="513,-40.2 513,-59.2 738,-59.2 738,-40.2 513,-40.2"/>
<text text-anchor="start" x="719.4053" y="-46.3" font-family="Helvetica,sans-Serif" font-size="11.00" fill="#000000">0 &gt;</text>
<polygon fill="none" stroke="#000000" stroke-width="2" points="287,-39.2 287,-1579.2 739,-1579.2 739,-39.2 287,-39.2"/>
</a>
</g>
</g>
<!-- inscricao_lista_espera_situacoes -->
<g id="node2" class="node">
<title>inscricao_lista_espera_situacoes</title>
<g id="a_node2"><a xlink:href="../../tables/inscricao_lista_espera_situacoes.html" xlink:title="inscricao_lista_espera_situacoes" target="_top">
<polygon fill="#ffffff" stroke="transparent" points="8,-934.7 8,-1017.7 237,-1017.7 237,-934.7 8,-934.7"/>
<polygon fill="#f5f5f5" stroke="transparent" points="8.5,-994.2 8.5,-1017.2 237.5,-1017.2 237.5,-994.2 8.5,-994.2"/>
<polygon fill="none" stroke="#000000" points="8.5,-994.2 8.5,-1017.2 237.5,-1017.2 237.5,-994.2 8.5,-994.2"/>
<text text-anchor="start" x="13.5" y="-1002.8" font-family="Helvetica,sans-Serif" font-weight="bold" font-size="11.00" fill="#000000">inscricao_lista_espera_situacoes</text>
<text text-anchor="start" x="203.0219" y="-1002.3" font-family="Helvetica,sans-Serif" font-size="11.00" fill="#000000">[table]</text>
<polygon fill="none" stroke="#000000" points="8.5,-972.2 8.5,-994.2 237.5,-994.2 237.5,-972.2 8.5,-972.2"/>
<image xlink:href="../../images/primaryKeys.png" width="11px" height="12px" preserveAspectRatio="xMinYMin meet" x="13.5" y="-989.2"/>
<text text-anchor="start" x="37.5" y="-979.3" font-family="Helvetica,sans-Serif" font-size="11.00" fill="#000000">id</text>
<polygon fill="none" stroke="#000000" points="8.5,-953.2 8.5,-972.2 237.5,-972.2 237.5,-953.2 8.5,-953.2"/>
<text text-anchor="start" x="11.5" y="-959.3" font-family="Helvetica,sans-Serif" font-size="11.00" fill="#000000">...</text>
<polygon fill="#ffffff" stroke="transparent" points="8.5,-934.2 8.5,-953.2 106.5,-953.2 106.5,-934.2 8.5,-934.2"/>
<polygon fill="none" stroke="#000000" points="8.5,-934.2 8.5,-953.2 106.5,-953.2 106.5,-934.2 8.5,-934.2"/>
<text text-anchor="start" x="11.5" y="-940.3" font-family="Helvetica,sans-Serif" font-size="11.00" fill="#000000"> &#160;</text>
<polygon fill="#ffffff" stroke="transparent" points="106.5,-934.2 106.5,-953.2 161.5,-953.2 161.5,-934.2 106.5,-934.2"/>
<polygon fill="none" stroke="#000000" points="106.5,-934.2 106.5,-953.2 161.5,-953.2 161.5,-934.2 106.5,-934.2"/>
<text text-anchor="start" x="152.3862" y="-940.3" font-family="Helvetica,sans-Serif" font-size="11.00" fill="#000000"> &#160;</text>
<polygon fill="#ffffff" stroke="transparent" points="161.5,-934.2 161.5,-953.2 237.5,-953.2 237.5,-934.2 161.5,-934.2"/>
<polygon fill="none" stroke="#000000" points="161.5,-934.2 161.5,-953.2 237.5,-953.2 237.5,-934.2 161.5,-934.2"/>
<text text-anchor="start" x="206.6755" y="-940.3" font-family="Helvetica,sans-Serif" font-size="11.00" fill="#000000">596 &gt;</text>
</a>
</g>
</g>
<!-- funcionarios&#45;&gt;inscricao_lista_espera_situacoes -->
<g id="edge1" class="edge">
<title>funcionarios:w&#45;&gt;inscricao_lista_espera_situacoes:e</title>
<path fill="none" stroke="#000000" stroke-dasharray="5,2" d="M274.0064,-1078.1965C248.8685,-1059.6751 280.9126,-983.2 237.5,-983.2"/>
<polygon fill="#000000" stroke="#000000" points="280.3086,-1079.9995 287.0098,-1085.6611 284.1543,-1081.0997 288,-1082.2 288,-1082.2 288,-1082.2 284.1543,-1081.0997 288.9902,-1078.7389 280.3086,-1079.9995 280.3086,-1079.9995"/>
<ellipse fill="none" stroke="#000000" cx="277.232" cy="-1079.1193" rx="3.2" ry="3.2"/>
</g>
<!-- funcionarios&#45;&gt;inscricao_lista_espera_situacoes -->
<g id="edge2" class="edge">
<title>funcionarios:w&#45;&gt;inscricao_lista_espera_situacoes:e</title>
<path fill="none" stroke="#000000" stroke-dasharray="5,2" d="M273.8314,-1100.7092C241.8599,-1080.87 289.8551,-983.2 237.5,-983.2"/>
<polygon fill="#000000" stroke="#000000" points="280.2323,-1102.2862 287.1388,-1107.6955 284.1161,-1103.2431 288,-1104.2 288,-1104.2 288,-1104.2 284.1161,-1103.2431 288.8612,-1100.7045 280.2323,-1102.2862 280.2323,-1102.2862"/>
<ellipse fill="none" stroke="#000000" cx="277.1252" cy="-1101.5207" rx="3.2" ry="3.2"/>
</g>
<!-- funcionarios&#45;&gt;inscricao_lista_espera_situacoes -->
<g id="edge3" class="edge">
<title>funcionarios:w&#45;&gt;inscricao_lista_espera_situacoes:e</title>
<path fill="none" stroke="#000000" stroke-dasharray="5,2" d="M274.2934,-1033.5107C258.9342,-1020.2102 264.7226,-983.2 237.5,-983.2"/>
<polygon fill="#000000" stroke="#000000" points="280.4307,-1035.6104 286.8347,-1041.6062 284.2154,-1036.9052 288,-1038.2 288,-1038.2 288,-1038.2 284.2154,-1036.9052 289.1653,-1034.7938 280.4307,-1035.6104 280.4307,-1035.6104"/>
<ellipse fill="none" stroke="#000000" cx="277.403" cy="-1034.5745" rx="3.2" ry="3.2"/>
</g>
<!-- funcionarios&#45;&gt;inscricao_lista_espera_situacoes -->
<g id="edge4" class="edge">
<title>funcionarios:w&#45;&gt;inscricao_lista_espera_situacoes:e</title>
<path fill="none" stroke="#000000" stroke-dasharray="5,2" d="M274.0801,-1055.6139C254.7892,-1039.0372 272.3508,-983.2 237.5,-983.2"/>
<polygon fill="#000000" stroke="#000000" points="280.4018,-1057.6966 286.8735,-1063.6192 284.2009,-1058.9483 288,-1060.2 288,-1060.2 288,-1060.2 284.2009,-1058.9483 289.1265,-1056.7808 280.4018,-1057.6966 280.4018,-1057.6966"/>
<ellipse fill="none" stroke="#000000" cx="277.3625" cy="-1056.6953" rx="3.2" ry="3.2"/>
</g>
<!-- funcionarios&#45;&gt;inscricao_lista_espera_situacoes -->
<g id="edge5" class="edge">
<title>funcionarios:w&#45;&gt;inscricao_lista_espera_situacoes:e</title>
<path fill="none" stroke="#000000" stroke-dasharray="5,2" d="M273.5396,-776.2685C208.1065,-797.9746 327.4627,-983.2 237.5,-983.2"/>
<polygon fill="#000000" stroke="#000000" points="280.0806,-775.3329 288.5098,-777.7637 284.0403,-774.7665 288,-774.2 288,-774.2 288,-774.2 284.0403,-774.7665 287.4902,-770.6363 280.0806,-775.3329 280.0806,-775.3329"/>
<ellipse fill="none" stroke="#000000" cx="276.9129" cy="-775.7861" rx="3.2" ry="3.2"/>
</g>
<!-- funcionarios&#45;&gt;inscricao_lista_espera_situacoes -->
<g id="edge6" class="edge">
<title>funcionarios:w&#45;&gt;inscricao_lista_espera_situacoes:e</title>
<path fill="none" stroke="#000000" stroke-dasharray="5,2" d="M273.4765,-798.5644C217.1556,-820.2113 317.8716,-983.2 237.5,-983.2"/>
<polygon fill="#000000" stroke="#000000" points="280.1039,-797.4855 288.5785,-799.7532 284.052,-796.8427 288,-796.2 288,-796.2 288,-796.2 284.052,-796.8427 287.4215,-792.6468 280.1039,-797.4855 280.1039,-797.4855"/>
<ellipse fill="none" stroke="#000000" cx="276.9455" cy="-797.9997" rx="3.2" ry="3.2"/>
</g>
<!-- funcionarios&#45;&gt;inscricao_lista_espera_situacoes -->
<g id="edge7" class="edge">
<title>funcionarios:w&#45;&gt;inscricao_lista_espera_situacoes:e</title>
<path fill="none" stroke="#000000" stroke-dasharray="5,2" d="M274.0755,-954.2464C261.1224,-963.0584 258.4466,-983.2 237.5,-983.2"/>
<polygon fill="#000000" stroke="#000000" points="280.3178,-952.4325 289.0046,-953.657 284.1589,-951.3162 288,-950.2 288,-950.2 288,-950.2 284.1589,-951.3162 286.9954,-946.743 280.3178,-952.4325 280.3178,-952.4325"/>
<ellipse fill="none" stroke="#000000" cx="277.2449" cy="-953.3255" rx="3.2" ry="3.2"/>
</g>
<!-- funcionarios&#45;&gt;inscricao_lista_espera_situacoes -->
<g id="edge8" class="edge">
<title>funcionarios:w&#45;&gt;inscricao_lista_espera_situacoes:e</title>
<path fill="none" stroke="#000000" stroke-dasharray="5,2" d="M273.6489,-973.9188C261.5992,-977.0125 254.728,-983.2 237.5,-983.2"/>
<polygon fill="#000000" stroke="#000000" points="280.0568,-973.1514 288.4281,-975.7745 284.0284,-972.6757 288,-972.2 288,-972.2 288,-972.2 284.0284,-972.6757 287.5719,-968.6255 280.0568,-973.1514 280.0568,-973.1514"/>
<ellipse fill="none" stroke="#000000" cx="276.8795" cy="-973.5319" rx="3.2" ry="3.2"/>
</g>
<!-- funcionarios&#45;&gt;inscricao_lista_espera_situacoes -->
<g id="edge9" class="edge">
<title>funcionarios:w&#45;&gt;inscricao_lista_espera_situacoes:e</title>
<path fill="none" stroke="#000000" stroke-dasharray="5,2" d="M273.6489,-992.4813C261.5992,-989.3875 254.728,-983.2 237.5,-983.2"/>
<polygon fill="#000000" stroke="#000000" points="280.0568,-993.2486 287.5719,-997.7745 284.0284,-993.7243 288,-994.2 288,-994.2 288,-994.2 284.0284,-993.7243 288.4281,-990.6255 280.0568,-993.2486 280.0568,-993.2486"/>
<ellipse fill="none" stroke="#000000" cx="276.8795" cy="-992.8681" rx="3.2" ry="3.2"/>
</g>
<!-- funcionarios&#45;&gt;inscricao_lista_espera_situacoes -->
<g id="edge10" class="edge">
<title>funcionarios:w&#45;&gt;inscricao_lista_espera_situacoes:e</title>
<path fill="none" stroke="#000000" stroke-dasharray="5,2" d="M274.0755,-1012.1536C261.1224,-1003.3416 258.4466,-983.2 237.5,-983.2"/>
<polygon fill="#000000" stroke="#000000" points="280.3178,-1013.9675 286.9954,-1019.657 284.1589,-1015.0838 288,-1016.2 288,-1016.2 288,-1016.2 284.1589,-1015.0838 289.0046,-1012.743 280.3178,-1013.9675 280.3178,-1013.9675"/>
<ellipse fill="none" stroke="#000000" cx="277.2449" cy="-1013.0745" rx="3.2" ry="3.2"/>
</g>
<!-- funcionarios&#45;&gt;inscricao_lista_espera_situacoes -->
<g id="edge11" class="edge">
<title>funcionarios:w&#45;&gt;inscricao_lista_espera_situacoes:e</title>
<path fill="none" stroke="#000000" stroke-dasharray="5,2" d="M274.0801,-910.7861C254.7892,-927.3628 272.3508,-983.2 237.5,-983.2"/>
<polygon fill="#000000" stroke="#000000" points="280.4018,-908.7034 289.1265,-909.6192 284.2009,-907.4517 288,-906.2 288,-906.2 288,-906.2 284.2009,-907.4517 286.8735,-902.7808 280.4018,-908.7034 280.4018,-908.7034"/>
<ellipse fill="none" stroke="#000000" cx="277.3625" cy="-909.7047" rx="3.2" ry="3.2"/>
</g>
<!-- funcionarios&#45;&gt;inscricao_lista_espera_situacoes -->
<g id="edge12" class="edge">
<title>funcionarios:w&#45;&gt;inscricao_lista_espera_situacoes:e</title>
<path fill="none" stroke="#000000" stroke-dasharray="5,2" d="M274.2934,-932.8893C258.9342,-946.1898 264.7226,-983.2 237.5,-983.2"/>
<polygon fill="#000000" stroke="#000000" points="280.4307,-930.7896 289.1653,-931.6062 284.2154,-929.4948 288,-928.2 288,-928.2 288,-928.2 284.2154,-929.4948 286.8347,-924.7938 280.4307,-930.7896 280.4307,-930.7896"/>
<ellipse fill="none" stroke="#000000" cx="277.403" cy="-931.8255" rx="3.2" ry="3.2"/>
</g>
</g>
</svg>
