<?xml version="1.0" encoding="UTF-8" standalone="no"?>
<!DOCTYPE svg PUBLIC "-//W3C//DTD SVG 1.1//EN"
 "http://www.w3.org/Graphics/SVG/1.1/DTD/svg11.dtd">
<!-- Generated by graphviz version 2.40.1 (20161225.0304)
 -->
<!-- Title: oneDegreeRelationshipsDiagram Pages: 1 -->
<svg width="478pt" height="1592pt"
 viewBox="0.00 0.00 478.00 1592.20" xmlns="http://www.w3.org/2000/svg" xmlns:xlink="http://www.w3.org/1999/xlink">
<g id="graph0" class="graph" transform="scale(1 1) rotate(0) translate(4 1588.2)">
<title>oneDegreeRelationshipsDiagram</title>
<polygon fill="#ffffff" stroke="transparent" points="-4,4 -4,-1588.2 474,-1588.2 474,4 -4,4"/>
<text text-anchor="middle" x="72.4936" y="-7.3" font-family="Helvetica,sans-Serif" font-size="11.00" fill="#000000">Generated by SchemaSpy</text>
<!-- funcionarios -->
<g id="node1" class="node">
<title>funcionarios</title>
<g id="a_node1"><a xlink:href="../../tables/funcionarios.html" xlink:title="funcionarios" target="_top">
<polygon fill="#ffffff" stroke="transparent" points="8,-38.2 8,-1580.2 462,-1580.2 462,-38.2 8,-38.2"/>
<polygon fill="#f5f5f5" stroke="transparent" points="10,-1555.2 10,-1578.2 460,-1578.2 460,-1555.2 10,-1555.2"/>
<polygon fill="none" stroke="#000000" points="10,-1555.2 10,-1578.2 460,-1578.2 460,-1555.2 10,-1555.2"/>
<text text-anchor="start" x="15" y="-1563.8" font-family="Helvetica,sans-Serif" font-weight="bold" font-size="11.00" fill="#000000">funcionarios</text>
<text text-anchor="start" x="425.0437" y="-1563.3" font-family="Helvetica,sans-Serif" font-size="11.00" fill="#000000">[table]</text>
<polygon fill="none" stroke="#000000" points="10,-1533.2 10,-1555.2 235,-1555.2 235,-1533.2 10,-1533.2"/>
<text text-anchor="start" x="30" y="-1540.3" font-family="Helvetica,sans-Serif" font-size="11.00" fill="#000000">sistema</text>
<polygon fill="none" stroke="#000000" points="235,-1533.2 235,-1555.2 460,-1555.2 460,-1533.2 235,-1533.2"/>
<text text-anchor="start" x="238" y="-1540.9" font-family="Helvetica,sans-Serif" font-size="11.00" fill="#000000">int4[10]</text>
<polygon fill="none" stroke="#000000" points="10,-1511.2 10,-1533.2 235,-1533.2 235,-1511.2 10,-1511.2"/>
<text text-anchor="start" x="30" y="-1518.3" font-family="Helvetica,sans-Serif" font-size="11.00" fill="#000000">tipo_registro</text>
<polygon fill="none" stroke="#000000" points="235,-1511.2 235,-1533.2 460,-1533.2 460,-1511.2 235,-1511.2"/>
<text text-anchor="start" x="238" y="-1518.9" font-family="Helvetica,sans-Serif" font-size="11.00" fill="#000000">text[2147483647]</text>
<polygon fill="none" stroke="#000000" points="10,-1489.2 10,-1511.2 235,-1511.2 235,-1489.2 10,-1489.2"/>
<text text-anchor="start" x="30" y="-1496.3" font-family="Helvetica,sans-Serif" font-size="11.00" fill="#000000">id_integracao</text>
<polygon fill="none" stroke="#000000" points="235,-1489.2 235,-1511.2 460,-1511.2 460,-1489.2 235,-1489.2"/>
<text text-anchor="start" x="238" y="-1496.9" font-family="Helvetica,sans-Serif" font-size="11.00" fill="#000000">varchar[2147483647]</text>
<polygon fill="none" stroke="#000000" points="10,-1467.2 10,-1489.2 235,-1489.2 235,-1467.2 10,-1467.2"/>
<text text-anchor="start" x="30" y="-1474.3" font-family="Helvetica,sans-Serif" font-size="11.00" fill="#000000">id_origem</text>
<polygon fill="none" stroke="#000000" points="235,-1467.2 235,-1489.2 460,-1489.2 460,-1467.2 235,-1467.2"/>
<text text-anchor="start" x="238" y="-1474.9" font-family="Helvetica,sans-Serif" font-size="11.00" fill="#000000">int4[10]</text>
<polygon fill="none" stroke="#000000" points="10,-1445.2 10,-1467.2 235,-1467.2 235,-1445.2 10,-1445.2"/>
<text text-anchor="start" x="30" y="-1452.3" font-family="Helvetica,sans-Serif" font-size="11.00" fill="#000000">id_cloud</text>
<polygon fill="none" stroke="#000000" points="235,-1445.2 235,-1467.2 460,-1467.2 460,-1445.2 235,-1445.2"/>
<text text-anchor="start" x="238" y="-1452.9" font-family="Helvetica,sans-Serif" font-size="11.00" fill="#000000">int4[10]</text>
<polygon fill="none" stroke="#000000" points="10,-1423.2 10,-1445.2 235,-1445.2 235,-1423.2 10,-1423.2"/>
<text text-anchor="start" x="30" y="-1430.3" font-family="Helvetica,sans-Serif" font-size="11.00" fill="#000000">chave_acesso</text>
<polygon fill="none" stroke="#000000" points="235,-1423.2 235,-1445.2 460,-1445.2 460,-1423.2 235,-1423.2"/>
<text text-anchor="start" x="238" y="-1430.9" font-family="Helvetica,sans-Serif" font-size="11.00" fill="#000000">varchar[2147483647]</text>
<polygon fill="none" stroke="#000000" points="10,-1401.2 10,-1423.2 235,-1423.2 235,-1401.2 10,-1401.2"/>
<text text-anchor="start" x="30" y="-1408.3" font-family="Helvetica,sans-Serif" font-size="11.00" fill="#000000">usuario</text>
<polygon fill="none" stroke="#000000" points="235,-1401.2 235,-1423.2 460,-1423.2 460,-1401.2 235,-1401.2"/>
<text text-anchor="start" x="238" y="-1408.9" font-family="Helvetica,sans-Serif" font-size="11.00" fill="#000000">varchar[2147483647]</text>
<polygon fill="none" stroke="#000000" points="10,-1379.2 10,-1401.2 235,-1401.2 235,-1379.2 10,-1379.2"/>
<text text-anchor="start" x="30" y="-1386.3" font-family="Helvetica,sans-Serif" font-size="11.00" fill="#000000">modelo_certidao</text>
<polygon fill="none" stroke="#000000" points="235,-1379.2 235,-1401.2 460,-1401.2 460,-1379.2 235,-1379.2"/>
<text text-anchor="start" x="237.5968" y="-1386.9" font-family="Helvetica,sans-Serif" font-size="11.00" fill="#000000">&quot;educacao&quot;.&quot;modeloscertidoes&quot;[2147483647]</text>
<polygon fill="none" stroke="#000000" points="10,-1357.2 10,-1379.2 235,-1379.2 235,-1357.2 10,-1357.2"/>
<text text-anchor="start" x="30" y="-1364.3" font-family="Helvetica,sans-Serif" font-size="11.00" fill="#000000">numero_certidao</text>
<polygon fill="none" stroke="#000000" points="235,-1357.2 235,-1379.2 460,-1379.2 460,-1357.2 235,-1357.2"/>
<text text-anchor="start" x="238" y="-1364.9" font-family="Helvetica,sans-Serif" font-size="11.00" fill="#000000">varchar[2147483647]</text>
<polygon fill="none" stroke="#000000" points="10,-1335.2 10,-1357.2 235,-1357.2 235,-1335.2 10,-1335.2"/>
<text text-anchor="start" x="30" y="-1342.3" font-family="Helvetica,sans-Serif" font-size="11.00" fill="#000000">numero_termo</text>
<polygon fill="none" stroke="#000000" points="235,-1335.2 235,-1357.2 460,-1357.2 460,-1335.2 235,-1335.2"/>
<text text-anchor="start" x="238" y="-1342.9" font-family="Helvetica,sans-Serif" font-size="11.00" fill="#000000">varchar[2147483647]</text>
<polygon fill="none" stroke="#000000" points="10,-1313.2 10,-1335.2 235,-1335.2 235,-1313.2 10,-1313.2"/>
<text text-anchor="start" x="30" y="-1320.3" font-family="Helvetica,sans-Serif" font-size="11.00" fill="#000000">folha_certidao</text>
<polygon fill="none" stroke="#000000" points="235,-1313.2 235,-1335.2 460,-1335.2 460,-1313.2 235,-1313.2"/>
<text text-anchor="start" x="238" y="-1320.9" font-family="Helvetica,sans-Serif" font-size="11.00" fill="#000000">varchar[2147483647]</text>
<polygon fill="none" stroke="#000000" points="10,-1291.2 10,-1313.2 235,-1313.2 235,-1291.2 10,-1291.2"/>
<text text-anchor="start" x="30" y="-1298.3" font-family="Helvetica,sans-Serif" font-size="11.00" fill="#000000">livro_certidao</text>
<polygon fill="none" stroke="#000000" points="235,-1291.2 235,-1313.2 460,-1313.2 460,-1291.2 235,-1291.2"/>
<text text-anchor="start" x="238" y="-1298.9" font-family="Helvetica,sans-Serif" font-size="11.00" fill="#000000">varchar[2147483647]</text>
<polygon fill="none" stroke="#000000" points="10,-1269.2 10,-1291.2 235,-1291.2 235,-1269.2 10,-1269.2"/>
<text text-anchor="start" x="30" y="-1276.3" font-family="Helvetica,sans-Serif" font-size="11.00" fill="#000000">emissao_certidao</text>
<polygon fill="none" stroke="#000000" points="235,-1269.2 235,-1291.2 460,-1291.2 460,-1269.2 235,-1269.2"/>
<text text-anchor="start" x="238" y="-1276.9" font-family="Helvetica,sans-Serif" font-size="11.00" fill="#000000">date[13]</text>
<polygon fill="none" stroke="#000000" points="10,-1247.2 10,-1269.2 235,-1269.2 235,-1247.2 10,-1247.2"/>
<text text-anchor="start" x="30" y="-1254.3" font-family="Helvetica,sans-Serif" font-size="11.00" fill="#000000">identificacao_inep</text>
<polygon fill="none" stroke="#000000" points="235,-1247.2 235,-1269.2 460,-1269.2 460,-1247.2 235,-1247.2"/>
<text text-anchor="start" x="238" y="-1254.9" font-family="Helvetica,sans-Serif" font-size="11.00" fill="#000000">varchar[2147483647]</text>
<polygon fill="none" stroke="#000000" points="10,-1225.2 10,-1247.2 235,-1247.2 235,-1225.2 10,-1225.2"/>
<text text-anchor="start" x="30" y="-1232.3" font-family="Helvetica,sans-Serif" font-size="11.00" fill="#000000">certidao_civil</text>
<polygon fill="none" stroke="#000000" points="235,-1225.2 235,-1247.2 460,-1247.2 460,-1225.2 235,-1225.2"/>
<text text-anchor="start" x="238" y="-1232.9" font-family="Helvetica,sans-Serif" font-size="11.00" fill="#000000">&quot;educacao&quot;.&quot;certidoescivis&quot;[2147483647]</text>
<polygon fill="none" stroke="#000000" points="10,-1203.2 10,-1225.2 235,-1225.2 235,-1203.2 10,-1203.2"/>
<text text-anchor="start" x="30" y="-1210.3" font-family="Helvetica,sans-Serif" font-size="11.00" fill="#000000">conjuge</text>
<polygon fill="none" stroke="#000000" points="235,-1203.2 235,-1225.2 460,-1225.2 460,-1203.2 235,-1203.2"/>
<text text-anchor="start" x="238" y="-1210.9" font-family="Helvetica,sans-Serif" font-size="11.00" fill="#000000">varchar[2147483647]</text>
<polygon fill="none" stroke="#000000" points="10,-1181.2 10,-1203.2 235,-1203.2 235,-1181.2 10,-1181.2"/>
<text text-anchor="start" x="30" y="-1188.3" font-family="Helvetica,sans-Serif" font-size="11.00" fill="#000000">nome_pai</text>
<polygon fill="none" stroke="#000000" points="235,-1181.2 235,-1203.2 460,-1203.2 460,-1181.2 235,-1181.2"/>
<text text-anchor="start" x="238" y="-1188.9" font-family="Helvetica,sans-Serif" font-size="11.00" fill="#000000">varchar[2147483647]</text>
<polygon fill="none" stroke="#000000" points="10,-1159.2 10,-1181.2 235,-1181.2 235,-1159.2 10,-1159.2"/>
<text text-anchor="start" x="30" y="-1166.3" font-family="Helvetica,sans-Serif" font-size="11.00" fill="#000000">naturalizado</text>
<polygon fill="none" stroke="#000000" points="235,-1159.2 235,-1181.2 460,-1181.2 460,-1159.2 235,-1159.2"/>
<text text-anchor="start" x="238" y="-1166.9" font-family="Helvetica,sans-Serif" font-size="11.00" fill="#000000">bool[1]</text>
<polygon fill="none" stroke="#000000" points="10,-1137.2 10,-1159.2 235,-1159.2 235,-1137.2 10,-1137.2"/>
<text text-anchor="start" x="30" y="-1144.3" font-family="Helvetica,sans-Serif" font-size="11.00" fill="#000000">nome_mae</text>
<polygon fill="none" stroke="#000000" points="235,-1137.2 235,-1159.2 460,-1159.2 460,-1137.2 235,-1137.2"/>
<text text-anchor="start" x="238" y="-1144.9" font-family="Helvetica,sans-Serif" font-size="11.00" fill="#000000">varchar[2147483647]</text>
<polygon fill="none" stroke="#000000" points="10,-1115.2 10,-1137.2 235,-1137.2 235,-1115.2 10,-1115.2"/>
<text text-anchor="start" x="30" y="-1122.3" font-family="Helvetica,sans-Serif" font-size="11.00" fill="#000000">parametro_criacao_credencial</text>
<polygon fill="none" stroke="#000000" points="235,-1115.2 235,-1137.2 460,-1137.2 460,-1115.2 235,-1115.2"/>
<text text-anchor="start" x="238" y="-1122.9" font-family="Helvetica,sans-Serif" font-size="11.00" fill="#000000">varchar[2147483647]</text>
<polygon fill="none" stroke="#000000" points="10,-1093.2 10,-1115.2 235,-1115.2 235,-1093.2 10,-1093.2"/>
<image xlink:href="../../images/foreignKeys.png" width="11px" height="12px" preserveAspectRatio="xMinYMin meet" x="15" y="-1110.2"/>
<text text-anchor="start" x="30" y="-1100.3" font-family="Helvetica,sans-Serif" font-size="11.00" fill="#000000">cartorio_certidao_origem_id</text>
<polygon fill="none" stroke="#000000" points="235,-1093.2 235,-1115.2 460,-1115.2 460,-1093.2 235,-1093.2"/>
<text text-anchor="start" x="238" y="-1100.9" font-family="Helvetica,sans-Serif" font-size="11.00" fill="#000000">int4[10]</text>
<polygon fill="none" stroke="#000000" points="10,-1071.2 10,-1093.2 235,-1093.2 235,-1071.2 10,-1071.2"/>
<image xlink:href="../../images/foreignKeys.png" width="11px" height="12px" preserveAspectRatio="xMinYMin meet" x="15" y="-1088.2"/>
<text text-anchor="start" x="30" y="-1078.3" font-family="Helvetica,sans-Serif" font-size="11.00" fill="#000000">cartorio_certidao_cloud_id</text>
<polygon fill="none" stroke="#000000" points="235,-1071.2 235,-1093.2 460,-1093.2 460,-1071.2 235,-1071.2"/>
<text text-anchor="start" x="238" y="-1078.9" font-family="Helvetica,sans-Serif" font-size="11.00" fill="#000000">int4[10]</text>
<polygon fill="none" stroke="#000000" points="10,-1049.2 10,-1071.2 235,-1071.2 235,-1049.2 10,-1049.2"/>
<image xlink:href="../../images/foreignKeys.png" width="11px" height="12px" preserveAspectRatio="xMinYMin meet" x="15" y="-1066.2"/>
<text text-anchor="start" x="30" y="-1056.3" font-family="Helvetica,sans-Serif" font-size="11.00" fill="#000000">municipio_certidao_origem_id</text>
<polygon fill="none" stroke="#000000" points="235,-1049.2 235,-1071.2 460,-1071.2 460,-1049.2 235,-1049.2"/>
<text text-anchor="start" x="238" y="-1056.9" font-family="Helvetica,sans-Serif" font-size="11.00" fill="#000000">int4[10]</text>
<polygon fill="none" stroke="#000000" points="10,-1027.2 10,-1049.2 235,-1049.2 235,-1027.2 10,-1027.2"/>
<image xlink:href="../../images/foreignKeys.png" width="11px" height="12px" preserveAspectRatio="xMinYMin meet" x="15" y="-1044.2"/>
<text text-anchor="start" x="30" y="-1034.3" font-family="Helvetica,sans-Serif" font-size="11.00" fill="#000000">municipio_certidao_cloud_id</text>
<polygon fill="none" stroke="#000000" points="235,-1027.2 235,-1049.2 460,-1049.2 460,-1027.2 235,-1027.2"/>
<text text-anchor="start" x="238" y="-1034.9" font-family="Helvetica,sans-Serif" font-size="11.00" fill="#000000">int4[10]</text>
<polygon fill="none" stroke="#000000" points="10,-1005.2 10,-1027.2 235,-1027.2 235,-1005.2 10,-1005.2"/>
<image xlink:href="../../images/foreignKeys.png" width="11px" height="12px" preserveAspectRatio="xMinYMin meet" x="15" y="-1022.2"/>
<text text-anchor="start" x="30" y="-1012.3" font-family="Helvetica,sans-Serif" font-size="11.00" fill="#000000">pais_origem_origem_id</text>
<polygon fill="none" stroke="#000000" points="235,-1005.2 235,-1027.2 460,-1027.2 460,-1005.2 235,-1005.2"/>
<text text-anchor="start" x="238" y="-1012.9" font-family="Helvetica,sans-Serif" font-size="11.00" fill="#000000">int4[10]</text>
<polygon fill="none" stroke="#000000" points="10,-983.2 10,-1005.2 235,-1005.2 235,-983.2 10,-983.2"/>
<image xlink:href="../../images/foreignKeys.png" width="11px" height="12px" preserveAspectRatio="xMinYMin meet" x="15" y="-1000.2"/>
<text text-anchor="start" x="30" y="-990.3" font-family="Helvetica,sans-Serif" font-size="11.00" fill="#000000">pais_origem_cloud_id</text>
<polygon fill="none" stroke="#000000" points="235,-983.2 235,-1005.2 460,-1005.2 460,-983.2 235,-983.2"/>
<text text-anchor="start" x="238" y="-990.9" font-family="Helvetica,sans-Serif" font-size="11.00" fill="#000000">int4[10]</text>
<polygon fill="none" stroke="#000000" points="10,-961.2 10,-983.2 235,-983.2 235,-961.2 10,-961.2"/>
<image xlink:href="../../images/foreignKeys.png" width="11px" height="12px" preserveAspectRatio="xMinYMin meet" x="15" y="-978.2"/>
<text text-anchor="start" x="30" y="-968.3" font-family="Helvetica,sans-Serif" font-size="11.00" fill="#000000">orgao_emissor_rg_origem_id</text>
<polygon fill="none" stroke="#000000" points="235,-961.2 235,-983.2 460,-983.2 460,-961.2 235,-961.2"/>
<text text-anchor="start" x="238" y="-968.9" font-family="Helvetica,sans-Serif" font-size="11.00" fill="#000000">int4[10]</text>
<polygon fill="none" stroke="#000000" points="10,-939.2 10,-961.2 235,-961.2 235,-939.2 10,-939.2"/>
<image xlink:href="../../images/foreignKeys.png" width="11px" height="12px" preserveAspectRatio="xMinYMin meet" x="15" y="-956.2"/>
<text text-anchor="start" x="30" y="-946.3" font-family="Helvetica,sans-Serif" font-size="11.00" fill="#000000">orgao_emissor_rg_cloud_id</text>
<polygon fill="none" stroke="#000000" points="235,-939.2 235,-961.2 460,-961.2 460,-939.2 235,-939.2"/>
<text text-anchor="start" x="238" y="-946.9" font-family="Helvetica,sans-Serif" font-size="11.00" fill="#000000">int4[10]</text>
<polygon fill="none" stroke="#000000" points="10,-917.2 10,-939.2 235,-939.2 235,-917.2 10,-917.2"/>
<image xlink:href="../../images/foreignKeys.png" width="11px" height="12px" preserveAspectRatio="xMinYMin meet" x="15" y="-934.2"/>
<text text-anchor="start" x="30" y="-924.3" font-family="Helvetica,sans-Serif" font-size="11.00" fill="#000000">pessoa_origem_id</text>
<polygon fill="none" stroke="#000000" points="235,-917.2 235,-939.2 460,-939.2 460,-917.2 235,-917.2"/>
<text text-anchor="start" x="238" y="-924.9" font-family="Helvetica,sans-Serif" font-size="11.00" fill="#000000">int4[10]</text>
<polygon fill="none" stroke="#000000" points="10,-895.2 10,-917.2 235,-917.2 235,-895.2 10,-895.2"/>
<image xlink:href="../../images/foreignKeys.png" width="11px" height="12px" preserveAspectRatio="xMinYMin meet" x="15" y="-912.2"/>
<text text-anchor="start" x="30" y="-902.3" font-family="Helvetica,sans-Serif" font-size="11.00" fill="#000000">pessoa_cloud_id</text>
<polygon fill="none" stroke="#000000" points="235,-895.2 235,-917.2 460,-917.2 460,-895.2 235,-895.2"/>
<text text-anchor="start" x="238" y="-902.9" font-family="Helvetica,sans-Serif" font-size="11.00" fill="#000000">int4[10]</text>
<polygon fill="none" stroke="#000000" points="10,-873.2 10,-895.2 235,-895.2 235,-873.2 10,-873.2"/>
<text text-anchor="start" x="30" y="-880.3" font-family="Helvetica,sans-Serif" font-size="11.00" fill="#000000">nome</text>
<polygon fill="none" stroke="#000000" points="235,-873.2 235,-895.2 460,-895.2 460,-873.2 235,-873.2"/>
<text text-anchor="start" x="238" y="-880.9" font-family="Helvetica,sans-Serif" font-size="11.00" fill="#000000">varchar[155]</text>
<polygon fill="none" stroke="#000000" points="10,-851.2 10,-873.2 235,-873.2 235,-851.2 10,-851.2"/>
<text text-anchor="start" x="30" y="-858.3" font-family="Helvetica,sans-Serif" font-size="11.00" fill="#000000">nome_fantasia</text>
<polygon fill="none" stroke="#000000" points="235,-851.2 235,-873.2 460,-873.2 460,-851.2 235,-851.2"/>
<text text-anchor="start" x="238" y="-858.9" font-family="Helvetica,sans-Serif" font-size="11.00" fill="#000000">varchar[155]</text>
<polygon fill="none" stroke="#000000" points="10,-829.2 10,-851.2 235,-851.2 235,-829.2 10,-829.2"/>
<text text-anchor="start" x="30" y="-836.3" font-family="Helvetica,sans-Serif" font-size="11.00" fill="#000000">cpf</text>
<polygon fill="none" stroke="#000000" points="235,-829.2 235,-851.2 460,-851.2 460,-829.2 235,-829.2"/>
<text text-anchor="start" x="238" y="-836.9" font-family="Helvetica,sans-Serif" font-size="11.00" fill="#000000">varchar[11]</text>
<polygon fill="none" stroke="#000000" points="10,-807.2 10,-829.2 235,-829.2 235,-807.2 10,-807.2"/>
<text text-anchor="start" x="30" y="-814.3" font-family="Helvetica,sans-Serif" font-size="11.00" fill="#000000">sexo</text>
<polygon fill="none" stroke="#000000" points="235,-807.2 235,-829.2 460,-829.2 460,-807.2 235,-807.2"/>
<text text-anchor="start" x="238" y="-814.9" font-family="Helvetica,sans-Serif" font-size="11.00" fill="#000000">&quot;educacao&quot;.&quot;sexos&quot;[2147483647]</text>
<polygon fill="none" stroke="#000000" points="10,-785.2 10,-807.2 235,-807.2 235,-785.2 10,-785.2"/>
<image xlink:href="../../images/foreignKeys.png" width="11px" height="12px" preserveAspectRatio="xMinYMin meet" x="15" y="-802.2"/>
<text text-anchor="start" x="30" y="-792.3" font-family="Helvetica,sans-Serif" font-size="11.00" fill="#000000">municipio_nascimento_origem_id</text>
<polygon fill="none" stroke="#000000" points="235,-785.2 235,-807.2 460,-807.2 460,-785.2 235,-785.2"/>
<text text-anchor="start" x="238" y="-792.9" font-family="Helvetica,sans-Serif" font-size="11.00" fill="#000000">int4[10]</text>
<polygon fill="none" stroke="#000000" points="10,-763.2 10,-785.2 235,-785.2 235,-763.2 10,-763.2"/>
<image xlink:href="../../images/foreignKeys.png" width="11px" height="12px" preserveAspectRatio="xMinYMin meet" x="15" y="-780.2"/>
<text text-anchor="start" x="30" y="-770.3" font-family="Helvetica,sans-Serif" font-size="11.00" fill="#000000">municipio_nascimento_cloud_id</text>
<polygon fill="none" stroke="#000000" points="235,-763.2 235,-785.2 460,-785.2 460,-763.2 235,-763.2"/>
<text text-anchor="start" x="238" y="-770.9" font-family="Helvetica,sans-Serif" font-size="11.00" fill="#000000">int4[10]</text>
<polygon fill="none" stroke="#000000" points="10,-741.2 10,-763.2 235,-763.2 235,-741.2 10,-741.2"/>
<text text-anchor="start" x="30" y="-748.3" font-family="Helvetica,sans-Serif" font-size="11.00" fill="#000000">data_nascimento</text>
<polygon fill="none" stroke="#000000" points="235,-741.2 235,-763.2 460,-763.2 460,-741.2 235,-741.2"/>
<text text-anchor="start" x="238" y="-748.9" font-family="Helvetica,sans-Serif" font-size="11.00" fill="#000000">date[13]</text>
<polygon fill="none" stroke="#000000" points="10,-719.2 10,-741.2 235,-741.2 235,-719.2 10,-719.2"/>
<text text-anchor="start" x="30" y="-726.3" font-family="Helvetica,sans-Serif" font-size="11.00" fill="#000000">grau_instrucao</text>
<polygon fill="none" stroke="#000000" points="235,-719.2 235,-741.2 460,-741.2 460,-719.2 235,-719.2"/>
<text text-anchor="start" x="238" y="-726.9" font-family="Helvetica,sans-Serif" font-size="11.00" fill="#000000">&quot;educacao&quot;.&quot;grausinstrucao&quot;[2147483647]</text>
<polygon fill="none" stroke="#000000" points="10,-697.2 10,-719.2 235,-719.2 235,-697.2 10,-697.2"/>
<text text-anchor="start" x="30" y="-704.3" font-family="Helvetica,sans-Serif" font-size="11.00" fill="#000000">estado_civil</text>
<polygon fill="none" stroke="#000000" points="235,-697.2 235,-719.2 460,-719.2 460,-697.2 235,-697.2"/>
<text text-anchor="start" x="238" y="-704.9" font-family="Helvetica,sans-Serif" font-size="11.00" fill="#000000">&quot;educacao&quot;.&quot;estadoscivis&quot;[2147483647]</text>
<polygon fill="none" stroke="#000000" points="10,-675.2 10,-697.2 235,-697.2 235,-675.2 10,-675.2"/>
<text text-anchor="start" x="30" y="-682.3" font-family="Helvetica,sans-Serif" font-size="11.00" fill="#000000">rg</text>
<polygon fill="none" stroke="#000000" points="235,-675.2 235,-697.2 460,-697.2 460,-675.2 235,-675.2"/>
<text text-anchor="start" x="238" y="-682.9" font-family="Helvetica,sans-Serif" font-size="11.00" fill="#000000">varchar[20]</text>
<polygon fill="none" stroke="#000000" points="10,-653.2 10,-675.2 235,-675.2 235,-653.2 10,-653.2"/>
<text text-anchor="start" x="30" y="-660.3" font-family="Helvetica,sans-Serif" font-size="11.00" fill="#000000">data_emissao_rg</text>
<polygon fill="none" stroke="#000000" points="235,-653.2 235,-675.2 460,-675.2 460,-653.2 235,-653.2"/>
<text text-anchor="start" x="238" y="-660.9" font-family="Helvetica,sans-Serif" font-size="11.00" fill="#000000">date[13]</text>
<polygon fill="none" stroke="#000000" points="10,-631.2 10,-653.2 235,-653.2 235,-631.2 10,-631.2"/>
<text text-anchor="start" x="30" y="-638.3" font-family="Helvetica,sans-Serif" font-size="11.00" fill="#000000">uf_emissao_rg</text>
<polygon fill="none" stroke="#000000" points="235,-631.2 235,-653.2 460,-653.2 460,-631.2 235,-631.2"/>
<text text-anchor="start" x="238" y="-638.9" font-family="Helvetica,sans-Serif" font-size="11.00" fill="#000000">&quot;educacao&quot;.&quot;ufs&quot;[2147483647]</text>
<polygon fill="none" stroke="#000000" points="10,-609.2 10,-631.2 235,-631.2 235,-609.2 10,-609.2"/>
<text text-anchor="start" x="30" y="-616.3" font-family="Helvetica,sans-Serif" font-size="11.00" fill="#000000">pis</text>
<polygon fill="none" stroke="#000000" points="235,-609.2 235,-631.2 460,-631.2 460,-609.2 235,-609.2"/>
<text text-anchor="start" x="238" y="-616.9" font-family="Helvetica,sans-Serif" font-size="11.00" fill="#000000">varchar[11]</text>
<polygon fill="none" stroke="#000000" points="10,-587.2 10,-609.2 235,-609.2 235,-587.2 10,-587.2"/>
<text text-anchor="start" x="30" y="-594.3" font-family="Helvetica,sans-Serif" font-size="11.00" fill="#000000">data_emissao_pis</text>
<polygon fill="none" stroke="#000000" points="235,-587.2 235,-609.2 460,-609.2 460,-587.2 235,-587.2"/>
<text text-anchor="start" x="238" y="-594.9" font-family="Helvetica,sans-Serif" font-size="11.00" fill="#000000">date[13]</text>
<polygon fill="none" stroke="#000000" points="10,-565.2 10,-587.2 235,-587.2 235,-565.2 10,-565.2"/>
<text text-anchor="start" x="30" y="-572.3" font-family="Helvetica,sans-Serif" font-size="11.00" fill="#000000">carteira_trabalho</text>
<polygon fill="none" stroke="#000000" points="235,-565.2 235,-587.2 460,-587.2 460,-565.2 235,-565.2"/>
<text text-anchor="start" x="238" y="-572.9" font-family="Helvetica,sans-Serif" font-size="11.00" fill="#000000">varchar[7]</text>
<polygon fill="none" stroke="#000000" points="10,-543.2 10,-565.2 235,-565.2 235,-543.2 10,-543.2"/>
<text text-anchor="start" x="30" y="-550.3" font-family="Helvetica,sans-Serif" font-size="11.00" fill="#000000">serie_carteira_trabalho</text>
<polygon fill="none" stroke="#000000" points="235,-543.2 235,-565.2 460,-565.2 460,-543.2 235,-543.2"/>
<text text-anchor="start" x="238" y="-550.9" font-family="Helvetica,sans-Serif" font-size="11.00" fill="#000000">varchar[5]</text>
<polygon fill="none" stroke="#000000" points="10,-521.2 10,-543.2 235,-543.2 235,-521.2 10,-521.2"/>
<text text-anchor="start" x="30" y="-528.3" font-family="Helvetica,sans-Serif" font-size="11.00" fill="#000000">data_emissao_carteira</text>
<polygon fill="none" stroke="#000000" points="235,-521.2 235,-543.2 460,-543.2 460,-521.2 235,-521.2"/>
<text text-anchor="start" x="238" y="-528.9" font-family="Helvetica,sans-Serif" font-size="11.00" fill="#000000">date[13]</text>
<polygon fill="none" stroke="#000000" points="10,-499.2 10,-521.2 235,-521.2 235,-499.2 10,-499.2"/>
<text text-anchor="start" x="30" y="-506.3" font-family="Helvetica,sans-Serif" font-size="11.00" fill="#000000">uf_emissao_carteira</text>
<polygon fill="none" stroke="#000000" points="235,-499.2 235,-521.2 460,-521.2 460,-499.2 235,-499.2"/>
<text text-anchor="start" x="238" y="-506.9" font-family="Helvetica,sans-Serif" font-size="11.00" fill="#000000">&quot;educacao&quot;.&quot;ufs&quot;[2147483647]</text>
<polygon fill="none" stroke="#000000" points="10,-477.2 10,-499.2 235,-499.2 235,-477.2 10,-477.2"/>
<text text-anchor="start" x="30" y="-484.3" font-family="Helvetica,sans-Serif" font-size="11.00" fill="#000000">nacionalidade</text>
<polygon fill="none" stroke="#000000" points="235,-477.2 235,-499.2 460,-499.2 460,-477.2 235,-477.2"/>
<text text-anchor="start" x="238" y="-484.9" font-family="Helvetica,sans-Serif" font-size="11.00" fill="#000000">&quot;educacao&quot;.&quot;nacionalidades&quot;[2147483647]</text>
<polygon fill="none" stroke="#000000" points="10,-455.2 10,-477.2 235,-477.2 235,-455.2 10,-455.2"/>
<text text-anchor="start" x="30" y="-462.3" font-family="Helvetica,sans-Serif" font-size="11.00" fill="#000000">identidade</text>
<polygon fill="none" stroke="#000000" points="235,-455.2 235,-477.2 460,-477.2 460,-455.2 235,-455.2"/>
<text text-anchor="start" x="238" y="-462.9" font-family="Helvetica,sans-Serif" font-size="11.00" fill="#000000">varchar[20]</text>
<polygon fill="none" stroke="#000000" points="10,-433.2 10,-455.2 235,-455.2 235,-433.2 10,-433.2"/>
<text text-anchor="start" x="30" y="-440.3" font-family="Helvetica,sans-Serif" font-size="11.00" fill="#000000">orgao_emissor_identidade</text>
<polygon fill="none" stroke="#000000" points="235,-433.2 235,-455.2 460,-455.2 460,-433.2 235,-433.2"/>
<text text-anchor="start" x="238" y="-440.9" font-family="Helvetica,sans-Serif" font-size="11.00" fill="#000000">varchar[8]</text>
<polygon fill="none" stroke="#000000" points="10,-411.2 10,-433.2 235,-433.2 235,-411.2 10,-411.2"/>
<text text-anchor="start" x="30" y="-418.3" font-family="Helvetica,sans-Serif" font-size="11.00" fill="#000000">data_chegada</text>
<polygon fill="none" stroke="#000000" points="235,-411.2 235,-433.2 460,-433.2 460,-411.2 235,-411.2"/>
<text text-anchor="start" x="238" y="-418.9" font-family="Helvetica,sans-Serif" font-size="11.00" fill="#000000">date[13]</text>
<polygon fill="none" stroke="#000000" points="10,-389.2 10,-411.2 235,-411.2 235,-389.2 10,-389.2"/>
<text text-anchor="start" x="30" y="-396.3" font-family="Helvetica,sans-Serif" font-size="11.00" fill="#000000">ano_chegada</text>
<polygon fill="none" stroke="#000000" points="235,-389.2 235,-411.2 460,-411.2 460,-389.2 235,-389.2"/>
<text text-anchor="start" x="238" y="-396.9" font-family="Helvetica,sans-Serif" font-size="11.00" fill="#000000">varchar[2147483647]</text>
<polygon fill="none" stroke="#000000" points="10,-367.2 10,-389.2 235,-389.2 235,-367.2 10,-367.2"/>
<text text-anchor="start" x="30" y="-374.3" font-family="Helvetica,sans-Serif" font-size="11.00" fill="#000000">tipo_visto</text>
<polygon fill="none" stroke="#000000" points="235,-367.2 235,-389.2 460,-389.2 460,-367.2 235,-367.2"/>
<text text-anchor="start" x="238" y="-374.9" font-family="Helvetica,sans-Serif" font-size="11.00" fill="#000000">&quot;educacao&quot;.&quot;tiposvisto&quot;[2147483647]</text>
<polygon fill="none" stroke="#000000" points="10,-345.2 10,-367.2 235,-367.2 235,-345.2 10,-345.2"/>
<text text-anchor="start" x="30" y="-352.3" font-family="Helvetica,sans-Serif" font-size="11.00" fill="#000000">estrangeiro_carteira_trabalho</text>
<polygon fill="none" stroke="#000000" points="235,-345.2 235,-367.2 460,-367.2 460,-345.2 235,-345.2"/>
<text text-anchor="start" x="238" y="-352.9" font-family="Helvetica,sans-Serif" font-size="11.00" fill="#000000">varchar[2147483647]</text>
<polygon fill="none" stroke="#000000" points="10,-323.2 10,-345.2 235,-345.2 235,-323.2 10,-323.2"/>
<text text-anchor="start" x="30" y="-330.3" font-family="Helvetica,sans-Serif" font-size="11.00" fill="#000000">estrangeiro_serie_carteira_trabalho</text>
<polygon fill="none" stroke="#000000" points="235,-323.2 235,-345.2 460,-345.2 460,-323.2 235,-323.2"/>
<text text-anchor="start" x="238" y="-330.9" font-family="Helvetica,sans-Serif" font-size="11.00" fill="#000000">varchar[2147483647]</text>
<polygon fill="none" stroke="#000000" points="10,-301.2 10,-323.2 235,-323.2 235,-301.2 10,-301.2"/>
<text text-anchor="start" x="30" y="-308.3" font-family="Helvetica,sans-Serif" font-size="11.00" fill="#000000">data_expedicao_carteira_trabalho</text>
<polygon fill="none" stroke="#000000" points="235,-301.2 235,-323.2 460,-323.2 460,-301.2 235,-301.2"/>
<text text-anchor="start" x="238" y="-308.9" font-family="Helvetica,sans-Serif" font-size="11.00" fill="#000000">date[13]</text>
<polygon fill="none" stroke="#000000" points="10,-279.2 10,-301.2 235,-301.2 235,-279.2 10,-279.2"/>
<text text-anchor="start" x="30" y="-286.3" font-family="Helvetica,sans-Serif" font-size="11.00" fill="#000000">data_expedicao_identidade</text>
<polygon fill="none" stroke="#000000" points="235,-279.2 235,-301.2 460,-301.2 460,-279.2 235,-279.2"/>
<text text-anchor="start" x="238" y="-286.9" font-family="Helvetica,sans-Serif" font-size="11.00" fill="#000000">date[13]</text>
<polygon fill="none" stroke="#000000" points="10,-257.2 10,-279.2 235,-279.2 235,-257.2 10,-257.2"/>
<text text-anchor="start" x="30" y="-264.3" font-family="Helvetica,sans-Serif" font-size="11.00" fill="#000000">data_validade_identidade</text>
<polygon fill="none" stroke="#000000" points="235,-257.2 235,-279.2 460,-279.2 460,-257.2 235,-257.2"/>
<text text-anchor="start" x="238" y="-264.9" font-family="Helvetica,sans-Serif" font-size="11.00" fill="#000000">date[13]</text>
<polygon fill="none" stroke="#000000" points="10,-235.2 10,-257.2 235,-257.2 235,-235.2 10,-235.2"/>
<text text-anchor="start" x="30" y="-242.3" font-family="Helvetica,sans-Serif" font-size="11.00" fill="#000000">data_validade_carteira_trabalho</text>
<polygon fill="none" stroke="#000000" points="235,-235.2 235,-257.2 460,-257.2 460,-235.2 235,-235.2"/>
<text text-anchor="start" x="238" y="-242.9" font-family="Helvetica,sans-Serif" font-size="11.00" fill="#000000">date[13]</text>
<polygon fill="none" stroke="#000000" points="10,-213.2 10,-235.2 235,-235.2 235,-213.2 10,-213.2"/>
<text text-anchor="start" x="30" y="-220.3" font-family="Helvetica,sans-Serif" font-size="11.00" fill="#000000">data_validade_visto</text>
<polygon fill="none" stroke="#000000" points="235,-213.2 235,-235.2 460,-235.2 460,-213.2 235,-213.2"/>
<text text-anchor="start" x="238" y="-220.9" font-family="Helvetica,sans-Serif" font-size="11.00" fill="#000000">date[13]</text>
<polygon fill="none" stroke="#000000" points="10,-191.2 10,-213.2 235,-213.2 235,-191.2 10,-191.2"/>
<text text-anchor="start" x="30" y="-198.3" font-family="Helvetica,sans-Serif" font-size="11.00" fill="#000000">zona_eleitoral</text>
<polygon fill="none" stroke="#000000" points="235,-191.2 235,-213.2 460,-213.2 460,-191.2 235,-191.2"/>
<text text-anchor="start" x="238" y="-198.9" font-family="Helvetica,sans-Serif" font-size="11.00" fill="#000000">varchar[3]</text>
<polygon fill="none" stroke="#000000" points="10,-169.2 10,-191.2 235,-191.2 235,-169.2 10,-169.2"/>
<text text-anchor="start" x="30" y="-176.3" font-family="Helvetica,sans-Serif" font-size="11.00" fill="#000000">secao_eleitoral</text>
<polygon fill="none" stroke="#000000" points="235,-169.2 235,-191.2 460,-191.2 460,-169.2 235,-169.2"/>
<text text-anchor="start" x="238" y="-176.9" font-family="Helvetica,sans-Serif" font-size="11.00" fill="#000000">varchar[4]</text>
<polygon fill="none" stroke="#000000" points="10,-147.2 10,-169.2 235,-169.2 235,-147.2 10,-147.2"/>
<text text-anchor="start" x="30" y="-154.3" font-family="Helvetica,sans-Serif" font-size="11.00" fill="#000000">titulo_eleitor</text>
<polygon fill="none" stroke="#000000" points="235,-147.2 235,-169.2 460,-169.2 460,-147.2 235,-147.2"/>
<text text-anchor="start" x="238" y="-154.9" font-family="Helvetica,sans-Serif" font-size="11.00" fill="#000000">varchar[16]</text>
<polygon fill="none" stroke="#000000" points="10,-125.2 10,-147.2 235,-147.2 235,-125.2 10,-125.2"/>
<text text-anchor="start" x="30" y="-132.3" font-family="Helvetica,sans-Serif" font-size="11.00" fill="#000000">raca</text>
<polygon fill="none" stroke="#000000" points="235,-125.2 235,-147.2 460,-147.2 460,-125.2 235,-125.2"/>
<text text-anchor="start" x="238" y="-132.9" font-family="Helvetica,sans-Serif" font-size="11.00" fill="#000000">&quot;educacao&quot;.&quot;racas&quot;[2147483647]</text>
<polygon fill="none" stroke="#000000" points="10,-103.2 10,-125.2 235,-125.2 235,-103.2 10,-103.2"/>
<text text-anchor="start" x="30" y="-110.3" font-family="Helvetica,sans-Serif" font-size="11.00" fill="#000000">data_obito</text>
<polygon fill="none" stroke="#000000" points="235,-103.2 235,-125.2 460,-125.2 460,-103.2 235,-103.2"/>
<text text-anchor="start" x="238" y="-110.9" font-family="Helvetica,sans-Serif" font-size="11.00" fill="#000000">date[13]</text>
<polygon fill="none" stroke="#000000" points="10,-81.2 10,-103.2 235,-103.2 235,-81.2 10,-81.2"/>
<text text-anchor="start" x="30" y="-88.3" font-family="Helvetica,sans-Serif" font-size="11.00" fill="#000000">certidao</text>
<polygon fill="none" stroke="#000000" points="235,-81.2 235,-103.2 460,-103.2 460,-81.2 235,-81.2"/>
<text text-anchor="start" x="238" y="-88.9" font-family="Helvetica,sans-Serif" font-size="11.00" fill="#000000">varchar[32]</text>
<polygon fill="none" stroke="#000000" points="10,-59.2 10,-81.2 235,-81.2 235,-59.2 10,-59.2"/>
<text text-anchor="start" x="30" y="-66.3" font-family="Helvetica,sans-Serif" font-size="11.00" fill="#000000">causa_mortis</text>
<polygon fill="none" stroke="#000000" points="235,-59.2 235,-81.2 460,-81.2 460,-59.2 235,-59.2"/>
<text text-anchor="start" x="238" y="-66.9" font-family="Helvetica,sans-Serif" font-size="11.00" fill="#000000">varchar[255]</text>
<polygon fill="#ffffff" stroke="transparent" points="10,-40.2 10,-59.2 127,-59.2 127,-40.2 10,-40.2"/>
<polygon fill="none" stroke="#000000" points="10,-40.2 10,-59.2 127,-59.2 127,-40.2 10,-40.2"/>
<text text-anchor="start" x="13" y="-46.3" font-family="Helvetica,sans-Serif" font-size="11.00" fill="#000000">&lt; 0</text>
<polygon fill="#ffffff" stroke="transparent" points="127,-40.2 127,-59.2 235,-59.2 235,-40.2 127,-40.2"/>
<polygon fill="none" stroke="#000000" points="127,-40.2 127,-59.2 235,-59.2 235,-40.2 127,-40.2"/>
<text text-anchor="start" x="225.8862" y="-46.3" font-family="Helvetica,sans-Serif" font-size="11.00" fill="#000000"> &#160;</text>
<polygon fill="#ffffff" stroke="transparent" points="235,-40.2 235,-59.2 460,-59.2 460,-40.2 235,-40.2"/>
<polygon fill="none" stroke="#000000" points="235,-40.2 235,-59.2 460,-59.2 460,-40.2 235,-40.2"/>
<text text-anchor="start" x="441.4053" y="-46.3" font-family="Helvetica,sans-Serif" font-size="11.00" fill="#000000">0 &gt;</text>
<polygon fill="none" stroke="#000000" stroke-width="2" points="9,-39.2 9,-1579.2 461,-1579.2 461,-39.2 9,-39.2"/>
</a>
</g>
</g>
</g>
</svg>
