<?xml version="1.0" encoding="UTF-8" standalone="no"?>
<!DOCTYPE svg PUBLIC "-//W3C//DTD SVG 1.1//EN"
 "http://www.w3.org/Graphics/SVG/1.1/DTD/svg11.dtd">
<!-- Generated by graphviz version 2.40.1 (20161225.0304)
 -->
<!-- Title: oneDegreeRelationshipsDiagramImplied Pages: 1 -->
<svg width="764pt" height="822pt"
 viewBox="0.00 0.00 764.00 822.20" xmlns="http://www.w3.org/2000/svg" xmlns:xlink="http://www.w3.org/1999/xlink">
<g id="graph0" class="graph" transform="scale(1 1) rotate(0) translate(4 818.2)">
<title>oneDegreeRelationshipsDiagramImplied</title>
<polygon fill="#ffffff" stroke="transparent" points="-4,4 -4,-818.2 760,-818.2 760,4 -4,4"/>
<text text-anchor="middle" x="72.4936" y="-7.3" font-family="Helvetica,sans-Serif" font-size="11.00" fill="#000000">Generated by SchemaSpy</text>
<!-- historicos_escolares -->
<g id="node1" class="node">
<title>historicos_escolares</title>
<g id="a_node1"><a xlink:href="../../tables/historicos_escolares.html" xlink:title="historicos_escolares" target="_top">
<polygon fill="#ffffff" stroke="transparent" points="286,-38.2 286,-810.2 748,-810.2 748,-38.2 286,-38.2"/>
<polygon fill="#f5f5f5" stroke="transparent" points="288,-785.2 288,-808.2 746,-808.2 746,-785.2 288,-785.2"/>
<polygon fill="none" stroke="#000000" points="288,-785.2 288,-808.2 746,-808.2 746,-785.2 288,-785.2"/>
<text text-anchor="start" x="293" y="-793.8" font-family="Helvetica,sans-Serif" font-weight="bold" font-size="11.00" fill="#000000">historicos_escolares</text>
<text text-anchor="start" x="711.0437" y="-793.3" font-family="Helvetica,sans-Serif" font-size="11.00" fill="#000000">[table]</text>
<polygon fill="none" stroke="#000000" points="288,-763.2 288,-785.2 507,-785.2 507,-763.2 288,-763.2"/>
<text text-anchor="start" x="308" y="-770.3" font-family="Helvetica,sans-Serif" font-size="11.00" fill="#000000">sistema</text>
<polygon fill="none" stroke="#000000" points="507,-763.2 507,-785.2 746,-785.2 746,-763.2 507,-763.2"/>
<text text-anchor="start" x="510" y="-770.9" font-family="Helvetica,sans-Serif" font-size="11.00" fill="#000000">int4[10]</text>
<polygon fill="none" stroke="#000000" points="288,-741.2 288,-763.2 507,-763.2 507,-741.2 288,-741.2"/>
<text text-anchor="start" x="308" y="-748.3" font-family="Helvetica,sans-Serif" font-size="11.00" fill="#000000">tipo_registro</text>
<polygon fill="none" stroke="#000000" points="507,-741.2 507,-763.2 746,-763.2 746,-741.2 507,-741.2"/>
<text text-anchor="start" x="510" y="-748.9" font-family="Helvetica,sans-Serif" font-size="11.00" fill="#000000">text[2147483647]</text>
<polygon fill="none" stroke="#000000" points="288,-719.2 288,-741.2 507,-741.2 507,-719.2 288,-719.2"/>
<text text-anchor="start" x="308" y="-726.3" font-family="Helvetica,sans-Serif" font-size="11.00" fill="#000000">id_integracao</text>
<polygon fill="none" stroke="#000000" points="507,-719.2 507,-741.2 746,-741.2 746,-719.2 507,-719.2"/>
<text text-anchor="start" x="510" y="-726.9" font-family="Helvetica,sans-Serif" font-size="11.00" fill="#000000">varchar[2147483647]</text>
<polygon fill="none" stroke="#000000" points="288,-697.2 288,-719.2 507,-719.2 507,-697.2 288,-697.2"/>
<text text-anchor="start" x="308" y="-704.3" font-family="Helvetica,sans-Serif" font-size="11.00" fill="#000000">id_origem</text>
<polygon fill="none" stroke="#000000" points="507,-697.2 507,-719.2 746,-719.2 746,-697.2 507,-697.2"/>
<text text-anchor="start" x="510" y="-704.9" font-family="Helvetica,sans-Serif" font-size="11.00" fill="#000000">int4[10]</text>
<polygon fill="none" stroke="#000000" points="288,-675.2 288,-697.2 507,-697.2 507,-675.2 288,-675.2"/>
<text text-anchor="start" x="308" y="-682.3" font-family="Helvetica,sans-Serif" font-size="11.00" fill="#000000">id_cloud</text>
<polygon fill="none" stroke="#000000" points="507,-675.2 507,-697.2 746,-697.2 746,-675.2 507,-675.2"/>
<text text-anchor="start" x="510" y="-682.9" font-family="Helvetica,sans-Serif" font-size="11.00" fill="#000000">int4[10]</text>
<polygon fill="none" stroke="#000000" points="288,-653.2 288,-675.2 507,-675.2 507,-653.2 288,-653.2"/>
<text text-anchor="start" x="308" y="-660.3" font-family="Helvetica,sans-Serif" font-size="11.00" fill="#000000">conclusao_origem</text>
<polygon fill="none" stroke="#000000" points="507,-653.2 507,-675.2 746,-675.2 746,-653.2 507,-653.2"/>
<text text-anchor="start" x="510" y="-660.9" font-family="Helvetica,sans-Serif" font-size="11.00" fill="#000000">&quot;educacao&quot;.&quot;origensconclusao&quot;[2147483647]</text>
<polygon fill="none" stroke="#000000" points="288,-631.2 288,-653.2 507,-653.2 507,-631.2 288,-631.2"/>
<text text-anchor="start" x="308" y="-638.3" font-family="Helvetica,sans-Serif" font-size="11.00" fill="#000000">nome_estabelecimento</text>
<polygon fill="none" stroke="#000000" points="507,-631.2 507,-653.2 746,-653.2 746,-631.2 507,-631.2"/>
<text text-anchor="start" x="510" y="-638.9" font-family="Helvetica,sans-Serif" font-size="11.00" fill="#000000">varchar[2147483647]</text>
<polygon fill="none" stroke="#000000" points="288,-609.2 288,-631.2 507,-631.2 507,-609.2 288,-609.2"/>
<text text-anchor="start" x="308" y="-616.3" font-family="Helvetica,sans-Serif" font-size="11.00" fill="#000000">descricao_curso</text>
<polygon fill="none" stroke="#000000" points="507,-609.2 507,-631.2 746,-631.2 746,-609.2 507,-609.2"/>
<text text-anchor="start" x="510" y="-616.9" font-family="Helvetica,sans-Serif" font-size="11.00" fill="#000000">varchar[2147483647]</text>
<polygon fill="none" stroke="#000000" points="288,-587.2 288,-609.2 507,-609.2 507,-587.2 288,-587.2"/>
<text text-anchor="start" x="308" y="-594.3" font-family="Helvetica,sans-Serif" font-size="11.00" fill="#000000">nivel_modalidade</text>
<polygon fill="none" stroke="#000000" points="507,-587.2 507,-609.2 746,-609.2 746,-587.2 507,-587.2"/>
<text text-anchor="start" x="510" y="-594.9" font-family="Helvetica,sans-Serif" font-size="11.00" fill="#000000">&quot;educacao&quot;.&quot;modalidades&quot;[2147483647]</text>
<polygon fill="none" stroke="#000000" points="288,-565.2 288,-587.2 507,-587.2 507,-565.2 288,-565.2"/>
<text text-anchor="start" x="308" y="-572.3" font-family="Helvetica,sans-Serif" font-size="11.00" fill="#000000">nivel_escolar</text>
<polygon fill="none" stroke="#000000" points="507,-565.2 507,-587.2 746,-587.2 746,-565.2 507,-565.2"/>
<text text-anchor="start" x="510" y="-572.9" font-family="Helvetica,sans-Serif" font-size="11.00" fill="#000000">&quot;educacao&quot;.&quot;niveisescolares&quot;[2147483647]</text>
<polygon fill="none" stroke="#000000" points="288,-543.2 288,-565.2 507,-565.2 507,-543.2 288,-543.2"/>
<text text-anchor="start" x="308" y="-550.3" font-family="Helvetica,sans-Serif" font-size="11.00" fill="#000000">etapa</text>
<polygon fill="none" stroke="#000000" points="507,-543.2 507,-565.2 746,-565.2 746,-543.2 507,-543.2"/>
<text text-anchor="start" x="510" y="-550.9" font-family="Helvetica,sans-Serif" font-size="11.00" fill="#000000">varchar[2147483647]</text>
<polygon fill="none" stroke="#000000" points="288,-521.2 288,-543.2 507,-543.2 507,-521.2 288,-521.2"/>
<text text-anchor="start" x="308" y="-528.3" font-family="Helvetica,sans-Serif" font-size="11.00" fill="#000000">classificacao</text>
<polygon fill="none" stroke="#000000" points="507,-521.2 507,-543.2 746,-543.2 746,-521.2 507,-521.2"/>
<text text-anchor="start" x="510" y="-528.9" font-family="Helvetica,sans-Serif" font-size="11.00" fill="#000000">varchar[2147483647]</text>
<polygon fill="none" stroke="#000000" points="288,-499.2 288,-521.2 507,-521.2 507,-499.2 288,-499.2"/>
<text text-anchor="start" x="308" y="-506.3" font-family="Helvetica,sans-Serif" font-size="11.00" fill="#000000">ano_conclusao</text>
<polygon fill="none" stroke="#000000" points="507,-499.2 507,-521.2 746,-521.2 746,-499.2 507,-499.2"/>
<text text-anchor="start" x="510" y="-506.9" font-family="Helvetica,sans-Serif" font-size="11.00" fill="#000000">varchar[2147483647]</text>
<polygon fill="none" stroke="#000000" points="288,-477.2 288,-499.2 507,-499.2 507,-477.2 288,-477.2"/>
<text text-anchor="start" x="308" y="-484.3" font-family="Helvetica,sans-Serif" font-size="11.00" fill="#000000">dias_letivos</text>
<polygon fill="none" stroke="#000000" points="507,-477.2 507,-499.2 746,-499.2 746,-477.2 507,-477.2"/>
<text text-anchor="start" x="510" y="-484.9" font-family="Helvetica,sans-Serif" font-size="11.00" fill="#000000">int4[10]</text>
<polygon fill="none" stroke="#000000" points="288,-455.2 288,-477.2 507,-477.2 507,-455.2 288,-455.2"/>
<text text-anchor="start" x="308" y="-462.3" font-family="Helvetica,sans-Serif" font-size="11.00" fill="#000000">carga_horaria_total_em_segundos</text>
<polygon fill="none" stroke="#000000" points="507,-455.2 507,-477.2 746,-477.2 746,-455.2 507,-455.2"/>
<text text-anchor="start" x="510" y="-462.9" font-family="Helvetica,sans-Serif" font-size="11.00" fill="#000000">int4[10]</text>
<polygon fill="none" stroke="#000000" points="288,-433.2 288,-455.2 507,-455.2 507,-433.2 288,-433.2"/>
<text text-anchor="start" x="308" y="-440.3" font-family="Helvetica,sans-Serif" font-size="11.00" fill="#000000">percentual_frequencia</text>
<polygon fill="none" stroke="#000000" points="507,-433.2 507,-455.2 746,-455.2 746,-433.2 507,-433.2"/>
<text text-anchor="start" x="510" y="-440.9" font-family="Helvetica,sans-Serif" font-size="11.00" fill="#000000">numeric[0]</text>
<polygon fill="none" stroke="#000000" points="288,-411.2 288,-433.2 507,-433.2 507,-411.2 288,-411.2"/>
<text text-anchor="start" x="308" y="-418.3" font-family="Helvetica,sans-Serif" font-size="11.00" fill="#000000">total_faltas</text>
<polygon fill="none" stroke="#000000" points="507,-411.2 507,-433.2 746,-433.2 746,-411.2 507,-411.2"/>
<text text-anchor="start" x="510" y="-418.9" font-family="Helvetica,sans-Serif" font-size="11.00" fill="#000000">int4[10]</text>
<polygon fill="none" stroke="#000000" points="288,-389.2 288,-411.2 507,-411.2 507,-389.2 288,-389.2"/>
<text text-anchor="start" x="308" y="-396.3" font-family="Helvetica,sans-Serif" font-size="11.00" fill="#000000">situacao</text>
<polygon fill="none" stroke="#000000" points="507,-389.2 507,-411.2 746,-411.2 746,-389.2 507,-389.2"/>
<text text-anchor="start" x="510" y="-396.9" font-family="Helvetica,sans-Serif" font-size="11.00" fill="#000000">&quot;educacao&quot;.&quot;situacoeshistorico&quot;[2147483647]</text>
<polygon fill="none" stroke="#000000" points="288,-367.2 288,-389.2 507,-389.2 507,-367.2 288,-367.2"/>
<text text-anchor="start" x="308" y="-374.3" font-family="Helvetica,sans-Serif" font-size="11.00" fill="#000000">situacao_especifica</text>
<polygon fill="none" stroke="#000000" points="507,-367.2 507,-389.2 746,-389.2 746,-367.2 507,-367.2"/>
<text text-anchor="start" x="510" y="-374.9" font-family="Helvetica,sans-Serif" font-size="11.00" fill="#000000">varchar[2147483647]</text>
<polygon fill="none" stroke="#000000" points="288,-345.2 288,-367.2 507,-367.2 507,-345.2 288,-345.2"/>
<text text-anchor="start" x="308" y="-352.3" font-family="Helvetica,sans-Serif" font-size="11.00" fill="#000000">observacao</text>
<polygon fill="none" stroke="#000000" points="507,-345.2 507,-367.2 746,-367.2 746,-345.2 507,-345.2"/>
<text text-anchor="start" x="510" y="-352.9" font-family="Helvetica,sans-Serif" font-size="11.00" fill="#000000">varchar[2147483647]</text>
<polygon fill="none" stroke="#000000" points="288,-323.2 288,-345.2 507,-345.2 507,-323.2 288,-323.2"/>
<text text-anchor="start" x="308" y="-330.3" font-family="Helvetica,sans-Serif" font-size="11.00" fill="#000000">modular</text>
<polygon fill="none" stroke="#000000" points="507,-323.2 507,-345.2 746,-345.2 746,-323.2 507,-323.2"/>
<text text-anchor="start" x="510" y="-330.9" font-family="Helvetica,sans-Serif" font-size="11.00" fill="#000000">bool[1]</text>
<polygon fill="none" stroke="#000000" points="288,-301.2 288,-323.2 507,-323.2 507,-301.2 288,-301.2"/>
<text text-anchor="start" x="308" y="-308.3" font-family="Helvetica,sans-Serif" font-size="11.00" fill="#000000">tipo_item_organizacao_curricular</text>
<polygon fill="none" stroke="#000000" points="507,-301.2 507,-323.2 746,-323.2 746,-301.2 507,-301.2"/>
<text text-anchor="start" x="510" y="-308.9" font-family="Helvetica,sans-Serif" font-size="11.00" fill="#000000">&quot;educacao&quot;.&quot;tiposorganizacao&quot;[2147483647]</text>
<polygon fill="none" stroke="#000000" points="288,-279.2 288,-301.2 507,-301.2 507,-279.2 288,-279.2"/>
<image xlink:href="../../images/foreignKeys.png" width="11px" height="12px" preserveAspectRatio="xMinYMin meet" x="293" y="-296.2"/>
<text text-anchor="start" x="308" y="-286.3" font-family="Helvetica,sans-Serif" font-size="11.00" fill="#000000">aluno_origem_id</text>
<polygon fill="none" stroke="#000000" points="507,-279.2 507,-301.2 746,-301.2 746,-279.2 507,-279.2"/>
<text text-anchor="start" x="510" y="-286.9" font-family="Helvetica,sans-Serif" font-size="11.00" fill="#000000">int4[10]</text>
<polygon fill="none" stroke="#000000" points="288,-257.2 288,-279.2 507,-279.2 507,-257.2 288,-257.2"/>
<image xlink:href="../../images/foreignKeys.png" width="11px" height="12px" preserveAspectRatio="xMinYMin meet" x="293" y="-274.2"/>
<text text-anchor="start" x="308" y="-264.3" font-family="Helvetica,sans-Serif" font-size="11.00" fill="#000000">aluno_cloud_id</text>
<polygon fill="none" stroke="#000000" points="507,-257.2 507,-279.2 746,-279.2 746,-257.2 507,-257.2"/>
<text text-anchor="start" x="510" y="-264.9" font-family="Helvetica,sans-Serif" font-size="11.00" fill="#000000">int4[10]</text>
<polygon fill="none" stroke="#000000" points="288,-235.2 288,-257.2 507,-257.2 507,-235.2 288,-235.2"/>
<image xlink:href="../../images/foreignKeys.png" width="11px" height="12px" preserveAspectRatio="xMinYMin meet" x="293" y="-252.2"/>
<text text-anchor="start" x="308" y="-242.3" font-family="Helvetica,sans-Serif" font-size="11.00" fill="#000000">estabelecimento_origem_id</text>
<polygon fill="none" stroke="#000000" points="507,-235.2 507,-257.2 746,-257.2 746,-235.2 507,-235.2"/>
<text text-anchor="start" x="510" y="-242.9" font-family="Helvetica,sans-Serif" font-size="11.00" fill="#000000">int4[10]</text>
<polygon fill="none" stroke="#000000" points="288,-213.2 288,-235.2 507,-235.2 507,-213.2 288,-213.2"/>
<image xlink:href="../../images/foreignKeys.png" width="11px" height="12px" preserveAspectRatio="xMinYMin meet" x="293" y="-230.2"/>
<text text-anchor="start" x="308" y="-220.3" font-family="Helvetica,sans-Serif" font-size="11.00" fill="#000000">estabelecimento_cloud_id</text>
<polygon fill="none" stroke="#000000" points="507,-213.2 507,-235.2 746,-235.2 746,-213.2 507,-213.2"/>
<text text-anchor="start" x="510" y="-220.9" font-family="Helvetica,sans-Serif" font-size="11.00" fill="#000000">int4[10]</text>
<polygon fill="none" stroke="#000000" points="288,-191.2 288,-213.2 507,-213.2 507,-191.2 288,-191.2"/>
<image xlink:href="../../images/foreignKeys.png" width="11px" height="12px" preserveAspectRatio="xMinYMin meet" x="293" y="-208.2"/>
<text text-anchor="start" x="308" y="-198.3" font-family="Helvetica,sans-Serif" font-size="11.00" fill="#000000">municipio_origem_id</text>
<polygon fill="none" stroke="#000000" points="507,-191.2 507,-213.2 746,-213.2 746,-191.2 507,-191.2"/>
<text text-anchor="start" x="510" y="-198.9" font-family="Helvetica,sans-Serif" font-size="11.00" fill="#000000">int4[10]</text>
<polygon fill="none" stroke="#000000" points="288,-169.2 288,-191.2 507,-191.2 507,-169.2 288,-169.2"/>
<image xlink:href="../../images/foreignKeys.png" width="11px" height="12px" preserveAspectRatio="xMinYMin meet" x="293" y="-186.2"/>
<text text-anchor="start" x="308" y="-176.3" font-family="Helvetica,sans-Serif" font-size="11.00" fill="#000000">municipio_cloud_id</text>
<polygon fill="none" stroke="#000000" points="507,-169.2 507,-191.2 746,-191.2 746,-169.2 507,-169.2"/>
<text text-anchor="start" x="510" y="-176.9" font-family="Helvetica,sans-Serif" font-size="11.00" fill="#000000">int4[10]</text>
<polygon fill="none" stroke="#000000" points="288,-147.2 288,-169.2 507,-169.2 507,-147.2 288,-147.2"/>
<image xlink:href="../../images/foreignKeys.png" width="11px" height="12px" preserveAspectRatio="xMinYMin meet" x="293" y="-164.2"/>
<text text-anchor="start" x="308" y="-154.3" font-family="Helvetica,sans-Serif" font-size="11.00" fill="#000000">matriz_curricular_origem_id</text>
<polygon fill="none" stroke="#000000" points="507,-147.2 507,-169.2 746,-169.2 746,-147.2 507,-147.2"/>
<text text-anchor="start" x="510" y="-154.9" font-family="Helvetica,sans-Serif" font-size="11.00" fill="#000000">int4[10]</text>
<polygon fill="none" stroke="#000000" points="288,-125.2 288,-147.2 507,-147.2 507,-125.2 288,-125.2"/>
<image xlink:href="../../images/foreignKeys.png" width="11px" height="12px" preserveAspectRatio="xMinYMin meet" x="293" y="-142.2"/>
<text text-anchor="start" x="308" y="-132.3" font-family="Helvetica,sans-Serif" font-size="11.00" fill="#000000">matriz_curricular_cloud_id</text>
<polygon fill="none" stroke="#000000" points="507,-125.2 507,-147.2 746,-147.2 746,-125.2 507,-125.2"/>
<text text-anchor="start" x="510" y="-132.9" font-family="Helvetica,sans-Serif" font-size="11.00" fill="#000000">int4[10]</text>
<polygon fill="none" stroke="#000000" points="288,-103.2 288,-125.2 507,-125.2 507,-103.2 288,-103.2"/>
<image xlink:href="../../images/foreignKeys.png" width="11px" height="12px" preserveAspectRatio="xMinYMin meet" x="293" y="-120.2"/>
<text text-anchor="start" x="308" y="-110.3" font-family="Helvetica,sans-Serif" font-size="11.00" fill="#000000">etapa_matriz_origem_id</text>
<polygon fill="none" stroke="#000000" points="507,-103.2 507,-125.2 746,-125.2 746,-103.2 507,-103.2"/>
<text text-anchor="start" x="510" y="-110.9" font-family="Helvetica,sans-Serif" font-size="11.00" fill="#000000">int4[10]</text>
<polygon fill="none" stroke="#000000" points="288,-81.2 288,-103.2 507,-103.2 507,-81.2 288,-81.2"/>
<image xlink:href="../../images/foreignKeys.png" width="11px" height="12px" preserveAspectRatio="xMinYMin meet" x="293" y="-98.2"/>
<text text-anchor="start" x="308" y="-88.3" font-family="Helvetica,sans-Serif" font-size="11.00" fill="#000000">etapa_matriz_cloud_id</text>
<polygon fill="none" stroke="#000000" points="507,-81.2 507,-103.2 746,-103.2 746,-81.2 507,-81.2"/>
<text text-anchor="start" x="510" y="-88.9" font-family="Helvetica,sans-Serif" font-size="11.00" fill="#000000">int4[10]</text>
<polygon fill="none" stroke="#000000" points="288,-59.2 288,-81.2 507,-81.2 507,-59.2 288,-59.2"/>
<text text-anchor="start" x="308" y="-66.3" font-family="Helvetica,sans-Serif" font-size="11.00" fill="#000000">equivalencias</text>
<polygon fill="none" stroke="#000000" points="507,-59.2 507,-81.2 746,-81.2 746,-59.2 507,-59.2"/>
<text text-anchor="start" x="509.5585" y="-66.9" font-family="Helvetica,sans-Serif" font-size="11.00" fill="#000000">&quot;educacao&quot;.&quot;_etapaequivalencias&quot;[2147483647]</text>
<polygon fill="#ffffff" stroke="transparent" points="288,-40.2 288,-59.2 405,-59.2 405,-40.2 288,-40.2"/>
<polygon fill="none" stroke="#000000" points="288,-40.2 288,-59.2 405,-59.2 405,-40.2 288,-40.2"/>
<text text-anchor="start" x="291" y="-46.3" font-family="Helvetica,sans-Serif" font-size="11.00" fill="#000000">&lt; 10</text>
<polygon fill="#ffffff" stroke="transparent" points="405,-40.2 405,-59.2 507,-59.2 507,-40.2 405,-40.2"/>
<polygon fill="none" stroke="#000000" points="405,-40.2 405,-59.2 507,-59.2 507,-40.2 405,-40.2"/>
<text text-anchor="start" x="497.8862" y="-46.3" font-family="Helvetica,sans-Serif" font-size="11.00" fill="#000000"> &#160;</text>
<polygon fill="#ffffff" stroke="transparent" points="507,-40.2 507,-59.2 746,-59.2 746,-40.2 507,-40.2"/>
<polygon fill="none" stroke="#000000" points="507,-40.2 507,-59.2 746,-59.2 746,-40.2 507,-40.2"/>
<text text-anchor="start" x="727.4053" y="-46.3" font-family="Helvetica,sans-Serif" font-size="11.00" fill="#000000">0 &gt;</text>
<polygon fill="none" stroke="#000000" stroke-width="2" points="287,-39.2 287,-809.2 747,-809.2 747,-39.2 287,-39.2"/>
</a>
</g>
</g>
<!-- inscricao_lista_espera_situacoes -->
<g id="node2" class="node">
<title>inscricao_lista_espera_situacoes</title>
<g id="a_node2"><a xlink:href="../../tables/inscricao_lista_espera_situacoes.html" xlink:title="inscricao_lista_espera_situacoes" target="_top">
<polygon fill="#ffffff" stroke="transparent" points="8,-142.7 8,-225.7 237,-225.7 237,-142.7 8,-142.7"/>
<polygon fill="#f5f5f5" stroke="transparent" points="8.5,-202.2 8.5,-225.2 237.5,-225.2 237.5,-202.2 8.5,-202.2"/>
<polygon fill="none" stroke="#000000" points="8.5,-202.2 8.5,-225.2 237.5,-225.2 237.5,-202.2 8.5,-202.2"/>
<text text-anchor="start" x="13.5" y="-210.8" font-family="Helvetica,sans-Serif" font-weight="bold" font-size="11.00" fill="#000000">inscricao_lista_espera_situacoes</text>
<text text-anchor="start" x="203.0219" y="-210.3" font-family="Helvetica,sans-Serif" font-size="11.00" fill="#000000">[table]</text>
<polygon fill="none" stroke="#000000" points="8.5,-180.2 8.5,-202.2 237.5,-202.2 237.5,-180.2 8.5,-180.2"/>
<image xlink:href="../../images/primaryKeys.png" width="11px" height="12px" preserveAspectRatio="xMinYMin meet" x="13.5" y="-197.2"/>
<text text-anchor="start" x="37.5" y="-187.3" font-family="Helvetica,sans-Serif" font-size="11.00" fill="#000000">id</text>
<polygon fill="none" stroke="#000000" points="8.5,-161.2 8.5,-180.2 237.5,-180.2 237.5,-161.2 8.5,-161.2"/>
<text text-anchor="start" x="11.5" y="-167.3" font-family="Helvetica,sans-Serif" font-size="11.00" fill="#000000">...</text>
<polygon fill="#ffffff" stroke="transparent" points="8.5,-142.2 8.5,-161.2 106.5,-161.2 106.5,-142.2 8.5,-142.2"/>
<polygon fill="none" stroke="#000000" points="8.5,-142.2 8.5,-161.2 106.5,-161.2 106.5,-142.2 8.5,-142.2"/>
<text text-anchor="start" x="11.5" y="-148.3" font-family="Helvetica,sans-Serif" font-size="11.00" fill="#000000"> &#160;</text>
<polygon fill="#ffffff" stroke="transparent" points="106.5,-142.2 106.5,-161.2 161.5,-161.2 161.5,-142.2 106.5,-142.2"/>
<polygon fill="none" stroke="#000000" points="106.5,-142.2 106.5,-161.2 161.5,-161.2 161.5,-142.2 106.5,-142.2"/>
<text text-anchor="start" x="152.3862" y="-148.3" font-family="Helvetica,sans-Serif" font-size="11.00" fill="#000000"> &#160;</text>
<polygon fill="#ffffff" stroke="transparent" points="161.5,-142.2 161.5,-161.2 237.5,-161.2 237.5,-142.2 161.5,-142.2"/>
<polygon fill="none" stroke="#000000" points="161.5,-142.2 161.5,-161.2 237.5,-161.2 237.5,-142.2 161.5,-142.2"/>
<text text-anchor="start" x="206.6755" y="-148.3" font-family="Helvetica,sans-Serif" font-size="11.00" fill="#000000">596 &gt;</text>
</a>
</g>
</g>
<!-- historicos_escolares&#45;&gt;inscricao_lista_espera_situacoes -->
<g id="edge1" class="edge">
<title>historicos_escolares:w&#45;&gt;inscricao_lista_espera_situacoes:e</title>
<path fill="none" stroke="#000000" stroke-dasharray="5,2" d="M274.0801,-263.6139C254.7892,-247.0372 272.3508,-191.2 237.5,-191.2"/>
<polygon fill="#000000" stroke="#000000" points="280.4018,-265.6966 286.8735,-271.6192 284.2009,-266.9483 288,-268.2 288,-268.2 288,-268.2 284.2009,-266.9483 289.1265,-264.7808 280.4018,-265.6966 280.4018,-265.6966"/>
<ellipse fill="none" stroke="#000000" cx="277.3625" cy="-264.6953" rx="3.2" ry="3.2"/>
</g>
<!-- historicos_escolares&#45;&gt;inscricao_lista_espera_situacoes -->
<g id="edge2" class="edge">
<title>historicos_escolares:w&#45;&gt;inscricao_lista_espera_situacoes:e</title>
<path fill="none" stroke="#000000" stroke-dasharray="5,2" d="M274.0064,-286.1965C248.8685,-267.6751 280.9126,-191.2 237.5,-191.2"/>
<polygon fill="#000000" stroke="#000000" points="280.3086,-287.9995 287.0098,-293.6611 284.1543,-289.0997 288,-290.2 288,-290.2 288,-290.2 284.1543,-289.0997 288.9902,-286.7389 280.3086,-287.9995 280.3086,-287.9995"/>
<ellipse fill="none" stroke="#000000" cx="277.232" cy="-287.1193" rx="3.2" ry="3.2"/>
</g>
<!-- historicos_escolares&#45;&gt;inscricao_lista_espera_situacoes -->
<g id="edge3" class="edge">
<title>historicos_escolares:w&#45;&gt;inscricao_lista_espera_situacoes:e</title>
<path fill="none" stroke="#000000" stroke-dasharray="5,2" d="M274.0755,-220.1536C261.1224,-211.3416 258.4466,-191.2 237.5,-191.2"/>
<polygon fill="#000000" stroke="#000000" points="280.3178,-221.9675 286.9954,-227.657 284.1589,-223.0838 288,-224.2 288,-224.2 288,-224.2 284.1589,-223.0838 289.0046,-220.743 280.3178,-221.9675 280.3178,-221.9675"/>
<ellipse fill="none" stroke="#000000" cx="277.2449" cy="-221.0745" rx="3.2" ry="3.2"/>
</g>
<!-- historicos_escolares&#45;&gt;inscricao_lista_espera_situacoes -->
<g id="edge4" class="edge">
<title>historicos_escolares:w&#45;&gt;inscricao_lista_espera_situacoes:e</title>
<path fill="none" stroke="#000000" stroke-dasharray="5,2" d="M274.2934,-241.5107C258.9342,-228.2102 264.7226,-191.2 237.5,-191.2"/>
<polygon fill="#000000" stroke="#000000" points="280.4307,-243.6104 286.8347,-249.6062 284.2154,-244.9052 288,-246.2 288,-246.2 288,-246.2 284.2154,-244.9052 289.1653,-242.7938 280.4307,-243.6104 280.4307,-243.6104"/>
<ellipse fill="none" stroke="#000000" cx="277.403" cy="-242.5745" rx="3.2" ry="3.2"/>
</g>
<!-- historicos_escolares&#45;&gt;inscricao_lista_espera_situacoes -->
<g id="edge5" class="edge">
<title>historicos_escolares:w&#45;&gt;inscricao_lista_espera_situacoes:e</title>
<path fill="none" stroke="#000000" stroke-dasharray="5,2" d="M274.0064,-96.2035C248.8685,-114.7249 280.9126,-191.2 237.5,-191.2"/>
<polygon fill="#000000" stroke="#000000" points="280.3086,-94.4005 288.9902,-95.6611 284.1543,-93.3003 288,-92.2 288,-92.2 288,-92.2 284.1543,-93.3003 287.0098,-88.7389 280.3086,-94.4005 280.3086,-94.4005"/>
<ellipse fill="none" stroke="#000000" cx="277.232" cy="-95.2807" rx="3.2" ry="3.2"/>
</g>
<!-- historicos_escolares&#45;&gt;inscricao_lista_espera_situacoes -->
<g id="edge6" class="edge">
<title>historicos_escolares:w&#45;&gt;inscricao_lista_espera_situacoes:e</title>
<path fill="none" stroke="#000000" stroke-dasharray="5,2" d="M274.0801,-118.7861C254.7892,-135.3628 272.3508,-191.2 237.5,-191.2"/>
<polygon fill="#000000" stroke="#000000" points="280.4018,-116.7034 289.1265,-117.6192 284.2009,-115.4517 288,-114.2 288,-114.2 288,-114.2 284.2009,-115.4517 286.8735,-110.7808 280.4018,-116.7034 280.4018,-116.7034"/>
<ellipse fill="none" stroke="#000000" cx="277.3625" cy="-117.7047" rx="3.2" ry="3.2"/>
</g>
<!-- historicos_escolares&#45;&gt;inscricao_lista_espera_situacoes -->
<g id="edge7" class="edge">
<title>historicos_escolares:w&#45;&gt;inscricao_lista_espera_situacoes:e</title>
<path fill="none" stroke="#000000" stroke-dasharray="5,2" d="M274.2934,-140.8893C258.9342,-154.1898 264.7226,-191.2 237.5,-191.2"/>
<polygon fill="#000000" stroke="#000000" points="280.4307,-138.7896 289.1653,-139.6062 284.2154,-137.4948 288,-136.2 288,-136.2 288,-136.2 284.2154,-137.4948 286.8347,-132.7938 280.4307,-138.7896 280.4307,-138.7896"/>
<ellipse fill="none" stroke="#000000" cx="277.403" cy="-139.8255" rx="3.2" ry="3.2"/>
</g>
<!-- historicos_escolares&#45;&gt;inscricao_lista_espera_situacoes -->
<g id="edge8" class="edge">
<title>historicos_escolares:w&#45;&gt;inscricao_lista_espera_situacoes:e</title>
<path fill="none" stroke="#000000" stroke-dasharray="5,2" d="M274.0755,-162.2464C261.1224,-171.0584 258.4466,-191.2 237.5,-191.2"/>
<polygon fill="#000000" stroke="#000000" points="280.3178,-160.4325 289.0046,-161.657 284.1589,-159.3162 288,-158.2 288,-158.2 288,-158.2 284.1589,-159.3162 286.9954,-154.743 280.3178,-160.4325 280.3178,-160.4325"/>
<ellipse fill="none" stroke="#000000" cx="277.2449" cy="-161.3255" rx="3.2" ry="3.2"/>
</g>
<!-- historicos_escolares&#45;&gt;inscricao_lista_espera_situacoes -->
<g id="edge9" class="edge">
<title>historicos_escolares:w&#45;&gt;inscricao_lista_espera_situacoes:e</title>
<path fill="none" stroke="#000000" stroke-dasharray="5,2" d="M273.6489,-181.9188C261.5992,-185.0125 254.728,-191.2 237.5,-191.2"/>
<polygon fill="#000000" stroke="#000000" points="280.0568,-181.1514 288.4281,-183.7745 284.0284,-180.6757 288,-180.2 288,-180.2 288,-180.2 284.0284,-180.6757 287.5719,-176.6255 280.0568,-181.1514 280.0568,-181.1514"/>
<ellipse fill="none" stroke="#000000" cx="276.8795" cy="-181.5319" rx="3.2" ry="3.2"/>
</g>
<!-- historicos_escolares&#45;&gt;inscricao_lista_espera_situacoes -->
<g id="edge10" class="edge">
<title>historicos_escolares:w&#45;&gt;inscricao_lista_espera_situacoes:e</title>
<path fill="none" stroke="#000000" stroke-dasharray="5,2" d="M273.6489,-200.4813C261.5992,-197.3875 254.728,-191.2 237.5,-191.2"/>
<polygon fill="#000000" stroke="#000000" points="280.0568,-201.2486 287.5719,-205.7745 284.0284,-201.7243 288,-202.2 288,-202.2 288,-202.2 284.0284,-201.7243 288.4281,-198.6255 280.0568,-201.2486 280.0568,-201.2486"/>
<ellipse fill="none" stroke="#000000" cx="276.8795" cy="-200.8681" rx="3.2" ry="3.2"/>
</g>
</g>
</svg>
