<?xml version="1.0" encoding="UTF-8" standalone="no"?>
<!DOCTYPE svg PUBLIC "-//W3C//DTD SVG 1.1//EN"
 "http://www.w3.org/Graphics/SVG/1.1/DTD/svg11.dtd">
<!-- Generated by graphviz version 2.40.1 (20161225.0304)
 -->
<!-- Title: oneDegreeRelationshipsDiagram Pages: 1 -->
<svg width="486pt" height="822pt"
 viewBox="0.00 0.00 486.00 822.20" xmlns="http://www.w3.org/2000/svg" xmlns:xlink="http://www.w3.org/1999/xlink">
<g id="graph0" class="graph" transform="scale(1 1) rotate(0) translate(4 818.2)">
<title>oneDegreeRelationshipsDiagram</title>
<polygon fill="#ffffff" stroke="transparent" points="-4,4 -4,-818.2 482,-818.2 482,4 -4,4"/>
<text text-anchor="middle" x="72.4936" y="-7.3" font-family="Helvetica,sans-Serif" font-size="11.00" fill="#000000">Generated by SchemaSpy</text>
<!-- historicos_escolares -->
<g id="node1" class="node">
<title>historicos_escolares</title>
<g id="a_node1"><a xlink:href="../../tables/historicos_escolares.html" xlink:title="historicos_escolares" target="_top">
<polygon fill="#ffffff" stroke="transparent" points="8,-38.2 8,-810.2 470,-810.2 470,-38.2 8,-38.2"/>
<polygon fill="#f5f5f5" stroke="transparent" points="10,-785.2 10,-808.2 468,-808.2 468,-785.2 10,-785.2"/>
<polygon fill="none" stroke="#000000" points="10,-785.2 10,-808.2 468,-808.2 468,-785.2 10,-785.2"/>
<text text-anchor="start" x="15" y="-793.8" font-family="Helvetica,sans-Serif" font-weight="bold" font-size="11.00" fill="#000000">historicos_escolares</text>
<text text-anchor="start" x="433.0437" y="-793.3" font-family="Helvetica,sans-Serif" font-size="11.00" fill="#000000">[table]</text>
<polygon fill="none" stroke="#000000" points="10,-763.2 10,-785.2 229,-785.2 229,-763.2 10,-763.2"/>
<text text-anchor="start" x="30" y="-770.3" font-family="Helvetica,sans-Serif" font-size="11.00" fill="#000000">sistema</text>
<polygon fill="none" stroke="#000000" points="229,-763.2 229,-785.2 468,-785.2 468,-763.2 229,-763.2"/>
<text text-anchor="start" x="232" y="-770.9" font-family="Helvetica,sans-Serif" font-size="11.00" fill="#000000">int4[10]</text>
<polygon fill="none" stroke="#000000" points="10,-741.2 10,-763.2 229,-763.2 229,-741.2 10,-741.2"/>
<text text-anchor="start" x="30" y="-748.3" font-family="Helvetica,sans-Serif" font-size="11.00" fill="#000000">tipo_registro</text>
<polygon fill="none" stroke="#000000" points="229,-741.2 229,-763.2 468,-763.2 468,-741.2 229,-741.2"/>
<text text-anchor="start" x="232" y="-748.9" font-family="Helvetica,sans-Serif" font-size="11.00" fill="#000000">text[2147483647]</text>
<polygon fill="none" stroke="#000000" points="10,-719.2 10,-741.2 229,-741.2 229,-719.2 10,-719.2"/>
<text text-anchor="start" x="30" y="-726.3" font-family="Helvetica,sans-Serif" font-size="11.00" fill="#000000">id_integracao</text>
<polygon fill="none" stroke="#000000" points="229,-719.2 229,-741.2 468,-741.2 468,-719.2 229,-719.2"/>
<text text-anchor="start" x="232" y="-726.9" font-family="Helvetica,sans-Serif" font-size="11.00" fill="#000000">varchar[2147483647]</text>
<polygon fill="none" stroke="#000000" points="10,-697.2 10,-719.2 229,-719.2 229,-697.2 10,-697.2"/>
<text text-anchor="start" x="30" y="-704.3" font-family="Helvetica,sans-Serif" font-size="11.00" fill="#000000">id_origem</text>
<polygon fill="none" stroke="#000000" points="229,-697.2 229,-719.2 468,-719.2 468,-697.2 229,-697.2"/>
<text text-anchor="start" x="232" y="-704.9" font-family="Helvetica,sans-Serif" font-size="11.00" fill="#000000">int4[10]</text>
<polygon fill="none" stroke="#000000" points="10,-675.2 10,-697.2 229,-697.2 229,-675.2 10,-675.2"/>
<text text-anchor="start" x="30" y="-682.3" font-family="Helvetica,sans-Serif" font-size="11.00" fill="#000000">id_cloud</text>
<polygon fill="none" stroke="#000000" points="229,-675.2 229,-697.2 468,-697.2 468,-675.2 229,-675.2"/>
<text text-anchor="start" x="232" y="-682.9" font-family="Helvetica,sans-Serif" font-size="11.00" fill="#000000">int4[10]</text>
<polygon fill="none" stroke="#000000" points="10,-653.2 10,-675.2 229,-675.2 229,-653.2 10,-653.2"/>
<text text-anchor="start" x="30" y="-660.3" font-family="Helvetica,sans-Serif" font-size="11.00" fill="#000000">conclusao_origem</text>
<polygon fill="none" stroke="#000000" points="229,-653.2 229,-675.2 468,-675.2 468,-653.2 229,-653.2"/>
<text text-anchor="start" x="232" y="-660.9" font-family="Helvetica,sans-Serif" font-size="11.00" fill="#000000">&quot;educacao&quot;.&quot;origensconclusao&quot;[2147483647]</text>
<polygon fill="none" stroke="#000000" points="10,-631.2 10,-653.2 229,-653.2 229,-631.2 10,-631.2"/>
<text text-anchor="start" x="30" y="-638.3" font-family="Helvetica,sans-Serif" font-size="11.00" fill="#000000">nome_estabelecimento</text>
<polygon fill="none" stroke="#000000" points="229,-631.2 229,-653.2 468,-653.2 468,-631.2 229,-631.2"/>
<text text-anchor="start" x="232" y="-638.9" font-family="Helvetica,sans-Serif" font-size="11.00" fill="#000000">varchar[2147483647]</text>
<polygon fill="none" stroke="#000000" points="10,-609.2 10,-631.2 229,-631.2 229,-609.2 10,-609.2"/>
<text text-anchor="start" x="30" y="-616.3" font-family="Helvetica,sans-Serif" font-size="11.00" fill="#000000">descricao_curso</text>
<polygon fill="none" stroke="#000000" points="229,-609.2 229,-631.2 468,-631.2 468,-609.2 229,-609.2"/>
<text text-anchor="start" x="232" y="-616.9" font-family="Helvetica,sans-Serif" font-size="11.00" fill="#000000">varchar[2147483647]</text>
<polygon fill="none" stroke="#000000" points="10,-587.2 10,-609.2 229,-609.2 229,-587.2 10,-587.2"/>
<text text-anchor="start" x="30" y="-594.3" font-family="Helvetica,sans-Serif" font-size="11.00" fill="#000000">nivel_modalidade</text>
<polygon fill="none" stroke="#000000" points="229,-587.2 229,-609.2 468,-609.2 468,-587.2 229,-587.2"/>
<text text-anchor="start" x="232" y="-594.9" font-family="Helvetica,sans-Serif" font-size="11.00" fill="#000000">&quot;educacao&quot;.&quot;modalidades&quot;[2147483647]</text>
<polygon fill="none" stroke="#000000" points="10,-565.2 10,-587.2 229,-587.2 229,-565.2 10,-565.2"/>
<text text-anchor="start" x="30" y="-572.3" font-family="Helvetica,sans-Serif" font-size="11.00" fill="#000000">nivel_escolar</text>
<polygon fill="none" stroke="#000000" points="229,-565.2 229,-587.2 468,-587.2 468,-565.2 229,-565.2"/>
<text text-anchor="start" x="232" y="-572.9" font-family="Helvetica,sans-Serif" font-size="11.00" fill="#000000">&quot;educacao&quot;.&quot;niveisescolares&quot;[2147483647]</text>
<polygon fill="none" stroke="#000000" points="10,-543.2 10,-565.2 229,-565.2 229,-543.2 10,-543.2"/>
<text text-anchor="start" x="30" y="-550.3" font-family="Helvetica,sans-Serif" font-size="11.00" fill="#000000">etapa</text>
<polygon fill="none" stroke="#000000" points="229,-543.2 229,-565.2 468,-565.2 468,-543.2 229,-543.2"/>
<text text-anchor="start" x="232" y="-550.9" font-family="Helvetica,sans-Serif" font-size="11.00" fill="#000000">varchar[2147483647]</text>
<polygon fill="none" stroke="#000000" points="10,-521.2 10,-543.2 229,-543.2 229,-521.2 10,-521.2"/>
<text text-anchor="start" x="30" y="-528.3" font-family="Helvetica,sans-Serif" font-size="11.00" fill="#000000">classificacao</text>
<polygon fill="none" stroke="#000000" points="229,-521.2 229,-543.2 468,-543.2 468,-521.2 229,-521.2"/>
<text text-anchor="start" x="232" y="-528.9" font-family="Helvetica,sans-Serif" font-size="11.00" fill="#000000">varchar[2147483647]</text>
<polygon fill="none" stroke="#000000" points="10,-499.2 10,-521.2 229,-521.2 229,-499.2 10,-499.2"/>
<text text-anchor="start" x="30" y="-506.3" font-family="Helvetica,sans-Serif" font-size="11.00" fill="#000000">ano_conclusao</text>
<polygon fill="none" stroke="#000000" points="229,-499.2 229,-521.2 468,-521.2 468,-499.2 229,-499.2"/>
<text text-anchor="start" x="232" y="-506.9" font-family="Helvetica,sans-Serif" font-size="11.00" fill="#000000">varchar[2147483647]</text>
<polygon fill="none" stroke="#000000" points="10,-477.2 10,-499.2 229,-499.2 229,-477.2 10,-477.2"/>
<text text-anchor="start" x="30" y="-484.3" font-family="Helvetica,sans-Serif" font-size="11.00" fill="#000000">dias_letivos</text>
<polygon fill="none" stroke="#000000" points="229,-477.2 229,-499.2 468,-499.2 468,-477.2 229,-477.2"/>
<text text-anchor="start" x="232" y="-484.9" font-family="Helvetica,sans-Serif" font-size="11.00" fill="#000000">int4[10]</text>
<polygon fill="none" stroke="#000000" points="10,-455.2 10,-477.2 229,-477.2 229,-455.2 10,-455.2"/>
<text text-anchor="start" x="30" y="-462.3" font-family="Helvetica,sans-Serif" font-size="11.00" fill="#000000">carga_horaria_total_em_segundos</text>
<polygon fill="none" stroke="#000000" points="229,-455.2 229,-477.2 468,-477.2 468,-455.2 229,-455.2"/>
<text text-anchor="start" x="232" y="-462.9" font-family="Helvetica,sans-Serif" font-size="11.00" fill="#000000">int4[10]</text>
<polygon fill="none" stroke="#000000" points="10,-433.2 10,-455.2 229,-455.2 229,-433.2 10,-433.2"/>
<text text-anchor="start" x="30" y="-440.3" font-family="Helvetica,sans-Serif" font-size="11.00" fill="#000000">percentual_frequencia</text>
<polygon fill="none" stroke="#000000" points="229,-433.2 229,-455.2 468,-455.2 468,-433.2 229,-433.2"/>
<text text-anchor="start" x="232" y="-440.9" font-family="Helvetica,sans-Serif" font-size="11.00" fill="#000000">numeric[0]</text>
<polygon fill="none" stroke="#000000" points="10,-411.2 10,-433.2 229,-433.2 229,-411.2 10,-411.2"/>
<text text-anchor="start" x="30" y="-418.3" font-family="Helvetica,sans-Serif" font-size="11.00" fill="#000000">total_faltas</text>
<polygon fill="none" stroke="#000000" points="229,-411.2 229,-433.2 468,-433.2 468,-411.2 229,-411.2"/>
<text text-anchor="start" x="232" y="-418.9" font-family="Helvetica,sans-Serif" font-size="11.00" fill="#000000">int4[10]</text>
<polygon fill="none" stroke="#000000" points="10,-389.2 10,-411.2 229,-411.2 229,-389.2 10,-389.2"/>
<text text-anchor="start" x="30" y="-396.3" font-family="Helvetica,sans-Serif" font-size="11.00" fill="#000000">situacao</text>
<polygon fill="none" stroke="#000000" points="229,-389.2 229,-411.2 468,-411.2 468,-389.2 229,-389.2"/>
<text text-anchor="start" x="232" y="-396.9" font-family="Helvetica,sans-Serif" font-size="11.00" fill="#000000">&quot;educacao&quot;.&quot;situacoeshistorico&quot;[2147483647]</text>
<polygon fill="none" stroke="#000000" points="10,-367.2 10,-389.2 229,-389.2 229,-367.2 10,-367.2"/>
<text text-anchor="start" x="30" y="-374.3" font-family="Helvetica,sans-Serif" font-size="11.00" fill="#000000">situacao_especifica</text>
<polygon fill="none" stroke="#000000" points="229,-367.2 229,-389.2 468,-389.2 468,-367.2 229,-367.2"/>
<text text-anchor="start" x="232" y="-374.9" font-family="Helvetica,sans-Serif" font-size="11.00" fill="#000000">varchar[2147483647]</text>
<polygon fill="none" stroke="#000000" points="10,-345.2 10,-367.2 229,-367.2 229,-345.2 10,-345.2"/>
<text text-anchor="start" x="30" y="-352.3" font-family="Helvetica,sans-Serif" font-size="11.00" fill="#000000">observacao</text>
<polygon fill="none" stroke="#000000" points="229,-345.2 229,-367.2 468,-367.2 468,-345.2 229,-345.2"/>
<text text-anchor="start" x="232" y="-352.9" font-family="Helvetica,sans-Serif" font-size="11.00" fill="#000000">varchar[2147483647]</text>
<polygon fill="none" stroke="#000000" points="10,-323.2 10,-345.2 229,-345.2 229,-323.2 10,-323.2"/>
<text text-anchor="start" x="30" y="-330.3" font-family="Helvetica,sans-Serif" font-size="11.00" fill="#000000">modular</text>
<polygon fill="none" stroke="#000000" points="229,-323.2 229,-345.2 468,-345.2 468,-323.2 229,-323.2"/>
<text text-anchor="start" x="232" y="-330.9" font-family="Helvetica,sans-Serif" font-size="11.00" fill="#000000">bool[1]</text>
<polygon fill="none" stroke="#000000" points="10,-301.2 10,-323.2 229,-323.2 229,-301.2 10,-301.2"/>
<text text-anchor="start" x="30" y="-308.3" font-family="Helvetica,sans-Serif" font-size="11.00" fill="#000000">tipo_item_organizacao_curricular</text>
<polygon fill="none" stroke="#000000" points="229,-301.2 229,-323.2 468,-323.2 468,-301.2 229,-301.2"/>
<text text-anchor="start" x="232" y="-308.9" font-family="Helvetica,sans-Serif" font-size="11.00" fill="#000000">&quot;educacao&quot;.&quot;tiposorganizacao&quot;[2147483647]</text>
<polygon fill="none" stroke="#000000" points="10,-279.2 10,-301.2 229,-301.2 229,-279.2 10,-279.2"/>
<image xlink:href="../../images/foreignKeys.png" width="11px" height="12px" preserveAspectRatio="xMinYMin meet" x="15" y="-296.2"/>
<text text-anchor="start" x="30" y="-286.3" font-family="Helvetica,sans-Serif" font-size="11.00" fill="#000000">aluno_origem_id</text>
<polygon fill="none" stroke="#000000" points="229,-279.2 229,-301.2 468,-301.2 468,-279.2 229,-279.2"/>
<text text-anchor="start" x="232" y="-286.9" font-family="Helvetica,sans-Serif" font-size="11.00" fill="#000000">int4[10]</text>
<polygon fill="none" stroke="#000000" points="10,-257.2 10,-279.2 229,-279.2 229,-257.2 10,-257.2"/>
<image xlink:href="../../images/foreignKeys.png" width="11px" height="12px" preserveAspectRatio="xMinYMin meet" x="15" y="-274.2"/>
<text text-anchor="start" x="30" y="-264.3" font-family="Helvetica,sans-Serif" font-size="11.00" fill="#000000">aluno_cloud_id</text>
<polygon fill="none" stroke="#000000" points="229,-257.2 229,-279.2 468,-279.2 468,-257.2 229,-257.2"/>
<text text-anchor="start" x="232" y="-264.9" font-family="Helvetica,sans-Serif" font-size="11.00" fill="#000000">int4[10]</text>
<polygon fill="none" stroke="#000000" points="10,-235.2 10,-257.2 229,-257.2 229,-235.2 10,-235.2"/>
<image xlink:href="../../images/foreignKeys.png" width="11px" height="12px" preserveAspectRatio="xMinYMin meet" x="15" y="-252.2"/>
<text text-anchor="start" x="30" y="-242.3" font-family="Helvetica,sans-Serif" font-size="11.00" fill="#000000">estabelecimento_origem_id</text>
<polygon fill="none" stroke="#000000" points="229,-235.2 229,-257.2 468,-257.2 468,-235.2 229,-235.2"/>
<text text-anchor="start" x="232" y="-242.9" font-family="Helvetica,sans-Serif" font-size="11.00" fill="#000000">int4[10]</text>
<polygon fill="none" stroke="#000000" points="10,-213.2 10,-235.2 229,-235.2 229,-213.2 10,-213.2"/>
<image xlink:href="../../images/foreignKeys.png" width="11px" height="12px" preserveAspectRatio="xMinYMin meet" x="15" y="-230.2"/>
<text text-anchor="start" x="30" y="-220.3" font-family="Helvetica,sans-Serif" font-size="11.00" fill="#000000">estabelecimento_cloud_id</text>
<polygon fill="none" stroke="#000000" points="229,-213.2 229,-235.2 468,-235.2 468,-213.2 229,-213.2"/>
<text text-anchor="start" x="232" y="-220.9" font-family="Helvetica,sans-Serif" font-size="11.00" fill="#000000">int4[10]</text>
<polygon fill="none" stroke="#000000" points="10,-191.2 10,-213.2 229,-213.2 229,-191.2 10,-191.2"/>
<image xlink:href="../../images/foreignKeys.png" width="11px" height="12px" preserveAspectRatio="xMinYMin meet" x="15" y="-208.2"/>
<text text-anchor="start" x="30" y="-198.3" font-family="Helvetica,sans-Serif" font-size="11.00" fill="#000000">municipio_origem_id</text>
<polygon fill="none" stroke="#000000" points="229,-191.2 229,-213.2 468,-213.2 468,-191.2 229,-191.2"/>
<text text-anchor="start" x="232" y="-198.9" font-family="Helvetica,sans-Serif" font-size="11.00" fill="#000000">int4[10]</text>
<polygon fill="none" stroke="#000000" points="10,-169.2 10,-191.2 229,-191.2 229,-169.2 10,-169.2"/>
<image xlink:href="../../images/foreignKeys.png" width="11px" height="12px" preserveAspectRatio="xMinYMin meet" x="15" y="-186.2"/>
<text text-anchor="start" x="30" y="-176.3" font-family="Helvetica,sans-Serif" font-size="11.00" fill="#000000">municipio_cloud_id</text>
<polygon fill="none" stroke="#000000" points="229,-169.2 229,-191.2 468,-191.2 468,-169.2 229,-169.2"/>
<text text-anchor="start" x="232" y="-176.9" font-family="Helvetica,sans-Serif" font-size="11.00" fill="#000000">int4[10]</text>
<polygon fill="none" stroke="#000000" points="10,-147.2 10,-169.2 229,-169.2 229,-147.2 10,-147.2"/>
<image xlink:href="../../images/foreignKeys.png" width="11px" height="12px" preserveAspectRatio="xMinYMin meet" x="15" y="-164.2"/>
<text text-anchor="start" x="30" y="-154.3" font-family="Helvetica,sans-Serif" font-size="11.00" fill="#000000">matriz_curricular_origem_id</text>
<polygon fill="none" stroke="#000000" points="229,-147.2 229,-169.2 468,-169.2 468,-147.2 229,-147.2"/>
<text text-anchor="start" x="232" y="-154.9" font-family="Helvetica,sans-Serif" font-size="11.00" fill="#000000">int4[10]</text>
<polygon fill="none" stroke="#000000" points="10,-125.2 10,-147.2 229,-147.2 229,-125.2 10,-125.2"/>
<image xlink:href="../../images/foreignKeys.png" width="11px" height="12px" preserveAspectRatio="xMinYMin meet" x="15" y="-142.2"/>
<text text-anchor="start" x="30" y="-132.3" font-family="Helvetica,sans-Serif" font-size="11.00" fill="#000000">matriz_curricular_cloud_id</text>
<polygon fill="none" stroke="#000000" points="229,-125.2 229,-147.2 468,-147.2 468,-125.2 229,-125.2"/>
<text text-anchor="start" x="232" y="-132.9" font-family="Helvetica,sans-Serif" font-size="11.00" fill="#000000">int4[10]</text>
<polygon fill="none" stroke="#000000" points="10,-103.2 10,-125.2 229,-125.2 229,-103.2 10,-103.2"/>
<image xlink:href="../../images/foreignKeys.png" width="11px" height="12px" preserveAspectRatio="xMinYMin meet" x="15" y="-120.2"/>
<text text-anchor="start" x="30" y="-110.3" font-family="Helvetica,sans-Serif" font-size="11.00" fill="#000000">etapa_matriz_origem_id</text>
<polygon fill="none" stroke="#000000" points="229,-103.2 229,-125.2 468,-125.2 468,-103.2 229,-103.2"/>
<text text-anchor="start" x="232" y="-110.9" font-family="Helvetica,sans-Serif" font-size="11.00" fill="#000000">int4[10]</text>
<polygon fill="none" stroke="#000000" points="10,-81.2 10,-103.2 229,-103.2 229,-81.2 10,-81.2"/>
<image xlink:href="../../images/foreignKeys.png" width="11px" height="12px" preserveAspectRatio="xMinYMin meet" x="15" y="-98.2"/>
<text text-anchor="start" x="30" y="-88.3" font-family="Helvetica,sans-Serif" font-size="11.00" fill="#000000">etapa_matriz_cloud_id</text>
<polygon fill="none" stroke="#000000" points="229,-81.2 229,-103.2 468,-103.2 468,-81.2 229,-81.2"/>
<text text-anchor="start" x="232" y="-88.9" font-family="Helvetica,sans-Serif" font-size="11.00" fill="#000000">int4[10]</text>
<polygon fill="none" stroke="#000000" points="10,-59.2 10,-81.2 229,-81.2 229,-59.2 10,-59.2"/>
<text text-anchor="start" x="30" y="-66.3" font-family="Helvetica,sans-Serif" font-size="11.00" fill="#000000">equivalencias</text>
<polygon fill="none" stroke="#000000" points="229,-59.2 229,-81.2 468,-81.2 468,-59.2 229,-59.2"/>
<text text-anchor="start" x="231.5585" y="-66.9" font-family="Helvetica,sans-Serif" font-size="11.00" fill="#000000">&quot;educacao&quot;.&quot;_etapaequivalencias&quot;[2147483647]</text>
<polygon fill="#ffffff" stroke="transparent" points="10,-40.2 10,-59.2 124,-59.2 124,-40.2 10,-40.2"/>
<polygon fill="none" stroke="#000000" points="10,-40.2 10,-59.2 124,-59.2 124,-40.2 10,-40.2"/>
<text text-anchor="start" x="13" y="-46.3" font-family="Helvetica,sans-Serif" font-size="11.00" fill="#000000">&lt; 0</text>
<polygon fill="#ffffff" stroke="transparent" points="124,-40.2 124,-59.2 229,-59.2 229,-40.2 124,-40.2"/>
<polygon fill="none" stroke="#000000" points="124,-40.2 124,-59.2 229,-59.2 229,-40.2 124,-40.2"/>
<text text-anchor="start" x="219.8862" y="-46.3" font-family="Helvetica,sans-Serif" font-size="11.00" fill="#000000"> &#160;</text>
<polygon fill="#ffffff" stroke="transparent" points="229,-40.2 229,-59.2 468,-59.2 468,-40.2 229,-40.2"/>
<polygon fill="none" stroke="#000000" points="229,-40.2 229,-59.2 468,-59.2 468,-40.2 229,-40.2"/>
<text text-anchor="start" x="449.4053" y="-46.3" font-family="Helvetica,sans-Serif" font-size="11.00" fill="#000000">0 &gt;</text>
<polygon fill="none" stroke="#000000" stroke-width="2" points="9,-39.2 9,-809.2 469,-809.2 469,-39.2 9,-39.2"/>
</a>
</g>
</g>
</g>
</svg>
