<?xml version="1.0" encoding="UTF-8" standalone="no"?>
<!DOCTYPE svg PUBLIC "-//W3C//DTD SVG 1.1//EN"
 "http://www.w3.org/Graphics/SVG/1.1/DTD/svg11.dtd">
<!-- Generated by graphviz version 2.40.1 (20161225.0304)
 -->
<!-- Title: oneDegreeRelationshipsDiagramImplied Pages: 1 -->
<svg width="485pt" height="146pt"
 viewBox="0.00 0.00 485.00 145.70" xmlns="http://www.w3.org/2000/svg" xmlns:xlink="http://www.w3.org/1999/xlink">
<g id="graph0" class="graph" transform="scale(1 1) rotate(0) translate(4 141.7)">
<title>oneDegreeRelationshipsDiagramImplied</title>
<polygon fill="#ffffff" stroke="transparent" points="-4,4 -4,-141.7 481,-141.7 481,4 -4,4"/>
<text text-anchor="middle" x="72.4936" y="-7.3" font-family="Helvetica,sans-Serif" font-size="11.00" fill="#000000">Generated by SchemaSpy</text>
<!-- inscricao_emails -->
<g id="node1" class="node">
<title>inscricao_emails</title>
<g id="a_node1"><a xlink:href="../../tables/inscricao_emails.html" xlink:title="inscricao_emails" target="_top">
<polygon fill="#ffffff" stroke="transparent" points="286,-43.7 286,-133.7 469,-133.7 469,-43.7 286,-43.7"/>
<polygon fill="#f5f5f5" stroke="transparent" points="288.5,-108.7 288.5,-131.7 467.5,-131.7 467.5,-108.7 288.5,-108.7"/>
<polygon fill="none" stroke="#000000" points="288.5,-108.7 288.5,-131.7 467.5,-131.7 467.5,-108.7 288.5,-108.7"/>
<text text-anchor="start" x="293.5" y="-117.3" font-family="Helvetica,sans-Serif" font-weight="bold" font-size="11.00" fill="#000000">inscricao_emails</text>
<text text-anchor="start" x="432.5437" y="-116.8" font-family="Helvetica,sans-Serif" font-size="11.00" fill="#000000">[table]</text>
<polygon fill="none" stroke="#000000" points="288.5,-86.7 288.5,-108.7 425.5,-108.7 425.5,-86.7 288.5,-86.7"/>
<image xlink:href="../../images/foreignKeys.png" width="11px" height="12px" preserveAspectRatio="xMinYMin meet" x="293.5" y="-103.7"/>
<text text-anchor="start" x="308.5" y="-93.8" font-family="Helvetica,sans-Serif" font-size="11.00" fill="#000000">email_origem_id</text>
<polygon fill="none" stroke="#000000" points="425.5,-86.7 425.5,-108.7 467.5,-108.7 467.5,-86.7 425.5,-86.7"/>
<text text-anchor="start" x="428.4644" y="-94.4" font-family="Helvetica,sans-Serif" font-size="11.00" fill="#000000">int4[10]</text>
<polygon fill="none" stroke="#000000" points="288.5,-64.7 288.5,-86.7 425.5,-86.7 425.5,-64.7 288.5,-64.7"/>
<image xlink:href="../../images/foreignKeys.png" width="11px" height="12px" preserveAspectRatio="xMinYMin meet" x="293.5" y="-81.7"/>
<text text-anchor="start" x="308.5" y="-71.8" font-family="Helvetica,sans-Serif" font-size="11.00" fill="#000000">inscricao_origem_id</text>
<polygon fill="none" stroke="#000000" points="425.5,-64.7 425.5,-86.7 467.5,-86.7 467.5,-64.7 425.5,-64.7"/>
<text text-anchor="start" x="428.4644" y="-72.4" font-family="Helvetica,sans-Serif" font-size="11.00" fill="#000000">int4[10]</text>
<polygon fill="#ffffff" stroke="transparent" points="288.5,-45.7 288.5,-64.7 361.5,-64.7 361.5,-45.7 288.5,-45.7"/>
<polygon fill="none" stroke="#000000" points="288.5,-45.7 288.5,-64.7 361.5,-64.7 361.5,-45.7 288.5,-45.7"/>
<text text-anchor="start" x="291.5" y="-51.8" font-family="Helvetica,sans-Serif" font-size="11.00" fill="#000000">&lt; 2</text>
<polygon fill="#ffffff" stroke="transparent" points="361.5,-45.7 361.5,-64.7 425.5,-64.7 425.5,-45.7 361.5,-45.7"/>
<polygon fill="none" stroke="#000000" points="361.5,-45.7 361.5,-64.7 425.5,-64.7 425.5,-45.7 361.5,-45.7"/>
<text text-anchor="start" x="416.3862" y="-51.8" font-family="Helvetica,sans-Serif" font-size="11.00" fill="#000000"> &#160;</text>
<polygon fill="#ffffff" stroke="transparent" points="425.5,-45.7 425.5,-64.7 467.5,-64.7 467.5,-45.7 425.5,-45.7"/>
<polygon fill="none" stroke="#000000" points="425.5,-45.7 425.5,-64.7 467.5,-64.7 467.5,-45.7 425.5,-45.7"/>
<text text-anchor="start" x="448.9053" y="-51.8" font-family="Helvetica,sans-Serif" font-size="11.00" fill="#000000">0 &gt;</text>
<polygon fill="none" stroke="#000000" stroke-width="2" points="287,-44.7 287,-132.7 468,-132.7 468,-44.7 287,-44.7"/>
</a>
</g>
</g>
<!-- inscricao_lista_espera_situacoes -->
<g id="node2" class="node">
<title>inscricao_lista_espera_situacoes</title>
<g id="a_node2"><a xlink:href="../../tables/inscricao_lista_espera_situacoes.html" xlink:title="inscricao_lista_espera_situacoes" target="_top">
<polygon fill="#ffffff" stroke="transparent" points="8,-38.2 8,-121.2 237,-121.2 237,-38.2 8,-38.2"/>
<polygon fill="#f5f5f5" stroke="transparent" points="8.5,-97.7 8.5,-120.7 237.5,-120.7 237.5,-97.7 8.5,-97.7"/>
<polygon fill="none" stroke="#000000" points="8.5,-97.7 8.5,-120.7 237.5,-120.7 237.5,-97.7 8.5,-97.7"/>
<text text-anchor="start" x="13.5" y="-106.3" font-family="Helvetica,sans-Serif" font-weight="bold" font-size="11.00" fill="#000000">inscricao_lista_espera_situacoes</text>
<text text-anchor="start" x="203.0219" y="-105.8" font-family="Helvetica,sans-Serif" font-size="11.00" fill="#000000">[table]</text>
<polygon fill="none" stroke="#000000" points="8.5,-75.7 8.5,-97.7 237.5,-97.7 237.5,-75.7 8.5,-75.7"/>
<image xlink:href="../../images/primaryKeys.png" width="11px" height="12px" preserveAspectRatio="xMinYMin meet" x="13.5" y="-92.7"/>
<text text-anchor="start" x="37.5" y="-82.8" font-family="Helvetica,sans-Serif" font-size="11.00" fill="#000000">id</text>
<polygon fill="none" stroke="#000000" points="8.5,-56.7 8.5,-75.7 237.5,-75.7 237.5,-56.7 8.5,-56.7"/>
<text text-anchor="start" x="11.5" y="-62.8" font-family="Helvetica,sans-Serif" font-size="11.00" fill="#000000">...</text>
<polygon fill="#ffffff" stroke="transparent" points="8.5,-37.7 8.5,-56.7 106.5,-56.7 106.5,-37.7 8.5,-37.7"/>
<polygon fill="none" stroke="#000000" points="8.5,-37.7 8.5,-56.7 106.5,-56.7 106.5,-37.7 8.5,-37.7"/>
<text text-anchor="start" x="11.5" y="-43.8" font-family="Helvetica,sans-Serif" font-size="11.00" fill="#000000"> &#160;</text>
<polygon fill="#ffffff" stroke="transparent" points="106.5,-37.7 106.5,-56.7 161.5,-56.7 161.5,-37.7 106.5,-37.7"/>
<polygon fill="none" stroke="#000000" points="106.5,-37.7 106.5,-56.7 161.5,-56.7 161.5,-37.7 106.5,-37.7"/>
<text text-anchor="start" x="152.3862" y="-43.8" font-family="Helvetica,sans-Serif" font-size="11.00" fill="#000000"> &#160;</text>
<polygon fill="#ffffff" stroke="transparent" points="161.5,-37.7 161.5,-56.7 237.5,-56.7 237.5,-37.7 161.5,-37.7"/>
<polygon fill="none" stroke="#000000" points="161.5,-37.7 161.5,-56.7 237.5,-56.7 237.5,-37.7 161.5,-37.7"/>
<text text-anchor="start" x="206.6755" y="-43.8" font-family="Helvetica,sans-Serif" font-size="11.00" fill="#000000">596 &gt;</text>
</a>
</g>
</g>
<!-- inscricao_emails&#45;&gt;inscricao_lista_espera_situacoes -->
<g id="edge1" class="edge">
<title>inscricao_emails:w&#45;&gt;inscricao_lista_espera_situacoes:e</title>
<path fill="none" stroke="#000000" stroke-dasharray="5,2" d="M274.0097,-95.9813C261.8398,-92.8875 254.8909,-86.7 237.5,-86.7"/>
<polygon fill="#000000" stroke="#000000" points="280.5557,-96.7576 288.0759,-101.2749 284.5278,-97.2288 288.5,-97.7 288.5,-97.7 288.5,-97.7 284.5278,-97.2288 288.9241,-94.1251 280.5557,-96.7576 280.5557,-96.7576"/>
<ellipse fill="none" stroke="#000000" cx="277.378" cy="-96.3807" rx="3.2" ry="3.2"/>
</g>
<!-- inscricao_emails&#45;&gt;inscricao_lista_espera_situacoes -->
<g id="edge2" class="edge">
<title>inscricao_emails:w&#45;&gt;inscricao_lista_espera_situacoes:e</title>
<path fill="none" stroke="#000000" stroke-dasharray="5,2" d="M274.0097,-77.4188C261.8398,-80.5125 254.8909,-86.7 237.5,-86.7"/>
<polygon fill="#000000" stroke="#000000" points="280.5557,-76.6424 288.9241,-79.2749 284.5278,-76.1712 288.5,-75.7 288.5,-75.7 288.5,-75.7 284.5278,-76.1712 288.0759,-72.1251 280.5557,-76.6424 280.5557,-76.6424"/>
<ellipse fill="none" stroke="#000000" cx="277.378" cy="-77.0193" rx="3.2" ry="3.2"/>
</g>
</g>
</svg>
