<?xml version="1.0" encoding="UTF-8" standalone="no"?>
<!DOCTYPE svg PUBLIC "-//W3C//DTD SVG 1.1//EN"
 "http://www.w3.org/Graphics/SVG/1.1/DTD/svg11.dtd">
<!-- Generated by graphviz version 2.40.1 (20161225.0304)
 -->
<!-- Title: oneDegreeRelationshipsDiagramImplied Pages: 1 -->
<svg width="561pt" height="162pt"
 viewBox="0.00 0.00 561.00 162.20" xmlns="http://www.w3.org/2000/svg" xmlns:xlink="http://www.w3.org/1999/xlink">
<g id="graph0" class="graph" transform="scale(1 1) rotate(0) translate(4 158.2)">
<title>oneDegreeRelationshipsDiagramImplied</title>
<polygon fill="#ffffff" stroke="transparent" points="-4,4 -4,-158.2 557,-158.2 557,4 -4,4"/>
<text text-anchor="middle" x="72.4936" y="-7.3" font-family="Helvetica,sans-Serif" font-size="11.00" fill="#000000">Generated by SchemaSpy</text>
<!-- inscricao_criterios_avaliacao -->
<g id="node1" class="node">
<title>inscricao_criterios_avaliacao</title>
<g id="a_node1"><a xlink:href="../../tables/inscricao_criterios_avaliacao.html" xlink:title="inscricao_criterios_avaliacao" target="_top">
<polygon fill="#ffffff" stroke="transparent" points="286,-38.2 286,-150.2 545,-150.2 545,-38.2 286,-38.2"/>
<polygon fill="#f5f5f5" stroke="transparent" points="288.5,-125.2 288.5,-148.2 543.5,-148.2 543.5,-125.2 288.5,-125.2"/>
<polygon fill="none" stroke="#000000" points="288.5,-125.2 288.5,-148.2 543.5,-148.2 543.5,-125.2 288.5,-125.2"/>
<text text-anchor="start" x="293.5" y="-133.8" font-family="Helvetica,sans-Serif" font-weight="bold" font-size="11.00" fill="#000000">inscricao_criterios_avaliacao</text>
<text text-anchor="start" x="508.5437" y="-133.3" font-family="Helvetica,sans-Serif" font-size="11.00" fill="#000000">[table]</text>
<polygon fill="none" stroke="#000000" points="288.5,-103.2 288.5,-125.2 501.5,-125.2 501.5,-103.2 288.5,-103.2"/>
<image xlink:href="../../images/foreignKeys.png" width="11px" height="12px" preserveAspectRatio="xMinYMin meet" x="293.5" y="-120.2"/>
<text text-anchor="start" x="308.5" y="-110.3" font-family="Helvetica,sans-Serif" font-size="11.00" fill="#000000">criterio_avaliacao_origem_id</text>
<polygon fill="none" stroke="#000000" points="501.5,-103.2 501.5,-125.2 543.5,-125.2 543.5,-103.2 501.5,-103.2"/>
<text text-anchor="start" x="504.4644" y="-110.9" font-family="Helvetica,sans-Serif" font-size="11.00" fill="#000000">int4[10]</text>
<polygon fill="none" stroke="#000000" points="288.5,-81.2 288.5,-103.2 501.5,-103.2 501.5,-81.2 288.5,-81.2"/>
<image xlink:href="../../images/foreignKeys.png" width="11px" height="12px" preserveAspectRatio="xMinYMin meet" x="293.5" y="-98.2"/>
<text text-anchor="start" x="308.5" y="-88.3" font-family="Helvetica,sans-Serif" font-size="11.00" fill="#000000">inscricao_lista_espera_origem_id</text>
<polygon fill="none" stroke="#000000" points="501.5,-81.2 501.5,-103.2 543.5,-103.2 543.5,-81.2 501.5,-81.2"/>
<text text-anchor="start" x="504.4644" y="-88.9" font-family="Helvetica,sans-Serif" font-size="11.00" fill="#000000">int4[10]</text>
<polygon fill="none" stroke="#000000" points="288.5,-59.2 288.5,-81.2 501.5,-81.2 501.5,-59.2 288.5,-59.2"/>
<text text-anchor="start" x="308.5" y="-66.3" font-family="Helvetica,sans-Serif" font-size="11.00" fill="#000000">comprovado</text>
<polygon fill="none" stroke="#000000" points="501.5,-59.2 501.5,-81.2 543.5,-81.2 543.5,-59.2 501.5,-59.2"/>
<text text-anchor="start" x="504.5" y="-66.9" font-family="Helvetica,sans-Serif" font-size="11.00" fill="#000000">bool[1]</text>
<polygon fill="#ffffff" stroke="transparent" points="288.5,-40.2 288.5,-59.2 399.5,-59.2 399.5,-40.2 288.5,-40.2"/>
<polygon fill="none" stroke="#000000" points="288.5,-40.2 288.5,-59.2 399.5,-59.2 399.5,-40.2 288.5,-40.2"/>
<text text-anchor="start" x="291.5" y="-46.3" font-family="Helvetica,sans-Serif" font-size="11.00" fill="#000000">&lt; 2</text>
<polygon fill="#ffffff" stroke="transparent" points="399.5,-40.2 399.5,-59.2 501.5,-59.2 501.5,-40.2 399.5,-40.2"/>
<polygon fill="none" stroke="#000000" points="399.5,-40.2 399.5,-59.2 501.5,-59.2 501.5,-40.2 399.5,-40.2"/>
<text text-anchor="start" x="492.3862" y="-46.3" font-family="Helvetica,sans-Serif" font-size="11.00" fill="#000000"> &#160;</text>
<polygon fill="#ffffff" stroke="transparent" points="501.5,-40.2 501.5,-59.2 543.5,-59.2 543.5,-40.2 501.5,-40.2"/>
<polygon fill="none" stroke="#000000" points="501.5,-40.2 501.5,-59.2 543.5,-59.2 543.5,-40.2 501.5,-40.2"/>
<text text-anchor="start" x="524.9053" y="-46.3" font-family="Helvetica,sans-Serif" font-size="11.00" fill="#000000">0 &gt;</text>
<polygon fill="none" stroke="#000000" stroke-width="2" points="287,-39.2 287,-149.2 544,-149.2 544,-39.2 287,-39.2"/>
</a>
</g>
</g>
<!-- inscricao_lista_espera_situacoes -->
<g id="node2" class="node">
<title>inscricao_lista_espera_situacoes</title>
<g id="a_node2"><a xlink:href="../../tables/inscricao_lista_espera_situacoes.html" xlink:title="inscricao_lista_espera_situacoes" target="_top">
<polygon fill="#ffffff" stroke="transparent" points="8,-54.7 8,-137.7 237,-137.7 237,-54.7 8,-54.7"/>
<polygon fill="#f5f5f5" stroke="transparent" points="8.5,-114.2 8.5,-137.2 237.5,-137.2 237.5,-114.2 8.5,-114.2"/>
<polygon fill="none" stroke="#000000" points="8.5,-114.2 8.5,-137.2 237.5,-137.2 237.5,-114.2 8.5,-114.2"/>
<text text-anchor="start" x="13.5" y="-122.8" font-family="Helvetica,sans-Serif" font-weight="bold" font-size="11.00" fill="#000000">inscricao_lista_espera_situacoes</text>
<text text-anchor="start" x="203.0219" y="-122.3" font-family="Helvetica,sans-Serif" font-size="11.00" fill="#000000">[table]</text>
<polygon fill="none" stroke="#000000" points="8.5,-92.2 8.5,-114.2 237.5,-114.2 237.5,-92.2 8.5,-92.2"/>
<image xlink:href="../../images/primaryKeys.png" width="11px" height="12px" preserveAspectRatio="xMinYMin meet" x="13.5" y="-109.2"/>
<text text-anchor="start" x="37.5" y="-99.3" font-family="Helvetica,sans-Serif" font-size="11.00" fill="#000000">id</text>
<polygon fill="none" stroke="#000000" points="8.5,-73.2 8.5,-92.2 237.5,-92.2 237.5,-73.2 8.5,-73.2"/>
<text text-anchor="start" x="11.5" y="-79.3" font-family="Helvetica,sans-Serif" font-size="11.00" fill="#000000">...</text>
<polygon fill="#ffffff" stroke="transparent" points="8.5,-54.2 8.5,-73.2 106.5,-73.2 106.5,-54.2 8.5,-54.2"/>
<polygon fill="none" stroke="#000000" points="8.5,-54.2 8.5,-73.2 106.5,-73.2 106.5,-54.2 8.5,-54.2"/>
<text text-anchor="start" x="11.5" y="-60.3" font-family="Helvetica,sans-Serif" font-size="11.00" fill="#000000"> &#160;</text>
<polygon fill="#ffffff" stroke="transparent" points="106.5,-54.2 106.5,-73.2 161.5,-73.2 161.5,-54.2 106.5,-54.2"/>
<polygon fill="none" stroke="#000000" points="106.5,-54.2 106.5,-73.2 161.5,-73.2 161.5,-54.2 106.5,-54.2"/>
<text text-anchor="start" x="152.3862" y="-60.3" font-family="Helvetica,sans-Serif" font-size="11.00" fill="#000000"> &#160;</text>
<polygon fill="#ffffff" stroke="transparent" points="161.5,-54.2 161.5,-73.2 237.5,-73.2 237.5,-54.2 161.5,-54.2"/>
<polygon fill="none" stroke="#000000" points="161.5,-54.2 161.5,-73.2 237.5,-73.2 237.5,-54.2 161.5,-54.2"/>
<text text-anchor="start" x="206.6755" y="-60.3" font-family="Helvetica,sans-Serif" font-size="11.00" fill="#000000">596 &gt;</text>
</a>
</g>
</g>
<!-- inscricao_criterios_avaliacao&#45;&gt;inscricao_lista_espera_situacoes -->
<g id="edge1" class="edge">
<title>inscricao_criterios_avaliacao:w&#45;&gt;inscricao_lista_espera_situacoes:e</title>
<path fill="none" stroke="#000000" stroke-dasharray="5,2" d="M274.0097,-112.4813C261.8398,-109.3875 254.8909,-103.2 237.5,-103.2"/>
<polygon fill="#000000" stroke="#000000" points="280.5557,-113.2576 288.0759,-117.7749 284.5278,-113.7288 288.5,-114.2 288.5,-114.2 288.5,-114.2 284.5278,-113.7288 288.9241,-110.6251 280.5557,-113.2576 280.5557,-113.2576"/>
<ellipse fill="none" stroke="#000000" cx="277.378" cy="-112.8807" rx="3.2" ry="3.2"/>
</g>
<!-- inscricao_criterios_avaliacao&#45;&gt;inscricao_lista_espera_situacoes -->
<g id="edge2" class="edge">
<title>inscricao_criterios_avaliacao:w&#45;&gt;inscricao_lista_espera_situacoes:e</title>
<path fill="none" stroke="#000000" stroke-dasharray="5,2" d="M274.0097,-93.9188C261.8398,-97.0125 254.8909,-103.2 237.5,-103.2"/>
<polygon fill="#000000" stroke="#000000" points="280.5557,-93.1424 288.9241,-95.7749 284.5278,-92.6712 288.5,-92.2 288.5,-92.2 288.5,-92.2 284.5278,-92.6712 288.0759,-88.6251 280.5557,-93.1424 280.5557,-93.1424"/>
<ellipse fill="none" stroke="#000000" cx="277.378" cy="-93.5193" rx="3.2" ry="3.2"/>
</g>
</g>
</svg>
