<?xml version="1.0" encoding="UTF-8" standalone="no"?>
<!DOCTYPE svg PUBLIC "-//W3C//DTD SVG 1.1//EN"
 "http://www.w3.org/Graphics/SVG/1.1/DTD/svg11.dtd">
<!-- Generated by graphviz version 2.40.1 (20161225.0304)
 -->
<!-- Title: oneDegreeRelationshipsDiagramImplied Pages: 1 -->
<svg width="721pt" height="206pt"
 viewBox="0.00 0.00 721.00 206.20" xmlns="http://www.w3.org/2000/svg" xmlns:xlink="http://www.w3.org/1999/xlink">
<g id="graph0" class="graph" transform="scale(1 1) rotate(0) translate(4 202.2)">
<title>oneDegreeRelationshipsDiagramImplied</title>
<polygon fill="#ffffff" stroke="transparent" points="-4,4 -4,-202.2 717,-202.2 717,4 -4,4"/>
<text text-anchor="middle" x="72.4936" y="-7.3" font-family="Helvetica,sans-Serif" font-size="11.00" fill="#000000">Generated by SchemaSpy</text>
<!-- inscricao_lista_espera_filiacoes -->
<g id="node1" class="node">
<title>inscricao_lista_espera_filiacoes</title>
<g id="a_node1"><a xlink:href="../../tables/inscricao_lista_espera_filiacoes.html" xlink:title="inscricao_lista_espera_filiacoes" target="_top">
<polygon fill="#ffffff" stroke="transparent" points="286,-38.2 286,-194.2 705,-194.2 705,-38.2 286,-38.2"/>
<polygon fill="#f5f5f5" stroke="transparent" points="288.5,-169.2 288.5,-192.2 703.5,-192.2 703.5,-169.2 288.5,-169.2"/>
<polygon fill="none" stroke="#000000" points="288.5,-169.2 288.5,-192.2 703.5,-192.2 703.5,-169.2 288.5,-169.2"/>
<text text-anchor="start" x="293.5" y="-177.8" font-family="Helvetica,sans-Serif" font-weight="bold" font-size="11.00" fill="#000000">inscricao_lista_espera_filiacoes</text>
<text text-anchor="start" x="668.5437" y="-177.3" font-family="Helvetica,sans-Serif" font-size="11.00" fill="#000000">[table]</text>
<polygon fill="none" stroke="#000000" points="288.5,-147.2 288.5,-169.2 501.5,-169.2 501.5,-147.2 288.5,-147.2"/>
<image xlink:href="../../images/foreignKeys.png" width="11px" height="12px" preserveAspectRatio="xMinYMin meet" x="293.5" y="-164.2"/>
<text text-anchor="start" x="308.5" y="-154.3" font-family="Helvetica,sans-Serif" font-size="11.00" fill="#000000">inscricao_lista_espera_origem_id</text>
<polygon fill="none" stroke="#000000" points="501.5,-147.2 501.5,-169.2 703.5,-169.2 703.5,-147.2 501.5,-147.2"/>
<text text-anchor="start" x="504.5" y="-154.9" font-family="Helvetica,sans-Serif" font-size="11.00" fill="#000000">int4[10]</text>
<polygon fill="none" stroke="#000000" points="288.5,-125.2 288.5,-147.2 501.5,-147.2 501.5,-125.2 288.5,-125.2"/>
<image xlink:href="../../images/foreignKeys.png" width="11px" height="12px" preserveAspectRatio="xMinYMin meet" x="293.5" y="-142.2"/>
<text text-anchor="start" x="308.5" y="-132.3" font-family="Helvetica,sans-Serif" font-size="11.00" fill="#000000">filiacao_origem_id</text>
<polygon fill="none" stroke="#000000" points="501.5,-125.2 501.5,-147.2 703.5,-147.2 703.5,-125.2 501.5,-125.2"/>
<text text-anchor="start" x="504.5" y="-132.9" font-family="Helvetica,sans-Serif" font-size="11.00" fill="#000000">int4[10]</text>
<polygon fill="none" stroke="#000000" points="288.5,-103.2 288.5,-125.2 501.5,-125.2 501.5,-103.2 288.5,-103.2"/>
<text text-anchor="start" x="308.5" y="-110.3" font-family="Helvetica,sans-Serif" font-size="11.00" fill="#000000">tipo</text>
<polygon fill="none" stroke="#000000" points="501.5,-103.2 501.5,-125.2 703.5,-125.2 703.5,-103.2 501.5,-103.2"/>
<text text-anchor="start" x="504.2117" y="-110.9" font-family="Helvetica,sans-Serif" font-size="11.00" fill="#000000">&quot;educacao&quot;.&quot;tiposfiliacoes&quot;[2147483647]</text>
<polygon fill="none" stroke="#000000" points="288.5,-81.2 288.5,-103.2 501.5,-103.2 501.5,-81.2 288.5,-81.2"/>
<text text-anchor="start" x="308.5" y="-88.3" font-family="Helvetica,sans-Serif" font-size="11.00" fill="#000000">empregado</text>
<polygon fill="none" stroke="#000000" points="501.5,-81.2 501.5,-103.2 703.5,-103.2 703.5,-81.2 501.5,-81.2"/>
<text text-anchor="start" x="504.5" y="-88.9" font-family="Helvetica,sans-Serif" font-size="11.00" fill="#000000">bool[1]</text>
<polygon fill="none" stroke="#000000" points="288.5,-59.2 288.5,-81.2 501.5,-81.2 501.5,-59.2 288.5,-59.2"/>
<image xlink:href="../../images/foreignKeys.png" width="11px" height="12px" preserveAspectRatio="xMinYMin meet" x="293.5" y="-76.2"/>
<text text-anchor="start" x="308.5" y="-66.3" font-family="Helvetica,sans-Serif" font-size="11.00" fill="#000000">endereco_trabalho_id</text>
<polygon fill="none" stroke="#000000" points="501.5,-59.2 501.5,-81.2 703.5,-81.2 703.5,-59.2 501.5,-59.2"/>
<text text-anchor="start" x="504.5" y="-66.9" font-family="Helvetica,sans-Serif" font-size="11.00" fill="#000000">int4[10]</text>
<polygon fill="#ffffff" stroke="transparent" points="288.5,-40.2 288.5,-59.2 399.5,-59.2 399.5,-40.2 288.5,-40.2"/>
<polygon fill="none" stroke="#000000" points="288.5,-40.2 288.5,-59.2 399.5,-59.2 399.5,-40.2 288.5,-40.2"/>
<text text-anchor="start" x="291.5" y="-46.3" font-family="Helvetica,sans-Serif" font-size="11.00" fill="#000000">&lt; 3</text>
<polygon fill="#ffffff" stroke="transparent" points="399.5,-40.2 399.5,-59.2 501.5,-59.2 501.5,-40.2 399.5,-40.2"/>
<polygon fill="none" stroke="#000000" points="399.5,-40.2 399.5,-59.2 501.5,-59.2 501.5,-40.2 399.5,-40.2"/>
<text text-anchor="start" x="492.3862" y="-46.3" font-family="Helvetica,sans-Serif" font-size="11.00" fill="#000000"> &#160;</text>
<polygon fill="#ffffff" stroke="transparent" points="501.5,-40.2 501.5,-59.2 703.5,-59.2 703.5,-40.2 501.5,-40.2"/>
<polygon fill="none" stroke="#000000" points="501.5,-40.2 501.5,-59.2 703.5,-59.2 703.5,-40.2 501.5,-40.2"/>
<text text-anchor="start" x="684.9053" y="-46.3" font-family="Helvetica,sans-Serif" font-size="11.00" fill="#000000">0 &gt;</text>
<polygon fill="none" stroke="#000000" stroke-width="2" points="287,-39.2 287,-193.2 704,-193.2 704,-39.2 287,-39.2"/>
</a>
</g>
</g>
<!-- inscricao_lista_espera_situacoes -->
<g id="node2" class="node">
<title>inscricao_lista_espera_situacoes</title>
<g id="a_node2"><a xlink:href="../../tables/inscricao_lista_espera_situacoes.html" xlink:title="inscricao_lista_espera_situacoes" target="_top">
<polygon fill="#ffffff" stroke="transparent" points="8,-87.7 8,-170.7 237,-170.7 237,-87.7 8,-87.7"/>
<polygon fill="#f5f5f5" stroke="transparent" points="8.5,-147.2 8.5,-170.2 237.5,-170.2 237.5,-147.2 8.5,-147.2"/>
<polygon fill="none" stroke="#000000" points="8.5,-147.2 8.5,-170.2 237.5,-170.2 237.5,-147.2 8.5,-147.2"/>
<text text-anchor="start" x="13.5" y="-155.8" font-family="Helvetica,sans-Serif" font-weight="bold" font-size="11.00" fill="#000000">inscricao_lista_espera_situacoes</text>
<text text-anchor="start" x="203.0219" y="-155.3" font-family="Helvetica,sans-Serif" font-size="11.00" fill="#000000">[table]</text>
<polygon fill="none" stroke="#000000" points="8.5,-125.2 8.5,-147.2 237.5,-147.2 237.5,-125.2 8.5,-125.2"/>
<image xlink:href="../../images/primaryKeys.png" width="11px" height="12px" preserveAspectRatio="xMinYMin meet" x="13.5" y="-142.2"/>
<text text-anchor="start" x="37.5" y="-132.3" font-family="Helvetica,sans-Serif" font-size="11.00" fill="#000000">id</text>
<polygon fill="none" stroke="#000000" points="8.5,-106.2 8.5,-125.2 237.5,-125.2 237.5,-106.2 8.5,-106.2"/>
<text text-anchor="start" x="11.5" y="-112.3" font-family="Helvetica,sans-Serif" font-size="11.00" fill="#000000">...</text>
<polygon fill="#ffffff" stroke="transparent" points="8.5,-87.2 8.5,-106.2 106.5,-106.2 106.5,-87.2 8.5,-87.2"/>
<polygon fill="none" stroke="#000000" points="8.5,-87.2 8.5,-106.2 106.5,-106.2 106.5,-87.2 8.5,-87.2"/>
<text text-anchor="start" x="11.5" y="-93.3" font-family="Helvetica,sans-Serif" font-size="11.00" fill="#000000"> &#160;</text>
<polygon fill="#ffffff" stroke="transparent" points="106.5,-87.2 106.5,-106.2 161.5,-106.2 161.5,-87.2 106.5,-87.2"/>
<polygon fill="none" stroke="#000000" points="106.5,-87.2 106.5,-106.2 161.5,-106.2 161.5,-87.2 106.5,-87.2"/>
<text text-anchor="start" x="152.3862" y="-93.3" font-family="Helvetica,sans-Serif" font-size="11.00" fill="#000000"> &#160;</text>
<polygon fill="#ffffff" stroke="transparent" points="161.5,-87.2 161.5,-106.2 237.5,-106.2 237.5,-87.2 161.5,-87.2"/>
<polygon fill="none" stroke="#000000" points="161.5,-87.2 161.5,-106.2 237.5,-106.2 237.5,-87.2 161.5,-87.2"/>
<text text-anchor="start" x="206.6755" y="-93.3" font-family="Helvetica,sans-Serif" font-size="11.00" fill="#000000">596 &gt;</text>
</a>
</g>
</g>
<!-- inscricao_lista_espera_filiacoes&#45;&gt;inscricao_lista_espera_situacoes -->
<g id="edge1" class="edge">
<title>inscricao_lista_espera_filiacoes:w&#45;&gt;inscricao_lista_espera_situacoes:e</title>
<path fill="none" stroke="#000000" stroke-dasharray="5,2" d="M274.5846,-74.9466C257.402,-90.0798 268.4886,-136.2 237.5,-136.2"/>
<polygon fill="#000000" stroke="#000000" points="280.9284,-72.7827 289.6622,-73.6072 284.7142,-71.4914 288.5,-70.2 288.5,-70.2 288.5,-70.2 284.7142,-71.4914 287.3378,-66.7928 280.9284,-72.7827 280.9284,-72.7827"/>
<ellipse fill="none" stroke="#000000" cx="277.8997" cy="-73.8158" rx="3.2" ry="3.2"/>
</g>
<!-- inscricao_lista_espera_filiacoes&#45;&gt;inscricao_lista_espera_situacoes -->
<g id="edge2" class="edge">
<title>inscricao_lista_espera_filiacoes:w&#45;&gt;inscricao_lista_espera_situacoes:e</title>
<path fill="none" stroke="#000000" stroke-dasharray="5,2" d="M273.776,-136.2C261.7815,-136.2 254.3229,-136.2 237.5,-136.2"/>
<polygon fill="#000000" stroke="#000000" points="280.5,-136.2001 288.5,-139.8 284.5,-136.2 288.5,-136.2 288.5,-136.2 288.5,-136.2 284.5,-136.2 288.5,-132.6 280.5,-136.2001 280.5,-136.2001"/>
<ellipse fill="none" stroke="#000000" cx="277.3" cy="-136.2001" rx="3.2" ry="3.2"/>
</g>
<!-- inscricao_lista_espera_filiacoes&#45;&gt;inscricao_lista_espera_situacoes -->
<g id="edge3" class="edge">
<title>inscricao_lista_espera_filiacoes:w&#45;&gt;inscricao_lista_espera_situacoes:e</title>
<path fill="none" stroke="#000000" stroke-dasharray="5,2" d="M274.3489,-155.141C261.7843,-149.096 256.4,-136.2 237.5,-136.2"/>
<polygon fill="#000000" stroke="#000000" points="280.6806,-156.5097 287.7393,-161.7187 284.5903,-157.3548 288.5,-158.2 288.5,-158.2 288.5,-158.2 284.5903,-157.3548 289.2607,-154.6813 280.6806,-156.5097 280.6806,-156.5097"/>
<ellipse fill="none" stroke="#000000" cx="277.5528" cy="-155.8335" rx="3.2" ry="3.2"/>
</g>
</g>
</svg>
