<?xml version="1.0" encoding="UTF-8" standalone="no"?>
<!DOCTYPE svg PUBLIC "-//W3C//DTD SVG 1.1//EN"
 "http://www.w3.org/Graphics/SVG/1.1/DTD/svg11.dtd">
<!-- Generated by graphviz version 2.40.1 (20161225.0304)
 -->
<!-- Title: oneDegreeRelationshipsDiagram Pages: 1 -->
<svg width="468pt" height="162pt"
 viewBox="0.00 0.00 468.00 162.20" xmlns="http://www.w3.org/2000/svg" xmlns:xlink="http://www.w3.org/1999/xlink">
<g id="graph0" class="graph" transform="scale(1 1) rotate(0) translate(4 158.2)">
<title>oneDegreeRelationshipsDiagram</title>
<polygon fill="#ffffff" stroke="transparent" points="-4,4 -4,-158.2 464,-158.2 464,4 -4,4"/>
<text text-anchor="middle" x="72.4936" y="-7.3" font-family="Helvetica,sans-Serif" font-size="11.00" fill="#000000">Generated by SchemaSpy</text>
<!-- inscricao_lista_espera_situacoes -->
<g id="node1" class="node">
<title>inscricao_lista_espera_situacoes</title>
<g id="a_node1"><a xlink:href="../../tables/inscricao_lista_espera_situacoes.html" xlink:title="inscricao_lista_espera_situacoes" target="_top">
<polygon fill="#ffffff" stroke="transparent" points="8,-38.2 8,-150.2 452,-150.2 452,-38.2 8,-38.2"/>
<polygon fill="#f5f5f5" stroke="transparent" points="10,-125.2 10,-148.2 450,-148.2 450,-125.2 10,-125.2"/>
<polygon fill="none" stroke="#000000" points="10,-125.2 10,-148.2 450,-148.2 450,-125.2 10,-125.2"/>
<text text-anchor="start" x="15" y="-133.8" font-family="Helvetica,sans-Serif" font-weight="bold" font-size="11.00" fill="#000000">inscricao_lista_espera_situacoes</text>
<text text-anchor="start" x="415.0437" y="-133.3" font-family="Helvetica,sans-Serif" font-size="11.00" fill="#000000">[table]</text>
<polygon fill="none" stroke="#000000" points="10,-103.2 10,-125.2 221,-125.2 221,-103.2 10,-103.2"/>
<image xlink:href="../../images/primaryKeys.png" width="11px" height="12px" preserveAspectRatio="xMinYMin meet" x="15" y="-120.2"/>
<text text-anchor="start" x="30" y="-110.3" font-family="Helvetica,sans-Serif" font-size="11.00" fill="#000000">id</text>
<polygon fill="none" stroke="#000000" points="221,-103.2 221,-125.2 450,-125.2 450,-103.2 221,-103.2"/>
<text text-anchor="start" x="224" y="-110.9" font-family="Helvetica,sans-Serif" font-size="11.00" fill="#000000">int4[10]</text>
<polygon fill="none" stroke="#000000" points="10,-81.2 10,-103.2 221,-103.2 221,-81.2 10,-81.2"/>
<text text-anchor="start" x="30" y="-88.3" font-family="Helvetica,sans-Serif" font-size="11.00" fill="#000000">situacao</text>
<polygon fill="none" stroke="#000000" points="221,-81.2 221,-103.2 450,-103.2 450,-81.2 221,-81.2"/>
<text text-anchor="start" x="223.7648" y="-88.9" font-family="Helvetica,sans-Serif" font-size="11.00" fill="#000000">&quot;educacao&quot;.&quot;situacoesinscricao&quot;[2147483647]</text>
<polygon fill="none" stroke="#000000" points="10,-59.2 10,-81.2 221,-81.2 221,-59.2 10,-59.2"/>
<text text-anchor="start" x="30" y="-66.3" font-family="Helvetica,sans-Serif" font-size="11.00" fill="#000000">motivo</text>
<polygon fill="none" stroke="#000000" points="221,-59.2 221,-81.2 450,-81.2 450,-59.2 221,-59.2"/>
<text text-anchor="start" x="224" y="-66.9" font-family="Helvetica,sans-Serif" font-size="11.00" fill="#000000">varchar[2147483647]</text>
<polygon fill="#ffffff" stroke="transparent" points="10,-40.2 10,-59.2 120,-59.2 120,-40.2 10,-40.2"/>
<polygon fill="none" stroke="#000000" points="10,-40.2 10,-59.2 120,-59.2 120,-40.2 10,-40.2"/>
<text text-anchor="start" x="13" y="-46.3" font-family="Helvetica,sans-Serif" font-size="11.00" fill="#000000">&lt; 0</text>
<polygon fill="#ffffff" stroke="transparent" points="120,-40.2 120,-59.2 221,-59.2 221,-40.2 120,-40.2"/>
<polygon fill="none" stroke="#000000" points="120,-40.2 120,-59.2 221,-59.2 221,-40.2 120,-40.2"/>
<text text-anchor="start" x="211.8862" y="-46.3" font-family="Helvetica,sans-Serif" font-size="11.00" fill="#000000"> &#160;</text>
<polygon fill="#ffffff" stroke="transparent" points="221,-40.2 221,-59.2 450,-59.2 450,-40.2 221,-40.2"/>
<polygon fill="none" stroke="#000000" points="221,-40.2 221,-59.2 450,-59.2 450,-40.2 221,-40.2"/>
<text text-anchor="start" x="431.4053" y="-46.3" font-family="Helvetica,sans-Serif" font-size="11.00" fill="#000000">0 &gt;</text>
<polygon fill="none" stroke="#000000" stroke-width="2" points="9,-39.2 9,-149.2 451,-149.2 451,-39.2 9,-39.2"/>
</a>
</g>
</g>
</g>
</svg>
