<?xml version="1.0" encoding="UTF-8" standalone="no"?>
<!DOCTYPE svg PUBLIC "-//W3C//DTD SVG 1.1//EN"
 "http://www.w3.org/Graphics/SVG/1.1/DTD/svg11.dtd">
<!-- Generated by graphviz version 2.40.1 (20161225.0304)
 -->
<!-- Title: oneDegreeRelationshipsDiagram Pages: 1 -->
<svg width="513pt" height="250pt"
 viewBox="0.00 0.00 513.00 250.20" xmlns="http://www.w3.org/2000/svg" xmlns:xlink="http://www.w3.org/1999/xlink">
<g id="graph0" class="graph" transform="scale(1 1) rotate(0) translate(4 246.2)">
<title>oneDegreeRelationshipsDiagram</title>
<polygon fill="#ffffff" stroke="transparent" points="-4,4 -4,-246.2 509,-246.2 509,4 -4,4"/>
<text text-anchor="middle" x="72.4936" y="-7.3" font-family="Helvetica,sans-Serif" font-size="11.00" fill="#000000">Generated by SchemaSpy</text>
<!-- inscricao_etapa_estabelecimento_turnos -->
<g id="node1" class="node">
<title>inscricao_etapa_estabelecimento_turnos</title>
<g id="a_node1"><a xlink:href="../../tables/inscricao_etapa_estabelecimento_turnos.html" xlink:title="inscricao_etapa_estabelecimento_turnos" target="_top">
<polygon fill="#ffffff" stroke="transparent" points="8,-38.2 8,-238.2 497,-238.2 497,-38.2 8,-38.2"/>
<polygon fill="#f5f5f5" stroke="transparent" points="10.5,-213.2 10.5,-236.2 495.5,-236.2 495.5,-213.2 10.5,-213.2"/>
<polygon fill="none" stroke="#000000" points="10.5,-213.2 10.5,-236.2 495.5,-236.2 495.5,-213.2 10.5,-213.2"/>
<text text-anchor="start" x="15.5" y="-221.8" font-family="Helvetica,sans-Serif" font-weight="bold" font-size="11.00" fill="#000000">inscricao_etapa_estabelecimento_turnos</text>
<text text-anchor="start" x="460.5437" y="-221.3" font-family="Helvetica,sans-Serif" font-size="11.00" fill="#000000">[table]</text>
<polygon fill="none" stroke="#000000" points="10.5,-191.2 10.5,-213.2 266.5,-213.2 266.5,-191.2 10.5,-191.2"/>
<text text-anchor="start" x="30.5" y="-198.3" font-family="Helvetica,sans-Serif" font-size="11.00" fill="#000000">sistema</text>
<polygon fill="none" stroke="#000000" points="266.5,-191.2 266.5,-213.2 495.5,-213.2 495.5,-191.2 266.5,-191.2"/>
<text text-anchor="start" x="269.5" y="-198.9" font-family="Helvetica,sans-Serif" font-size="11.00" fill="#000000">int4[10]</text>
<polygon fill="none" stroke="#000000" points="10.5,-169.2 10.5,-191.2 266.5,-191.2 266.5,-169.2 10.5,-169.2"/>
<text text-anchor="start" x="30.5" y="-176.3" font-family="Helvetica,sans-Serif" font-size="11.00" fill="#000000">tipo_registro</text>
<polygon fill="none" stroke="#000000" points="266.5,-169.2 266.5,-191.2 495.5,-191.2 495.5,-169.2 266.5,-169.2"/>
<text text-anchor="start" x="269.5" y="-176.9" font-family="Helvetica,sans-Serif" font-size="11.00" fill="#000000">text[2147483647]</text>
<polygon fill="none" stroke="#000000" points="10.5,-147.2 10.5,-169.2 266.5,-169.2 266.5,-147.2 10.5,-147.2"/>
<image xlink:href="../../images/foreignKeys.png" width="11px" height="12px" preserveAspectRatio="xMinYMin meet" x="15.5" y="-164.2"/>
<text text-anchor="start" x="30.5" y="-154.3" font-family="Helvetica,sans-Serif" font-size="11.00" fill="#000000">inscricao_etapa_estabelecimento_id</text>
<polygon fill="none" stroke="#000000" points="266.5,-147.2 266.5,-169.2 495.5,-169.2 495.5,-147.2 266.5,-147.2"/>
<text text-anchor="start" x="269.5" y="-154.9" font-family="Helvetica,sans-Serif" font-size="11.00" fill="#000000">int4[10]</text>
<polygon fill="none" stroke="#000000" points="10.5,-125.2 10.5,-147.2 266.5,-147.2 266.5,-125.2 10.5,-125.2"/>
<text text-anchor="start" x="30.5" y="-132.3" font-family="Helvetica,sans-Serif" font-size="11.00" fill="#000000">turno</text>
<polygon fill="none" stroke="#000000" points="266.5,-125.2 266.5,-147.2 495.5,-147.2 495.5,-125.2 266.5,-125.2"/>
<text text-anchor="start" x="269.5" y="-132.9" font-family="Helvetica,sans-Serif" font-size="11.00" fill="#000000">&quot;educacao&quot;.&quot;turnos&quot;[2147483647]</text>
<polygon fill="none" stroke="#000000" points="10.5,-103.2 10.5,-125.2 266.5,-125.2 266.5,-103.2 10.5,-103.2"/>
<text text-anchor="start" x="30.5" y="-110.3" font-family="Helvetica,sans-Serif" font-size="11.00" fill="#000000">data_insc_turno</text>
<polygon fill="none" stroke="#000000" points="266.5,-103.2 266.5,-125.2 495.5,-125.2 495.5,-103.2 266.5,-103.2"/>
<text text-anchor="start" x="269.5" y="-110.9" font-family="Helvetica,sans-Serif" font-size="11.00" fill="#000000">timestamp[29,6]</text>
<polygon fill="none" stroke="#000000" points="10.5,-81.2 10.5,-103.2 266.5,-103.2 266.5,-81.2 10.5,-81.2"/>
<text text-anchor="start" x="30.5" y="-88.3" font-family="Helvetica,sans-Serif" font-size="11.00" fill="#000000">situacao</text>
<polygon fill="none" stroke="#000000" points="266.5,-81.2 266.5,-103.2 495.5,-103.2 495.5,-81.2 266.5,-81.2"/>
<text text-anchor="start" x="269.2648" y="-88.9" font-family="Helvetica,sans-Serif" font-size="11.00" fill="#000000">&quot;educacao&quot;.&quot;situacoesinscricao&quot;[2147483647]</text>
<polygon fill="none" stroke="#000000" points="10.5,-59.2 10.5,-81.2 266.5,-81.2 266.5,-59.2 10.5,-59.2"/>
<text text-anchor="start" x="30.5" y="-66.3" font-family="Helvetica,sans-Serif" font-size="11.00" fill="#000000">motivo</text>
<polygon fill="none" stroke="#000000" points="266.5,-59.2 266.5,-81.2 495.5,-81.2 495.5,-59.2 266.5,-59.2"/>
<text text-anchor="start" x="269.5" y="-66.9" font-family="Helvetica,sans-Serif" font-size="11.00" fill="#000000">varchar[2147483647]</text>
<polygon fill="#ffffff" stroke="transparent" points="10.5,-40.2 10.5,-59.2 142.5,-59.2 142.5,-40.2 10.5,-40.2"/>
<polygon fill="none" stroke="#000000" points="10.5,-40.2 10.5,-59.2 142.5,-59.2 142.5,-40.2 10.5,-40.2"/>
<text text-anchor="start" x="13.5" y="-46.3" font-family="Helvetica,sans-Serif" font-size="11.00" fill="#000000">&lt; 0</text>
<polygon fill="#ffffff" stroke="transparent" points="142.5,-40.2 142.5,-59.2 266.5,-59.2 266.5,-40.2 142.5,-40.2"/>
<polygon fill="none" stroke="#000000" points="142.5,-40.2 142.5,-59.2 266.5,-59.2 266.5,-40.2 142.5,-40.2"/>
<text text-anchor="start" x="257.3862" y="-46.3" font-family="Helvetica,sans-Serif" font-size="11.00" fill="#000000"> &#160;</text>
<polygon fill="#ffffff" stroke="transparent" points="266.5,-40.2 266.5,-59.2 495.5,-59.2 495.5,-40.2 266.5,-40.2"/>
<polygon fill="none" stroke="#000000" points="266.5,-40.2 266.5,-59.2 495.5,-59.2 495.5,-40.2 266.5,-40.2"/>
<text text-anchor="start" x="476.9053" y="-46.3" font-family="Helvetica,sans-Serif" font-size="11.00" fill="#000000">0 &gt;</text>
<polygon fill="none" stroke="#000000" stroke-width="2" points="9,-39.2 9,-237.2 496,-237.2 496,-39.2 9,-39.2"/>
</a>
</g>
</g>
</g>
</svg>
