<?xml version="1.0" encoding="UTF-8" standalone="no"?>
<!DOCTYPE svg PUBLIC "-//W3C//DTD SVG 1.1//EN"
 "http://www.w3.org/Graphics/SVG/1.1/DTD/svg11.dtd">
<!-- Generated by graphviz version 2.40.1 (20161225.0304)
 -->
<!-- Title: oneDegreeRelationshipsDiagramImplied Pages: 1 -->
<svg width="796pt" height="272pt"
 viewBox="0.00 0.00 796.00 272.20" xmlns="http://www.w3.org/2000/svg" xmlns:xlink="http://www.w3.org/1999/xlink">
<g id="graph0" class="graph" transform="scale(1 1) rotate(0) translate(4 268.2)">
<title>oneDegreeRelationshipsDiagramImplied</title>
<polygon fill="#ffffff" stroke="transparent" points="-4,4 -4,-268.2 792,-268.2 792,4 -4,4"/>
<text text-anchor="middle" x="72.4936" y="-7.3" font-family="Helvetica,sans-Serif" font-size="11.00" fill="#000000">Generated by SchemaSpy</text>
<!-- inscricao_etapa_estabelecimentos -->
<g id="node1" class="node">
<title>inscricao_etapa_estabelecimentos</title>
<g id="a_node1"><a xlink:href="../../tables/inscricao_etapa_estabelecimentos.html" xlink:title="inscricao_etapa_estabelecimentos" target="_top">
<polygon fill="#ffffff" stroke="transparent" points="286,-38.2 286,-260.2 780,-260.2 780,-38.2 286,-38.2"/>
<polygon fill="#f5f5f5" stroke="transparent" points="288,-235.2 288,-258.2 778,-258.2 778,-235.2 288,-235.2"/>
<polygon fill="none" stroke="#000000" points="288,-235.2 288,-258.2 778,-258.2 778,-235.2 288,-235.2"/>
<text text-anchor="start" x="293" y="-243.8" font-family="Helvetica,sans-Serif" font-weight="bold" font-size="11.00" fill="#000000">inscricao_etapa_estabelecimentos</text>
<text text-anchor="start" x="743.0437" y="-243.3" font-family="Helvetica,sans-Serif" font-size="11.00" fill="#000000">[table]</text>
<polygon fill="none" stroke="#000000" points="288,-213.2 288,-235.2 549,-235.2 549,-213.2 288,-213.2"/>
<text text-anchor="start" x="308" y="-220.3" font-family="Helvetica,sans-Serif" font-size="11.00" fill="#000000">sistema</text>
<polygon fill="none" stroke="#000000" points="549,-213.2 549,-235.2 778,-235.2 778,-213.2 549,-213.2"/>
<text text-anchor="start" x="552" y="-220.9" font-family="Helvetica,sans-Serif" font-size="11.00" fill="#000000">int4[10]</text>
<polygon fill="none" stroke="#000000" points="288,-191.2 288,-213.2 549,-213.2 549,-191.2 288,-191.2"/>
<text text-anchor="start" x="308" y="-198.3" font-family="Helvetica,sans-Serif" font-size="11.00" fill="#000000">tipo_registro</text>
<polygon fill="none" stroke="#000000" points="549,-191.2 549,-213.2 778,-213.2 778,-191.2 549,-191.2"/>
<text text-anchor="start" x="552" y="-198.9" font-family="Helvetica,sans-Serif" font-size="11.00" fill="#000000">text[2147483647]</text>
<polygon fill="none" stroke="#000000" points="288,-169.2 288,-191.2 549,-191.2 549,-169.2 288,-169.2"/>
<image xlink:href="../../images/foreignKeys.png" width="11px" height="12px" preserveAspectRatio="xMinYMin meet" x="293" y="-186.2"/>
<text text-anchor="start" x="308" y="-176.3" font-family="Helvetica,sans-Serif" font-size="11.00" fill="#000000">id</text>
<polygon fill="none" stroke="#000000" points="549,-169.2 549,-191.2 778,-191.2 778,-169.2 549,-169.2"/>
<text text-anchor="start" x="552" y="-176.9" font-family="Helvetica,sans-Serif" font-size="11.00" fill="#000000">int4[10]</text>
<polygon fill="none" stroke="#000000" points="288,-147.2 288,-169.2 549,-169.2 549,-147.2 288,-147.2"/>
<image xlink:href="../../images/foreignKeys.png" width="11px" height="12px" preserveAspectRatio="xMinYMin meet" x="293" y="-164.2"/>
<text text-anchor="start" x="308" y="-154.3" font-family="Helvetica,sans-Serif" font-size="11.00" fill="#000000">inscricao_etapa_id</text>
<polygon fill="none" stroke="#000000" points="549,-147.2 549,-169.2 778,-169.2 778,-147.2 549,-147.2"/>
<text text-anchor="start" x="552" y="-154.9" font-family="Helvetica,sans-Serif" font-size="11.00" fill="#000000">int4[10]</text>
<polygon fill="none" stroke="#000000" points="288,-125.2 288,-147.2 549,-147.2 549,-125.2 288,-125.2"/>
<image xlink:href="../../images/foreignKeys.png" width="11px" height="12px" preserveAspectRatio="xMinYMin meet" x="293" y="-142.2"/>
<text text-anchor="start" x="308" y="-132.3" font-family="Helvetica,sans-Serif" font-size="11.00" fill="#000000">configuracao_estabelecimento_origem_id</text>
<polygon fill="none" stroke="#000000" points="549,-125.2 549,-147.2 778,-147.2 778,-125.2 549,-125.2"/>
<text text-anchor="start" x="552" y="-132.9" font-family="Helvetica,sans-Serif" font-size="11.00" fill="#000000">int4[10]</text>
<polygon fill="none" stroke="#000000" points="288,-103.2 288,-125.2 549,-125.2 549,-103.2 288,-103.2"/>
<text text-anchor="start" x="308" y="-110.3" font-family="Helvetica,sans-Serif" font-size="11.00" fill="#000000">data_insc_estab</text>
<polygon fill="none" stroke="#000000" points="549,-103.2 549,-125.2 778,-125.2 778,-103.2 549,-103.2"/>
<text text-anchor="start" x="552" y="-110.9" font-family="Helvetica,sans-Serif" font-size="11.00" fill="#000000">timestamp[29,6]</text>
<polygon fill="none" stroke="#000000" points="288,-81.2 288,-103.2 549,-103.2 549,-81.2 288,-81.2"/>
<text text-anchor="start" x="308" y="-88.3" font-family="Helvetica,sans-Serif" font-size="11.00" fill="#000000">situacao</text>
<polygon fill="none" stroke="#000000" points="549,-81.2 549,-103.2 778,-103.2 778,-81.2 549,-81.2"/>
<text text-anchor="start" x="551.7647" y="-88.9" font-family="Helvetica,sans-Serif" font-size="11.00" fill="#000000">&quot;educacao&quot;.&quot;situacoesinscricao&quot;[2147483647]</text>
<polygon fill="none" stroke="#000000" points="288,-59.2 288,-81.2 549,-81.2 549,-59.2 288,-59.2"/>
<text text-anchor="start" x="308" y="-66.3" font-family="Helvetica,sans-Serif" font-size="11.00" fill="#000000">motivo</text>
<polygon fill="none" stroke="#000000" points="549,-59.2 549,-81.2 778,-81.2 778,-59.2 549,-59.2"/>
<text text-anchor="start" x="552" y="-66.9" font-family="Helvetica,sans-Serif" font-size="11.00" fill="#000000">varchar[2147483647]</text>
<polygon fill="#ffffff" stroke="transparent" points="288,-40.2 288,-59.2 423,-59.2 423,-40.2 288,-40.2"/>
<polygon fill="none" stroke="#000000" points="288,-40.2 288,-59.2 423,-59.2 423,-40.2 288,-40.2"/>
<text text-anchor="start" x="291" y="-46.3" font-family="Helvetica,sans-Serif" font-size="11.00" fill="#000000">&lt; 3</text>
<polygon fill="#ffffff" stroke="transparent" points="423,-40.2 423,-59.2 549,-59.2 549,-40.2 423,-40.2"/>
<polygon fill="none" stroke="#000000" points="423,-40.2 423,-59.2 549,-59.2 549,-40.2 423,-40.2"/>
<text text-anchor="start" x="539.8862" y="-46.3" font-family="Helvetica,sans-Serif" font-size="11.00" fill="#000000"> &#160;</text>
<polygon fill="#ffffff" stroke="transparent" points="549,-40.2 549,-59.2 778,-59.2 778,-40.2 549,-40.2"/>
<polygon fill="none" stroke="#000000" points="549,-40.2 549,-59.2 778,-59.2 778,-40.2 549,-40.2"/>
<text text-anchor="start" x="759.4053" y="-46.3" font-family="Helvetica,sans-Serif" font-size="11.00" fill="#000000">0 &gt;</text>
<polygon fill="none" stroke="#000000" stroke-width="2" points="287,-39.2 287,-259.2 779,-259.2 779,-39.2 287,-39.2"/>
</a>
</g>
</g>
<!-- inscricao_lista_espera_situacoes -->
<g id="node2" class="node">
<title>inscricao_lista_espera_situacoes</title>
<g id="a_node2"><a xlink:href="../../tables/inscricao_lista_espera_situacoes.html" xlink:title="inscricao_lista_espera_situacoes" target="_top">
<polygon fill="#ffffff" stroke="transparent" points="8,-109.7 8,-192.7 237,-192.7 237,-109.7 8,-109.7"/>
<polygon fill="#f5f5f5" stroke="transparent" points="8.5,-169.2 8.5,-192.2 237.5,-192.2 237.5,-169.2 8.5,-169.2"/>
<polygon fill="none" stroke="#000000" points="8.5,-169.2 8.5,-192.2 237.5,-192.2 237.5,-169.2 8.5,-169.2"/>
<text text-anchor="start" x="13.5" y="-177.8" font-family="Helvetica,sans-Serif" font-weight="bold" font-size="11.00" fill="#000000">inscricao_lista_espera_situacoes</text>
<text text-anchor="start" x="203.0219" y="-177.3" font-family="Helvetica,sans-Serif" font-size="11.00" fill="#000000">[table]</text>
<polygon fill="none" stroke="#000000" points="8.5,-147.2 8.5,-169.2 237.5,-169.2 237.5,-147.2 8.5,-147.2"/>
<image xlink:href="../../images/primaryKeys.png" width="11px" height="12px" preserveAspectRatio="xMinYMin meet" x="13.5" y="-164.2"/>
<text text-anchor="start" x="37.5" y="-154.3" font-family="Helvetica,sans-Serif" font-size="11.00" fill="#000000">id</text>
<polygon fill="none" stroke="#000000" points="8.5,-128.2 8.5,-147.2 237.5,-147.2 237.5,-128.2 8.5,-128.2"/>
<text text-anchor="start" x="11.5" y="-134.3" font-family="Helvetica,sans-Serif" font-size="11.00" fill="#000000">...</text>
<polygon fill="#ffffff" stroke="transparent" points="8.5,-109.2 8.5,-128.2 106.5,-128.2 106.5,-109.2 8.5,-109.2"/>
<polygon fill="none" stroke="#000000" points="8.5,-109.2 8.5,-128.2 106.5,-128.2 106.5,-109.2 8.5,-109.2"/>
<text text-anchor="start" x="11.5" y="-115.3" font-family="Helvetica,sans-Serif" font-size="11.00" fill="#000000"> &#160;</text>
<polygon fill="#ffffff" stroke="transparent" points="106.5,-109.2 106.5,-128.2 161.5,-128.2 161.5,-109.2 106.5,-109.2"/>
<polygon fill="none" stroke="#000000" points="106.5,-109.2 106.5,-128.2 161.5,-128.2 161.5,-109.2 106.5,-109.2"/>
<text text-anchor="start" x="152.3862" y="-115.3" font-family="Helvetica,sans-Serif" font-size="11.00" fill="#000000"> &#160;</text>
<polygon fill="#ffffff" stroke="transparent" points="161.5,-109.2 161.5,-128.2 237.5,-128.2 237.5,-109.2 161.5,-109.2"/>
<polygon fill="none" stroke="#000000" points="161.5,-109.2 161.5,-128.2 237.5,-128.2 237.5,-109.2 161.5,-109.2"/>
<text text-anchor="start" x="206.6755" y="-115.3" font-family="Helvetica,sans-Serif" font-size="11.00" fill="#000000">596 &gt;</text>
</a>
</g>
</g>
<!-- inscricao_etapa_estabelecimentos&#45;&gt;inscricao_lista_espera_situacoes -->
<g id="edge1" class="edge">
<title>inscricao_etapa_estabelecimentos:w&#45;&gt;inscricao_lista_espera_situacoes:e</title>
<path fill="none" stroke="#000000" stroke-dasharray="5,2" d="M273.5981,-139.4462C261.4282,-145.5658 256.0526,-158.2 237.5,-158.2"/>
<polygon fill="#000000" stroke="#000000" points="280.1958,-137.9591 288.7916,-139.7119 284.0979,-137.0796 288,-136.2 288,-136.2 288,-136.2 284.0979,-137.0796 287.2084,-132.6881 280.1958,-137.9591 280.1958,-137.9591"/>
<ellipse fill="none" stroke="#000000" cx="277.0741" cy="-138.6627" rx="3.2" ry="3.2"/>
</g>
<!-- inscricao_etapa_estabelecimentos&#45;&gt;inscricao_lista_espera_situacoes -->
<g id="edge2" class="edge">
<title>inscricao_etapa_estabelecimentos:w&#45;&gt;inscricao_lista_espera_situacoes:e</title>
<path fill="none" stroke="#000000" stroke-dasharray="5,2" d="M273.5981,-176.9538C261.4282,-170.8342 256.0526,-158.2 237.5,-158.2"/>
<polygon fill="#000000" stroke="#000000" points="280.1958,-178.4409 287.2084,-183.7119 284.0979,-179.3204 288,-180.2 288,-180.2 288,-180.2 284.0979,-179.3204 288.7916,-176.6881 280.1958,-178.4409 280.1958,-178.4409"/>
<ellipse fill="none" stroke="#000000" cx="277.0741" cy="-177.7373" rx="3.2" ry="3.2"/>
</g>
<!-- inscricao_etapa_estabelecimentos&#45;&gt;inscricao_lista_espera_situacoes -->
<g id="edge3" class="edge">
<title>inscricao_etapa_estabelecimentos:w&#45;&gt;inscricao_lista_espera_situacoes:e</title>
<path fill="none" stroke="#000000" stroke-dasharray="5,2" d="M273.4203,-158.2C261.5435,-158.2 254.158,-158.2 237.5,-158.2"/>
<polygon fill="#000000" stroke="#000000" points="280,-158.2001 288,-161.8 284,-158.2 288,-158.2 288,-158.2 288,-158.2 284,-158.2 288,-154.6 280,-158.2001 280,-158.2001"/>
<ellipse fill="none" stroke="#000000" cx="276.8" cy="-158.2001" rx="3.2" ry="3.2"/>
</g>
</g>
</svg>
