<?xml version="1.0" encoding="UTF-8" standalone="no"?>
<!DOCTYPE svg PUBLIC "-//W3C//DTD SVG 1.1//EN"
 "http://www.w3.org/Graphics/SVG/1.1/DTD/svg11.dtd">
<!-- Generated by graphviz version 2.40.1 (20161225.0304)
 -->
<!-- Title: oneDegreeRelationshipsDiagramImplied Pages: 1 -->
<svg width="809pt" height="272pt"
 viewBox="0.00 0.00 809.00 272.20" xmlns="http://www.w3.org/2000/svg" xmlns:xlink="http://www.w3.org/1999/xlink">
<g id="graph0" class="graph" transform="scale(1 1) rotate(0) translate(4 268.2)">
<title>oneDegreeRelationshipsDiagramImplied</title>
<polygon fill="#ffffff" stroke="transparent" points="-4,4 -4,-268.2 805,-268.2 805,4 -4,4"/>
<text text-anchor="middle" x="72.4936" y="-7.3" font-family="Helvetica,sans-Serif" font-size="11.00" fill="#000000">Generated by SchemaSpy</text>
<!-- inscricao_etapas -->
<g id="node1" class="node">
<title>inscricao_etapas</title>
<g id="a_node1"><a xlink:href="../../tables/inscricao_etapas.html" xlink:title="inscricao_etapas" target="_top">
<polygon fill="#ffffff" stroke="transparent" points="286,-38.2 286,-260.2 793,-260.2 793,-38.2 286,-38.2"/>
<polygon fill="#f5f5f5" stroke="transparent" points="288.5,-235.2 288.5,-258.2 791.5,-258.2 791.5,-235.2 288.5,-235.2"/>
<polygon fill="none" stroke="#000000" points="288.5,-235.2 288.5,-258.2 791.5,-258.2 791.5,-235.2 288.5,-235.2"/>
<text text-anchor="start" x="293.5" y="-243.8" font-family="Helvetica,sans-Serif" font-weight="bold" font-size="11.00" fill="#000000">inscricao_etapas</text>
<text text-anchor="start" x="756.5437" y="-243.3" font-family="Helvetica,sans-Serif" font-size="11.00" fill="#000000">[table]</text>
<polygon fill="none" stroke="#000000" points="288.5,-213.2 288.5,-235.2 562.5,-235.2 562.5,-213.2 288.5,-213.2"/>
<text text-anchor="start" x="308.5" y="-220.3" font-family="Helvetica,sans-Serif" font-size="11.00" fill="#000000">sistema</text>
<polygon fill="none" stroke="#000000" points="562.5,-213.2 562.5,-235.2 791.5,-235.2 791.5,-213.2 562.5,-213.2"/>
<text text-anchor="start" x="565.5" y="-220.9" font-family="Helvetica,sans-Serif" font-size="11.00" fill="#000000">int4[10]</text>
<polygon fill="none" stroke="#000000" points="288.5,-191.2 288.5,-213.2 562.5,-213.2 562.5,-191.2 288.5,-191.2"/>
<text text-anchor="start" x="308.5" y="-198.3" font-family="Helvetica,sans-Serif" font-size="11.00" fill="#000000">tipo_registro</text>
<polygon fill="none" stroke="#000000" points="562.5,-191.2 562.5,-213.2 791.5,-213.2 791.5,-191.2 562.5,-191.2"/>
<text text-anchor="start" x="565.5" y="-198.9" font-family="Helvetica,sans-Serif" font-size="11.00" fill="#000000">text[2147483647]</text>
<polygon fill="none" stroke="#000000" points="288.5,-169.2 288.5,-191.2 562.5,-191.2 562.5,-169.2 288.5,-169.2"/>
<image xlink:href="../../images/foreignKeys.png" width="11px" height="12px" preserveAspectRatio="xMinYMin meet" x="293.5" y="-186.2"/>
<text text-anchor="start" x="308.5" y="-176.3" font-family="Helvetica,sans-Serif" font-size="11.00" fill="#000000">id</text>
<polygon fill="none" stroke="#000000" points="562.5,-169.2 562.5,-191.2 791.5,-191.2 791.5,-169.2 562.5,-169.2"/>
<text text-anchor="start" x="565.5" y="-176.9" font-family="Helvetica,sans-Serif" font-size="11.00" fill="#000000">int4[10]</text>
<polygon fill="none" stroke="#000000" points="288.5,-147.2 288.5,-169.2 562.5,-169.2 562.5,-147.2 288.5,-147.2"/>
<text text-anchor="start" x="308.5" y="-154.3" font-family="Helvetica,sans-Serif" font-size="11.00" fill="#000000">situacao</text>
<polygon fill="none" stroke="#000000" points="562.5,-147.2 562.5,-169.2 791.5,-169.2 791.5,-147.2 562.5,-147.2"/>
<text text-anchor="start" x="565.2647" y="-154.9" font-family="Helvetica,sans-Serif" font-size="11.00" fill="#000000">&quot;educacao&quot;.&quot;situacoesinscricao&quot;[2147483647]</text>
<polygon fill="none" stroke="#000000" points="288.5,-125.2 288.5,-147.2 562.5,-147.2 562.5,-125.2 288.5,-125.2"/>
<text text-anchor="start" x="308.5" y="-132.3" font-family="Helvetica,sans-Serif" font-size="11.00" fill="#000000">motivo</text>
<polygon fill="none" stroke="#000000" points="562.5,-125.2 562.5,-147.2 791.5,-147.2 791.5,-125.2 562.5,-125.2"/>
<text text-anchor="start" x="565.5" y="-132.9" font-family="Helvetica,sans-Serif" font-size="11.00" fill="#000000">varchar[2147483647]</text>
<polygon fill="none" stroke="#000000" points="288.5,-103.2 288.5,-125.2 562.5,-125.2 562.5,-103.2 288.5,-103.2"/>
<image xlink:href="../../images/foreignKeys.png" width="11px" height="12px" preserveAspectRatio="xMinYMin meet" x="293.5" y="-120.2"/>
<text text-anchor="start" x="308.5" y="-110.3" font-family="Helvetica,sans-Serif" font-size="11.00" fill="#000000">configuracao_nivel_lista_espera_origem_id</text>
<polygon fill="none" stroke="#000000" points="562.5,-103.2 562.5,-125.2 791.5,-125.2 791.5,-103.2 562.5,-103.2"/>
<text text-anchor="start" x="565.5" y="-110.9" font-family="Helvetica,sans-Serif" font-size="11.00" fill="#000000">int4[10]</text>
<polygon fill="none" stroke="#000000" points="288.5,-81.2 288.5,-103.2 562.5,-103.2 562.5,-81.2 288.5,-81.2"/>
<image xlink:href="../../images/foreignKeys.png" width="11px" height="12px" preserveAspectRatio="xMinYMin meet" x="293.5" y="-98.2"/>
<text text-anchor="start" x="308.5" y="-88.3" font-family="Helvetica,sans-Serif" font-size="11.00" fill="#000000">configuracao_etapa_lista_espera_origem_id</text>
<polygon fill="none" stroke="#000000" points="562.5,-81.2 562.5,-103.2 791.5,-103.2 791.5,-81.2 562.5,-81.2"/>
<text text-anchor="start" x="565.5" y="-88.9" font-family="Helvetica,sans-Serif" font-size="11.00" fill="#000000">int4[10]</text>
<polygon fill="none" stroke="#000000" points="288.5,-59.2 288.5,-81.2 562.5,-81.2 562.5,-59.2 288.5,-59.2"/>
<image xlink:href="../../images/foreignKeys.png" width="11px" height="12px" preserveAspectRatio="xMinYMin meet" x="293.5" y="-76.2"/>
<text text-anchor="start" x="308.5" y="-66.3" font-family="Helvetica,sans-Serif" font-size="11.00" fill="#000000">inscricao_lista_espera_origem_id</text>
<polygon fill="none" stroke="#000000" points="562.5,-59.2 562.5,-81.2 791.5,-81.2 791.5,-59.2 562.5,-59.2"/>
<text text-anchor="start" x="565.5" y="-66.9" font-family="Helvetica,sans-Serif" font-size="11.00" fill="#000000">int4[10]</text>
<polygon fill="#ffffff" stroke="transparent" points="288.5,-40.2 288.5,-59.2 429.5,-59.2 429.5,-40.2 288.5,-40.2"/>
<polygon fill="none" stroke="#000000" points="288.5,-40.2 288.5,-59.2 429.5,-59.2 429.5,-40.2 288.5,-40.2"/>
<text text-anchor="start" x="291.5" y="-46.3" font-family="Helvetica,sans-Serif" font-size="11.00" fill="#000000">&lt; 4</text>
<polygon fill="#ffffff" stroke="transparent" points="429.5,-40.2 429.5,-59.2 562.5,-59.2 562.5,-40.2 429.5,-40.2"/>
<polygon fill="none" stroke="#000000" points="429.5,-40.2 429.5,-59.2 562.5,-59.2 562.5,-40.2 429.5,-40.2"/>
<text text-anchor="start" x="553.3862" y="-46.3" font-family="Helvetica,sans-Serif" font-size="11.00" fill="#000000"> &#160;</text>
<polygon fill="#ffffff" stroke="transparent" points="562.5,-40.2 562.5,-59.2 791.5,-59.2 791.5,-40.2 562.5,-40.2"/>
<polygon fill="none" stroke="#000000" points="562.5,-40.2 562.5,-59.2 791.5,-59.2 791.5,-40.2 562.5,-40.2"/>
<text text-anchor="start" x="772.9053" y="-46.3" font-family="Helvetica,sans-Serif" font-size="11.00" fill="#000000">0 &gt;</text>
<polygon fill="none" stroke="#000000" stroke-width="2" points="287,-39.2 287,-259.2 792,-259.2 792,-39.2 287,-39.2"/>
</a>
</g>
</g>
<!-- inscricao_lista_espera_situacoes -->
<g id="node2" class="node">
<title>inscricao_lista_espera_situacoes</title>
<g id="a_node2"><a xlink:href="../../tables/inscricao_lista_espera_situacoes.html" xlink:title="inscricao_lista_espera_situacoes" target="_top">
<polygon fill="#ffffff" stroke="transparent" points="8,-54.7 8,-137.7 237,-137.7 237,-54.7 8,-54.7"/>
<polygon fill="#f5f5f5" stroke="transparent" points="8.5,-114.2 8.5,-137.2 237.5,-137.2 237.5,-114.2 8.5,-114.2"/>
<polygon fill="none" stroke="#000000" points="8.5,-114.2 8.5,-137.2 237.5,-137.2 237.5,-114.2 8.5,-114.2"/>
<text text-anchor="start" x="13.5" y="-122.8" font-family="Helvetica,sans-Serif" font-weight="bold" font-size="11.00" fill="#000000">inscricao_lista_espera_situacoes</text>
<text text-anchor="start" x="203.0219" y="-122.3" font-family="Helvetica,sans-Serif" font-size="11.00" fill="#000000">[table]</text>
<polygon fill="none" stroke="#000000" points="8.5,-92.2 8.5,-114.2 237.5,-114.2 237.5,-92.2 8.5,-92.2"/>
<image xlink:href="../../images/primaryKeys.png" width="11px" height="12px" preserveAspectRatio="xMinYMin meet" x="13.5" y="-109.2"/>
<text text-anchor="start" x="37.5" y="-99.3" font-family="Helvetica,sans-Serif" font-size="11.00" fill="#000000">id</text>
<polygon fill="none" stroke="#000000" points="8.5,-73.2 8.5,-92.2 237.5,-92.2 237.5,-73.2 8.5,-73.2"/>
<text text-anchor="start" x="11.5" y="-79.3" font-family="Helvetica,sans-Serif" font-size="11.00" fill="#000000">...</text>
<polygon fill="#ffffff" stroke="transparent" points="8.5,-54.2 8.5,-73.2 106.5,-73.2 106.5,-54.2 8.5,-54.2"/>
<polygon fill="none" stroke="#000000" points="8.5,-54.2 8.5,-73.2 106.5,-73.2 106.5,-54.2 8.5,-54.2"/>
<text text-anchor="start" x="11.5" y="-60.3" font-family="Helvetica,sans-Serif" font-size="11.00" fill="#000000"> &#160;</text>
<polygon fill="#ffffff" stroke="transparent" points="106.5,-54.2 106.5,-73.2 161.5,-73.2 161.5,-54.2 106.5,-54.2"/>
<polygon fill="none" stroke="#000000" points="106.5,-54.2 106.5,-73.2 161.5,-73.2 161.5,-54.2 106.5,-54.2"/>
<text text-anchor="start" x="152.3862" y="-60.3" font-family="Helvetica,sans-Serif" font-size="11.00" fill="#000000"> &#160;</text>
<polygon fill="#ffffff" stroke="transparent" points="161.5,-54.2 161.5,-73.2 237.5,-73.2 237.5,-54.2 161.5,-54.2"/>
<polygon fill="none" stroke="#000000" points="161.5,-54.2 161.5,-73.2 237.5,-73.2 237.5,-54.2 161.5,-54.2"/>
<text text-anchor="start" x="206.6755" y="-60.3" font-family="Helvetica,sans-Serif" font-size="11.00" fill="#000000">596 &gt;</text>
</a>
</g>
</g>
<!-- inscricao_etapas&#45;&gt;inscricao_lista_espera_situacoes -->
<g id="edge1" class="edge">
<title>inscricao_etapas:w&#45;&gt;inscricao_lista_espera_situacoes:e</title>
<path fill="none" stroke="#000000" stroke-dasharray="5,2" d="M274.0097,-93.9187C261.8398,-97.0125 254.8909,-103.2 237.5,-103.2"/>
<polygon fill="#000000" stroke="#000000" points="280.5557,-93.1424 288.9241,-95.7749 284.5278,-92.6712 288.5,-92.2 288.5,-92.2 288.5,-92.2 284.5278,-92.6712 288.0759,-88.6251 280.5557,-93.1424 280.5557,-93.1424"/>
<ellipse fill="none" stroke="#000000" cx="277.378" cy="-93.5193" rx="3.2" ry="3.2"/>
</g>
<!-- inscricao_etapas&#45;&gt;inscricao_lista_espera_situacoes -->
<g id="edge2" class="edge">
<title>inscricao_etapas:w&#45;&gt;inscricao_lista_espera_situacoes:e</title>
<path fill="none" stroke="#000000" stroke-dasharray="5,2" d="M274.0097,-112.4813C261.8398,-109.3875 254.8909,-103.2 237.5,-103.2"/>
<polygon fill="#000000" stroke="#000000" points="280.5557,-113.2576 288.0759,-117.7749 284.5278,-113.7288 288.5,-114.2 288.5,-114.2 288.5,-114.2 284.5278,-113.7288 288.9241,-110.6251 280.5557,-113.2576 280.5557,-113.2576"/>
<ellipse fill="none" stroke="#000000" cx="277.378" cy="-112.8807" rx="3.2" ry="3.2"/>
</g>
<!-- inscricao_etapas&#45;&gt;inscricao_lista_espera_situacoes -->
<g id="edge3" class="edge">
<title>inscricao_etapas:w&#45;&gt;inscricao_lista_espera_situacoes:e</title>
<path fill="none" stroke="#000000" stroke-dasharray="5,2" d="M274.5177,-175.6139C255.094,-159.0372 272.4549,-103.2 237.5,-103.2"/>
<polygon fill="#000000" stroke="#000000" points="280.8984,-177.7067 287.378,-183.6207 284.6992,-178.9534 288.5,-180.2 288.5,-180.2 288.5,-180.2 284.6992,-178.9534 289.622,-176.7793 280.8984,-177.7067 280.8984,-177.7067"/>
<ellipse fill="none" stroke="#000000" cx="277.8578" cy="-176.7094" rx="3.2" ry="3.2"/>
</g>
<!-- inscricao_etapas&#45;&gt;inscricao_lista_espera_situacoes -->
<g id="edge4" class="edge">
<title>inscricao_etapas:w&#45;&gt;inscricao_lista_espera_situacoes:e</title>
<path fill="none" stroke="#000000" stroke-dasharray="5,2" d="M274.4604,-74.2464C261.3775,-83.0584 258.5921,-103.2 237.5,-103.2"/>
<polygon fill="#000000" stroke="#000000" points="280.8129,-72.4156 289.497,-73.6592 284.6565,-71.3078 288.5,-70.2 288.5,-70.2 288.5,-70.2 284.6565,-71.3078 287.503,-66.7408 280.8129,-72.4156 280.8129,-72.4156"/>
<ellipse fill="none" stroke="#000000" cx="277.7381" cy="-73.3018" rx="3.2" ry="3.2"/>
</g>
</g>
</svg>
