<?xml version="1.0" encoding="UTF-8" standalone="no"?>
<!DOCTYPE svg PUBLIC "-//W3C//DTD SVG 1.1//EN"
 "http://www.w3.org/Graphics/SVG/1.1/DTD/svg11.dtd">
<!-- Generated by graphviz version 2.40.1 (20161225.0304)
 -->
<!-- Title: oneDegreeRelationshipsDiagramImplied Pages: 1 -->
<svg width="791pt" height="250pt"
 viewBox="0.00 0.00 791.00 250.20" xmlns="http://www.w3.org/2000/svg" xmlns:xlink="http://www.w3.org/1999/xlink">
<g id="graph0" class="graph" transform="scale(1 1) rotate(0) translate(4 246.2)">
<title>oneDegreeRelationshipsDiagramImplied</title>
<polygon fill="#ffffff" stroke="transparent" points="-4,4 -4,-246.2 787,-246.2 787,4 -4,4"/>
<text text-anchor="middle" x="72.4936" y="-7.3" font-family="Helvetica,sans-Serif" font-size="11.00" fill="#000000">Generated by SchemaSpy</text>
<!-- inscricao_etapa_estabelecimento_turnos -->
<g id="node1" class="node">
<title>inscricao_etapa_estabelecimento_turnos</title>
<g id="a_node1"><a xlink:href="../../tables/inscricao_etapa_estabelecimento_turnos.html" xlink:title="inscricao_etapa_estabelecimento_turnos" target="_top">
<polygon fill="#ffffff" stroke="transparent" points="286,-38.2 286,-238.2 775,-238.2 775,-38.2 286,-38.2"/>
<polygon fill="#f5f5f5" stroke="transparent" points="288.5,-213.2 288.5,-236.2 773.5,-236.2 773.5,-213.2 288.5,-213.2"/>
<polygon fill="none" stroke="#000000" points="288.5,-213.2 288.5,-236.2 773.5,-236.2 773.5,-213.2 288.5,-213.2"/>
<text text-anchor="start" x="293.5" y="-221.8" font-family="Helvetica,sans-Serif" font-weight="bold" font-size="11.00" fill="#000000">inscricao_etapa_estabelecimento_turnos</text>
<text text-anchor="start" x="738.5437" y="-221.3" font-family="Helvetica,sans-Serif" font-size="11.00" fill="#000000">[table]</text>
<polygon fill="none" stroke="#000000" points="288.5,-191.2 288.5,-213.2 544.5,-213.2 544.5,-191.2 288.5,-191.2"/>
<text text-anchor="start" x="308.5" y="-198.3" font-family="Helvetica,sans-Serif" font-size="11.00" fill="#000000">sistema</text>
<polygon fill="none" stroke="#000000" points="544.5,-191.2 544.5,-213.2 773.5,-213.2 773.5,-191.2 544.5,-191.2"/>
<text text-anchor="start" x="547.5" y="-198.9" font-family="Helvetica,sans-Serif" font-size="11.00" fill="#000000">int4[10]</text>
<polygon fill="none" stroke="#000000" points="288.5,-169.2 288.5,-191.2 544.5,-191.2 544.5,-169.2 288.5,-169.2"/>
<text text-anchor="start" x="308.5" y="-176.3" font-family="Helvetica,sans-Serif" font-size="11.00" fill="#000000">tipo_registro</text>
<polygon fill="none" stroke="#000000" points="544.5,-169.2 544.5,-191.2 773.5,-191.2 773.5,-169.2 544.5,-169.2"/>
<text text-anchor="start" x="547.5" y="-176.9" font-family="Helvetica,sans-Serif" font-size="11.00" fill="#000000">text[2147483647]</text>
<polygon fill="none" stroke="#000000" points="288.5,-147.2 288.5,-169.2 544.5,-169.2 544.5,-147.2 288.5,-147.2"/>
<image xlink:href="../../images/foreignKeys.png" width="11px" height="12px" preserveAspectRatio="xMinYMin meet" x="293.5" y="-164.2"/>
<text text-anchor="start" x="308.5" y="-154.3" font-family="Helvetica,sans-Serif" font-size="11.00" fill="#000000">inscricao_etapa_estabelecimento_id</text>
<polygon fill="none" stroke="#000000" points="544.5,-147.2 544.5,-169.2 773.5,-169.2 773.5,-147.2 544.5,-147.2"/>
<text text-anchor="start" x="547.5" y="-154.9" font-family="Helvetica,sans-Serif" font-size="11.00" fill="#000000">int4[10]</text>
<polygon fill="none" stroke="#000000" points="288.5,-125.2 288.5,-147.2 544.5,-147.2 544.5,-125.2 288.5,-125.2"/>
<text text-anchor="start" x="308.5" y="-132.3" font-family="Helvetica,sans-Serif" font-size="11.00" fill="#000000">turno</text>
<polygon fill="none" stroke="#000000" points="544.5,-125.2 544.5,-147.2 773.5,-147.2 773.5,-125.2 544.5,-125.2"/>
<text text-anchor="start" x="547.5" y="-132.9" font-family="Helvetica,sans-Serif" font-size="11.00" fill="#000000">&quot;educacao&quot;.&quot;turnos&quot;[2147483647]</text>
<polygon fill="none" stroke="#000000" points="288.5,-103.2 288.5,-125.2 544.5,-125.2 544.5,-103.2 288.5,-103.2"/>
<text text-anchor="start" x="308.5" y="-110.3" font-family="Helvetica,sans-Serif" font-size="11.00" fill="#000000">data_insc_turno</text>
<polygon fill="none" stroke="#000000" points="544.5,-103.2 544.5,-125.2 773.5,-125.2 773.5,-103.2 544.5,-103.2"/>
<text text-anchor="start" x="547.5" y="-110.9" font-family="Helvetica,sans-Serif" font-size="11.00" fill="#000000">timestamp[29,6]</text>
<polygon fill="none" stroke="#000000" points="288.5,-81.2 288.5,-103.2 544.5,-103.2 544.5,-81.2 288.5,-81.2"/>
<text text-anchor="start" x="308.5" y="-88.3" font-family="Helvetica,sans-Serif" font-size="11.00" fill="#000000">situacao</text>
<polygon fill="none" stroke="#000000" points="544.5,-81.2 544.5,-103.2 773.5,-103.2 773.5,-81.2 544.5,-81.2"/>
<text text-anchor="start" x="547.2647" y="-88.9" font-family="Helvetica,sans-Serif" font-size="11.00" fill="#000000">&quot;educacao&quot;.&quot;situacoesinscricao&quot;[2147483647]</text>
<polygon fill="none" stroke="#000000" points="288.5,-59.2 288.5,-81.2 544.5,-81.2 544.5,-59.2 288.5,-59.2"/>
<text text-anchor="start" x="308.5" y="-66.3" font-family="Helvetica,sans-Serif" font-size="11.00" fill="#000000">motivo</text>
<polygon fill="none" stroke="#000000" points="544.5,-59.2 544.5,-81.2 773.5,-81.2 773.5,-59.2 544.5,-59.2"/>
<text text-anchor="start" x="547.5" y="-66.9" font-family="Helvetica,sans-Serif" font-size="11.00" fill="#000000">varchar[2147483647]</text>
<polygon fill="#ffffff" stroke="transparent" points="288.5,-40.2 288.5,-59.2 420.5,-59.2 420.5,-40.2 288.5,-40.2"/>
<polygon fill="none" stroke="#000000" points="288.5,-40.2 288.5,-59.2 420.5,-59.2 420.5,-40.2 288.5,-40.2"/>
<text text-anchor="start" x="291.5" y="-46.3" font-family="Helvetica,sans-Serif" font-size="11.00" fill="#000000">&lt; 1</text>
<polygon fill="#ffffff" stroke="transparent" points="420.5,-40.2 420.5,-59.2 544.5,-59.2 544.5,-40.2 420.5,-40.2"/>
<polygon fill="none" stroke="#000000" points="420.5,-40.2 420.5,-59.2 544.5,-59.2 544.5,-40.2 420.5,-40.2"/>
<text text-anchor="start" x="535.3862" y="-46.3" font-family="Helvetica,sans-Serif" font-size="11.00" fill="#000000"> &#160;</text>
<polygon fill="#ffffff" stroke="transparent" points="544.5,-40.2 544.5,-59.2 773.5,-59.2 773.5,-40.2 544.5,-40.2"/>
<polygon fill="none" stroke="#000000" points="544.5,-40.2 544.5,-59.2 773.5,-59.2 773.5,-40.2 544.5,-40.2"/>
<text text-anchor="start" x="754.9053" y="-46.3" font-family="Helvetica,sans-Serif" font-size="11.00" fill="#000000">0 &gt;</text>
<polygon fill="none" stroke="#000000" stroke-width="2" points="287,-39.2 287,-237.2 774,-237.2 774,-39.2 287,-39.2"/>
</a>
</g>
</g>
<!-- inscricao_lista_espera_situacoes -->
<g id="node2" class="node">
<title>inscricao_lista_espera_situacoes</title>
<g id="a_node2"><a xlink:href="../../tables/inscricao_lista_espera_situacoes.html" xlink:title="inscricao_lista_espera_situacoes" target="_top">
<polygon fill="#ffffff" stroke="transparent" points="8,-109.7 8,-192.7 237,-192.7 237,-109.7 8,-109.7"/>
<polygon fill="#f5f5f5" stroke="transparent" points="8.5,-169.2 8.5,-192.2 237.5,-192.2 237.5,-169.2 8.5,-169.2"/>
<polygon fill="none" stroke="#000000" points="8.5,-169.2 8.5,-192.2 237.5,-192.2 237.5,-169.2 8.5,-169.2"/>
<text text-anchor="start" x="13.5" y="-177.8" font-family="Helvetica,sans-Serif" font-weight="bold" font-size="11.00" fill="#000000">inscricao_lista_espera_situacoes</text>
<text text-anchor="start" x="203.0219" y="-177.3" font-family="Helvetica,sans-Serif" font-size="11.00" fill="#000000">[table]</text>
<polygon fill="none" stroke="#000000" points="8.5,-147.2 8.5,-169.2 237.5,-169.2 237.5,-147.2 8.5,-147.2"/>
<image xlink:href="../../images/primaryKeys.png" width="11px" height="12px" preserveAspectRatio="xMinYMin meet" x="13.5" y="-164.2"/>
<text text-anchor="start" x="37.5" y="-154.3" font-family="Helvetica,sans-Serif" font-size="11.00" fill="#000000">id</text>
<polygon fill="none" stroke="#000000" points="8.5,-128.2 8.5,-147.2 237.5,-147.2 237.5,-128.2 8.5,-128.2"/>
<text text-anchor="start" x="11.5" y="-134.3" font-family="Helvetica,sans-Serif" font-size="11.00" fill="#000000">...</text>
<polygon fill="#ffffff" stroke="transparent" points="8.5,-109.2 8.5,-128.2 106.5,-128.2 106.5,-109.2 8.5,-109.2"/>
<polygon fill="none" stroke="#000000" points="8.5,-109.2 8.5,-128.2 106.5,-128.2 106.5,-109.2 8.5,-109.2"/>
<text text-anchor="start" x="11.5" y="-115.3" font-family="Helvetica,sans-Serif" font-size="11.00" fill="#000000"> &#160;</text>
<polygon fill="#ffffff" stroke="transparent" points="106.5,-109.2 106.5,-128.2 161.5,-128.2 161.5,-109.2 106.5,-109.2"/>
<polygon fill="none" stroke="#000000" points="106.5,-109.2 106.5,-128.2 161.5,-128.2 161.5,-109.2 106.5,-109.2"/>
<text text-anchor="start" x="152.3862" y="-115.3" font-family="Helvetica,sans-Serif" font-size="11.00" fill="#000000"> &#160;</text>
<polygon fill="#ffffff" stroke="transparent" points="161.5,-109.2 161.5,-128.2 237.5,-128.2 237.5,-109.2 161.5,-109.2"/>
<polygon fill="none" stroke="#000000" points="161.5,-109.2 161.5,-128.2 237.5,-128.2 237.5,-109.2 161.5,-109.2"/>
<text text-anchor="start" x="206.6755" y="-115.3" font-family="Helvetica,sans-Serif" font-size="11.00" fill="#000000">596 &gt;</text>
</a>
</g>
</g>
<!-- inscricao_etapa_estabelecimento_turnos&#45;&gt;inscricao_lista_espera_situacoes -->
<g id="edge1" class="edge">
<title>inscricao_etapa_estabelecimento_turnos:w&#45;&gt;inscricao_lista_espera_situacoes:e</title>
<path fill="none" stroke="#000000" stroke-dasharray="5,2" d="M273.776,-158.2C261.7815,-158.2 254.3229,-158.2 237.5,-158.2"/>
<polygon fill="#000000" stroke="#000000" points="280.5,-158.2001 288.5,-161.8 284.5,-158.2 288.5,-158.2 288.5,-158.2 288.5,-158.2 284.5,-158.2 288.5,-154.6 280.5,-158.2001 280.5,-158.2001"/>
<ellipse fill="none" stroke="#000000" cx="277.3" cy="-158.2001" rx="3.2" ry="3.2"/>
</g>
</g>
</svg>
