<?xml version="1.0" encoding="UTF-8" standalone="no"?>
<!DOCTYPE svg PUBLIC "-//W3C//DTD SVG 1.1//EN"
 "http://www.w3.org/Graphics/SVG/1.1/DTD/svg11.dtd">
<!-- Generated by graphviz version 2.40.1 (20161225.0304)
 -->
<!-- Title: oneDegreeRelationshipsDiagram Pages: 1 -->
<svg width="473pt" height="426pt"
 viewBox="0.00 0.00 473.00 426.20" xmlns="http://www.w3.org/2000/svg" xmlns:xlink="http://www.w3.org/1999/xlink">
<g id="graph0" class="graph" transform="scale(1 1) rotate(0) translate(4 422.2)">
<title>oneDegreeRelationshipsDiagram</title>
<polygon fill="#ffffff" stroke="transparent" points="-4,4 -4,-422.2 469,-422.2 469,4 -4,4"/>
<text text-anchor="middle" x="72.4936" y="-7.3" font-family="Helvetica,sans-Serif" font-size="11.00" fill="#000000">Generated by SchemaSpy</text>
<!-- instituicoes_ensino_superior_inep -->
<g id="node1" class="node">
<title>instituicoes_ensino_superior_inep</title>
<g id="a_node1"><a xlink:href="../../tables/instituicoes_ensino_superior_inep.html" xlink:title="instituicoes_ensino_superior_inep" target="_top">
<polygon fill="#ffffff" stroke="transparent" points="8,-38.2 8,-414.2 457,-414.2 457,-38.2 8,-38.2"/>
<polygon fill="#f5f5f5" stroke="transparent" points="10.5,-389.2 10.5,-412.2 455.5,-412.2 455.5,-389.2 10.5,-389.2"/>
<polygon fill="none" stroke="#000000" points="10.5,-389.2 10.5,-412.2 455.5,-412.2 455.5,-389.2 10.5,-389.2"/>
<text text-anchor="start" x="15.5" y="-397.8" font-family="Helvetica,sans-Serif" font-weight="bold" font-size="11.00" fill="#000000">instituicoes_ensino_superior_inep</text>
<text text-anchor="start" x="420.5437" y="-397.3" font-family="Helvetica,sans-Serif" font-size="11.00" fill="#000000">[table]</text>
<polygon fill="none" stroke="#000000" points="10.5,-367.2 10.5,-389.2 238.5,-389.2 238.5,-367.2 10.5,-367.2"/>
<text text-anchor="start" x="30.5" y="-374.3" font-family="Helvetica,sans-Serif" font-size="11.00" fill="#000000">sistema</text>
<polygon fill="none" stroke="#000000" points="238.5,-367.2 238.5,-389.2 455.5,-389.2 455.5,-367.2 238.5,-367.2"/>
<text text-anchor="start" x="241.5" y="-374.9" font-family="Helvetica,sans-Serif" font-size="11.00" fill="#000000">int4[10]</text>
<polygon fill="none" stroke="#000000" points="10.5,-345.2 10.5,-367.2 238.5,-367.2 238.5,-345.2 10.5,-345.2"/>
<text text-anchor="start" x="30.5" y="-352.3" font-family="Helvetica,sans-Serif" font-size="11.00" fill="#000000">tipo_registro</text>
<polygon fill="none" stroke="#000000" points="238.5,-345.2 238.5,-367.2 455.5,-367.2 455.5,-345.2 238.5,-345.2"/>
<text text-anchor="start" x="241.5" y="-352.9" font-family="Helvetica,sans-Serif" font-size="11.00" fill="#000000">text[2147483647]</text>
<polygon fill="none" stroke="#000000" points="10.5,-323.2 10.5,-345.2 238.5,-345.2 238.5,-323.2 10.5,-323.2"/>
<text text-anchor="start" x="30.5" y="-330.3" font-family="Helvetica,sans-Serif" font-size="11.00" fill="#000000">id_integracao</text>
<polygon fill="none" stroke="#000000" points="238.5,-323.2 238.5,-345.2 455.5,-345.2 455.5,-323.2 238.5,-323.2"/>
<text text-anchor="start" x="241.5" y="-330.9" font-family="Helvetica,sans-Serif" font-size="11.00" fill="#000000">varchar[2147483647]</text>
<polygon fill="none" stroke="#000000" points="10.5,-301.2 10.5,-323.2 238.5,-323.2 238.5,-301.2 10.5,-301.2"/>
<text text-anchor="start" x="30.5" y="-308.3" font-family="Helvetica,sans-Serif" font-size="11.00" fill="#000000">id_origem</text>
<polygon fill="none" stroke="#000000" points="238.5,-301.2 238.5,-323.2 455.5,-323.2 455.5,-301.2 238.5,-301.2"/>
<text text-anchor="start" x="241.5" y="-308.9" font-family="Helvetica,sans-Serif" font-size="11.00" fill="#000000">int4[10]</text>
<polygon fill="none" stroke="#000000" points="10.5,-279.2 10.5,-301.2 238.5,-301.2 238.5,-279.2 10.5,-279.2"/>
<text text-anchor="start" x="30.5" y="-286.3" font-family="Helvetica,sans-Serif" font-size="11.00" fill="#000000">id_cloud</text>
<polygon fill="none" stroke="#000000" points="238.5,-279.2 238.5,-301.2 455.5,-301.2 455.5,-279.2 238.5,-279.2"/>
<text text-anchor="start" x="241.5" y="-286.9" font-family="Helvetica,sans-Serif" font-size="11.00" fill="#000000">int4[10]</text>
<polygon fill="none" stroke="#000000" points="10.5,-257.2 10.5,-279.2 238.5,-279.2 238.5,-257.2 10.5,-257.2"/>
<text text-anchor="start" x="30.5" y="-264.3" font-family="Helvetica,sans-Serif" font-size="11.00" fill="#000000">codigo_inep</text>
<polygon fill="none" stroke="#000000" points="238.5,-257.2 238.5,-279.2 455.5,-279.2 455.5,-257.2 238.5,-257.2"/>
<text text-anchor="start" x="241.5" y="-264.9" font-family="Helvetica,sans-Serif" font-size="11.00" fill="#000000">int4[10]</text>
<polygon fill="none" stroke="#000000" points="10.5,-235.2 10.5,-257.2 238.5,-257.2 238.5,-235.2 10.5,-235.2"/>
<text text-anchor="start" x="30.5" y="-242.3" font-family="Helvetica,sans-Serif" font-size="11.00" fill="#000000">nome</text>
<polygon fill="none" stroke="#000000" points="238.5,-235.2 238.5,-257.2 455.5,-257.2 455.5,-235.2 238.5,-235.2"/>
<text text-anchor="start" x="241.5" y="-242.9" font-family="Helvetica,sans-Serif" font-size="11.00" fill="#000000">varchar[2147483647]</text>
<polygon fill="none" stroke="#000000" points="10.5,-213.2 10.5,-235.2 238.5,-235.2 238.5,-213.2 10.5,-213.2"/>
<text text-anchor="start" x="30.5" y="-220.3" font-family="Helvetica,sans-Serif" font-size="11.00" fill="#000000">codigo_dependencia_administrativa</text>
<polygon fill="none" stroke="#000000" points="238.5,-213.2 238.5,-235.2 455.5,-235.2 455.5,-213.2 238.5,-213.2"/>
<text text-anchor="start" x="241.5" y="-220.9" font-family="Helvetica,sans-Serif" font-size="11.00" fill="#000000">int4[10]</text>
<polygon fill="none" stroke="#000000" points="10.5,-191.2 10.5,-213.2 238.5,-213.2 238.5,-191.2 10.5,-191.2"/>
<text text-anchor="start" x="30.5" y="-198.3" font-family="Helvetica,sans-Serif" font-size="11.00" fill="#000000">dependencia_administrativa</text>
<polygon fill="none" stroke="#000000" points="238.5,-191.2 238.5,-213.2 455.5,-213.2 455.5,-191.2 238.5,-191.2"/>
<text text-anchor="start" x="241.5" y="-198.9" font-family="Helvetica,sans-Serif" font-size="11.00" fill="#000000">varchar[2147483647]</text>
<polygon fill="none" stroke="#000000" points="10.5,-169.2 10.5,-191.2 238.5,-191.2 238.5,-169.2 10.5,-169.2"/>
<text text-anchor="start" x="30.5" y="-176.3" font-family="Helvetica,sans-Serif" font-size="11.00" fill="#000000">tipo_instituicao</text>
<polygon fill="none" stroke="#000000" points="238.5,-169.2 238.5,-191.2 455.5,-191.2 455.5,-169.2 238.5,-169.2"/>
<text text-anchor="start" x="241.3758" y="-176.9" font-family="Helvetica,sans-Serif" font-size="11.00" fill="#000000">&quot;educacao&quot;.&quot;tiposinstituicoes&quot;[2147483647]</text>
<polygon fill="none" stroke="#000000" points="10.5,-147.2 10.5,-169.2 238.5,-169.2 238.5,-147.2 10.5,-147.2"/>
<text text-anchor="start" x="30.5" y="-154.3" font-family="Helvetica,sans-Serif" font-size="11.00" fill="#000000">status_funcionamento</text>
<polygon fill="none" stroke="#000000" points="238.5,-147.2 238.5,-169.2 455.5,-169.2 455.5,-147.2 238.5,-147.2"/>
<text text-anchor="start" x="241.5" y="-154.9" font-family="Helvetica,sans-Serif" font-size="11.00" fill="#000000">varchar[2147483647]</text>
<polygon fill="none" stroke="#000000" points="10.5,-125.2 10.5,-147.2 238.5,-147.2 238.5,-125.2 10.5,-125.2"/>
<image xlink:href="../../images/foreignKeys.png" width="11px" height="12px" preserveAspectRatio="xMinYMin meet" x="15.5" y="-142.2"/>
<text text-anchor="start" x="30.5" y="-132.3" font-family="Helvetica,sans-Serif" font-size="11.00" fill="#000000">municipio_origem_id</text>
<polygon fill="none" stroke="#000000" points="238.5,-125.2 238.5,-147.2 455.5,-147.2 455.5,-125.2 238.5,-125.2"/>
<text text-anchor="start" x="241.5" y="-132.9" font-family="Helvetica,sans-Serif" font-size="11.00" fill="#000000">int4[10]</text>
<polygon fill="none" stroke="#000000" points="10.5,-103.2 10.5,-125.2 238.5,-125.2 238.5,-103.2 10.5,-103.2"/>
<image xlink:href="../../images/foreignKeys.png" width="11px" height="12px" preserveAspectRatio="xMinYMin meet" x="15.5" y="-120.2"/>
<text text-anchor="start" x="30.5" y="-110.3" font-family="Helvetica,sans-Serif" font-size="11.00" fill="#000000">municipio_cloud_id</text>
<polygon fill="none" stroke="#000000" points="238.5,-103.2 238.5,-125.2 455.5,-125.2 455.5,-103.2 238.5,-103.2"/>
<text text-anchor="start" x="241.5" y="-110.9" font-family="Helvetica,sans-Serif" font-size="11.00" fill="#000000">int4[10]</text>
<polygon fill="none" stroke="#000000" points="10.5,-81.2 10.5,-103.2 238.5,-103.2 238.5,-81.2 10.5,-81.2"/>
<image xlink:href="../../images/foreignKeys.png" width="11px" height="12px" preserveAspectRatio="xMinYMin meet" x="15.5" y="-98.2"/>
<text text-anchor="start" x="30.5" y="-88.3" font-family="Helvetica,sans-Serif" font-size="11.00" fill="#000000">uf_origem_id</text>
<polygon fill="none" stroke="#000000" points="238.5,-81.2 238.5,-103.2 455.5,-103.2 455.5,-81.2 238.5,-81.2"/>
<text text-anchor="start" x="241.5" y="-88.9" font-family="Helvetica,sans-Serif" font-size="11.00" fill="#000000">int4[10]</text>
<polygon fill="none" stroke="#000000" points="10.5,-59.2 10.5,-81.2 238.5,-81.2 238.5,-59.2 10.5,-59.2"/>
<image xlink:href="../../images/foreignKeys.png" width="11px" height="12px" preserveAspectRatio="xMinYMin meet" x="15.5" y="-76.2"/>
<text text-anchor="start" x="30.5" y="-66.3" font-family="Helvetica,sans-Serif" font-size="11.00" fill="#000000">uf_cloud_id</text>
<polygon fill="none" stroke="#000000" points="238.5,-59.2 238.5,-81.2 455.5,-81.2 455.5,-59.2 238.5,-59.2"/>
<text text-anchor="start" x="241.5" y="-66.9" font-family="Helvetica,sans-Serif" font-size="11.00" fill="#000000">int4[10]</text>
<polygon fill="#ffffff" stroke="transparent" points="10.5,-40.2 10.5,-59.2 128.5,-59.2 128.5,-40.2 10.5,-40.2"/>
<polygon fill="none" stroke="#000000" points="10.5,-40.2 10.5,-59.2 128.5,-59.2 128.5,-40.2 10.5,-40.2"/>
<text text-anchor="start" x="13.5" y="-46.3" font-family="Helvetica,sans-Serif" font-size="11.00" fill="#000000">&lt; 0</text>
<polygon fill="#ffffff" stroke="transparent" points="128.5,-40.2 128.5,-59.2 238.5,-59.2 238.5,-40.2 128.5,-40.2"/>
<polygon fill="none" stroke="#000000" points="128.5,-40.2 128.5,-59.2 238.5,-59.2 238.5,-40.2 128.5,-40.2"/>
<text text-anchor="start" x="229.3862" y="-46.3" font-family="Helvetica,sans-Serif" font-size="11.00" fill="#000000"> &#160;</text>
<polygon fill="#ffffff" stroke="transparent" points="238.5,-40.2 238.5,-59.2 455.5,-59.2 455.5,-40.2 238.5,-40.2"/>
<polygon fill="none" stroke="#000000" points="238.5,-40.2 238.5,-59.2 455.5,-59.2 455.5,-40.2 238.5,-40.2"/>
<text text-anchor="start" x="436.9053" y="-46.3" font-family="Helvetica,sans-Serif" font-size="11.00" fill="#000000">0 &gt;</text>
<polygon fill="none" stroke="#000000" stroke-width="2" points="9,-39.2 9,-413.2 456,-413.2 456,-39.2 9,-39.2"/>
</a>
</g>
</g>
</g>
</svg>
