<?xml version="1.0" encoding="UTF-8" standalone="no"?>
<!DOCTYPE svg PUBLIC "-//W3C//DTD SVG 1.1//EN"
 "http://www.w3.org/Graphics/SVG/1.1/DTD/svg11.dtd">
<!-- Generated by graphviz version 2.40.1 (20161225.0304)
 -->
<!-- Title: oneDegreeRelationshipsDiagram Pages: 1 -->
<svg width="284pt" height="294pt"
 viewBox="0.00 0.00 284.00 294.20" xmlns="http://www.w3.org/2000/svg" xmlns:xlink="http://www.w3.org/1999/xlink">
<g id="graph0" class="graph" transform="scale(1 1) rotate(0) translate(4 290.2)">
<title>oneDegreeRelationshipsDiagram</title>
<polygon fill="#ffffff" stroke="transparent" points="-4,4 -4,-290.2 280,-290.2 280,4 -4,4"/>
<text text-anchor="middle" x="72.4936" y="-7.3" font-family="Helvetica,sans-Serif" font-size="11.00" fill="#000000">Generated by SchemaSpy</text>
<!-- intervalo_horas_aulas -->
<g id="node1" class="node">
<title>intervalo_horas_aulas</title>
<g id="a_node1"><a xlink:href="../../tables/intervalo_horas_aulas.html" xlink:title="intervalo_horas_aulas" target="_top">
<polygon fill="#ffffff" stroke="transparent" points="8,-38.2 8,-282.2 268,-282.2 268,-38.2 8,-38.2"/>
<polygon fill="#f5f5f5" stroke="transparent" points="10,-257.2 10,-280.2 266,-280.2 266,-257.2 10,-257.2"/>
<polygon fill="none" stroke="#000000" points="10,-257.2 10,-280.2 266,-280.2 266,-257.2 10,-257.2"/>
<text text-anchor="start" x="15" y="-265.8" font-family="Helvetica,sans-Serif" font-weight="bold" font-size="11.00" fill="#000000">intervalo_horas_aulas</text>
<text text-anchor="start" x="231.0437" y="-265.3" font-family="Helvetica,sans-Serif" font-size="11.00" fill="#000000">[table]</text>
<polygon fill="none" stroke="#000000" points="10,-235.2 10,-257.2 157,-257.2 157,-235.2 10,-235.2"/>
<text text-anchor="start" x="30" y="-242.3" font-family="Helvetica,sans-Serif" font-size="11.00" fill="#000000">sistema</text>
<polygon fill="none" stroke="#000000" points="157,-235.2 157,-257.2 266,-257.2 266,-235.2 157,-235.2"/>
<text text-anchor="start" x="160" y="-242.9" font-family="Helvetica,sans-Serif" font-size="11.00" fill="#000000">int4[10]</text>
<polygon fill="none" stroke="#000000" points="10,-213.2 10,-235.2 157,-235.2 157,-213.2 10,-213.2"/>
<text text-anchor="start" x="30" y="-220.3" font-family="Helvetica,sans-Serif" font-size="11.00" fill="#000000">tipo_registro</text>
<polygon fill="none" stroke="#000000" points="157,-213.2 157,-235.2 266,-235.2 266,-213.2 157,-213.2"/>
<text text-anchor="start" x="160" y="-220.9" font-family="Helvetica,sans-Serif" font-size="11.00" fill="#000000">text[2147483647]</text>
<polygon fill="none" stroke="#000000" points="10,-191.2 10,-213.2 157,-213.2 157,-191.2 10,-191.2"/>
<text text-anchor="start" x="30" y="-198.3" font-family="Helvetica,sans-Serif" font-size="11.00" fill="#000000">id_integracao</text>
<polygon fill="none" stroke="#000000" points="157,-191.2 157,-213.2 266,-213.2 266,-191.2 157,-191.2"/>
<text text-anchor="start" x="159.5344" y="-198.9" font-family="Helvetica,sans-Serif" font-size="11.00" fill="#000000">varchar[2147483647]</text>
<polygon fill="none" stroke="#000000" points="10,-169.2 10,-191.2 157,-191.2 157,-169.2 10,-169.2"/>
<text text-anchor="start" x="30" y="-176.3" font-family="Helvetica,sans-Serif" font-size="11.00" fill="#000000">id_origem</text>
<polygon fill="none" stroke="#000000" points="157,-169.2 157,-191.2 266,-191.2 266,-169.2 157,-169.2"/>
<text text-anchor="start" x="160" y="-176.9" font-family="Helvetica,sans-Serif" font-size="11.00" fill="#000000">int4[10]</text>
<polygon fill="none" stroke="#000000" points="10,-147.2 10,-169.2 157,-169.2 157,-147.2 10,-147.2"/>
<text text-anchor="start" x="30" y="-154.3" font-family="Helvetica,sans-Serif" font-size="11.00" fill="#000000">id_cloud</text>
<polygon fill="none" stroke="#000000" points="157,-147.2 157,-169.2 266,-169.2 266,-147.2 157,-147.2"/>
<text text-anchor="start" x="160" y="-154.9" font-family="Helvetica,sans-Serif" font-size="11.00" fill="#000000">int4[10]</text>
<polygon fill="none" stroke="#000000" points="10,-125.2 10,-147.2 157,-147.2 157,-125.2 10,-125.2"/>
<text text-anchor="start" x="30" y="-132.3" font-family="Helvetica,sans-Serif" font-size="11.00" fill="#000000">nro_aula_precedente</text>
<polygon fill="none" stroke="#000000" points="157,-125.2 157,-147.2 266,-147.2 266,-125.2 157,-125.2"/>
<text text-anchor="start" x="160" y="-132.9" font-family="Helvetica,sans-Serif" font-size="11.00" fill="#000000">int4[10]</text>
<polygon fill="none" stroke="#000000" points="10,-103.2 10,-125.2 157,-125.2 157,-103.2 10,-103.2"/>
<text text-anchor="start" x="30" y="-110.3" font-family="Helvetica,sans-Serif" font-size="11.00" fill="#000000">tempo_duracao</text>
<polygon fill="none" stroke="#000000" points="157,-103.2 157,-125.2 266,-125.2 266,-103.2 157,-103.2"/>
<text text-anchor="start" x="160" y="-110.9" font-family="Helvetica,sans-Serif" font-size="11.00" fill="#000000">int4[10]</text>
<polygon fill="none" stroke="#000000" points="10,-81.2 10,-103.2 157,-103.2 157,-81.2 10,-81.2"/>
<image xlink:href="../../images/foreignKeys.png" width="11px" height="12px" preserveAspectRatio="xMinYMin meet" x="15" y="-98.2"/>
<text text-anchor="start" x="30" y="-88.3" font-family="Helvetica,sans-Serif" font-size="11.00" fill="#000000">item_origem_id</text>
<polygon fill="none" stroke="#000000" points="157,-81.2 157,-103.2 266,-103.2 266,-81.2 157,-81.2"/>
<text text-anchor="start" x="160" y="-88.9" font-family="Helvetica,sans-Serif" font-size="11.00" fill="#000000">int4[10]</text>
<polygon fill="none" stroke="#000000" points="10,-59.2 10,-81.2 157,-81.2 157,-59.2 10,-59.2"/>
<image xlink:href="../../images/foreignKeys.png" width="11px" height="12px" preserveAspectRatio="xMinYMin meet" x="15" y="-76.2"/>
<text text-anchor="start" x="30" y="-66.3" font-family="Helvetica,sans-Serif" font-size="11.00" fill="#000000">item_cloud_id</text>
<polygon fill="none" stroke="#000000" points="157,-59.2 157,-81.2 266,-81.2 266,-59.2 157,-59.2"/>
<text text-anchor="start" x="160" y="-66.9" font-family="Helvetica,sans-Serif" font-size="11.00" fill="#000000">int4[10]</text>
<polygon fill="#ffffff" stroke="transparent" points="10,-40.2 10,-59.2 88,-59.2 88,-40.2 10,-40.2"/>
<polygon fill="none" stroke="#000000" points="10,-40.2 10,-59.2 88,-59.2 88,-40.2 10,-40.2"/>
<text text-anchor="start" x="13" y="-46.3" font-family="Helvetica,sans-Serif" font-size="11.00" fill="#000000">&lt; 0</text>
<polygon fill="#ffffff" stroke="transparent" points="88,-40.2 88,-59.2 157,-59.2 157,-40.2 88,-40.2"/>
<polygon fill="none" stroke="#000000" points="88,-40.2 88,-59.2 157,-59.2 157,-40.2 88,-40.2"/>
<text text-anchor="start" x="147.8862" y="-46.3" font-family="Helvetica,sans-Serif" font-size="11.00" fill="#000000"> &#160;</text>
<polygon fill="#ffffff" stroke="transparent" points="157,-40.2 157,-59.2 266,-59.2 266,-40.2 157,-40.2"/>
<polygon fill="none" stroke="#000000" points="157,-40.2 157,-59.2 266,-59.2 266,-40.2 157,-40.2"/>
<text text-anchor="start" x="247.4053" y="-46.3" font-family="Helvetica,sans-Serif" font-size="11.00" fill="#000000">0 &gt;</text>
<polygon fill="none" stroke="#000000" stroke-width="2" points="9,-39.2 9,-281.2 267,-281.2 267,-39.2 9,-39.2"/>
</a>
</g>
</g>
</g>
</svg>
