<?xml version="1.0" encoding="UTF-8" standalone="no"?>
<!DOCTYPE svg PUBLIC "-//W3C//DTD SVG 1.1//EN"
 "http://www.w3.org/Graphics/SVG/1.1/DTD/svg11.dtd">
<!-- Generated by graphviz version 2.40.1 (20161225.0304)
 -->
<!-- Title: oneDegreeRelationshipsDiagram Pages: 1 -->
<svg width="296pt" height="316pt"
 viewBox="0.00 0.00 296.00 316.20" xmlns="http://www.w3.org/2000/svg" xmlns:xlink="http://www.w3.org/1999/xlink">
<g id="graph0" class="graph" transform="scale(1 1) rotate(0) translate(4 312.2)">
<title>oneDegreeRelationshipsDiagram</title>
<polygon fill="#ffffff" stroke="transparent" points="-4,4 -4,-312.2 292,-312.2 292,4 -4,4"/>
<text text-anchor="middle" x="72.4936" y="-7.3" font-family="Helvetica,sans-Serif" font-size="11.00" fill="#000000">Generated by SchemaSpy</text>
<!-- itens_educacionais -->
<g id="node1" class="node">
<title>itens_educacionais</title>
<g id="a_node1"><a xlink:href="../../tables/itens_educacionais.html" xlink:title="itens_educacionais" target="_top">
<polygon fill="#ffffff" stroke="transparent" points="8,-38.2 8,-304.2 280,-304.2 280,-38.2 8,-38.2"/>
<polygon fill="#f5f5f5" stroke="transparent" points="10,-279.2 10,-302.2 278,-302.2 278,-279.2 10,-279.2"/>
<polygon fill="none" stroke="#000000" points="10,-279.2 10,-302.2 278,-302.2 278,-279.2 10,-279.2"/>
<text text-anchor="start" x="15" y="-287.8" font-family="Helvetica,sans-Serif" font-weight="bold" font-size="11.00" fill="#000000">itens_educacionais</text>
<text text-anchor="start" x="243.0437" y="-287.3" font-family="Helvetica,sans-Serif" font-size="11.00" fill="#000000">[table]</text>
<polygon fill="none" stroke="#000000" points="10,-257.2 10,-279.2 169,-279.2 169,-257.2 10,-257.2"/>
<text text-anchor="start" x="30" y="-264.3" font-family="Helvetica,sans-Serif" font-size="11.00" fill="#000000">sistema</text>
<polygon fill="none" stroke="#000000" points="169,-257.2 169,-279.2 278,-279.2 278,-257.2 169,-257.2"/>
<text text-anchor="start" x="172" y="-264.9" font-family="Helvetica,sans-Serif" font-size="11.00" fill="#000000">int4[10]</text>
<polygon fill="none" stroke="#000000" points="10,-235.2 10,-257.2 169,-257.2 169,-235.2 10,-235.2"/>
<text text-anchor="start" x="30" y="-242.3" font-family="Helvetica,sans-Serif" font-size="11.00" fill="#000000">tipo_registro</text>
<polygon fill="none" stroke="#000000" points="169,-235.2 169,-257.2 278,-257.2 278,-235.2 169,-235.2"/>
<text text-anchor="start" x="172" y="-242.9" font-family="Helvetica,sans-Serif" font-size="11.00" fill="#000000">text[2147483647]</text>
<polygon fill="none" stroke="#000000" points="10,-213.2 10,-235.2 169,-235.2 169,-213.2 10,-213.2"/>
<text text-anchor="start" x="30" y="-220.3" font-family="Helvetica,sans-Serif" font-size="11.00" fill="#000000">id_integracao</text>
<polygon fill="none" stroke="#000000" points="169,-213.2 169,-235.2 278,-235.2 278,-213.2 169,-213.2"/>
<text text-anchor="start" x="171.5344" y="-220.9" font-family="Helvetica,sans-Serif" font-size="11.00" fill="#000000">varchar[2147483647]</text>
<polygon fill="none" stroke="#000000" points="10,-191.2 10,-213.2 169,-213.2 169,-191.2 10,-191.2"/>
<text text-anchor="start" x="30" y="-198.3" font-family="Helvetica,sans-Serif" font-size="11.00" fill="#000000">id_origem</text>
<polygon fill="none" stroke="#000000" points="169,-191.2 169,-213.2 278,-213.2 278,-191.2 169,-191.2"/>
<text text-anchor="start" x="172" y="-198.9" font-family="Helvetica,sans-Serif" font-size="11.00" fill="#000000">int4[10]</text>
<polygon fill="none" stroke="#000000" points="10,-169.2 10,-191.2 169,-191.2 169,-169.2 10,-169.2"/>
<text text-anchor="start" x="30" y="-176.3" font-family="Helvetica,sans-Serif" font-size="11.00" fill="#000000">id_cloud</text>
<polygon fill="none" stroke="#000000" points="169,-169.2 169,-191.2 278,-191.2 278,-169.2 169,-169.2"/>
<text text-anchor="start" x="172" y="-176.9" font-family="Helvetica,sans-Serif" font-size="11.00" fill="#000000">int4[10]</text>
<polygon fill="none" stroke="#000000" points="10,-147.2 10,-169.2 169,-169.2 169,-147.2 10,-147.2"/>
<text text-anchor="start" x="30" y="-154.3" font-family="Helvetica,sans-Serif" font-size="11.00" fill="#000000">descricao</text>
<polygon fill="none" stroke="#000000" points="169,-147.2 169,-169.2 278,-169.2 278,-147.2 169,-147.2"/>
<text text-anchor="start" x="171.5344" y="-154.9" font-family="Helvetica,sans-Serif" font-size="11.00" fill="#000000">varchar[2147483647]</text>
<polygon fill="none" stroke="#000000" points="10,-125.2 10,-147.2 169,-147.2 169,-125.2 10,-125.2"/>
<text text-anchor="start" x="30" y="-132.3" font-family="Helvetica,sans-Serif" font-size="11.00" fill="#000000">identificador_classroom</text>
<polygon fill="none" stroke="#000000" points="169,-125.2 169,-147.2 278,-147.2 278,-125.2 169,-125.2"/>
<text text-anchor="start" x="171.5344" y="-132.9" font-family="Helvetica,sans-Serif" font-size="11.00" fill="#000000">varchar[2147483647]</text>
<polygon fill="none" stroke="#000000" points="10,-103.2 10,-125.2 169,-125.2 169,-103.2 10,-103.2"/>
<text text-anchor="start" x="30" y="-110.3" font-family="Helvetica,sans-Serif" font-size="11.00" fill="#000000">link_classroom</text>
<polygon fill="none" stroke="#000000" points="169,-103.2 169,-125.2 278,-125.2 278,-103.2 169,-103.2"/>
<text text-anchor="start" x="171.5344" y="-110.9" font-family="Helvetica,sans-Serif" font-size="11.00" fill="#000000">varchar[2147483647]</text>
<polygon fill="none" stroke="#000000" points="10,-81.2 10,-103.2 169,-103.2 169,-81.2 10,-81.2"/>
<text text-anchor="start" x="30" y="-88.3" font-family="Helvetica,sans-Serif" font-size="11.00" fill="#000000">is_campo_experiencia</text>
<polygon fill="none" stroke="#000000" points="169,-81.2 169,-103.2 278,-103.2 278,-81.2 169,-81.2"/>
<text text-anchor="start" x="172" y="-88.9" font-family="Helvetica,sans-Serif" font-size="11.00" fill="#000000">bool[1]</text>
<polygon fill="none" stroke="#000000" points="10,-59.2 10,-81.2 169,-81.2 169,-59.2 10,-59.2"/>
<text text-anchor="start" x="30" y="-66.3" font-family="Helvetica,sans-Serif" font-size="11.00" fill="#000000">sigla</text>
<polygon fill="none" stroke="#000000" points="169,-59.2 169,-81.2 278,-81.2 278,-59.2 169,-59.2"/>
<text text-anchor="start" x="171.5344" y="-66.9" font-family="Helvetica,sans-Serif" font-size="11.00" fill="#000000">varchar[2147483647]</text>
<polygon fill="#ffffff" stroke="transparent" points="10,-40.2 10,-59.2 94,-59.2 94,-40.2 10,-40.2"/>
<polygon fill="none" stroke="#000000" points="10,-40.2 10,-59.2 94,-59.2 94,-40.2 10,-40.2"/>
<text text-anchor="start" x="13" y="-46.3" font-family="Helvetica,sans-Serif" font-size="11.00" fill="#000000">&lt; 0</text>
<polygon fill="#ffffff" stroke="transparent" points="94,-40.2 94,-59.2 169,-59.2 169,-40.2 94,-40.2"/>
<polygon fill="none" stroke="#000000" points="94,-40.2 94,-59.2 169,-59.2 169,-40.2 94,-40.2"/>
<text text-anchor="start" x="159.8862" y="-46.3" font-family="Helvetica,sans-Serif" font-size="11.00" fill="#000000"> &#160;</text>
<polygon fill="#ffffff" stroke="transparent" points="169,-40.2 169,-59.2 278,-59.2 278,-40.2 169,-40.2"/>
<polygon fill="none" stroke="#000000" points="169,-40.2 169,-59.2 278,-59.2 278,-40.2 169,-40.2"/>
<text text-anchor="start" x="259.4053" y="-46.3" font-family="Helvetica,sans-Serif" font-size="11.00" fill="#000000">0 &gt;</text>
<polygon fill="none" stroke="#000000" stroke-width="2" points="9,-39.2 9,-303.2 279,-303.2 279,-39.2 9,-39.2"/>
</a>
</g>
</g>
</g>
</svg>
