<?xml version="1.0" encoding="UTF-8" standalone="no"?>
<!DOCTYPE svg PUBLIC "-//W3C//DTD SVG 1.1//EN"
 "http://www.w3.org/Graphics/SVG/1.1/DTD/svg11.dtd">
<!-- Generated by graphviz version 2.40.1 (20161225.0304)
 -->
<!-- Title: oneDegreeRelationshipsDiagram Pages: 1 -->
<svg width="247pt" height="250pt"
 viewBox="0.00 0.00 247.00 250.20" xmlns="http://www.w3.org/2000/svg" xmlns:xlink="http://www.w3.org/1999/xlink">
<g id="graph0" class="graph" transform="scale(1 1) rotate(0) translate(4 246.2)">
<title>oneDegreeRelationshipsDiagram</title>
<polygon fill="#ffffff" stroke="transparent" points="-4,4 -4,-246.2 243,-246.2 243,4 -4,4"/>
<text text-anchor="middle" x="72.4936" y="-7.3" font-family="Helvetica,sans-Serif" font-size="11.00" fill="#000000">Generated by SchemaSpy</text>
<!-- legislacoes -->
<g id="node1" class="node">
<title>legislacoes</title>
<g id="a_node1"><a xlink:href="../../tables/legislacoes.html" xlink:title="legislacoes" target="_top">
<polygon fill="#ffffff" stroke="transparent" points="8,-38.2 8,-238.2 231,-238.2 231,-38.2 8,-38.2"/>
<polygon fill="#f5f5f5" stroke="transparent" points="10.5,-213.2 10.5,-236.2 229.5,-236.2 229.5,-213.2 10.5,-213.2"/>
<polygon fill="none" stroke="#000000" points="10.5,-213.2 10.5,-236.2 229.5,-236.2 229.5,-213.2 10.5,-213.2"/>
<text text-anchor="start" x="15.5" y="-221.8" font-family="Helvetica,sans-Serif" font-weight="bold" font-size="11.00" fill="#000000">legislacoes</text>
<text text-anchor="start" x="194.5437" y="-221.3" font-family="Helvetica,sans-Serif" font-size="11.00" fill="#000000">[table]</text>
<polygon fill="none" stroke="#000000" points="10.5,-191.2 10.5,-213.2 120.5,-213.2 120.5,-191.2 10.5,-191.2"/>
<text text-anchor="start" x="30.5" y="-198.3" font-family="Helvetica,sans-Serif" font-size="11.00" fill="#000000">sistema</text>
<polygon fill="none" stroke="#000000" points="120.5,-191.2 120.5,-213.2 229.5,-213.2 229.5,-191.2 120.5,-191.2"/>
<text text-anchor="start" x="123.5" y="-198.9" font-family="Helvetica,sans-Serif" font-size="11.00" fill="#000000">int4[10]</text>
<polygon fill="none" stroke="#000000" points="10.5,-169.2 10.5,-191.2 120.5,-191.2 120.5,-169.2 10.5,-169.2"/>
<text text-anchor="start" x="30.5" y="-176.3" font-family="Helvetica,sans-Serif" font-size="11.00" fill="#000000">tipo_registro</text>
<polygon fill="none" stroke="#000000" points="120.5,-169.2 120.5,-191.2 229.5,-191.2 229.5,-169.2 120.5,-169.2"/>
<text text-anchor="start" x="123.5" y="-176.9" font-family="Helvetica,sans-Serif" font-size="11.00" fill="#000000">text[2147483647]</text>
<polygon fill="none" stroke="#000000" points="10.5,-147.2 10.5,-169.2 120.5,-169.2 120.5,-147.2 10.5,-147.2"/>
<text text-anchor="start" x="30.5" y="-154.3" font-family="Helvetica,sans-Serif" font-size="11.00" fill="#000000">id_integracao</text>
<polygon fill="none" stroke="#000000" points="120.5,-147.2 120.5,-169.2 229.5,-169.2 229.5,-147.2 120.5,-147.2"/>
<text text-anchor="start" x="123.0344" y="-154.9" font-family="Helvetica,sans-Serif" font-size="11.00" fill="#000000">varchar[2147483647]</text>
<polygon fill="none" stroke="#000000" points="10.5,-125.2 10.5,-147.2 120.5,-147.2 120.5,-125.2 10.5,-125.2"/>
<text text-anchor="start" x="30.5" y="-132.3" font-family="Helvetica,sans-Serif" font-size="11.00" fill="#000000">id_origem</text>
<polygon fill="none" stroke="#000000" points="120.5,-125.2 120.5,-147.2 229.5,-147.2 229.5,-125.2 120.5,-125.2"/>
<text text-anchor="start" x="123.5" y="-132.9" font-family="Helvetica,sans-Serif" font-size="11.00" fill="#000000">int4[10]</text>
<polygon fill="none" stroke="#000000" points="10.5,-103.2 10.5,-125.2 120.5,-125.2 120.5,-103.2 10.5,-103.2"/>
<text text-anchor="start" x="30.5" y="-110.3" font-family="Helvetica,sans-Serif" font-size="11.00" fill="#000000">id_cloud</text>
<polygon fill="none" stroke="#000000" points="120.5,-103.2 120.5,-125.2 229.5,-125.2 229.5,-103.2 120.5,-103.2"/>
<text text-anchor="start" x="123.5" y="-110.9" font-family="Helvetica,sans-Serif" font-size="11.00" fill="#000000">int4[10]</text>
<polygon fill="none" stroke="#000000" points="10.5,-81.2 10.5,-103.2 120.5,-103.2 120.5,-81.2 10.5,-81.2"/>
<text text-anchor="start" x="30.5" y="-88.3" font-family="Helvetica,sans-Serif" font-size="11.00" fill="#000000">descricao</text>
<polygon fill="none" stroke="#000000" points="120.5,-81.2 120.5,-103.2 229.5,-103.2 229.5,-81.2 120.5,-81.2"/>
<text text-anchor="start" x="123.0344" y="-88.9" font-family="Helvetica,sans-Serif" font-size="11.00" fill="#000000">varchar[2147483647]</text>
<polygon fill="none" stroke="#000000" points="10.5,-59.2 10.5,-81.2 120.5,-81.2 120.5,-59.2 10.5,-59.2"/>
<text text-anchor="start" x="30.5" y="-66.3" font-family="Helvetica,sans-Serif" font-size="11.00" fill="#000000">data_legislacao</text>
<polygon fill="none" stroke="#000000" points="120.5,-59.2 120.5,-81.2 229.5,-81.2 229.5,-59.2 120.5,-59.2"/>
<text text-anchor="start" x="123.5" y="-66.9" font-family="Helvetica,sans-Serif" font-size="11.00" fill="#000000">date[13]</text>
<polygon fill="#ffffff" stroke="transparent" points="10.5,-40.2 10.5,-59.2 69.5,-59.2 69.5,-40.2 10.5,-40.2"/>
<polygon fill="none" stroke="#000000" points="10.5,-40.2 10.5,-59.2 69.5,-59.2 69.5,-40.2 10.5,-40.2"/>
<text text-anchor="start" x="13.5" y="-46.3" font-family="Helvetica,sans-Serif" font-size="11.00" fill="#000000">&lt; 0</text>
<polygon fill="#ffffff" stroke="transparent" points="69.5,-40.2 69.5,-59.2 120.5,-59.2 120.5,-40.2 69.5,-40.2"/>
<polygon fill="none" stroke="#000000" points="69.5,-40.2 69.5,-59.2 120.5,-59.2 120.5,-40.2 69.5,-40.2"/>
<text text-anchor="start" x="111.3862" y="-46.3" font-family="Helvetica,sans-Serif" font-size="11.00" fill="#000000"> &#160;</text>
<polygon fill="#ffffff" stroke="transparent" points="120.5,-40.2 120.5,-59.2 229.5,-59.2 229.5,-40.2 120.5,-40.2"/>
<polygon fill="none" stroke="#000000" points="120.5,-40.2 120.5,-59.2 229.5,-59.2 229.5,-40.2 120.5,-40.2"/>
<text text-anchor="start" x="210.9053" y="-46.3" font-family="Helvetica,sans-Serif" font-size="11.00" fill="#000000">0 &gt;</text>
<polygon fill="none" stroke="#000000" stroke-width="2" points="9,-39.2 9,-237.2 230,-237.2 230,-39.2 9,-39.2"/>
</a>
</g>
</g>
</g>
</svg>
