<?xml version="1.0" encoding="UTF-8" standalone="no"?>
<!DOCTYPE svg PUBLIC "-//W3C//DTD SVG 1.1//EN"
 "http://www.w3.org/Graphics/SVG/1.1/DTD/svg11.dtd">
<!-- Generated by graphviz version 2.40.1 (20161225.0304)
 -->
<!-- Title: oneDegreeRelationshipsDiagram Pages: 1 -->
<svg width="484pt" height="602pt"
 viewBox="0.00 0.00 484.00 602.20" xmlns="http://www.w3.org/2000/svg" xmlns:xlink="http://www.w3.org/1999/xlink">
<g id="graph0" class="graph" transform="scale(1 1) rotate(0) translate(4 598.2)">
<title>oneDegreeRelationshipsDiagram</title>
<polygon fill="#ffffff" stroke="transparent" points="-4,4 -4,-598.2 480,-598.2 480,4 -4,4"/>
<text text-anchor="middle" x="72.4936" y="-7.3" font-family="Helvetica,sans-Serif" font-size="11.00" fill="#000000">Generated by SchemaSpy</text>
<!-- matriculas_eja_modular -->
<g id="node1" class="node">
<title>matriculas_eja_modular</title>
<g id="a_node1"><a xlink:href="../../tables/matriculas_eja_modular.html" xlink:title="matriculas_eja_modular" target="_top">
<polygon fill="#ffffff" stroke="transparent" points="8,-38.2 8,-590.2 468,-590.2 468,-38.2 8,-38.2"/>
<polygon fill="#f5f5f5" stroke="transparent" points="10,-565.2 10,-588.2 466,-588.2 466,-565.2 10,-565.2"/>
<polygon fill="none" stroke="#000000" points="10,-565.2 10,-588.2 466,-588.2 466,-565.2 10,-565.2"/>
<text text-anchor="start" x="15" y="-573.8" font-family="Helvetica,sans-Serif" font-weight="bold" font-size="11.00" fill="#000000">matriculas_eja_modular</text>
<text text-anchor="start" x="431.0437" y="-573.3" font-family="Helvetica,sans-Serif" font-size="11.00" fill="#000000">[table]</text>
<polygon fill="none" stroke="#000000" points="10,-543.2 10,-565.2 230,-565.2 230,-543.2 10,-543.2"/>
<text text-anchor="start" x="30" y="-550.3" font-family="Helvetica,sans-Serif" font-size="11.00" fill="#000000">sistema</text>
<polygon fill="none" stroke="#000000" points="230,-543.2 230,-565.2 466,-565.2 466,-543.2 230,-543.2"/>
<text text-anchor="start" x="233" y="-550.9" font-family="Helvetica,sans-Serif" font-size="11.00" fill="#000000">int4[10]</text>
<polygon fill="none" stroke="#000000" points="10,-521.2 10,-543.2 230,-543.2 230,-521.2 10,-521.2"/>
<text text-anchor="start" x="30" y="-528.3" font-family="Helvetica,sans-Serif" font-size="11.00" fill="#000000">tipo_registro</text>
<polygon fill="none" stroke="#000000" points="230,-521.2 230,-543.2 466,-543.2 466,-521.2 230,-521.2"/>
<text text-anchor="start" x="233" y="-528.9" font-family="Helvetica,sans-Serif" font-size="11.00" fill="#000000">text[2147483647]</text>
<polygon fill="none" stroke="#000000" points="10,-499.2 10,-521.2 230,-521.2 230,-499.2 10,-499.2"/>
<text text-anchor="start" x="30" y="-506.3" font-family="Helvetica,sans-Serif" font-size="11.00" fill="#000000">id_integracao</text>
<polygon fill="none" stroke="#000000" points="230,-499.2 230,-521.2 466,-521.2 466,-499.2 230,-499.2"/>
<text text-anchor="start" x="233" y="-506.9" font-family="Helvetica,sans-Serif" font-size="11.00" fill="#000000">varchar[2147483647]</text>
<polygon fill="none" stroke="#000000" points="10,-477.2 10,-499.2 230,-499.2 230,-477.2 10,-477.2"/>
<text text-anchor="start" x="30" y="-484.3" font-family="Helvetica,sans-Serif" font-size="11.00" fill="#000000">id_origem</text>
<polygon fill="none" stroke="#000000" points="230,-477.2 230,-499.2 466,-499.2 466,-477.2 230,-477.2"/>
<text text-anchor="start" x="233" y="-484.9" font-family="Helvetica,sans-Serif" font-size="11.00" fill="#000000">int4[10]</text>
<polygon fill="none" stroke="#000000" points="10,-455.2 10,-477.2 230,-477.2 230,-455.2 10,-455.2"/>
<text text-anchor="start" x="30" y="-462.3" font-family="Helvetica,sans-Serif" font-size="11.00" fill="#000000">id_cloud</text>
<polygon fill="none" stroke="#000000" points="230,-455.2 230,-477.2 466,-477.2 466,-455.2 230,-455.2"/>
<text text-anchor="start" x="233" y="-462.9" font-family="Helvetica,sans-Serif" font-size="11.00" fill="#000000">int4[10]</text>
<polygon fill="none" stroke="#000000" points="10,-433.2 10,-455.2 230,-455.2 230,-433.2 10,-433.2"/>
<image xlink:href="../../images/foreignKeys.png" width="11px" height="12px" preserveAspectRatio="xMinYMin meet" x="15" y="-450.2"/>
<text text-anchor="start" x="30" y="-440.3" font-family="Helvetica,sans-Serif" font-size="11.00" fill="#000000">ano_letivo_origem_id</text>
<polygon fill="none" stroke="#000000" points="230,-433.2 230,-455.2 466,-455.2 466,-433.2 230,-433.2"/>
<text text-anchor="start" x="233" y="-440.9" font-family="Helvetica,sans-Serif" font-size="11.00" fill="#000000">int4[10]</text>
<polygon fill="none" stroke="#000000" points="10,-411.2 10,-433.2 230,-433.2 230,-411.2 10,-411.2"/>
<image xlink:href="../../images/foreignKeys.png" width="11px" height="12px" preserveAspectRatio="xMinYMin meet" x="15" y="-428.2"/>
<text text-anchor="start" x="30" y="-418.3" font-family="Helvetica,sans-Serif" font-size="11.00" fill="#000000">ano_letivo_cloud_id</text>
<polygon fill="none" stroke="#000000" points="230,-411.2 230,-433.2 466,-433.2 466,-411.2 230,-411.2"/>
<text text-anchor="start" x="233" y="-418.9" font-family="Helvetica,sans-Serif" font-size="11.00" fill="#000000">int4[10]</text>
<polygon fill="none" stroke="#000000" points="10,-389.2 10,-411.2 230,-411.2 230,-389.2 10,-389.2"/>
<image xlink:href="../../images/foreignKeys.png" width="11px" height="12px" preserveAspectRatio="xMinYMin meet" x="15" y="-406.2"/>
<text text-anchor="start" x="30" y="-396.3" font-family="Helvetica,sans-Serif" font-size="11.00" fill="#000000">estabelecimento_origem_id</text>
<polygon fill="none" stroke="#000000" points="230,-389.2 230,-411.2 466,-411.2 466,-389.2 230,-389.2"/>
<text text-anchor="start" x="233" y="-396.9" font-family="Helvetica,sans-Serif" font-size="11.00" fill="#000000">int4[10]</text>
<polygon fill="none" stroke="#000000" points="10,-367.2 10,-389.2 230,-389.2 230,-367.2 10,-367.2"/>
<image xlink:href="../../images/foreignKeys.png" width="11px" height="12px" preserveAspectRatio="xMinYMin meet" x="15" y="-384.2"/>
<text text-anchor="start" x="30" y="-374.3" font-family="Helvetica,sans-Serif" font-size="11.00" fill="#000000">estabelecimento_cloud_id</text>
<polygon fill="none" stroke="#000000" points="230,-367.2 230,-389.2 466,-389.2 466,-367.2 230,-367.2"/>
<text text-anchor="start" x="233" y="-374.9" font-family="Helvetica,sans-Serif" font-size="11.00" fill="#000000">int4[10]</text>
<polygon fill="none" stroke="#000000" points="10,-345.2 10,-367.2 230,-367.2 230,-345.2 10,-345.2"/>
<text text-anchor="start" x="30" y="-352.3" font-family="Helvetica,sans-Serif" font-size="11.00" fill="#000000">situacao</text>
<polygon fill="none" stroke="#000000" points="230,-345.2 230,-367.2 466,-367.2 466,-345.2 230,-345.2"/>
<text text-anchor="start" x="232.8993" y="-352.9" font-family="Helvetica,sans-Serif" font-size="11.00" fill="#000000">&quot;educacao&quot;.&quot;situacoescadastrais&quot;[2147483647]</text>
<polygon fill="none" stroke="#000000" points="10,-323.2 10,-345.2 230,-345.2 230,-323.2 10,-323.2"/>
<image xlink:href="../../images/foreignKeys.png" width="11px" height="12px" preserveAspectRatio="xMinYMin meet" x="15" y="-340.2"/>
<text text-anchor="start" x="30" y="-330.3" font-family="Helvetica,sans-Serif" font-size="11.00" fill="#000000">aluno_origem_id</text>
<polygon fill="none" stroke="#000000" points="230,-323.2 230,-345.2 466,-345.2 466,-323.2 230,-323.2"/>
<text text-anchor="start" x="233" y="-330.9" font-family="Helvetica,sans-Serif" font-size="11.00" fill="#000000">int4[10]</text>
<polygon fill="none" stroke="#000000" points="10,-301.2 10,-323.2 230,-323.2 230,-301.2 10,-301.2"/>
<image xlink:href="../../images/foreignKeys.png" width="11px" height="12px" preserveAspectRatio="xMinYMin meet" x="15" y="-318.2"/>
<text text-anchor="start" x="30" y="-308.3" font-family="Helvetica,sans-Serif" font-size="11.00" fill="#000000">aluno_cloud_id</text>
<polygon fill="none" stroke="#000000" points="230,-301.2 230,-323.2 466,-323.2 466,-301.2 230,-301.2"/>
<text text-anchor="start" x="233" y="-308.9" font-family="Helvetica,sans-Serif" font-size="11.00" fill="#000000">int4[10]</text>
<polygon fill="none" stroke="#000000" points="10,-279.2 10,-301.2 230,-301.2 230,-279.2 10,-279.2"/>
<text text-anchor="start" x="30" y="-286.3" font-family="Helvetica,sans-Serif" font-size="11.00" fill="#000000">nome</text>
<polygon fill="none" stroke="#000000" points="230,-279.2 230,-301.2 466,-301.2 466,-279.2 230,-279.2"/>
<text text-anchor="start" x="233" y="-286.9" font-family="Helvetica,sans-Serif" font-size="11.00" fill="#000000">varchar[155]</text>
<polygon fill="none" stroke="#000000" points="10,-257.2 10,-279.2 230,-279.2 230,-257.2 10,-257.2"/>
<text text-anchor="start" x="30" y="-264.3" font-family="Helvetica,sans-Serif" font-size="11.00" fill="#000000">data</text>
<polygon fill="none" stroke="#000000" points="230,-257.2 230,-279.2 466,-279.2 466,-257.2 230,-257.2"/>
<text text-anchor="start" x="233" y="-264.9" font-family="Helvetica,sans-Serif" font-size="11.00" fill="#000000">date[13]</text>
<polygon fill="none" stroke="#000000" points="10,-235.2 10,-257.2 230,-257.2 230,-235.2 10,-235.2"/>
<text text-anchor="start" x="30" y="-242.3" font-family="Helvetica,sans-Serif" font-size="11.00" fill="#000000">turno</text>
<polygon fill="none" stroke="#000000" points="230,-235.2 230,-257.2 466,-257.2 466,-235.2 230,-235.2"/>
<text text-anchor="start" x="233" y="-242.9" font-family="Helvetica,sans-Serif" font-size="11.00" fill="#000000">&quot;educacao&quot;.&quot;turnos&quot;[2147483647]</text>
<polygon fill="none" stroke="#000000" points="10,-213.2 10,-235.2 230,-235.2 230,-213.2 10,-213.2"/>
<image xlink:href="../../images/foreignKeys.png" width="11px" height="12px" preserveAspectRatio="xMinYMin meet" x="15" y="-230.2"/>
<text text-anchor="start" x="30" y="-220.3" font-family="Helvetica,sans-Serif" font-size="11.00" fill="#000000">etapa_matriz_disciplina_origem_id</text>
<polygon fill="none" stroke="#000000" points="230,-213.2 230,-235.2 466,-235.2 466,-213.2 230,-213.2"/>
<text text-anchor="start" x="233" y="-220.9" font-family="Helvetica,sans-Serif" font-size="11.00" fill="#000000">int4[10]</text>
<polygon fill="none" stroke="#000000" points="10,-191.2 10,-213.2 230,-213.2 230,-191.2 10,-191.2"/>
<image xlink:href="../../images/foreignKeys.png" width="11px" height="12px" preserveAspectRatio="xMinYMin meet" x="15" y="-208.2"/>
<text text-anchor="start" x="30" y="-198.3" font-family="Helvetica,sans-Serif" font-size="11.00" fill="#000000">etapa_matriz_disciplina_cloud_id</text>
<polygon fill="none" stroke="#000000" points="230,-191.2 230,-213.2 466,-213.2 466,-191.2 230,-191.2"/>
<text text-anchor="start" x="233" y="-198.9" font-family="Helvetica,sans-Serif" font-size="11.00" fill="#000000">int4[10]</text>
<polygon fill="none" stroke="#000000" points="10,-169.2 10,-191.2 230,-191.2 230,-169.2 10,-169.2"/>
<image xlink:href="../../images/foreignKeys.png" width="11px" height="12px" preserveAspectRatio="xMinYMin meet" x="15" y="-186.2"/>
<text text-anchor="start" x="30" y="-176.3" font-family="Helvetica,sans-Serif" font-size="11.00" fill="#000000">turma_origem_id</text>
<polygon fill="none" stroke="#000000" points="230,-169.2 230,-191.2 466,-191.2 466,-169.2 230,-169.2"/>
<text text-anchor="start" x="233" y="-176.9" font-family="Helvetica,sans-Serif" font-size="11.00" fill="#000000">int4[10]</text>
<polygon fill="none" stroke="#000000" points="10,-147.2 10,-169.2 230,-169.2 230,-147.2 10,-147.2"/>
<image xlink:href="../../images/foreignKeys.png" width="11px" height="12px" preserveAspectRatio="xMinYMin meet" x="15" y="-164.2"/>
<text text-anchor="start" x="30" y="-154.3" font-family="Helvetica,sans-Serif" font-size="11.00" fill="#000000">turma_cloud_id</text>
<polygon fill="none" stroke="#000000" points="230,-147.2 230,-169.2 466,-169.2 466,-147.2 230,-147.2"/>
<text text-anchor="start" x="233" y="-154.9" font-family="Helvetica,sans-Serif" font-size="11.00" fill="#000000">int4[10]</text>
<polygon fill="none" stroke="#000000" points="10,-125.2 10,-147.2 230,-147.2 230,-125.2 10,-125.2"/>
<image xlink:href="../../images/foreignKeys.png" width="11px" height="12px" preserveAspectRatio="xMinYMin meet" x="15" y="-142.2"/>
<text text-anchor="start" x="30" y="-132.3" font-family="Helvetica,sans-Serif" font-size="11.00" fill="#000000">pai_origem_id</text>
<polygon fill="none" stroke="#000000" points="230,-125.2 230,-147.2 466,-147.2 466,-125.2 230,-125.2"/>
<text text-anchor="start" x="233" y="-132.9" font-family="Helvetica,sans-Serif" font-size="11.00" fill="#000000">int4[10]</text>
<polygon fill="none" stroke="#000000" points="10,-103.2 10,-125.2 230,-125.2 230,-103.2 10,-103.2"/>
<image xlink:href="../../images/foreignKeys.png" width="11px" height="12px" preserveAspectRatio="xMinYMin meet" x="15" y="-120.2"/>
<text text-anchor="start" x="30" y="-110.3" font-family="Helvetica,sans-Serif" font-size="11.00" fill="#000000">pai_cloud_id</text>
<polygon fill="none" stroke="#000000" points="230,-103.2 230,-125.2 466,-125.2 466,-103.2 230,-103.2"/>
<text text-anchor="start" x="233" y="-110.9" font-family="Helvetica,sans-Serif" font-size="11.00" fill="#000000">int4[10]</text>
<polygon fill="none" stroke="#000000" points="10,-81.2 10,-103.2 230,-103.2 230,-81.2 10,-81.2"/>
<image xlink:href="../../images/foreignKeys.png" width="11px" height="12px" preserveAspectRatio="xMinYMin meet" x="15" y="-98.2"/>
<text text-anchor="start" x="30" y="-88.3" font-family="Helvetica,sans-Serif" font-size="11.00" fill="#000000">matriz_origem_id</text>
<polygon fill="none" stroke="#000000" points="230,-81.2 230,-103.2 466,-103.2 466,-81.2 230,-81.2"/>
<text text-anchor="start" x="233" y="-88.9" font-family="Helvetica,sans-Serif" font-size="11.00" fill="#000000">int4[10]</text>
<polygon fill="none" stroke="#000000" points="10,-59.2 10,-81.2 230,-81.2 230,-59.2 10,-59.2"/>
<image xlink:href="../../images/foreignKeys.png" width="11px" height="12px" preserveAspectRatio="xMinYMin meet" x="15" y="-76.2"/>
<text text-anchor="start" x="30" y="-66.3" font-family="Helvetica,sans-Serif" font-size="11.00" fill="#000000">matriz_cloud_id</text>
<polygon fill="none" stroke="#000000" points="230,-59.2 230,-81.2 466,-81.2 466,-59.2 230,-59.2"/>
<text text-anchor="start" x="233" y="-66.9" font-family="Helvetica,sans-Serif" font-size="11.00" fill="#000000">int4[10]</text>
<polygon fill="#ffffff" stroke="transparent" points="10,-40.2 10,-59.2 124,-59.2 124,-40.2 10,-40.2"/>
<polygon fill="none" stroke="#000000" points="10,-40.2 10,-59.2 124,-59.2 124,-40.2 10,-40.2"/>
<text text-anchor="start" x="13" y="-46.3" font-family="Helvetica,sans-Serif" font-size="11.00" fill="#000000">&lt; 0</text>
<polygon fill="#ffffff" stroke="transparent" points="124,-40.2 124,-59.2 230,-59.2 230,-40.2 124,-40.2"/>
<polygon fill="none" stroke="#000000" points="124,-40.2 124,-59.2 230,-59.2 230,-40.2 124,-40.2"/>
<text text-anchor="start" x="220.8862" y="-46.3" font-family="Helvetica,sans-Serif" font-size="11.00" fill="#000000"> &#160;</text>
<polygon fill="#ffffff" stroke="transparent" points="230,-40.2 230,-59.2 466,-59.2 466,-40.2 230,-40.2"/>
<polygon fill="none" stroke="#000000" points="230,-40.2 230,-59.2 466,-59.2 466,-40.2 230,-40.2"/>
<text text-anchor="start" x="447.4053" y="-46.3" font-family="Helvetica,sans-Serif" font-size="11.00" fill="#000000">0 &gt;</text>
<polygon fill="none" stroke="#000000" stroke-width="2" points="9,-39.2 9,-589.2 467,-589.2 467,-39.2 9,-39.2"/>
</a>
</g>
</g>
</g>
</svg>
