<?xml version="1.0" encoding="UTF-8" standalone="no"?>
<!DOCTYPE svg PUBLIC "-//W3C//DTD SVG 1.1//EN"
 "http://www.w3.org/Graphics/SVG/1.1/DTD/svg11.dtd">
<!-- Generated by graphviz version 2.40.1 (20161225.0304)
 -->
<!-- Title: oneDegreeRelationshipsDiagram Pages: 1 -->
<svg width="434pt" height="426pt"
 viewBox="0.00 0.00 434.00 426.20" xmlns="http://www.w3.org/2000/svg" xmlns:xlink="http://www.w3.org/1999/xlink">
<g id="graph0" class="graph" transform="scale(1 1) rotate(0) translate(4 422.2)">
<title>oneDegreeRelationshipsDiagram</title>
<polygon fill="#ffffff" stroke="transparent" points="-4,4 -4,-422.2 430,-422.2 430,4 -4,4"/>
<text text-anchor="middle" x="72.4936" y="-7.3" font-family="Helvetica,sans-Serif" font-size="11.00" fill="#000000">Generated by SchemaSpy</text>
<!-- matrizes_curriculares -->
<g id="node1" class="node">
<title>matrizes_curriculares</title>
<g id="a_node1"><a xlink:href="../../tables/matrizes_curriculares.html" xlink:title="matrizes_curriculares" target="_top">
<polygon fill="#ffffff" stroke="transparent" points="8,-38.2 8,-414.2 418,-414.2 418,-38.2 8,-38.2"/>
<polygon fill="#f5f5f5" stroke="transparent" points="10,-389.2 10,-412.2 416,-412.2 416,-389.2 10,-389.2"/>
<polygon fill="none" stroke="#000000" points="10,-389.2 10,-412.2 416,-412.2 416,-389.2 10,-389.2"/>
<text text-anchor="start" x="15" y="-397.8" font-family="Helvetica,sans-Serif" font-weight="bold" font-size="11.00" fill="#000000">matrizes_curriculares</text>
<text text-anchor="start" x="381.0437" y="-397.3" font-family="Helvetica,sans-Serif" font-size="11.00" fill="#000000">[table]</text>
<polygon fill="none" stroke="#000000" points="10,-367.2 10,-389.2 165,-389.2 165,-367.2 10,-367.2"/>
<text text-anchor="start" x="30" y="-374.3" font-family="Helvetica,sans-Serif" font-size="11.00" fill="#000000">sistema</text>
<polygon fill="none" stroke="#000000" points="165,-367.2 165,-389.2 416,-389.2 416,-367.2 165,-367.2"/>
<text text-anchor="start" x="168" y="-374.9" font-family="Helvetica,sans-Serif" font-size="11.00" fill="#000000">int4[10]</text>
<polygon fill="none" stroke="#000000" points="10,-345.2 10,-367.2 165,-367.2 165,-345.2 10,-345.2"/>
<text text-anchor="start" x="30" y="-352.3" font-family="Helvetica,sans-Serif" font-size="11.00" fill="#000000">tipo_registro</text>
<polygon fill="none" stroke="#000000" points="165,-345.2 165,-367.2 416,-367.2 416,-345.2 165,-345.2"/>
<text text-anchor="start" x="168" y="-352.9" font-family="Helvetica,sans-Serif" font-size="11.00" fill="#000000">text[2147483647]</text>
<polygon fill="none" stroke="#000000" points="10,-323.2 10,-345.2 165,-345.2 165,-323.2 10,-323.2"/>
<text text-anchor="start" x="30" y="-330.3" font-family="Helvetica,sans-Serif" font-size="11.00" fill="#000000">id_integracao</text>
<polygon fill="none" stroke="#000000" points="165,-323.2 165,-345.2 416,-345.2 416,-323.2 165,-323.2"/>
<text text-anchor="start" x="168" y="-330.9" font-family="Helvetica,sans-Serif" font-size="11.00" fill="#000000">varchar[2147483647]</text>
<polygon fill="none" stroke="#000000" points="10,-301.2 10,-323.2 165,-323.2 165,-301.2 10,-301.2"/>
<text text-anchor="start" x="30" y="-308.3" font-family="Helvetica,sans-Serif" font-size="11.00" fill="#000000">id_origem</text>
<polygon fill="none" stroke="#000000" points="165,-301.2 165,-323.2 416,-323.2 416,-301.2 165,-301.2"/>
<text text-anchor="start" x="168" y="-308.9" font-family="Helvetica,sans-Serif" font-size="11.00" fill="#000000">int4[10]</text>
<polygon fill="none" stroke="#000000" points="10,-279.2 10,-301.2 165,-301.2 165,-279.2 10,-279.2"/>
<text text-anchor="start" x="30" y="-286.3" font-family="Helvetica,sans-Serif" font-size="11.00" fill="#000000">id_cloud</text>
<polygon fill="none" stroke="#000000" points="165,-279.2 165,-301.2 416,-301.2 416,-279.2 165,-279.2"/>
<text text-anchor="start" x="168" y="-286.9" font-family="Helvetica,sans-Serif" font-size="11.00" fill="#000000">int4[10]</text>
<polygon fill="none" stroke="#000000" points="10,-257.2 10,-279.2 165,-279.2 165,-257.2 10,-257.2"/>
<text text-anchor="start" x="30" y="-264.3" font-family="Helvetica,sans-Serif" font-size="11.00" fill="#000000">descricao</text>
<polygon fill="none" stroke="#000000" points="165,-257.2 165,-279.2 416,-279.2 416,-257.2 165,-257.2"/>
<text text-anchor="start" x="168" y="-264.9" font-family="Helvetica,sans-Serif" font-size="11.00" fill="#000000">varchar[2147483647]</text>
<polygon fill="none" stroke="#000000" points="10,-235.2 10,-257.2 165,-257.2 165,-235.2 10,-235.2"/>
<text text-anchor="start" x="30" y="-242.3" font-family="Helvetica,sans-Serif" font-size="11.00" fill="#000000">modular</text>
<polygon fill="none" stroke="#000000" points="165,-235.2 165,-257.2 416,-257.2 416,-235.2 165,-235.2"/>
<text text-anchor="start" x="168" y="-242.9" font-family="Helvetica,sans-Serif" font-size="11.00" fill="#000000">bool[1]</text>
<polygon fill="none" stroke="#000000" points="10,-213.2 10,-235.2 165,-235.2 165,-213.2 10,-213.2"/>
<text text-anchor="start" x="30" y="-220.3" font-family="Helvetica,sans-Serif" font-size="11.00" fill="#000000">tipo_identificacao</text>
<polygon fill="none" stroke="#000000" points="165,-213.2 165,-235.2 416,-235.2 416,-213.2 165,-213.2"/>
<text text-anchor="start" x="168" y="-220.9" font-family="Helvetica,sans-Serif" font-size="11.00" fill="#000000">&quot;educacao&quot;.&quot;tiposidentifica&quot;[2147483647]</text>
<polygon fill="none" stroke="#000000" points="10,-191.2 10,-213.2 165,-213.2 165,-191.2 10,-191.2"/>
<text text-anchor="start" x="30" y="-198.3" font-family="Helvetica,sans-Serif" font-size="11.00" fill="#000000">tipo_organizacao</text>
<polygon fill="none" stroke="#000000" points="165,-191.2 165,-213.2 416,-213.2 416,-191.2 165,-191.2"/>
<text text-anchor="start" x="168" y="-198.9" font-family="Helvetica,sans-Serif" font-size="11.00" fill="#000000">&quot;educacao&quot;.&quot;tiposorganizacao&quot;[2147483647]</text>
<polygon fill="none" stroke="#000000" points="10,-169.2 10,-191.2 165,-191.2 165,-169.2 10,-169.2"/>
<text text-anchor="start" x="30" y="-176.3" font-family="Helvetica,sans-Serif" font-size="11.00" fill="#000000">dias_letivos</text>
<polygon fill="none" stroke="#000000" points="165,-169.2 165,-191.2 416,-191.2 416,-169.2 165,-169.2"/>
<text text-anchor="start" x="168" y="-176.9" font-family="Helvetica,sans-Serif" font-size="11.00" fill="#000000">int4[10]</text>
<polygon fill="none" stroke="#000000" points="10,-147.2 10,-169.2 165,-169.2 165,-147.2 10,-147.2"/>
<text text-anchor="start" x="30" y="-154.3" font-family="Helvetica,sans-Serif" font-size="11.00" fill="#000000">situacao_cadastral</text>
<polygon fill="none" stroke="#000000" points="165,-147.2 165,-169.2 416,-169.2 416,-147.2 165,-147.2"/>
<text text-anchor="start" x="168" y="-154.9" font-family="Helvetica,sans-Serif" font-size="11.00" fill="#000000">&quot;educacao&quot;.&quot;situacoescadastrais&quot;[2147483647]</text>
<polygon fill="none" stroke="#000000" points="10,-125.2 10,-147.2 165,-147.2 165,-125.2 10,-125.2"/>
<text text-anchor="start" x="30" y="-132.3" font-family="Helvetica,sans-Serif" font-size="11.00" fill="#000000">quantidade_modulos</text>
<polygon fill="none" stroke="#000000" points="165,-125.2 165,-147.2 416,-147.2 416,-125.2 165,-125.2"/>
<text text-anchor="start" x="168" y="-132.9" font-family="Helvetica,sans-Serif" font-size="11.00" fill="#000000">int4[10]</text>
<polygon fill="none" stroke="#000000" points="10,-103.2 10,-125.2 165,-125.2 165,-103.2 10,-103.2"/>
<text text-anchor="start" x="30" y="-110.3" font-family="Helvetica,sans-Serif" font-size="11.00" fill="#000000">estruturas_curriculares</text>
<polygon fill="none" stroke="#000000" points="165,-103.2 165,-125.2 416,-125.2 416,-103.2 165,-103.2"/>
<text text-anchor="start" x="167.768" y="-110.9" font-family="Helvetica,sans-Serif" font-size="11.00" fill="#000000">&quot;educacao&quot;.&quot;_estruturascurriculares&quot;[2147483647]</text>
<polygon fill="none" stroke="#000000" points="10,-81.2 10,-103.2 165,-103.2 165,-81.2 10,-81.2"/>
<image xlink:href="../../images/foreignKeys.png" width="11px" height="12px" preserveAspectRatio="xMinYMin meet" x="15" y="-98.2"/>
<text text-anchor="start" x="30" y="-88.3" font-family="Helvetica,sans-Serif" font-size="11.00" fill="#000000">curso_origem_id</text>
<polygon fill="none" stroke="#000000" points="165,-81.2 165,-103.2 416,-103.2 416,-81.2 165,-81.2"/>
<text text-anchor="start" x="168" y="-88.9" font-family="Helvetica,sans-Serif" font-size="11.00" fill="#000000">int4[10]</text>
<polygon fill="none" stroke="#000000" points="10,-59.2 10,-81.2 165,-81.2 165,-59.2 10,-59.2"/>
<image xlink:href="../../images/foreignKeys.png" width="11px" height="12px" preserveAspectRatio="xMinYMin meet" x="15" y="-76.2"/>
<text text-anchor="start" x="30" y="-66.3" font-family="Helvetica,sans-Serif" font-size="11.00" fill="#000000">curso_cloud_id</text>
<polygon fill="none" stroke="#000000" points="165,-59.2 165,-81.2 416,-81.2 416,-59.2 165,-59.2"/>
<text text-anchor="start" x="168" y="-66.9" font-family="Helvetica,sans-Serif" font-size="11.00" fill="#000000">int4[10]</text>
<polygon fill="#ffffff" stroke="transparent" points="10,-40.2 10,-59.2 92,-59.2 92,-40.2 10,-40.2"/>
<polygon fill="none" stroke="#000000" points="10,-40.2 10,-59.2 92,-59.2 92,-40.2 10,-40.2"/>
<text text-anchor="start" x="13" y="-46.3" font-family="Helvetica,sans-Serif" font-size="11.00" fill="#000000">&lt; 0</text>
<polygon fill="#ffffff" stroke="transparent" points="92,-40.2 92,-59.2 165,-59.2 165,-40.2 92,-40.2"/>
<polygon fill="none" stroke="#000000" points="92,-40.2 92,-59.2 165,-59.2 165,-40.2 92,-40.2"/>
<text text-anchor="start" x="155.8862" y="-46.3" font-family="Helvetica,sans-Serif" font-size="11.00" fill="#000000"> &#160;</text>
<polygon fill="#ffffff" stroke="transparent" points="165,-40.2 165,-59.2 416,-59.2 416,-40.2 165,-40.2"/>
<polygon fill="none" stroke="#000000" points="165,-40.2 165,-59.2 416,-59.2 416,-40.2 165,-40.2"/>
<text text-anchor="start" x="397.4053" y="-46.3" font-family="Helvetica,sans-Serif" font-size="11.00" fill="#000000">0 &gt;</text>
<polygon fill="none" stroke="#000000" stroke-width="2" points="9,-39.2 9,-413.2 417,-413.2 417,-39.2 9,-39.2"/>
</a>
</g>
</g>
</g>
</svg>
