<?xml version="1.0" encoding="UTF-8" standalone="no"?>
<!DOCTYPE svg PUBLIC "-//W3C//DTD SVG 1.1//EN"
 "http://www.w3.org/Graphics/SVG/1.1/DTD/svg11.dtd">
<!-- Generated by graphviz version 2.40.1 (20161225.0304)
 -->
<!-- Title: oneDegreeRelationshipsDiagramImplied Pages: 1 -->
<svg width="800pt" height="734pt"
 viewBox="0.00 0.00 800.00 734.20" xmlns="http://www.w3.org/2000/svg" xmlns:xlink="http://www.w3.org/1999/xlink">
<g id="graph0" class="graph" transform="scale(1 1) rotate(0) translate(4 730.2)">
<title>oneDegreeRelationshipsDiagramImplied</title>
<polygon fill="#ffffff" stroke="transparent" points="-4,4 -4,-730.2 796,-730.2 796,4 -4,4"/>
<text text-anchor="middle" x="72.4936" y="-7.3" font-family="Helvetica,sans-Serif" font-size="11.00" fill="#000000">Generated by SchemaSpy</text>
<!-- matriculas_movimentacao -->
<g id="node1" class="node">
<title>matriculas_movimentacao</title>
<g id="a_node1"><a xlink:href="../../tables/matriculas_movimentacao.html" xlink:title="matriculas_movimentacao" target="_top">
<polygon fill="#ffffff" stroke="transparent" points="286,-38.2 286,-722.2 784,-722.2 784,-38.2 286,-38.2"/>
<polygon fill="#f5f5f5" stroke="transparent" points="288,-697.2 288,-720.2 782,-720.2 782,-697.2 288,-697.2"/>
<polygon fill="none" stroke="#000000" points="288,-697.2 288,-720.2 782,-720.2 782,-697.2 288,-697.2"/>
<text text-anchor="start" x="293" y="-705.8" font-family="Helvetica,sans-Serif" font-weight="bold" font-size="11.00" fill="#000000">matriculas_movimentacao</text>
<text text-anchor="start" x="747.0437" y="-705.3" font-family="Helvetica,sans-Serif" font-size="11.00" fill="#000000">[table]</text>
<polygon fill="none" stroke="#000000" points="288,-675.2 288,-697.2 493,-697.2 493,-675.2 288,-675.2"/>
<text text-anchor="start" x="308" y="-682.3" font-family="Helvetica,sans-Serif" font-size="11.00" fill="#000000">sistema</text>
<polygon fill="none" stroke="#000000" points="493,-675.2 493,-697.2 782,-697.2 782,-675.2 493,-675.2"/>
<text text-anchor="start" x="496" y="-682.9" font-family="Helvetica,sans-Serif" font-size="11.00" fill="#000000">int4[10]</text>
<polygon fill="none" stroke="#000000" points="288,-653.2 288,-675.2 493,-675.2 493,-653.2 288,-653.2"/>
<text text-anchor="start" x="308" y="-660.3" font-family="Helvetica,sans-Serif" font-size="11.00" fill="#000000">tipo_registro</text>
<polygon fill="none" stroke="#000000" points="493,-653.2 493,-675.2 782,-675.2 782,-653.2 493,-653.2"/>
<text text-anchor="start" x="496" y="-660.9" font-family="Helvetica,sans-Serif" font-size="11.00" fill="#000000">text[2147483647]</text>
<polygon fill="none" stroke="#000000" points="288,-631.2 288,-653.2 493,-653.2 493,-631.2 288,-631.2"/>
<text text-anchor="start" x="308" y="-638.3" font-family="Helvetica,sans-Serif" font-size="11.00" fill="#000000">id_integracao</text>
<polygon fill="none" stroke="#000000" points="493,-631.2 493,-653.2 782,-653.2 782,-631.2 493,-631.2"/>
<text text-anchor="start" x="496" y="-638.9" font-family="Helvetica,sans-Serif" font-size="11.00" fill="#000000">varchar[2147483647]</text>
<polygon fill="none" stroke="#000000" points="288,-609.2 288,-631.2 493,-631.2 493,-609.2 288,-609.2"/>
<text text-anchor="start" x="308" y="-616.3" font-family="Helvetica,sans-Serif" font-size="11.00" fill="#000000">id_origem</text>
<polygon fill="none" stroke="#000000" points="493,-609.2 493,-631.2 782,-631.2 782,-609.2 493,-609.2"/>
<text text-anchor="start" x="496" y="-616.9" font-family="Helvetica,sans-Serif" font-size="11.00" fill="#000000">int4[10]</text>
<polygon fill="none" stroke="#000000" points="288,-587.2 288,-609.2 493,-609.2 493,-587.2 288,-587.2"/>
<text text-anchor="start" x="308" y="-594.3" font-family="Helvetica,sans-Serif" font-size="11.00" fill="#000000">id_cloud</text>
<polygon fill="none" stroke="#000000" points="493,-587.2 493,-609.2 782,-609.2 782,-587.2 493,-587.2"/>
<text text-anchor="start" x="496" y="-594.9" font-family="Helvetica,sans-Serif" font-size="11.00" fill="#000000">int4[10]</text>
<polygon fill="none" stroke="#000000" points="288,-565.2 288,-587.2 493,-587.2 493,-565.2 288,-565.2"/>
<text text-anchor="start" x="308" y="-572.3" font-family="Helvetica,sans-Serif" font-size="11.00" fill="#000000">type</text>
<polygon fill="none" stroke="#000000" points="493,-565.2 493,-587.2 782,-587.2 782,-565.2 493,-565.2"/>
<text text-anchor="start" x="496" y="-572.9" font-family="Helvetica,sans-Serif" font-size="11.00" fill="#000000">&quot;educacao&quot;.&quot;matriculatypes&quot;[2147483647]</text>
<polygon fill="none" stroke="#000000" points="288,-543.2 288,-565.2 493,-565.2 493,-543.2 288,-543.2"/>
<text text-anchor="start" x="308" y="-550.3" font-family="Helvetica,sans-Serif" font-size="11.00" fill="#000000">turno</text>
<polygon fill="none" stroke="#000000" points="493,-543.2 493,-565.2 782,-565.2 782,-543.2 493,-543.2"/>
<text text-anchor="start" x="496" y="-550.9" font-family="Helvetica,sans-Serif" font-size="11.00" fill="#000000">&quot;educacao&quot;.&quot;turnos&quot;[2147483647]</text>
<polygon fill="none" stroke="#000000" points="288,-521.2 288,-543.2 493,-543.2 493,-521.2 288,-521.2"/>
<image xlink:href="../../images/foreignKeys.png" width="11px" height="12px" preserveAspectRatio="xMinYMin meet" x="293" y="-538.2"/>
<text text-anchor="start" x="308" y="-528.3" font-family="Helvetica,sans-Serif" font-size="11.00" fill="#000000">estabelecimento_origem_id</text>
<polygon fill="none" stroke="#000000" points="493,-521.2 493,-543.2 782,-543.2 782,-521.2 493,-521.2"/>
<text text-anchor="start" x="496" y="-528.9" font-family="Helvetica,sans-Serif" font-size="11.00" fill="#000000">int4[10]</text>
<polygon fill="none" stroke="#000000" points="288,-499.2 288,-521.2 493,-521.2 493,-499.2 288,-499.2"/>
<image xlink:href="../../images/foreignKeys.png" width="11px" height="12px" preserveAspectRatio="xMinYMin meet" x="293" y="-516.2"/>
<text text-anchor="start" x="308" y="-506.3" font-family="Helvetica,sans-Serif" font-size="11.00" fill="#000000">estabelecimento_cloud_id</text>
<polygon fill="none" stroke="#000000" points="493,-499.2 493,-521.2 782,-521.2 782,-499.2 493,-499.2"/>
<text text-anchor="start" x="496" y="-506.9" font-family="Helvetica,sans-Serif" font-size="11.00" fill="#000000">int4[10]</text>
<polygon fill="none" stroke="#000000" points="288,-477.2 288,-499.2 493,-499.2 493,-477.2 288,-477.2"/>
<image xlink:href="../../images/foreignKeys.png" width="11px" height="12px" preserveAspectRatio="xMinYMin meet" x="293" y="-494.2"/>
<text text-anchor="start" x="308" y="-484.3" font-family="Helvetica,sans-Serif" font-size="11.00" fill="#000000">ano_letivo_origem_id</text>
<polygon fill="none" stroke="#000000" points="493,-477.2 493,-499.2 782,-499.2 782,-477.2 493,-477.2"/>
<text text-anchor="start" x="496" y="-484.9" font-family="Helvetica,sans-Serif" font-size="11.00" fill="#000000">int4[10]</text>
<polygon fill="none" stroke="#000000" points="288,-455.2 288,-477.2 493,-477.2 493,-455.2 288,-455.2"/>
<image xlink:href="../../images/foreignKeys.png" width="11px" height="12px" preserveAspectRatio="xMinYMin meet" x="293" y="-472.2"/>
<text text-anchor="start" x="308" y="-462.3" font-family="Helvetica,sans-Serif" font-size="11.00" fill="#000000">ano_letivo_cloud_id</text>
<polygon fill="none" stroke="#000000" points="493,-455.2 493,-477.2 782,-477.2 782,-455.2 493,-455.2"/>
<text text-anchor="start" x="496" y="-462.9" font-family="Helvetica,sans-Serif" font-size="11.00" fill="#000000">int4[10]</text>
<polygon fill="none" stroke="#000000" points="288,-433.2 288,-455.2 493,-455.2 493,-433.2 288,-433.2"/>
<text text-anchor="start" x="308" y="-440.3" font-family="Helvetica,sans-Serif" font-size="11.00" fill="#000000">tipo</text>
<polygon fill="none" stroke="#000000" points="493,-433.2 493,-455.2 782,-455.2 782,-433.2 493,-433.2"/>
<text text-anchor="start" x="496" y="-440.9" font-family="Helvetica,sans-Serif" font-size="11.00" fill="#000000">&quot;educacao&quot;.&quot;tiposmatricula&quot;[2147483647]</text>
<polygon fill="none" stroke="#000000" points="288,-411.2 288,-433.2 493,-433.2 493,-411.2 288,-411.2"/>
<image xlink:href="../../images/foreignKeys.png" width="11px" height="12px" preserveAspectRatio="xMinYMin meet" x="293" y="-428.2"/>
<text text-anchor="start" x="308" y="-418.3" font-family="Helvetica,sans-Serif" font-size="11.00" fill="#000000">aluno_origem_id</text>
<polygon fill="none" stroke="#000000" points="493,-411.2 493,-433.2 782,-433.2 782,-411.2 493,-411.2"/>
<text text-anchor="start" x="496" y="-418.9" font-family="Helvetica,sans-Serif" font-size="11.00" fill="#000000">int4[10]</text>
<polygon fill="none" stroke="#000000" points="288,-389.2 288,-411.2 493,-411.2 493,-389.2 288,-389.2"/>
<image xlink:href="../../images/foreignKeys.png" width="11px" height="12px" preserveAspectRatio="xMinYMin meet" x="293" y="-406.2"/>
<text text-anchor="start" x="308" y="-396.3" font-family="Helvetica,sans-Serif" font-size="11.00" fill="#000000">aluno_cloud_id</text>
<polygon fill="none" stroke="#000000" points="493,-389.2 493,-411.2 782,-411.2 782,-389.2 493,-389.2"/>
<text text-anchor="start" x="496" y="-396.9" font-family="Helvetica,sans-Serif" font-size="11.00" fill="#000000">int4[10]</text>
<polygon fill="none" stroke="#000000" points="288,-367.2 288,-389.2 493,-389.2 493,-367.2 288,-367.2"/>
<text text-anchor="start" x="308" y="-374.3" font-family="Helvetica,sans-Serif" font-size="11.00" fill="#000000">data</text>
<polygon fill="none" stroke="#000000" points="493,-367.2 493,-389.2 782,-389.2 782,-367.2 493,-367.2"/>
<text text-anchor="start" x="496" y="-374.9" font-family="Helvetica,sans-Serif" font-size="11.00" fill="#000000">date[13]</text>
<polygon fill="none" stroke="#000000" points="288,-345.2 288,-367.2 493,-367.2 493,-345.2 288,-345.2"/>
<text text-anchor="start" x="308" y="-352.3" font-family="Helvetica,sans-Serif" font-size="11.00" fill="#000000">espaco_diferenciado</text>
<polygon fill="none" stroke="#000000" points="493,-345.2 493,-367.2 782,-367.2 782,-345.2 493,-345.2"/>
<text text-anchor="start" x="496" y="-352.9" font-family="Helvetica,sans-Serif" font-size="11.00" fill="#000000">&quot;educacao&quot;.&quot;tiposespacodiferenciado&quot;[2147483647]</text>
<polygon fill="none" stroke="#000000" points="288,-323.2 288,-345.2 493,-345.2 493,-323.2 288,-323.2"/>
<text text-anchor="start" x="308" y="-330.3" font-family="Helvetica,sans-Serif" font-size="11.00" fill="#000000">utilizar_transporte_escolar</text>
<polygon fill="none" stroke="#000000" points="493,-323.2 493,-345.2 782,-345.2 782,-323.2 493,-323.2"/>
<text text-anchor="start" x="496" y="-330.9" font-family="Helvetica,sans-Serif" font-size="11.00" fill="#000000">bool[1]</text>
<polygon fill="none" stroke="#000000" points="288,-301.2 288,-323.2 493,-323.2 493,-301.2 288,-301.2"/>
<text text-anchor="start" x="308" y="-308.3" font-family="Helvetica,sans-Serif" font-size="11.00" fill="#000000">responsavel_transporte_escolar</text>
<polygon fill="none" stroke="#000000" points="493,-301.2 493,-323.2 782,-323.2 782,-301.2 493,-301.2"/>
<text text-anchor="start" x="495.8118" y="-308.9" font-family="Helvetica,sans-Serif" font-size="11.00" fill="#000000">&quot;educacao&quot;.&quot;responsaveistransporteescolar&quot;[2147483647]</text>
<polygon fill="none" stroke="#000000" points="288,-279.2 288,-301.2 493,-301.2 493,-279.2 288,-279.2"/>
<text text-anchor="start" x="308" y="-286.3" font-family="Helvetica,sans-Serif" font-size="11.00" fill="#000000">veiculos</text>
<polygon fill="none" stroke="#000000" points="493,-279.2 493,-301.2 782,-301.2 782,-279.2 493,-279.2"/>
<text text-anchor="start" x="496" y="-286.9" font-family="Helvetica,sans-Serif" font-size="11.00" fill="#000000">&quot;educacao&quot;.&quot;_tiposveiculos&quot;[2147483647]</text>
<polygon fill="none" stroke="#000000" points="288,-257.2 288,-279.2 493,-279.2 493,-257.2 288,-257.2"/>
<image xlink:href="../../images/foreignKeys.png" width="11px" height="12px" preserveAspectRatio="xMinYMin meet" x="293" y="-274.2"/>
<text text-anchor="start" x="308" y="-264.3" font-family="Helvetica,sans-Serif" font-size="11.00" fill="#000000">vaga_origem_id</text>
<polygon fill="none" stroke="#000000" points="493,-257.2 493,-279.2 782,-279.2 782,-257.2 493,-257.2"/>
<text text-anchor="start" x="496" y="-264.9" font-family="Helvetica,sans-Serif" font-size="11.00" fill="#000000">int4[10]</text>
<polygon fill="none" stroke="#000000" points="288,-235.2 288,-257.2 493,-257.2 493,-235.2 288,-235.2"/>
<image xlink:href="../../images/foreignKeys.png" width="11px" height="12px" preserveAspectRatio="xMinYMin meet" x="293" y="-252.2"/>
<text text-anchor="start" x="308" y="-242.3" font-family="Helvetica,sans-Serif" font-size="11.00" fill="#000000">vaga_cloud_id</text>
<polygon fill="none" stroke="#000000" points="493,-235.2 493,-257.2 782,-257.2 782,-235.2 493,-235.2"/>
<text text-anchor="start" x="496" y="-242.9" font-family="Helvetica,sans-Serif" font-size="11.00" fill="#000000">int4[10]</text>
<polygon fill="none" stroke="#000000" points="288,-213.2 288,-235.2 493,-235.2 493,-213.2 288,-213.2"/>
<image xlink:href="../../images/foreignKeys.png" width="11px" height="12px" preserveAspectRatio="xMinYMin meet" x="293" y="-230.2"/>
<text text-anchor="start" x="308" y="-220.3" font-family="Helvetica,sans-Serif" font-size="11.00" fill="#000000">turma_origem_id</text>
<polygon fill="none" stroke="#000000" points="493,-213.2 493,-235.2 782,-235.2 782,-213.2 493,-213.2"/>
<text text-anchor="start" x="496" y="-220.9" font-family="Helvetica,sans-Serif" font-size="11.00" fill="#000000">int4[10]</text>
<polygon fill="none" stroke="#000000" points="288,-191.2 288,-213.2 493,-213.2 493,-191.2 288,-191.2"/>
<image xlink:href="../../images/foreignKeys.png" width="11px" height="12px" preserveAspectRatio="xMinYMin meet" x="293" y="-208.2"/>
<text text-anchor="start" x="308" y="-198.3" font-family="Helvetica,sans-Serif" font-size="11.00" fill="#000000">turma_cloud_id</text>
<polygon fill="none" stroke="#000000" points="493,-191.2 493,-213.2 782,-213.2 782,-191.2 493,-191.2"/>
<text text-anchor="start" x="496" y="-198.9" font-family="Helvetica,sans-Serif" font-size="11.00" fill="#000000">int4[10]</text>
<polygon fill="none" stroke="#000000" points="288,-169.2 288,-191.2 493,-191.2 493,-169.2 288,-169.2"/>
<text text-anchor="start" x="308" y="-176.3" font-family="Helvetica,sans-Serif" font-size="11.00" fill="#000000">situacao</text>
<polygon fill="none" stroke="#000000" points="493,-169.2 493,-191.2 782,-191.2 782,-169.2 493,-169.2"/>
<text text-anchor="start" x="496" y="-176.9" font-family="Helvetica,sans-Serif" font-size="11.00" fill="#000000">&quot;educacao&quot;.&quot;situacoesmatricula&quot;[2147483647]</text>
<polygon fill="none" stroke="#000000" points="288,-147.2 288,-169.2 493,-169.2 493,-147.2 288,-147.2"/>
<image xlink:href="../../images/foreignKeys.png" width="11px" height="12px" preserveAspectRatio="xMinYMin meet" x="293" y="-164.2"/>
<text text-anchor="start" x="308" y="-154.3" font-family="Helvetica,sans-Serif" font-size="11.00" fill="#000000">motivo_origem_id</text>
<polygon fill="none" stroke="#000000" points="493,-147.2 493,-169.2 782,-169.2 782,-147.2 493,-147.2"/>
<text text-anchor="start" x="496" y="-154.9" font-family="Helvetica,sans-Serif" font-size="11.00" fill="#000000">int4[10]</text>
<polygon fill="none" stroke="#000000" points="288,-125.2 288,-147.2 493,-147.2 493,-125.2 288,-125.2"/>
<image xlink:href="../../images/foreignKeys.png" width="11px" height="12px" preserveAspectRatio="xMinYMin meet" x="293" y="-142.2"/>
<text text-anchor="start" x="308" y="-132.3" font-family="Helvetica,sans-Serif" font-size="11.00" fill="#000000">motivo_cloud_id</text>
<polygon fill="none" stroke="#000000" points="493,-125.2 493,-147.2 782,-147.2 782,-125.2 493,-125.2"/>
<text text-anchor="start" x="496" y="-132.9" font-family="Helvetica,sans-Serif" font-size="11.00" fill="#000000">int4[10]</text>
<polygon fill="none" stroke="#000000" points="288,-103.2 288,-125.2 493,-125.2 493,-103.2 288,-103.2"/>
<text text-anchor="start" x="308" y="-110.3" font-family="Helvetica,sans-Serif" font-size="11.00" fill="#000000">tipo_movimentacao</text>
<polygon fill="none" stroke="#000000" points="493,-103.2 493,-125.2 782,-125.2 782,-103.2 493,-103.2"/>
<text text-anchor="start" x="496" y="-110.9" font-family="Helvetica,sans-Serif" font-size="11.00" fill="#000000">&quot;educacao&quot;.&quot;tiposmovimentacoes&quot;[2147483647]</text>
<polygon fill="none" stroke="#000000" points="288,-81.2 288,-103.2 493,-103.2 493,-81.2 288,-81.2"/>
<text text-anchor="start" x="308" y="-88.3" font-family="Helvetica,sans-Serif" font-size="11.00" fill="#000000">data_movimentacao</text>
<polygon fill="none" stroke="#000000" points="493,-81.2 493,-103.2 782,-103.2 782,-81.2 493,-81.2"/>
<text text-anchor="start" x="496" y="-88.9" font-family="Helvetica,sans-Serif" font-size="11.00" fill="#000000">date[13]</text>
<polygon fill="none" stroke="#000000" points="288,-59.2 288,-81.2 493,-81.2 493,-59.2 288,-59.2"/>
<text text-anchor="start" x="308" y="-66.3" font-family="Helvetica,sans-Serif" font-size="11.00" fill="#000000">observacoes</text>
<polygon fill="none" stroke="#000000" points="493,-59.2 493,-81.2 782,-81.2 782,-59.2 493,-59.2"/>
<text text-anchor="start" x="496" y="-66.9" font-family="Helvetica,sans-Serif" font-size="11.00" fill="#000000">varchar[4000]</text>
<polygon fill="#ffffff" stroke="transparent" points="288,-40.2 288,-59.2 398,-59.2 398,-40.2 288,-40.2"/>
<polygon fill="none" stroke="#000000" points="288,-40.2 288,-59.2 398,-59.2 398,-40.2 288,-40.2"/>
<text text-anchor="start" x="291" y="-46.3" font-family="Helvetica,sans-Serif" font-size="11.00" fill="#000000">&lt; 12</text>
<polygon fill="#ffffff" stroke="transparent" points="398,-40.2 398,-59.2 493,-59.2 493,-40.2 398,-40.2"/>
<polygon fill="none" stroke="#000000" points="398,-40.2 398,-59.2 493,-59.2 493,-40.2 398,-40.2"/>
<text text-anchor="start" x="483.8862" y="-46.3" font-family="Helvetica,sans-Serif" font-size="11.00" fill="#000000"> &#160;</text>
<polygon fill="#ffffff" stroke="transparent" points="493,-40.2 493,-59.2 782,-59.2 782,-40.2 493,-40.2"/>
<polygon fill="none" stroke="#000000" points="493,-40.2 493,-59.2 782,-59.2 782,-40.2 493,-40.2"/>
<text text-anchor="start" x="763.4053" y="-46.3" font-family="Helvetica,sans-Serif" font-size="11.00" fill="#000000">0 &gt;</text>
<polygon fill="none" stroke="#000000" stroke-width="2" points="287,-39.2 287,-721.2 783,-721.2 783,-39.2 287,-39.2"/>
</a>
</g>
</g>
<!-- inscricao_lista_espera_situacoes -->
<g id="node2" class="node">
<title>inscricao_lista_espera_situacoes</title>
<g id="a_node2"><a xlink:href="../../tables/inscricao_lista_espera_situacoes.html" xlink:title="inscricao_lista_espera_situacoes" target="_top">
<polygon fill="#ffffff" stroke="transparent" points="8,-285.7 8,-368.7 237,-368.7 237,-285.7 8,-285.7"/>
<polygon fill="#f5f5f5" stroke="transparent" points="8.5,-345.2 8.5,-368.2 237.5,-368.2 237.5,-345.2 8.5,-345.2"/>
<polygon fill="none" stroke="#000000" points="8.5,-345.2 8.5,-368.2 237.5,-368.2 237.5,-345.2 8.5,-345.2"/>
<text text-anchor="start" x="13.5" y="-353.8" font-family="Helvetica,sans-Serif" font-weight="bold" font-size="11.00" fill="#000000">inscricao_lista_espera_situacoes</text>
<text text-anchor="start" x="203.0219" y="-353.3" font-family="Helvetica,sans-Serif" font-size="11.00" fill="#000000">[table]</text>
<polygon fill="none" stroke="#000000" points="8.5,-323.2 8.5,-345.2 237.5,-345.2 237.5,-323.2 8.5,-323.2"/>
<image xlink:href="../../images/primaryKeys.png" width="11px" height="12px" preserveAspectRatio="xMinYMin meet" x="13.5" y="-340.2"/>
<text text-anchor="start" x="37.5" y="-330.3" font-family="Helvetica,sans-Serif" font-size="11.00" fill="#000000">id</text>
<polygon fill="none" stroke="#000000" points="8.5,-304.2 8.5,-323.2 237.5,-323.2 237.5,-304.2 8.5,-304.2"/>
<text text-anchor="start" x="11.5" y="-310.3" font-family="Helvetica,sans-Serif" font-size="11.00" fill="#000000">...</text>
<polygon fill="#ffffff" stroke="transparent" points="8.5,-285.2 8.5,-304.2 106.5,-304.2 106.5,-285.2 8.5,-285.2"/>
<polygon fill="none" stroke="#000000" points="8.5,-285.2 8.5,-304.2 106.5,-304.2 106.5,-285.2 8.5,-285.2"/>
<text text-anchor="start" x="11.5" y="-291.3" font-family="Helvetica,sans-Serif" font-size="11.00" fill="#000000"> &#160;</text>
<polygon fill="#ffffff" stroke="transparent" points="106.5,-285.2 106.5,-304.2 161.5,-304.2 161.5,-285.2 106.5,-285.2"/>
<polygon fill="none" stroke="#000000" points="106.5,-285.2 106.5,-304.2 161.5,-304.2 161.5,-285.2 106.5,-285.2"/>
<text text-anchor="start" x="152.3862" y="-291.3" font-family="Helvetica,sans-Serif" font-size="11.00" fill="#000000"> &#160;</text>
<polygon fill="#ffffff" stroke="transparent" points="161.5,-285.2 161.5,-304.2 237.5,-304.2 237.5,-285.2 161.5,-285.2"/>
<polygon fill="none" stroke="#000000" points="161.5,-285.2 161.5,-304.2 237.5,-304.2 237.5,-285.2 161.5,-285.2"/>
<text text-anchor="start" x="206.6755" y="-291.3" font-family="Helvetica,sans-Serif" font-size="11.00" fill="#000000">596 &gt;</text>
</a>
</g>
</g>
<!-- matriculas_movimentacao&#45;&gt;inscricao_lista_espera_situacoes -->
<g id="edge1" class="edge">
<title>matriculas_movimentacao:w&#45;&gt;inscricao_lista_espera_situacoes:e</title>
<path fill="none" stroke="#000000" stroke-dasharray="5,2" d="M274.158,-395.4534C257.1101,-380.3202 268.3754,-334.2 237.5,-334.2"/>
<polygon fill="#000000" stroke="#000000" points="280.4326,-397.605 286.8323,-403.6054 284.2163,-398.9025 288,-400.2 288,-400.2 288,-400.2 284.2163,-398.9025 289.1677,-396.7946 280.4326,-397.605 280.4326,-397.605"/>
<ellipse fill="none" stroke="#000000" cx="277.4056" cy="-396.567" rx="3.2" ry="3.2"/>
</g>
<!-- matriculas_movimentacao&#45;&gt;inscricao_lista_espera_situacoes -->
<g id="edge2" class="edge">
<title>matriculas_movimentacao:w&#45;&gt;inscricao_lista_espera_situacoes:e</title>
<path fill="none" stroke="#000000" stroke-dasharray="5,2" d="M274.1222,-417.9556C251.9529,-400.3772 276.6046,-334.2 237.5,-334.2"/>
<polygon fill="#000000" stroke="#000000" points="280.3498,-419.8602 286.9471,-425.6426 284.1749,-421.0301 288,-422.2 288,-422.2 288,-422.2 284.1749,-421.0301 289.0529,-418.7574 280.3498,-419.8602 280.3498,-419.8602"/>
<ellipse fill="none" stroke="#000000" cx="277.2897" cy="-418.9243" rx="3.2" ry="3.2"/>
</g>
<!-- matriculas_movimentacao&#45;&gt;inscricao_lista_espera_situacoes -->
<g id="edge3" class="edge">
<title>matriculas_movimentacao:w&#45;&gt;inscricao_lista_espera_situacoes:e</title>
<path fill="none" stroke="#000000" stroke-dasharray="5,2" d="M273.7435,-462.9371C238.0605,-442.6102 294.4247,-334.2 237.5,-334.2"/>
<polygon fill="#000000" stroke="#000000" points="280.2016,-464.4151 287.1968,-469.7093 284.1008,-465.3076 288,-466.2 288,-466.2 288,-466.2 284.1008,-465.3076 288.8032,-462.6907 280.2016,-464.4151 280.2016,-464.4151"/>
<ellipse fill="none" stroke="#000000" cx="277.0823" cy="-463.7012" rx="3.2" ry="3.2"/>
</g>
<!-- matriculas_movimentacao&#45;&gt;inscricao_lista_espera_situacoes -->
<g id="edge4" class="edge">
<title>matriculas_movimentacao:w&#45;&gt;inscricao_lista_espera_situacoes:e</title>
<path fill="none" stroke="#000000" stroke-dasharray="5,2" d="M273.7113,-485.3956C229.892,-464.5235 303.7624,-334.2 237.5,-334.2"/>
<polygon fill="#000000" stroke="#000000" points="280.1498,-486.6592 287.3066,-491.7326 284.0749,-487.4296 288,-488.2 288,-488.2 288,-488.2 284.0749,-487.4296 288.6934,-484.6674 280.1498,-486.6592 280.1498,-486.6592"/>
<ellipse fill="none" stroke="#000000" cx="277.0097" cy="-486.0429" rx="3.2" ry="3.2"/>
</g>
<!-- matriculas_movimentacao&#45;&gt;inscricao_lista_espera_situacoes -->
<g id="edge5" class="edge">
<title>matriculas_movimentacao:w&#45;&gt;inscricao_lista_espera_situacoes:e</title>
<path fill="none" stroke="#000000" stroke-dasharray="5,2" d="M273.5715,-507.712C221.4503,-486.3201 313.1566,-334.2 237.5,-334.2"/>
<polygon fill="#000000" stroke="#000000" points="280.1163,-508.8405 287.3882,-513.7476 284.0582,-509.5203 288,-510.2 288,-510.2 288,-510.2 284.0582,-509.5203 288.6118,-506.6524 280.1163,-508.8405 280.1163,-508.8405"/>
<ellipse fill="none" stroke="#000000" cx="276.9629" cy="-508.2967" rx="3.2" ry="3.2"/>
</g>
<!-- matriculas_movimentacao&#45;&gt;inscricao_lista_espera_situacoes -->
<g id="edge6" class="edge">
<title>matriculas_movimentacao:w&#45;&gt;inscricao_lista_espera_situacoes:e</title>
<path fill="none" stroke="#000000" stroke-dasharray="5,2" d="M273.4644,-529.9764C212.7076,-508.2234 322.6411,-334.2 237.5,-334.2"/>
<polygon fill="#000000" stroke="#000000" points="280.092,-530.9902 287.4556,-535.7586 284.046,-531.5951 288,-532.2 288,-532.2 288,-532.2 284.046,-531.5951 288.5444,-528.6414 280.092,-530.9902 280.092,-530.9902"/>
<ellipse fill="none" stroke="#000000" cx="276.9288" cy="-530.5063" rx="3.2" ry="3.2"/>
</g>
<!-- matriculas_movimentacao&#45;&gt;inscricao_lista_espera_situacoes -->
<g id="edge7" class="edge">
<title>matriculas_movimentacao:w&#45;&gt;inscricao_lista_espera_situacoes:e</title>
<path fill="none" stroke="#000000" stroke-dasharray="5,2" d="M273.4644,-138.4236C212.7076,-160.1766 322.6411,-334.2 237.5,-334.2"/>
<polygon fill="#000000" stroke="#000000" points="280.092,-137.4098 288.5444,-139.7586 284.046,-136.8049 288,-136.2 288,-136.2 288,-136.2 284.046,-136.8049 287.4556,-132.6414 280.092,-137.4098 280.092,-137.4098"/>
<ellipse fill="none" stroke="#000000" cx="276.9288" cy="-137.8937" rx="3.2" ry="3.2"/>
</g>
<!-- matriculas_movimentacao&#45;&gt;inscricao_lista_espera_situacoes -->
<g id="edge8" class="edge">
<title>matriculas_movimentacao:w&#45;&gt;inscricao_lista_espera_situacoes:e</title>
<path fill="none" stroke="#000000" stroke-dasharray="5,2" d="M273.5715,-160.688C221.4503,-182.0799 313.1566,-334.2 237.5,-334.2"/>
<polygon fill="#000000" stroke="#000000" points="280.1163,-159.5595 288.6118,-161.7476 284.0582,-158.8797 288,-158.2 288,-158.2 288,-158.2 284.0582,-158.8797 287.3882,-154.6524 280.1163,-159.5595 280.1163,-159.5595"/>
<ellipse fill="none" stroke="#000000" cx="276.9629" cy="-160.1033" rx="3.2" ry="3.2"/>
</g>
<!-- matriculas_movimentacao&#45;&gt;inscricao_lista_espera_situacoes -->
<g id="edge9" class="edge">
<title>matriculas_movimentacao:w&#45;&gt;inscricao_lista_espera_situacoes:e</title>
<path fill="none" stroke="#000000" stroke-dasharray="5,2" d="M273.7435,-205.4629C238.0605,-225.7898 294.4247,-334.2 237.5,-334.2"/>
<polygon fill="#000000" stroke="#000000" points="280.2016,-203.9849 288.8032,-205.7093 284.1008,-203.0924 288,-202.2 288,-202.2 288,-202.2 284.1008,-203.0924 287.1968,-198.6907 280.2016,-203.9849 280.2016,-203.9849"/>
<ellipse fill="none" stroke="#000000" cx="277.0823" cy="-204.6988" rx="3.2" ry="3.2"/>
</g>
<!-- matriculas_movimentacao&#45;&gt;inscricao_lista_espera_situacoes -->
<g id="edge10" class="edge">
<title>matriculas_movimentacao:w&#45;&gt;inscricao_lista_espera_situacoes:e</title>
<path fill="none" stroke="#000000" stroke-dasharray="5,2" d="M274.0379,-227.8599C245.3671,-246.9466 285.411,-334.2 237.5,-334.2"/>
<polygon fill="#000000" stroke="#000000" points="280.2614,-226.2286 288.9128,-227.6823 284.1307,-225.2143 288,-224.2 288,-224.2 288,-224.2 284.1307,-225.2143 287.0872,-220.7177 280.2614,-226.2286 280.2614,-226.2286"/>
<ellipse fill="none" stroke="#000000" cx="277.166" cy="-227.04" rx="3.2" ry="3.2"/>
</g>
<!-- matriculas_movimentacao&#45;&gt;inscricao_lista_espera_situacoes -->
<g id="edge11" class="edge">
<title>matriculas_movimentacao:w&#45;&gt;inscricao_lista_espera_situacoes:e</title>
<path fill="none" stroke="#000000" stroke-dasharray="5,2" d="M274.1222,-250.4444C251.9529,-268.0228 276.6046,-334.2 237.5,-334.2"/>
<polygon fill="#000000" stroke="#000000" points="280.3498,-248.5398 289.0529,-249.6426 284.1749,-247.3699 288,-246.2 288,-246.2 288,-246.2 284.1749,-247.3699 286.9471,-242.7574 280.3498,-248.5398 280.3498,-248.5398"/>
<ellipse fill="none" stroke="#000000" cx="277.2897" cy="-249.4757" rx="3.2" ry="3.2"/>
</g>
<!-- matriculas_movimentacao&#45;&gt;inscricao_lista_espera_situacoes -->
<g id="edge12" class="edge">
<title>matriculas_movimentacao:w&#45;&gt;inscricao_lista_espera_situacoes:e</title>
<path fill="none" stroke="#000000" stroke-dasharray="5,2" d="M274.158,-272.9466C257.1101,-288.0798 268.3754,-334.2 237.5,-334.2"/>
<polygon fill="#000000" stroke="#000000" points="280.4326,-270.795 289.1677,-271.6054 284.2163,-269.4975 288,-268.2 288,-268.2 288,-268.2 284.2163,-269.4975 286.8323,-264.7946 280.4326,-270.795 280.4326,-270.795"/>
<ellipse fill="none" stroke="#000000" cx="277.4056" cy="-271.833" rx="3.2" ry="3.2"/>
</g>
</g>
</svg>
