<?xml version="1.0" encoding="UTF-8" standalone="no"?>
<!DOCTYPE svg PUBLIC "-//W3C//DTD SVG 1.1//EN"
 "http://www.w3.org/Graphics/SVG/1.1/DTD/svg11.dtd">
<!-- Generated by graphviz version 2.40.1 (20161225.0304)
 -->
<!-- Title: oneDegreeRelationshipsDiagramImplied Pages: 1 -->
<svg width="761pt" height="624pt"
 viewBox="0.00 0.00 761.00 624.20" xmlns="http://www.w3.org/2000/svg" xmlns:xlink="http://www.w3.org/1999/xlink">
<g id="graph0" class="graph" transform="scale(1 1) rotate(0) translate(4 620.2)">
<title>oneDegreeRelationshipsDiagramImplied</title>
<polygon fill="#ffffff" stroke="transparent" points="-4,4 -4,-620.2 757,-620.2 757,4 -4,4"/>
<text text-anchor="middle" x="72.4936" y="-7.3" font-family="Helvetica,sans-Serif" font-size="11.00" fill="#000000">Generated by SchemaSpy</text>
<!-- matriculas_funcionarios -->
<g id="node1" class="node">
<title>matriculas_funcionarios</title>
<g id="a_node1"><a xlink:href="../../tables/matriculas_funcionarios.html" xlink:title="matriculas_funcionarios" target="_top">
<polygon fill="#ffffff" stroke="transparent" points="286,-38.2 286,-612.2 745,-612.2 745,-38.2 286,-38.2"/>
<polygon fill="#f5f5f5" stroke="transparent" points="288.5,-587.2 288.5,-610.2 743.5,-610.2 743.5,-587.2 288.5,-587.2"/>
<polygon fill="none" stroke="#000000" points="288.5,-587.2 288.5,-610.2 743.5,-610.2 743.5,-587.2 288.5,-587.2"/>
<text text-anchor="start" x="293.5" y="-595.8" font-family="Helvetica,sans-Serif" font-weight="bold" font-size="11.00" fill="#000000">matriculas_funcionarios</text>
<text text-anchor="start" x="708.5437" y="-595.3" font-family="Helvetica,sans-Serif" font-size="11.00" fill="#000000">[table]</text>
<polygon fill="none" stroke="#000000" points="288.5,-565.2 288.5,-587.2 493.5,-587.2 493.5,-565.2 288.5,-565.2"/>
<text text-anchor="start" x="308.5" y="-572.3" font-family="Helvetica,sans-Serif" font-size="11.00" fill="#000000">sistema</text>
<polygon fill="none" stroke="#000000" points="493.5,-565.2 493.5,-587.2 743.5,-587.2 743.5,-565.2 493.5,-565.2"/>
<text text-anchor="start" x="496.5" y="-572.9" font-family="Helvetica,sans-Serif" font-size="11.00" fill="#000000">int4[10]</text>
<polygon fill="none" stroke="#000000" points="288.5,-543.2 288.5,-565.2 493.5,-565.2 493.5,-543.2 288.5,-543.2"/>
<text text-anchor="start" x="308.5" y="-550.3" font-family="Helvetica,sans-Serif" font-size="11.00" fill="#000000">tipo_registro</text>
<polygon fill="none" stroke="#000000" points="493.5,-543.2 493.5,-565.2 743.5,-565.2 743.5,-543.2 493.5,-543.2"/>
<text text-anchor="start" x="496.5" y="-550.9" font-family="Helvetica,sans-Serif" font-size="11.00" fill="#000000">text[2147483647]</text>
<polygon fill="none" stroke="#000000" points="288.5,-521.2 288.5,-543.2 493.5,-543.2 493.5,-521.2 288.5,-521.2"/>
<text text-anchor="start" x="308.5" y="-528.3" font-family="Helvetica,sans-Serif" font-size="11.00" fill="#000000">id_integracao</text>
<polygon fill="none" stroke="#000000" points="493.5,-521.2 493.5,-543.2 743.5,-543.2 743.5,-521.2 493.5,-521.2"/>
<text text-anchor="start" x="496.5" y="-528.9" font-family="Helvetica,sans-Serif" font-size="11.00" fill="#000000">varchar[2147483647]</text>
<polygon fill="none" stroke="#000000" points="288.5,-499.2 288.5,-521.2 493.5,-521.2 493.5,-499.2 288.5,-499.2"/>
<text text-anchor="start" x="308.5" y="-506.3" font-family="Helvetica,sans-Serif" font-size="11.00" fill="#000000">id_origem</text>
<polygon fill="none" stroke="#000000" points="493.5,-499.2 493.5,-521.2 743.5,-521.2 743.5,-499.2 493.5,-499.2"/>
<text text-anchor="start" x="496.5" y="-506.9" font-family="Helvetica,sans-Serif" font-size="11.00" fill="#000000">int4[10]</text>
<polygon fill="none" stroke="#000000" points="288.5,-477.2 288.5,-499.2 493.5,-499.2 493.5,-477.2 288.5,-477.2"/>
<text text-anchor="start" x="308.5" y="-484.3" font-family="Helvetica,sans-Serif" font-size="11.00" fill="#000000">id_cloud</text>
<polygon fill="none" stroke="#000000" points="493.5,-477.2 493.5,-499.2 743.5,-499.2 743.5,-477.2 493.5,-477.2"/>
<text text-anchor="start" x="496.5" y="-484.9" font-family="Helvetica,sans-Serif" font-size="11.00" fill="#000000">int4[10]</text>
<polygon fill="none" stroke="#000000" points="288.5,-455.2 288.5,-477.2 493.5,-477.2 493.5,-455.2 288.5,-455.2"/>
<image xlink:href="../../images/foreignKeys.png" width="11px" height="12px" preserveAspectRatio="xMinYMin meet" x="293.5" y="-472.2"/>
<text text-anchor="start" x="308.5" y="-462.3" font-family="Helvetica,sans-Serif" font-size="11.00" fill="#000000">servidor_origem_id</text>
<polygon fill="none" stroke="#000000" points="493.5,-455.2 493.5,-477.2 743.5,-477.2 743.5,-455.2 493.5,-455.2"/>
<text text-anchor="start" x="496.5" y="-462.9" font-family="Helvetica,sans-Serif" font-size="11.00" fill="#000000">int4[10]</text>
<polygon fill="none" stroke="#000000" points="288.5,-433.2 288.5,-455.2 493.5,-455.2 493.5,-433.2 288.5,-433.2"/>
<image xlink:href="../../images/foreignKeys.png" width="11px" height="12px" preserveAspectRatio="xMinYMin meet" x="293.5" y="-450.2"/>
<text text-anchor="start" x="308.5" y="-440.3" font-family="Helvetica,sans-Serif" font-size="11.00" fill="#000000">servidor_cloud_id</text>
<polygon fill="none" stroke="#000000" points="493.5,-433.2 493.5,-455.2 743.5,-455.2 743.5,-433.2 493.5,-433.2"/>
<text text-anchor="start" x="496.5" y="-440.9" font-family="Helvetica,sans-Serif" font-size="11.00" fill="#000000">int4[10]</text>
<polygon fill="none" stroke="#000000" points="288.5,-411.2 288.5,-433.2 493.5,-433.2 493.5,-411.2 288.5,-411.2"/>
<text text-anchor="start" x="308.5" y="-418.3" font-family="Helvetica,sans-Serif" font-size="11.00" fill="#000000">matricula</text>
<polygon fill="none" stroke="#000000" points="493.5,-411.2 493.5,-433.2 743.5,-433.2 743.5,-411.2 493.5,-411.2"/>
<text text-anchor="start" x="496.5" y="-418.9" font-family="Helvetica,sans-Serif" font-size="11.00" fill="#000000">varchar[2147483647]</text>
<polygon fill="none" stroke="#000000" points="288.5,-389.2 288.5,-411.2 493.5,-411.2 493.5,-389.2 288.5,-389.2"/>
<text text-anchor="start" x="308.5" y="-396.3" font-family="Helvetica,sans-Serif" font-size="11.00" fill="#000000">data_admissao</text>
<polygon fill="none" stroke="#000000" points="493.5,-389.2 493.5,-411.2 743.5,-411.2 743.5,-389.2 493.5,-389.2"/>
<text text-anchor="start" x="496.5" y="-396.9" font-family="Helvetica,sans-Serif" font-size="11.00" fill="#000000">varchar[2147483647]</text>
<polygon fill="none" stroke="#000000" points="288.5,-367.2 288.5,-389.2 493.5,-389.2 493.5,-367.2 288.5,-367.2"/>
<text text-anchor="start" x="308.5" y="-374.3" font-family="Helvetica,sans-Serif" font-size="11.00" fill="#000000">data_demissao</text>
<polygon fill="none" stroke="#000000" points="493.5,-367.2 493.5,-389.2 743.5,-389.2 743.5,-367.2 493.5,-367.2"/>
<text text-anchor="start" x="496.5" y="-374.9" font-family="Helvetica,sans-Serif" font-size="11.00" fill="#000000">varchar[2147483647]</text>
<polygon fill="none" stroke="#000000" points="288.5,-345.2 288.5,-367.2 493.5,-367.2 493.5,-345.2 288.5,-345.2"/>
<image xlink:href="../../images/foreignKeys.png" width="11px" height="12px" preserveAspectRatio="xMinYMin meet" x="293.5" y="-362.2"/>
<text text-anchor="start" x="308.5" y="-352.3" font-family="Helvetica,sans-Serif" font-size="11.00" fill="#000000">lotacao_fisica_origem_id</text>
<polygon fill="none" stroke="#000000" points="493.5,-345.2 493.5,-367.2 743.5,-367.2 743.5,-345.2 493.5,-345.2"/>
<text text-anchor="start" x="496.5" y="-352.9" font-family="Helvetica,sans-Serif" font-size="11.00" fill="#000000">int4[10]</text>
<polygon fill="none" stroke="#000000" points="288.5,-323.2 288.5,-345.2 493.5,-345.2 493.5,-323.2 288.5,-323.2"/>
<image xlink:href="../../images/foreignKeys.png" width="11px" height="12px" preserveAspectRatio="xMinYMin meet" x="293.5" y="-340.2"/>
<text text-anchor="start" x="308.5" y="-330.3" font-family="Helvetica,sans-Serif" font-size="11.00" fill="#000000">lotacao_fisica_cloud_id</text>
<polygon fill="none" stroke="#000000" points="493.5,-323.2 493.5,-345.2 743.5,-345.2 743.5,-323.2 493.5,-323.2"/>
<text text-anchor="start" x="496.5" y="-330.9" font-family="Helvetica,sans-Serif" font-size="11.00" fill="#000000">int4[10]</text>
<polygon fill="none" stroke="#000000" points="288.5,-301.2 288.5,-323.2 493.5,-323.2 493.5,-301.2 288.5,-301.2"/>
<text text-anchor="start" x="308.5" y="-308.3" font-family="Helvetica,sans-Serif" font-size="11.00" fill="#000000">data_inicial_funcao_gratif</text>
<polygon fill="none" stroke="#000000" points="493.5,-301.2 493.5,-323.2 743.5,-323.2 743.5,-301.2 493.5,-301.2"/>
<text text-anchor="start" x="496.5" y="-308.9" font-family="Helvetica,sans-Serif" font-size="11.00" fill="#000000">varchar[2147483647]</text>
<polygon fill="none" stroke="#000000" points="288.5,-279.2 288.5,-301.2 493.5,-301.2 493.5,-279.2 288.5,-279.2"/>
<text text-anchor="start" x="308.5" y="-286.3" font-family="Helvetica,sans-Serif" font-size="11.00" fill="#000000">data_final_funcao_gratif</text>
<polygon fill="none" stroke="#000000" points="493.5,-279.2 493.5,-301.2 743.5,-301.2 743.5,-279.2 493.5,-279.2"/>
<text text-anchor="start" x="496.5" y="-286.9" font-family="Helvetica,sans-Serif" font-size="11.00" fill="#000000">varchar[2147483647]</text>
<polygon fill="none" stroke="#000000" points="288.5,-257.2 288.5,-279.2 493.5,-279.2 493.5,-257.2 288.5,-257.2"/>
<text text-anchor="start" x="308.5" y="-264.3" font-family="Helvetica,sans-Serif" font-size="11.00" fill="#000000">carga_horaria_semanal</text>
<polygon fill="none" stroke="#000000" points="493.5,-257.2 493.5,-279.2 743.5,-279.2 743.5,-257.2 493.5,-257.2"/>
<text text-anchor="start" x="496.5" y="-264.9" font-family="Helvetica,sans-Serif" font-size="11.00" fill="#000000">varchar[2147483647]</text>
<polygon fill="none" stroke="#000000" points="288.5,-235.2 288.5,-257.2 493.5,-257.2 493.5,-235.2 288.5,-235.2"/>
<text text-anchor="start" x="308.5" y="-242.3" font-family="Helvetica,sans-Serif" font-size="11.00" fill="#000000">situacao</text>
<polygon fill="none" stroke="#000000" points="493.5,-235.2 493.5,-257.2 743.5,-257.2 743.5,-235.2 493.5,-235.2"/>
<text text-anchor="start" x="496.5" y="-242.9" font-family="Helvetica,sans-Serif" font-size="11.00" fill="#000000">&quot;educacao&quot;.&quot;situacoesfuncionario&quot;[2147483647]</text>
<polygon fill="none" stroke="#000000" points="288.5,-213.2 288.5,-235.2 493.5,-235.2 493.5,-213.2 288.5,-213.2"/>
<text text-anchor="start" x="308.5" y="-220.3" font-family="Helvetica,sans-Serif" font-size="11.00" fill="#000000">tipo_vinculo</text>
<polygon fill="none" stroke="#000000" points="493.5,-213.2 493.5,-235.2 743.5,-235.2 743.5,-213.2 493.5,-213.2"/>
<text text-anchor="start" x="496.0656" y="-220.9" font-family="Helvetica,sans-Serif" font-size="11.00" fill="#000000">&quot;educacao&quot;.&quot;tiposvinculofuncionario&quot;[2147483647]</text>
<polygon fill="none" stroke="#000000" points="288.5,-191.2 288.5,-213.2 493.5,-213.2 493.5,-191.2 288.5,-191.2"/>
<text text-anchor="start" x="308.5" y="-198.3" font-family="Helvetica,sans-Serif" font-size="11.00" fill="#000000">atividades</text>
<polygon fill="none" stroke="#000000" points="493.5,-191.2 493.5,-213.2 743.5,-213.2 743.5,-191.2 493.5,-191.2"/>
<text text-anchor="start" x="496.5" y="-198.9" font-family="Helvetica,sans-Serif" font-size="11.00" fill="#000000">_varchar[2147483647]</text>
<polygon fill="none" stroke="#000000" points="288.5,-169.2 288.5,-191.2 493.5,-191.2 493.5,-169.2 288.5,-169.2"/>
<image xlink:href="../../images/foreignKeys.png" width="11px" height="12px" preserveAspectRatio="xMinYMin meet" x="293.5" y="-186.2"/>
<text text-anchor="start" x="308.5" y="-176.3" font-family="Helvetica,sans-Serif" font-size="11.00" fill="#000000">cargo_origem_id</text>
<polygon fill="none" stroke="#000000" points="493.5,-169.2 493.5,-191.2 743.5,-191.2 743.5,-169.2 493.5,-169.2"/>
<text text-anchor="start" x="496.5" y="-176.9" font-family="Helvetica,sans-Serif" font-size="11.00" fill="#000000">int4[10]</text>
<polygon fill="none" stroke="#000000" points="288.5,-147.2 288.5,-169.2 493.5,-169.2 493.5,-147.2 288.5,-147.2"/>
<image xlink:href="../../images/foreignKeys.png" width="11px" height="12px" preserveAspectRatio="xMinYMin meet" x="293.5" y="-164.2"/>
<text text-anchor="start" x="308.5" y="-154.3" font-family="Helvetica,sans-Serif" font-size="11.00" fill="#000000">cargo_cloud_id</text>
<polygon fill="none" stroke="#000000" points="493.5,-147.2 493.5,-169.2 743.5,-169.2 743.5,-147.2 493.5,-147.2"/>
<text text-anchor="start" x="496.5" y="-154.9" font-family="Helvetica,sans-Serif" font-size="11.00" fill="#000000">int4[10]</text>
<polygon fill="none" stroke="#000000" points="288.5,-125.2 288.5,-147.2 493.5,-147.2 493.5,-125.2 288.5,-125.2"/>
<image xlink:href="../../images/foreignKeys.png" width="11px" height="12px" preserveAspectRatio="xMinYMin meet" x="293.5" y="-142.2"/>
<text text-anchor="start" x="308.5" y="-132.3" font-family="Helvetica,sans-Serif" font-size="11.00" fill="#000000">cargo_comissionado_origem_id</text>
<polygon fill="none" stroke="#000000" points="493.5,-125.2 493.5,-147.2 743.5,-147.2 743.5,-125.2 493.5,-125.2"/>
<text text-anchor="start" x="496.5" y="-132.9" font-family="Helvetica,sans-Serif" font-size="11.00" fill="#000000">int4[10]</text>
<polygon fill="none" stroke="#000000" points="288.5,-103.2 288.5,-125.2 493.5,-125.2 493.5,-103.2 288.5,-103.2"/>
<image xlink:href="../../images/foreignKeys.png" width="11px" height="12px" preserveAspectRatio="xMinYMin meet" x="293.5" y="-120.2"/>
<text text-anchor="start" x="308.5" y="-110.3" font-family="Helvetica,sans-Serif" font-size="11.00" fill="#000000">cargo_comissionado_cloud_id</text>
<polygon fill="none" stroke="#000000" points="493.5,-103.2 493.5,-125.2 743.5,-125.2 743.5,-103.2 493.5,-103.2"/>
<text text-anchor="start" x="496.5" y="-110.9" font-family="Helvetica,sans-Serif" font-size="11.00" fill="#000000">int4[10]</text>
<polygon fill="none" stroke="#000000" points="288.5,-81.2 288.5,-103.2 493.5,-103.2 493.5,-81.2 288.5,-81.2"/>
<image xlink:href="../../images/foreignKeys.png" width="11px" height="12px" preserveAspectRatio="xMinYMin meet" x="293.5" y="-98.2"/>
<text text-anchor="start" x="308.5" y="-88.3" font-family="Helvetica,sans-Serif" font-size="11.00" fill="#000000">funcao_gratificada_origem_id</text>
<polygon fill="none" stroke="#000000" points="493.5,-81.2 493.5,-103.2 743.5,-103.2 743.5,-81.2 493.5,-81.2"/>
<text text-anchor="start" x="496.5" y="-88.9" font-family="Helvetica,sans-Serif" font-size="11.00" fill="#000000">int4[10]</text>
<polygon fill="none" stroke="#000000" points="288.5,-59.2 288.5,-81.2 493.5,-81.2 493.5,-59.2 288.5,-59.2"/>
<image xlink:href="../../images/foreignKeys.png" width="11px" height="12px" preserveAspectRatio="xMinYMin meet" x="293.5" y="-76.2"/>
<text text-anchor="start" x="308.5" y="-66.3" font-family="Helvetica,sans-Serif" font-size="11.00" fill="#000000">funcao_gratificada_cloud_id</text>
<polygon fill="none" stroke="#000000" points="493.5,-59.2 493.5,-81.2 743.5,-81.2 743.5,-59.2 493.5,-59.2"/>
<text text-anchor="start" x="496.5" y="-66.9" font-family="Helvetica,sans-Serif" font-size="11.00" fill="#000000">int4[10]</text>
<polygon fill="#ffffff" stroke="transparent" points="288.5,-40.2 288.5,-59.2 398.5,-59.2 398.5,-40.2 288.5,-40.2"/>
<polygon fill="none" stroke="#000000" points="288.5,-40.2 288.5,-59.2 398.5,-59.2 398.5,-40.2 288.5,-40.2"/>
<text text-anchor="start" x="291.5" y="-46.3" font-family="Helvetica,sans-Serif" font-size="11.00" fill="#000000">&lt; 10</text>
<polygon fill="#ffffff" stroke="transparent" points="398.5,-40.2 398.5,-59.2 493.5,-59.2 493.5,-40.2 398.5,-40.2"/>
<polygon fill="none" stroke="#000000" points="398.5,-40.2 398.5,-59.2 493.5,-59.2 493.5,-40.2 398.5,-40.2"/>
<text text-anchor="start" x="484.3862" y="-46.3" font-family="Helvetica,sans-Serif" font-size="11.00" fill="#000000"> &#160;</text>
<polygon fill="#ffffff" stroke="transparent" points="493.5,-40.2 493.5,-59.2 743.5,-59.2 743.5,-40.2 493.5,-40.2"/>
<polygon fill="none" stroke="#000000" points="493.5,-40.2 493.5,-59.2 743.5,-59.2 743.5,-40.2 493.5,-40.2"/>
<text text-anchor="start" x="724.9053" y="-46.3" font-family="Helvetica,sans-Serif" font-size="11.00" fill="#000000">0 &gt;</text>
<polygon fill="none" stroke="#000000" stroke-width="2" points="287,-39.2 287,-611.2 744,-611.2 744,-39.2 287,-39.2"/>
</a>
</g>
</g>
<!-- inscricao_lista_espera_situacoes -->
<g id="node2" class="node">
<title>inscricao_lista_espera_situacoes</title>
<g id="a_node2"><a xlink:href="../../tables/inscricao_lista_espera_situacoes.html" xlink:title="inscricao_lista_espera_situacoes" target="_top">
<polygon fill="#ffffff" stroke="transparent" points="8,-120.7 8,-203.7 237,-203.7 237,-120.7 8,-120.7"/>
<polygon fill="#f5f5f5" stroke="transparent" points="8.5,-180.2 8.5,-203.2 237.5,-203.2 237.5,-180.2 8.5,-180.2"/>
<polygon fill="none" stroke="#000000" points="8.5,-180.2 8.5,-203.2 237.5,-203.2 237.5,-180.2 8.5,-180.2"/>
<text text-anchor="start" x="13.5" y="-188.8" font-family="Helvetica,sans-Serif" font-weight="bold" font-size="11.00" fill="#000000">inscricao_lista_espera_situacoes</text>
<text text-anchor="start" x="203.0219" y="-188.3" font-family="Helvetica,sans-Serif" font-size="11.00" fill="#000000">[table]</text>
<polygon fill="none" stroke="#000000" points="8.5,-158.2 8.5,-180.2 237.5,-180.2 237.5,-158.2 8.5,-158.2"/>
<image xlink:href="../../images/primaryKeys.png" width="11px" height="12px" preserveAspectRatio="xMinYMin meet" x="13.5" y="-175.2"/>
<text text-anchor="start" x="37.5" y="-165.3" font-family="Helvetica,sans-Serif" font-size="11.00" fill="#000000">id</text>
<polygon fill="none" stroke="#000000" points="8.5,-139.2 8.5,-158.2 237.5,-158.2 237.5,-139.2 8.5,-139.2"/>
<text text-anchor="start" x="11.5" y="-145.3" font-family="Helvetica,sans-Serif" font-size="11.00" fill="#000000">...</text>
<polygon fill="#ffffff" stroke="transparent" points="8.5,-120.2 8.5,-139.2 106.5,-139.2 106.5,-120.2 8.5,-120.2"/>
<polygon fill="none" stroke="#000000" points="8.5,-120.2 8.5,-139.2 106.5,-139.2 106.5,-120.2 8.5,-120.2"/>
<text text-anchor="start" x="11.5" y="-126.3" font-family="Helvetica,sans-Serif" font-size="11.00" fill="#000000"> &#160;</text>
<polygon fill="#ffffff" stroke="transparent" points="106.5,-120.2 106.5,-139.2 161.5,-139.2 161.5,-120.2 106.5,-120.2"/>
<polygon fill="none" stroke="#000000" points="106.5,-120.2 106.5,-139.2 161.5,-139.2 161.5,-120.2 106.5,-120.2"/>
<text text-anchor="start" x="152.3862" y="-126.3" font-family="Helvetica,sans-Serif" font-size="11.00" fill="#000000"> &#160;</text>
<polygon fill="#ffffff" stroke="transparent" points="161.5,-120.2 161.5,-139.2 237.5,-139.2 237.5,-120.2 161.5,-120.2"/>
<polygon fill="none" stroke="#000000" points="161.5,-120.2 161.5,-139.2 237.5,-139.2 237.5,-120.2 161.5,-120.2"/>
<text text-anchor="start" x="206.6755" y="-126.3" font-family="Helvetica,sans-Serif" font-size="11.00" fill="#000000">596 &gt;</text>
</a>
</g>
</g>
<!-- matriculas_funcionarios&#45;&gt;inscricao_lista_espera_situacoes -->
<g id="edge1" class="edge">
<title>matriculas_funcionarios:w&#45;&gt;inscricao_lista_espera_situacoes:e</title>
<path fill="none" stroke="#000000" stroke-dasharray="5,2" d="M274.0097,-159.9188C261.8398,-163.0125 254.8909,-169.2 237.5,-169.2"/>
<polygon fill="#000000" stroke="#000000" points="280.5557,-159.1424 288.9241,-161.7749 284.5278,-158.6712 288.5,-158.2 288.5,-158.2 288.5,-158.2 284.5278,-158.6712 288.0759,-154.6251 280.5557,-159.1424 280.5557,-159.1424"/>
<ellipse fill="none" stroke="#000000" cx="277.378" cy="-159.5193" rx="3.2" ry="3.2"/>
</g>
<!-- matriculas_funcionarios&#45;&gt;inscricao_lista_espera_situacoes -->
<g id="edge2" class="edge">
<title>matriculas_funcionarios:w&#45;&gt;inscricao_lista_espera_situacoes:e</title>
<path fill="none" stroke="#000000" stroke-dasharray="5,2" d="M274.7081,-118.8893C259.2137,-132.1898 264.8462,-169.2 237.5,-169.2"/>
<polygon fill="#000000" stroke="#000000" points="280.9258,-116.7753 289.6589,-117.6084 284.7129,-115.4876 288.5,-114.2 288.5,-114.2 288.5,-114.2 284.7129,-115.4876 287.3411,-110.7916 280.9258,-116.7753 280.9258,-116.7753"/>
<ellipse fill="none" stroke="#000000" cx="277.8961" cy="-117.8054" rx="3.2" ry="3.2"/>
</g>
<!-- matriculas_funcionarios&#45;&gt;inscricao_lista_espera_situacoes -->
<g id="edge3" class="edge">
<title>matriculas_funcionarios:w&#45;&gt;inscricao_lista_espera_situacoes:e</title>
<path fill="none" stroke="#000000" stroke-dasharray="5,2" d="M274.4604,-140.2464C261.3775,-149.0584 258.5921,-169.2 237.5,-169.2"/>
<polygon fill="#000000" stroke="#000000" points="280.8129,-138.4156 289.497,-139.6592 284.6565,-137.3078 288.5,-136.2 288.5,-136.2 288.5,-136.2 284.6565,-137.3078 287.503,-132.7408 280.8129,-138.4156 280.8129,-138.4156"/>
<ellipse fill="none" stroke="#000000" cx="277.7381" cy="-139.3018" rx="3.2" ry="3.2"/>
</g>
<!-- matriculas_funcionarios&#45;&gt;inscricao_lista_espera_situacoes -->
<g id="edge4" class="edge">
<title>matriculas_funcionarios:w&#45;&gt;inscricao_lista_espera_situacoes:e</title>
<path fill="none" stroke="#000000" stroke-dasharray="5,2" d="M274.0097,-178.4813C261.8398,-175.3875 254.8909,-169.2 237.5,-169.2"/>
<polygon fill="#000000" stroke="#000000" points="280.5557,-179.2576 288.0759,-183.7749 284.5278,-179.7288 288.5,-180.2 288.5,-180.2 288.5,-180.2 284.5278,-179.7288 288.9241,-176.6251 280.5557,-179.2576 280.5557,-179.2576"/>
<ellipse fill="none" stroke="#000000" cx="277.378" cy="-178.8807" rx="3.2" ry="3.2"/>
</g>
<!-- matriculas_funcionarios&#45;&gt;inscricao_lista_espera_situacoes -->
<g id="edge5" class="edge">
<title>matriculas_funcionarios:w&#45;&gt;inscricao_lista_espera_situacoes:e</title>
<path fill="none" stroke="#000000" stroke-dasharray="5,2" d="M274.4616,-74.2035C249.198,-92.7249 281.0017,-169.2 237.5,-169.2"/>
<polygon fill="#000000" stroke="#000000" points="280.8067,-72.394 289.4873,-73.662 284.6534,-71.297 288.5,-70.2 288.5,-70.2 288.5,-70.2 284.6534,-71.297 287.5127,-66.738 280.8067,-72.394 280.8067,-72.394"/>
<ellipse fill="none" stroke="#000000" cx="277.7294" cy="-73.2717" rx="3.2" ry="3.2"/>
</g>
<!-- matriculas_funcionarios&#45;&gt;inscricao_lista_espera_situacoes -->
<g id="edge6" class="edge">
<title>matriculas_funcionarios:w&#45;&gt;inscricao_lista_espera_situacoes:e</title>
<path fill="none" stroke="#000000" stroke-dasharray="5,2" d="M274.5177,-96.7861C255.094,-113.3628 272.4549,-169.2 237.5,-169.2"/>
<polygon fill="#000000" stroke="#000000" points="280.8984,-94.6933 289.622,-95.6207 284.6992,-93.4466 288.5,-92.2 288.5,-92.2 288.5,-92.2 284.6992,-93.4466 287.378,-88.7793 280.8984,-94.6933 280.8984,-94.6933"/>
<ellipse fill="none" stroke="#000000" cx="277.8578" cy="-95.6906" rx="3.2" ry="3.2"/>
</g>
<!-- matriculas_funcionarios&#45;&gt;inscricao_lista_espera_situacoes -->
<g id="edge7" class="edge">
<title>matriculas_funcionarios:w&#45;&gt;inscricao_lista_espera_situacoes:e</title>
<path fill="none" stroke="#000000" stroke-dasharray="5,2" d="M274.2256,-331.6082C225.9728,-310.6167 308.5597,-169.2 237.5,-169.2"/>
<polygon fill="#000000" stroke="#000000" points="280.6287,-332.7708 287.8569,-337.7421 284.5643,-333.4854 288.5,-334.2 288.5,-334.2 288.5,-334.2 284.5643,-333.4854 289.1431,-330.6579 280.6287,-332.7708 280.6287,-332.7708"/>
<ellipse fill="none" stroke="#000000" cx="277.4802" cy="-332.1991" rx="3.2" ry="3.2"/>
</g>
<!-- matriculas_funcionarios&#45;&gt;inscricao_lista_espera_situacoes -->
<g id="edge8" class="edge">
<title>matriculas_funcionarios:w&#45;&gt;inscricao_lista_espera_situacoes:e</title>
<path fill="none" stroke="#000000" stroke-dasharray="5,2" d="M273.9608,-353.8356C217.5479,-332.1887 317.9259,-169.2 237.5,-169.2"/>
<polygon fill="#000000" stroke="#000000" points="280.6037,-354.9159 287.9221,-359.7533 284.5519,-355.5579 288.5,-356.2 288.5,-356.2 288.5,-356.2 284.5519,-355.5579 289.0779,-352.6467 280.6037,-354.9159 280.6037,-354.9159"/>
<ellipse fill="none" stroke="#000000" cx="277.4452" cy="-354.4022" rx="3.2" ry="3.2"/>
</g>
<!-- matriculas_funcionarios&#45;&gt;inscricao_lista_espera_situacoes -->
<g id="edge9" class="edge">
<title>matriculas_funcionarios:w&#45;&gt;inscricao_lista_espera_situacoes:e</title>
<path fill="none" stroke="#000000" stroke-dasharray="5,2" d="M273.9224,-442.6534C180.9403,-420.5612 356.3436,-169.2 237.5,-169.2"/>
<polygon fill="#000000" stroke="#000000" points="280.5446,-443.356 288.1202,-447.7799 284.5223,-443.778 288.5,-444.2 288.5,-444.2 288.5,-444.2 284.5223,-443.778 288.8798,-440.6201 280.5446,-443.356 280.5446,-443.356"/>
<ellipse fill="none" stroke="#000000" cx="277.3625" cy="-443.0183" rx="3.2" ry="3.2"/>
</g>
<!-- matriculas_funcionarios&#45;&gt;inscricao_lista_espera_situacoes -->
<g id="edge10" class="edge">
<title>matriculas_funcionarios:w&#45;&gt;inscricao_lista_espera_situacoes:e</title>
<path fill="none" stroke="#000000" stroke-dasharray="5,2" d="M274.0545,-464.8097C171.3717,-442.8929 366.0695,-169.2 237.5,-169.2"/>
<polygon fill="#000000" stroke="#000000" points="280.5368,-465.4336 288.1551,-469.7834 284.5184,-465.8168 288.5,-466.2 288.5,-466.2 288.5,-466.2 284.5184,-465.8168 288.8449,-462.6166 280.5368,-465.4336 280.5368,-465.4336"/>
<ellipse fill="none" stroke="#000000" cx="277.3515" cy="-465.127" rx="3.2" ry="3.2"/>
</g>
</g>
</svg>
