<?xml version="1.0" encoding="UTF-8" standalone="no"?>
<!DOCTYPE svg PUBLIC "-//W3C//DTD SVG 1.1//EN"
 "http://www.w3.org/Graphics/SVG/1.1/DTD/svg11.dtd">
<!-- Generated by graphviz version 2.40.1 (20161225.0304)
 -->
<!-- Title: oneDegreeRelationshipsDiagramImplied Pages: 1 -->
<svg width="762pt" height="602pt"
 viewBox="0.00 0.00 762.00 602.20" xmlns="http://www.w3.org/2000/svg" xmlns:xlink="http://www.w3.org/1999/xlink">
<g id="graph0" class="graph" transform="scale(1 1) rotate(0) translate(4 598.2)">
<title>oneDegreeRelationshipsDiagramImplied</title>
<polygon fill="#ffffff" stroke="transparent" points="-4,4 -4,-598.2 758,-598.2 758,4 -4,4"/>
<text text-anchor="middle" x="72.4936" y="-7.3" font-family="Helvetica,sans-Serif" font-size="11.00" fill="#000000">Generated by SchemaSpy</text>
<!-- matriculas_eja_modular -->
<g id="node1" class="node">
<title>matriculas_eja_modular</title>
<g id="a_node1"><a xlink:href="../../tables/matriculas_eja_modular.html" xlink:title="matriculas_eja_modular" target="_top">
<polygon fill="#ffffff" stroke="transparent" points="286,-38.2 286,-590.2 746,-590.2 746,-38.2 286,-38.2"/>
<polygon fill="#f5f5f5" stroke="transparent" points="288,-565.2 288,-588.2 744,-588.2 744,-565.2 288,-565.2"/>
<polygon fill="none" stroke="#000000" points="288,-565.2 288,-588.2 744,-588.2 744,-565.2 288,-565.2"/>
<text text-anchor="start" x="293" y="-573.8" font-family="Helvetica,sans-Serif" font-weight="bold" font-size="11.00" fill="#000000">matriculas_eja_modular</text>
<text text-anchor="start" x="709.0437" y="-573.3" font-family="Helvetica,sans-Serif" font-size="11.00" fill="#000000">[table]</text>
<polygon fill="none" stroke="#000000" points="288,-543.2 288,-565.2 508,-565.2 508,-543.2 288,-543.2"/>
<text text-anchor="start" x="308" y="-550.3" font-family="Helvetica,sans-Serif" font-size="11.00" fill="#000000">sistema</text>
<polygon fill="none" stroke="#000000" points="508,-543.2 508,-565.2 744,-565.2 744,-543.2 508,-543.2"/>
<text text-anchor="start" x="511" y="-550.9" font-family="Helvetica,sans-Serif" font-size="11.00" fill="#000000">int4[10]</text>
<polygon fill="none" stroke="#000000" points="288,-521.2 288,-543.2 508,-543.2 508,-521.2 288,-521.2"/>
<text text-anchor="start" x="308" y="-528.3" font-family="Helvetica,sans-Serif" font-size="11.00" fill="#000000">tipo_registro</text>
<polygon fill="none" stroke="#000000" points="508,-521.2 508,-543.2 744,-543.2 744,-521.2 508,-521.2"/>
<text text-anchor="start" x="511" y="-528.9" font-family="Helvetica,sans-Serif" font-size="11.00" fill="#000000">text[2147483647]</text>
<polygon fill="none" stroke="#000000" points="288,-499.2 288,-521.2 508,-521.2 508,-499.2 288,-499.2"/>
<text text-anchor="start" x="308" y="-506.3" font-family="Helvetica,sans-Serif" font-size="11.00" fill="#000000">id_integracao</text>
<polygon fill="none" stroke="#000000" points="508,-499.2 508,-521.2 744,-521.2 744,-499.2 508,-499.2"/>
<text text-anchor="start" x="511" y="-506.9" font-family="Helvetica,sans-Serif" font-size="11.00" fill="#000000">varchar[2147483647]</text>
<polygon fill="none" stroke="#000000" points="288,-477.2 288,-499.2 508,-499.2 508,-477.2 288,-477.2"/>
<text text-anchor="start" x="308" y="-484.3" font-family="Helvetica,sans-Serif" font-size="11.00" fill="#000000">id_origem</text>
<polygon fill="none" stroke="#000000" points="508,-477.2 508,-499.2 744,-499.2 744,-477.2 508,-477.2"/>
<text text-anchor="start" x="511" y="-484.9" font-family="Helvetica,sans-Serif" font-size="11.00" fill="#000000">int4[10]</text>
<polygon fill="none" stroke="#000000" points="288,-455.2 288,-477.2 508,-477.2 508,-455.2 288,-455.2"/>
<text text-anchor="start" x="308" y="-462.3" font-family="Helvetica,sans-Serif" font-size="11.00" fill="#000000">id_cloud</text>
<polygon fill="none" stroke="#000000" points="508,-455.2 508,-477.2 744,-477.2 744,-455.2 508,-455.2"/>
<text text-anchor="start" x="511" y="-462.9" font-family="Helvetica,sans-Serif" font-size="11.00" fill="#000000">int4[10]</text>
<polygon fill="none" stroke="#000000" points="288,-433.2 288,-455.2 508,-455.2 508,-433.2 288,-433.2"/>
<image xlink:href="../../images/foreignKeys.png" width="11px" height="12px" preserveAspectRatio="xMinYMin meet" x="293" y="-450.2"/>
<text text-anchor="start" x="308" y="-440.3" font-family="Helvetica,sans-Serif" font-size="11.00" fill="#000000">ano_letivo_origem_id</text>
<polygon fill="none" stroke="#000000" points="508,-433.2 508,-455.2 744,-455.2 744,-433.2 508,-433.2"/>
<text text-anchor="start" x="511" y="-440.9" font-family="Helvetica,sans-Serif" font-size="11.00" fill="#000000">int4[10]</text>
<polygon fill="none" stroke="#000000" points="288,-411.2 288,-433.2 508,-433.2 508,-411.2 288,-411.2"/>
<image xlink:href="../../images/foreignKeys.png" width="11px" height="12px" preserveAspectRatio="xMinYMin meet" x="293" y="-428.2"/>
<text text-anchor="start" x="308" y="-418.3" font-family="Helvetica,sans-Serif" font-size="11.00" fill="#000000">ano_letivo_cloud_id</text>
<polygon fill="none" stroke="#000000" points="508,-411.2 508,-433.2 744,-433.2 744,-411.2 508,-411.2"/>
<text text-anchor="start" x="511" y="-418.9" font-family="Helvetica,sans-Serif" font-size="11.00" fill="#000000">int4[10]</text>
<polygon fill="none" stroke="#000000" points="288,-389.2 288,-411.2 508,-411.2 508,-389.2 288,-389.2"/>
<image xlink:href="../../images/foreignKeys.png" width="11px" height="12px" preserveAspectRatio="xMinYMin meet" x="293" y="-406.2"/>
<text text-anchor="start" x="308" y="-396.3" font-family="Helvetica,sans-Serif" font-size="11.00" fill="#000000">estabelecimento_origem_id</text>
<polygon fill="none" stroke="#000000" points="508,-389.2 508,-411.2 744,-411.2 744,-389.2 508,-389.2"/>
<text text-anchor="start" x="511" y="-396.9" font-family="Helvetica,sans-Serif" font-size="11.00" fill="#000000">int4[10]</text>
<polygon fill="none" stroke="#000000" points="288,-367.2 288,-389.2 508,-389.2 508,-367.2 288,-367.2"/>
<image xlink:href="../../images/foreignKeys.png" width="11px" height="12px" preserveAspectRatio="xMinYMin meet" x="293" y="-384.2"/>
<text text-anchor="start" x="308" y="-374.3" font-family="Helvetica,sans-Serif" font-size="11.00" fill="#000000">estabelecimento_cloud_id</text>
<polygon fill="none" stroke="#000000" points="508,-367.2 508,-389.2 744,-389.2 744,-367.2 508,-367.2"/>
<text text-anchor="start" x="511" y="-374.9" font-family="Helvetica,sans-Serif" font-size="11.00" fill="#000000">int4[10]</text>
<polygon fill="none" stroke="#000000" points="288,-345.2 288,-367.2 508,-367.2 508,-345.2 288,-345.2"/>
<text text-anchor="start" x="308" y="-352.3" font-family="Helvetica,sans-Serif" font-size="11.00" fill="#000000">situacao</text>
<polygon fill="none" stroke="#000000" points="508,-345.2 508,-367.2 744,-367.2 744,-345.2 508,-345.2"/>
<text text-anchor="start" x="510.8993" y="-352.9" font-family="Helvetica,sans-Serif" font-size="11.00" fill="#000000">&quot;educacao&quot;.&quot;situacoescadastrais&quot;[2147483647]</text>
<polygon fill="none" stroke="#000000" points="288,-323.2 288,-345.2 508,-345.2 508,-323.2 288,-323.2"/>
<image xlink:href="../../images/foreignKeys.png" width="11px" height="12px" preserveAspectRatio="xMinYMin meet" x="293" y="-340.2"/>
<text text-anchor="start" x="308" y="-330.3" font-family="Helvetica,sans-Serif" font-size="11.00" fill="#000000">aluno_origem_id</text>
<polygon fill="none" stroke="#000000" points="508,-323.2 508,-345.2 744,-345.2 744,-323.2 508,-323.2"/>
<text text-anchor="start" x="511" y="-330.9" font-family="Helvetica,sans-Serif" font-size="11.00" fill="#000000">int4[10]</text>
<polygon fill="none" stroke="#000000" points="288,-301.2 288,-323.2 508,-323.2 508,-301.2 288,-301.2"/>
<image xlink:href="../../images/foreignKeys.png" width="11px" height="12px" preserveAspectRatio="xMinYMin meet" x="293" y="-318.2"/>
<text text-anchor="start" x="308" y="-308.3" font-family="Helvetica,sans-Serif" font-size="11.00" fill="#000000">aluno_cloud_id</text>
<polygon fill="none" stroke="#000000" points="508,-301.2 508,-323.2 744,-323.2 744,-301.2 508,-301.2"/>
<text text-anchor="start" x="511" y="-308.9" font-family="Helvetica,sans-Serif" font-size="11.00" fill="#000000">int4[10]</text>
<polygon fill="none" stroke="#000000" points="288,-279.2 288,-301.2 508,-301.2 508,-279.2 288,-279.2"/>
<text text-anchor="start" x="308" y="-286.3" font-family="Helvetica,sans-Serif" font-size="11.00" fill="#000000">nome</text>
<polygon fill="none" stroke="#000000" points="508,-279.2 508,-301.2 744,-301.2 744,-279.2 508,-279.2"/>
<text text-anchor="start" x="511" y="-286.9" font-family="Helvetica,sans-Serif" font-size="11.00" fill="#000000">varchar[155]</text>
<polygon fill="none" stroke="#000000" points="288,-257.2 288,-279.2 508,-279.2 508,-257.2 288,-257.2"/>
<text text-anchor="start" x="308" y="-264.3" font-family="Helvetica,sans-Serif" font-size="11.00" fill="#000000">data</text>
<polygon fill="none" stroke="#000000" points="508,-257.2 508,-279.2 744,-279.2 744,-257.2 508,-257.2"/>
<text text-anchor="start" x="511" y="-264.9" font-family="Helvetica,sans-Serif" font-size="11.00" fill="#000000">date[13]</text>
<polygon fill="none" stroke="#000000" points="288,-235.2 288,-257.2 508,-257.2 508,-235.2 288,-235.2"/>
<text text-anchor="start" x="308" y="-242.3" font-family="Helvetica,sans-Serif" font-size="11.00" fill="#000000">turno</text>
<polygon fill="none" stroke="#000000" points="508,-235.2 508,-257.2 744,-257.2 744,-235.2 508,-235.2"/>
<text text-anchor="start" x="511" y="-242.9" font-family="Helvetica,sans-Serif" font-size="11.00" fill="#000000">&quot;educacao&quot;.&quot;turnos&quot;[2147483647]</text>
<polygon fill="none" stroke="#000000" points="288,-213.2 288,-235.2 508,-235.2 508,-213.2 288,-213.2"/>
<image xlink:href="../../images/foreignKeys.png" width="11px" height="12px" preserveAspectRatio="xMinYMin meet" x="293" y="-230.2"/>
<text text-anchor="start" x="308" y="-220.3" font-family="Helvetica,sans-Serif" font-size="11.00" fill="#000000">etapa_matriz_disciplina_origem_id</text>
<polygon fill="none" stroke="#000000" points="508,-213.2 508,-235.2 744,-235.2 744,-213.2 508,-213.2"/>
<text text-anchor="start" x="511" y="-220.9" font-family="Helvetica,sans-Serif" font-size="11.00" fill="#000000">int4[10]</text>
<polygon fill="none" stroke="#000000" points="288,-191.2 288,-213.2 508,-213.2 508,-191.2 288,-191.2"/>
<image xlink:href="../../images/foreignKeys.png" width="11px" height="12px" preserveAspectRatio="xMinYMin meet" x="293" y="-208.2"/>
<text text-anchor="start" x="308" y="-198.3" font-family="Helvetica,sans-Serif" font-size="11.00" fill="#000000">etapa_matriz_disciplina_cloud_id</text>
<polygon fill="none" stroke="#000000" points="508,-191.2 508,-213.2 744,-213.2 744,-191.2 508,-191.2"/>
<text text-anchor="start" x="511" y="-198.9" font-family="Helvetica,sans-Serif" font-size="11.00" fill="#000000">int4[10]</text>
<polygon fill="none" stroke="#000000" points="288,-169.2 288,-191.2 508,-191.2 508,-169.2 288,-169.2"/>
<image xlink:href="../../images/foreignKeys.png" width="11px" height="12px" preserveAspectRatio="xMinYMin meet" x="293" y="-186.2"/>
<text text-anchor="start" x="308" y="-176.3" font-family="Helvetica,sans-Serif" font-size="11.00" fill="#000000">turma_origem_id</text>
<polygon fill="none" stroke="#000000" points="508,-169.2 508,-191.2 744,-191.2 744,-169.2 508,-169.2"/>
<text text-anchor="start" x="511" y="-176.9" font-family="Helvetica,sans-Serif" font-size="11.00" fill="#000000">int4[10]</text>
<polygon fill="none" stroke="#000000" points="288,-147.2 288,-169.2 508,-169.2 508,-147.2 288,-147.2"/>
<image xlink:href="../../images/foreignKeys.png" width="11px" height="12px" preserveAspectRatio="xMinYMin meet" x="293" y="-164.2"/>
<text text-anchor="start" x="308" y="-154.3" font-family="Helvetica,sans-Serif" font-size="11.00" fill="#000000">turma_cloud_id</text>
<polygon fill="none" stroke="#000000" points="508,-147.2 508,-169.2 744,-169.2 744,-147.2 508,-147.2"/>
<text text-anchor="start" x="511" y="-154.9" font-family="Helvetica,sans-Serif" font-size="11.00" fill="#000000">int4[10]</text>
<polygon fill="none" stroke="#000000" points="288,-125.2 288,-147.2 508,-147.2 508,-125.2 288,-125.2"/>
<image xlink:href="../../images/foreignKeys.png" width="11px" height="12px" preserveAspectRatio="xMinYMin meet" x="293" y="-142.2"/>
<text text-anchor="start" x="308" y="-132.3" font-family="Helvetica,sans-Serif" font-size="11.00" fill="#000000">pai_origem_id</text>
<polygon fill="none" stroke="#000000" points="508,-125.2 508,-147.2 744,-147.2 744,-125.2 508,-125.2"/>
<text text-anchor="start" x="511" y="-132.9" font-family="Helvetica,sans-Serif" font-size="11.00" fill="#000000">int4[10]</text>
<polygon fill="none" stroke="#000000" points="288,-103.2 288,-125.2 508,-125.2 508,-103.2 288,-103.2"/>
<image xlink:href="../../images/foreignKeys.png" width="11px" height="12px" preserveAspectRatio="xMinYMin meet" x="293" y="-120.2"/>
<text text-anchor="start" x="308" y="-110.3" font-family="Helvetica,sans-Serif" font-size="11.00" fill="#000000">pai_cloud_id</text>
<polygon fill="none" stroke="#000000" points="508,-103.2 508,-125.2 744,-125.2 744,-103.2 508,-103.2"/>
<text text-anchor="start" x="511" y="-110.9" font-family="Helvetica,sans-Serif" font-size="11.00" fill="#000000">int4[10]</text>
<polygon fill="none" stroke="#000000" points="288,-81.2 288,-103.2 508,-103.2 508,-81.2 288,-81.2"/>
<image xlink:href="../../images/foreignKeys.png" width="11px" height="12px" preserveAspectRatio="xMinYMin meet" x="293" y="-98.2"/>
<text text-anchor="start" x="308" y="-88.3" font-family="Helvetica,sans-Serif" font-size="11.00" fill="#000000">matriz_origem_id</text>
<polygon fill="none" stroke="#000000" points="508,-81.2 508,-103.2 744,-103.2 744,-81.2 508,-81.2"/>
<text text-anchor="start" x="511" y="-88.9" font-family="Helvetica,sans-Serif" font-size="11.00" fill="#000000">int4[10]</text>
<polygon fill="none" stroke="#000000" points="288,-59.2 288,-81.2 508,-81.2 508,-59.2 288,-59.2"/>
<image xlink:href="../../images/foreignKeys.png" width="11px" height="12px" preserveAspectRatio="xMinYMin meet" x="293" y="-76.2"/>
<text text-anchor="start" x="308" y="-66.3" font-family="Helvetica,sans-Serif" font-size="11.00" fill="#000000">matriz_cloud_id</text>
<polygon fill="none" stroke="#000000" points="508,-59.2 508,-81.2 744,-81.2 744,-59.2 508,-59.2"/>
<text text-anchor="start" x="511" y="-66.9" font-family="Helvetica,sans-Serif" font-size="11.00" fill="#000000">int4[10]</text>
<polygon fill="#ffffff" stroke="transparent" points="288,-40.2 288,-59.2 405,-59.2 405,-40.2 288,-40.2"/>
<polygon fill="none" stroke="#000000" points="288,-40.2 288,-59.2 405,-59.2 405,-40.2 288,-40.2"/>
<text text-anchor="start" x="291" y="-46.3" font-family="Helvetica,sans-Serif" font-size="11.00" fill="#000000">&lt; 14</text>
<polygon fill="#ffffff" stroke="transparent" points="405,-40.2 405,-59.2 508,-59.2 508,-40.2 405,-40.2"/>
<polygon fill="none" stroke="#000000" points="405,-40.2 405,-59.2 508,-59.2 508,-40.2 405,-40.2"/>
<text text-anchor="start" x="498.8862" y="-46.3" font-family="Helvetica,sans-Serif" font-size="11.00" fill="#000000"> &#160;</text>
<polygon fill="#ffffff" stroke="transparent" points="508,-40.2 508,-59.2 744,-59.2 744,-40.2 508,-40.2"/>
<polygon fill="none" stroke="#000000" points="508,-40.2 508,-59.2 744,-59.2 744,-40.2 508,-40.2"/>
<text text-anchor="start" x="725.4053" y="-46.3" font-family="Helvetica,sans-Serif" font-size="11.00" fill="#000000">0 &gt;</text>
<polygon fill="none" stroke="#000000" stroke-width="2" points="287,-39.2 287,-589.2 745,-589.2 745,-39.2 287,-39.2"/>
</a>
</g>
</g>
<!-- inscricao_lista_espera_situacoes -->
<g id="node2" class="node">
<title>inscricao_lista_espera_situacoes</title>
<g id="a_node2"><a xlink:href="../../tables/inscricao_lista_espera_situacoes.html" xlink:title="inscricao_lista_espera_situacoes" target="_top">
<polygon fill="#ffffff" stroke="transparent" points="8,-164.7 8,-247.7 237,-247.7 237,-164.7 8,-164.7"/>
<polygon fill="#f5f5f5" stroke="transparent" points="8.5,-224.2 8.5,-247.2 237.5,-247.2 237.5,-224.2 8.5,-224.2"/>
<polygon fill="none" stroke="#000000" points="8.5,-224.2 8.5,-247.2 237.5,-247.2 237.5,-224.2 8.5,-224.2"/>
<text text-anchor="start" x="13.5" y="-232.8" font-family="Helvetica,sans-Serif" font-weight="bold" font-size="11.00" fill="#000000">inscricao_lista_espera_situacoes</text>
<text text-anchor="start" x="203.0219" y="-232.3" font-family="Helvetica,sans-Serif" font-size="11.00" fill="#000000">[table]</text>
<polygon fill="none" stroke="#000000" points="8.5,-202.2 8.5,-224.2 237.5,-224.2 237.5,-202.2 8.5,-202.2"/>
<image xlink:href="../../images/primaryKeys.png" width="11px" height="12px" preserveAspectRatio="xMinYMin meet" x="13.5" y="-219.2"/>
<text text-anchor="start" x="37.5" y="-209.3" font-family="Helvetica,sans-Serif" font-size="11.00" fill="#000000">id</text>
<polygon fill="none" stroke="#000000" points="8.5,-183.2 8.5,-202.2 237.5,-202.2 237.5,-183.2 8.5,-183.2"/>
<text text-anchor="start" x="11.5" y="-189.3" font-family="Helvetica,sans-Serif" font-size="11.00" fill="#000000">...</text>
<polygon fill="#ffffff" stroke="transparent" points="8.5,-164.2 8.5,-183.2 106.5,-183.2 106.5,-164.2 8.5,-164.2"/>
<polygon fill="none" stroke="#000000" points="8.5,-164.2 8.5,-183.2 106.5,-183.2 106.5,-164.2 8.5,-164.2"/>
<text text-anchor="start" x="11.5" y="-170.3" font-family="Helvetica,sans-Serif" font-size="11.00" fill="#000000"> &#160;</text>
<polygon fill="#ffffff" stroke="transparent" points="106.5,-164.2 106.5,-183.2 161.5,-183.2 161.5,-164.2 106.5,-164.2"/>
<polygon fill="none" stroke="#000000" points="106.5,-164.2 106.5,-183.2 161.5,-183.2 161.5,-164.2 106.5,-164.2"/>
<text text-anchor="start" x="152.3862" y="-170.3" font-family="Helvetica,sans-Serif" font-size="11.00" fill="#000000"> &#160;</text>
<polygon fill="#ffffff" stroke="transparent" points="161.5,-164.2 161.5,-183.2 237.5,-183.2 237.5,-164.2 161.5,-164.2"/>
<polygon fill="none" stroke="#000000" points="161.5,-164.2 161.5,-183.2 237.5,-183.2 237.5,-164.2 161.5,-164.2"/>
<text text-anchor="start" x="206.6755" y="-170.3" font-family="Helvetica,sans-Serif" font-size="11.00" fill="#000000">596 &gt;</text>
</a>
</g>
</g>
<!-- matriculas_eja_modular&#45;&gt;inscricao_lista_espera_situacoes -->
<g id="edge1" class="edge">
<title>matriculas_eja_modular:w&#45;&gt;inscricao_lista_espera_situacoes:e</title>
<path fill="none" stroke="#000000" stroke-dasharray="5,2" d="M274.0064,-308.1965C248.8685,-289.6751 280.9126,-213.2 237.5,-213.2"/>
<polygon fill="#000000" stroke="#000000" points="280.3086,-309.9995 287.0098,-315.6611 284.1543,-311.0997 288,-312.2 288,-312.2 288,-312.2 284.1543,-311.0997 288.9902,-308.7389 280.3086,-309.9995 280.3086,-309.9995"/>
<ellipse fill="none" stroke="#000000" cx="277.232" cy="-309.1193" rx="3.2" ry="3.2"/>
</g>
<!-- matriculas_eja_modular&#45;&gt;inscricao_lista_espera_situacoes -->
<g id="edge2" class="edge">
<title>matriculas_eja_modular:w&#45;&gt;inscricao_lista_espera_situacoes:e</title>
<path fill="none" stroke="#000000" stroke-dasharray="5,2" d="M273.8314,-330.7092C241.8599,-310.87 289.8551,-213.2 237.5,-213.2"/>
<polygon fill="#000000" stroke="#000000" points="280.2323,-332.2862 287.1388,-337.6955 284.1161,-333.2431 288,-334.2 288,-334.2 288,-334.2 284.1161,-333.2431 288.8612,-330.7045 280.2323,-332.2862 280.2323,-332.2862"/>
<ellipse fill="none" stroke="#000000" cx="277.1252" cy="-331.5207" rx="3.2" ry="3.2"/>
</g>
<!-- matriculas_eja_modular&#45;&gt;inscricao_lista_espera_situacoes -->
<g id="edge3" class="edge">
<title>matriculas_eja_modular:w&#45;&gt;inscricao_lista_espera_situacoes:e</title>
<path fill="none" stroke="#000000" stroke-dasharray="5,2" d="M273.5396,-420.1315C208.1065,-398.4254 327.4627,-213.2 237.5,-213.2"/>
<polygon fill="#000000" stroke="#000000" points="280.0806,-421.0671 287.4902,-425.7637 284.0403,-421.6335 288,-422.2 288,-422.2 288,-422.2 284.0403,-421.6335 288.5098,-418.6363 280.0806,-421.0671 280.0806,-421.0671"/>
<ellipse fill="none" stroke="#000000" cx="276.9129" cy="-420.6139" rx="3.2" ry="3.2"/>
</g>
<!-- matriculas_eja_modular&#45;&gt;inscricao_lista_espera_situacoes -->
<g id="edge4" class="edge">
<title>matriculas_eja_modular:w&#45;&gt;inscricao_lista_espera_situacoes:e</title>
<path fill="none" stroke="#000000" stroke-dasharray="5,2" d="M273.5055,-442.3406C199.0138,-420.4791 337.0494,-213.2 237.5,-213.2"/>
<polygon fill="#000000" stroke="#000000" points="280.065,-443.182 287.5419,-447.7707 284.0325,-443.691 288,-444.2 288,-444.2 288,-444.2 284.0325,-443.691 288.4581,-440.6293 280.065,-443.182 280.065,-443.182"/>
<ellipse fill="none" stroke="#000000" cx="276.891" cy="-442.7748" rx="3.2" ry="3.2"/>
</g>
<!-- matriculas_eja_modular&#45;&gt;inscricao_lista_espera_situacoes -->
<g id="edge5" class="edge">
<title>matriculas_eja_modular:w&#45;&gt;inscricao_lista_espera_situacoes:e</title>
<path fill="none" stroke="#000000" stroke-dasharray="5,2" d="M273.7449,-375.6082C225.5913,-354.6167 308.4992,-213.2 237.5,-213.2"/>
<polygon fill="#000000" stroke="#000000" points="280.129,-376.7689 287.356,-381.7419 284.0645,-377.4845 288,-378.2 288,-378.2 288,-378.2 284.0645,-377.4845 288.644,-374.6581 280.129,-376.7689 280.129,-376.7689"/>
<ellipse fill="none" stroke="#000000" cx="276.9806" cy="-376.1965" rx="3.2" ry="3.2"/>
</g>
<!-- matriculas_eja_modular&#45;&gt;inscricao_lista_espera_situacoes -->
<g id="edge6" class="edge">
<title>matriculas_eja_modular:w&#45;&gt;inscricao_lista_espera_situacoes:e</title>
<path fill="none" stroke="#000000" stroke-dasharray="5,2" d="M273.4765,-397.8356C217.1556,-376.1887 317.8716,-213.2 237.5,-213.2"/>
<polygon fill="#000000" stroke="#000000" points="280.1039,-398.9145 287.4215,-403.7532 284.052,-399.5573 288,-400.2 288,-400.2 288,-400.2 284.052,-399.5573 288.5785,-396.6468 280.1039,-398.9145 280.1039,-398.9145"/>
<ellipse fill="none" stroke="#000000" cx="276.9455" cy="-398.4003" rx="3.2" ry="3.2"/>
</g>
<!-- matriculas_eja_modular&#45;&gt;inscricao_lista_espera_situacoes -->
<g id="edge7" class="edge">
<title>matriculas_eja_modular:w&#45;&gt;inscricao_lista_espera_situacoes:e</title>
<path fill="none" stroke="#000000" stroke-dasharray="5,2" d="M273.6489,-203.9188C261.5992,-207.0125 254.728,-213.2 237.5,-213.2"/>
<polygon fill="#000000" stroke="#000000" points="280.0568,-203.1514 288.4281,-205.7745 284.0284,-202.6757 288,-202.2 288,-202.2 288,-202.2 284.0284,-202.6757 287.5719,-198.6255 280.0568,-203.1514 280.0568,-203.1514"/>
<ellipse fill="none" stroke="#000000" cx="276.8795" cy="-203.5319" rx="3.2" ry="3.2"/>
</g>
<!-- matriculas_eja_modular&#45;&gt;inscricao_lista_espera_situacoes -->
<g id="edge8" class="edge">
<title>matriculas_eja_modular:w&#45;&gt;inscricao_lista_espera_situacoes:e</title>
<path fill="none" stroke="#000000" stroke-dasharray="5,2" d="M273.6489,-222.4813C261.5992,-219.3875 254.728,-213.2 237.5,-213.2"/>
<polygon fill="#000000" stroke="#000000" points="280.0568,-223.2486 287.5719,-227.7745 284.0284,-223.7243 288,-224.2 288,-224.2 288,-224.2 284.0284,-223.7243 288.4281,-220.6255 280.0568,-223.2486 280.0568,-223.2486"/>
<ellipse fill="none" stroke="#000000" cx="276.8795" cy="-222.8681" rx="3.2" ry="3.2"/>
</g>
<!-- matriculas_eja_modular&#45;&gt;inscricao_lista_espera_situacoes -->
<g id="edge9" class="edge">
<title>matriculas_eja_modular:w&#45;&gt;inscricao_lista_espera_situacoes:e</title>
<path fill="none" stroke="#000000" stroke-dasharray="5,2" d="M273.7915,-73.1868C233.9672,-93.722 299.1099,-213.2 237.5,-213.2"/>
<polygon fill="#000000" stroke="#000000" points="280.1711,-71.8457 288.7406,-73.723 284.0855,-71.0229 288,-70.2 288,-70.2 288,-70.2 284.0855,-71.0229 287.2594,-66.677 280.1711,-71.8457 280.1711,-71.8457"/>
<ellipse fill="none" stroke="#000000" cx="277.0395" cy="-72.504" rx="3.2" ry="3.2"/>
</g>
<!-- matriculas_eja_modular&#45;&gt;inscricao_lista_espera_situacoes -->
<g id="edge10" class="edge">
<title>matriculas_eja_modular:w&#45;&gt;inscricao_lista_espera_situacoes:e</title>
<path fill="none" stroke="#000000" stroke-dasharray="5,2" d="M273.8314,-95.6908C241.8599,-115.53 289.8551,-213.2 237.5,-213.2"/>
<polygon fill="#000000" stroke="#000000" points="280.2323,-94.1138 288.8612,-95.6955 284.1161,-93.1569 288,-92.2 288,-92.2 288,-92.2 284.1161,-93.1569 287.1388,-88.7045 280.2323,-94.1138 280.2323,-94.1138"/>
<ellipse fill="none" stroke="#000000" cx="277.1252" cy="-94.8793" rx="3.2" ry="3.2"/>
</g>
<!-- matriculas_eja_modular&#45;&gt;inscricao_lista_espera_situacoes -->
<g id="edge11" class="edge">
<title>matriculas_eja_modular:w&#45;&gt;inscricao_lista_espera_situacoes:e</title>
<path fill="none" stroke="#000000" stroke-dasharray="5,2" d="M274.0064,-118.2035C248.8685,-136.7249 280.9126,-213.2 237.5,-213.2"/>
<polygon fill="#000000" stroke="#000000" points="280.3086,-116.4005 288.9902,-117.6611 284.1543,-115.3003 288,-114.2 288,-114.2 288,-114.2 284.1543,-115.3003 287.0098,-110.7389 280.3086,-116.4005 280.3086,-116.4005"/>
<ellipse fill="none" stroke="#000000" cx="277.232" cy="-117.2807" rx="3.2" ry="3.2"/>
</g>
<!-- matriculas_eja_modular&#45;&gt;inscricao_lista_espera_situacoes -->
<g id="edge12" class="edge">
<title>matriculas_eja_modular:w&#45;&gt;inscricao_lista_espera_situacoes:e</title>
<path fill="none" stroke="#000000" stroke-dasharray="5,2" d="M274.0801,-140.7861C254.7892,-157.3628 272.3508,-213.2 237.5,-213.2"/>
<polygon fill="#000000" stroke="#000000" points="280.4018,-138.7034 289.1265,-139.6192 284.2009,-137.4517 288,-136.2 288,-136.2 288,-136.2 284.2009,-137.4517 286.8735,-132.7808 280.4018,-138.7034 280.4018,-138.7034"/>
<ellipse fill="none" stroke="#000000" cx="277.3625" cy="-139.7047" rx="3.2" ry="3.2"/>
</g>
<!-- matriculas_eja_modular&#45;&gt;inscricao_lista_espera_situacoes -->
<g id="edge13" class="edge">
<title>matriculas_eja_modular:w&#45;&gt;inscricao_lista_espera_situacoes:e</title>
<path fill="none" stroke="#000000" stroke-dasharray="5,2" d="M274.2934,-162.8893C258.9342,-176.1898 264.7226,-213.2 237.5,-213.2"/>
<polygon fill="#000000" stroke="#000000" points="280.4307,-160.7896 289.1653,-161.6062 284.2154,-159.4948 288,-158.2 288,-158.2 288,-158.2 284.2154,-159.4948 286.8347,-154.7938 280.4307,-160.7896 280.4307,-160.7896"/>
<ellipse fill="none" stroke="#000000" cx="277.403" cy="-161.8255" rx="3.2" ry="3.2"/>
</g>
<!-- matriculas_eja_modular&#45;&gt;inscricao_lista_espera_situacoes -->
<g id="edge14" class="edge">
<title>matriculas_eja_modular:w&#45;&gt;inscricao_lista_espera_situacoes:e</title>
<path fill="none" stroke="#000000" stroke-dasharray="5,2" d="M274.0755,-184.2464C261.1224,-193.0584 258.4466,-213.2 237.5,-213.2"/>
<polygon fill="#000000" stroke="#000000" points="280.3178,-182.4325 289.0046,-183.657 284.1589,-181.3162 288,-180.2 288,-180.2 288,-180.2 284.1589,-181.3162 286.9954,-176.743 280.3178,-182.4325 280.3178,-182.4325"/>
<ellipse fill="none" stroke="#000000" cx="277.2449" cy="-183.3255" rx="3.2" ry="3.2"/>
</g>
</g>
</svg>
