<?xml version="1.0" encoding="UTF-8" standalone="no"?>
<!DOCTYPE svg PUBLIC "-//W3C//DTD SVG 1.1//EN"
 "http://www.w3.org/Graphics/SVG/1.1/DTD/svg11.dtd">
<!-- Generated by graphviz version 2.40.1 (20161225.0304)
 -->
<!-- Title: oneDegreeRelationshipsDiagram Pages: 1 -->
<svg width="363pt" height="338pt"
 viewBox="0.00 0.00 363.00 338.20" xmlns="http://www.w3.org/2000/svg" xmlns:xlink="http://www.w3.org/1999/xlink">
<g id="graph0" class="graph" transform="scale(1 1) rotate(0) translate(4 334.2)">
<title>oneDegreeRelationshipsDiagram</title>
<polygon fill="#ffffff" stroke="transparent" points="-4,4 -4,-334.2 359,-334.2 359,4 -4,4"/>
<text text-anchor="middle" x="72.4936" y="-7.3" font-family="Helvetica,sans-Serif" font-size="11.00" fill="#000000">Generated by SchemaSpy</text>
<!-- matricula_convenios -->
<g id="node1" class="node">
<title>matricula_convenios</title>
<g id="a_node1"><a xlink:href="../../tables/matricula_convenios.html" xlink:title="matricula_convenios" target="_top">
<polygon fill="#ffffff" stroke="transparent" points="8,-38.2 8,-326.2 347,-326.2 347,-38.2 8,-38.2"/>
<polygon fill="#f5f5f5" stroke="transparent" points="10.5,-301.2 10.5,-324.2 345.5,-324.2 345.5,-301.2 10.5,-301.2"/>
<polygon fill="none" stroke="#000000" points="10.5,-301.2 10.5,-324.2 345.5,-324.2 345.5,-301.2 10.5,-301.2"/>
<text text-anchor="start" x="15.5" y="-309.8" font-family="Helvetica,sans-Serif" font-weight="bold" font-size="11.00" fill="#000000">matricula_convenios</text>
<text text-anchor="start" x="310.5437" y="-309.3" font-family="Helvetica,sans-Serif" font-size="11.00" fill="#000000">[table]</text>
<polygon fill="none" stroke="#000000" points="10.5,-279.2 10.5,-301.2 236.5,-301.2 236.5,-279.2 10.5,-279.2"/>
<text text-anchor="start" x="30.5" y="-286.3" font-family="Helvetica,sans-Serif" font-size="11.00" fill="#000000">sistema</text>
<polygon fill="none" stroke="#000000" points="236.5,-279.2 236.5,-301.2 345.5,-301.2 345.5,-279.2 236.5,-279.2"/>
<text text-anchor="start" x="239.5" y="-286.9" font-family="Helvetica,sans-Serif" font-size="11.00" fill="#000000">int4[10]</text>
<polygon fill="none" stroke="#000000" points="10.5,-257.2 10.5,-279.2 236.5,-279.2 236.5,-257.2 10.5,-257.2"/>
<text text-anchor="start" x="30.5" y="-264.3" font-family="Helvetica,sans-Serif" font-size="11.00" fill="#000000">tipo_registro</text>
<polygon fill="none" stroke="#000000" points="236.5,-257.2 236.5,-279.2 345.5,-279.2 345.5,-257.2 236.5,-257.2"/>
<text text-anchor="start" x="239.5" y="-264.9" font-family="Helvetica,sans-Serif" font-size="11.00" fill="#000000">text[2147483647]</text>
<polygon fill="none" stroke="#000000" points="10.5,-235.2 10.5,-257.2 236.5,-257.2 236.5,-235.2 10.5,-235.2"/>
<text text-anchor="start" x="30.5" y="-242.3" font-family="Helvetica,sans-Serif" font-size="11.00" fill="#000000">id_integracao</text>
<polygon fill="none" stroke="#000000" points="236.5,-235.2 236.5,-257.2 345.5,-257.2 345.5,-235.2 236.5,-235.2"/>
<text text-anchor="start" x="239.0344" y="-242.9" font-family="Helvetica,sans-Serif" font-size="11.00" fill="#000000">varchar[2147483647]</text>
<polygon fill="none" stroke="#000000" points="10.5,-213.2 10.5,-235.2 236.5,-235.2 236.5,-213.2 10.5,-213.2"/>
<text text-anchor="start" x="30.5" y="-220.3" font-family="Helvetica,sans-Serif" font-size="11.00" fill="#000000">id_origem</text>
<polygon fill="none" stroke="#000000" points="236.5,-213.2 236.5,-235.2 345.5,-235.2 345.5,-213.2 236.5,-213.2"/>
<text text-anchor="start" x="239.5" y="-220.9" font-family="Helvetica,sans-Serif" font-size="11.00" fill="#000000">int4[10]</text>
<polygon fill="none" stroke="#000000" points="10.5,-191.2 10.5,-213.2 236.5,-213.2 236.5,-191.2 10.5,-191.2"/>
<text text-anchor="start" x="30.5" y="-198.3" font-family="Helvetica,sans-Serif" font-size="11.00" fill="#000000">id_cloud</text>
<polygon fill="none" stroke="#000000" points="236.5,-191.2 236.5,-213.2 345.5,-213.2 345.5,-191.2 236.5,-191.2"/>
<text text-anchor="start" x="239.5" y="-198.9" font-family="Helvetica,sans-Serif" font-size="11.00" fill="#000000">int4[10]</text>
<polygon fill="none" stroke="#000000" points="10.5,-169.2 10.5,-191.2 236.5,-191.2 236.5,-169.2 10.5,-169.2"/>
<text text-anchor="start" x="30.5" y="-176.3" font-family="Helvetica,sans-Serif" font-size="11.00" fill="#000000">quantidade</text>
<polygon fill="none" stroke="#000000" points="236.5,-169.2 236.5,-191.2 345.5,-191.2 345.5,-169.2 236.5,-169.2"/>
<text text-anchor="start" x="239.5" y="-176.9" font-family="Helvetica,sans-Serif" font-size="11.00" fill="#000000">int4[10]</text>
<polygon fill="none" stroke="#000000" points="10.5,-147.2 10.5,-169.2 236.5,-169.2 236.5,-147.2 10.5,-147.2"/>
<image xlink:href="../../images/foreignKeys.png" width="11px" height="12px" preserveAspectRatio="xMinYMin meet" x="15.5" y="-164.2"/>
<text text-anchor="start" x="30.5" y="-154.3" font-family="Helvetica,sans-Serif" font-size="11.00" fill="#000000">tipo_matricula_convenio_origem_id</text>
<polygon fill="none" stroke="#000000" points="236.5,-147.2 236.5,-169.2 345.5,-169.2 345.5,-147.2 236.5,-147.2"/>
<text text-anchor="start" x="239.5" y="-154.9" font-family="Helvetica,sans-Serif" font-size="11.00" fill="#000000">int4[10]</text>
<polygon fill="none" stroke="#000000" points="10.5,-125.2 10.5,-147.2 236.5,-147.2 236.5,-125.2 10.5,-125.2"/>
<image xlink:href="../../images/foreignKeys.png" width="11px" height="12px" preserveAspectRatio="xMinYMin meet" x="15.5" y="-142.2"/>
<text text-anchor="start" x="30.5" y="-132.3" font-family="Helvetica,sans-Serif" font-size="11.00" fill="#000000">tipo_matricula_convenio_cloud_id</text>
<polygon fill="none" stroke="#000000" points="236.5,-125.2 236.5,-147.2 345.5,-147.2 345.5,-125.2 236.5,-125.2"/>
<text text-anchor="start" x="239.5" y="-132.9" font-family="Helvetica,sans-Serif" font-size="11.00" fill="#000000">int4[10]</text>
<polygon fill="none" stroke="#000000" points="10.5,-103.2 10.5,-125.2 236.5,-125.2 236.5,-103.2 10.5,-103.2"/>
<text text-anchor="start" x="30.5" y="-110.3" font-family="Helvetica,sans-Serif" font-size="11.00" fill="#000000">tipo</text>
<polygon fill="none" stroke="#000000" points="236.5,-103.2 236.5,-125.2 345.5,-125.2 345.5,-103.2 236.5,-103.2"/>
<text text-anchor="start" x="239.0344" y="-110.9" font-family="Helvetica,sans-Serif" font-size="11.00" fill="#000000">varchar[2147483647]</text>
<polygon fill="none" stroke="#000000" points="10.5,-81.2 10.5,-103.2 236.5,-103.2 236.5,-81.2 10.5,-81.2"/>
<image xlink:href="../../images/foreignKeys.png" width="11px" height="12px" preserveAspectRatio="xMinYMin meet" x="15.5" y="-98.2"/>
<text text-anchor="start" x="30.5" y="-88.3" font-family="Helvetica,sans-Serif" font-size="11.00" fill="#000000">estabelecimento_origem_id</text>
<polygon fill="none" stroke="#000000" points="236.5,-81.2 236.5,-103.2 345.5,-103.2 345.5,-81.2 236.5,-81.2"/>
<text text-anchor="start" x="239.5" y="-88.9" font-family="Helvetica,sans-Serif" font-size="11.00" fill="#000000">int4[10]</text>
<polygon fill="none" stroke="#000000" points="10.5,-59.2 10.5,-81.2 236.5,-81.2 236.5,-59.2 10.5,-59.2"/>
<image xlink:href="../../images/foreignKeys.png" width="11px" height="12px" preserveAspectRatio="xMinYMin meet" x="15.5" y="-76.2"/>
<text text-anchor="start" x="30.5" y="-66.3" font-family="Helvetica,sans-Serif" font-size="11.00" fill="#000000">estabelecimento_cloud_id</text>
<polygon fill="none" stroke="#000000" points="236.5,-59.2 236.5,-81.2 345.5,-81.2 345.5,-59.2 236.5,-59.2"/>
<text text-anchor="start" x="239.5" y="-66.9" font-family="Helvetica,sans-Serif" font-size="11.00" fill="#000000">int4[10]</text>
<polygon fill="#ffffff" stroke="transparent" points="10.5,-40.2 10.5,-59.2 127.5,-59.2 127.5,-40.2 10.5,-40.2"/>
<polygon fill="none" stroke="#000000" points="10.5,-40.2 10.5,-59.2 127.5,-59.2 127.5,-40.2 10.5,-40.2"/>
<text text-anchor="start" x="13.5" y="-46.3" font-family="Helvetica,sans-Serif" font-size="11.00" fill="#000000">&lt; 0</text>
<polygon fill="#ffffff" stroke="transparent" points="127.5,-40.2 127.5,-59.2 236.5,-59.2 236.5,-40.2 127.5,-40.2"/>
<polygon fill="none" stroke="#000000" points="127.5,-40.2 127.5,-59.2 236.5,-59.2 236.5,-40.2 127.5,-40.2"/>
<text text-anchor="start" x="227.3862" y="-46.3" font-family="Helvetica,sans-Serif" font-size="11.00" fill="#000000"> &#160;</text>
<polygon fill="#ffffff" stroke="transparent" points="236.5,-40.2 236.5,-59.2 345.5,-59.2 345.5,-40.2 236.5,-40.2"/>
<polygon fill="none" stroke="#000000" points="236.5,-40.2 236.5,-59.2 345.5,-59.2 345.5,-40.2 236.5,-40.2"/>
<text text-anchor="start" x="326.9053" y="-46.3" font-family="Helvetica,sans-Serif" font-size="11.00" fill="#000000">0 &gt;</text>
<polygon fill="none" stroke="#000000" stroke-width="2" points="9,-39.2 9,-325.2 346,-325.2 346,-39.2 9,-39.2"/>
</a>
</g>
</g>
</g>
</svg>
