<?xml version="1.0" encoding="UTF-8" standalone="no"?>
<!DOCTYPE svg PUBLIC "-//W3C//DTD SVG 1.1//EN"
 "http://www.w3.org/Graphics/SVG/1.1/DTD/svg11.dtd">
<!-- Generated by graphviz version 2.40.1 (20161225.0304)
 -->
<!-- Title: oneDegreeRelationshipsDiagramImplied Pages: 1 -->
<svg width="854pt" height="734pt"
 viewBox="0.00 0.00 854.00 734.20" xmlns="http://www.w3.org/2000/svg" xmlns:xlink="http://www.w3.org/1999/xlink">
<g id="graph0" class="graph" transform="scale(1 1) rotate(0) translate(4 730.2)">
<title>oneDegreeRelationshipsDiagramImplied</title>
<polygon fill="#ffffff" stroke="transparent" points="-4,4 -4,-730.2 850,-730.2 850,4 -4,4"/>
<text text-anchor="middle" x="72.4936" y="-7.3" font-family="Helvetica,sans-Serif" font-size="11.00" fill="#000000">Generated by SchemaSpy</text>
<!-- matriculas -->
<g id="node1" class="node">
<title>matriculas</title>
<g id="a_node1"><a xlink:href="../../tables/matriculas.html" xlink:title="matriculas" target="_top">
<polygon fill="#ffffff" stroke="transparent" points="286,-38.2 286,-722.2 838,-722.2 838,-38.2 286,-38.2"/>
<polygon fill="#f5f5f5" stroke="transparent" points="288,-697.2 288,-720.2 836,-720.2 836,-697.2 288,-697.2"/>
<polygon fill="none" stroke="#000000" points="288,-697.2 288,-720.2 836,-720.2 836,-697.2 288,-697.2"/>
<text text-anchor="start" x="293" y="-705.8" font-family="Helvetica,sans-Serif" font-weight="bold" font-size="11.00" fill="#000000">matriculas</text>
<text text-anchor="start" x="801.0437" y="-705.3" font-family="Helvetica,sans-Serif" font-size="11.00" fill="#000000">[table]</text>
<polygon fill="none" stroke="#000000" points="288,-675.2 288,-697.2 547,-697.2 547,-675.2 288,-675.2"/>
<text text-anchor="start" x="308" y="-682.3" font-family="Helvetica,sans-Serif" font-size="11.00" fill="#000000">sistema</text>
<polygon fill="none" stroke="#000000" points="547,-675.2 547,-697.2 836,-697.2 836,-675.2 547,-675.2"/>
<text text-anchor="start" x="550" y="-682.9" font-family="Helvetica,sans-Serif" font-size="11.00" fill="#000000">int4[10]</text>
<polygon fill="none" stroke="#000000" points="288,-653.2 288,-675.2 547,-675.2 547,-653.2 288,-653.2"/>
<text text-anchor="start" x="308" y="-660.3" font-family="Helvetica,sans-Serif" font-size="11.00" fill="#000000">tipo_registro</text>
<polygon fill="none" stroke="#000000" points="547,-653.2 547,-675.2 836,-675.2 836,-653.2 547,-653.2"/>
<text text-anchor="start" x="550" y="-660.9" font-family="Helvetica,sans-Serif" font-size="11.00" fill="#000000">text[2147483647]</text>
<polygon fill="none" stroke="#000000" points="288,-631.2 288,-653.2 547,-653.2 547,-631.2 288,-631.2"/>
<text text-anchor="start" x="308" y="-638.3" font-family="Helvetica,sans-Serif" font-size="11.00" fill="#000000">id_integracao</text>
<polygon fill="none" stroke="#000000" points="547,-631.2 547,-653.2 836,-653.2 836,-631.2 547,-631.2"/>
<text text-anchor="start" x="550" y="-638.9" font-family="Helvetica,sans-Serif" font-size="11.00" fill="#000000">varchar[2147483647]</text>
<polygon fill="none" stroke="#000000" points="288,-609.2 288,-631.2 547,-631.2 547,-609.2 288,-609.2"/>
<text text-anchor="start" x="308" y="-616.3" font-family="Helvetica,sans-Serif" font-size="11.00" fill="#000000">id_origem</text>
<polygon fill="none" stroke="#000000" points="547,-609.2 547,-631.2 836,-631.2 836,-609.2 547,-609.2"/>
<text text-anchor="start" x="550" y="-616.9" font-family="Helvetica,sans-Serif" font-size="11.00" fill="#000000">int4[10]</text>
<polygon fill="none" stroke="#000000" points="288,-587.2 288,-609.2 547,-609.2 547,-587.2 288,-587.2"/>
<text text-anchor="start" x="308" y="-594.3" font-family="Helvetica,sans-Serif" font-size="11.00" fill="#000000">id_cloud</text>
<polygon fill="none" stroke="#000000" points="547,-587.2 547,-609.2 836,-609.2 836,-587.2 547,-587.2"/>
<text text-anchor="start" x="550" y="-594.9" font-family="Helvetica,sans-Serif" font-size="11.00" fill="#000000">int4[10]</text>
<polygon fill="none" stroke="#000000" points="288,-565.2 288,-587.2 547,-587.2 547,-565.2 288,-565.2"/>
<text text-anchor="start" x="308" y="-572.3" font-family="Helvetica,sans-Serif" font-size="11.00" fill="#000000">type</text>
<polygon fill="none" stroke="#000000" points="547,-565.2 547,-587.2 836,-587.2 836,-565.2 547,-565.2"/>
<text text-anchor="start" x="550" y="-572.9" font-family="Helvetica,sans-Serif" font-size="11.00" fill="#000000">&quot;educacao&quot;.&quot;matriculatypes&quot;[2147483647]</text>
<polygon fill="none" stroke="#000000" points="288,-543.2 288,-565.2 547,-565.2 547,-543.2 288,-543.2"/>
<image xlink:href="../../images/foreignKeys.png" width="11px" height="12px" preserveAspectRatio="xMinYMin meet" x="293" y="-560.2"/>
<text text-anchor="start" x="308" y="-550.3" font-family="Helvetica,sans-Serif" font-size="11.00" fill="#000000">estabelecimento_origem_id</text>
<polygon fill="none" stroke="#000000" points="547,-543.2 547,-565.2 836,-565.2 836,-543.2 547,-543.2"/>
<text text-anchor="start" x="550" y="-550.9" font-family="Helvetica,sans-Serif" font-size="11.00" fill="#000000">int4[10]</text>
<polygon fill="none" stroke="#000000" points="288,-521.2 288,-543.2 547,-543.2 547,-521.2 288,-521.2"/>
<image xlink:href="../../images/foreignKeys.png" width="11px" height="12px" preserveAspectRatio="xMinYMin meet" x="293" y="-538.2"/>
<text text-anchor="start" x="308" y="-528.3" font-family="Helvetica,sans-Serif" font-size="11.00" fill="#000000">estabelecimento_cloud_id</text>
<polygon fill="none" stroke="#000000" points="547,-521.2 547,-543.2 836,-543.2 836,-521.2 547,-521.2"/>
<text text-anchor="start" x="550" y="-528.9" font-family="Helvetica,sans-Serif" font-size="11.00" fill="#000000">int4[10]</text>
<polygon fill="none" stroke="#000000" points="288,-499.2 288,-521.2 547,-521.2 547,-499.2 288,-499.2"/>
<image xlink:href="../../images/foreignKeys.png" width="11px" height="12px" preserveAspectRatio="xMinYMin meet" x="293" y="-516.2"/>
<text text-anchor="start" x="308" y="-506.3" font-family="Helvetica,sans-Serif" font-size="11.00" fill="#000000">ano_letivo_origem_id</text>
<polygon fill="none" stroke="#000000" points="547,-499.2 547,-521.2 836,-521.2 836,-499.2 547,-499.2"/>
<text text-anchor="start" x="550" y="-506.9" font-family="Helvetica,sans-Serif" font-size="11.00" fill="#000000">int4[10]</text>
<polygon fill="none" stroke="#000000" points="288,-477.2 288,-499.2 547,-499.2 547,-477.2 288,-477.2"/>
<image xlink:href="../../images/foreignKeys.png" width="11px" height="12px" preserveAspectRatio="xMinYMin meet" x="293" y="-494.2"/>
<text text-anchor="start" x="308" y="-484.3" font-family="Helvetica,sans-Serif" font-size="11.00" fill="#000000">ano_letivo_cloud_id</text>
<polygon fill="none" stroke="#000000" points="547,-477.2 547,-499.2 836,-499.2 836,-477.2 547,-477.2"/>
<text text-anchor="start" x="550" y="-484.9" font-family="Helvetica,sans-Serif" font-size="11.00" fill="#000000">int4[10]</text>
<polygon fill="none" stroke="#000000" points="288,-455.2 288,-477.2 547,-477.2 547,-455.2 288,-455.2"/>
<text text-anchor="start" x="308" y="-462.3" font-family="Helvetica,sans-Serif" font-size="11.00" fill="#000000">tipo_matricula</text>
<polygon fill="none" stroke="#000000" points="547,-455.2 547,-477.2 836,-477.2 836,-455.2 547,-455.2"/>
<text text-anchor="start" x="550" y="-462.9" font-family="Helvetica,sans-Serif" font-size="11.00" fill="#000000">&quot;educacao&quot;.&quot;tiposmatricula&quot;[2147483647]</text>
<polygon fill="none" stroke="#000000" points="288,-433.2 288,-455.2 547,-455.2 547,-433.2 288,-433.2"/>
<image xlink:href="../../images/foreignKeys.png" width="11px" height="12px" preserveAspectRatio="xMinYMin meet" x="293" y="-450.2"/>
<text text-anchor="start" x="308" y="-440.3" font-family="Helvetica,sans-Serif" font-size="11.00" fill="#000000">aluno_origem_id</text>
<polygon fill="none" stroke="#000000" points="547,-433.2 547,-455.2 836,-455.2 836,-433.2 547,-433.2"/>
<text text-anchor="start" x="550" y="-440.9" font-family="Helvetica,sans-Serif" font-size="11.00" fill="#000000">int4[10]</text>
<polygon fill="none" stroke="#000000" points="288,-411.2 288,-433.2 547,-433.2 547,-411.2 288,-411.2"/>
<image xlink:href="../../images/foreignKeys.png" width="11px" height="12px" preserveAspectRatio="xMinYMin meet" x="293" y="-428.2"/>
<text text-anchor="start" x="308" y="-418.3" font-family="Helvetica,sans-Serif" font-size="11.00" fill="#000000">aluno_cloud_id</text>
<polygon fill="none" stroke="#000000" points="547,-411.2 547,-433.2 836,-433.2 836,-411.2 547,-411.2"/>
<text text-anchor="start" x="550" y="-418.9" font-family="Helvetica,sans-Serif" font-size="11.00" fill="#000000">int4[10]</text>
<polygon fill="none" stroke="#000000" points="288,-389.2 288,-411.2 547,-411.2 547,-389.2 288,-389.2"/>
<text text-anchor="start" x="308" y="-396.3" font-family="Helvetica,sans-Serif" font-size="11.00" fill="#000000">data_matricula</text>
<polygon fill="none" stroke="#000000" points="547,-389.2 547,-411.2 836,-411.2 836,-389.2 547,-389.2"/>
<text text-anchor="start" x="550" y="-396.9" font-family="Helvetica,sans-Serif" font-size="11.00" fill="#000000">date[13]</text>
<polygon fill="none" stroke="#000000" points="288,-367.2 288,-389.2 547,-389.2 547,-367.2 288,-367.2"/>
<text text-anchor="start" x="308" y="-374.3" font-family="Helvetica,sans-Serif" font-size="11.00" fill="#000000">espaco_diferenciado</text>
<polygon fill="none" stroke="#000000" points="547,-367.2 547,-389.2 836,-389.2 836,-367.2 547,-367.2"/>
<text text-anchor="start" x="550" y="-374.9" font-family="Helvetica,sans-Serif" font-size="11.00" fill="#000000">&quot;educacao&quot;.&quot;tiposespacodiferenciado&quot;[2147483647]</text>
<polygon fill="none" stroke="#000000" points="288,-345.2 288,-367.2 547,-367.2 547,-345.2 288,-345.2"/>
<text text-anchor="start" x="308" y="-352.3" font-family="Helvetica,sans-Serif" font-size="11.00" fill="#000000">utilizar_transporte_escolar</text>
<polygon fill="none" stroke="#000000" points="547,-345.2 547,-367.2 836,-367.2 836,-345.2 547,-345.2"/>
<text text-anchor="start" x="550" y="-352.9" font-family="Helvetica,sans-Serif" font-size="11.00" fill="#000000">bool[1]</text>
<polygon fill="none" stroke="#000000" points="288,-323.2 288,-345.2 547,-345.2 547,-323.2 288,-323.2"/>
<text text-anchor="start" x="308" y="-330.3" font-family="Helvetica,sans-Serif" font-size="11.00" fill="#000000">responsavel_transporte_escolar</text>
<polygon fill="none" stroke="#000000" points="547,-323.2 547,-345.2 836,-345.2 836,-323.2 547,-323.2"/>
<text text-anchor="start" x="549.8118" y="-330.9" font-family="Helvetica,sans-Serif" font-size="11.00" fill="#000000">&quot;educacao&quot;.&quot;responsaveistransporteescolar&quot;[2147483647]</text>
<polygon fill="none" stroke="#000000" points="288,-301.2 288,-323.2 547,-323.2 547,-301.2 288,-301.2"/>
<text text-anchor="start" x="308" y="-308.3" font-family="Helvetica,sans-Serif" font-size="11.00" fill="#000000">veiculos</text>
<polygon fill="none" stroke="#000000" points="547,-301.2 547,-323.2 836,-323.2 836,-301.2 547,-301.2"/>
<text text-anchor="start" x="550" y="-308.9" font-family="Helvetica,sans-Serif" font-size="11.00" fill="#000000">&quot;educacao&quot;.&quot;_tiposveiculos&quot;[2147483647]</text>
<polygon fill="none" stroke="#000000" points="288,-279.2 288,-301.2 547,-301.2 547,-279.2 288,-279.2"/>
<text text-anchor="start" x="308" y="-286.3" font-family="Helvetica,sans-Serif" font-size="11.00" fill="#000000">observacao</text>
<polygon fill="none" stroke="#000000" points="547,-279.2 547,-301.2 836,-301.2 836,-279.2 547,-279.2"/>
<text text-anchor="start" x="550" y="-286.9" font-family="Helvetica,sans-Serif" font-size="11.00" fill="#000000">varchar[4000]</text>
<polygon fill="none" stroke="#000000" points="288,-257.2 288,-279.2 547,-279.2 547,-257.2 288,-257.2"/>
<image xlink:href="../../images/foreignKeys.png" width="11px" height="12px" preserveAspectRatio="xMinYMin meet" x="293" y="-274.2"/>
<text text-anchor="start" x="308" y="-264.3" font-family="Helvetica,sans-Serif" font-size="11.00" fill="#000000">vaga_origem_id</text>
<polygon fill="none" stroke="#000000" points="547,-257.2 547,-279.2 836,-279.2 836,-257.2 547,-257.2"/>
<text text-anchor="start" x="550" y="-264.9" font-family="Helvetica,sans-Serif" font-size="11.00" fill="#000000">int4[10]</text>
<polygon fill="none" stroke="#000000" points="288,-235.2 288,-257.2 547,-257.2 547,-235.2 288,-235.2"/>
<image xlink:href="../../images/foreignKeys.png" width="11px" height="12px" preserveAspectRatio="xMinYMin meet" x="293" y="-252.2"/>
<text text-anchor="start" x="308" y="-242.3" font-family="Helvetica,sans-Serif" font-size="11.00" fill="#000000">vaga_cloud_id</text>
<polygon fill="none" stroke="#000000" points="547,-235.2 547,-257.2 836,-257.2 836,-235.2 547,-235.2"/>
<text text-anchor="start" x="550" y="-242.9" font-family="Helvetica,sans-Serif" font-size="11.00" fill="#000000">int4[10]</text>
<polygon fill="none" stroke="#000000" points="288,-213.2 288,-235.2 547,-235.2 547,-213.2 288,-213.2"/>
<image xlink:href="../../images/foreignKeys.png" width="11px" height="12px" preserveAspectRatio="xMinYMin meet" x="293" y="-230.2"/>
<text text-anchor="start" x="308" y="-220.3" font-family="Helvetica,sans-Serif" font-size="11.00" fill="#000000">turma_origem_id</text>
<polygon fill="none" stroke="#000000" points="547,-213.2 547,-235.2 836,-235.2 836,-213.2 547,-213.2"/>
<text text-anchor="start" x="550" y="-220.9" font-family="Helvetica,sans-Serif" font-size="11.00" fill="#000000">int4[10]</text>
<polygon fill="none" stroke="#000000" points="288,-191.2 288,-213.2 547,-213.2 547,-191.2 288,-191.2"/>
<image xlink:href="../../images/foreignKeys.png" width="11px" height="12px" preserveAspectRatio="xMinYMin meet" x="293" y="-208.2"/>
<text text-anchor="start" x="308" y="-198.3" font-family="Helvetica,sans-Serif" font-size="11.00" fill="#000000">turma_cloud_id</text>
<polygon fill="none" stroke="#000000" points="547,-191.2 547,-213.2 836,-213.2 836,-191.2 547,-191.2"/>
<text text-anchor="start" x="550" y="-198.9" font-family="Helvetica,sans-Serif" font-size="11.00" fill="#000000">int4[10]</text>
<polygon fill="none" stroke="#000000" points="288,-169.2 288,-191.2 547,-191.2 547,-169.2 288,-169.2"/>
<text text-anchor="start" x="308" y="-176.3" font-family="Helvetica,sans-Serif" font-size="11.00" fill="#000000">force</text>
<polygon fill="none" stroke="#000000" points="547,-169.2 547,-191.2 836,-191.2 836,-169.2 547,-169.2"/>
<text text-anchor="start" x="550" y="-176.9" font-family="Helvetica,sans-Serif" font-size="11.00" fill="#000000">bool[1]</text>
<polygon fill="none" stroke="#000000" points="288,-147.2 288,-169.2 547,-169.2 547,-147.2 288,-147.2"/>
<text text-anchor="start" x="308" y="-154.3" font-family="Helvetica,sans-Serif" font-size="11.00" fill="#000000">codigo</text>
<polygon fill="none" stroke="#000000" points="547,-147.2 547,-169.2 836,-169.2 836,-147.2 547,-147.2"/>
<text text-anchor="start" x="550" y="-154.9" font-family="Helvetica,sans-Serif" font-size="11.00" fill="#000000">varchar[12]</text>
<polygon fill="none" stroke="#000000" points="288,-125.2 288,-147.2 547,-147.2 547,-125.2 288,-125.2"/>
<text text-anchor="start" x="308" y="-132.3" font-family="Helvetica,sans-Serif" font-size="11.00" fill="#000000">areas_itinerarios_formativos</text>
<polygon fill="none" stroke="#000000" points="547,-125.2 547,-147.2 836,-147.2 836,-125.2 547,-125.2"/>
<text text-anchor="start" x="550" y="-132.9" font-family="Helvetica,sans-Serif" font-size="11.00" fill="#000000">&quot;educacao&quot;.&quot;_itinerariosformativos&quot;[2147483647]</text>
<polygon fill="none" stroke="#000000" points="288,-103.2 288,-125.2 547,-125.2 547,-103.2 288,-103.2"/>
<text text-anchor="start" x="308" y="-110.3" font-family="Helvetica,sans-Serif" font-size="11.00" fill="#000000">composicoes_itinerarios_formativos</text>
<polygon fill="none" stroke="#000000" points="547,-103.2 547,-125.2 836,-125.2 836,-103.2 547,-103.2"/>
<text text-anchor="start" x="550" y="-110.9" font-family="Helvetica,sans-Serif" font-size="11.00" fill="#000000">&quot;educacao&quot;.&quot;_itinerariosformativos&quot;[2147483647]</text>
<polygon fill="none" stroke="#000000" points="288,-81.2 288,-103.2 547,-103.2 547,-81.2 288,-81.2"/>
<text text-anchor="start" x="308" y="-88.3" font-family="Helvetica,sans-Serif" font-size="11.00" fill="#000000">tipo_curso_itinerario_formativo</text>
<polygon fill="none" stroke="#000000" points="547,-81.2 547,-103.2 836,-103.2 836,-81.2 547,-81.2"/>
<text text-anchor="start" x="550" y="-88.9" font-family="Helvetica,sans-Serif" font-size="11.00" fill="#000000">&quot;educacao&quot;.&quot;cursositinerariosformativos&quot;[2147483647]</text>
<polygon fill="none" stroke="#000000" points="288,-59.2 288,-81.2 547,-81.2 547,-59.2 288,-59.2"/>
<text text-anchor="start" x="308" y="-66.3" font-family="Helvetica,sans-Serif" font-size="11.00" fill="#000000">utiliza_concomitante_itinerario_formativo</text>
<polygon fill="none" stroke="#000000" points="547,-59.2 547,-81.2 836,-81.2 836,-59.2 547,-59.2"/>
<text text-anchor="start" x="550" y="-66.9" font-family="Helvetica,sans-Serif" font-size="11.00" fill="#000000">bool[1]</text>
<polygon fill="#ffffff" stroke="transparent" points="288,-40.2 288,-59.2 425,-59.2 425,-40.2 288,-40.2"/>
<polygon fill="none" stroke="#000000" points="288,-40.2 288,-59.2 425,-59.2 425,-40.2 288,-40.2"/>
<text text-anchor="start" x="291" y="-46.3" font-family="Helvetica,sans-Serif" font-size="11.00" fill="#000000">&lt; 10</text>
<polygon fill="#ffffff" stroke="transparent" points="425,-40.2 425,-59.2 547,-59.2 547,-40.2 425,-40.2"/>
<polygon fill="none" stroke="#000000" points="425,-40.2 425,-59.2 547,-59.2 547,-40.2 425,-40.2"/>
<text text-anchor="start" x="537.8862" y="-46.3" font-family="Helvetica,sans-Serif" font-size="11.00" fill="#000000"> &#160;</text>
<polygon fill="#ffffff" stroke="transparent" points="547,-40.2 547,-59.2 836,-59.2 836,-40.2 547,-40.2"/>
<polygon fill="none" stroke="#000000" points="547,-40.2 547,-59.2 836,-59.2 836,-40.2 547,-40.2"/>
<text text-anchor="start" x="817.4053" y="-46.3" font-family="Helvetica,sans-Serif" font-size="11.00" fill="#000000">0 &gt;</text>
<polygon fill="none" stroke="#000000" stroke-width="2" points="287,-39.2 287,-721.2 837,-721.2 837,-39.2 287,-39.2"/>
</a>
</g>
</g>
<!-- inscricao_lista_espera_situacoes -->
<g id="node2" class="node">
<title>inscricao_lista_espera_situacoes</title>
<g id="a_node2"><a xlink:href="../../tables/inscricao_lista_espera_situacoes.html" xlink:title="inscricao_lista_espera_situacoes" target="_top">
<polygon fill="#ffffff" stroke="transparent" points="8,-384.7 8,-467.7 237,-467.7 237,-384.7 8,-384.7"/>
<polygon fill="#f5f5f5" stroke="transparent" points="8.5,-444.2 8.5,-467.2 237.5,-467.2 237.5,-444.2 8.5,-444.2"/>
<polygon fill="none" stroke="#000000" points="8.5,-444.2 8.5,-467.2 237.5,-467.2 237.5,-444.2 8.5,-444.2"/>
<text text-anchor="start" x="13.5" y="-452.8" font-family="Helvetica,sans-Serif" font-weight="bold" font-size="11.00" fill="#000000">inscricao_lista_espera_situacoes</text>
<text text-anchor="start" x="203.0219" y="-452.3" font-family="Helvetica,sans-Serif" font-size="11.00" fill="#000000">[table]</text>
<polygon fill="none" stroke="#000000" points="8.5,-422.2 8.5,-444.2 237.5,-444.2 237.5,-422.2 8.5,-422.2"/>
<image xlink:href="../../images/primaryKeys.png" width="11px" height="12px" preserveAspectRatio="xMinYMin meet" x="13.5" y="-439.2"/>
<text text-anchor="start" x="37.5" y="-429.3" font-family="Helvetica,sans-Serif" font-size="11.00" fill="#000000">id</text>
<polygon fill="none" stroke="#000000" points="8.5,-403.2 8.5,-422.2 237.5,-422.2 237.5,-403.2 8.5,-403.2"/>
<text text-anchor="start" x="11.5" y="-409.3" font-family="Helvetica,sans-Serif" font-size="11.00" fill="#000000">...</text>
<polygon fill="#ffffff" stroke="transparent" points="8.5,-384.2 8.5,-403.2 106.5,-403.2 106.5,-384.2 8.5,-384.2"/>
<polygon fill="none" stroke="#000000" points="8.5,-384.2 8.5,-403.2 106.5,-403.2 106.5,-384.2 8.5,-384.2"/>
<text text-anchor="start" x="11.5" y="-390.3" font-family="Helvetica,sans-Serif" font-size="11.00" fill="#000000"> &#160;</text>
<polygon fill="#ffffff" stroke="transparent" points="106.5,-384.2 106.5,-403.2 161.5,-403.2 161.5,-384.2 106.5,-384.2"/>
<polygon fill="none" stroke="#000000" points="106.5,-384.2 106.5,-403.2 161.5,-403.2 161.5,-384.2 106.5,-384.2"/>
<text text-anchor="start" x="152.3862" y="-390.3" font-family="Helvetica,sans-Serif" font-size="11.00" fill="#000000"> &#160;</text>
<polygon fill="#ffffff" stroke="transparent" points="161.5,-384.2 161.5,-403.2 237.5,-403.2 237.5,-384.2 161.5,-384.2"/>
<polygon fill="none" stroke="#000000" points="161.5,-384.2 161.5,-403.2 237.5,-403.2 237.5,-384.2 161.5,-384.2"/>
<text text-anchor="start" x="206.6755" y="-390.3" font-family="Helvetica,sans-Serif" font-size="11.00" fill="#000000">596 &gt;</text>
</a>
</g>
</g>
<!-- matriculas&#45;&gt;inscricao_lista_espera_situacoes -->
<g id="edge1" class="edge">
<title>matriculas:w&#45;&gt;inscricao_lista_espera_situacoes:e</title>
<path fill="none" stroke="#000000" stroke-dasharray="5,2" d="M273.6489,-423.9188C261.5992,-427.0125 254.728,-433.2 237.5,-433.2"/>
<polygon fill="#000000" stroke="#000000" points="280.0568,-423.1514 288.4281,-425.7745 284.0284,-422.6757 288,-422.2 288,-422.2 288,-422.2 284.0284,-422.6757 287.5719,-418.6255 280.0568,-423.1514 280.0568,-423.1514"/>
<ellipse fill="none" stroke="#000000" cx="276.8795" cy="-423.5319" rx="3.2" ry="3.2"/>
</g>
<!-- matriculas&#45;&gt;inscricao_lista_espera_situacoes -->
<g id="edge2" class="edge">
<title>matriculas:w&#45;&gt;inscricao_lista_espera_situacoes:e</title>
<path fill="none" stroke="#000000" stroke-dasharray="5,2" d="M273.6489,-442.4813C261.5992,-439.3875 254.728,-433.2 237.5,-433.2"/>
<polygon fill="#000000" stroke="#000000" points="280.0568,-443.2486 287.5719,-447.7745 284.0284,-443.7243 288,-444.2 288,-444.2 288,-444.2 284.0284,-443.7243 288.4281,-440.6255 280.0568,-443.2486 280.0568,-443.2486"/>
<ellipse fill="none" stroke="#000000" cx="276.8795" cy="-442.8681" rx="3.2" ry="3.2"/>
</g>
<!-- matriculas&#45;&gt;inscricao_lista_espera_situacoes -->
<g id="edge3" class="edge">
<title>matriculas:w&#45;&gt;inscricao_lista_espera_situacoes:e</title>
<path fill="none" stroke="#000000" stroke-dasharray="5,2" d="M274.2934,-483.5107C258.9342,-470.2102 264.7226,-433.2 237.5,-433.2"/>
<polygon fill="#000000" stroke="#000000" points="280.4307,-485.6104 286.8347,-491.6062 284.2154,-486.9052 288,-488.2 288,-488.2 288,-488.2 284.2154,-486.9052 289.1653,-484.7938 280.4307,-485.6104 280.4307,-485.6104"/>
<ellipse fill="none" stroke="#000000" cx="277.403" cy="-484.5745" rx="3.2" ry="3.2"/>
</g>
<!-- matriculas&#45;&gt;inscricao_lista_espera_situacoes -->
<g id="edge4" class="edge">
<title>matriculas:w&#45;&gt;inscricao_lista_espera_situacoes:e</title>
<path fill="none" stroke="#000000" stroke-dasharray="5,2" d="M274.0801,-505.6139C254.7892,-489.0372 272.3508,-433.2 237.5,-433.2"/>
<polygon fill="#000000" stroke="#000000" points="280.4018,-507.6966 286.8735,-513.6192 284.2009,-508.9483 288,-510.2 288,-510.2 288,-510.2 284.2009,-508.9483 289.1265,-506.7808 280.4018,-507.6966 280.4018,-507.6966"/>
<ellipse fill="none" stroke="#000000" cx="277.3625" cy="-506.6953" rx="3.2" ry="3.2"/>
</g>
<!-- matriculas&#45;&gt;inscricao_lista_espera_situacoes -->
<g id="edge5" class="edge">
<title>matriculas:w&#45;&gt;inscricao_lista_espera_situacoes:e</title>
<path fill="none" stroke="#000000" stroke-dasharray="5,2" d="M274.0064,-528.1965C248.8685,-509.6751 280.9126,-433.2 237.5,-433.2"/>
<polygon fill="#000000" stroke="#000000" points="280.3086,-529.9995 287.0098,-535.6611 284.1543,-531.0997 288,-532.2 288,-532.2 288,-532.2 284.1543,-531.0997 288.9902,-528.7389 280.3086,-529.9995 280.3086,-529.9995"/>
<ellipse fill="none" stroke="#000000" cx="277.232" cy="-529.1193" rx="3.2" ry="3.2"/>
</g>
<!-- matriculas&#45;&gt;inscricao_lista_espera_situacoes -->
<g id="edge6" class="edge">
<title>matriculas:w&#45;&gt;inscricao_lista_espera_situacoes:e</title>
<path fill="none" stroke="#000000" stroke-dasharray="5,2" d="M273.8314,-550.7092C241.8599,-530.87 289.8551,-433.2 237.5,-433.2"/>
<polygon fill="#000000" stroke="#000000" points="280.2323,-552.2862 287.1388,-557.6955 284.1161,-553.2431 288,-554.2 288,-554.2 288,-554.2 284.1161,-553.2431 288.8612,-550.7045 280.2323,-552.2862 280.2323,-552.2862"/>
<ellipse fill="none" stroke="#000000" cx="277.1252" cy="-551.5207" rx="3.2" ry="3.2"/>
</g>
<!-- matriculas&#45;&gt;inscricao_lista_espera_situacoes -->
<g id="edge7" class="edge">
<title>matriculas:w&#45;&gt;inscricao_lista_espera_situacoes:e</title>
<path fill="none" stroke="#000000" stroke-dasharray="5,2" d="M273.5055,-204.0594C199.0138,-225.9209 337.0494,-433.2 237.5,-433.2"/>
<polygon fill="#000000" stroke="#000000" points="280.065,-203.218 288.4581,-205.7707 284.0325,-202.709 288,-202.2 288,-202.2 288,-202.2 284.0325,-202.709 287.5419,-198.6293 280.065,-203.218 280.065,-203.218"/>
<ellipse fill="none" stroke="#000000" cx="276.891" cy="-203.6252" rx="3.2" ry="3.2"/>
</g>
<!-- matriculas&#45;&gt;inscricao_lista_espera_situacoes -->
<g id="edge8" class="edge">
<title>matriculas:w&#45;&gt;inscricao_lista_espera_situacoes:e</title>
<path fill="none" stroke="#000000" stroke-dasharray="5,2" d="M273.5396,-226.2685C208.1065,-247.9746 327.4627,-433.2 237.5,-433.2"/>
<polygon fill="#000000" stroke="#000000" points="280.0806,-225.3329 288.5098,-227.7637 284.0403,-224.7665 288,-224.2 288,-224.2 288,-224.2 284.0403,-224.7665 287.4902,-220.6363 280.0806,-225.3329 280.0806,-225.3329"/>
<ellipse fill="none" stroke="#000000" cx="276.9129" cy="-225.7861" rx="3.2" ry="3.2"/>
</g>
<!-- matriculas&#45;&gt;inscricao_lista_espera_situacoes -->
<g id="edge9" class="edge">
<title>matriculas:w&#45;&gt;inscricao_lista_espera_situacoes:e</title>
<path fill="none" stroke="#000000" stroke-dasharray="5,2" d="M273.4765,-248.5644C217.1556,-270.2113 317.8716,-433.2 237.5,-433.2"/>
<polygon fill="#000000" stroke="#000000" points="280.1039,-247.4855 288.5785,-249.7532 284.052,-246.8427 288,-246.2 288,-246.2 288,-246.2 284.052,-246.8427 287.4215,-242.6468 280.1039,-247.4855 280.1039,-247.4855"/>
<ellipse fill="none" stroke="#000000" cx="276.9455" cy="-247.9997" rx="3.2" ry="3.2"/>
</g>
<!-- matriculas&#45;&gt;inscricao_lista_espera_situacoes -->
<g id="edge10" class="edge">
<title>matriculas:w&#45;&gt;inscricao_lista_espera_situacoes:e</title>
<path fill="none" stroke="#000000" stroke-dasharray="5,2" d="M273.7449,-270.7918C225.5913,-291.7833 308.4992,-433.2 237.5,-433.2"/>
<polygon fill="#000000" stroke="#000000" points="280.129,-269.6311 288.644,-271.7419 284.0645,-268.9155 288,-268.2 288,-268.2 288,-268.2 284.0645,-268.9155 287.356,-264.6581 280.129,-269.6311 280.129,-269.6311"/>
<ellipse fill="none" stroke="#000000" cx="276.9806" cy="-270.2035" rx="3.2" ry="3.2"/>
</g>
</g>
</svg>
