<?xml version="1.0" encoding="UTF-8" standalone="no"?>
<!DOCTYPE svg PUBLIC "-//W3C//DTD SVG 1.1//EN"
 "http://www.w3.org/Graphics/SVG/1.1/DTD/svg11.dtd">
<!-- Generated by graphviz version 2.40.1 (20161225.0304)
 -->
<!-- Title: oneDegreeRelationshipsDiagram Pages: 1 -->
<svg width="483pt" height="624pt"
 viewBox="0.00 0.00 483.00 624.20" xmlns="http://www.w3.org/2000/svg" xmlns:xlink="http://www.w3.org/1999/xlink">
<g id="graph0" class="graph" transform="scale(1 1) rotate(0) translate(4 620.2)">
<title>oneDegreeRelationshipsDiagram</title>
<polygon fill="#ffffff" stroke="transparent" points="-4,4 -4,-620.2 479,-620.2 479,4 -4,4"/>
<text text-anchor="middle" x="72.4936" y="-7.3" font-family="Helvetica,sans-Serif" font-size="11.00" fill="#000000">Generated by SchemaSpy</text>
<!-- matriculas_funcionarios -->
<g id="node1" class="node">
<title>matriculas_funcionarios</title>
<g id="a_node1"><a xlink:href="../../tables/matriculas_funcionarios.html" xlink:title="matriculas_funcionarios" target="_top">
<polygon fill="#ffffff" stroke="transparent" points="8,-38.2 8,-612.2 467,-612.2 467,-38.2 8,-38.2"/>
<polygon fill="#f5f5f5" stroke="transparent" points="10.5,-587.2 10.5,-610.2 465.5,-610.2 465.5,-587.2 10.5,-587.2"/>
<polygon fill="none" stroke="#000000" points="10.5,-587.2 10.5,-610.2 465.5,-610.2 465.5,-587.2 10.5,-587.2"/>
<text text-anchor="start" x="15.5" y="-595.8" font-family="Helvetica,sans-Serif" font-weight="bold" font-size="11.00" fill="#000000">matriculas_funcionarios</text>
<text text-anchor="start" x="430.5437" y="-595.3" font-family="Helvetica,sans-Serif" font-size="11.00" fill="#000000">[table]</text>
<polygon fill="none" stroke="#000000" points="10.5,-565.2 10.5,-587.2 215.5,-587.2 215.5,-565.2 10.5,-565.2"/>
<text text-anchor="start" x="30.5" y="-572.3" font-family="Helvetica,sans-Serif" font-size="11.00" fill="#000000">sistema</text>
<polygon fill="none" stroke="#000000" points="215.5,-565.2 215.5,-587.2 465.5,-587.2 465.5,-565.2 215.5,-565.2"/>
<text text-anchor="start" x="218.5" y="-572.9" font-family="Helvetica,sans-Serif" font-size="11.00" fill="#000000">int4[10]</text>
<polygon fill="none" stroke="#000000" points="10.5,-543.2 10.5,-565.2 215.5,-565.2 215.5,-543.2 10.5,-543.2"/>
<text text-anchor="start" x="30.5" y="-550.3" font-family="Helvetica,sans-Serif" font-size="11.00" fill="#000000">tipo_registro</text>
<polygon fill="none" stroke="#000000" points="215.5,-543.2 215.5,-565.2 465.5,-565.2 465.5,-543.2 215.5,-543.2"/>
<text text-anchor="start" x="218.5" y="-550.9" font-family="Helvetica,sans-Serif" font-size="11.00" fill="#000000">text[2147483647]</text>
<polygon fill="none" stroke="#000000" points="10.5,-521.2 10.5,-543.2 215.5,-543.2 215.5,-521.2 10.5,-521.2"/>
<text text-anchor="start" x="30.5" y="-528.3" font-family="Helvetica,sans-Serif" font-size="11.00" fill="#000000">id_integracao</text>
<polygon fill="none" stroke="#000000" points="215.5,-521.2 215.5,-543.2 465.5,-543.2 465.5,-521.2 215.5,-521.2"/>
<text text-anchor="start" x="218.5" y="-528.9" font-family="Helvetica,sans-Serif" font-size="11.00" fill="#000000">varchar[2147483647]</text>
<polygon fill="none" stroke="#000000" points="10.5,-499.2 10.5,-521.2 215.5,-521.2 215.5,-499.2 10.5,-499.2"/>
<text text-anchor="start" x="30.5" y="-506.3" font-family="Helvetica,sans-Serif" font-size="11.00" fill="#000000">id_origem</text>
<polygon fill="none" stroke="#000000" points="215.5,-499.2 215.5,-521.2 465.5,-521.2 465.5,-499.2 215.5,-499.2"/>
<text text-anchor="start" x="218.5" y="-506.9" font-family="Helvetica,sans-Serif" font-size="11.00" fill="#000000">int4[10]</text>
<polygon fill="none" stroke="#000000" points="10.5,-477.2 10.5,-499.2 215.5,-499.2 215.5,-477.2 10.5,-477.2"/>
<text text-anchor="start" x="30.5" y="-484.3" font-family="Helvetica,sans-Serif" font-size="11.00" fill="#000000">id_cloud</text>
<polygon fill="none" stroke="#000000" points="215.5,-477.2 215.5,-499.2 465.5,-499.2 465.5,-477.2 215.5,-477.2"/>
<text text-anchor="start" x="218.5" y="-484.9" font-family="Helvetica,sans-Serif" font-size="11.00" fill="#000000">int4[10]</text>
<polygon fill="none" stroke="#000000" points="10.5,-455.2 10.5,-477.2 215.5,-477.2 215.5,-455.2 10.5,-455.2"/>
<image xlink:href="../../images/foreignKeys.png" width="11px" height="12px" preserveAspectRatio="xMinYMin meet" x="15.5" y="-472.2"/>
<text text-anchor="start" x="30.5" y="-462.3" font-family="Helvetica,sans-Serif" font-size="11.00" fill="#000000">servidor_origem_id</text>
<polygon fill="none" stroke="#000000" points="215.5,-455.2 215.5,-477.2 465.5,-477.2 465.5,-455.2 215.5,-455.2"/>
<text text-anchor="start" x="218.5" y="-462.9" font-family="Helvetica,sans-Serif" font-size="11.00" fill="#000000">int4[10]</text>
<polygon fill="none" stroke="#000000" points="10.5,-433.2 10.5,-455.2 215.5,-455.2 215.5,-433.2 10.5,-433.2"/>
<image xlink:href="../../images/foreignKeys.png" width="11px" height="12px" preserveAspectRatio="xMinYMin meet" x="15.5" y="-450.2"/>
<text text-anchor="start" x="30.5" y="-440.3" font-family="Helvetica,sans-Serif" font-size="11.00" fill="#000000">servidor_cloud_id</text>
<polygon fill="none" stroke="#000000" points="215.5,-433.2 215.5,-455.2 465.5,-455.2 465.5,-433.2 215.5,-433.2"/>
<text text-anchor="start" x="218.5" y="-440.9" font-family="Helvetica,sans-Serif" font-size="11.00" fill="#000000">int4[10]</text>
<polygon fill="none" stroke="#000000" points="10.5,-411.2 10.5,-433.2 215.5,-433.2 215.5,-411.2 10.5,-411.2"/>
<text text-anchor="start" x="30.5" y="-418.3" font-family="Helvetica,sans-Serif" font-size="11.00" fill="#000000">matricula</text>
<polygon fill="none" stroke="#000000" points="215.5,-411.2 215.5,-433.2 465.5,-433.2 465.5,-411.2 215.5,-411.2"/>
<text text-anchor="start" x="218.5" y="-418.9" font-family="Helvetica,sans-Serif" font-size="11.00" fill="#000000">varchar[2147483647]</text>
<polygon fill="none" stroke="#000000" points="10.5,-389.2 10.5,-411.2 215.5,-411.2 215.5,-389.2 10.5,-389.2"/>
<text text-anchor="start" x="30.5" y="-396.3" font-family="Helvetica,sans-Serif" font-size="11.00" fill="#000000">data_admissao</text>
<polygon fill="none" stroke="#000000" points="215.5,-389.2 215.5,-411.2 465.5,-411.2 465.5,-389.2 215.5,-389.2"/>
<text text-anchor="start" x="218.5" y="-396.9" font-family="Helvetica,sans-Serif" font-size="11.00" fill="#000000">varchar[2147483647]</text>
<polygon fill="none" stroke="#000000" points="10.5,-367.2 10.5,-389.2 215.5,-389.2 215.5,-367.2 10.5,-367.2"/>
<text text-anchor="start" x="30.5" y="-374.3" font-family="Helvetica,sans-Serif" font-size="11.00" fill="#000000">data_demissao</text>
<polygon fill="none" stroke="#000000" points="215.5,-367.2 215.5,-389.2 465.5,-389.2 465.5,-367.2 215.5,-367.2"/>
<text text-anchor="start" x="218.5" y="-374.9" font-family="Helvetica,sans-Serif" font-size="11.00" fill="#000000">varchar[2147483647]</text>
<polygon fill="none" stroke="#000000" points="10.5,-345.2 10.5,-367.2 215.5,-367.2 215.5,-345.2 10.5,-345.2"/>
<image xlink:href="../../images/foreignKeys.png" width="11px" height="12px" preserveAspectRatio="xMinYMin meet" x="15.5" y="-362.2"/>
<text text-anchor="start" x="30.5" y="-352.3" font-family="Helvetica,sans-Serif" font-size="11.00" fill="#000000">lotacao_fisica_origem_id</text>
<polygon fill="none" stroke="#000000" points="215.5,-345.2 215.5,-367.2 465.5,-367.2 465.5,-345.2 215.5,-345.2"/>
<text text-anchor="start" x="218.5" y="-352.9" font-family="Helvetica,sans-Serif" font-size="11.00" fill="#000000">int4[10]</text>
<polygon fill="none" stroke="#000000" points="10.5,-323.2 10.5,-345.2 215.5,-345.2 215.5,-323.2 10.5,-323.2"/>
<image xlink:href="../../images/foreignKeys.png" width="11px" height="12px" preserveAspectRatio="xMinYMin meet" x="15.5" y="-340.2"/>
<text text-anchor="start" x="30.5" y="-330.3" font-family="Helvetica,sans-Serif" font-size="11.00" fill="#000000">lotacao_fisica_cloud_id</text>
<polygon fill="none" stroke="#000000" points="215.5,-323.2 215.5,-345.2 465.5,-345.2 465.5,-323.2 215.5,-323.2"/>
<text text-anchor="start" x="218.5" y="-330.9" font-family="Helvetica,sans-Serif" font-size="11.00" fill="#000000">int4[10]</text>
<polygon fill="none" stroke="#000000" points="10.5,-301.2 10.5,-323.2 215.5,-323.2 215.5,-301.2 10.5,-301.2"/>
<text text-anchor="start" x="30.5" y="-308.3" font-family="Helvetica,sans-Serif" font-size="11.00" fill="#000000">data_inicial_funcao_gratif</text>
<polygon fill="none" stroke="#000000" points="215.5,-301.2 215.5,-323.2 465.5,-323.2 465.5,-301.2 215.5,-301.2"/>
<text text-anchor="start" x="218.5" y="-308.9" font-family="Helvetica,sans-Serif" font-size="11.00" fill="#000000">varchar[2147483647]</text>
<polygon fill="none" stroke="#000000" points="10.5,-279.2 10.5,-301.2 215.5,-301.2 215.5,-279.2 10.5,-279.2"/>
<text text-anchor="start" x="30.5" y="-286.3" font-family="Helvetica,sans-Serif" font-size="11.00" fill="#000000">data_final_funcao_gratif</text>
<polygon fill="none" stroke="#000000" points="215.5,-279.2 215.5,-301.2 465.5,-301.2 465.5,-279.2 215.5,-279.2"/>
<text text-anchor="start" x="218.5" y="-286.9" font-family="Helvetica,sans-Serif" font-size="11.00" fill="#000000">varchar[2147483647]</text>
<polygon fill="none" stroke="#000000" points="10.5,-257.2 10.5,-279.2 215.5,-279.2 215.5,-257.2 10.5,-257.2"/>
<text text-anchor="start" x="30.5" y="-264.3" font-family="Helvetica,sans-Serif" font-size="11.00" fill="#000000">carga_horaria_semanal</text>
<polygon fill="none" stroke="#000000" points="215.5,-257.2 215.5,-279.2 465.5,-279.2 465.5,-257.2 215.5,-257.2"/>
<text text-anchor="start" x="218.5" y="-264.9" font-family="Helvetica,sans-Serif" font-size="11.00" fill="#000000">varchar[2147483647]</text>
<polygon fill="none" stroke="#000000" points="10.5,-235.2 10.5,-257.2 215.5,-257.2 215.5,-235.2 10.5,-235.2"/>
<text text-anchor="start" x="30.5" y="-242.3" font-family="Helvetica,sans-Serif" font-size="11.00" fill="#000000">situacao</text>
<polygon fill="none" stroke="#000000" points="215.5,-235.2 215.5,-257.2 465.5,-257.2 465.5,-235.2 215.5,-235.2"/>
<text text-anchor="start" x="218.5" y="-242.9" font-family="Helvetica,sans-Serif" font-size="11.00" fill="#000000">&quot;educacao&quot;.&quot;situacoesfuncionario&quot;[2147483647]</text>
<polygon fill="none" stroke="#000000" points="10.5,-213.2 10.5,-235.2 215.5,-235.2 215.5,-213.2 10.5,-213.2"/>
<text text-anchor="start" x="30.5" y="-220.3" font-family="Helvetica,sans-Serif" font-size="11.00" fill="#000000">tipo_vinculo</text>
<polygon fill="none" stroke="#000000" points="215.5,-213.2 215.5,-235.2 465.5,-235.2 465.5,-213.2 215.5,-213.2"/>
<text text-anchor="start" x="218.0656" y="-220.9" font-family="Helvetica,sans-Serif" font-size="11.00" fill="#000000">&quot;educacao&quot;.&quot;tiposvinculofuncionario&quot;[2147483647]</text>
<polygon fill="none" stroke="#000000" points="10.5,-191.2 10.5,-213.2 215.5,-213.2 215.5,-191.2 10.5,-191.2"/>
<text text-anchor="start" x="30.5" y="-198.3" font-family="Helvetica,sans-Serif" font-size="11.00" fill="#000000">atividades</text>
<polygon fill="none" stroke="#000000" points="215.5,-191.2 215.5,-213.2 465.5,-213.2 465.5,-191.2 215.5,-191.2"/>
<text text-anchor="start" x="218.5" y="-198.9" font-family="Helvetica,sans-Serif" font-size="11.00" fill="#000000">_varchar[2147483647]</text>
<polygon fill="none" stroke="#000000" points="10.5,-169.2 10.5,-191.2 215.5,-191.2 215.5,-169.2 10.5,-169.2"/>
<image xlink:href="../../images/foreignKeys.png" width="11px" height="12px" preserveAspectRatio="xMinYMin meet" x="15.5" y="-186.2"/>
<text text-anchor="start" x="30.5" y="-176.3" font-family="Helvetica,sans-Serif" font-size="11.00" fill="#000000">cargo_origem_id</text>
<polygon fill="none" stroke="#000000" points="215.5,-169.2 215.5,-191.2 465.5,-191.2 465.5,-169.2 215.5,-169.2"/>
<text text-anchor="start" x="218.5" y="-176.9" font-family="Helvetica,sans-Serif" font-size="11.00" fill="#000000">int4[10]</text>
<polygon fill="none" stroke="#000000" points="10.5,-147.2 10.5,-169.2 215.5,-169.2 215.5,-147.2 10.5,-147.2"/>
<image xlink:href="../../images/foreignKeys.png" width="11px" height="12px" preserveAspectRatio="xMinYMin meet" x="15.5" y="-164.2"/>
<text text-anchor="start" x="30.5" y="-154.3" font-family="Helvetica,sans-Serif" font-size="11.00" fill="#000000">cargo_cloud_id</text>
<polygon fill="none" stroke="#000000" points="215.5,-147.2 215.5,-169.2 465.5,-169.2 465.5,-147.2 215.5,-147.2"/>
<text text-anchor="start" x="218.5" y="-154.9" font-family="Helvetica,sans-Serif" font-size="11.00" fill="#000000">int4[10]</text>
<polygon fill="none" stroke="#000000" points="10.5,-125.2 10.5,-147.2 215.5,-147.2 215.5,-125.2 10.5,-125.2"/>
<image xlink:href="../../images/foreignKeys.png" width="11px" height="12px" preserveAspectRatio="xMinYMin meet" x="15.5" y="-142.2"/>
<text text-anchor="start" x="30.5" y="-132.3" font-family="Helvetica,sans-Serif" font-size="11.00" fill="#000000">cargo_comissionado_origem_id</text>
<polygon fill="none" stroke="#000000" points="215.5,-125.2 215.5,-147.2 465.5,-147.2 465.5,-125.2 215.5,-125.2"/>
<text text-anchor="start" x="218.5" y="-132.9" font-family="Helvetica,sans-Serif" font-size="11.00" fill="#000000">int4[10]</text>
<polygon fill="none" stroke="#000000" points="10.5,-103.2 10.5,-125.2 215.5,-125.2 215.5,-103.2 10.5,-103.2"/>
<image xlink:href="../../images/foreignKeys.png" width="11px" height="12px" preserveAspectRatio="xMinYMin meet" x="15.5" y="-120.2"/>
<text text-anchor="start" x="30.5" y="-110.3" font-family="Helvetica,sans-Serif" font-size="11.00" fill="#000000">cargo_comissionado_cloud_id</text>
<polygon fill="none" stroke="#000000" points="215.5,-103.2 215.5,-125.2 465.5,-125.2 465.5,-103.2 215.5,-103.2"/>
<text text-anchor="start" x="218.5" y="-110.9" font-family="Helvetica,sans-Serif" font-size="11.00" fill="#000000">int4[10]</text>
<polygon fill="none" stroke="#000000" points="10.5,-81.2 10.5,-103.2 215.5,-103.2 215.5,-81.2 10.5,-81.2"/>
<image xlink:href="../../images/foreignKeys.png" width="11px" height="12px" preserveAspectRatio="xMinYMin meet" x="15.5" y="-98.2"/>
<text text-anchor="start" x="30.5" y="-88.3" font-family="Helvetica,sans-Serif" font-size="11.00" fill="#000000">funcao_gratificada_origem_id</text>
<polygon fill="none" stroke="#000000" points="215.5,-81.2 215.5,-103.2 465.5,-103.2 465.5,-81.2 215.5,-81.2"/>
<text text-anchor="start" x="218.5" y="-88.9" font-family="Helvetica,sans-Serif" font-size="11.00" fill="#000000">int4[10]</text>
<polygon fill="none" stroke="#000000" points="10.5,-59.2 10.5,-81.2 215.5,-81.2 215.5,-59.2 10.5,-59.2"/>
<image xlink:href="../../images/foreignKeys.png" width="11px" height="12px" preserveAspectRatio="xMinYMin meet" x="15.5" y="-76.2"/>
<text text-anchor="start" x="30.5" y="-66.3" font-family="Helvetica,sans-Serif" font-size="11.00" fill="#000000">funcao_gratificada_cloud_id</text>
<polygon fill="none" stroke="#000000" points="215.5,-59.2 215.5,-81.2 465.5,-81.2 465.5,-59.2 215.5,-59.2"/>
<text text-anchor="start" x="218.5" y="-66.9" font-family="Helvetica,sans-Serif" font-size="11.00" fill="#000000">int4[10]</text>
<polygon fill="#ffffff" stroke="transparent" points="10.5,-40.2 10.5,-59.2 117.5,-59.2 117.5,-40.2 10.5,-40.2"/>
<polygon fill="none" stroke="#000000" points="10.5,-40.2 10.5,-59.2 117.5,-59.2 117.5,-40.2 10.5,-40.2"/>
<text text-anchor="start" x="13.5" y="-46.3" font-family="Helvetica,sans-Serif" font-size="11.00" fill="#000000">&lt; 0</text>
<polygon fill="#ffffff" stroke="transparent" points="117.5,-40.2 117.5,-59.2 215.5,-59.2 215.5,-40.2 117.5,-40.2"/>
<polygon fill="none" stroke="#000000" points="117.5,-40.2 117.5,-59.2 215.5,-59.2 215.5,-40.2 117.5,-40.2"/>
<text text-anchor="start" x="206.3862" y="-46.3" font-family="Helvetica,sans-Serif" font-size="11.00" fill="#000000"> &#160;</text>
<polygon fill="#ffffff" stroke="transparent" points="215.5,-40.2 215.5,-59.2 465.5,-59.2 465.5,-40.2 215.5,-40.2"/>
<polygon fill="none" stroke="#000000" points="215.5,-40.2 215.5,-59.2 465.5,-59.2 465.5,-40.2 215.5,-40.2"/>
<text text-anchor="start" x="446.9053" y="-46.3" font-family="Helvetica,sans-Serif" font-size="11.00" fill="#000000">0 &gt;</text>
<polygon fill="none" stroke="#000000" stroke-width="2" points="9,-39.2 9,-611.2 466,-611.2 466,-39.2 9,-39.2"/>
</a>
</g>
</g>
</g>
</svg>
