<?xml version="1.0" encoding="UTF-8" standalone="no"?>
<!DOCTYPE svg PUBLIC "-//W3C//DTD SVG 1.1//EN"
 "http://www.w3.org/Graphics/SVG/1.1/DTD/svg11.dtd">
<!-- Generated by graphviz version 2.40.1 (20161225.0304)
 -->
<!-- Title: oneDegreeRelationshipsDiagram Pages: 1 -->
<svg width="576pt" height="734pt"
 viewBox="0.00 0.00 576.00 734.20" xmlns="http://www.w3.org/2000/svg" xmlns:xlink="http://www.w3.org/1999/xlink">
<g id="graph0" class="graph" transform="scale(1 1) rotate(0) translate(4 730.2)">
<title>oneDegreeRelationshipsDiagram</title>
<polygon fill="#ffffff" stroke="transparent" points="-4,4 -4,-730.2 572,-730.2 572,4 -4,4"/>
<text text-anchor="middle" x="72.4936" y="-7.3" font-family="Helvetica,sans-Serif" font-size="11.00" fill="#000000">Generated by SchemaSpy</text>
<!-- matriculas -->
<g id="node1" class="node">
<title>matriculas</title>
<g id="a_node1"><a xlink:href="../../tables/matriculas.html" xlink:title="matriculas" target="_top">
<polygon fill="#ffffff" stroke="transparent" points="8,-38.2 8,-722.2 560,-722.2 560,-38.2 8,-38.2"/>
<polygon fill="#f5f5f5" stroke="transparent" points="10,-697.2 10,-720.2 558,-720.2 558,-697.2 10,-697.2"/>
<polygon fill="none" stroke="#000000" points="10,-697.2 10,-720.2 558,-720.2 558,-697.2 10,-697.2"/>
<text text-anchor="start" x="15" y="-705.8" font-family="Helvetica,sans-Serif" font-weight="bold" font-size="11.00" fill="#000000">matriculas</text>
<text text-anchor="start" x="523.0437" y="-705.3" font-family="Helvetica,sans-Serif" font-size="11.00" fill="#000000">[table]</text>
<polygon fill="none" stroke="#000000" points="10,-675.2 10,-697.2 269,-697.2 269,-675.2 10,-675.2"/>
<text text-anchor="start" x="30" y="-682.3" font-family="Helvetica,sans-Serif" font-size="11.00" fill="#000000">sistema</text>
<polygon fill="none" stroke="#000000" points="269,-675.2 269,-697.2 558,-697.2 558,-675.2 269,-675.2"/>
<text text-anchor="start" x="272" y="-682.9" font-family="Helvetica,sans-Serif" font-size="11.00" fill="#000000">int4[10]</text>
<polygon fill="none" stroke="#000000" points="10,-653.2 10,-675.2 269,-675.2 269,-653.2 10,-653.2"/>
<text text-anchor="start" x="30" y="-660.3" font-family="Helvetica,sans-Serif" font-size="11.00" fill="#000000">tipo_registro</text>
<polygon fill="none" stroke="#000000" points="269,-653.2 269,-675.2 558,-675.2 558,-653.2 269,-653.2"/>
<text text-anchor="start" x="272" y="-660.9" font-family="Helvetica,sans-Serif" font-size="11.00" fill="#000000">text[2147483647]</text>
<polygon fill="none" stroke="#000000" points="10,-631.2 10,-653.2 269,-653.2 269,-631.2 10,-631.2"/>
<text text-anchor="start" x="30" y="-638.3" font-family="Helvetica,sans-Serif" font-size="11.00" fill="#000000">id_integracao</text>
<polygon fill="none" stroke="#000000" points="269,-631.2 269,-653.2 558,-653.2 558,-631.2 269,-631.2"/>
<text text-anchor="start" x="272" y="-638.9" font-family="Helvetica,sans-Serif" font-size="11.00" fill="#000000">varchar[2147483647]</text>
<polygon fill="none" stroke="#000000" points="10,-609.2 10,-631.2 269,-631.2 269,-609.2 10,-609.2"/>
<text text-anchor="start" x="30" y="-616.3" font-family="Helvetica,sans-Serif" font-size="11.00" fill="#000000">id_origem</text>
<polygon fill="none" stroke="#000000" points="269,-609.2 269,-631.2 558,-631.2 558,-609.2 269,-609.2"/>
<text text-anchor="start" x="272" y="-616.9" font-family="Helvetica,sans-Serif" font-size="11.00" fill="#000000">int4[10]</text>
<polygon fill="none" stroke="#000000" points="10,-587.2 10,-609.2 269,-609.2 269,-587.2 10,-587.2"/>
<text text-anchor="start" x="30" y="-594.3" font-family="Helvetica,sans-Serif" font-size="11.00" fill="#000000">id_cloud</text>
<polygon fill="none" stroke="#000000" points="269,-587.2 269,-609.2 558,-609.2 558,-587.2 269,-587.2"/>
<text text-anchor="start" x="272" y="-594.9" font-family="Helvetica,sans-Serif" font-size="11.00" fill="#000000">int4[10]</text>
<polygon fill="none" stroke="#000000" points="10,-565.2 10,-587.2 269,-587.2 269,-565.2 10,-565.2"/>
<text text-anchor="start" x="30" y="-572.3" font-family="Helvetica,sans-Serif" font-size="11.00" fill="#000000">type</text>
<polygon fill="none" stroke="#000000" points="269,-565.2 269,-587.2 558,-587.2 558,-565.2 269,-565.2"/>
<text text-anchor="start" x="272" y="-572.9" font-family="Helvetica,sans-Serif" font-size="11.00" fill="#000000">&quot;educacao&quot;.&quot;matriculatypes&quot;[2147483647]</text>
<polygon fill="none" stroke="#000000" points="10,-543.2 10,-565.2 269,-565.2 269,-543.2 10,-543.2"/>
<image xlink:href="../../images/foreignKeys.png" width="11px" height="12px" preserveAspectRatio="xMinYMin meet" x="15" y="-560.2"/>
<text text-anchor="start" x="30" y="-550.3" font-family="Helvetica,sans-Serif" font-size="11.00" fill="#000000">estabelecimento_origem_id</text>
<polygon fill="none" stroke="#000000" points="269,-543.2 269,-565.2 558,-565.2 558,-543.2 269,-543.2"/>
<text text-anchor="start" x="272" y="-550.9" font-family="Helvetica,sans-Serif" font-size="11.00" fill="#000000">int4[10]</text>
<polygon fill="none" stroke="#000000" points="10,-521.2 10,-543.2 269,-543.2 269,-521.2 10,-521.2"/>
<image xlink:href="../../images/foreignKeys.png" width="11px" height="12px" preserveAspectRatio="xMinYMin meet" x="15" y="-538.2"/>
<text text-anchor="start" x="30" y="-528.3" font-family="Helvetica,sans-Serif" font-size="11.00" fill="#000000">estabelecimento_cloud_id</text>
<polygon fill="none" stroke="#000000" points="269,-521.2 269,-543.2 558,-543.2 558,-521.2 269,-521.2"/>
<text text-anchor="start" x="272" y="-528.9" font-family="Helvetica,sans-Serif" font-size="11.00" fill="#000000">int4[10]</text>
<polygon fill="none" stroke="#000000" points="10,-499.2 10,-521.2 269,-521.2 269,-499.2 10,-499.2"/>
<image xlink:href="../../images/foreignKeys.png" width="11px" height="12px" preserveAspectRatio="xMinYMin meet" x="15" y="-516.2"/>
<text text-anchor="start" x="30" y="-506.3" font-family="Helvetica,sans-Serif" font-size="11.00" fill="#000000">ano_letivo_origem_id</text>
<polygon fill="none" stroke="#000000" points="269,-499.2 269,-521.2 558,-521.2 558,-499.2 269,-499.2"/>
<text text-anchor="start" x="272" y="-506.9" font-family="Helvetica,sans-Serif" font-size="11.00" fill="#000000">int4[10]</text>
<polygon fill="none" stroke="#000000" points="10,-477.2 10,-499.2 269,-499.2 269,-477.2 10,-477.2"/>
<image xlink:href="../../images/foreignKeys.png" width="11px" height="12px" preserveAspectRatio="xMinYMin meet" x="15" y="-494.2"/>
<text text-anchor="start" x="30" y="-484.3" font-family="Helvetica,sans-Serif" font-size="11.00" fill="#000000">ano_letivo_cloud_id</text>
<polygon fill="none" stroke="#000000" points="269,-477.2 269,-499.2 558,-499.2 558,-477.2 269,-477.2"/>
<text text-anchor="start" x="272" y="-484.9" font-family="Helvetica,sans-Serif" font-size="11.00" fill="#000000">int4[10]</text>
<polygon fill="none" stroke="#000000" points="10,-455.2 10,-477.2 269,-477.2 269,-455.2 10,-455.2"/>
<text text-anchor="start" x="30" y="-462.3" font-family="Helvetica,sans-Serif" font-size="11.00" fill="#000000">tipo_matricula</text>
<polygon fill="none" stroke="#000000" points="269,-455.2 269,-477.2 558,-477.2 558,-455.2 269,-455.2"/>
<text text-anchor="start" x="272" y="-462.9" font-family="Helvetica,sans-Serif" font-size="11.00" fill="#000000">&quot;educacao&quot;.&quot;tiposmatricula&quot;[2147483647]</text>
<polygon fill="none" stroke="#000000" points="10,-433.2 10,-455.2 269,-455.2 269,-433.2 10,-433.2"/>
<image xlink:href="../../images/foreignKeys.png" width="11px" height="12px" preserveAspectRatio="xMinYMin meet" x="15" y="-450.2"/>
<text text-anchor="start" x="30" y="-440.3" font-family="Helvetica,sans-Serif" font-size="11.00" fill="#000000">aluno_origem_id</text>
<polygon fill="none" stroke="#000000" points="269,-433.2 269,-455.2 558,-455.2 558,-433.2 269,-433.2"/>
<text text-anchor="start" x="272" y="-440.9" font-family="Helvetica,sans-Serif" font-size="11.00" fill="#000000">int4[10]</text>
<polygon fill="none" stroke="#000000" points="10,-411.2 10,-433.2 269,-433.2 269,-411.2 10,-411.2"/>
<image xlink:href="../../images/foreignKeys.png" width="11px" height="12px" preserveAspectRatio="xMinYMin meet" x="15" y="-428.2"/>
<text text-anchor="start" x="30" y="-418.3" font-family="Helvetica,sans-Serif" font-size="11.00" fill="#000000">aluno_cloud_id</text>
<polygon fill="none" stroke="#000000" points="269,-411.2 269,-433.2 558,-433.2 558,-411.2 269,-411.2"/>
<text text-anchor="start" x="272" y="-418.9" font-family="Helvetica,sans-Serif" font-size="11.00" fill="#000000">int4[10]</text>
<polygon fill="none" stroke="#000000" points="10,-389.2 10,-411.2 269,-411.2 269,-389.2 10,-389.2"/>
<text text-anchor="start" x="30" y="-396.3" font-family="Helvetica,sans-Serif" font-size="11.00" fill="#000000">data_matricula</text>
<polygon fill="none" stroke="#000000" points="269,-389.2 269,-411.2 558,-411.2 558,-389.2 269,-389.2"/>
<text text-anchor="start" x="272" y="-396.9" font-family="Helvetica,sans-Serif" font-size="11.00" fill="#000000">date[13]</text>
<polygon fill="none" stroke="#000000" points="10,-367.2 10,-389.2 269,-389.2 269,-367.2 10,-367.2"/>
<text text-anchor="start" x="30" y="-374.3" font-family="Helvetica,sans-Serif" font-size="11.00" fill="#000000">espaco_diferenciado</text>
<polygon fill="none" stroke="#000000" points="269,-367.2 269,-389.2 558,-389.2 558,-367.2 269,-367.2"/>
<text text-anchor="start" x="272" y="-374.9" font-family="Helvetica,sans-Serif" font-size="11.00" fill="#000000">&quot;educacao&quot;.&quot;tiposespacodiferenciado&quot;[2147483647]</text>
<polygon fill="none" stroke="#000000" points="10,-345.2 10,-367.2 269,-367.2 269,-345.2 10,-345.2"/>
<text text-anchor="start" x="30" y="-352.3" font-family="Helvetica,sans-Serif" font-size="11.00" fill="#000000">utilizar_transporte_escolar</text>
<polygon fill="none" stroke="#000000" points="269,-345.2 269,-367.2 558,-367.2 558,-345.2 269,-345.2"/>
<text text-anchor="start" x="272" y="-352.9" font-family="Helvetica,sans-Serif" font-size="11.00" fill="#000000">bool[1]</text>
<polygon fill="none" stroke="#000000" points="10,-323.2 10,-345.2 269,-345.2 269,-323.2 10,-323.2"/>
<text text-anchor="start" x="30" y="-330.3" font-family="Helvetica,sans-Serif" font-size="11.00" fill="#000000">responsavel_transporte_escolar</text>
<polygon fill="none" stroke="#000000" points="269,-323.2 269,-345.2 558,-345.2 558,-323.2 269,-323.2"/>
<text text-anchor="start" x="271.8117" y="-330.9" font-family="Helvetica,sans-Serif" font-size="11.00" fill="#000000">&quot;educacao&quot;.&quot;responsaveistransporteescolar&quot;[2147483647]</text>
<polygon fill="none" stroke="#000000" points="10,-301.2 10,-323.2 269,-323.2 269,-301.2 10,-301.2"/>
<text text-anchor="start" x="30" y="-308.3" font-family="Helvetica,sans-Serif" font-size="11.00" fill="#000000">veiculos</text>
<polygon fill="none" stroke="#000000" points="269,-301.2 269,-323.2 558,-323.2 558,-301.2 269,-301.2"/>
<text text-anchor="start" x="272" y="-308.9" font-family="Helvetica,sans-Serif" font-size="11.00" fill="#000000">&quot;educacao&quot;.&quot;_tiposveiculos&quot;[2147483647]</text>
<polygon fill="none" stroke="#000000" points="10,-279.2 10,-301.2 269,-301.2 269,-279.2 10,-279.2"/>
<text text-anchor="start" x="30" y="-286.3" font-family="Helvetica,sans-Serif" font-size="11.00" fill="#000000">observacao</text>
<polygon fill="none" stroke="#000000" points="269,-279.2 269,-301.2 558,-301.2 558,-279.2 269,-279.2"/>
<text text-anchor="start" x="272" y="-286.9" font-family="Helvetica,sans-Serif" font-size="11.00" fill="#000000">varchar[4000]</text>
<polygon fill="none" stroke="#000000" points="10,-257.2 10,-279.2 269,-279.2 269,-257.2 10,-257.2"/>
<image xlink:href="../../images/foreignKeys.png" width="11px" height="12px" preserveAspectRatio="xMinYMin meet" x="15" y="-274.2"/>
<text text-anchor="start" x="30" y="-264.3" font-family="Helvetica,sans-Serif" font-size="11.00" fill="#000000">vaga_origem_id</text>
<polygon fill="none" stroke="#000000" points="269,-257.2 269,-279.2 558,-279.2 558,-257.2 269,-257.2"/>
<text text-anchor="start" x="272" y="-264.9" font-family="Helvetica,sans-Serif" font-size="11.00" fill="#000000">int4[10]</text>
<polygon fill="none" stroke="#000000" points="10,-235.2 10,-257.2 269,-257.2 269,-235.2 10,-235.2"/>
<image xlink:href="../../images/foreignKeys.png" width="11px" height="12px" preserveAspectRatio="xMinYMin meet" x="15" y="-252.2"/>
<text text-anchor="start" x="30" y="-242.3" font-family="Helvetica,sans-Serif" font-size="11.00" fill="#000000">vaga_cloud_id</text>
<polygon fill="none" stroke="#000000" points="269,-235.2 269,-257.2 558,-257.2 558,-235.2 269,-235.2"/>
<text text-anchor="start" x="272" y="-242.9" font-family="Helvetica,sans-Serif" font-size="11.00" fill="#000000">int4[10]</text>
<polygon fill="none" stroke="#000000" points="10,-213.2 10,-235.2 269,-235.2 269,-213.2 10,-213.2"/>
<image xlink:href="../../images/foreignKeys.png" width="11px" height="12px" preserveAspectRatio="xMinYMin meet" x="15" y="-230.2"/>
<text text-anchor="start" x="30" y="-220.3" font-family="Helvetica,sans-Serif" font-size="11.00" fill="#000000">turma_origem_id</text>
<polygon fill="none" stroke="#000000" points="269,-213.2 269,-235.2 558,-235.2 558,-213.2 269,-213.2"/>
<text text-anchor="start" x="272" y="-220.9" font-family="Helvetica,sans-Serif" font-size="11.00" fill="#000000">int4[10]</text>
<polygon fill="none" stroke="#000000" points="10,-191.2 10,-213.2 269,-213.2 269,-191.2 10,-191.2"/>
<image xlink:href="../../images/foreignKeys.png" width="11px" height="12px" preserveAspectRatio="xMinYMin meet" x="15" y="-208.2"/>
<text text-anchor="start" x="30" y="-198.3" font-family="Helvetica,sans-Serif" font-size="11.00" fill="#000000">turma_cloud_id</text>
<polygon fill="none" stroke="#000000" points="269,-191.2 269,-213.2 558,-213.2 558,-191.2 269,-191.2"/>
<text text-anchor="start" x="272" y="-198.9" font-family="Helvetica,sans-Serif" font-size="11.00" fill="#000000">int4[10]</text>
<polygon fill="none" stroke="#000000" points="10,-169.2 10,-191.2 269,-191.2 269,-169.2 10,-169.2"/>
<text text-anchor="start" x="30" y="-176.3" font-family="Helvetica,sans-Serif" font-size="11.00" fill="#000000">force</text>
<polygon fill="none" stroke="#000000" points="269,-169.2 269,-191.2 558,-191.2 558,-169.2 269,-169.2"/>
<text text-anchor="start" x="272" y="-176.9" font-family="Helvetica,sans-Serif" font-size="11.00" fill="#000000">bool[1]</text>
<polygon fill="none" stroke="#000000" points="10,-147.2 10,-169.2 269,-169.2 269,-147.2 10,-147.2"/>
<text text-anchor="start" x="30" y="-154.3" font-family="Helvetica,sans-Serif" font-size="11.00" fill="#000000">codigo</text>
<polygon fill="none" stroke="#000000" points="269,-147.2 269,-169.2 558,-169.2 558,-147.2 269,-147.2"/>
<text text-anchor="start" x="272" y="-154.9" font-family="Helvetica,sans-Serif" font-size="11.00" fill="#000000">varchar[12]</text>
<polygon fill="none" stroke="#000000" points="10,-125.2 10,-147.2 269,-147.2 269,-125.2 10,-125.2"/>
<text text-anchor="start" x="30" y="-132.3" font-family="Helvetica,sans-Serif" font-size="11.00" fill="#000000">areas_itinerarios_formativos</text>
<polygon fill="none" stroke="#000000" points="269,-125.2 269,-147.2 558,-147.2 558,-125.2 269,-125.2"/>
<text text-anchor="start" x="272" y="-132.9" font-family="Helvetica,sans-Serif" font-size="11.00" fill="#000000">&quot;educacao&quot;.&quot;_itinerariosformativos&quot;[2147483647]</text>
<polygon fill="none" stroke="#000000" points="10,-103.2 10,-125.2 269,-125.2 269,-103.2 10,-103.2"/>
<text text-anchor="start" x="30" y="-110.3" font-family="Helvetica,sans-Serif" font-size="11.00" fill="#000000">composicoes_itinerarios_formativos</text>
<polygon fill="none" stroke="#000000" points="269,-103.2 269,-125.2 558,-125.2 558,-103.2 269,-103.2"/>
<text text-anchor="start" x="272" y="-110.9" font-family="Helvetica,sans-Serif" font-size="11.00" fill="#000000">&quot;educacao&quot;.&quot;_itinerariosformativos&quot;[2147483647]</text>
<polygon fill="none" stroke="#000000" points="10,-81.2 10,-103.2 269,-103.2 269,-81.2 10,-81.2"/>
<text text-anchor="start" x="30" y="-88.3" font-family="Helvetica,sans-Serif" font-size="11.00" fill="#000000">tipo_curso_itinerario_formativo</text>
<polygon fill="none" stroke="#000000" points="269,-81.2 269,-103.2 558,-103.2 558,-81.2 269,-81.2"/>
<text text-anchor="start" x="272" y="-88.9" font-family="Helvetica,sans-Serif" font-size="11.00" fill="#000000">&quot;educacao&quot;.&quot;cursositinerariosformativos&quot;[2147483647]</text>
<polygon fill="none" stroke="#000000" points="10,-59.2 10,-81.2 269,-81.2 269,-59.2 10,-59.2"/>
<text text-anchor="start" x="30" y="-66.3" font-family="Helvetica,sans-Serif" font-size="11.00" fill="#000000">utiliza_concomitante_itinerario_formativo</text>
<polygon fill="none" stroke="#000000" points="269,-59.2 269,-81.2 558,-81.2 558,-59.2 269,-59.2"/>
<text text-anchor="start" x="272" y="-66.9" font-family="Helvetica,sans-Serif" font-size="11.00" fill="#000000">bool[1]</text>
<polygon fill="#ffffff" stroke="transparent" points="10,-40.2 10,-59.2 144,-59.2 144,-40.2 10,-40.2"/>
<polygon fill="none" stroke="#000000" points="10,-40.2 10,-59.2 144,-59.2 144,-40.2 10,-40.2"/>
<text text-anchor="start" x="13" y="-46.3" font-family="Helvetica,sans-Serif" font-size="11.00" fill="#000000">&lt; 0</text>
<polygon fill="#ffffff" stroke="transparent" points="144,-40.2 144,-59.2 269,-59.2 269,-40.2 144,-40.2"/>
<polygon fill="none" stroke="#000000" points="144,-40.2 144,-59.2 269,-59.2 269,-40.2 144,-40.2"/>
<text text-anchor="start" x="259.8862" y="-46.3" font-family="Helvetica,sans-Serif" font-size="11.00" fill="#000000"> &#160;</text>
<polygon fill="#ffffff" stroke="transparent" points="269,-40.2 269,-59.2 558,-59.2 558,-40.2 269,-40.2"/>
<polygon fill="none" stroke="#000000" points="269,-40.2 269,-59.2 558,-59.2 558,-40.2 269,-40.2"/>
<text text-anchor="start" x="539.4053" y="-46.3" font-family="Helvetica,sans-Serif" font-size="11.00" fill="#000000">0 &gt;</text>
<polygon fill="none" stroke="#000000" stroke-width="2" points="9,-39.2 9,-721.2 559,-721.2 559,-39.2 9,-39.2"/>
</a>
</g>
</g>
</g>
</svg>
