<?xml version="1.0" encoding="UTF-8" standalone="no"?>
<!DOCTYPE svg PUBLIC "-//W3C//DTD SVG 1.1//EN"
 "http://www.w3.org/Graphics/SVG/1.1/DTD/svg11.dtd">
<!-- Generated by graphviz version 2.40.1 (20161225.0304)
 -->
<!-- Title: oneDegreeRelationshipsDiagram Pages: 1 -->
<svg width="443pt" height="272pt"
 viewBox="0.00 0.00 443.00 272.20" xmlns="http://www.w3.org/2000/svg" xmlns:xlink="http://www.w3.org/1999/xlink">
<g id="graph0" class="graph" transform="scale(1 1) rotate(0) translate(4 268.2)">
<title>oneDegreeRelationshipsDiagram</title>
<polygon fill="#ffffff" stroke="transparent" points="-4,4 -4,-268.2 439,-268.2 439,4 -4,4"/>
<text text-anchor="middle" x="72.4936" y="-7.3" font-family="Helvetica,sans-Serif" font-size="11.00" fill="#000000">Generated by SchemaSpy</text>
<!-- motivos_movimentacao -->
<g id="node1" class="node">
<title>motivos_movimentacao</title>
<g id="a_node1"><a xlink:href="../../tables/motivos_movimentacao.html" xlink:title="motivos_movimentacao" target="_top">
<polygon fill="#ffffff" stroke="transparent" points="8,-38.2 8,-260.2 427,-260.2 427,-38.2 8,-38.2"/>
<polygon fill="#f5f5f5" stroke="transparent" points="10.5,-235.2 10.5,-258.2 425.5,-258.2 425.5,-235.2 10.5,-235.2"/>
<polygon fill="none" stroke="#000000" points="10.5,-235.2 10.5,-258.2 425.5,-258.2 425.5,-235.2 10.5,-235.2"/>
<text text-anchor="start" x="15.5" y="-243.8" font-family="Helvetica,sans-Serif" font-weight="bold" font-size="11.00" fill="#000000">motivos_movimentacao</text>
<text text-anchor="start" x="390.5437" y="-243.3" font-family="Helvetica,sans-Serif" font-size="11.00" fill="#000000">[table]</text>
<polygon fill="none" stroke="#000000" points="10.5,-213.2 10.5,-235.2 173.5,-235.2 173.5,-213.2 10.5,-213.2"/>
<text text-anchor="start" x="30.5" y="-220.3" font-family="Helvetica,sans-Serif" font-size="11.00" fill="#000000">sistema</text>
<polygon fill="none" stroke="#000000" points="173.5,-213.2 173.5,-235.2 425.5,-235.2 425.5,-213.2 173.5,-213.2"/>
<text text-anchor="start" x="176.5" y="-220.9" font-family="Helvetica,sans-Serif" font-size="11.00" fill="#000000">int4[10]</text>
<polygon fill="none" stroke="#000000" points="10.5,-191.2 10.5,-213.2 173.5,-213.2 173.5,-191.2 10.5,-191.2"/>
<text text-anchor="start" x="30.5" y="-198.3" font-family="Helvetica,sans-Serif" font-size="11.00" fill="#000000">tipo_registro</text>
<polygon fill="none" stroke="#000000" points="173.5,-191.2 173.5,-213.2 425.5,-213.2 425.5,-191.2 173.5,-191.2"/>
<text text-anchor="start" x="176.5" y="-198.9" font-family="Helvetica,sans-Serif" font-size="11.00" fill="#000000">text[2147483647]</text>
<polygon fill="none" stroke="#000000" points="10.5,-169.2 10.5,-191.2 173.5,-191.2 173.5,-169.2 10.5,-169.2"/>
<text text-anchor="start" x="30.5" y="-176.3" font-family="Helvetica,sans-Serif" font-size="11.00" fill="#000000">id_integracao</text>
<polygon fill="none" stroke="#000000" points="173.5,-169.2 173.5,-191.2 425.5,-191.2 425.5,-169.2 173.5,-169.2"/>
<text text-anchor="start" x="176.5" y="-176.9" font-family="Helvetica,sans-Serif" font-size="11.00" fill="#000000">varchar[2147483647]</text>
<polygon fill="none" stroke="#000000" points="10.5,-147.2 10.5,-169.2 173.5,-169.2 173.5,-147.2 10.5,-147.2"/>
<text text-anchor="start" x="30.5" y="-154.3" font-family="Helvetica,sans-Serif" font-size="11.00" fill="#000000">id_origem</text>
<polygon fill="none" stroke="#000000" points="173.5,-147.2 173.5,-169.2 425.5,-169.2 425.5,-147.2 173.5,-147.2"/>
<text text-anchor="start" x="176.5" y="-154.9" font-family="Helvetica,sans-Serif" font-size="11.00" fill="#000000">int4[10]</text>
<polygon fill="none" stroke="#000000" points="10.5,-125.2 10.5,-147.2 173.5,-147.2 173.5,-125.2 10.5,-125.2"/>
<text text-anchor="start" x="30.5" y="-132.3" font-family="Helvetica,sans-Serif" font-size="11.00" fill="#000000">id_cloud</text>
<polygon fill="none" stroke="#000000" points="173.5,-125.2 173.5,-147.2 425.5,-147.2 425.5,-125.2 173.5,-125.2"/>
<text text-anchor="start" x="176.5" y="-132.9" font-family="Helvetica,sans-Serif" font-size="11.00" fill="#000000">int4[10]</text>
<polygon fill="none" stroke="#000000" points="10.5,-103.2 10.5,-125.2 173.5,-125.2 173.5,-103.2 10.5,-103.2"/>
<text text-anchor="start" x="30.5" y="-110.3" font-family="Helvetica,sans-Serif" font-size="11.00" fill="#000000">descricao</text>
<polygon fill="none" stroke="#000000" points="173.5,-103.2 173.5,-125.2 425.5,-125.2 425.5,-103.2 173.5,-103.2"/>
<text text-anchor="start" x="176.5" y="-110.9" font-family="Helvetica,sans-Serif" font-size="11.00" fill="#000000">varchar[2147483647]</text>
<polygon fill="none" stroke="#000000" points="10.5,-81.2 10.5,-103.2 173.5,-103.2 173.5,-81.2 10.5,-81.2"/>
<text text-anchor="start" x="30.5" y="-88.3" font-family="Helvetica,sans-Serif" font-size="11.00" fill="#000000">tipo</text>
<polygon fill="none" stroke="#000000" points="173.5,-81.2 173.5,-103.2 425.5,-103.2 425.5,-81.2 173.5,-81.2"/>
<text text-anchor="start" x="176.5" y="-88.9" font-family="Helvetica,sans-Serif" font-size="11.00" fill="#000000">&quot;educacao&quot;.&quot;tiposmovimentacoes&quot;[2147483647]</text>
<polygon fill="none" stroke="#000000" points="10.5,-59.2 10.5,-81.2 173.5,-81.2 173.5,-59.2 10.5,-59.2"/>
<text text-anchor="start" x="30.5" y="-66.3" font-family="Helvetica,sans-Serif" font-size="11.00" fill="#000000">solicita_estabelecimento</text>
<polygon fill="none" stroke="#000000" points="173.5,-59.2 173.5,-81.2 425.5,-81.2 425.5,-59.2 173.5,-59.2"/>
<text text-anchor="start" x="176.4534" y="-66.9" font-family="Helvetica,sans-Serif" font-size="11.00" fill="#000000">&quot;educacao&quot;.&quot;destinosmovimentacao&quot;[2147483647]</text>
<polygon fill="#ffffff" stroke="transparent" points="10.5,-40.2 10.5,-59.2 96.5,-59.2 96.5,-40.2 10.5,-40.2"/>
<polygon fill="none" stroke="#000000" points="10.5,-40.2 10.5,-59.2 96.5,-59.2 96.5,-40.2 10.5,-40.2"/>
<text text-anchor="start" x="13.5" y="-46.3" font-family="Helvetica,sans-Serif" font-size="11.00" fill="#000000">&lt; 0</text>
<polygon fill="#ffffff" stroke="transparent" points="96.5,-40.2 96.5,-59.2 173.5,-59.2 173.5,-40.2 96.5,-40.2"/>
<polygon fill="none" stroke="#000000" points="96.5,-40.2 96.5,-59.2 173.5,-59.2 173.5,-40.2 96.5,-40.2"/>
<text text-anchor="start" x="164.3862" y="-46.3" font-family="Helvetica,sans-Serif" font-size="11.00" fill="#000000"> &#160;</text>
<polygon fill="#ffffff" stroke="transparent" points="173.5,-40.2 173.5,-59.2 425.5,-59.2 425.5,-40.2 173.5,-40.2"/>
<polygon fill="none" stroke="#000000" points="173.5,-40.2 173.5,-59.2 425.5,-59.2 425.5,-40.2 173.5,-40.2"/>
<text text-anchor="start" x="406.9053" y="-46.3" font-family="Helvetica,sans-Serif" font-size="11.00" fill="#000000">0 &gt;</text>
<polygon fill="none" stroke="#000000" stroke-width="2" points="9,-39.2 9,-259.2 426,-259.2 426,-39.2 9,-39.2"/>
</a>
</g>
</g>
</g>
</svg>
