<?xml version="1.0" encoding="UTF-8" standalone="no"?>
<!DOCTYPE svg PUBLIC "-//W3C//DTD SVG 1.1//EN"
 "http://www.w3.org/Graphics/SVG/1.1/DTD/svg11.dtd">
<!-- Generated by graphviz version 2.40.1 (20161225.0304)
 -->
<!-- Title: oneDegreeRelationshipsDiagramImplied Pages: 1 -->
<svg width="570pt" height="426pt"
 viewBox="0.00 0.00 570.00 426.20" xmlns="http://www.w3.org/2000/svg" xmlns:xlink="http://www.w3.org/1999/xlink">
<g id="graph0" class="graph" transform="scale(1 1) rotate(0) translate(4 422.2)">
<title>oneDegreeRelationshipsDiagramImplied</title>
<polygon fill="#ffffff" stroke="transparent" points="-4,4 -4,-422.2 566,-422.2 566,4 -4,4"/>
<text text-anchor="middle" x="72.4936" y="-7.3" font-family="Helvetica,sans-Serif" font-size="11.00" fill="#000000">Generated by SchemaSpy</text>
<!-- municipios -->
<g id="node1" class="node">
<title>municipios</title>
<g id="a_node1"><a xlink:href="../../tables/municipios.html" xlink:title="municipios" target="_top">
<polygon fill="#ffffff" stroke="transparent" points="286,-38.2 286,-414.2 554,-414.2 554,-38.2 286,-38.2"/>
<polygon fill="#f5f5f5" stroke="transparent" points="288,-389.2 288,-412.2 552,-412.2 552,-389.2 288,-389.2"/>
<polygon fill="none" stroke="#000000" points="288,-389.2 288,-412.2 552,-412.2 552,-389.2 288,-389.2"/>
<text text-anchor="start" x="293" y="-397.8" font-family="Helvetica,sans-Serif" font-weight="bold" font-size="11.00" fill="#000000">municipios</text>
<text text-anchor="start" x="517.0437" y="-397.3" font-family="Helvetica,sans-Serif" font-size="11.00" fill="#000000">[table]</text>
<polygon fill="none" stroke="#000000" points="288,-367.2 288,-389.2 443,-389.2 443,-367.2 288,-367.2"/>
<text text-anchor="start" x="308" y="-374.3" font-family="Helvetica,sans-Serif" font-size="11.00" fill="#000000">sistema</text>
<polygon fill="none" stroke="#000000" points="443,-367.2 443,-389.2 552,-389.2 552,-367.2 443,-367.2"/>
<text text-anchor="start" x="446" y="-374.9" font-family="Helvetica,sans-Serif" font-size="11.00" fill="#000000">int4[10]</text>
<polygon fill="none" stroke="#000000" points="288,-345.2 288,-367.2 443,-367.2 443,-345.2 288,-345.2"/>
<text text-anchor="start" x="308" y="-352.3" font-family="Helvetica,sans-Serif" font-size="11.00" fill="#000000">tipo_registro</text>
<polygon fill="none" stroke="#000000" points="443,-345.2 443,-367.2 552,-367.2 552,-345.2 443,-345.2"/>
<text text-anchor="start" x="446" y="-352.9" font-family="Helvetica,sans-Serif" font-size="11.00" fill="#000000">text[2147483647]</text>
<polygon fill="none" stroke="#000000" points="288,-323.2 288,-345.2 443,-345.2 443,-323.2 288,-323.2"/>
<text text-anchor="start" x="308" y="-330.3" font-family="Helvetica,sans-Serif" font-size="11.00" fill="#000000">id_integracao</text>
<polygon fill="none" stroke="#000000" points="443,-323.2 443,-345.2 552,-345.2 552,-323.2 443,-323.2"/>
<text text-anchor="start" x="445.5344" y="-330.9" font-family="Helvetica,sans-Serif" font-size="11.00" fill="#000000">varchar[2147483647]</text>
<polygon fill="none" stroke="#000000" points="288,-301.2 288,-323.2 443,-323.2 443,-301.2 288,-301.2"/>
<text text-anchor="start" x="308" y="-308.3" font-family="Helvetica,sans-Serif" font-size="11.00" fill="#000000">id_origem</text>
<polygon fill="none" stroke="#000000" points="443,-301.2 443,-323.2 552,-323.2 552,-301.2 443,-301.2"/>
<text text-anchor="start" x="446" y="-308.9" font-family="Helvetica,sans-Serif" font-size="11.00" fill="#000000">int4[10]</text>
<polygon fill="none" stroke="#000000" points="288,-279.2 288,-301.2 443,-301.2 443,-279.2 288,-279.2"/>
<text text-anchor="start" x="308" y="-286.3" font-family="Helvetica,sans-Serif" font-size="11.00" fill="#000000">id_cloud</text>
<polygon fill="none" stroke="#000000" points="443,-279.2 443,-301.2 552,-301.2 552,-279.2 443,-279.2"/>
<text text-anchor="start" x="446" y="-286.9" font-family="Helvetica,sans-Serif" font-size="11.00" fill="#000000">int4[10]</text>
<polygon fill="none" stroke="#000000" points="288,-257.2 288,-279.2 443,-279.2 443,-257.2 288,-257.2"/>
<text text-anchor="start" x="308" y="-264.3" font-family="Helvetica,sans-Serif" font-size="11.00" fill="#000000">nome</text>
<polygon fill="none" stroke="#000000" points="443,-257.2 443,-279.2 552,-279.2 552,-257.2 443,-257.2"/>
<text text-anchor="start" x="446" y="-264.9" font-family="Helvetica,sans-Serif" font-size="11.00" fill="#000000">varchar[50]</text>
<polygon fill="none" stroke="#000000" points="288,-235.2 288,-257.2 443,-257.2 443,-235.2 288,-235.2"/>
<text text-anchor="start" x="308" y="-242.3" font-family="Helvetica,sans-Serif" font-size="11.00" fill="#000000">uf</text>
<polygon fill="none" stroke="#000000" points="443,-235.2 443,-257.2 552,-257.2 552,-235.2 443,-235.2"/>
<text text-anchor="start" x="446" y="-242.9" font-family="Helvetica,sans-Serif" font-size="11.00" fill="#000000">varchar[2]</text>
<polygon fill="none" stroke="#000000" points="288,-213.2 288,-235.2 443,-235.2 443,-213.2 288,-213.2"/>
<text text-anchor="start" x="308" y="-220.3" font-family="Helvetica,sans-Serif" font-size="11.00" fill="#000000">codigo_ibge</text>
<polygon fill="none" stroke="#000000" points="443,-213.2 443,-235.2 552,-235.2 552,-213.2 443,-213.2"/>
<text text-anchor="start" x="446" y="-220.9" font-family="Helvetica,sans-Serif" font-size="11.00" fill="#000000">varchar[7]</text>
<polygon fill="none" stroke="#000000" points="288,-191.2 288,-213.2 443,-213.2 443,-191.2 288,-191.2"/>
<text text-anchor="start" x="308" y="-198.3" font-family="Helvetica,sans-Serif" font-size="11.00" fill="#000000">codigo_siafi</text>
<polygon fill="none" stroke="#000000" points="443,-191.2 443,-213.2 552,-213.2 552,-191.2 443,-191.2"/>
<text text-anchor="start" x="445.5344" y="-198.9" font-family="Helvetica,sans-Serif" font-size="11.00" fill="#000000">varchar[2147483647]</text>
<polygon fill="none" stroke="#000000" points="288,-169.2 288,-191.2 443,-191.2 443,-169.2 288,-169.2"/>
<text text-anchor="start" x="308" y="-176.3" font-family="Helvetica,sans-Serif" font-size="11.00" fill="#000000">codigo_tribunal_justica</text>
<polygon fill="none" stroke="#000000" points="443,-169.2 443,-191.2 552,-191.2 552,-169.2 443,-169.2"/>
<text text-anchor="start" x="445.5344" y="-176.9" font-family="Helvetica,sans-Serif" font-size="11.00" fill="#000000">varchar[2147483647]</text>
<polygon fill="none" stroke="#000000" points="288,-147.2 288,-169.2 443,-169.2 443,-147.2 288,-147.2"/>
<image xlink:href="../../images/foreignKeys.png" width="11px" height="12px" preserveAspectRatio="xMinYMin meet" x="293" y="-164.2"/>
<text text-anchor="start" x="308" y="-154.3" font-family="Helvetica,sans-Serif" font-size="11.00" fill="#000000">estado_origem_id</text>
<polygon fill="none" stroke="#000000" points="443,-147.2 443,-169.2 552,-169.2 552,-147.2 443,-147.2"/>
<text text-anchor="start" x="446" y="-154.9" font-family="Helvetica,sans-Serif" font-size="11.00" fill="#000000">int4[10]</text>
<polygon fill="none" stroke="#000000" points="288,-125.2 288,-147.2 443,-147.2 443,-125.2 288,-125.2"/>
<image xlink:href="../../images/foreignKeys.png" width="11px" height="12px" preserveAspectRatio="xMinYMin meet" x="293" y="-142.2"/>
<text text-anchor="start" x="308" y="-132.3" font-family="Helvetica,sans-Serif" font-size="11.00" fill="#000000">estado_cloud_id</text>
<polygon fill="none" stroke="#000000" points="443,-125.2 443,-147.2 552,-147.2 552,-125.2 443,-125.2"/>
<text text-anchor="start" x="446" y="-132.9" font-family="Helvetica,sans-Serif" font-size="11.00" fill="#000000">int4[10]</text>
<polygon fill="none" stroke="#000000" points="288,-103.2 288,-125.2 443,-125.2 443,-103.2 288,-103.2"/>
<text text-anchor="start" x="308" y="-110.3" font-family="Helvetica,sans-Serif" font-size="11.00" fill="#000000">latitude</text>
<polygon fill="none" stroke="#000000" points="443,-103.2 443,-125.2 552,-125.2 552,-103.2 443,-103.2"/>
<text text-anchor="start" x="446" y="-110.9" font-family="Helvetica,sans-Serif" font-size="11.00" fill="#000000">float8[17,17]</text>
<polygon fill="none" stroke="#000000" points="288,-81.2 288,-103.2 443,-103.2 443,-81.2 288,-81.2"/>
<text text-anchor="start" x="308" y="-88.3" font-family="Helvetica,sans-Serif" font-size="11.00" fill="#000000">longitude</text>
<polygon fill="none" stroke="#000000" points="443,-81.2 443,-103.2 552,-103.2 552,-81.2 443,-81.2"/>
<text text-anchor="start" x="446" y="-88.9" font-family="Helvetica,sans-Serif" font-size="11.00" fill="#000000">float8[17,17]</text>
<polygon fill="none" stroke="#000000" points="288,-59.2 288,-81.2 443,-81.2 443,-59.2 288,-59.2"/>
<image xlink:href="../../images/foreignKeys.png" width="11px" height="12px" preserveAspectRatio="xMinYMin meet" x="293" y="-76.2"/>
<text text-anchor="start" x="308" y="-66.3" font-family="Helvetica,sans-Serif" font-size="11.00" fill="#000000">microregiao_id</text>
<polygon fill="none" stroke="#000000" points="443,-59.2 443,-81.2 552,-81.2 552,-59.2 443,-59.2"/>
<text text-anchor="start" x="446" y="-66.9" font-family="Helvetica,sans-Serif" font-size="11.00" fill="#000000">int4[10]</text>
<polygon fill="#ffffff" stroke="transparent" points="288,-40.2 288,-59.2 370,-59.2 370,-40.2 288,-40.2"/>
<polygon fill="none" stroke="#000000" points="288,-40.2 288,-59.2 370,-59.2 370,-40.2 288,-40.2"/>
<text text-anchor="start" x="291" y="-46.3" font-family="Helvetica,sans-Serif" font-size="11.00" fill="#000000">&lt; 3</text>
<polygon fill="#ffffff" stroke="transparent" points="370,-40.2 370,-59.2 443,-59.2 443,-40.2 370,-40.2"/>
<polygon fill="none" stroke="#000000" points="370,-40.2 370,-59.2 443,-59.2 443,-40.2 370,-40.2"/>
<text text-anchor="start" x="433.8862" y="-46.3" font-family="Helvetica,sans-Serif" font-size="11.00" fill="#000000"> &#160;</text>
<polygon fill="#ffffff" stroke="transparent" points="443,-40.2 443,-59.2 552,-59.2 552,-40.2 443,-40.2"/>
<polygon fill="none" stroke="#000000" points="443,-40.2 443,-59.2 552,-59.2 552,-40.2 443,-40.2"/>
<text text-anchor="start" x="533.4053" y="-46.3" font-family="Helvetica,sans-Serif" font-size="11.00" fill="#000000">0 &gt;</text>
<polygon fill="none" stroke="#000000" stroke-width="2" points="287,-39.2 287,-413.2 553,-413.2 553,-39.2 287,-39.2"/>
</a>
</g>
</g>
<!-- inscricao_lista_espera_situacoes -->
<g id="node2" class="node">
<title>inscricao_lista_espera_situacoes</title>
<g id="a_node2"><a xlink:href="../../tables/inscricao_lista_espera_situacoes.html" xlink:title="inscricao_lista_espera_situacoes" target="_top">
<polygon fill="#ffffff" stroke="transparent" points="8,-87.7 8,-170.7 237,-170.7 237,-87.7 8,-87.7"/>
<polygon fill="#f5f5f5" stroke="transparent" points="8.5,-147.2 8.5,-170.2 237.5,-170.2 237.5,-147.2 8.5,-147.2"/>
<polygon fill="none" stroke="#000000" points="8.5,-147.2 8.5,-170.2 237.5,-170.2 237.5,-147.2 8.5,-147.2"/>
<text text-anchor="start" x="13.5" y="-155.8" font-family="Helvetica,sans-Serif" font-weight="bold" font-size="11.00" fill="#000000">inscricao_lista_espera_situacoes</text>
<text text-anchor="start" x="203.0219" y="-155.3" font-family="Helvetica,sans-Serif" font-size="11.00" fill="#000000">[table]</text>
<polygon fill="none" stroke="#000000" points="8.5,-125.2 8.5,-147.2 237.5,-147.2 237.5,-125.2 8.5,-125.2"/>
<image xlink:href="../../images/primaryKeys.png" width="11px" height="12px" preserveAspectRatio="xMinYMin meet" x="13.5" y="-142.2"/>
<text text-anchor="start" x="37.5" y="-132.3" font-family="Helvetica,sans-Serif" font-size="11.00" fill="#000000">id</text>
<polygon fill="none" stroke="#000000" points="8.5,-106.2 8.5,-125.2 237.5,-125.2 237.5,-106.2 8.5,-106.2"/>
<text text-anchor="start" x="11.5" y="-112.3" font-family="Helvetica,sans-Serif" font-size="11.00" fill="#000000">...</text>
<polygon fill="#ffffff" stroke="transparent" points="8.5,-87.2 8.5,-106.2 106.5,-106.2 106.5,-87.2 8.5,-87.2"/>
<polygon fill="none" stroke="#000000" points="8.5,-87.2 8.5,-106.2 106.5,-106.2 106.5,-87.2 8.5,-87.2"/>
<text text-anchor="start" x="11.5" y="-93.3" font-family="Helvetica,sans-Serif" font-size="11.00" fill="#000000"> &#160;</text>
<polygon fill="#ffffff" stroke="transparent" points="106.5,-87.2 106.5,-106.2 161.5,-106.2 161.5,-87.2 106.5,-87.2"/>
<polygon fill="none" stroke="#000000" points="106.5,-87.2 106.5,-106.2 161.5,-106.2 161.5,-87.2 106.5,-87.2"/>
<text text-anchor="start" x="152.3862" y="-93.3" font-family="Helvetica,sans-Serif" font-size="11.00" fill="#000000"> &#160;</text>
<polygon fill="#ffffff" stroke="transparent" points="161.5,-87.2 161.5,-106.2 237.5,-106.2 237.5,-87.2 161.5,-87.2"/>
<polygon fill="none" stroke="#000000" points="161.5,-87.2 161.5,-106.2 237.5,-106.2 237.5,-87.2 161.5,-87.2"/>
<text text-anchor="start" x="206.6755" y="-93.3" font-family="Helvetica,sans-Serif" font-size="11.00" fill="#000000">596 &gt;</text>
</a>
</g>
</g>
<!-- municipios&#45;&gt;inscricao_lista_espera_situacoes -->
<g id="edge1" class="edge">
<title>municipios:w&#45;&gt;inscricao_lista_espera_situacoes:e</title>
<path fill="none" stroke="#000000" stroke-dasharray="5,2" d="M273.4203,-136.2C261.5435,-136.2 254.158,-136.2 237.5,-136.2"/>
<polygon fill="#000000" stroke="#000000" points="280,-136.2001 288,-139.8 284,-136.2 288,-136.2 288,-136.2 288,-136.2 284,-136.2 288,-132.6 280,-136.2001 280,-136.2001"/>
<ellipse fill="none" stroke="#000000" cx="276.8" cy="-136.2001" rx="3.2" ry="3.2"/>
</g>
<!-- municipios&#45;&gt;inscricao_lista_espera_situacoes -->
<g id="edge2" class="edge">
<title>municipios:w&#45;&gt;inscricao_lista_espera_situacoes:e</title>
<path fill="none" stroke="#000000" stroke-dasharray="5,2" d="M273.5981,-154.9538C261.4282,-148.8342 256.0526,-136.2 237.5,-136.2"/>
<polygon fill="#000000" stroke="#000000" points="280.1958,-156.4409 287.2084,-161.7119 284.0979,-157.3204 288,-158.2 288,-158.2 288,-158.2 284.0979,-157.3204 288.7916,-154.6881 280.1958,-156.4409 280.1958,-156.4409"/>
<ellipse fill="none" stroke="#000000" cx="277.0741" cy="-155.7373" rx="3.2" ry="3.2"/>
</g>
<!-- municipios&#45;&gt;inscricao_lista_espera_situacoes -->
<g id="edge3" class="edge">
<title>municipios:w&#45;&gt;inscricao_lista_espera_situacoes:e</title>
<path fill="none" stroke="#000000" stroke-dasharray="5,2" d="M274.158,-74.9466C257.1101,-90.0798 268.3754,-136.2 237.5,-136.2"/>
<polygon fill="#000000" stroke="#000000" points="280.4326,-72.795 289.1677,-73.6054 284.2163,-71.4975 288,-70.2 288,-70.2 288,-70.2 284.2163,-71.4975 286.8323,-66.7946 280.4326,-72.795 280.4326,-72.795"/>
<ellipse fill="none" stroke="#000000" cx="277.4056" cy="-73.833" rx="3.2" ry="3.2"/>
</g>
</g>
</svg>
