<?xml version="1.0" encoding="UTF-8" standalone="no"?>
<!DOCTYPE svg PUBLIC "-//W3C//DTD SVG 1.1//EN"
 "http://www.w3.org/Graphics/SVG/1.1/DTD/svg11.dtd">
<!-- Generated by graphviz version 2.40.1 (20161225.0304)
 -->
<!-- Title: oneDegreeRelationshipsDiagram Pages: 1 -->
<svg width="519pt" height="272pt"
 viewBox="0.00 0.00 519.00 272.20" xmlns="http://www.w3.org/2000/svg" xmlns:xlink="http://www.w3.org/1999/xlink">
<g id="graph0" class="graph" transform="scale(1 1) rotate(0) translate(4 268.2)">
<title>oneDegreeRelationshipsDiagram</title>
<polygon fill="#ffffff" stroke="transparent" points="-4,4 -4,-268.2 515,-268.2 515,4 -4,4"/>
<text text-anchor="middle" x="72.4936" y="-7.3" font-family="Helvetica,sans-Serif" font-size="11.00" fill="#000000">Generated by SchemaSpy</text>
<!-- niveis_lista_espera -->
<g id="node1" class="node">
<title>niveis_lista_espera</title>
<g id="a_node1"><a xlink:href="../../tables/niveis_lista_espera.html" xlink:title="niveis_lista_espera" target="_top">
<polygon fill="#ffffff" stroke="transparent" points="8,-38.2 8,-260.2 503,-260.2 503,-38.2 8,-38.2"/>
<polygon fill="#f5f5f5" stroke="transparent" points="10.5,-235.2 10.5,-258.2 501.5,-258.2 501.5,-235.2 10.5,-235.2"/>
<polygon fill="none" stroke="#000000" points="10.5,-235.2 10.5,-258.2 501.5,-258.2 501.5,-235.2 10.5,-235.2"/>
<text text-anchor="start" x="15.5" y="-243.8" font-family="Helvetica,sans-Serif" font-weight="bold" font-size="11.00" fill="#000000">niveis_lista_espera</text>
<text text-anchor="start" x="466.5437" y="-243.3" font-family="Helvetica,sans-Serif" font-size="11.00" fill="#000000">[table]</text>
<polygon fill="none" stroke="#000000" points="10.5,-213.2 10.5,-235.2 246.5,-235.2 246.5,-213.2 10.5,-213.2"/>
<text text-anchor="start" x="30.5" y="-220.3" font-family="Helvetica,sans-Serif" font-size="11.00" fill="#000000">sistema</text>
<polygon fill="none" stroke="#000000" points="246.5,-213.2 246.5,-235.2 501.5,-235.2 501.5,-213.2 246.5,-213.2"/>
<text text-anchor="start" x="249.5" y="-220.9" font-family="Helvetica,sans-Serif" font-size="11.00" fill="#000000">int4[10]</text>
<polygon fill="none" stroke="#000000" points="10.5,-191.2 10.5,-213.2 246.5,-213.2 246.5,-191.2 10.5,-191.2"/>
<text text-anchor="start" x="30.5" y="-198.3" font-family="Helvetica,sans-Serif" font-size="11.00" fill="#000000">tipo_registro</text>
<polygon fill="none" stroke="#000000" points="246.5,-191.2 246.5,-213.2 501.5,-213.2 501.5,-191.2 246.5,-191.2"/>
<text text-anchor="start" x="249.5" y="-198.9" font-family="Helvetica,sans-Serif" font-size="11.00" fill="#000000">text[2147483647]</text>
<polygon fill="none" stroke="#000000" points="10.5,-169.2 10.5,-191.2 246.5,-191.2 246.5,-169.2 10.5,-169.2"/>
<text text-anchor="start" x="30.5" y="-176.3" font-family="Helvetica,sans-Serif" font-size="11.00" fill="#000000">id_origem</text>
<polygon fill="none" stroke="#000000" points="246.5,-169.2 246.5,-191.2 501.5,-191.2 501.5,-169.2 246.5,-169.2"/>
<text text-anchor="start" x="249.5" y="-176.9" font-family="Helvetica,sans-Serif" font-size="11.00" fill="#000000">int4[10]</text>
<polygon fill="none" stroke="#000000" points="10.5,-147.2 10.5,-169.2 246.5,-169.2 246.5,-147.2 10.5,-147.2"/>
<text text-anchor="start" x="30.5" y="-154.3" font-family="Helvetica,sans-Serif" font-size="11.00" fill="#000000">id_cloud</text>
<polygon fill="none" stroke="#000000" points="246.5,-147.2 246.5,-169.2 501.5,-169.2 501.5,-147.2 246.5,-147.2"/>
<text text-anchor="start" x="249.5" y="-154.9" font-family="Helvetica,sans-Serif" font-size="11.00" fill="#000000">varchar[2147483647]</text>
<polygon fill="none" stroke="#000000" points="10.5,-125.2 10.5,-147.2 246.5,-147.2 246.5,-125.2 10.5,-125.2"/>
<text text-anchor="start" x="30.5" y="-132.3" font-family="Helvetica,sans-Serif" font-size="11.00" fill="#000000">nivel_escolar</text>
<polygon fill="none" stroke="#000000" points="246.5,-125.2 246.5,-147.2 501.5,-147.2 501.5,-125.2 246.5,-125.2"/>
<text text-anchor="start" x="249.5" y="-132.9" font-family="Helvetica,sans-Serif" font-size="11.00" fill="#000000">&quot;educacao&quot;.&quot;niveisescolares&quot;[2147483647]</text>
<polygon fill="none" stroke="#000000" points="10.5,-103.2 10.5,-125.2 246.5,-125.2 246.5,-103.2 10.5,-103.2"/>
<text text-anchor="start" x="30.5" y="-110.3" font-family="Helvetica,sans-Serif" font-size="11.00" fill="#000000">modalidade</text>
<polygon fill="none" stroke="#000000" points="246.5,-103.2 246.5,-125.2 501.5,-125.2 501.5,-103.2 246.5,-103.2"/>
<text text-anchor="start" x="249.4261" y="-110.9" font-family="Helvetica,sans-Serif" font-size="11.00" fill="#000000">&quot;educacao&quot;.&quot;modalidadeslistaespera&quot;[2147483647]</text>
<polygon fill="none" stroke="#000000" points="10.5,-81.2 10.5,-103.2 246.5,-103.2 246.5,-81.2 10.5,-81.2"/>
<image xlink:href="../../images/foreignKeys.png" width="11px" height="12px" preserveAspectRatio="xMinYMin meet" x="15.5" y="-98.2"/>
<text text-anchor="start" x="30.5" y="-88.3" font-family="Helvetica,sans-Serif" font-size="11.00" fill="#000000">configuracao_lista_espera_origem_id</text>
<polygon fill="none" stroke="#000000" points="246.5,-81.2 246.5,-103.2 501.5,-103.2 501.5,-81.2 246.5,-81.2"/>
<text text-anchor="start" x="249.5" y="-88.9" font-family="Helvetica,sans-Serif" font-size="11.00" fill="#000000">int4[10]</text>
<polygon fill="none" stroke="#000000" points="10.5,-59.2 10.5,-81.2 246.5,-81.2 246.5,-59.2 10.5,-59.2"/>
<text text-anchor="start" x="30.5" y="-66.3" font-family="Helvetica,sans-Serif" font-size="11.00" fill="#000000">configuracao_lista_espera_cloud_id</text>
<polygon fill="none" stroke="#000000" points="246.5,-59.2 246.5,-81.2 501.5,-81.2 501.5,-59.2 246.5,-59.2"/>
<text text-anchor="start" x="249.5" y="-66.9" font-family="Helvetica,sans-Serif" font-size="11.00" fill="#000000">varchar[2147483647]</text>
<polygon fill="#ffffff" stroke="transparent" points="10.5,-40.2 10.5,-59.2 132.5,-59.2 132.5,-40.2 10.5,-40.2"/>
<polygon fill="none" stroke="#000000" points="10.5,-40.2 10.5,-59.2 132.5,-59.2 132.5,-40.2 10.5,-40.2"/>
<text text-anchor="start" x="13.5" y="-46.3" font-family="Helvetica,sans-Serif" font-size="11.00" fill="#000000">&lt; 0</text>
<polygon fill="#ffffff" stroke="transparent" points="132.5,-40.2 132.5,-59.2 246.5,-59.2 246.5,-40.2 132.5,-40.2"/>
<polygon fill="none" stroke="#000000" points="132.5,-40.2 132.5,-59.2 246.5,-59.2 246.5,-40.2 132.5,-40.2"/>
<text text-anchor="start" x="237.3862" y="-46.3" font-family="Helvetica,sans-Serif" font-size="11.00" fill="#000000"> &#160;</text>
<polygon fill="#ffffff" stroke="transparent" points="246.5,-40.2 246.5,-59.2 501.5,-59.2 501.5,-40.2 246.5,-40.2"/>
<polygon fill="none" stroke="#000000" points="246.5,-40.2 246.5,-59.2 501.5,-59.2 501.5,-40.2 246.5,-40.2"/>
<text text-anchor="start" x="482.9053" y="-46.3" font-family="Helvetica,sans-Serif" font-size="11.00" fill="#000000">0 &gt;</text>
<polygon fill="none" stroke="#000000" stroke-width="2" points="9,-39.2 9,-259.2 502,-259.2 502,-39.2 9,-39.2"/>
</a>
</g>
</g>
</g>
</svg>
