<?xml version="1.0" encoding="UTF-8" standalone="no"?>
<!DOCTYPE svg PUBLIC "-//W3C//DTD SVG 1.1//EN"
 "http://www.w3.org/Graphics/SVG/1.1/DTD/svg11.dtd">
<!-- Generated by graphviz version 2.40.1 (20161225.0304)
 -->
<!-- Title: oneDegreeRelationshipsDiagramImplied Pages: 1 -->
<svg width="605pt" height="316pt"
 viewBox="0.00 0.00 605.00 316.20" xmlns="http://www.w3.org/2000/svg" xmlns:xlink="http://www.w3.org/1999/xlink">
<g id="graph0" class="graph" transform="scale(1 1) rotate(0) translate(4 312.2)">
<title>oneDegreeRelationshipsDiagramImplied</title>
<polygon fill="#ffffff" stroke="transparent" points="-4,4 -4,-312.2 601,-312.2 601,4 -4,4"/>
<text text-anchor="middle" x="72.4936" y="-7.3" font-family="Helvetica,sans-Serif" font-size="11.00" fill="#000000">Generated by SchemaSpy</text>
<!-- notas_maximas -->
<g id="node1" class="node">
<title>notas_maximas</title>
<g id="a_node1"><a xlink:href="../../tables/notas_maximas.html" xlink:title="notas_maximas" target="_top">
<polygon fill="#ffffff" stroke="transparent" points="286,-38.2 286,-304.2 589,-304.2 589,-38.2 286,-38.2"/>
<polygon fill="#f5f5f5" stroke="transparent" points="288.5,-279.2 288.5,-302.2 587.5,-302.2 587.5,-279.2 288.5,-279.2"/>
<polygon fill="none" stroke="#000000" points="288.5,-279.2 288.5,-302.2 587.5,-302.2 587.5,-279.2 288.5,-279.2"/>
<text text-anchor="start" x="293.5" y="-287.8" font-family="Helvetica,sans-Serif" font-weight="bold" font-size="11.00" fill="#000000">notas_maximas</text>
<text text-anchor="start" x="552.5437" y="-287.3" font-family="Helvetica,sans-Serif" font-size="11.00" fill="#000000">[table]</text>
<polygon fill="none" stroke="#000000" points="288.5,-257.2 288.5,-279.2 478.5,-279.2 478.5,-257.2 288.5,-257.2"/>
<text text-anchor="start" x="308.5" y="-264.3" font-family="Helvetica,sans-Serif" font-size="11.00" fill="#000000">sistema</text>
<polygon fill="none" stroke="#000000" points="478.5,-257.2 478.5,-279.2 587.5,-279.2 587.5,-257.2 478.5,-257.2"/>
<text text-anchor="start" x="481.5" y="-264.9" font-family="Helvetica,sans-Serif" font-size="11.00" fill="#000000">int4[10]</text>
<polygon fill="none" stroke="#000000" points="288.5,-235.2 288.5,-257.2 478.5,-257.2 478.5,-235.2 288.5,-235.2"/>
<text text-anchor="start" x="308.5" y="-242.3" font-family="Helvetica,sans-Serif" font-size="11.00" fill="#000000">tipo_registro</text>
<polygon fill="none" stroke="#000000" points="478.5,-235.2 478.5,-257.2 587.5,-257.2 587.5,-235.2 478.5,-235.2"/>
<text text-anchor="start" x="481.5" y="-242.9" font-family="Helvetica,sans-Serif" font-size="11.00" fill="#000000">text[2147483647]</text>
<polygon fill="none" stroke="#000000" points="288.5,-213.2 288.5,-235.2 478.5,-235.2 478.5,-213.2 288.5,-213.2"/>
<text text-anchor="start" x="308.5" y="-220.3" font-family="Helvetica,sans-Serif" font-size="11.00" fill="#000000">id_integracao</text>
<polygon fill="none" stroke="#000000" points="478.5,-213.2 478.5,-235.2 587.5,-235.2 587.5,-213.2 478.5,-213.2"/>
<text text-anchor="start" x="481.0344" y="-220.9" font-family="Helvetica,sans-Serif" font-size="11.00" fill="#000000">varchar[2147483647]</text>
<polygon fill="none" stroke="#000000" points="288.5,-191.2 288.5,-213.2 478.5,-213.2 478.5,-191.2 288.5,-191.2"/>
<text text-anchor="start" x="308.5" y="-198.3" font-family="Helvetica,sans-Serif" font-size="11.00" fill="#000000">id_origem</text>
<polygon fill="none" stroke="#000000" points="478.5,-191.2 478.5,-213.2 587.5,-213.2 587.5,-191.2 478.5,-191.2"/>
<text text-anchor="start" x="481.5" y="-198.9" font-family="Helvetica,sans-Serif" font-size="11.00" fill="#000000">int4[10]</text>
<polygon fill="none" stroke="#000000" points="288.5,-169.2 288.5,-191.2 478.5,-191.2 478.5,-169.2 288.5,-169.2"/>
<text text-anchor="start" x="308.5" y="-176.3" font-family="Helvetica,sans-Serif" font-size="11.00" fill="#000000">id_cloud</text>
<polygon fill="none" stroke="#000000" points="478.5,-169.2 478.5,-191.2 587.5,-191.2 587.5,-169.2 478.5,-169.2"/>
<text text-anchor="start" x="481.5" y="-176.9" font-family="Helvetica,sans-Serif" font-size="11.00" fill="#000000">int4[10]</text>
<polygon fill="none" stroke="#000000" points="288.5,-147.2 288.5,-169.2 478.5,-169.2 478.5,-147.2 288.5,-147.2"/>
<image xlink:href="../../images/foreignKeys.png" width="11px" height="12px" preserveAspectRatio="xMinYMin meet" x="293.5" y="-164.2"/>
<text text-anchor="start" x="308.5" y="-154.3" font-family="Helvetica,sans-Serif" font-size="11.00" fill="#000000">turma_origem_id</text>
<polygon fill="none" stroke="#000000" points="478.5,-147.2 478.5,-169.2 587.5,-169.2 587.5,-147.2 478.5,-147.2"/>
<text text-anchor="start" x="481.5" y="-154.9" font-family="Helvetica,sans-Serif" font-size="11.00" fill="#000000">int4[10]</text>
<polygon fill="none" stroke="#000000" points="288.5,-125.2 288.5,-147.2 478.5,-147.2 478.5,-125.2 288.5,-125.2"/>
<image xlink:href="../../images/foreignKeys.png" width="11px" height="12px" preserveAspectRatio="xMinYMin meet" x="293.5" y="-142.2"/>
<text text-anchor="start" x="308.5" y="-132.3" font-family="Helvetica,sans-Serif" font-size="11.00" fill="#000000">turma_cloud_id</text>
<polygon fill="none" stroke="#000000" points="478.5,-125.2 478.5,-147.2 587.5,-147.2 587.5,-125.2 478.5,-125.2"/>
<text text-anchor="start" x="481.5" y="-132.9" font-family="Helvetica,sans-Serif" font-size="11.00" fill="#000000">int4[10]</text>
<polygon fill="none" stroke="#000000" points="288.5,-103.2 288.5,-125.2 478.5,-125.2 478.5,-103.2 288.5,-103.2"/>
<text text-anchor="start" x="308.5" y="-110.3" font-family="Helvetica,sans-Serif" font-size="11.00" fill="#000000">nota_maxima</text>
<polygon fill="none" stroke="#000000" points="478.5,-103.2 478.5,-125.2 587.5,-125.2 587.5,-103.2 478.5,-103.2"/>
<text text-anchor="start" x="481.5" y="-110.9" font-family="Helvetica,sans-Serif" font-size="11.00" fill="#000000">int4[10]</text>
<polygon fill="none" stroke="#000000" points="288.5,-81.2 288.5,-103.2 478.5,-103.2 478.5,-81.2 288.5,-81.2"/>
<image xlink:href="../../images/foreignKeys.png" width="11px" height="12px" preserveAspectRatio="xMinYMin meet" x="293.5" y="-98.2"/>
<text text-anchor="start" x="308.5" y="-88.3" font-family="Helvetica,sans-Serif" font-size="11.00" fill="#000000">periodo_avaliativo_origem_id</text>
<polygon fill="none" stroke="#000000" points="478.5,-81.2 478.5,-103.2 587.5,-103.2 587.5,-81.2 478.5,-81.2"/>
<text text-anchor="start" x="481.5" y="-88.9" font-family="Helvetica,sans-Serif" font-size="11.00" fill="#000000">int4[10]</text>
<polygon fill="none" stroke="#000000" points="288.5,-59.2 288.5,-81.2 478.5,-81.2 478.5,-59.2 288.5,-59.2"/>
<image xlink:href="../../images/foreignKeys.png" width="11px" height="12px" preserveAspectRatio="xMinYMin meet" x="293.5" y="-76.2"/>
<text text-anchor="start" x="308.5" y="-66.3" font-family="Helvetica,sans-Serif" font-size="11.00" fill="#000000">periodo_avaliativo_cloud_id</text>
<polygon fill="none" stroke="#000000" points="478.5,-59.2 478.5,-81.2 587.5,-81.2 587.5,-59.2 478.5,-59.2"/>
<text text-anchor="start" x="481.5" y="-66.9" font-family="Helvetica,sans-Serif" font-size="11.00" fill="#000000">int4[10]</text>
<polygon fill="#ffffff" stroke="transparent" points="288.5,-40.2 288.5,-59.2 387.5,-59.2 387.5,-40.2 288.5,-40.2"/>
<polygon fill="none" stroke="#000000" points="288.5,-40.2 288.5,-59.2 387.5,-59.2 387.5,-40.2 288.5,-40.2"/>
<text text-anchor="start" x="291.5" y="-46.3" font-family="Helvetica,sans-Serif" font-size="11.00" fill="#000000">&lt; 4</text>
<polygon fill="#ffffff" stroke="transparent" points="387.5,-40.2 387.5,-59.2 478.5,-59.2 478.5,-40.2 387.5,-40.2"/>
<polygon fill="none" stroke="#000000" points="387.5,-40.2 387.5,-59.2 478.5,-59.2 478.5,-40.2 387.5,-40.2"/>
<text text-anchor="start" x="469.3862" y="-46.3" font-family="Helvetica,sans-Serif" font-size="11.00" fill="#000000"> &#160;</text>
<polygon fill="#ffffff" stroke="transparent" points="478.5,-40.2 478.5,-59.2 587.5,-59.2 587.5,-40.2 478.5,-40.2"/>
<polygon fill="none" stroke="#000000" points="478.5,-40.2 478.5,-59.2 587.5,-59.2 587.5,-40.2 478.5,-40.2"/>
<text text-anchor="start" x="568.9053" y="-46.3" font-family="Helvetica,sans-Serif" font-size="11.00" fill="#000000">0 &gt;</text>
<polygon fill="none" stroke="#000000" stroke-width="2" points="287,-39.2 287,-303.2 588,-303.2 588,-39.2 287,-39.2"/>
</a>
</g>
</g>
<!-- inscricao_lista_espera_situacoes -->
<g id="node2" class="node">
<title>inscricao_lista_espera_situacoes</title>
<g id="a_node2"><a xlink:href="../../tables/inscricao_lista_espera_situacoes.html" xlink:title="inscricao_lista_espera_situacoes" target="_top">
<polygon fill="#ffffff" stroke="transparent" points="8,-65.7 8,-148.7 237,-148.7 237,-65.7 8,-65.7"/>
<polygon fill="#f5f5f5" stroke="transparent" points="8.5,-125.2 8.5,-148.2 237.5,-148.2 237.5,-125.2 8.5,-125.2"/>
<polygon fill="none" stroke="#000000" points="8.5,-125.2 8.5,-148.2 237.5,-148.2 237.5,-125.2 8.5,-125.2"/>
<text text-anchor="start" x="13.5" y="-133.8" font-family="Helvetica,sans-Serif" font-weight="bold" font-size="11.00" fill="#000000">inscricao_lista_espera_situacoes</text>
<text text-anchor="start" x="203.0219" y="-133.3" font-family="Helvetica,sans-Serif" font-size="11.00" fill="#000000">[table]</text>
<polygon fill="none" stroke="#000000" points="8.5,-103.2 8.5,-125.2 237.5,-125.2 237.5,-103.2 8.5,-103.2"/>
<image xlink:href="../../images/primaryKeys.png" width="11px" height="12px" preserveAspectRatio="xMinYMin meet" x="13.5" y="-120.2"/>
<text text-anchor="start" x="37.5" y="-110.3" font-family="Helvetica,sans-Serif" font-size="11.00" fill="#000000">id</text>
<polygon fill="none" stroke="#000000" points="8.5,-84.2 8.5,-103.2 237.5,-103.2 237.5,-84.2 8.5,-84.2"/>
<text text-anchor="start" x="11.5" y="-90.3" font-family="Helvetica,sans-Serif" font-size="11.00" fill="#000000">...</text>
<polygon fill="#ffffff" stroke="transparent" points="8.5,-65.2 8.5,-84.2 106.5,-84.2 106.5,-65.2 8.5,-65.2"/>
<polygon fill="none" stroke="#000000" points="8.5,-65.2 8.5,-84.2 106.5,-84.2 106.5,-65.2 8.5,-65.2"/>
<text text-anchor="start" x="11.5" y="-71.3" font-family="Helvetica,sans-Serif" font-size="11.00" fill="#000000"> &#160;</text>
<polygon fill="#ffffff" stroke="transparent" points="106.5,-65.2 106.5,-84.2 161.5,-84.2 161.5,-65.2 106.5,-65.2"/>
<polygon fill="none" stroke="#000000" points="106.5,-65.2 106.5,-84.2 161.5,-84.2 161.5,-65.2 106.5,-65.2"/>
<text text-anchor="start" x="152.3862" y="-71.3" font-family="Helvetica,sans-Serif" font-size="11.00" fill="#000000"> &#160;</text>
<polygon fill="#ffffff" stroke="transparent" points="161.5,-65.2 161.5,-84.2 237.5,-84.2 237.5,-65.2 161.5,-65.2"/>
<polygon fill="none" stroke="#000000" points="161.5,-65.2 161.5,-84.2 237.5,-84.2 237.5,-65.2 161.5,-65.2"/>
<text text-anchor="start" x="206.6755" y="-71.3" font-family="Helvetica,sans-Serif" font-size="11.00" fill="#000000">596 &gt;</text>
</a>
</g>
</g>
<!-- notas_maximas&#45;&gt;inscricao_lista_espera_situacoes -->
<g id="edge1" class="edge">
<title>notas_maximas:w&#45;&gt;inscricao_lista_espera_situacoes:e</title>
<path fill="none" stroke="#000000" stroke-dasharray="5,2" d="M274.4107,-74.9088C260.5669,-86.2596 261.3557,-114.2 237.5,-114.2"/>
<polygon fill="#000000" stroke="#000000" points="280.9125,-72.7358 289.6411,-73.6144 284.7063,-71.4679 288.5,-70.2 288.5,-70.2 288.5,-70.2 284.7063,-71.4679 287.3589,-66.7856 280.9125,-72.7358 280.9125,-72.7358"/>
<ellipse fill="none" stroke="#000000" cx="277.8775" cy="-73.7502" rx="3.2" ry="3.2"/>
</g>
<!-- notas_maximas&#45;&gt;inscricao_lista_espera_situacoes -->
<g id="edge2" class="edge">
<title>notas_maximas:w&#45;&gt;inscricao_lista_espera_situacoes:e</title>
<path fill="none" stroke="#000000" stroke-dasharray="5,2" d="M274.3489,-95.259C261.7843,-101.304 256.4,-114.2 237.5,-114.2"/>
<polygon fill="#000000" stroke="#000000" points="280.6806,-93.8903 289.2607,-95.7187 284.5903,-93.0452 288.5,-92.2 288.5,-92.2 288.5,-92.2 284.5903,-93.0452 287.7393,-88.6813 280.6806,-93.8903 280.6806,-93.8903"/>
<ellipse fill="none" stroke="#000000" cx="277.5528" cy="-94.5665" rx="3.2" ry="3.2"/>
</g>
<!-- notas_maximas&#45;&gt;inscricao_lista_espera_situacoes -->
<g id="edge3" class="edge">
<title>notas_maximas:w&#45;&gt;inscricao_lista_espera_situacoes:e</title>
<path fill="none" stroke="#000000" stroke-dasharray="5,2" d="M274.3489,-133.141C261.7843,-127.096 256.4,-114.2 237.5,-114.2"/>
<polygon fill="#000000" stroke="#000000" points="280.6806,-134.5097 287.7393,-139.7187 284.5903,-135.3548 288.5,-136.2 288.5,-136.2 288.5,-136.2 284.5903,-135.3548 289.2607,-132.6813 280.6806,-134.5097 280.6806,-134.5097"/>
<ellipse fill="none" stroke="#000000" cx="277.5528" cy="-133.8335" rx="3.2" ry="3.2"/>
</g>
<!-- notas_maximas&#45;&gt;inscricao_lista_espera_situacoes -->
<g id="edge4" class="edge">
<title>notas_maximas:w&#45;&gt;inscricao_lista_espera_situacoes:e</title>
<path fill="none" stroke="#000000" stroke-dasharray="5,2" d="M274.4107,-153.4912C260.5669,-142.1404 261.3557,-114.2 237.5,-114.2"/>
<polygon fill="#000000" stroke="#000000" points="280.9125,-155.6642 287.3589,-161.6144 284.7063,-156.9321 288.5,-158.2 288.5,-158.2 288.5,-158.2 284.7063,-156.9321 289.6411,-154.7856 280.9125,-155.6642 280.9125,-155.6642"/>
<ellipse fill="none" stroke="#000000" cx="277.8775" cy="-154.6498" rx="3.2" ry="3.2"/>
</g>
</g>
</svg>
