<?xml version="1.0" encoding="UTF-8" standalone="no"?>
<!DOCTYPE svg PUBLIC "-//W3C//DTD SVG 1.1//EN"
 "http://www.w3.org/Graphics/SVG/1.1/DTD/svg11.dtd">
<!-- Generated by graphviz version 2.40.1 (20161225.0304)
 -->
<!-- Title: oneDegreeRelationshipsDiagramImplied Pages: 1 -->
<svg width="568pt" height="382pt"
 viewBox="0.00 0.00 568.00 382.20" xmlns="http://www.w3.org/2000/svg" xmlns:xlink="http://www.w3.org/1999/xlink">
<g id="graph0" class="graph" transform="scale(1 1) rotate(0) translate(4 378.2)">
<title>oneDegreeRelationshipsDiagramImplied</title>
<polygon fill="#ffffff" stroke="transparent" points="-4,4 -4,-378.2 564,-378.2 564,4 -4,4"/>
<text text-anchor="middle" x="72.4936" y="-7.3" font-family="Helvetica,sans-Serif" font-size="11.00" fill="#000000">Generated by SchemaSpy</text>
<!-- obitos -->
<g id="node1" class="node">
<title>obitos</title>
<g id="a_node1"><a xlink:href="../../tables/obitos.html" xlink:title="obitos" target="_top">
<polygon fill="#ffffff" stroke="transparent" points="286,-38.2 286,-370.2 552,-370.2 552,-38.2 286,-38.2"/>
<polygon fill="#f5f5f5" stroke="transparent" points="288,-345.2 288,-368.2 550,-368.2 550,-345.2 288,-345.2"/>
<polygon fill="none" stroke="#000000" points="288,-345.2 288,-368.2 550,-368.2 550,-345.2 288,-345.2"/>
<text text-anchor="start" x="293" y="-353.8" font-family="Helvetica,sans-Serif" font-weight="bold" font-size="11.00" fill="#000000">obitos</text>
<text text-anchor="start" x="515.0437" y="-353.3" font-family="Helvetica,sans-Serif" font-size="11.00" fill="#000000">[table]</text>
<polygon fill="none" stroke="#000000" points="288,-323.2 288,-345.2 441,-345.2 441,-323.2 288,-323.2"/>
<text text-anchor="start" x="308" y="-330.3" font-family="Helvetica,sans-Serif" font-size="11.00" fill="#000000">sistema</text>
<polygon fill="none" stroke="#000000" points="441,-323.2 441,-345.2 550,-345.2 550,-323.2 441,-323.2"/>
<text text-anchor="start" x="444" y="-330.9" font-family="Helvetica,sans-Serif" font-size="11.00" fill="#000000">int4[10]</text>
<polygon fill="none" stroke="#000000" points="288,-301.2 288,-323.2 441,-323.2 441,-301.2 288,-301.2"/>
<text text-anchor="start" x="308" y="-308.3" font-family="Helvetica,sans-Serif" font-size="11.00" fill="#000000">tipo_registro</text>
<polygon fill="none" stroke="#000000" points="441,-301.2 441,-323.2 550,-323.2 550,-301.2 441,-301.2"/>
<text text-anchor="start" x="444" y="-308.9" font-family="Helvetica,sans-Serif" font-size="11.00" fill="#000000">text[2147483647]</text>
<polygon fill="none" stroke="#000000" points="288,-279.2 288,-301.2 441,-301.2 441,-279.2 288,-279.2"/>
<text text-anchor="start" x="308" y="-286.3" font-family="Helvetica,sans-Serif" font-size="11.00" fill="#000000">id_integracao</text>
<polygon fill="none" stroke="#000000" points="441,-279.2 441,-301.2 550,-301.2 550,-279.2 441,-279.2"/>
<text text-anchor="start" x="443.5344" y="-286.9" font-family="Helvetica,sans-Serif" font-size="11.00" fill="#000000">varchar[2147483647]</text>
<polygon fill="none" stroke="#000000" points="288,-257.2 288,-279.2 441,-279.2 441,-257.2 288,-257.2"/>
<text text-anchor="start" x="308" y="-264.3" font-family="Helvetica,sans-Serif" font-size="11.00" fill="#000000">id_origem</text>
<polygon fill="none" stroke="#000000" points="441,-257.2 441,-279.2 550,-279.2 550,-257.2 441,-257.2"/>
<text text-anchor="start" x="444" y="-264.9" font-family="Helvetica,sans-Serif" font-size="11.00" fill="#000000">int4[10]</text>
<polygon fill="none" stroke="#000000" points="288,-235.2 288,-257.2 441,-257.2 441,-235.2 288,-235.2"/>
<text text-anchor="start" x="308" y="-242.3" font-family="Helvetica,sans-Serif" font-size="11.00" fill="#000000">id_cloud</text>
<polygon fill="none" stroke="#000000" points="441,-235.2 441,-257.2 550,-257.2 550,-235.2 441,-235.2"/>
<text text-anchor="start" x="444" y="-242.9" font-family="Helvetica,sans-Serif" font-size="11.00" fill="#000000">int4[10]</text>
<polygon fill="none" stroke="#000000" points="288,-213.2 288,-235.2 441,-235.2 441,-213.2 288,-213.2"/>
<image xlink:href="../../images/foreignKeys.png" width="11px" height="12px" preserveAspectRatio="xMinYMin meet" x="293" y="-230.2"/>
<text text-anchor="start" x="308" y="-220.3" font-family="Helvetica,sans-Serif" font-size="11.00" fill="#000000">pessoa_origem_id</text>
<polygon fill="none" stroke="#000000" points="441,-213.2 441,-235.2 550,-235.2 550,-213.2 441,-213.2"/>
<text text-anchor="start" x="444" y="-220.9" font-family="Helvetica,sans-Serif" font-size="11.00" fill="#000000">int4[10]</text>
<polygon fill="none" stroke="#000000" points="288,-191.2 288,-213.2 441,-213.2 441,-191.2 288,-191.2"/>
<image xlink:href="../../images/foreignKeys.png" width="11px" height="12px" preserveAspectRatio="xMinYMin meet" x="293" y="-208.2"/>
<text text-anchor="start" x="308" y="-198.3" font-family="Helvetica,sans-Serif" font-size="11.00" fill="#000000">pessoa_cloud_id</text>
<polygon fill="none" stroke="#000000" points="441,-191.2 441,-213.2 550,-213.2 550,-191.2 441,-191.2"/>
<text text-anchor="start" x="444" y="-198.9" font-family="Helvetica,sans-Serif" font-size="11.00" fill="#000000">int4[10]</text>
<polygon fill="none" stroke="#000000" points="288,-169.2 288,-191.2 441,-191.2 441,-169.2 288,-169.2"/>
<text text-anchor="start" x="308" y="-176.3" font-family="Helvetica,sans-Serif" font-size="11.00" fill="#000000">data_obito</text>
<polygon fill="none" stroke="#000000" points="441,-169.2 441,-191.2 550,-191.2 550,-169.2 441,-169.2"/>
<text text-anchor="start" x="444" y="-176.9" font-family="Helvetica,sans-Serif" font-size="11.00" fill="#000000">date[13]</text>
<polygon fill="none" stroke="#000000" points="288,-147.2 288,-169.2 441,-169.2 441,-147.2 288,-147.2"/>
<text text-anchor="start" x="308" y="-154.3" font-family="Helvetica,sans-Serif" font-size="11.00" fill="#000000">livro</text>
<polygon fill="none" stroke="#000000" points="441,-147.2 441,-169.2 550,-169.2 550,-147.2 441,-147.2"/>
<text text-anchor="start" x="444" y="-154.9" font-family="Helvetica,sans-Serif" font-size="11.00" fill="#000000">varchar[15]</text>
<polygon fill="none" stroke="#000000" points="288,-125.2 288,-147.2 441,-147.2 441,-125.2 288,-125.2"/>
<text text-anchor="start" x="308" y="-132.3" font-family="Helvetica,sans-Serif" font-size="11.00" fill="#000000">pagina</text>
<polygon fill="none" stroke="#000000" points="441,-125.2 441,-147.2 550,-147.2 550,-125.2 441,-125.2"/>
<text text-anchor="start" x="444" y="-132.9" font-family="Helvetica,sans-Serif" font-size="11.00" fill="#000000">varchar[5]</text>
<polygon fill="none" stroke="#000000" points="288,-103.2 288,-125.2 441,-125.2 441,-103.2 288,-103.2"/>
<text text-anchor="start" x="308" y="-110.3" font-family="Helvetica,sans-Serif" font-size="11.00" fill="#000000">certidao</text>
<polygon fill="none" stroke="#000000" points="441,-103.2 441,-125.2 550,-125.2 550,-103.2 441,-103.2"/>
<text text-anchor="start" x="444" y="-110.9" font-family="Helvetica,sans-Serif" font-size="11.00" fill="#000000">varchar[32]</text>
<polygon fill="none" stroke="#000000" points="288,-81.2 288,-103.2 441,-103.2 441,-81.2 288,-81.2"/>
<text text-anchor="start" x="308" y="-88.3" font-family="Helvetica,sans-Serif" font-size="11.00" fill="#000000">causa_mortis</text>
<polygon fill="none" stroke="#000000" points="441,-81.2 441,-103.2 550,-103.2 550,-81.2 441,-81.2"/>
<text text-anchor="start" x="444" y="-88.9" font-family="Helvetica,sans-Serif" font-size="11.00" fill="#000000">varchar[255]</text>
<polygon fill="none" stroke="#000000" points="288,-59.2 288,-81.2 441,-81.2 441,-59.2 288,-59.2"/>
<text text-anchor="start" x="308" y="-66.3" font-family="Helvetica,sans-Serif" font-size="11.00" fill="#000000">data_emissao_certidao</text>
<polygon fill="none" stroke="#000000" points="441,-59.2 441,-81.2 550,-81.2 550,-59.2 441,-59.2"/>
<text text-anchor="start" x="444" y="-66.9" font-family="Helvetica,sans-Serif" font-size="11.00" fill="#000000">date[13]</text>
<polygon fill="#ffffff" stroke="transparent" points="288,-40.2 288,-59.2 369,-59.2 369,-40.2 288,-40.2"/>
<polygon fill="none" stroke="#000000" points="288,-40.2 288,-59.2 369,-59.2 369,-40.2 288,-40.2"/>
<text text-anchor="start" x="291" y="-46.3" font-family="Helvetica,sans-Serif" font-size="11.00" fill="#000000">&lt; 2</text>
<polygon fill="#ffffff" stroke="transparent" points="369,-40.2 369,-59.2 441,-59.2 441,-40.2 369,-40.2"/>
<polygon fill="none" stroke="#000000" points="369,-40.2 369,-59.2 441,-59.2 441,-40.2 369,-40.2"/>
<text text-anchor="start" x="431.8862" y="-46.3" font-family="Helvetica,sans-Serif" font-size="11.00" fill="#000000"> &#160;</text>
<polygon fill="#ffffff" stroke="transparent" points="441,-40.2 441,-59.2 550,-59.2 550,-40.2 441,-40.2"/>
<polygon fill="none" stroke="#000000" points="441,-40.2 441,-59.2 550,-59.2 550,-40.2 441,-40.2"/>
<text text-anchor="start" x="531.4053" y="-46.3" font-family="Helvetica,sans-Serif" font-size="11.00" fill="#000000">0 &gt;</text>
<polygon fill="none" stroke="#000000" stroke-width="2" points="287,-39.2 287,-369.2 551,-369.2 551,-39.2 287,-39.2"/>
</a>
</g>
</g>
<!-- inscricao_lista_espera_situacoes -->
<g id="node2" class="node">
<title>inscricao_lista_espera_situacoes</title>
<g id="a_node2"><a xlink:href="../../tables/inscricao_lista_espera_situacoes.html" xlink:title="inscricao_lista_espera_situacoes" target="_top">
<polygon fill="#ffffff" stroke="transparent" points="8,-164.7 8,-247.7 237,-247.7 237,-164.7 8,-164.7"/>
<polygon fill="#f5f5f5" stroke="transparent" points="8.5,-224.2 8.5,-247.2 237.5,-247.2 237.5,-224.2 8.5,-224.2"/>
<polygon fill="none" stroke="#000000" points="8.5,-224.2 8.5,-247.2 237.5,-247.2 237.5,-224.2 8.5,-224.2"/>
<text text-anchor="start" x="13.5" y="-232.8" font-family="Helvetica,sans-Serif" font-weight="bold" font-size="11.00" fill="#000000">inscricao_lista_espera_situacoes</text>
<text text-anchor="start" x="203.0219" y="-232.3" font-family="Helvetica,sans-Serif" font-size="11.00" fill="#000000">[table]</text>
<polygon fill="none" stroke="#000000" points="8.5,-202.2 8.5,-224.2 237.5,-224.2 237.5,-202.2 8.5,-202.2"/>
<image xlink:href="../../images/primaryKeys.png" width="11px" height="12px" preserveAspectRatio="xMinYMin meet" x="13.5" y="-219.2"/>
<text text-anchor="start" x="37.5" y="-209.3" font-family="Helvetica,sans-Serif" font-size="11.00" fill="#000000">id</text>
<polygon fill="none" stroke="#000000" points="8.5,-183.2 8.5,-202.2 237.5,-202.2 237.5,-183.2 8.5,-183.2"/>
<text text-anchor="start" x="11.5" y="-189.3" font-family="Helvetica,sans-Serif" font-size="11.00" fill="#000000">...</text>
<polygon fill="#ffffff" stroke="transparent" points="8.5,-164.2 8.5,-183.2 106.5,-183.2 106.5,-164.2 8.5,-164.2"/>
<polygon fill="none" stroke="#000000" points="8.5,-164.2 8.5,-183.2 106.5,-183.2 106.5,-164.2 8.5,-164.2"/>
<text text-anchor="start" x="11.5" y="-170.3" font-family="Helvetica,sans-Serif" font-size="11.00" fill="#000000"> &#160;</text>
<polygon fill="#ffffff" stroke="transparent" points="106.5,-164.2 106.5,-183.2 161.5,-183.2 161.5,-164.2 106.5,-164.2"/>
<polygon fill="none" stroke="#000000" points="106.5,-164.2 106.5,-183.2 161.5,-183.2 161.5,-164.2 106.5,-164.2"/>
<text text-anchor="start" x="152.3862" y="-170.3" font-family="Helvetica,sans-Serif" font-size="11.00" fill="#000000"> &#160;</text>
<polygon fill="#ffffff" stroke="transparent" points="161.5,-164.2 161.5,-183.2 237.5,-183.2 237.5,-164.2 161.5,-164.2"/>
<polygon fill="none" stroke="#000000" points="161.5,-164.2 161.5,-183.2 237.5,-183.2 237.5,-164.2 161.5,-164.2"/>
<text text-anchor="start" x="206.6755" y="-170.3" font-family="Helvetica,sans-Serif" font-size="11.00" fill="#000000">596 &gt;</text>
</a>
</g>
</g>
<!-- obitos&#45;&gt;inscricao_lista_espera_situacoes -->
<g id="edge1" class="edge">
<title>obitos:w&#45;&gt;inscricao_lista_espera_situacoes:e</title>
<path fill="none" stroke="#000000" stroke-dasharray="5,2" d="M273.6489,-203.9188C261.5992,-207.0125 254.728,-213.2 237.5,-213.2"/>
<polygon fill="#000000" stroke="#000000" points="280.0568,-203.1514 288.4281,-205.7745 284.0284,-202.6757 288,-202.2 288,-202.2 288,-202.2 284.0284,-202.6757 287.5719,-198.6255 280.0568,-203.1514 280.0568,-203.1514"/>
<ellipse fill="none" stroke="#000000" cx="276.8795" cy="-203.5319" rx="3.2" ry="3.2"/>
</g>
<!-- obitos&#45;&gt;inscricao_lista_espera_situacoes -->
<g id="edge2" class="edge">
<title>obitos:w&#45;&gt;inscricao_lista_espera_situacoes:e</title>
<path fill="none" stroke="#000000" stroke-dasharray="5,2" d="M273.6489,-222.4813C261.5992,-219.3875 254.728,-213.2 237.5,-213.2"/>
<polygon fill="#000000" stroke="#000000" points="280.0568,-223.2486 287.5719,-227.7745 284.0284,-223.7243 288,-224.2 288,-224.2 288,-224.2 284.0284,-223.7243 288.4281,-220.6255 280.0568,-223.2486 280.0568,-223.2486"/>
<ellipse fill="none" stroke="#000000" cx="276.8795" cy="-222.8681" rx="3.2" ry="3.2"/>
</g>
</g>
</svg>
