<?xml version="1.0" encoding="UTF-8" standalone="no"?>
<!DOCTYPE svg PUBLIC "-//W3C//DTD SVG 1.1//EN"
 "http://www.w3.org/Graphics/SVG/1.1/DTD/svg11.dtd">
<!-- Generated by graphviz version 2.40.1 (20161225.0304)
 -->
<!-- Title: oneDegreeRelationshipsDiagram Pages: 1 -->
<svg width="238pt" height="338pt"
 viewBox="0.00 0.00 238.00 338.20" xmlns="http://www.w3.org/2000/svg" xmlns:xlink="http://www.w3.org/1999/xlink">
<g id="graph0" class="graph" transform="scale(1 1) rotate(0) translate(4 334.2)">
<title>oneDegreeRelationshipsDiagram</title>
<polygon fill="#ffffff" stroke="transparent" points="-4,4 -4,-334.2 234,-334.2 234,4 -4,4"/>
<text text-anchor="middle" x="72.4936" y="-7.3" font-family="Helvetica,sans-Serif" font-size="11.00" fill="#000000">Generated by SchemaSpy</text>
<!-- paises -->
<g id="node1" class="node">
<title>paises</title>
<g id="a_node1"><a xlink:href="../../tables/paises.html" xlink:title="paises" target="_top">
<polygon fill="#ffffff" stroke="transparent" points="8,-38.2 8,-326.2 222,-326.2 222,-38.2 8,-38.2"/>
<polygon fill="#f5f5f5" stroke="transparent" points="10,-301.2 10,-324.2 220,-324.2 220,-301.2 10,-301.2"/>
<polygon fill="none" stroke="#000000" points="10,-301.2 10,-324.2 220,-324.2 220,-301.2 10,-301.2"/>
<text text-anchor="start" x="15" y="-309.8" font-family="Helvetica,sans-Serif" font-weight="bold" font-size="11.00" fill="#000000">paises</text>
<text text-anchor="start" x="185.0437" y="-309.3" font-family="Helvetica,sans-Serif" font-size="11.00" fill="#000000">[table]</text>
<polygon fill="none" stroke="#000000" points="10,-279.2 10,-301.2 111,-301.2 111,-279.2 10,-279.2"/>
<text text-anchor="start" x="30" y="-286.3" font-family="Helvetica,sans-Serif" font-size="11.00" fill="#000000">sistema</text>
<polygon fill="none" stroke="#000000" points="111,-279.2 111,-301.2 220,-301.2 220,-279.2 111,-279.2"/>
<text text-anchor="start" x="114" y="-286.9" font-family="Helvetica,sans-Serif" font-size="11.00" fill="#000000">int4[10]</text>
<polygon fill="none" stroke="#000000" points="10,-257.2 10,-279.2 111,-279.2 111,-257.2 10,-257.2"/>
<text text-anchor="start" x="30" y="-264.3" font-family="Helvetica,sans-Serif" font-size="11.00" fill="#000000">tipo_registro</text>
<polygon fill="none" stroke="#000000" points="111,-257.2 111,-279.2 220,-279.2 220,-257.2 111,-257.2"/>
<text text-anchor="start" x="114" y="-264.9" font-family="Helvetica,sans-Serif" font-size="11.00" fill="#000000">text[2147483647]</text>
<polygon fill="none" stroke="#000000" points="10,-235.2 10,-257.2 111,-257.2 111,-235.2 10,-235.2"/>
<text text-anchor="start" x="30" y="-242.3" font-family="Helvetica,sans-Serif" font-size="11.00" fill="#000000">id_integracao</text>
<polygon fill="none" stroke="#000000" points="111,-235.2 111,-257.2 220,-257.2 220,-235.2 111,-235.2"/>
<text text-anchor="start" x="113.5344" y="-242.9" font-family="Helvetica,sans-Serif" font-size="11.00" fill="#000000">varchar[2147483647]</text>
<polygon fill="none" stroke="#000000" points="10,-213.2 10,-235.2 111,-235.2 111,-213.2 10,-213.2"/>
<text text-anchor="start" x="30" y="-220.3" font-family="Helvetica,sans-Serif" font-size="11.00" fill="#000000">id_origem</text>
<polygon fill="none" stroke="#000000" points="111,-213.2 111,-235.2 220,-235.2 220,-213.2 111,-213.2"/>
<text text-anchor="start" x="114" y="-220.9" font-family="Helvetica,sans-Serif" font-size="11.00" fill="#000000">int4[10]</text>
<polygon fill="none" stroke="#000000" points="10,-191.2 10,-213.2 111,-213.2 111,-191.2 10,-191.2"/>
<text text-anchor="start" x="30" y="-198.3" font-family="Helvetica,sans-Serif" font-size="11.00" fill="#000000">id_cloud</text>
<polygon fill="none" stroke="#000000" points="111,-191.2 111,-213.2 220,-213.2 220,-191.2 111,-191.2"/>
<text text-anchor="start" x="114" y="-198.9" font-family="Helvetica,sans-Serif" font-size="11.00" fill="#000000">int4[10]</text>
<polygon fill="none" stroke="#000000" points="10,-169.2 10,-191.2 111,-191.2 111,-169.2 10,-169.2"/>
<text text-anchor="start" x="30" y="-176.3" font-family="Helvetica,sans-Serif" font-size="11.00" fill="#000000">nome</text>
<polygon fill="none" stroke="#000000" points="111,-169.2 111,-191.2 220,-191.2 220,-169.2 111,-169.2"/>
<text text-anchor="start" x="114" y="-176.9" font-family="Helvetica,sans-Serif" font-size="11.00" fill="#000000">varchar[50]</text>
<polygon fill="none" stroke="#000000" points="10,-147.2 10,-169.2 111,-169.2 111,-147.2 10,-147.2"/>
<text text-anchor="start" x="30" y="-154.3" font-family="Helvetica,sans-Serif" font-size="11.00" fill="#000000">brasil</text>
<polygon fill="none" stroke="#000000" points="111,-147.2 111,-169.2 220,-169.2 220,-147.2 111,-147.2"/>
<text text-anchor="start" x="114" y="-154.9" font-family="Helvetica,sans-Serif" font-size="11.00" fill="#000000">bool[1]</text>
<polygon fill="none" stroke="#000000" points="10,-125.2 10,-147.2 111,-147.2 111,-125.2 10,-125.2"/>
<text text-anchor="start" x="30" y="-132.3" font-family="Helvetica,sans-Serif" font-size="11.00" fill="#000000">sigla2c</text>
<polygon fill="none" stroke="#000000" points="111,-125.2 111,-147.2 220,-147.2 220,-125.2 111,-125.2"/>
<text text-anchor="start" x="113.5344" y="-132.9" font-family="Helvetica,sans-Serif" font-size="11.00" fill="#000000">varchar[2147483647]</text>
<polygon fill="none" stroke="#000000" points="10,-103.2 10,-125.2 111,-125.2 111,-103.2 10,-103.2"/>
<text text-anchor="start" x="30" y="-110.3" font-family="Helvetica,sans-Serif" font-size="11.00" fill="#000000">sigla3c</text>
<polygon fill="none" stroke="#000000" points="111,-103.2 111,-125.2 220,-125.2 220,-103.2 111,-103.2"/>
<text text-anchor="start" x="113.5344" y="-110.9" font-family="Helvetica,sans-Serif" font-size="11.00" fill="#000000">varchar[2147483647]</text>
<polygon fill="none" stroke="#000000" points="10,-81.2 10,-103.2 111,-103.2 111,-81.2 10,-81.2"/>
<text text-anchor="start" x="30" y="-88.3" font-family="Helvetica,sans-Serif" font-size="11.00" fill="#000000">sigla3d</text>
<polygon fill="none" stroke="#000000" points="111,-81.2 111,-103.2 220,-103.2 220,-81.2 111,-81.2"/>
<text text-anchor="start" x="113.5344" y="-88.9" font-family="Helvetica,sans-Serif" font-size="11.00" fill="#000000">varchar[2147483647]</text>
<polygon fill="none" stroke="#000000" points="10,-59.2 10,-81.2 111,-81.2 111,-59.2 10,-59.2"/>
<text text-anchor="start" x="30" y="-66.3" font-family="Helvetica,sans-Serif" font-size="11.00" fill="#000000">codigo_bacen</text>
<polygon fill="none" stroke="#000000" points="111,-59.2 111,-81.2 220,-81.2 220,-59.2 111,-59.2"/>
<text text-anchor="start" x="113.5344" y="-66.9" font-family="Helvetica,sans-Serif" font-size="11.00" fill="#000000">varchar[2147483647]</text>
<polygon fill="#ffffff" stroke="transparent" points="10,-40.2 10,-59.2 65,-59.2 65,-40.2 10,-40.2"/>
<polygon fill="none" stroke="#000000" points="10,-40.2 10,-59.2 65,-59.2 65,-40.2 10,-40.2"/>
<text text-anchor="start" x="13" y="-46.3" font-family="Helvetica,sans-Serif" font-size="11.00" fill="#000000">&lt; 0</text>
<polygon fill="#ffffff" stroke="transparent" points="65,-40.2 65,-59.2 111,-59.2 111,-40.2 65,-40.2"/>
<polygon fill="none" stroke="#000000" points="65,-40.2 65,-59.2 111,-59.2 111,-40.2 65,-40.2"/>
<text text-anchor="start" x="101.8862" y="-46.3" font-family="Helvetica,sans-Serif" font-size="11.00" fill="#000000"> &#160;</text>
<polygon fill="#ffffff" stroke="transparent" points="111,-40.2 111,-59.2 220,-59.2 220,-40.2 111,-40.2"/>
<polygon fill="none" stroke="#000000" points="111,-40.2 111,-59.2 220,-59.2 220,-40.2 111,-40.2"/>
<text text-anchor="start" x="201.4053" y="-46.3" font-family="Helvetica,sans-Serif" font-size="11.00" fill="#000000">0 &gt;</text>
<polygon fill="none" stroke="#000000" stroke-width="2" points="9,-39.2 9,-325.2 221,-325.2 221,-39.2 9,-39.2"/>
</a>
</g>
</g>
</g>
</svg>
