<?xml version="1.0" encoding="UTF-8" standalone="no"?>
<!DOCTYPE svg PUBLIC "-//W3C//DTD SVG 1.1//EN"
 "http://www.w3.org/Graphics/SVG/1.1/DTD/svg11.dtd">
<!-- Generated by graphviz version 2.40.1 (20161225.0304)
 -->
<!-- Title: oneDegreeRelationshipsDiagramImplied Pages: 1 -->
<svg width="635pt" height="366pt"
 viewBox="0.00 0.00 635.00 365.70" xmlns="http://www.w3.org/2000/svg" xmlns:xlink="http://www.w3.org/1999/xlink">
<g id="graph0" class="graph" transform="scale(1 1) rotate(0) translate(4 361.7)">
<title>oneDegreeRelationshipsDiagramImplied</title>
<polygon fill="#ffffff" stroke="transparent" points="-4,4 -4,-361.7 631,-361.7 631,4 -4,4"/>
<text text-anchor="middle" x="72.4936" y="-7.3" font-family="Helvetica,sans-Serif" font-size="11.00" fill="#000000">Generated by SchemaSpy</text>
<!-- pessoas_telefones -->
<g id="node1" class="node">
<title>pessoas_telefones</title>
<g id="a_node1"><a xlink:href="../../tables/pessoas_telefones.html" xlink:title="pessoas_telefones" target="_top">
<polygon fill="#ffffff" stroke="transparent" points="286,-43.7 286,-353.7 619,-353.7 619,-43.7 286,-43.7"/>
<polygon fill="#f5f5f5" stroke="transparent" points="288.5,-328.7 288.5,-351.7 617.5,-351.7 617.5,-328.7 288.5,-328.7"/>
<polygon fill="none" stroke="#000000" points="288.5,-328.7 288.5,-351.7 617.5,-351.7 617.5,-328.7 288.5,-328.7"/>
<text text-anchor="start" x="293.5" y="-337.3" font-family="Helvetica,sans-Serif" font-weight="bold" font-size="11.00" fill="#000000">pessoas_telefones</text>
<text text-anchor="start" x="582.5437" y="-336.8" font-family="Helvetica,sans-Serif" font-size="11.00" fill="#000000">[table]</text>
<polygon fill="none" stroke="#000000" points="288.5,-306.7 288.5,-328.7 416.5,-328.7 416.5,-306.7 288.5,-306.7"/>
<text text-anchor="start" x="308.5" y="-313.8" font-family="Helvetica,sans-Serif" font-size="11.00" fill="#000000">sistema</text>
<polygon fill="none" stroke="#000000" points="416.5,-306.7 416.5,-328.7 617.5,-328.7 617.5,-306.7 416.5,-306.7"/>
<text text-anchor="start" x="419.5" y="-314.4" font-family="Helvetica,sans-Serif" font-size="11.00" fill="#000000">int4[10]</text>
<polygon fill="none" stroke="#000000" points="288.5,-284.7 288.5,-306.7 416.5,-306.7 416.5,-284.7 288.5,-284.7"/>
<text text-anchor="start" x="308.5" y="-291.8" font-family="Helvetica,sans-Serif" font-size="11.00" fill="#000000">tipo_registro</text>
<polygon fill="none" stroke="#000000" points="416.5,-284.7 416.5,-306.7 617.5,-306.7 617.5,-284.7 416.5,-284.7"/>
<text text-anchor="start" x="419.5" y="-292.4" font-family="Helvetica,sans-Serif" font-size="11.00" fill="#000000">text[2147483647]</text>
<polygon fill="none" stroke="#000000" points="288.5,-262.7 288.5,-284.7 416.5,-284.7 416.5,-262.7 288.5,-262.7"/>
<text text-anchor="start" x="308.5" y="-269.8" font-family="Helvetica,sans-Serif" font-size="11.00" fill="#000000">id_integracao</text>
<polygon fill="none" stroke="#000000" points="416.5,-262.7 416.5,-284.7 617.5,-284.7 617.5,-262.7 416.5,-262.7"/>
<text text-anchor="start" x="419.5" y="-270.4" font-family="Helvetica,sans-Serif" font-size="11.00" fill="#000000">varchar[2147483647]</text>
<polygon fill="none" stroke="#000000" points="288.5,-240.7 288.5,-262.7 416.5,-262.7 416.5,-240.7 288.5,-240.7"/>
<text text-anchor="start" x="308.5" y="-247.8" font-family="Helvetica,sans-Serif" font-size="11.00" fill="#000000">id_origem</text>
<polygon fill="none" stroke="#000000" points="416.5,-240.7 416.5,-262.7 617.5,-262.7 617.5,-240.7 416.5,-240.7"/>
<text text-anchor="start" x="419.5" y="-248.4" font-family="Helvetica,sans-Serif" font-size="11.00" fill="#000000">int4[10]</text>
<polygon fill="none" stroke="#000000" points="288.5,-218.7 288.5,-240.7 416.5,-240.7 416.5,-218.7 288.5,-218.7"/>
<text text-anchor="start" x="308.5" y="-225.8" font-family="Helvetica,sans-Serif" font-size="11.00" fill="#000000">id_cloud</text>
<polygon fill="none" stroke="#000000" points="416.5,-218.7 416.5,-240.7 617.5,-240.7 617.5,-218.7 416.5,-218.7"/>
<text text-anchor="start" x="419.5" y="-226.4" font-family="Helvetica,sans-Serif" font-size="11.00" fill="#000000">int4[10]</text>
<polygon fill="none" stroke="#000000" points="288.5,-196.7 288.5,-218.7 416.5,-218.7 416.5,-196.7 288.5,-196.7"/>
<text text-anchor="start" x="308.5" y="-203.8" font-family="Helvetica,sans-Serif" font-size="11.00" fill="#000000">descricao</text>
<polygon fill="none" stroke="#000000" points="416.5,-196.7 416.5,-218.7 617.5,-218.7 617.5,-196.7 416.5,-196.7"/>
<text text-anchor="start" x="419.5" y="-204.4" font-family="Helvetica,sans-Serif" font-size="11.00" fill="#000000">varchar[2147483647]</text>
<polygon fill="none" stroke="#000000" points="288.5,-174.7 288.5,-196.7 416.5,-196.7 416.5,-174.7 288.5,-174.7"/>
<text text-anchor="start" x="308.5" y="-181.8" font-family="Helvetica,sans-Serif" font-size="11.00" fill="#000000">tipo_numero</text>
<polygon fill="none" stroke="#000000" points="416.5,-174.7 416.5,-196.7 617.5,-196.7 617.5,-174.7 416.5,-174.7"/>
<text text-anchor="start" x="419.0093" y="-182.4" font-family="Helvetica,sans-Serif" font-size="11.00" fill="#000000">&quot;educacao&quot;.&quot;tipostelefone&quot;[2147483647]</text>
<polygon fill="none" stroke="#000000" points="288.5,-152.7 288.5,-174.7 416.5,-174.7 416.5,-152.7 288.5,-152.7"/>
<text text-anchor="start" x="308.5" y="-159.8" font-family="Helvetica,sans-Serif" font-size="11.00" fill="#000000">observacao</text>
<polygon fill="none" stroke="#000000" points="416.5,-152.7 416.5,-174.7 617.5,-174.7 617.5,-152.7 416.5,-152.7"/>
<text text-anchor="start" x="419.5" y="-160.4" font-family="Helvetica,sans-Serif" font-size="11.00" fill="#000000">varchar[2147483647]</text>
<polygon fill="none" stroke="#000000" points="288.5,-130.7 288.5,-152.7 416.5,-152.7 416.5,-130.7 288.5,-130.7"/>
<text text-anchor="start" x="308.5" y="-137.8" font-family="Helvetica,sans-Serif" font-size="11.00" fill="#000000">telefone</text>
<polygon fill="none" stroke="#000000" points="416.5,-130.7 416.5,-152.7 617.5,-152.7 617.5,-130.7 416.5,-130.7"/>
<text text-anchor="start" x="419.5" y="-138.4" font-family="Helvetica,sans-Serif" font-size="11.00" fill="#000000">varchar[2147483647]</text>
<polygon fill="none" stroke="#000000" points="288.5,-108.7 288.5,-130.7 416.5,-130.7 416.5,-108.7 288.5,-108.7"/>
<text text-anchor="start" x="308.5" y="-115.8" font-family="Helvetica,sans-Serif" font-size="11.00" fill="#000000">tipo</text>
<polygon fill="none" stroke="#000000" points="416.5,-108.7 416.5,-130.7 617.5,-130.7 617.5,-108.7 416.5,-108.7"/>
<text text-anchor="start" x="419.5" y="-116.4" font-family="Helvetica,sans-Serif" font-size="11.00" fill="#000000">&quot;educacao&quot;.&quot;tiposcontato&quot;[2147483647]</text>
<polygon fill="none" stroke="#000000" points="288.5,-86.7 288.5,-108.7 416.5,-108.7 416.5,-86.7 288.5,-86.7"/>
<image xlink:href="../../images/foreignKeys.png" width="11px" height="12px" preserveAspectRatio="xMinYMin meet" x="293.5" y="-103.7"/>
<text text-anchor="start" x="308.5" y="-93.8" font-family="Helvetica,sans-Serif" font-size="11.00" fill="#000000">pessoa_origem_id</text>
<polygon fill="none" stroke="#000000" points="416.5,-86.7 416.5,-108.7 617.5,-108.7 617.5,-86.7 416.5,-86.7"/>
<text text-anchor="start" x="419.5" y="-94.4" font-family="Helvetica,sans-Serif" font-size="11.00" fill="#000000">int4[10]</text>
<polygon fill="none" stroke="#000000" points="288.5,-64.7 288.5,-86.7 416.5,-86.7 416.5,-64.7 288.5,-64.7"/>
<image xlink:href="../../images/foreignKeys.png" width="11px" height="12px" preserveAspectRatio="xMinYMin meet" x="293.5" y="-81.7"/>
<text text-anchor="start" x="308.5" y="-71.8" font-family="Helvetica,sans-Serif" font-size="11.00" fill="#000000">pessoa_cloud_id</text>
<polygon fill="none" stroke="#000000" points="416.5,-64.7 416.5,-86.7 617.5,-86.7 617.5,-64.7 416.5,-64.7"/>
<text text-anchor="start" x="419.5" y="-72.4" font-family="Helvetica,sans-Serif" font-size="11.00" fill="#000000">int4[10]</text>
<polygon fill="#ffffff" stroke="transparent" points="288.5,-45.7 288.5,-64.7 356.5,-64.7 356.5,-45.7 288.5,-45.7"/>
<polygon fill="none" stroke="#000000" points="288.5,-45.7 288.5,-64.7 356.5,-64.7 356.5,-45.7 288.5,-45.7"/>
<text text-anchor="start" x="291.5" y="-51.8" font-family="Helvetica,sans-Serif" font-size="11.00" fill="#000000">&lt; 2</text>
<polygon fill="#ffffff" stroke="transparent" points="356.5,-45.7 356.5,-64.7 416.5,-64.7 416.5,-45.7 356.5,-45.7"/>
<polygon fill="none" stroke="#000000" points="356.5,-45.7 356.5,-64.7 416.5,-64.7 416.5,-45.7 356.5,-45.7"/>
<text text-anchor="start" x="407.3862" y="-51.8" font-family="Helvetica,sans-Serif" font-size="11.00" fill="#000000"> &#160;</text>
<polygon fill="#ffffff" stroke="transparent" points="416.5,-45.7 416.5,-64.7 617.5,-64.7 617.5,-45.7 416.5,-45.7"/>
<polygon fill="none" stroke="#000000" points="416.5,-45.7 416.5,-64.7 617.5,-64.7 617.5,-45.7 416.5,-45.7"/>
<text text-anchor="start" x="598.9053" y="-51.8" font-family="Helvetica,sans-Serif" font-size="11.00" fill="#000000">0 &gt;</text>
<polygon fill="none" stroke="#000000" stroke-width="2" points="287,-44.7 287,-352.7 618,-352.7 618,-44.7 287,-44.7"/>
</a>
</g>
</g>
<!-- inscricao_lista_espera_situacoes -->
<g id="node2" class="node">
<title>inscricao_lista_espera_situacoes</title>
<g id="a_node2"><a xlink:href="../../tables/inscricao_lista_espera_situacoes.html" xlink:title="inscricao_lista_espera_situacoes" target="_top">
<polygon fill="#ffffff" stroke="transparent" points="8,-38.2 8,-121.2 237,-121.2 237,-38.2 8,-38.2"/>
<polygon fill="#f5f5f5" stroke="transparent" points="8.5,-97.7 8.5,-120.7 237.5,-120.7 237.5,-97.7 8.5,-97.7"/>
<polygon fill="none" stroke="#000000" points="8.5,-97.7 8.5,-120.7 237.5,-120.7 237.5,-97.7 8.5,-97.7"/>
<text text-anchor="start" x="13.5" y="-106.3" font-family="Helvetica,sans-Serif" font-weight="bold" font-size="11.00" fill="#000000">inscricao_lista_espera_situacoes</text>
<text text-anchor="start" x="203.0219" y="-105.8" font-family="Helvetica,sans-Serif" font-size="11.00" fill="#000000">[table]</text>
<polygon fill="none" stroke="#000000" points="8.5,-75.7 8.5,-97.7 237.5,-97.7 237.5,-75.7 8.5,-75.7"/>
<image xlink:href="../../images/primaryKeys.png" width="11px" height="12px" preserveAspectRatio="xMinYMin meet" x="13.5" y="-92.7"/>
<text text-anchor="start" x="37.5" y="-82.8" font-family="Helvetica,sans-Serif" font-size="11.00" fill="#000000">id</text>
<polygon fill="none" stroke="#000000" points="8.5,-56.7 8.5,-75.7 237.5,-75.7 237.5,-56.7 8.5,-56.7"/>
<text text-anchor="start" x="11.5" y="-62.8" font-family="Helvetica,sans-Serif" font-size="11.00" fill="#000000">...</text>
<polygon fill="#ffffff" stroke="transparent" points="8.5,-37.7 8.5,-56.7 106.5,-56.7 106.5,-37.7 8.5,-37.7"/>
<polygon fill="none" stroke="#000000" points="8.5,-37.7 8.5,-56.7 106.5,-56.7 106.5,-37.7 8.5,-37.7"/>
<text text-anchor="start" x="11.5" y="-43.8" font-family="Helvetica,sans-Serif" font-size="11.00" fill="#000000"> &#160;</text>
<polygon fill="#ffffff" stroke="transparent" points="106.5,-37.7 106.5,-56.7 161.5,-56.7 161.5,-37.7 106.5,-37.7"/>
<polygon fill="none" stroke="#000000" points="106.5,-37.7 106.5,-56.7 161.5,-56.7 161.5,-37.7 106.5,-37.7"/>
<text text-anchor="start" x="152.3862" y="-43.8" font-family="Helvetica,sans-Serif" font-size="11.00" fill="#000000"> &#160;</text>
<polygon fill="#ffffff" stroke="transparent" points="161.5,-37.7 161.5,-56.7 237.5,-56.7 237.5,-37.7 161.5,-37.7"/>
<polygon fill="none" stroke="#000000" points="161.5,-37.7 161.5,-56.7 237.5,-56.7 237.5,-37.7 161.5,-37.7"/>
<text text-anchor="start" x="206.6755" y="-43.8" font-family="Helvetica,sans-Serif" font-size="11.00" fill="#000000">596 &gt;</text>
</a>
</g>
</g>
<!-- pessoas_telefones&#45;&gt;inscricao_lista_espera_situacoes -->
<g id="edge1" class="edge">
<title>pessoas_telefones:w&#45;&gt;inscricao_lista_espera_situacoes:e</title>
<path fill="none" stroke="#000000" stroke-dasharray="5,2" d="M274.0097,-77.4188C261.8398,-80.5125 254.8909,-86.7 237.5,-86.7"/>
<polygon fill="#000000" stroke="#000000" points="280.5557,-76.6424 288.9241,-79.2749 284.5278,-76.1712 288.5,-75.7 288.5,-75.7 288.5,-75.7 284.5278,-76.1712 288.0759,-72.1251 280.5557,-76.6424 280.5557,-76.6424"/>
<ellipse fill="none" stroke="#000000" cx="277.378" cy="-77.0193" rx="3.2" ry="3.2"/>
</g>
<!-- pessoas_telefones&#45;&gt;inscricao_lista_espera_situacoes -->
<g id="edge2" class="edge">
<title>pessoas_telefones:w&#45;&gt;inscricao_lista_espera_situacoes:e</title>
<path fill="none" stroke="#000000" stroke-dasharray="5,2" d="M274.0097,-95.9813C261.8398,-92.8875 254.8909,-86.7 237.5,-86.7"/>
<polygon fill="#000000" stroke="#000000" points="280.5557,-96.7576 288.0759,-101.2749 284.5278,-97.2288 288.5,-97.7 288.5,-97.7 288.5,-97.7 284.5278,-97.2288 288.9241,-94.1251 280.5557,-96.7576 280.5557,-96.7576"/>
<ellipse fill="none" stroke="#000000" cx="277.378" cy="-96.3807" rx="3.2" ry="3.2"/>
</g>
</g>
</svg>
