<?xml version="1.0" encoding="UTF-8" standalone="no"?>
<!DOCTYPE svg PUBLIC "-//W3C//DTD SVG 1.1//EN"
 "http://www.w3.org/Graphics/SVG/1.1/DTD/svg11.dtd">
<!-- Generated by graphviz version 2.40.1 (20161225.0304)
 -->
<!-- Title: oneDegreeRelationshipsDiagram Pages: 1 -->
<svg width="374pt" height="382pt"
 viewBox="0.00 0.00 374.00 382.20" xmlns="http://www.w3.org/2000/svg" xmlns:xlink="http://www.w3.org/1999/xlink">
<g id="graph0" class="graph" transform="scale(1 1) rotate(0) translate(4 378.2)">
<title>oneDegreeRelationshipsDiagram</title>
<polygon fill="#ffffff" stroke="transparent" points="-4,4 -4,-378.2 370,-378.2 370,4 -4,4"/>
<text text-anchor="middle" x="72.4936" y="-7.3" font-family="Helvetica,sans-Serif" font-size="11.00" fill="#000000">Generated by SchemaSpy</text>
<!-- quadros_de_horarios -->
<g id="node1" class="node">
<title>quadros_de_horarios</title>
<g id="a_node1"><a xlink:href="../../tables/quadros_de_horarios.html" xlink:title="quadros_de_horarios" target="_top">
<polygon fill="#ffffff" stroke="transparent" points="8,-38.2 8,-370.2 358,-370.2 358,-38.2 8,-38.2"/>
<polygon fill="#f5f5f5" stroke="transparent" points="10,-345.2 10,-368.2 356,-368.2 356,-345.2 10,-345.2"/>
<polygon fill="none" stroke="#000000" points="10,-345.2 10,-368.2 356,-368.2 356,-345.2 10,-345.2"/>
<text text-anchor="start" x="15" y="-353.8" font-family="Helvetica,sans-Serif" font-weight="bold" font-size="11.00" fill="#000000">quadros_de_horarios</text>
<text text-anchor="start" x="321.0437" y="-353.3" font-family="Helvetica,sans-Serif" font-size="11.00" fill="#000000">[table]</text>
<polygon fill="none" stroke="#000000" points="10,-323.2 10,-345.2 247,-345.2 247,-323.2 10,-323.2"/>
<text text-anchor="start" x="30" y="-330.3" font-family="Helvetica,sans-Serif" font-size="11.00" fill="#000000">sistema</text>
<polygon fill="none" stroke="#000000" points="247,-323.2 247,-345.2 356,-345.2 356,-323.2 247,-323.2"/>
<text text-anchor="start" x="250" y="-330.9" font-family="Helvetica,sans-Serif" font-size="11.00" fill="#000000">int4[10]</text>
<polygon fill="none" stroke="#000000" points="10,-301.2 10,-323.2 247,-323.2 247,-301.2 10,-301.2"/>
<text text-anchor="start" x="30" y="-308.3" font-family="Helvetica,sans-Serif" font-size="11.00" fill="#000000">tipo_registro</text>
<polygon fill="none" stroke="#000000" points="247,-301.2 247,-323.2 356,-323.2 356,-301.2 247,-301.2"/>
<text text-anchor="start" x="250" y="-308.9" font-family="Helvetica,sans-Serif" font-size="11.00" fill="#000000">text[2147483647]</text>
<polygon fill="none" stroke="#000000" points="10,-279.2 10,-301.2 247,-301.2 247,-279.2 10,-279.2"/>
<text text-anchor="start" x="30" y="-286.3" font-family="Helvetica,sans-Serif" font-size="11.00" fill="#000000">id_integracao</text>
<polygon fill="none" stroke="#000000" points="247,-279.2 247,-301.2 356,-301.2 356,-279.2 247,-279.2"/>
<text text-anchor="start" x="249.5344" y="-286.9" font-family="Helvetica,sans-Serif" font-size="11.00" fill="#000000">varchar[2147483647]</text>
<polygon fill="none" stroke="#000000" points="10,-257.2 10,-279.2 247,-279.2 247,-257.2 10,-257.2"/>
<text text-anchor="start" x="30" y="-264.3" font-family="Helvetica,sans-Serif" font-size="11.00" fill="#000000">id_origem</text>
<polygon fill="none" stroke="#000000" points="247,-257.2 247,-279.2 356,-279.2 356,-257.2 247,-257.2"/>
<text text-anchor="start" x="250" y="-264.9" font-family="Helvetica,sans-Serif" font-size="11.00" fill="#000000">int4[10]</text>
<polygon fill="none" stroke="#000000" points="10,-235.2 10,-257.2 247,-257.2 247,-235.2 10,-235.2"/>
<text text-anchor="start" x="30" y="-242.3" font-family="Helvetica,sans-Serif" font-size="11.00" fill="#000000">id_cloud</text>
<polygon fill="none" stroke="#000000" points="247,-235.2 247,-257.2 356,-257.2 356,-235.2 247,-235.2"/>
<text text-anchor="start" x="250" y="-242.9" font-family="Helvetica,sans-Serif" font-size="11.00" fill="#000000">int4[10]</text>
<polygon fill="none" stroke="#000000" points="10,-213.2 10,-235.2 247,-235.2 247,-213.2 10,-213.2"/>
<image xlink:href="../../images/foreignKeys.png" width="11px" height="12px" preserveAspectRatio="xMinYMin meet" x="15" y="-230.2"/>
<text text-anchor="start" x="30" y="-220.3" font-family="Helvetica,sans-Serif" font-size="11.00" fill="#000000">ano_letivo_origem_id</text>
<polygon fill="none" stroke="#000000" points="247,-213.2 247,-235.2 356,-235.2 356,-213.2 247,-213.2"/>
<text text-anchor="start" x="250" y="-220.9" font-family="Helvetica,sans-Serif" font-size="11.00" fill="#000000">int4[10]</text>
<polygon fill="none" stroke="#000000" points="10,-191.2 10,-213.2 247,-213.2 247,-191.2 10,-191.2"/>
<image xlink:href="../../images/foreignKeys.png" width="11px" height="12px" preserveAspectRatio="xMinYMin meet" x="15" y="-208.2"/>
<text text-anchor="start" x="30" y="-198.3" font-family="Helvetica,sans-Serif" font-size="11.00" fill="#000000">ano_letivo_cloud_id</text>
<polygon fill="none" stroke="#000000" points="247,-191.2 247,-213.2 356,-213.2 356,-191.2 247,-191.2"/>
<text text-anchor="start" x="250" y="-198.9" font-family="Helvetica,sans-Serif" font-size="11.00" fill="#000000">int4[10]</text>
<polygon fill="none" stroke="#000000" points="10,-169.2 10,-191.2 247,-191.2 247,-169.2 10,-169.2"/>
<image xlink:href="../../images/foreignKeys.png" width="11px" height="12px" preserveAspectRatio="xMinYMin meet" x="15" y="-186.2"/>
<text text-anchor="start" x="30" y="-176.3" font-family="Helvetica,sans-Serif" font-size="11.00" fill="#000000">estabelecimento_origem_id</text>
<polygon fill="none" stroke="#000000" points="247,-169.2 247,-191.2 356,-191.2 356,-169.2 247,-169.2"/>
<text text-anchor="start" x="250" y="-176.9" font-family="Helvetica,sans-Serif" font-size="11.00" fill="#000000">int4[10]</text>
<polygon fill="none" stroke="#000000" points="10,-147.2 10,-169.2 247,-169.2 247,-147.2 10,-147.2"/>
<image xlink:href="../../images/foreignKeys.png" width="11px" height="12px" preserveAspectRatio="xMinYMin meet" x="15" y="-164.2"/>
<text text-anchor="start" x="30" y="-154.3" font-family="Helvetica,sans-Serif" font-size="11.00" fill="#000000">estabelecimento_cloud_id</text>
<polygon fill="none" stroke="#000000" points="247,-147.2 247,-169.2 356,-169.2 356,-147.2 247,-147.2"/>
<text text-anchor="start" x="250" y="-154.9" font-family="Helvetica,sans-Serif" font-size="11.00" fill="#000000">int4[10]</text>
<polygon fill="none" stroke="#000000" points="10,-125.2 10,-147.2 247,-147.2 247,-125.2 10,-125.2"/>
<image xlink:href="../../images/foreignKeys.png" width="11px" height="12px" preserveAspectRatio="xMinYMin meet" x="15" y="-142.2"/>
<text text-anchor="start" x="30" y="-132.3" font-family="Helvetica,sans-Serif" font-size="11.00" fill="#000000">configuracao_horas_aulas_origem_id</text>
<polygon fill="none" stroke="#000000" points="247,-125.2 247,-147.2 356,-147.2 356,-125.2 247,-125.2"/>
<text text-anchor="start" x="250" y="-132.9" font-family="Helvetica,sans-Serif" font-size="11.00" fill="#000000">int4[10]</text>
<polygon fill="none" stroke="#000000" points="10,-103.2 10,-125.2 247,-125.2 247,-103.2 10,-103.2"/>
<image xlink:href="../../images/foreignKeys.png" width="11px" height="12px" preserveAspectRatio="xMinYMin meet" x="15" y="-120.2"/>
<text text-anchor="start" x="30" y="-110.3" font-family="Helvetica,sans-Serif" font-size="11.00" fill="#000000">configuracao_horas_aulas_cloud_id</text>
<polygon fill="none" stroke="#000000" points="247,-103.2 247,-125.2 356,-125.2 356,-103.2 247,-103.2"/>
<text text-anchor="start" x="250" y="-110.9" font-family="Helvetica,sans-Serif" font-size="11.00" fill="#000000">int4[10]</text>
<polygon fill="none" stroke="#000000" points="10,-81.2 10,-103.2 247,-103.2 247,-81.2 10,-81.2"/>
<text text-anchor="start" x="30" y="-88.3" font-family="Helvetica,sans-Serif" font-size="11.00" fill="#000000">vigencia_inicio</text>
<polygon fill="none" stroke="#000000" points="247,-81.2 247,-103.2 356,-103.2 356,-81.2 247,-81.2"/>
<text text-anchor="start" x="250" y="-88.9" font-family="Helvetica,sans-Serif" font-size="11.00" fill="#000000">date[13]</text>
<polygon fill="none" stroke="#000000" points="10,-59.2 10,-81.2 247,-81.2 247,-59.2 10,-59.2"/>
<text text-anchor="start" x="30" y="-66.3" font-family="Helvetica,sans-Serif" font-size="11.00" fill="#000000">vigencia_fim</text>
<polygon fill="none" stroke="#000000" points="247,-59.2 247,-81.2 356,-81.2 356,-59.2 247,-59.2"/>
<text text-anchor="start" x="250" y="-66.9" font-family="Helvetica,sans-Serif" font-size="11.00" fill="#000000">date[13]</text>
<polygon fill="#ffffff" stroke="transparent" points="10,-40.2 10,-59.2 133,-59.2 133,-40.2 10,-40.2"/>
<polygon fill="none" stroke="#000000" points="10,-40.2 10,-59.2 133,-59.2 133,-40.2 10,-40.2"/>
<text text-anchor="start" x="13" y="-46.3" font-family="Helvetica,sans-Serif" font-size="11.00" fill="#000000">&lt; 0</text>
<polygon fill="#ffffff" stroke="transparent" points="133,-40.2 133,-59.2 247,-59.2 247,-40.2 133,-40.2"/>
<polygon fill="none" stroke="#000000" points="133,-40.2 133,-59.2 247,-59.2 247,-40.2 133,-40.2"/>
<text text-anchor="start" x="237.8862" y="-46.3" font-family="Helvetica,sans-Serif" font-size="11.00" fill="#000000"> &#160;</text>
<polygon fill="#ffffff" stroke="transparent" points="247,-40.2 247,-59.2 356,-59.2 356,-40.2 247,-40.2"/>
<polygon fill="none" stroke="#000000" points="247,-40.2 247,-59.2 356,-59.2 356,-40.2 247,-40.2"/>
<text text-anchor="start" x="337.4053" y="-46.3" font-family="Helvetica,sans-Serif" font-size="11.00" fill="#000000">0 &gt;</text>
<polygon fill="none" stroke="#000000" stroke-width="2" points="9,-39.2 9,-369.2 357,-369.2 357,-39.2 9,-39.2"/>
</a>
</g>
</g>
</g>
</svg>
