<?xml version="1.0" encoding="UTF-8" standalone="no"?>
<!DOCTYPE svg PUBLIC "-//W3C//DTD SVG 1.1//EN"
 "http://www.w3.org/Graphics/SVG/1.1/DTD/svg11.dtd">
<!-- Generated by graphviz version 2.40.1 (20161225.0304)
 -->
<!-- Title: oneDegreeRelationshipsDiagramImplied Pages: 1 -->
<svg width="655pt" height="404pt"
 viewBox="0.00 0.00 655.00 404.20" xmlns="http://www.w3.org/2000/svg" xmlns:xlink="http://www.w3.org/1999/xlink">
<g id="graph0" class="graph" transform="scale(1 1) rotate(0) translate(4 400.2)">
<title>oneDegreeRelationshipsDiagramImplied</title>
<polygon fill="#ffffff" stroke="transparent" points="-4,4 -4,-400.2 651,-400.2 651,4 -4,4"/>
<text text-anchor="middle" x="72.4936" y="-7.3" font-family="Helvetica,sans-Serif" font-size="11.00" fill="#000000">Generated by SchemaSpy</text>
<!-- quadro_vagas -->
<g id="node1" class="node">
<title>quadro_vagas</title>
<g id="a_node1"><a xlink:href="../../tables/quadro_vagas.html" xlink:title="quadro_vagas" target="_top">
<polygon fill="#ffffff" stroke="transparent" points="286,-38.2 286,-392.2 639,-392.2 639,-38.2 286,-38.2"/>
<polygon fill="#f5f5f5" stroke="transparent" points="288.5,-367.2 288.5,-390.2 637.5,-390.2 637.5,-367.2 288.5,-367.2"/>
<polygon fill="none" stroke="#000000" points="288.5,-367.2 288.5,-390.2 637.5,-390.2 637.5,-367.2 288.5,-367.2"/>
<text text-anchor="start" x="293.5" y="-375.8" font-family="Helvetica,sans-Serif" font-weight="bold" font-size="11.00" fill="#000000">quadro_vagas</text>
<text text-anchor="start" x="602.5437" y="-375.3" font-family="Helvetica,sans-Serif" font-size="11.00" fill="#000000">[table]</text>
<polygon fill="none" stroke="#000000" points="288.5,-345.2 288.5,-367.2 467.5,-367.2 467.5,-345.2 288.5,-345.2"/>
<text text-anchor="start" x="308.5" y="-352.3" font-family="Helvetica,sans-Serif" font-size="11.00" fill="#000000">sistema</text>
<polygon fill="none" stroke="#000000" points="467.5,-345.2 467.5,-367.2 637.5,-367.2 637.5,-345.2 467.5,-345.2"/>
<text text-anchor="start" x="470.5" y="-352.9" font-family="Helvetica,sans-Serif" font-size="11.00" fill="#000000">int4[10]</text>
<polygon fill="none" stroke="#000000" points="288.5,-323.2 288.5,-345.2 467.5,-345.2 467.5,-323.2 288.5,-323.2"/>
<text text-anchor="start" x="308.5" y="-330.3" font-family="Helvetica,sans-Serif" font-size="11.00" fill="#000000">tipo_registro</text>
<polygon fill="none" stroke="#000000" points="467.5,-323.2 467.5,-345.2 637.5,-345.2 637.5,-323.2 467.5,-323.2"/>
<text text-anchor="start" x="470.5" y="-330.9" font-family="Helvetica,sans-Serif" font-size="11.00" fill="#000000">text[2147483647]</text>
<polygon fill="none" stroke="#000000" points="288.5,-301.2 288.5,-323.2 467.5,-323.2 467.5,-301.2 288.5,-301.2"/>
<text text-anchor="start" x="308.5" y="-308.3" font-family="Helvetica,sans-Serif" font-size="11.00" fill="#000000">id_integracao</text>
<polygon fill="none" stroke="#000000" points="467.5,-301.2 467.5,-323.2 637.5,-323.2 637.5,-301.2 467.5,-301.2"/>
<text text-anchor="start" x="470.5" y="-308.9" font-family="Helvetica,sans-Serif" font-size="11.00" fill="#000000">varchar[2147483647]</text>
<polygon fill="none" stroke="#000000" points="288.5,-279.2 288.5,-301.2 467.5,-301.2 467.5,-279.2 288.5,-279.2"/>
<text text-anchor="start" x="308.5" y="-286.3" font-family="Helvetica,sans-Serif" font-size="11.00" fill="#000000">id_origem</text>
<polygon fill="none" stroke="#000000" points="467.5,-279.2 467.5,-301.2 637.5,-301.2 637.5,-279.2 467.5,-279.2"/>
<text text-anchor="start" x="470.5" y="-286.9" font-family="Helvetica,sans-Serif" font-size="11.00" fill="#000000">int4[10]</text>
<polygon fill="none" stroke="#000000" points="288.5,-257.2 288.5,-279.2 467.5,-279.2 467.5,-257.2 288.5,-257.2"/>
<text text-anchor="start" x="308.5" y="-264.3" font-family="Helvetica,sans-Serif" font-size="11.00" fill="#000000">id_cloud</text>
<polygon fill="none" stroke="#000000" points="467.5,-257.2 467.5,-279.2 637.5,-279.2 637.5,-257.2 467.5,-257.2"/>
<text text-anchor="start" x="470.5" y="-264.9" font-family="Helvetica,sans-Serif" font-size="11.00" fill="#000000">int4[10]</text>
<polygon fill="none" stroke="#000000" points="288.5,-235.2 288.5,-257.2 467.5,-257.2 467.5,-235.2 288.5,-235.2"/>
<image xlink:href="../../images/foreignKeys.png" width="11px" height="12px" preserveAspectRatio="xMinYMin meet" x="293.5" y="-252.2"/>
<text text-anchor="start" x="308.5" y="-242.3" font-family="Helvetica,sans-Serif" font-size="11.00" fill="#000000">estabelecimento_origem_id</text>
<polygon fill="none" stroke="#000000" points="467.5,-235.2 467.5,-257.2 637.5,-257.2 637.5,-235.2 467.5,-235.2"/>
<text text-anchor="start" x="470.5" y="-242.9" font-family="Helvetica,sans-Serif" font-size="11.00" fill="#000000">int4[10]</text>
<polygon fill="none" stroke="#000000" points="288.5,-213.2 288.5,-235.2 467.5,-235.2 467.5,-213.2 288.5,-213.2"/>
<image xlink:href="../../images/foreignKeys.png" width="11px" height="12px" preserveAspectRatio="xMinYMin meet" x="293.5" y="-230.2"/>
<text text-anchor="start" x="308.5" y="-220.3" font-family="Helvetica,sans-Serif" font-size="11.00" fill="#000000">estabelecimento_cloud_id</text>
<polygon fill="none" stroke="#000000" points="467.5,-213.2 467.5,-235.2 637.5,-235.2 637.5,-213.2 467.5,-213.2"/>
<text text-anchor="start" x="470.5" y="-220.9" font-family="Helvetica,sans-Serif" font-size="11.00" fill="#000000">int4[10]</text>
<polygon fill="none" stroke="#000000" points="288.5,-191.2 288.5,-213.2 467.5,-213.2 467.5,-191.2 288.5,-191.2"/>
<image xlink:href="../../images/foreignKeys.png" width="11px" height="12px" preserveAspectRatio="xMinYMin meet" x="293.5" y="-208.2"/>
<text text-anchor="start" x="308.5" y="-198.3" font-family="Helvetica,sans-Serif" font-size="11.00" fill="#000000">ano_letivo_origem_id</text>
<polygon fill="none" stroke="#000000" points="467.5,-191.2 467.5,-213.2 637.5,-213.2 637.5,-191.2 467.5,-191.2"/>
<text text-anchor="start" x="470.5" y="-198.9" font-family="Helvetica,sans-Serif" font-size="11.00" fill="#000000">int4[10]</text>
<polygon fill="none" stroke="#000000" points="288.5,-169.2 288.5,-191.2 467.5,-191.2 467.5,-169.2 288.5,-169.2"/>
<image xlink:href="../../images/foreignKeys.png" width="11px" height="12px" preserveAspectRatio="xMinYMin meet" x="293.5" y="-186.2"/>
<text text-anchor="start" x="308.5" y="-176.3" font-family="Helvetica,sans-Serif" font-size="11.00" fill="#000000">ano_letivo_cloud_id</text>
<polygon fill="none" stroke="#000000" points="467.5,-169.2 467.5,-191.2 637.5,-191.2 637.5,-169.2 467.5,-169.2"/>
<text text-anchor="start" x="470.5" y="-176.9" font-family="Helvetica,sans-Serif" font-size="11.00" fill="#000000">int4[10]</text>
<polygon fill="none" stroke="#000000" points="288.5,-147.2 288.5,-169.2 467.5,-169.2 467.5,-147.2 288.5,-147.2"/>
<image xlink:href="../../images/foreignKeys.png" width="11px" height="12px" preserveAspectRatio="xMinYMin meet" x="293.5" y="-164.2"/>
<text text-anchor="start" x="308.5" y="-154.3" font-family="Helvetica,sans-Serif" font-size="11.00" fill="#000000">etapa_matriz_origem_id</text>
<polygon fill="none" stroke="#000000" points="467.5,-147.2 467.5,-169.2 637.5,-169.2 637.5,-147.2 467.5,-147.2"/>
<text text-anchor="start" x="470.5" y="-154.9" font-family="Helvetica,sans-Serif" font-size="11.00" fill="#000000">int4[10]</text>
<polygon fill="none" stroke="#000000" points="288.5,-125.2 288.5,-147.2 467.5,-147.2 467.5,-125.2 288.5,-125.2"/>
<image xlink:href="../../images/foreignKeys.png" width="11px" height="12px" preserveAspectRatio="xMinYMin meet" x="293.5" y="-142.2"/>
<text text-anchor="start" x="308.5" y="-132.3" font-family="Helvetica,sans-Serif" font-size="11.00" fill="#000000">etapa_matriz_cloud_id</text>
<polygon fill="none" stroke="#000000" points="467.5,-125.2 467.5,-147.2 637.5,-147.2 637.5,-125.2 467.5,-125.2"/>
<text text-anchor="start" x="470.5" y="-132.9" font-family="Helvetica,sans-Serif" font-size="11.00" fill="#000000">int4[10]</text>
<polygon fill="none" stroke="#000000" points="288.5,-103.2 288.5,-125.2 467.5,-125.2 467.5,-103.2 288.5,-103.2"/>
<text text-anchor="start" x="308.5" y="-110.3" font-family="Helvetica,sans-Serif" font-size="11.00" fill="#000000">turno</text>
<polygon fill="none" stroke="#000000" points="467.5,-103.2 467.5,-125.2 637.5,-125.2 637.5,-103.2 467.5,-103.2"/>
<text text-anchor="start" x="470.4059" y="-110.9" font-family="Helvetica,sans-Serif" font-size="11.00" fill="#000000">&quot;educacao&quot;.&quot;turnos&quot;[2147483647]</text>
<polygon fill="none" stroke="#000000" points="288.5,-81.2 288.5,-103.2 467.5,-103.2 467.5,-81.2 288.5,-81.2"/>
<text text-anchor="start" x="308.5" y="-88.3" font-family="Helvetica,sans-Serif" font-size="11.00" fill="#000000">qtd_vagas</text>
<polygon fill="none" stroke="#000000" points="467.5,-81.2 467.5,-103.2 637.5,-103.2 637.5,-81.2 467.5,-81.2"/>
<text text-anchor="start" x="470.5" y="-88.9" font-family="Helvetica,sans-Serif" font-size="11.00" fill="#000000">int4[10]</text>
<polygon fill="none" stroke="#000000" points="288.5,-59.2 288.5,-81.2 467.5,-81.2 467.5,-59.2 288.5,-59.2"/>
<text text-anchor="start" x="308.5" y="-66.3" font-family="Helvetica,sans-Serif" font-size="11.00" fill="#000000">qtd_vagas_reservadas</text>
<polygon fill="none" stroke="#000000" points="467.5,-59.2 467.5,-81.2 637.5,-81.2 637.5,-59.2 467.5,-59.2"/>
<text text-anchor="start" x="470.5" y="-66.9" font-family="Helvetica,sans-Serif" font-size="11.00" fill="#000000">int4[10]</text>
<polygon fill="#ffffff" stroke="transparent" points="288.5,-40.2 288.5,-59.2 382.5,-59.2 382.5,-40.2 288.5,-40.2"/>
<polygon fill="none" stroke="#000000" points="288.5,-40.2 288.5,-59.2 382.5,-59.2 382.5,-40.2 288.5,-40.2"/>
<text text-anchor="start" x="291.5" y="-46.3" font-family="Helvetica,sans-Serif" font-size="11.00" fill="#000000">&lt; 6</text>
<polygon fill="#ffffff" stroke="transparent" points="382.5,-40.2 382.5,-59.2 467.5,-59.2 467.5,-40.2 382.5,-40.2"/>
<polygon fill="none" stroke="#000000" points="382.5,-40.2 382.5,-59.2 467.5,-59.2 467.5,-40.2 382.5,-40.2"/>
<text text-anchor="start" x="458.3862" y="-46.3" font-family="Helvetica,sans-Serif" font-size="11.00" fill="#000000"> &#160;</text>
<polygon fill="#ffffff" stroke="transparent" points="467.5,-40.2 467.5,-59.2 637.5,-59.2 637.5,-40.2 467.5,-40.2"/>
<polygon fill="none" stroke="#000000" points="467.5,-40.2 467.5,-59.2 637.5,-59.2 637.5,-40.2 467.5,-40.2"/>
<text text-anchor="start" x="618.9053" y="-46.3" font-family="Helvetica,sans-Serif" font-size="11.00" fill="#000000">0 &gt;</text>
<polygon fill="none" stroke="#000000" stroke-width="2" points="287,-39.2 287,-391.2 638,-391.2 638,-39.2 287,-39.2"/>
</a>
</g>
</g>
<!-- inscricao_lista_espera_situacoes -->
<g id="node2" class="node">
<title>inscricao_lista_espera_situacoes</title>
<g id="a_node2"><a xlink:href="../../tables/inscricao_lista_espera_situacoes.html" xlink:title="inscricao_lista_espera_situacoes" target="_top">
<polygon fill="#ffffff" stroke="transparent" points="8,-142.7 8,-225.7 237,-225.7 237,-142.7 8,-142.7"/>
<polygon fill="#f5f5f5" stroke="transparent" points="8.5,-202.2 8.5,-225.2 237.5,-225.2 237.5,-202.2 8.5,-202.2"/>
<polygon fill="none" stroke="#000000" points="8.5,-202.2 8.5,-225.2 237.5,-225.2 237.5,-202.2 8.5,-202.2"/>
<text text-anchor="start" x="13.5" y="-210.8" font-family="Helvetica,sans-Serif" font-weight="bold" font-size="11.00" fill="#000000">inscricao_lista_espera_situacoes</text>
<text text-anchor="start" x="203.0219" y="-210.3" font-family="Helvetica,sans-Serif" font-size="11.00" fill="#000000">[table]</text>
<polygon fill="none" stroke="#000000" points="8.5,-180.2 8.5,-202.2 237.5,-202.2 237.5,-180.2 8.5,-180.2"/>
<image xlink:href="../../images/primaryKeys.png" width="11px" height="12px" preserveAspectRatio="xMinYMin meet" x="13.5" y="-197.2"/>
<text text-anchor="start" x="37.5" y="-187.3" font-family="Helvetica,sans-Serif" font-size="11.00" fill="#000000">id</text>
<polygon fill="none" stroke="#000000" points="8.5,-161.2 8.5,-180.2 237.5,-180.2 237.5,-161.2 8.5,-161.2"/>
<text text-anchor="start" x="11.5" y="-167.3" font-family="Helvetica,sans-Serif" font-size="11.00" fill="#000000">...</text>
<polygon fill="#ffffff" stroke="transparent" points="8.5,-142.2 8.5,-161.2 106.5,-161.2 106.5,-142.2 8.5,-142.2"/>
<polygon fill="none" stroke="#000000" points="8.5,-142.2 8.5,-161.2 106.5,-161.2 106.5,-142.2 8.5,-142.2"/>
<text text-anchor="start" x="11.5" y="-148.3" font-family="Helvetica,sans-Serif" font-size="11.00" fill="#000000"> &#160;</text>
<polygon fill="#ffffff" stroke="transparent" points="106.5,-142.2 106.5,-161.2 161.5,-161.2 161.5,-142.2 106.5,-142.2"/>
<polygon fill="none" stroke="#000000" points="106.5,-142.2 106.5,-161.2 161.5,-161.2 161.5,-142.2 106.5,-142.2"/>
<text text-anchor="start" x="152.3862" y="-148.3" font-family="Helvetica,sans-Serif" font-size="11.00" fill="#000000"> &#160;</text>
<polygon fill="#ffffff" stroke="transparent" points="161.5,-142.2 161.5,-161.2 237.5,-161.2 237.5,-142.2 161.5,-142.2"/>
<polygon fill="none" stroke="#000000" points="161.5,-142.2 161.5,-161.2 237.5,-161.2 237.5,-142.2 161.5,-142.2"/>
<text text-anchor="start" x="206.6755" y="-148.3" font-family="Helvetica,sans-Serif" font-size="11.00" fill="#000000">596 &gt;</text>
</a>
</g>
</g>
<!-- quadro_vagas&#45;&gt;inscricao_lista_espera_situacoes -->
<g id="edge1" class="edge">
<title>quadro_vagas:w&#45;&gt;inscricao_lista_espera_situacoes:e</title>
<path fill="none" stroke="#000000" stroke-dasharray="5,2" d="M274.0097,-181.9188C261.8398,-185.0125 254.8909,-191.2 237.5,-191.2"/>
<polygon fill="#000000" stroke="#000000" points="280.5557,-181.1424 288.9241,-183.7749 284.5278,-180.6712 288.5,-180.2 288.5,-180.2 288.5,-180.2 284.5278,-180.6712 288.0759,-176.6251 280.5557,-181.1424 280.5557,-181.1424"/>
<ellipse fill="none" stroke="#000000" cx="277.378" cy="-181.5193" rx="3.2" ry="3.2"/>
</g>
<!-- quadro_vagas&#45;&gt;inscricao_lista_espera_situacoes -->
<g id="edge2" class="edge">
<title>quadro_vagas:w&#45;&gt;inscricao_lista_espera_situacoes:e</title>
<path fill="none" stroke="#000000" stroke-dasharray="5,2" d="M274.0097,-200.4813C261.8398,-197.3875 254.8909,-191.2 237.5,-191.2"/>
<polygon fill="#000000" stroke="#000000" points="280.5557,-201.2576 288.0759,-205.7749 284.5278,-201.7288 288.5,-202.2 288.5,-202.2 288.5,-202.2 284.5278,-201.7288 288.9241,-198.6251 280.5557,-201.2576 280.5557,-201.2576"/>
<ellipse fill="none" stroke="#000000" cx="277.378" cy="-200.8807" rx="3.2" ry="3.2"/>
</g>
<!-- quadro_vagas&#45;&gt;inscricao_lista_espera_situacoes -->
<g id="edge3" class="edge">
<title>quadro_vagas:w&#45;&gt;inscricao_lista_espera_situacoes:e</title>
<path fill="none" stroke="#000000" stroke-dasharray="5,2" d="M274.4604,-220.1536C261.3775,-211.3416 258.5921,-191.2 237.5,-191.2"/>
<polygon fill="#000000" stroke="#000000" points="280.8129,-221.9844 287.503,-227.6592 284.6565,-223.0922 288.5,-224.2 288.5,-224.2 288.5,-224.2 284.6565,-223.0922 289.497,-220.7408 280.8129,-221.9844 280.8129,-221.9844"/>
<ellipse fill="none" stroke="#000000" cx="277.7381" cy="-221.0982" rx="3.2" ry="3.2"/>
</g>
<!-- quadro_vagas&#45;&gt;inscricao_lista_espera_situacoes -->
<g id="edge4" class="edge">
<title>quadro_vagas:w&#45;&gt;inscricao_lista_espera_situacoes:e</title>
<path fill="none" stroke="#000000" stroke-dasharray="5,2" d="M274.7081,-241.5107C259.2137,-228.2102 264.8462,-191.2 237.5,-191.2"/>
<polygon fill="#000000" stroke="#000000" points="280.9258,-243.6247 287.3411,-249.6084 284.7129,-244.9124 288.5,-246.2 288.5,-246.2 288.5,-246.2 284.7129,-244.9124 289.6589,-242.7916 280.9258,-243.6247 280.9258,-243.6247"/>
<ellipse fill="none" stroke="#000000" cx="277.8961" cy="-242.5946" rx="3.2" ry="3.2"/>
</g>
<!-- quadro_vagas&#45;&gt;inscricao_lista_espera_situacoes -->
<g id="edge5" class="edge">
<title>quadro_vagas:w&#45;&gt;inscricao_lista_espera_situacoes:e</title>
<path fill="none" stroke="#000000" stroke-dasharray="5,2" d="M274.7081,-140.8893C259.2137,-154.1898 264.8462,-191.2 237.5,-191.2"/>
<polygon fill="#000000" stroke="#000000" points="280.9258,-138.7753 289.6589,-139.6084 284.7129,-137.4876 288.5,-136.2 288.5,-136.2 288.5,-136.2 284.7129,-137.4876 287.3411,-132.7916 280.9258,-138.7753 280.9258,-138.7753"/>
<ellipse fill="none" stroke="#000000" cx="277.8961" cy="-139.8054" rx="3.2" ry="3.2"/>
</g>
<!-- quadro_vagas&#45;&gt;inscricao_lista_espera_situacoes -->
<g id="edge6" class="edge">
<title>quadro_vagas:w&#45;&gt;inscricao_lista_espera_situacoes:e</title>
<path fill="none" stroke="#000000" stroke-dasharray="5,2" d="M274.4604,-162.2464C261.3775,-171.0584 258.5921,-191.2 237.5,-191.2"/>
<polygon fill="#000000" stroke="#000000" points="280.8129,-160.4156 289.497,-161.6592 284.6565,-159.3078 288.5,-158.2 288.5,-158.2 288.5,-158.2 284.6565,-159.3078 287.503,-154.7408 280.8129,-160.4156 280.8129,-160.4156"/>
<ellipse fill="none" stroke="#000000" cx="277.7381" cy="-161.3018" rx="3.2" ry="3.2"/>
</g>
</g>
</svg>
