<?xml version="1.0" encoding="UTF-8" standalone="no"?>
<!DOCTYPE svg PUBLIC "-//W3C//DTD SVG 1.1//EN"
 "http://www.w3.org/Graphics/SVG/1.1/DTD/svg11.dtd">
<!-- Generated by graphviz version 2.40.1 (20161225.0304)
 -->
<!-- Title: oneDegreeRelationshipsDiagramImplied Pages: 1 -->
<svg width="605pt" height="338pt"
 viewBox="0.00 0.00 605.00 338.20" xmlns="http://www.w3.org/2000/svg" xmlns:xlink="http://www.w3.org/1999/xlink">
<g id="graph0" class="graph" transform="scale(1 1) rotate(0) translate(4 334.2)">
<title>oneDegreeRelationshipsDiagramImplied</title>
<polygon fill="#ffffff" stroke="transparent" points="-4,4 -4,-334.2 601,-334.2 601,4 -4,4"/>
<text text-anchor="middle" x="72.4936" y="-7.3" font-family="Helvetica,sans-Serif" font-size="11.00" fill="#000000">Generated by SchemaSpy</text>
<!-- registros_faltas_dias -->
<g id="node1" class="node">
<title>registros_faltas_dias</title>
<g id="a_node1"><a xlink:href="../../tables/registros_faltas_dias.html" xlink:title="registros_faltas_dias" target="_top">
<polygon fill="#ffffff" stroke="transparent" points="286,-38.2 286,-326.2 589,-326.2 589,-38.2 286,-38.2"/>
<polygon fill="#f5f5f5" stroke="transparent" points="288.5,-301.2 288.5,-324.2 587.5,-324.2 587.5,-301.2 288.5,-301.2"/>
<polygon fill="none" stroke="#000000" points="288.5,-301.2 288.5,-324.2 587.5,-324.2 587.5,-301.2 288.5,-301.2"/>
<text text-anchor="start" x="293.5" y="-309.8" font-family="Helvetica,sans-Serif" font-weight="bold" font-size="11.00" fill="#000000">registros_faltas_dias</text>
<text text-anchor="start" x="552.5437" y="-309.3" font-family="Helvetica,sans-Serif" font-size="11.00" fill="#000000">[table]</text>
<polygon fill="none" stroke="#000000" points="288.5,-279.2 288.5,-301.2 478.5,-301.2 478.5,-279.2 288.5,-279.2"/>
<text text-anchor="start" x="308.5" y="-286.3" font-family="Helvetica,sans-Serif" font-size="11.00" fill="#000000">sistema</text>
<polygon fill="none" stroke="#000000" points="478.5,-279.2 478.5,-301.2 587.5,-301.2 587.5,-279.2 478.5,-279.2"/>
<text text-anchor="start" x="481.5" y="-286.9" font-family="Helvetica,sans-Serif" font-size="11.00" fill="#000000">int4[10]</text>
<polygon fill="none" stroke="#000000" points="288.5,-257.2 288.5,-279.2 478.5,-279.2 478.5,-257.2 288.5,-257.2"/>
<text text-anchor="start" x="308.5" y="-264.3" font-family="Helvetica,sans-Serif" font-size="11.00" fill="#000000">tipo_registro</text>
<polygon fill="none" stroke="#000000" points="478.5,-257.2 478.5,-279.2 587.5,-279.2 587.5,-257.2 478.5,-257.2"/>
<text text-anchor="start" x="481.5" y="-264.9" font-family="Helvetica,sans-Serif" font-size="11.00" fill="#000000">text[2147483647]</text>
<polygon fill="none" stroke="#000000" points="288.5,-235.2 288.5,-257.2 478.5,-257.2 478.5,-235.2 288.5,-235.2"/>
<text text-anchor="start" x="308.5" y="-242.3" font-family="Helvetica,sans-Serif" font-size="11.00" fill="#000000">id_integracao</text>
<polygon fill="none" stroke="#000000" points="478.5,-235.2 478.5,-257.2 587.5,-257.2 587.5,-235.2 478.5,-235.2"/>
<text text-anchor="start" x="481.0344" y="-242.9" font-family="Helvetica,sans-Serif" font-size="11.00" fill="#000000">varchar[2147483647]</text>
<polygon fill="none" stroke="#000000" points="288.5,-213.2 288.5,-235.2 478.5,-235.2 478.5,-213.2 288.5,-213.2"/>
<text text-anchor="start" x="308.5" y="-220.3" font-family="Helvetica,sans-Serif" font-size="11.00" fill="#000000">id_origem</text>
<polygon fill="none" stroke="#000000" points="478.5,-213.2 478.5,-235.2 587.5,-235.2 587.5,-213.2 478.5,-213.2"/>
<text text-anchor="start" x="481.5" y="-220.9" font-family="Helvetica,sans-Serif" font-size="11.00" fill="#000000">int4[10]</text>
<polygon fill="none" stroke="#000000" points="288.5,-191.2 288.5,-213.2 478.5,-213.2 478.5,-191.2 288.5,-191.2"/>
<text text-anchor="start" x="308.5" y="-198.3" font-family="Helvetica,sans-Serif" font-size="11.00" fill="#000000">id_cloud</text>
<polygon fill="none" stroke="#000000" points="478.5,-191.2 478.5,-213.2 587.5,-213.2 587.5,-191.2 478.5,-191.2"/>
<text text-anchor="start" x="481.5" y="-198.9" font-family="Helvetica,sans-Serif" font-size="11.00" fill="#000000">int4[10]</text>
<polygon fill="none" stroke="#000000" points="288.5,-169.2 288.5,-191.2 478.5,-191.2 478.5,-169.2 288.5,-169.2"/>
<image xlink:href="../../images/foreignKeys.png" width="11px" height="12px" preserveAspectRatio="xMinYMin meet" x="293.5" y="-186.2"/>
<text text-anchor="start" x="308.5" y="-176.3" font-family="Helvetica,sans-Serif" font-size="11.00" fill="#000000">enturmacao_origem_id</text>
<polygon fill="none" stroke="#000000" points="478.5,-169.2 478.5,-191.2 587.5,-191.2 587.5,-169.2 478.5,-169.2"/>
<text text-anchor="start" x="481.5" y="-176.9" font-family="Helvetica,sans-Serif" font-size="11.00" fill="#000000">int4[10]</text>
<polygon fill="none" stroke="#000000" points="288.5,-147.2 288.5,-169.2 478.5,-169.2 478.5,-147.2 288.5,-147.2"/>
<image xlink:href="../../images/foreignKeys.png" width="11px" height="12px" preserveAspectRatio="xMinYMin meet" x="293.5" y="-164.2"/>
<text text-anchor="start" x="308.5" y="-154.3" font-family="Helvetica,sans-Serif" font-size="11.00" fill="#000000">enturmacao_cloud_id</text>
<polygon fill="none" stroke="#000000" points="478.5,-147.2 478.5,-169.2 587.5,-169.2 587.5,-147.2 478.5,-147.2"/>
<text text-anchor="start" x="481.5" y="-154.9" font-family="Helvetica,sans-Serif" font-size="11.00" fill="#000000">int4[10]</text>
<polygon fill="none" stroke="#000000" points="288.5,-125.2 288.5,-147.2 478.5,-147.2 478.5,-125.2 288.5,-125.2"/>
<image xlink:href="../../images/foreignKeys.png" width="11px" height="12px" preserveAspectRatio="xMinYMin meet" x="293.5" y="-142.2"/>
<text text-anchor="start" x="308.5" y="-132.3" font-family="Helvetica,sans-Serif" font-size="11.00" fill="#000000">periodo_avaliativo_origem_id</text>
<polygon fill="none" stroke="#000000" points="478.5,-125.2 478.5,-147.2 587.5,-147.2 587.5,-125.2 478.5,-125.2"/>
<text text-anchor="start" x="481.5" y="-132.9" font-family="Helvetica,sans-Serif" font-size="11.00" fill="#000000">int4[10]</text>
<polygon fill="none" stroke="#000000" points="288.5,-103.2 288.5,-125.2 478.5,-125.2 478.5,-103.2 288.5,-103.2"/>
<image xlink:href="../../images/foreignKeys.png" width="11px" height="12px" preserveAspectRatio="xMinYMin meet" x="293.5" y="-120.2"/>
<text text-anchor="start" x="308.5" y="-110.3" font-family="Helvetica,sans-Serif" font-size="11.00" fill="#000000">periodo_avaliativo_cloud_id</text>
<polygon fill="none" stroke="#000000" points="478.5,-103.2 478.5,-125.2 587.5,-125.2 587.5,-103.2 478.5,-103.2"/>
<text text-anchor="start" x="481.5" y="-110.9" font-family="Helvetica,sans-Serif" font-size="11.00" fill="#000000">int4[10]</text>
<polygon fill="none" stroke="#000000" points="288.5,-81.2 288.5,-103.2 478.5,-103.2 478.5,-81.2 288.5,-81.2"/>
<text text-anchor="start" x="308.5" y="-88.3" font-family="Helvetica,sans-Serif" font-size="11.00" fill="#000000">data</text>
<polygon fill="none" stroke="#000000" points="478.5,-81.2 478.5,-103.2 587.5,-103.2 587.5,-81.2 478.5,-81.2"/>
<text text-anchor="start" x="481.5" y="-88.9" font-family="Helvetica,sans-Serif" font-size="11.00" fill="#000000">date[13]</text>
<polygon fill="none" stroke="#000000" points="288.5,-59.2 288.5,-81.2 478.5,-81.2 478.5,-59.2 288.5,-59.2"/>
<text text-anchor="start" x="308.5" y="-66.3" font-family="Helvetica,sans-Serif" font-size="11.00" fill="#000000">justificado</text>
<polygon fill="none" stroke="#000000" points="478.5,-59.2 478.5,-81.2 587.5,-81.2 587.5,-59.2 478.5,-59.2"/>
<text text-anchor="start" x="481.5" y="-66.9" font-family="Helvetica,sans-Serif" font-size="11.00" fill="#000000">bool[1]</text>
<polygon fill="#ffffff" stroke="transparent" points="288.5,-40.2 288.5,-59.2 387.5,-59.2 387.5,-40.2 288.5,-40.2"/>
<polygon fill="none" stroke="#000000" points="288.5,-40.2 288.5,-59.2 387.5,-59.2 387.5,-40.2 288.5,-40.2"/>
<text text-anchor="start" x="291.5" y="-46.3" font-family="Helvetica,sans-Serif" font-size="11.00" fill="#000000">&lt; 4</text>
<polygon fill="#ffffff" stroke="transparent" points="387.5,-40.2 387.5,-59.2 478.5,-59.2 478.5,-40.2 387.5,-40.2"/>
<polygon fill="none" stroke="#000000" points="387.5,-40.2 387.5,-59.2 478.5,-59.2 478.5,-40.2 387.5,-40.2"/>
<text text-anchor="start" x="469.3862" y="-46.3" font-family="Helvetica,sans-Serif" font-size="11.00" fill="#000000"> &#160;</text>
<polygon fill="#ffffff" stroke="transparent" points="478.5,-40.2 478.5,-59.2 587.5,-59.2 587.5,-40.2 478.5,-40.2"/>
<polygon fill="none" stroke="#000000" points="478.5,-40.2 478.5,-59.2 587.5,-59.2 587.5,-40.2 478.5,-40.2"/>
<text text-anchor="start" x="568.9053" y="-46.3" font-family="Helvetica,sans-Serif" font-size="11.00" fill="#000000">0 &gt;</text>
<polygon fill="none" stroke="#000000" stroke-width="2" points="287,-39.2 287,-325.2 588,-325.2 588,-39.2 287,-39.2"/>
</a>
</g>
</g>
<!-- inscricao_lista_espera_situacoes -->
<g id="node2" class="node">
<title>inscricao_lista_espera_situacoes</title>
<g id="a_node2"><a xlink:href="../../tables/inscricao_lista_espera_situacoes.html" xlink:title="inscricao_lista_espera_situacoes" target="_top">
<polygon fill="#ffffff" stroke="transparent" points="8,-98.7 8,-181.7 237,-181.7 237,-98.7 8,-98.7"/>
<polygon fill="#f5f5f5" stroke="transparent" points="8.5,-158.2 8.5,-181.2 237.5,-181.2 237.5,-158.2 8.5,-158.2"/>
<polygon fill="none" stroke="#000000" points="8.5,-158.2 8.5,-181.2 237.5,-181.2 237.5,-158.2 8.5,-158.2"/>
<text text-anchor="start" x="13.5" y="-166.8" font-family="Helvetica,sans-Serif" font-weight="bold" font-size="11.00" fill="#000000">inscricao_lista_espera_situacoes</text>
<text text-anchor="start" x="203.0219" y="-166.3" font-family="Helvetica,sans-Serif" font-size="11.00" fill="#000000">[table]</text>
<polygon fill="none" stroke="#000000" points="8.5,-136.2 8.5,-158.2 237.5,-158.2 237.5,-136.2 8.5,-136.2"/>
<image xlink:href="../../images/primaryKeys.png" width="11px" height="12px" preserveAspectRatio="xMinYMin meet" x="13.5" y="-153.2"/>
<text text-anchor="start" x="37.5" y="-143.3" font-family="Helvetica,sans-Serif" font-size="11.00" fill="#000000">id</text>
<polygon fill="none" stroke="#000000" points="8.5,-117.2 8.5,-136.2 237.5,-136.2 237.5,-117.2 8.5,-117.2"/>
<text text-anchor="start" x="11.5" y="-123.3" font-family="Helvetica,sans-Serif" font-size="11.00" fill="#000000">...</text>
<polygon fill="#ffffff" stroke="transparent" points="8.5,-98.2 8.5,-117.2 106.5,-117.2 106.5,-98.2 8.5,-98.2"/>
<polygon fill="none" stroke="#000000" points="8.5,-98.2 8.5,-117.2 106.5,-117.2 106.5,-98.2 8.5,-98.2"/>
<text text-anchor="start" x="11.5" y="-104.3" font-family="Helvetica,sans-Serif" font-size="11.00" fill="#000000"> &#160;</text>
<polygon fill="#ffffff" stroke="transparent" points="106.5,-98.2 106.5,-117.2 161.5,-117.2 161.5,-98.2 106.5,-98.2"/>
<polygon fill="none" stroke="#000000" points="106.5,-98.2 106.5,-117.2 161.5,-117.2 161.5,-98.2 106.5,-98.2"/>
<text text-anchor="start" x="152.3862" y="-104.3" font-family="Helvetica,sans-Serif" font-size="11.00" fill="#000000"> &#160;</text>
<polygon fill="#ffffff" stroke="transparent" points="161.5,-98.2 161.5,-117.2 237.5,-117.2 237.5,-98.2 161.5,-98.2"/>
<polygon fill="none" stroke="#000000" points="161.5,-98.2 161.5,-117.2 237.5,-117.2 237.5,-98.2 161.5,-98.2"/>
<text text-anchor="start" x="206.6755" y="-104.3" font-family="Helvetica,sans-Serif" font-size="11.00" fill="#000000">596 &gt;</text>
</a>
</g>
</g>
<!-- registros_faltas_dias&#45;&gt;inscricao_lista_espera_situacoes -->
<g id="edge1" class="edge">
<title>registros_faltas_dias:w&#45;&gt;inscricao_lista_espera_situacoes:e</title>
<path fill="none" stroke="#000000" stroke-dasharray="5,2" d="M274.0097,-156.4813C261.8398,-153.3875 254.8909,-147.2 237.5,-147.2"/>
<polygon fill="#000000" stroke="#000000" points="280.5557,-157.2576 288.0759,-161.7749 284.5278,-157.7288 288.5,-158.2 288.5,-158.2 288.5,-158.2 284.5278,-157.7288 288.9241,-154.6251 280.5557,-157.2576 280.5557,-157.2576"/>
<ellipse fill="none" stroke="#000000" cx="277.378" cy="-156.8807" rx="3.2" ry="3.2"/>
</g>
<!-- registros_faltas_dias&#45;&gt;inscricao_lista_espera_situacoes -->
<g id="edge2" class="edge">
<title>registros_faltas_dias:w&#45;&gt;inscricao_lista_espera_situacoes:e</title>
<path fill="none" stroke="#000000" stroke-dasharray="5,2" d="M274.4604,-176.1536C261.3775,-167.3416 258.5921,-147.2 237.5,-147.2"/>
<polygon fill="#000000" stroke="#000000" points="280.8129,-177.9844 287.503,-183.6592 284.6565,-179.0922 288.5,-180.2 288.5,-180.2 288.5,-180.2 284.6565,-179.0922 289.497,-176.7408 280.8129,-177.9844 280.8129,-177.9844"/>
<ellipse fill="none" stroke="#000000" cx="277.7381" cy="-177.0982" rx="3.2" ry="3.2"/>
</g>
<!-- registros_faltas_dias&#45;&gt;inscricao_lista_espera_situacoes -->
<g id="edge3" class="edge">
<title>registros_faltas_dias:w&#45;&gt;inscricao_lista_espera_situacoes:e</title>
<path fill="none" stroke="#000000" stroke-dasharray="5,2" d="M274.4604,-118.2464C261.3775,-127.0584 258.5921,-147.2 237.5,-147.2"/>
<polygon fill="#000000" stroke="#000000" points="280.8129,-116.4156 289.497,-117.6592 284.6565,-115.3078 288.5,-114.2 288.5,-114.2 288.5,-114.2 284.6565,-115.3078 287.503,-110.7408 280.8129,-116.4156 280.8129,-116.4156"/>
<ellipse fill="none" stroke="#000000" cx="277.7381" cy="-117.3018" rx="3.2" ry="3.2"/>
</g>
<!-- registros_faltas_dias&#45;&gt;inscricao_lista_espera_situacoes -->
<g id="edge4" class="edge">
<title>registros_faltas_dias:w&#45;&gt;inscricao_lista_espera_situacoes:e</title>
<path fill="none" stroke="#000000" stroke-dasharray="5,2" d="M274.0097,-137.9188C261.8398,-141.0125 254.8909,-147.2 237.5,-147.2"/>
<polygon fill="#000000" stroke="#000000" points="280.5557,-137.1424 288.9241,-139.7749 284.5278,-136.6712 288.5,-136.2 288.5,-136.2 288.5,-136.2 284.5278,-136.6712 288.0759,-132.6251 280.5557,-137.1424 280.5557,-137.1424"/>
<ellipse fill="none" stroke="#000000" cx="277.378" cy="-137.5193" rx="3.2" ry="3.2"/>
</g>
</g>
</svg>
