<?xml version="1.0" encoding="UTF-8" standalone="no"?>
<!DOCTYPE svg PUBLIC "-//W3C//DTD SVG 1.1//EN"
 "http://www.w3.org/Graphics/SVG/1.1/DTD/svg11.dtd">
<!-- Generated by graphviz version 2.40.1 (20161225.0304)
 -->
<!-- Title: oneDegreeRelationshipsDiagram Pages: 1 -->
<svg width="429pt" height="602pt"
 viewBox="0.00 0.00 429.00 602.20" xmlns="http://www.w3.org/2000/svg" xmlns:xlink="http://www.w3.org/1999/xlink">
<g id="graph0" class="graph" transform="scale(1 1) rotate(0) translate(4 598.2)">
<title>oneDegreeRelationshipsDiagram</title>
<polygon fill="#ffffff" stroke="transparent" points="-4,4 -4,-598.2 425,-598.2 425,4 -4,4"/>
<text text-anchor="middle" x="72.4936" y="-7.3" font-family="Helvetica,sans-Serif" font-size="11.00" fill="#000000">Generated by SchemaSpy</text>
<!-- registros_faltas_aulas -->
<g id="node1" class="node">
<title>registros_faltas_aulas</title>
<g id="a_node1"><a xlink:href="../../tables/registros_faltas_aulas.html" xlink:title="registros_faltas_aulas" target="_top">
<polygon fill="#ffffff" stroke="transparent" points="8,-38.2 8,-590.2 413,-590.2 413,-38.2 8,-38.2"/>
<polygon fill="#f5f5f5" stroke="transparent" points="10.5,-565.2 10.5,-588.2 411.5,-588.2 411.5,-565.2 10.5,-565.2"/>
<polygon fill="none" stroke="#000000" points="10.5,-565.2 10.5,-588.2 411.5,-588.2 411.5,-565.2 10.5,-565.2"/>
<text text-anchor="start" x="15.5" y="-573.8" font-family="Helvetica,sans-Serif" font-weight="bold" font-size="11.00" fill="#000000">registros_faltas_aulas</text>
<text text-anchor="start" x="376.5437" y="-573.3" font-family="Helvetica,sans-Serif" font-size="11.00" fill="#000000">[table]</text>
<polygon fill="none" stroke="#000000" points="10.5,-543.2 10.5,-565.2 200.5,-565.2 200.5,-543.2 10.5,-543.2"/>
<text text-anchor="start" x="30.5" y="-550.3" font-family="Helvetica,sans-Serif" font-size="11.00" fill="#000000">sistema</text>
<polygon fill="none" stroke="#000000" points="200.5,-543.2 200.5,-565.2 411.5,-565.2 411.5,-543.2 200.5,-543.2"/>
<text text-anchor="start" x="203.5" y="-550.9" font-family="Helvetica,sans-Serif" font-size="11.00" fill="#000000">int4[10]</text>
<polygon fill="none" stroke="#000000" points="10.5,-521.2 10.5,-543.2 200.5,-543.2 200.5,-521.2 10.5,-521.2"/>
<text text-anchor="start" x="30.5" y="-528.3" font-family="Helvetica,sans-Serif" font-size="11.00" fill="#000000">tipo_registro</text>
<polygon fill="none" stroke="#000000" points="200.5,-521.2 200.5,-543.2 411.5,-543.2 411.5,-521.2 200.5,-521.2"/>
<text text-anchor="start" x="203.5" y="-528.9" font-family="Helvetica,sans-Serif" font-size="11.00" fill="#000000">text[2147483647]</text>
<polygon fill="none" stroke="#000000" points="10.5,-499.2 10.5,-521.2 200.5,-521.2 200.5,-499.2 10.5,-499.2"/>
<text text-anchor="start" x="30.5" y="-506.3" font-family="Helvetica,sans-Serif" font-size="11.00" fill="#000000">id_integracao</text>
<polygon fill="none" stroke="#000000" points="200.5,-499.2 200.5,-521.2 411.5,-521.2 411.5,-499.2 200.5,-499.2"/>
<text text-anchor="start" x="203.5" y="-506.9" font-family="Helvetica,sans-Serif" font-size="11.00" fill="#000000">varchar[2147483647]</text>
<polygon fill="none" stroke="#000000" points="10.5,-477.2 10.5,-499.2 200.5,-499.2 200.5,-477.2 10.5,-477.2"/>
<text text-anchor="start" x="30.5" y="-484.3" font-family="Helvetica,sans-Serif" font-size="11.00" fill="#000000">id_origem</text>
<polygon fill="none" stroke="#000000" points="200.5,-477.2 200.5,-499.2 411.5,-499.2 411.5,-477.2 200.5,-477.2"/>
<text text-anchor="start" x="203.5" y="-484.9" font-family="Helvetica,sans-Serif" font-size="11.00" fill="#000000">int4[10]</text>
<polygon fill="none" stroke="#000000" points="10.5,-455.2 10.5,-477.2 200.5,-477.2 200.5,-455.2 10.5,-455.2"/>
<text text-anchor="start" x="30.5" y="-462.3" font-family="Helvetica,sans-Serif" font-size="11.00" fill="#000000">id_cloud</text>
<polygon fill="none" stroke="#000000" points="200.5,-455.2 200.5,-477.2 411.5,-477.2 411.5,-455.2 200.5,-455.2"/>
<text text-anchor="start" x="203.5" y="-462.9" font-family="Helvetica,sans-Serif" font-size="11.00" fill="#000000">int4[10]</text>
<polygon fill="none" stroke="#000000" points="10.5,-433.2 10.5,-455.2 200.5,-455.2 200.5,-433.2 10.5,-433.2"/>
<image xlink:href="../../images/foreignKeys.png" width="11px" height="12px" preserveAspectRatio="xMinYMin meet" x="15.5" y="-450.2"/>
<text text-anchor="start" x="30.5" y="-440.3" font-family="Helvetica,sans-Serif" font-size="11.00" fill="#000000">enturmacao_origem_id</text>
<polygon fill="none" stroke="#000000" points="200.5,-433.2 200.5,-455.2 411.5,-455.2 411.5,-433.2 200.5,-433.2"/>
<text text-anchor="start" x="203.5" y="-440.9" font-family="Helvetica,sans-Serif" font-size="11.00" fill="#000000">int4[10]</text>
<polygon fill="none" stroke="#000000" points="10.5,-411.2 10.5,-433.2 200.5,-433.2 200.5,-411.2 10.5,-411.2"/>
<image xlink:href="../../images/foreignKeys.png" width="11px" height="12px" preserveAspectRatio="xMinYMin meet" x="15.5" y="-428.2"/>
<text text-anchor="start" x="30.5" y="-418.3" font-family="Helvetica,sans-Serif" font-size="11.00" fill="#000000">enturmacao_cloud_id</text>
<polygon fill="none" stroke="#000000" points="200.5,-411.2 200.5,-433.2 411.5,-433.2 411.5,-411.2 200.5,-411.2"/>
<text text-anchor="start" x="203.5" y="-418.9" font-family="Helvetica,sans-Serif" font-size="11.00" fill="#000000">int4[10]</text>
<polygon fill="none" stroke="#000000" points="10.5,-389.2 10.5,-411.2 200.5,-411.2 200.5,-389.2 10.5,-389.2"/>
<image xlink:href="../../images/foreignKeys.png" width="11px" height="12px" preserveAspectRatio="xMinYMin meet" x="15.5" y="-406.2"/>
<text text-anchor="start" x="30.5" y="-396.3" font-family="Helvetica,sans-Serif" font-size="11.00" fill="#000000">alocacao_aula_origem_id</text>
<polygon fill="none" stroke="#000000" points="200.5,-389.2 200.5,-411.2 411.5,-411.2 411.5,-389.2 200.5,-389.2"/>
<text text-anchor="start" x="203.5" y="-396.9" font-family="Helvetica,sans-Serif" font-size="11.00" fill="#000000">int4[10]</text>
<polygon fill="none" stroke="#000000" points="10.5,-367.2 10.5,-389.2 200.5,-389.2 200.5,-367.2 10.5,-367.2"/>
<image xlink:href="../../images/foreignKeys.png" width="11px" height="12px" preserveAspectRatio="xMinYMin meet" x="15.5" y="-384.2"/>
<text text-anchor="start" x="30.5" y="-374.3" font-family="Helvetica,sans-Serif" font-size="11.00" fill="#000000">alocacao_aula_cloud_id</text>
<polygon fill="none" stroke="#000000" points="200.5,-367.2 200.5,-389.2 411.5,-389.2 411.5,-367.2 200.5,-367.2"/>
<text text-anchor="start" x="203.5" y="-374.9" font-family="Helvetica,sans-Serif" font-size="11.00" fill="#000000">int4[10]</text>
<polygon fill="none" stroke="#000000" points="10.5,-345.2 10.5,-367.2 200.5,-367.2 200.5,-345.2 10.5,-345.2"/>
<image xlink:href="../../images/foreignKeys.png" width="11px" height="12px" preserveAspectRatio="xMinYMin meet" x="15.5" y="-362.2"/>
<text text-anchor="start" x="30.5" y="-352.3" font-family="Helvetica,sans-Serif" font-size="11.00" fill="#000000">item_educacional_origem_id</text>
<polygon fill="none" stroke="#000000" points="200.5,-345.2 200.5,-367.2 411.5,-367.2 411.5,-345.2 200.5,-345.2"/>
<text text-anchor="start" x="203.5" y="-352.9" font-family="Helvetica,sans-Serif" font-size="11.00" fill="#000000">int4[10]</text>
<polygon fill="none" stroke="#000000" points="10.5,-323.2 10.5,-345.2 200.5,-345.2 200.5,-323.2 10.5,-323.2"/>
<image xlink:href="../../images/foreignKeys.png" width="11px" height="12px" preserveAspectRatio="xMinYMin meet" x="15.5" y="-340.2"/>
<text text-anchor="start" x="30.5" y="-330.3" font-family="Helvetica,sans-Serif" font-size="11.00" fill="#000000">item_educacional_cloud_id</text>
<polygon fill="none" stroke="#000000" points="200.5,-323.2 200.5,-345.2 411.5,-345.2 411.5,-323.2 200.5,-323.2"/>
<text text-anchor="start" x="203.5" y="-330.9" font-family="Helvetica,sans-Serif" font-size="11.00" fill="#000000">int4[10]</text>
<polygon fill="none" stroke="#000000" points="10.5,-301.2 10.5,-323.2 200.5,-323.2 200.5,-301.2 10.5,-301.2"/>
<image xlink:href="../../images/foreignKeys.png" width="11px" height="12px" preserveAspectRatio="xMinYMin meet" x="15.5" y="-318.2"/>
<text text-anchor="start" x="30.5" y="-308.3" font-family="Helvetica,sans-Serif" font-size="11.00" fill="#000000">periodo_avaliativo_origem_id</text>
<polygon fill="none" stroke="#000000" points="200.5,-301.2 200.5,-323.2 411.5,-323.2 411.5,-301.2 200.5,-301.2"/>
<text text-anchor="start" x="203.5" y="-308.9" font-family="Helvetica,sans-Serif" font-size="11.00" fill="#000000">int4[10]</text>
<polygon fill="none" stroke="#000000" points="10.5,-279.2 10.5,-301.2 200.5,-301.2 200.5,-279.2 10.5,-279.2"/>
<image xlink:href="../../images/foreignKeys.png" width="11px" height="12px" preserveAspectRatio="xMinYMin meet" x="15.5" y="-296.2"/>
<text text-anchor="start" x="30.5" y="-286.3" font-family="Helvetica,sans-Serif" font-size="11.00" fill="#000000">periodo_avaliativo_cloud_id</text>
<polygon fill="none" stroke="#000000" points="200.5,-279.2 200.5,-301.2 411.5,-301.2 411.5,-279.2 200.5,-279.2"/>
<text text-anchor="start" x="203.5" y="-286.9" font-family="Helvetica,sans-Serif" font-size="11.00" fill="#000000">int4[10]</text>
<polygon fill="none" stroke="#000000" points="10.5,-257.2 10.5,-279.2 200.5,-279.2 200.5,-257.2 10.5,-257.2"/>
<text text-anchor="start" x="30.5" y="-264.3" font-family="Helvetica,sans-Serif" font-size="11.00" fill="#000000">inicio_aula</text>
<polygon fill="none" stroke="#000000" points="200.5,-257.2 200.5,-279.2 411.5,-279.2 411.5,-257.2 200.5,-257.2"/>
<text text-anchor="start" x="203.5" y="-264.9" font-family="Helvetica,sans-Serif" font-size="11.00" fill="#000000">time[15,6]</text>
<polygon fill="none" stroke="#000000" points="10.5,-235.2 10.5,-257.2 200.5,-257.2 200.5,-235.2 10.5,-235.2"/>
<text text-anchor="start" x="30.5" y="-242.3" font-family="Helvetica,sans-Serif" font-size="11.00" fill="#000000">fim_aula</text>
<polygon fill="none" stroke="#000000" points="200.5,-235.2 200.5,-257.2 411.5,-257.2 411.5,-235.2 200.5,-235.2"/>
<text text-anchor="start" x="203.5" y="-242.9" font-family="Helvetica,sans-Serif" font-size="11.00" fill="#000000">time[15,6]</text>
<polygon fill="none" stroke="#000000" points="10.5,-213.2 10.5,-235.2 200.5,-235.2 200.5,-213.2 10.5,-213.2"/>
<text text-anchor="start" x="30.5" y="-220.3" font-family="Helvetica,sans-Serif" font-size="11.00" fill="#000000">numero</text>
<polygon fill="none" stroke="#000000" points="200.5,-213.2 200.5,-235.2 411.5,-235.2 411.5,-213.2 200.5,-213.2"/>
<text text-anchor="start" x="203.5" y="-220.9" font-family="Helvetica,sans-Serif" font-size="11.00" fill="#000000">int4[10]</text>
<polygon fill="none" stroke="#000000" points="10.5,-191.2 10.5,-213.2 200.5,-213.2 200.5,-191.2 10.5,-191.2"/>
<text text-anchor="start" x="30.5" y="-198.3" font-family="Helvetica,sans-Serif" font-size="11.00" fill="#000000">dia_semana</text>
<polygon fill="none" stroke="#000000" points="200.5,-191.2 200.5,-213.2 411.5,-213.2 411.5,-191.2 200.5,-191.2"/>
<text text-anchor="start" x="203.4267" y="-198.9" font-family="Helvetica,sans-Serif" font-size="11.00" fill="#000000">&quot;educacao&quot;.&quot;diasdasemana&quot;[2147483647]</text>
<polygon fill="none" stroke="#000000" points="10.5,-169.2 10.5,-191.2 200.5,-191.2 200.5,-169.2 10.5,-169.2"/>
<text text-anchor="start" x="30.5" y="-176.3" font-family="Helvetica,sans-Serif" font-size="11.00" fill="#000000">data</text>
<polygon fill="none" stroke="#000000" points="200.5,-169.2 200.5,-191.2 411.5,-191.2 411.5,-169.2 200.5,-169.2"/>
<text text-anchor="start" x="203.5" y="-176.9" font-family="Helvetica,sans-Serif" font-size="11.00" fill="#000000">date[13]</text>
<polygon fill="none" stroke="#000000" points="10.5,-147.2 10.5,-169.2 200.5,-169.2 200.5,-147.2 10.5,-147.2"/>
<text text-anchor="start" x="30.5" y="-154.3" font-family="Helvetica,sans-Serif" font-size="11.00" fill="#000000">realizada</text>
<polygon fill="none" stroke="#000000" points="200.5,-147.2 200.5,-169.2 411.5,-169.2 411.5,-147.2 200.5,-147.2"/>
<text text-anchor="start" x="203.5" y="-154.9" font-family="Helvetica,sans-Serif" font-size="11.00" fill="#000000">bool[1]</text>
<polygon fill="none" stroke="#000000" points="10.5,-125.2 10.5,-147.2 200.5,-147.2 200.5,-125.2 10.5,-125.2"/>
<image xlink:href="../../images/foreignKeys.png" width="11px" height="12px" preserveAspectRatio="xMinYMin meet" x="15.5" y="-142.2"/>
<text text-anchor="start" x="30.5" y="-132.3" font-family="Helvetica,sans-Serif" font-size="11.00" fill="#000000">servidor_origem_id</text>
<polygon fill="none" stroke="#000000" points="200.5,-125.2 200.5,-147.2 411.5,-147.2 411.5,-125.2 200.5,-125.2"/>
<text text-anchor="start" x="203.5" y="-132.9" font-family="Helvetica,sans-Serif" font-size="11.00" fill="#000000">int4[10]</text>
<polygon fill="none" stroke="#000000" points="10.5,-103.2 10.5,-125.2 200.5,-125.2 200.5,-103.2 10.5,-103.2"/>
<image xlink:href="../../images/foreignKeys.png" width="11px" height="12px" preserveAspectRatio="xMinYMin meet" x="15.5" y="-120.2"/>
<text text-anchor="start" x="30.5" y="-110.3" font-family="Helvetica,sans-Serif" font-size="11.00" fill="#000000">servidor_cloud_id</text>
<polygon fill="none" stroke="#000000" points="200.5,-103.2 200.5,-125.2 411.5,-125.2 411.5,-103.2 200.5,-103.2"/>
<text text-anchor="start" x="203.5" y="-110.9" font-family="Helvetica,sans-Serif" font-size="11.00" fill="#000000">int4[10]</text>
<polygon fill="none" stroke="#000000" points="10.5,-81.2 10.5,-103.2 200.5,-103.2 200.5,-81.2 10.5,-81.2"/>
<image xlink:href="../../images/foreignKeys.png" width="11px" height="12px" preserveAspectRatio="xMinYMin meet" x="15.5" y="-98.2"/>
<text text-anchor="start" x="30.5" y="-88.3" font-family="Helvetica,sans-Serif" font-size="11.00" fill="#000000">turma_origem_id</text>
<polygon fill="none" stroke="#000000" points="200.5,-81.2 200.5,-103.2 411.5,-103.2 411.5,-81.2 200.5,-81.2"/>
<text text-anchor="start" x="203.5" y="-88.9" font-family="Helvetica,sans-Serif" font-size="11.00" fill="#000000">int4[10]</text>
<polygon fill="none" stroke="#000000" points="10.5,-59.2 10.5,-81.2 200.5,-81.2 200.5,-59.2 10.5,-59.2"/>
<image xlink:href="../../images/foreignKeys.png" width="11px" height="12px" preserveAspectRatio="xMinYMin meet" x="15.5" y="-76.2"/>
<text text-anchor="start" x="30.5" y="-66.3" font-family="Helvetica,sans-Serif" font-size="11.00" fill="#000000">turma_cloud_id</text>
<polygon fill="none" stroke="#000000" points="200.5,-59.2 200.5,-81.2 411.5,-81.2 411.5,-59.2 200.5,-59.2"/>
<text text-anchor="start" x="203.5" y="-66.9" font-family="Helvetica,sans-Serif" font-size="11.00" fill="#000000">int4[10]</text>
<polygon fill="#ffffff" stroke="transparent" points="10.5,-40.2 10.5,-59.2 109.5,-59.2 109.5,-40.2 10.5,-40.2"/>
<polygon fill="none" stroke="#000000" points="10.5,-40.2 10.5,-59.2 109.5,-59.2 109.5,-40.2 10.5,-40.2"/>
<text text-anchor="start" x="13.5" y="-46.3" font-family="Helvetica,sans-Serif" font-size="11.00" fill="#000000">&lt; 0</text>
<polygon fill="#ffffff" stroke="transparent" points="109.5,-40.2 109.5,-59.2 200.5,-59.2 200.5,-40.2 109.5,-40.2"/>
<polygon fill="none" stroke="#000000" points="109.5,-40.2 109.5,-59.2 200.5,-59.2 200.5,-40.2 109.5,-40.2"/>
<text text-anchor="start" x="191.3862" y="-46.3" font-family="Helvetica,sans-Serif" font-size="11.00" fill="#000000"> &#160;</text>
<polygon fill="#ffffff" stroke="transparent" points="200.5,-40.2 200.5,-59.2 411.5,-59.2 411.5,-40.2 200.5,-40.2"/>
<polygon fill="none" stroke="#000000" points="200.5,-40.2 200.5,-59.2 411.5,-59.2 411.5,-40.2 200.5,-40.2"/>
<text text-anchor="start" x="392.9053" y="-46.3" font-family="Helvetica,sans-Serif" font-size="11.00" fill="#000000">0 &gt;</text>
<polygon fill="none" stroke="#000000" stroke-width="2" points="9,-39.2 9,-589.2 412,-589.2 412,-39.2 9,-39.2"/>
</a>
</g>
</g>
</g>
</svg>
