<?xml version="1.0" encoding="UTF-8" standalone="no"?>
<!DOCTYPE svg PUBLIC "-//W3C//DTD SVG 1.1//EN"
 "http://www.w3.org/Graphics/SVG/1.1/DTD/svg11.dtd">
<!-- Generated by graphviz version 2.40.1 (20161225.0304)
 -->
<!-- Title: oneDegreeRelationshipsDiagramImplied Pages: 1 -->
<svg width="704pt" height="536pt"
 viewBox="0.00 0.00 704.00 536.20" xmlns="http://www.w3.org/2000/svg" xmlns:xlink="http://www.w3.org/1999/xlink">
<g id="graph0" class="graph" transform="scale(1 1) rotate(0) translate(4 532.2)">
<title>oneDegreeRelationshipsDiagramImplied</title>
<polygon fill="#ffffff" stroke="transparent" points="-4,4 -4,-532.2 700,-532.2 700,4 -4,4"/>
<text text-anchor="middle" x="72.4936" y="-7.3" font-family="Helvetica,sans-Serif" font-size="11.00" fill="#000000">Generated by SchemaSpy</text>
<!-- registros_avaliacoes -->
<g id="node1" class="node">
<title>registros_avaliacoes</title>
<g id="a_node1"><a xlink:href="../../tables/registros_avaliacoes.html" xlink:title="registros_avaliacoes" target="_top">
<polygon fill="#ffffff" stroke="transparent" points="286,-38.2 286,-524.2 688,-524.2 688,-38.2 286,-38.2"/>
<polygon fill="#f5f5f5" stroke="transparent" points="288,-499.2 288,-522.2 686,-522.2 686,-499.2 288,-499.2"/>
<polygon fill="none" stroke="#000000" points="288,-499.2 288,-522.2 686,-522.2 686,-499.2 288,-499.2"/>
<text text-anchor="start" x="293" y="-507.8" font-family="Helvetica,sans-Serif" font-weight="bold" font-size="11.00" fill="#000000">registros_avaliacoes</text>
<text text-anchor="start" x="651.0437" y="-507.3" font-family="Helvetica,sans-Serif" font-size="11.00" fill="#000000">[table]</text>
<polygon fill="none" stroke="#000000" points="288,-477.2 288,-499.2 467,-499.2 467,-477.2 288,-477.2"/>
<text text-anchor="start" x="308" y="-484.3" font-family="Helvetica,sans-Serif" font-size="11.00" fill="#000000">sistema</text>
<polygon fill="none" stroke="#000000" points="467,-477.2 467,-499.2 686,-499.2 686,-477.2 467,-477.2"/>
<text text-anchor="start" x="470" y="-484.9" font-family="Helvetica,sans-Serif" font-size="11.00" fill="#000000">int4[10]</text>
<polygon fill="none" stroke="#000000" points="288,-455.2 288,-477.2 467,-477.2 467,-455.2 288,-455.2"/>
<text text-anchor="start" x="308" y="-462.3" font-family="Helvetica,sans-Serif" font-size="11.00" fill="#000000">tipo_registro</text>
<polygon fill="none" stroke="#000000" points="467,-455.2 467,-477.2 686,-477.2 686,-455.2 467,-455.2"/>
<text text-anchor="start" x="470" y="-462.9" font-family="Helvetica,sans-Serif" font-size="11.00" fill="#000000">text[2147483647]</text>
<polygon fill="none" stroke="#000000" points="288,-433.2 288,-455.2 467,-455.2 467,-433.2 288,-433.2"/>
<text text-anchor="start" x="308" y="-440.3" font-family="Helvetica,sans-Serif" font-size="11.00" fill="#000000">id_integracao</text>
<polygon fill="none" stroke="#000000" points="467,-433.2 467,-455.2 686,-455.2 686,-433.2 467,-433.2"/>
<text text-anchor="start" x="470" y="-440.9" font-family="Helvetica,sans-Serif" font-size="11.00" fill="#000000">varchar[2147483647]</text>
<polygon fill="none" stroke="#000000" points="288,-411.2 288,-433.2 467,-433.2 467,-411.2 288,-411.2"/>
<text text-anchor="start" x="308" y="-418.3" font-family="Helvetica,sans-Serif" font-size="11.00" fill="#000000">id_origem</text>
<polygon fill="none" stroke="#000000" points="467,-411.2 467,-433.2 686,-433.2 686,-411.2 467,-411.2"/>
<text text-anchor="start" x="470" y="-418.9" font-family="Helvetica,sans-Serif" font-size="11.00" fill="#000000">int4[10]</text>
<polygon fill="none" stroke="#000000" points="288,-389.2 288,-411.2 467,-411.2 467,-389.2 288,-389.2"/>
<text text-anchor="start" x="308" y="-396.3" font-family="Helvetica,sans-Serif" font-size="11.00" fill="#000000">id_cloud</text>
<polygon fill="none" stroke="#000000" points="467,-389.2 467,-411.2 686,-411.2 686,-389.2 467,-389.2"/>
<text text-anchor="start" x="470" y="-396.9" font-family="Helvetica,sans-Serif" font-size="11.00" fill="#000000">int4[10]</text>
<polygon fill="none" stroke="#000000" points="288,-367.2 288,-389.2 467,-389.2 467,-367.2 288,-367.2"/>
<image xlink:href="../../images/foreignKeys.png" width="11px" height="12px" preserveAspectRatio="xMinYMin meet" x="293" y="-384.2"/>
<text text-anchor="start" x="308" y="-374.3" font-family="Helvetica,sans-Serif" font-size="11.00" fill="#000000">ano_letivo_origem_id</text>
<polygon fill="none" stroke="#000000" points="467,-367.2 467,-389.2 686,-389.2 686,-367.2 467,-367.2"/>
<text text-anchor="start" x="470" y="-374.9" font-family="Helvetica,sans-Serif" font-size="11.00" fill="#000000">int4[10]</text>
<polygon fill="none" stroke="#000000" points="288,-345.2 288,-367.2 467,-367.2 467,-345.2 288,-345.2"/>
<image xlink:href="../../images/foreignKeys.png" width="11px" height="12px" preserveAspectRatio="xMinYMin meet" x="293" y="-362.2"/>
<text text-anchor="start" x="308" y="-352.3" font-family="Helvetica,sans-Serif" font-size="11.00" fill="#000000">ano_letivo_cloud_id</text>
<polygon fill="none" stroke="#000000" points="467,-345.2 467,-367.2 686,-367.2 686,-345.2 467,-345.2"/>
<text text-anchor="start" x="470" y="-352.9" font-family="Helvetica,sans-Serif" font-size="11.00" fill="#000000">int4[10]</text>
<polygon fill="none" stroke="#000000" points="288,-323.2 288,-345.2 467,-345.2 467,-323.2 288,-323.2"/>
<image xlink:href="../../images/foreignKeys.png" width="11px" height="12px" preserveAspectRatio="xMinYMin meet" x="293" y="-340.2"/>
<text text-anchor="start" x="308" y="-330.3" font-family="Helvetica,sans-Serif" font-size="11.00" fill="#000000">estabelecimento_origem_id</text>
<polygon fill="none" stroke="#000000" points="467,-323.2 467,-345.2 686,-345.2 686,-323.2 467,-323.2"/>
<text text-anchor="start" x="470" y="-330.9" font-family="Helvetica,sans-Serif" font-size="11.00" fill="#000000">int4[10]</text>
<polygon fill="none" stroke="#000000" points="288,-301.2 288,-323.2 467,-323.2 467,-301.2 288,-301.2"/>
<image xlink:href="../../images/foreignKeys.png" width="11px" height="12px" preserveAspectRatio="xMinYMin meet" x="293" y="-318.2"/>
<text text-anchor="start" x="308" y="-308.3" font-family="Helvetica,sans-Serif" font-size="11.00" fill="#000000">estabelecimento_cloud_id</text>
<polygon fill="none" stroke="#000000" points="467,-301.2 467,-323.2 686,-323.2 686,-301.2 467,-301.2"/>
<text text-anchor="start" x="470" y="-308.9" font-family="Helvetica,sans-Serif" font-size="11.00" fill="#000000">int4[10]</text>
<polygon fill="none" stroke="#000000" points="288,-279.2 288,-301.2 467,-301.2 467,-279.2 288,-279.2"/>
<text text-anchor="start" x="308" y="-286.3" font-family="Helvetica,sans-Serif" font-size="11.00" fill="#000000">modo_avaliacao</text>
<polygon fill="none" stroke="#000000" points="467,-279.2 467,-301.2 686,-301.2 686,-279.2 467,-279.2"/>
<text text-anchor="start" x="469.9562" y="-286.9" font-family="Helvetica,sans-Serif" font-size="11.00" fill="#000000">&quot;educacao&quot;.&quot;modosavaliacao&quot;[2147483647]</text>
<polygon fill="none" stroke="#000000" points="288,-257.2 288,-279.2 467,-279.2 467,-257.2 288,-257.2"/>
<image xlink:href="../../images/foreignKeys.png" width="11px" height="12px" preserveAspectRatio="xMinYMin meet" x="293" y="-274.2"/>
<text text-anchor="start" x="308" y="-264.3" font-family="Helvetica,sans-Serif" font-size="11.00" fill="#000000">item_avaliavel_origem_id</text>
<polygon fill="none" stroke="#000000" points="467,-257.2 467,-279.2 686,-279.2 686,-257.2 467,-257.2"/>
<text text-anchor="start" x="470" y="-264.9" font-family="Helvetica,sans-Serif" font-size="11.00" fill="#000000">int4[10]</text>
<polygon fill="none" stroke="#000000" points="288,-235.2 288,-257.2 467,-257.2 467,-235.2 288,-235.2"/>
<image xlink:href="../../images/foreignKeys.png" width="11px" height="12px" preserveAspectRatio="xMinYMin meet" x="293" y="-252.2"/>
<text text-anchor="start" x="308" y="-242.3" font-family="Helvetica,sans-Serif" font-size="11.00" fill="#000000">item_avaliavel_cloud_id</text>
<polygon fill="none" stroke="#000000" points="467,-235.2 467,-257.2 686,-257.2 686,-235.2 467,-235.2"/>
<text text-anchor="start" x="470" y="-242.9" font-family="Helvetica,sans-Serif" font-size="11.00" fill="#000000">int4[10]</text>
<polygon fill="none" stroke="#000000" points="288,-213.2 288,-235.2 467,-235.2 467,-213.2 288,-213.2"/>
<image xlink:href="../../images/foreignKeys.png" width="11px" height="12px" preserveAspectRatio="xMinYMin meet" x="293" y="-230.2"/>
<text text-anchor="start" x="308" y="-220.3" font-family="Helvetica,sans-Serif" font-size="11.00" fill="#000000">enturmacao_origem_id</text>
<polygon fill="none" stroke="#000000" points="467,-213.2 467,-235.2 686,-235.2 686,-213.2 467,-213.2"/>
<text text-anchor="start" x="470" y="-220.9" font-family="Helvetica,sans-Serif" font-size="11.00" fill="#000000">int4[10]</text>
<polygon fill="none" stroke="#000000" points="288,-191.2 288,-213.2 467,-213.2 467,-191.2 288,-191.2"/>
<image xlink:href="../../images/foreignKeys.png" width="11px" height="12px" preserveAspectRatio="xMinYMin meet" x="293" y="-208.2"/>
<text text-anchor="start" x="308" y="-198.3" font-family="Helvetica,sans-Serif" font-size="11.00" fill="#000000">enturmacao_cloud_id</text>
<polygon fill="none" stroke="#000000" points="467,-191.2 467,-213.2 686,-213.2 686,-191.2 467,-191.2"/>
<text text-anchor="start" x="470" y="-198.9" font-family="Helvetica,sans-Serif" font-size="11.00" fill="#000000">int4[10]</text>
<polygon fill="none" stroke="#000000" points="288,-169.2 288,-191.2 467,-191.2 467,-169.2 288,-169.2"/>
<image xlink:href="../../images/foreignKeys.png" width="11px" height="12px" preserveAspectRatio="xMinYMin meet" x="293" y="-186.2"/>
<text text-anchor="start" x="308" y="-176.3" font-family="Helvetica,sans-Serif" font-size="11.00" fill="#000000">nota_conceito_origem_id</text>
<polygon fill="none" stroke="#000000" points="467,-169.2 467,-191.2 686,-191.2 686,-169.2 467,-169.2"/>
<text text-anchor="start" x="470" y="-176.9" font-family="Helvetica,sans-Serif" font-size="11.00" fill="#000000">int4[10]</text>
<polygon fill="none" stroke="#000000" points="288,-147.2 288,-169.2 467,-169.2 467,-147.2 288,-147.2"/>
<image xlink:href="../../images/foreignKeys.png" width="11px" height="12px" preserveAspectRatio="xMinYMin meet" x="293" y="-164.2"/>
<text text-anchor="start" x="308" y="-154.3" font-family="Helvetica,sans-Serif" font-size="11.00" fill="#000000">nota_conceito_cloud_id</text>
<polygon fill="none" stroke="#000000" points="467,-147.2 467,-169.2 686,-169.2 686,-147.2 467,-147.2"/>
<text text-anchor="start" x="470" y="-154.9" font-family="Helvetica,sans-Serif" font-size="11.00" fill="#000000">int4[10]</text>
<polygon fill="none" stroke="#000000" points="288,-125.2 288,-147.2 467,-147.2 467,-125.2 288,-125.2"/>
<text text-anchor="start" x="308" y="-132.3" font-family="Helvetica,sans-Serif" font-size="11.00" fill="#000000">nota_descritiva</text>
<polygon fill="none" stroke="#000000" points="467,-125.2 467,-147.2 686,-147.2 686,-125.2 467,-125.2"/>
<text text-anchor="start" x="470" y="-132.9" font-family="Helvetica,sans-Serif" font-size="11.00" fill="#000000">varchar[16000]</text>
<polygon fill="none" stroke="#000000" points="288,-103.2 288,-125.2 467,-125.2 467,-103.2 288,-103.2"/>
<text text-anchor="start" x="308" y="-110.3" font-family="Helvetica,sans-Serif" font-size="11.00" fill="#000000">nota_numerica</text>
<polygon fill="none" stroke="#000000" points="467,-103.2 467,-125.2 686,-125.2 686,-103.2 467,-103.2"/>
<text text-anchor="start" x="470" y="-110.9" font-family="Helvetica,sans-Serif" font-size="11.00" fill="#000000">numeric[0]</text>
<polygon fill="none" stroke="#000000" points="288,-81.2 288,-103.2 467,-103.2 467,-81.2 288,-81.2"/>
<text text-anchor="start" x="308" y="-88.3" font-family="Helvetica,sans-Serif" font-size="11.00" fill="#000000">parecer</text>
<polygon fill="none" stroke="#000000" points="467,-81.2 467,-103.2 686,-103.2 686,-81.2 467,-81.2"/>
<text text-anchor="start" x="470" y="-88.9" font-family="Helvetica,sans-Serif" font-size="11.00" fill="#000000">varchar[16000]</text>
<polygon fill="none" stroke="#000000" points="288,-59.2 288,-81.2 467,-81.2 467,-59.2 288,-59.2"/>
<text text-anchor="start" x="308" y="-66.3" font-family="Helvetica,sans-Serif" font-size="11.00" fill="#000000">pai</text>
<polygon fill="none" stroke="#000000" points="467,-59.2 467,-81.2 686,-81.2 686,-59.2 467,-59.2"/>
<text text-anchor="start" x="470" y="-66.9" font-family="Helvetica,sans-Serif" font-size="11.00" fill="#000000">int4[10]</text>
<polygon fill="#ffffff" stroke="transparent" points="288,-40.2 288,-59.2 385,-59.2 385,-40.2 288,-40.2"/>
<polygon fill="none" stroke="#000000" points="288,-40.2 288,-59.2 385,-59.2 385,-40.2 288,-40.2"/>
<text text-anchor="start" x="291" y="-46.3" font-family="Helvetica,sans-Serif" font-size="11.00" fill="#000000">&lt; 10</text>
<polygon fill="#ffffff" stroke="transparent" points="385,-40.2 385,-59.2 467,-59.2 467,-40.2 385,-40.2"/>
<polygon fill="none" stroke="#000000" points="385,-40.2 385,-59.2 467,-59.2 467,-40.2 385,-40.2"/>
<text text-anchor="start" x="457.8862" y="-46.3" font-family="Helvetica,sans-Serif" font-size="11.00" fill="#000000"> &#160;</text>
<polygon fill="#ffffff" stroke="transparent" points="467,-40.2 467,-59.2 686,-59.2 686,-40.2 467,-40.2"/>
<polygon fill="none" stroke="#000000" points="467,-40.2 467,-59.2 686,-59.2 686,-40.2 467,-40.2"/>
<text text-anchor="start" x="667.4053" y="-46.3" font-family="Helvetica,sans-Serif" font-size="11.00" fill="#000000">0 &gt;</text>
<polygon fill="none" stroke="#000000" stroke-width="2" points="287,-39.2 287,-523.2 687,-523.2 687,-39.2 287,-39.2"/>
</a>
</g>
</g>
<!-- inscricao_lista_espera_situacoes -->
<g id="node2" class="node">
<title>inscricao_lista_espera_situacoes</title>
<g id="a_node2"><a xlink:href="../../tables/inscricao_lista_espera_situacoes.html" xlink:title="inscricao_lista_espera_situacoes" target="_top">
<polygon fill="#ffffff" stroke="transparent" points="8,-208.7 8,-291.7 237,-291.7 237,-208.7 8,-208.7"/>
<polygon fill="#f5f5f5" stroke="transparent" points="8.5,-268.2 8.5,-291.2 237.5,-291.2 237.5,-268.2 8.5,-268.2"/>
<polygon fill="none" stroke="#000000" points="8.5,-268.2 8.5,-291.2 237.5,-291.2 237.5,-268.2 8.5,-268.2"/>
<text text-anchor="start" x="13.5" y="-276.8" font-family="Helvetica,sans-Serif" font-weight="bold" font-size="11.00" fill="#000000">inscricao_lista_espera_situacoes</text>
<text text-anchor="start" x="203.0219" y="-276.3" font-family="Helvetica,sans-Serif" font-size="11.00" fill="#000000">[table]</text>
<polygon fill="none" stroke="#000000" points="8.5,-246.2 8.5,-268.2 237.5,-268.2 237.5,-246.2 8.5,-246.2"/>
<image xlink:href="../../images/primaryKeys.png" width="11px" height="12px" preserveAspectRatio="xMinYMin meet" x="13.5" y="-263.2"/>
<text text-anchor="start" x="37.5" y="-253.3" font-family="Helvetica,sans-Serif" font-size="11.00" fill="#000000">id</text>
<polygon fill="none" stroke="#000000" points="8.5,-227.2 8.5,-246.2 237.5,-246.2 237.5,-227.2 8.5,-227.2"/>
<text text-anchor="start" x="11.5" y="-233.3" font-family="Helvetica,sans-Serif" font-size="11.00" fill="#000000">...</text>
<polygon fill="#ffffff" stroke="transparent" points="8.5,-208.2 8.5,-227.2 106.5,-227.2 106.5,-208.2 8.5,-208.2"/>
<polygon fill="none" stroke="#000000" points="8.5,-208.2 8.5,-227.2 106.5,-227.2 106.5,-208.2 8.5,-208.2"/>
<text text-anchor="start" x="11.5" y="-214.3" font-family="Helvetica,sans-Serif" font-size="11.00" fill="#000000"> &#160;</text>
<polygon fill="#ffffff" stroke="transparent" points="106.5,-208.2 106.5,-227.2 161.5,-227.2 161.5,-208.2 106.5,-208.2"/>
<polygon fill="none" stroke="#000000" points="106.5,-208.2 106.5,-227.2 161.5,-227.2 161.5,-208.2 106.5,-208.2"/>
<text text-anchor="start" x="152.3862" y="-214.3" font-family="Helvetica,sans-Serif" font-size="11.00" fill="#000000"> &#160;</text>
<polygon fill="#ffffff" stroke="transparent" points="161.5,-208.2 161.5,-227.2 237.5,-227.2 237.5,-208.2 161.5,-208.2"/>
<polygon fill="none" stroke="#000000" points="161.5,-208.2 161.5,-227.2 237.5,-227.2 237.5,-208.2 161.5,-208.2"/>
<text text-anchor="start" x="206.6755" y="-214.3" font-family="Helvetica,sans-Serif" font-size="11.00" fill="#000000">596 &gt;</text>
</a>
</g>
</g>
<!-- registros_avaliacoes&#45;&gt;inscricao_lista_espera_situacoes -->
<g id="edge1" class="edge">
<title>registros_avaliacoes:w&#45;&gt;inscricao_lista_espera_situacoes:e</title>
<path fill="none" stroke="#000000" stroke-dasharray="5,2" d="M274.0064,-352.1965C248.8685,-333.6751 280.9126,-257.2 237.5,-257.2"/>
<polygon fill="#000000" stroke="#000000" points="280.3086,-353.9995 287.0098,-359.6611 284.1543,-355.0997 288,-356.2 288,-356.2 288,-356.2 284.1543,-355.0997 288.9902,-352.7389 280.3086,-353.9995 280.3086,-353.9995"/>
<ellipse fill="none" stroke="#000000" cx="277.232" cy="-353.1193" rx="3.2" ry="3.2"/>
</g>
<!-- registros_avaliacoes&#45;&gt;inscricao_lista_espera_situacoes -->
<g id="edge2" class="edge">
<title>registros_avaliacoes:w&#45;&gt;inscricao_lista_espera_situacoes:e</title>
<path fill="none" stroke="#000000" stroke-dasharray="5,2" d="M273.8314,-374.7092C241.8599,-354.87 289.8551,-257.2 237.5,-257.2"/>
<polygon fill="#000000" stroke="#000000" points="280.2323,-376.2862 287.1388,-381.6955 284.1161,-377.2431 288,-378.2 288,-378.2 288,-378.2 284.1161,-377.2431 288.8612,-374.7045 280.2323,-376.2862 280.2323,-376.2862"/>
<ellipse fill="none" stroke="#000000" cx="277.1252" cy="-375.5207" rx="3.2" ry="3.2"/>
</g>
<!-- registros_avaliacoes&#45;&gt;inscricao_lista_espera_situacoes -->
<g id="edge3" class="edge">
<title>registros_avaliacoes:w&#45;&gt;inscricao_lista_espera_situacoes:e</title>
<path fill="none" stroke="#000000" stroke-dasharray="5,2" d="M274.2934,-206.8893C258.9342,-220.1898 264.7226,-257.2 237.5,-257.2"/>
<polygon fill="#000000" stroke="#000000" points="280.4307,-204.7896 289.1653,-205.6062 284.2154,-203.4948 288,-202.2 288,-202.2 288,-202.2 284.2154,-203.4948 286.8347,-198.7938 280.4307,-204.7896 280.4307,-204.7896"/>
<ellipse fill="none" stroke="#000000" cx="277.403" cy="-205.8255" rx="3.2" ry="3.2"/>
</g>
<!-- registros_avaliacoes&#45;&gt;inscricao_lista_espera_situacoes -->
<g id="edge4" class="edge">
<title>registros_avaliacoes:w&#45;&gt;inscricao_lista_espera_situacoes:e</title>
<path fill="none" stroke="#000000" stroke-dasharray="5,2" d="M274.0755,-228.2464C261.1224,-237.0584 258.4466,-257.2 237.5,-257.2"/>
<polygon fill="#000000" stroke="#000000" points="280.3178,-226.4325 289.0046,-227.657 284.1589,-225.3162 288,-224.2 288,-224.2 288,-224.2 284.1589,-225.3162 286.9954,-220.743 280.3178,-226.4325 280.3178,-226.4325"/>
<ellipse fill="none" stroke="#000000" cx="277.2449" cy="-227.3255" rx="3.2" ry="3.2"/>
</g>
<!-- registros_avaliacoes&#45;&gt;inscricao_lista_espera_situacoes -->
<g id="edge5" class="edge">
<title>registros_avaliacoes:w&#45;&gt;inscricao_lista_espera_situacoes:e</title>
<path fill="none" stroke="#000000" stroke-dasharray="5,2" d="M274.2934,-307.5107C258.9342,-294.2102 264.7226,-257.2 237.5,-257.2"/>
<polygon fill="#000000" stroke="#000000" points="280.4307,-309.6104 286.8347,-315.6062 284.2154,-310.9052 288,-312.2 288,-312.2 288,-312.2 284.2154,-310.9052 289.1653,-308.7938 280.4307,-309.6104 280.4307,-309.6104"/>
<ellipse fill="none" stroke="#000000" cx="277.403" cy="-308.5745" rx="3.2" ry="3.2"/>
</g>
<!-- registros_avaliacoes&#45;&gt;inscricao_lista_espera_situacoes -->
<g id="edge6" class="edge">
<title>registros_avaliacoes:w&#45;&gt;inscricao_lista_espera_situacoes:e</title>
<path fill="none" stroke="#000000" stroke-dasharray="5,2" d="M274.0801,-329.6139C254.7892,-313.0372 272.3508,-257.2 237.5,-257.2"/>
<polygon fill="#000000" stroke="#000000" points="280.4018,-331.6966 286.8735,-337.6192 284.2009,-332.9483 288,-334.2 288,-334.2 288,-334.2 284.2009,-332.9483 289.1265,-330.7808 280.4018,-331.6966 280.4018,-331.6966"/>
<ellipse fill="none" stroke="#000000" cx="277.3625" cy="-330.6953" rx="3.2" ry="3.2"/>
</g>
<!-- registros_avaliacoes&#45;&gt;inscricao_lista_espera_situacoes -->
<g id="edge7" class="edge">
<title>registros_avaliacoes:w&#45;&gt;inscricao_lista_espera_situacoes:e</title>
<path fill="none" stroke="#000000" stroke-dasharray="5,2" d="M273.6489,-247.9188C261.5992,-251.0125 254.728,-257.2 237.5,-257.2"/>
<polygon fill="#000000" stroke="#000000" points="280.0568,-247.1514 288.4281,-249.7745 284.0284,-246.6757 288,-246.2 288,-246.2 288,-246.2 284.0284,-246.6757 287.5719,-242.6255 280.0568,-247.1514 280.0568,-247.1514"/>
<ellipse fill="none" stroke="#000000" cx="276.8795" cy="-247.5319" rx="3.2" ry="3.2"/>
</g>
<!-- registros_avaliacoes&#45;&gt;inscricao_lista_espera_situacoes -->
<g id="edge8" class="edge">
<title>registros_avaliacoes:w&#45;&gt;inscricao_lista_espera_situacoes:e</title>
<path fill="none" stroke="#000000" stroke-dasharray="5,2" d="M273.6489,-266.4813C261.5992,-263.3875 254.728,-257.2 237.5,-257.2"/>
<polygon fill="#000000" stroke="#000000" points="280.0568,-267.2486 287.5719,-271.7745 284.0284,-267.7243 288,-268.2 288,-268.2 288,-268.2 284.0284,-267.7243 288.4281,-264.6255 280.0568,-267.2486 280.0568,-267.2486"/>
<ellipse fill="none" stroke="#000000" cx="276.8795" cy="-266.8681" rx="3.2" ry="3.2"/>
</g>
<!-- registros_avaliacoes&#45;&gt;inscricao_lista_espera_situacoes -->
<g id="edge9" class="edge">
<title>registros_avaliacoes:w&#45;&gt;inscricao_lista_espera_situacoes:e</title>
<path fill="none" stroke="#000000" stroke-dasharray="5,2" d="M274.0064,-162.2035C248.8685,-180.7249 280.9126,-257.2 237.5,-257.2"/>
<polygon fill="#000000" stroke="#000000" points="280.3086,-160.4005 288.9902,-161.6611 284.1543,-159.3003 288,-158.2 288,-158.2 288,-158.2 284.1543,-159.3003 287.0098,-154.7389 280.3086,-160.4005 280.3086,-160.4005"/>
<ellipse fill="none" stroke="#000000" cx="277.232" cy="-161.2807" rx="3.2" ry="3.2"/>
</g>
<!-- registros_avaliacoes&#45;&gt;inscricao_lista_espera_situacoes -->
<g id="edge10" class="edge">
<title>registros_avaliacoes:w&#45;&gt;inscricao_lista_espera_situacoes:e</title>
<path fill="none" stroke="#000000" stroke-dasharray="5,2" d="M274.0801,-184.7861C254.7892,-201.3628 272.3508,-257.2 237.5,-257.2"/>
<polygon fill="#000000" stroke="#000000" points="280.4018,-182.7034 289.1265,-183.6192 284.2009,-181.4517 288,-180.2 288,-180.2 288,-180.2 284.2009,-181.4517 286.8735,-176.7808 280.4018,-182.7034 280.4018,-182.7034"/>
<ellipse fill="none" stroke="#000000" cx="277.3625" cy="-183.7047" rx="3.2" ry="3.2"/>
</g>
</g>
</svg>
