<?xml version="1.0" encoding="UTF-8" standalone="no"?>
<!DOCTYPE svg PUBLIC "-//W3C//DTD SVG 1.1//EN"
 "http://www.w3.org/Graphics/SVG/1.1/DTD/svg11.dtd">
<!-- Generated by graphviz version 2.40.1 (20161225.0304)
 -->
<!-- Title: oneDegreeRelationshipsDiagramImplied Pages: 1 -->
<svg width="707pt" height="602pt"
 viewBox="0.00 0.00 707.00 602.20" xmlns="http://www.w3.org/2000/svg" xmlns:xlink="http://www.w3.org/1999/xlink">
<g id="graph0" class="graph" transform="scale(1 1) rotate(0) translate(4 598.2)">
<title>oneDegreeRelationshipsDiagramImplied</title>
<polygon fill="#ffffff" stroke="transparent" points="-4,4 -4,-598.2 703,-598.2 703,4 -4,4"/>
<text text-anchor="middle" x="72.4936" y="-7.3" font-family="Helvetica,sans-Serif" font-size="11.00" fill="#000000">Generated by SchemaSpy</text>
<!-- registros_faltas_aulas -->
<g id="node1" class="node">
<title>registros_faltas_aulas</title>
<g id="a_node1"><a xlink:href="../../tables/registros_faltas_aulas.html" xlink:title="registros_faltas_aulas" target="_top">
<polygon fill="#ffffff" stroke="transparent" points="286,-38.2 286,-590.2 691,-590.2 691,-38.2 286,-38.2"/>
<polygon fill="#f5f5f5" stroke="transparent" points="288.5,-565.2 288.5,-588.2 689.5,-588.2 689.5,-565.2 288.5,-565.2"/>
<polygon fill="none" stroke="#000000" points="288.5,-565.2 288.5,-588.2 689.5,-588.2 689.5,-565.2 288.5,-565.2"/>
<text text-anchor="start" x="293.5" y="-573.8" font-family="Helvetica,sans-Serif" font-weight="bold" font-size="11.00" fill="#000000">registros_faltas_aulas</text>
<text text-anchor="start" x="654.5437" y="-573.3" font-family="Helvetica,sans-Serif" font-size="11.00" fill="#000000">[table]</text>
<polygon fill="none" stroke="#000000" points="288.5,-543.2 288.5,-565.2 478.5,-565.2 478.5,-543.2 288.5,-543.2"/>
<text text-anchor="start" x="308.5" y="-550.3" font-family="Helvetica,sans-Serif" font-size="11.00" fill="#000000">sistema</text>
<polygon fill="none" stroke="#000000" points="478.5,-543.2 478.5,-565.2 689.5,-565.2 689.5,-543.2 478.5,-543.2"/>
<text text-anchor="start" x="481.5" y="-550.9" font-family="Helvetica,sans-Serif" font-size="11.00" fill="#000000">int4[10]</text>
<polygon fill="none" stroke="#000000" points="288.5,-521.2 288.5,-543.2 478.5,-543.2 478.5,-521.2 288.5,-521.2"/>
<text text-anchor="start" x="308.5" y="-528.3" font-family="Helvetica,sans-Serif" font-size="11.00" fill="#000000">tipo_registro</text>
<polygon fill="none" stroke="#000000" points="478.5,-521.2 478.5,-543.2 689.5,-543.2 689.5,-521.2 478.5,-521.2"/>
<text text-anchor="start" x="481.5" y="-528.9" font-family="Helvetica,sans-Serif" font-size="11.00" fill="#000000">text[2147483647]</text>
<polygon fill="none" stroke="#000000" points="288.5,-499.2 288.5,-521.2 478.5,-521.2 478.5,-499.2 288.5,-499.2"/>
<text text-anchor="start" x="308.5" y="-506.3" font-family="Helvetica,sans-Serif" font-size="11.00" fill="#000000">id_integracao</text>
<polygon fill="none" stroke="#000000" points="478.5,-499.2 478.5,-521.2 689.5,-521.2 689.5,-499.2 478.5,-499.2"/>
<text text-anchor="start" x="481.5" y="-506.9" font-family="Helvetica,sans-Serif" font-size="11.00" fill="#000000">varchar[2147483647]</text>
<polygon fill="none" stroke="#000000" points="288.5,-477.2 288.5,-499.2 478.5,-499.2 478.5,-477.2 288.5,-477.2"/>
<text text-anchor="start" x="308.5" y="-484.3" font-family="Helvetica,sans-Serif" font-size="11.00" fill="#000000">id_origem</text>
<polygon fill="none" stroke="#000000" points="478.5,-477.2 478.5,-499.2 689.5,-499.2 689.5,-477.2 478.5,-477.2"/>
<text text-anchor="start" x="481.5" y="-484.9" font-family="Helvetica,sans-Serif" font-size="11.00" fill="#000000">int4[10]</text>
<polygon fill="none" stroke="#000000" points="288.5,-455.2 288.5,-477.2 478.5,-477.2 478.5,-455.2 288.5,-455.2"/>
<text text-anchor="start" x="308.5" y="-462.3" font-family="Helvetica,sans-Serif" font-size="11.00" fill="#000000">id_cloud</text>
<polygon fill="none" stroke="#000000" points="478.5,-455.2 478.5,-477.2 689.5,-477.2 689.5,-455.2 478.5,-455.2"/>
<text text-anchor="start" x="481.5" y="-462.9" font-family="Helvetica,sans-Serif" font-size="11.00" fill="#000000">int4[10]</text>
<polygon fill="none" stroke="#000000" points="288.5,-433.2 288.5,-455.2 478.5,-455.2 478.5,-433.2 288.5,-433.2"/>
<image xlink:href="../../images/foreignKeys.png" width="11px" height="12px" preserveAspectRatio="xMinYMin meet" x="293.5" y="-450.2"/>
<text text-anchor="start" x="308.5" y="-440.3" font-family="Helvetica,sans-Serif" font-size="11.00" fill="#000000">enturmacao_origem_id</text>
<polygon fill="none" stroke="#000000" points="478.5,-433.2 478.5,-455.2 689.5,-455.2 689.5,-433.2 478.5,-433.2"/>
<text text-anchor="start" x="481.5" y="-440.9" font-family="Helvetica,sans-Serif" font-size="11.00" fill="#000000">int4[10]</text>
<polygon fill="none" stroke="#000000" points="288.5,-411.2 288.5,-433.2 478.5,-433.2 478.5,-411.2 288.5,-411.2"/>
<image xlink:href="../../images/foreignKeys.png" width="11px" height="12px" preserveAspectRatio="xMinYMin meet" x="293.5" y="-428.2"/>
<text text-anchor="start" x="308.5" y="-418.3" font-family="Helvetica,sans-Serif" font-size="11.00" fill="#000000">enturmacao_cloud_id</text>
<polygon fill="none" stroke="#000000" points="478.5,-411.2 478.5,-433.2 689.5,-433.2 689.5,-411.2 478.5,-411.2"/>
<text text-anchor="start" x="481.5" y="-418.9" font-family="Helvetica,sans-Serif" font-size="11.00" fill="#000000">int4[10]</text>
<polygon fill="none" stroke="#000000" points="288.5,-389.2 288.5,-411.2 478.5,-411.2 478.5,-389.2 288.5,-389.2"/>
<image xlink:href="../../images/foreignKeys.png" width="11px" height="12px" preserveAspectRatio="xMinYMin meet" x="293.5" y="-406.2"/>
<text text-anchor="start" x="308.5" y="-396.3" font-family="Helvetica,sans-Serif" font-size="11.00" fill="#000000">alocacao_aula_origem_id</text>
<polygon fill="none" stroke="#000000" points="478.5,-389.2 478.5,-411.2 689.5,-411.2 689.5,-389.2 478.5,-389.2"/>
<text text-anchor="start" x="481.5" y="-396.9" font-family="Helvetica,sans-Serif" font-size="11.00" fill="#000000">int4[10]</text>
<polygon fill="none" stroke="#000000" points="288.5,-367.2 288.5,-389.2 478.5,-389.2 478.5,-367.2 288.5,-367.2"/>
<image xlink:href="../../images/foreignKeys.png" width="11px" height="12px" preserveAspectRatio="xMinYMin meet" x="293.5" y="-384.2"/>
<text text-anchor="start" x="308.5" y="-374.3" font-family="Helvetica,sans-Serif" font-size="11.00" fill="#000000">alocacao_aula_cloud_id</text>
<polygon fill="none" stroke="#000000" points="478.5,-367.2 478.5,-389.2 689.5,-389.2 689.5,-367.2 478.5,-367.2"/>
<text text-anchor="start" x="481.5" y="-374.9" font-family="Helvetica,sans-Serif" font-size="11.00" fill="#000000">int4[10]</text>
<polygon fill="none" stroke="#000000" points="288.5,-345.2 288.5,-367.2 478.5,-367.2 478.5,-345.2 288.5,-345.2"/>
<image xlink:href="../../images/foreignKeys.png" width="11px" height="12px" preserveAspectRatio="xMinYMin meet" x="293.5" y="-362.2"/>
<text text-anchor="start" x="308.5" y="-352.3" font-family="Helvetica,sans-Serif" font-size="11.00" fill="#000000">item_educacional_origem_id</text>
<polygon fill="none" stroke="#000000" points="478.5,-345.2 478.5,-367.2 689.5,-367.2 689.5,-345.2 478.5,-345.2"/>
<text text-anchor="start" x="481.5" y="-352.9" font-family="Helvetica,sans-Serif" font-size="11.00" fill="#000000">int4[10]</text>
<polygon fill="none" stroke="#000000" points="288.5,-323.2 288.5,-345.2 478.5,-345.2 478.5,-323.2 288.5,-323.2"/>
<image xlink:href="../../images/foreignKeys.png" width="11px" height="12px" preserveAspectRatio="xMinYMin meet" x="293.5" y="-340.2"/>
<text text-anchor="start" x="308.5" y="-330.3" font-family="Helvetica,sans-Serif" font-size="11.00" fill="#000000">item_educacional_cloud_id</text>
<polygon fill="none" stroke="#000000" points="478.5,-323.2 478.5,-345.2 689.5,-345.2 689.5,-323.2 478.5,-323.2"/>
<text text-anchor="start" x="481.5" y="-330.9" font-family="Helvetica,sans-Serif" font-size="11.00" fill="#000000">int4[10]</text>
<polygon fill="none" stroke="#000000" points="288.5,-301.2 288.5,-323.2 478.5,-323.2 478.5,-301.2 288.5,-301.2"/>
<image xlink:href="../../images/foreignKeys.png" width="11px" height="12px" preserveAspectRatio="xMinYMin meet" x="293.5" y="-318.2"/>
<text text-anchor="start" x="308.5" y="-308.3" font-family="Helvetica,sans-Serif" font-size="11.00" fill="#000000">periodo_avaliativo_origem_id</text>
<polygon fill="none" stroke="#000000" points="478.5,-301.2 478.5,-323.2 689.5,-323.2 689.5,-301.2 478.5,-301.2"/>
<text text-anchor="start" x="481.5" y="-308.9" font-family="Helvetica,sans-Serif" font-size="11.00" fill="#000000">int4[10]</text>
<polygon fill="none" stroke="#000000" points="288.5,-279.2 288.5,-301.2 478.5,-301.2 478.5,-279.2 288.5,-279.2"/>
<image xlink:href="../../images/foreignKeys.png" width="11px" height="12px" preserveAspectRatio="xMinYMin meet" x="293.5" y="-296.2"/>
<text text-anchor="start" x="308.5" y="-286.3" font-family="Helvetica,sans-Serif" font-size="11.00" fill="#000000">periodo_avaliativo_cloud_id</text>
<polygon fill="none" stroke="#000000" points="478.5,-279.2 478.5,-301.2 689.5,-301.2 689.5,-279.2 478.5,-279.2"/>
<text text-anchor="start" x="481.5" y="-286.9" font-family="Helvetica,sans-Serif" font-size="11.00" fill="#000000">int4[10]</text>
<polygon fill="none" stroke="#000000" points="288.5,-257.2 288.5,-279.2 478.5,-279.2 478.5,-257.2 288.5,-257.2"/>
<text text-anchor="start" x="308.5" y="-264.3" font-family="Helvetica,sans-Serif" font-size="11.00" fill="#000000">inicio_aula</text>
<polygon fill="none" stroke="#000000" points="478.5,-257.2 478.5,-279.2 689.5,-279.2 689.5,-257.2 478.5,-257.2"/>
<text text-anchor="start" x="481.5" y="-264.9" font-family="Helvetica,sans-Serif" font-size="11.00" fill="#000000">time[15,6]</text>
<polygon fill="none" stroke="#000000" points="288.5,-235.2 288.5,-257.2 478.5,-257.2 478.5,-235.2 288.5,-235.2"/>
<text text-anchor="start" x="308.5" y="-242.3" font-family="Helvetica,sans-Serif" font-size="11.00" fill="#000000">fim_aula</text>
<polygon fill="none" stroke="#000000" points="478.5,-235.2 478.5,-257.2 689.5,-257.2 689.5,-235.2 478.5,-235.2"/>
<text text-anchor="start" x="481.5" y="-242.9" font-family="Helvetica,sans-Serif" font-size="11.00" fill="#000000">time[15,6]</text>
<polygon fill="none" stroke="#000000" points="288.5,-213.2 288.5,-235.2 478.5,-235.2 478.5,-213.2 288.5,-213.2"/>
<text text-anchor="start" x="308.5" y="-220.3" font-family="Helvetica,sans-Serif" font-size="11.00" fill="#000000">numero</text>
<polygon fill="none" stroke="#000000" points="478.5,-213.2 478.5,-235.2 689.5,-235.2 689.5,-213.2 478.5,-213.2"/>
<text text-anchor="start" x="481.5" y="-220.9" font-family="Helvetica,sans-Serif" font-size="11.00" fill="#000000">int4[10]</text>
<polygon fill="none" stroke="#000000" points="288.5,-191.2 288.5,-213.2 478.5,-213.2 478.5,-191.2 288.5,-191.2"/>
<text text-anchor="start" x="308.5" y="-198.3" font-family="Helvetica,sans-Serif" font-size="11.00" fill="#000000">dia_semana</text>
<polygon fill="none" stroke="#000000" points="478.5,-191.2 478.5,-213.2 689.5,-213.2 689.5,-191.2 478.5,-191.2"/>
<text text-anchor="start" x="481.4267" y="-198.9" font-family="Helvetica,sans-Serif" font-size="11.00" fill="#000000">&quot;educacao&quot;.&quot;diasdasemana&quot;[2147483647]</text>
<polygon fill="none" stroke="#000000" points="288.5,-169.2 288.5,-191.2 478.5,-191.2 478.5,-169.2 288.5,-169.2"/>
<text text-anchor="start" x="308.5" y="-176.3" font-family="Helvetica,sans-Serif" font-size="11.00" fill="#000000">data</text>
<polygon fill="none" stroke="#000000" points="478.5,-169.2 478.5,-191.2 689.5,-191.2 689.5,-169.2 478.5,-169.2"/>
<text text-anchor="start" x="481.5" y="-176.9" font-family="Helvetica,sans-Serif" font-size="11.00" fill="#000000">date[13]</text>
<polygon fill="none" stroke="#000000" points="288.5,-147.2 288.5,-169.2 478.5,-169.2 478.5,-147.2 288.5,-147.2"/>
<text text-anchor="start" x="308.5" y="-154.3" font-family="Helvetica,sans-Serif" font-size="11.00" fill="#000000">realizada</text>
<polygon fill="none" stroke="#000000" points="478.5,-147.2 478.5,-169.2 689.5,-169.2 689.5,-147.2 478.5,-147.2"/>
<text text-anchor="start" x="481.5" y="-154.9" font-family="Helvetica,sans-Serif" font-size="11.00" fill="#000000">bool[1]</text>
<polygon fill="none" stroke="#000000" points="288.5,-125.2 288.5,-147.2 478.5,-147.2 478.5,-125.2 288.5,-125.2"/>
<image xlink:href="../../images/foreignKeys.png" width="11px" height="12px" preserveAspectRatio="xMinYMin meet" x="293.5" y="-142.2"/>
<text text-anchor="start" x="308.5" y="-132.3" font-family="Helvetica,sans-Serif" font-size="11.00" fill="#000000">servidor_origem_id</text>
<polygon fill="none" stroke="#000000" points="478.5,-125.2 478.5,-147.2 689.5,-147.2 689.5,-125.2 478.5,-125.2"/>
<text text-anchor="start" x="481.5" y="-132.9" font-family="Helvetica,sans-Serif" font-size="11.00" fill="#000000">int4[10]</text>
<polygon fill="none" stroke="#000000" points="288.5,-103.2 288.5,-125.2 478.5,-125.2 478.5,-103.2 288.5,-103.2"/>
<image xlink:href="../../images/foreignKeys.png" width="11px" height="12px" preserveAspectRatio="xMinYMin meet" x="293.5" y="-120.2"/>
<text text-anchor="start" x="308.5" y="-110.3" font-family="Helvetica,sans-Serif" font-size="11.00" fill="#000000">servidor_cloud_id</text>
<polygon fill="none" stroke="#000000" points="478.5,-103.2 478.5,-125.2 689.5,-125.2 689.5,-103.2 478.5,-103.2"/>
<text text-anchor="start" x="481.5" y="-110.9" font-family="Helvetica,sans-Serif" font-size="11.00" fill="#000000">int4[10]</text>
<polygon fill="none" stroke="#000000" points="288.5,-81.2 288.5,-103.2 478.5,-103.2 478.5,-81.2 288.5,-81.2"/>
<image xlink:href="../../images/foreignKeys.png" width="11px" height="12px" preserveAspectRatio="xMinYMin meet" x="293.5" y="-98.2"/>
<text text-anchor="start" x="308.5" y="-88.3" font-family="Helvetica,sans-Serif" font-size="11.00" fill="#000000">turma_origem_id</text>
<polygon fill="none" stroke="#000000" points="478.5,-81.2 478.5,-103.2 689.5,-103.2 689.5,-81.2 478.5,-81.2"/>
<text text-anchor="start" x="481.5" y="-88.9" font-family="Helvetica,sans-Serif" font-size="11.00" fill="#000000">int4[10]</text>
<polygon fill="none" stroke="#000000" points="288.5,-59.2 288.5,-81.2 478.5,-81.2 478.5,-59.2 288.5,-59.2"/>
<image xlink:href="../../images/foreignKeys.png" width="11px" height="12px" preserveAspectRatio="xMinYMin meet" x="293.5" y="-76.2"/>
<text text-anchor="start" x="308.5" y="-66.3" font-family="Helvetica,sans-Serif" font-size="11.00" fill="#000000">turma_cloud_id</text>
<polygon fill="none" stroke="#000000" points="478.5,-59.2 478.5,-81.2 689.5,-81.2 689.5,-59.2 478.5,-59.2"/>
<text text-anchor="start" x="481.5" y="-66.9" font-family="Helvetica,sans-Serif" font-size="11.00" fill="#000000">int4[10]</text>
<polygon fill="#ffffff" stroke="transparent" points="288.5,-40.2 288.5,-59.2 390.5,-59.2 390.5,-40.2 288.5,-40.2"/>
<polygon fill="none" stroke="#000000" points="288.5,-40.2 288.5,-59.2 390.5,-59.2 390.5,-40.2 288.5,-40.2"/>
<text text-anchor="start" x="291.5" y="-46.3" font-family="Helvetica,sans-Serif" font-size="11.00" fill="#000000">&lt; 12</text>
<polygon fill="#ffffff" stroke="transparent" points="390.5,-40.2 390.5,-59.2 478.5,-59.2 478.5,-40.2 390.5,-40.2"/>
<polygon fill="none" stroke="#000000" points="390.5,-40.2 390.5,-59.2 478.5,-59.2 478.5,-40.2 390.5,-40.2"/>
<text text-anchor="start" x="469.3862" y="-46.3" font-family="Helvetica,sans-Serif" font-size="11.00" fill="#000000"> &#160;</text>
<polygon fill="#ffffff" stroke="transparent" points="478.5,-40.2 478.5,-59.2 689.5,-59.2 689.5,-40.2 478.5,-40.2"/>
<polygon fill="none" stroke="#000000" points="478.5,-40.2 478.5,-59.2 689.5,-59.2 689.5,-40.2 478.5,-40.2"/>
<text text-anchor="start" x="670.9053" y="-46.3" font-family="Helvetica,sans-Serif" font-size="11.00" fill="#000000">0 &gt;</text>
<polygon fill="none" stroke="#000000" stroke-width="2" points="287,-39.2 287,-589.2 690,-589.2 690,-39.2 287,-39.2"/>
</a>
</g>
</g>
<!-- inscricao_lista_espera_situacoes -->
<g id="node2" class="node">
<title>inscricao_lista_espera_situacoes</title>
<g id="a_node2"><a xlink:href="../../tables/inscricao_lista_espera_situacoes.html" xlink:title="inscricao_lista_espera_situacoes" target="_top">
<polygon fill="#ffffff" stroke="transparent" points="8,-274.7 8,-357.7 237,-357.7 237,-274.7 8,-274.7"/>
<polygon fill="#f5f5f5" stroke="transparent" points="8.5,-334.2 8.5,-357.2 237.5,-357.2 237.5,-334.2 8.5,-334.2"/>
<polygon fill="none" stroke="#000000" points="8.5,-334.2 8.5,-357.2 237.5,-357.2 237.5,-334.2 8.5,-334.2"/>
<text text-anchor="start" x="13.5" y="-342.8" font-family="Helvetica,sans-Serif" font-weight="bold" font-size="11.00" fill="#000000">inscricao_lista_espera_situacoes</text>
<text text-anchor="start" x="203.0219" y="-342.3" font-family="Helvetica,sans-Serif" font-size="11.00" fill="#000000">[table]</text>
<polygon fill="none" stroke="#000000" points="8.5,-312.2 8.5,-334.2 237.5,-334.2 237.5,-312.2 8.5,-312.2"/>
<image xlink:href="../../images/primaryKeys.png" width="11px" height="12px" preserveAspectRatio="xMinYMin meet" x="13.5" y="-329.2"/>
<text text-anchor="start" x="37.5" y="-319.3" font-family="Helvetica,sans-Serif" font-size="11.00" fill="#000000">id</text>
<polygon fill="none" stroke="#000000" points="8.5,-293.2 8.5,-312.2 237.5,-312.2 237.5,-293.2 8.5,-293.2"/>
<text text-anchor="start" x="11.5" y="-299.3" font-family="Helvetica,sans-Serif" font-size="11.00" fill="#000000">...</text>
<polygon fill="#ffffff" stroke="transparent" points="8.5,-274.2 8.5,-293.2 106.5,-293.2 106.5,-274.2 8.5,-274.2"/>
<polygon fill="none" stroke="#000000" points="8.5,-274.2 8.5,-293.2 106.5,-293.2 106.5,-274.2 8.5,-274.2"/>
<text text-anchor="start" x="11.5" y="-280.3" font-family="Helvetica,sans-Serif" font-size="11.00" fill="#000000"> &#160;</text>
<polygon fill="#ffffff" stroke="transparent" points="106.5,-274.2 106.5,-293.2 161.5,-293.2 161.5,-274.2 106.5,-274.2"/>
<polygon fill="none" stroke="#000000" points="106.5,-274.2 106.5,-293.2 161.5,-293.2 161.5,-274.2 106.5,-274.2"/>
<text text-anchor="start" x="152.3862" y="-280.3" font-family="Helvetica,sans-Serif" font-size="11.00" fill="#000000"> &#160;</text>
<polygon fill="#ffffff" stroke="transparent" points="161.5,-274.2 161.5,-293.2 237.5,-293.2 237.5,-274.2 161.5,-274.2"/>
<polygon fill="none" stroke="#000000" points="161.5,-274.2 161.5,-293.2 237.5,-293.2 237.5,-274.2 161.5,-274.2"/>
<text text-anchor="start" x="206.6755" y="-280.3" font-family="Helvetica,sans-Serif" font-size="11.00" fill="#000000">596 &gt;</text>
</a>
</g>
</g>
<!-- registros_faltas_aulas&#45;&gt;inscricao_lista_espera_situacoes -->
<g id="edge1" class="edge">
<title>registros_faltas_aulas:w&#45;&gt;inscricao_lista_espera_situacoes:e</title>
<path fill="none" stroke="#000000" stroke-dasharray="5,2" d="M274.7081,-373.5107C259.2137,-360.2102 264.8462,-323.2 237.5,-323.2"/>
<polygon fill="#000000" stroke="#000000" points="280.9258,-375.6247 287.3411,-381.6084 284.7129,-376.9124 288.5,-378.2 288.5,-378.2 288.5,-378.2 284.7129,-376.9124 289.6589,-374.7916 280.9258,-375.6247 280.9258,-375.6247"/>
<ellipse fill="none" stroke="#000000" cx="277.8961" cy="-374.5946" rx="3.2" ry="3.2"/>
</g>
<!-- registros_faltas_aulas&#45;&gt;inscricao_lista_espera_situacoes -->
<g id="edge2" class="edge">
<title>registros_faltas_aulas:w&#45;&gt;inscricao_lista_espera_situacoes:e</title>
<path fill="none" stroke="#000000" stroke-dasharray="5,2" d="M274.5177,-395.6139C255.094,-379.0372 272.4549,-323.2 237.5,-323.2"/>
<polygon fill="#000000" stroke="#000000" points="280.8984,-397.7067 287.378,-403.6207 284.6992,-398.9534 288.5,-400.2 288.5,-400.2 288.5,-400.2 284.6992,-398.9534 289.622,-396.7793 280.8984,-397.7067 280.8984,-397.7067"/>
<ellipse fill="none" stroke="#000000" cx="277.8578" cy="-396.7094" rx="3.2" ry="3.2"/>
</g>
<!-- registros_faltas_aulas&#45;&gt;inscricao_lista_espera_situacoes -->
<g id="edge3" class="edge">
<title>registros_faltas_aulas:w&#45;&gt;inscricao_lista_espera_situacoes:e</title>
<path fill="none" stroke="#000000" stroke-dasharray="5,2" d="M274.4616,-418.1965C249.198,-399.6751 281.0017,-323.2 237.5,-323.2"/>
<polygon fill="#000000" stroke="#000000" points="280.8067,-420.006 287.5127,-425.662 284.6534,-421.103 288.5,-422.2 288.5,-422.2 288.5,-422.2 284.6534,-421.103 289.4873,-418.738 280.8067,-420.006 280.8067,-420.006"/>
<ellipse fill="none" stroke="#000000" cx="277.7294" cy="-419.1283" rx="3.2" ry="3.2"/>
</g>
<!-- registros_faltas_aulas&#45;&gt;inscricao_lista_espera_situacoes -->
<g id="edge4" class="edge">
<title>registros_faltas_aulas:w&#45;&gt;inscricao_lista_espera_situacoes:e</title>
<path fill="none" stroke="#000000" stroke-dasharray="5,2" d="M274.2982,-440.7092C242.2098,-420.87 289.9323,-323.2 237.5,-323.2"/>
<polygon fill="#000000" stroke="#000000" points="280.7312,-442.2904 287.6407,-447.6959 284.6156,-443.2452 288.5,-444.2 288.5,-444.2 288.5,-444.2 284.6156,-443.2452 289.3593,-440.7041 280.7312,-442.2904 280.7312,-442.2904"/>
<ellipse fill="none" stroke="#000000" cx="277.6237" cy="-441.5266" rx="3.2" ry="3.2"/>
</g>
<!-- registros_faltas_aulas&#45;&gt;inscricao_lista_espera_situacoes -->
<g id="edge5" class="edge">
<title>registros_faltas_aulas:w&#45;&gt;inscricao_lista_espera_situacoes:e</title>
<path fill="none" stroke="#000000" stroke-dasharray="5,2" d="M274.0097,-332.4813C261.8398,-329.3875 254.8909,-323.2 237.5,-323.2"/>
<polygon fill="#000000" stroke="#000000" points="280.5557,-333.2576 288.0759,-337.7749 284.5278,-333.7288 288.5,-334.2 288.5,-334.2 288.5,-334.2 284.5278,-333.7288 288.9241,-330.6251 280.5557,-333.2576 280.5557,-333.2576"/>
<ellipse fill="none" stroke="#000000" cx="277.378" cy="-332.8807" rx="3.2" ry="3.2"/>
</g>
<!-- registros_faltas_aulas&#45;&gt;inscricao_lista_espera_situacoes -->
<g id="edge6" class="edge">
<title>registros_faltas_aulas:w&#45;&gt;inscricao_lista_espera_situacoes:e</title>
<path fill="none" stroke="#000000" stroke-dasharray="5,2" d="M274.4604,-352.1536C261.3775,-343.3416 258.5921,-323.2 237.5,-323.2"/>
<polygon fill="#000000" stroke="#000000" points="280.8129,-353.9844 287.503,-359.6592 284.6565,-355.0922 288.5,-356.2 288.5,-356.2 288.5,-356.2 284.6565,-355.0922 289.497,-352.7408 280.8129,-353.9844 280.8129,-353.9844"/>
<ellipse fill="none" stroke="#000000" cx="277.7381" cy="-353.0982" rx="3.2" ry="3.2"/>
</g>
<!-- registros_faltas_aulas&#45;&gt;inscricao_lista_espera_situacoes -->
<g id="edge7" class="edge">
<title>registros_faltas_aulas:w&#45;&gt;inscricao_lista_espera_situacoes:e</title>
<path fill="none" stroke="#000000" stroke-dasharray="5,2" d="M274.4604,-294.2464C261.3775,-303.0584 258.5921,-323.2 237.5,-323.2"/>
<polygon fill="#000000" stroke="#000000" points="280.8129,-292.4156 289.497,-293.6592 284.6565,-291.3078 288.5,-290.2 288.5,-290.2 288.5,-290.2 284.6565,-291.3078 287.503,-286.7408 280.8129,-292.4156 280.8129,-292.4156"/>
<ellipse fill="none" stroke="#000000" cx="277.7381" cy="-293.3018" rx="3.2" ry="3.2"/>
</g>
<!-- registros_faltas_aulas&#45;&gt;inscricao_lista_espera_situacoes -->
<g id="edge8" class="edge">
<title>registros_faltas_aulas:w&#45;&gt;inscricao_lista_espera_situacoes:e</title>
<path fill="none" stroke="#000000" stroke-dasharray="5,2" d="M274.0097,-313.9188C261.8398,-317.0125 254.8909,-323.2 237.5,-323.2"/>
<polygon fill="#000000" stroke="#000000" points="280.5557,-313.1424 288.9241,-315.7749 284.5278,-312.6712 288.5,-312.2 288.5,-312.2 288.5,-312.2 284.5278,-312.6712 288.0759,-308.6251 280.5557,-313.1424 280.5557,-313.1424"/>
<ellipse fill="none" stroke="#000000" cx="277.378" cy="-313.5193" rx="3.2" ry="3.2"/>
</g>
<!-- registros_faltas_aulas&#45;&gt;inscricao_lista_espera_situacoes -->
<g id="edge9" class="edge">
<title>registros_faltas_aulas:w&#45;&gt;inscricao_lista_espera_situacoes:e</title>
<path fill="none" stroke="#000000" stroke-dasharray="5,2" d="M274.027,-116.2685C208.5089,-137.9746 327.512,-323.2 237.5,-323.2"/>
<polygon fill="#000000" stroke="#000000" points="280.5805,-115.3319 289.0094,-117.7638 284.5402,-114.766 288.5,-114.2 288.5,-114.2 288.5,-114.2 284.5402,-114.766 287.9906,-110.6362 280.5805,-115.3319 280.5805,-115.3319"/>
<ellipse fill="none" stroke="#000000" cx="277.4127" cy="-115.7847" rx="3.2" ry="3.2"/>
</g>
<!-- registros_faltas_aulas&#45;&gt;inscricao_lista_espera_situacoes -->
<g id="edge10" class="edge">
<title>registros_faltas_aulas:w&#45;&gt;inscricao_lista_espera_situacoes:e</title>
<path fill="none" stroke="#000000" stroke-dasharray="5,2" d="M273.9608,-138.5644C217.5479,-160.2113 317.9259,-323.2 237.5,-323.2"/>
<polygon fill="#000000" stroke="#000000" points="280.6037,-137.4841 289.0779,-139.7533 284.5519,-136.8421 288.5,-136.2 288.5,-136.2 288.5,-136.2 284.5519,-136.8421 287.9221,-132.6467 280.6037,-137.4841 280.6037,-137.4841"/>
<ellipse fill="none" stroke="#000000" cx="277.4452" cy="-137.9978" rx="3.2" ry="3.2"/>
</g>
<!-- registros_faltas_aulas&#45;&gt;inscricao_lista_espera_situacoes -->
<g id="edge11" class="edge">
<title>registros_faltas_aulas:w&#45;&gt;inscricao_lista_espera_situacoes:e</title>
<path fill="none" stroke="#000000" stroke-dasharray="5,2" d="M273.9827,-71.8825C190.1972,-93.8336 346.7174,-323.2 237.5,-323.2"/>
<polygon fill="#000000" stroke="#000000" points="280.5532,-71.121 288.9145,-73.7761 284.5266,-70.6605 288.5,-70.2 288.5,-70.2 288.5,-70.2 284.5266,-70.6605 288.0855,-66.6239 280.5532,-71.121 280.5532,-71.121"/>
<ellipse fill="none" stroke="#000000" cx="277.3745" cy="-71.4895" rx="3.2" ry="3.2"/>
</g>
<!-- registros_faltas_aulas&#45;&gt;inscricao_lista_espera_situacoes -->
<g id="edge12" class="edge">
<title>registros_faltas_aulas:w&#45;&gt;inscricao_lista_espera_situacoes:e</title>
<path fill="none" stroke="#000000" stroke-dasharray="5,2" d="M273.9951,-94.0594C199.4245,-115.9209 337.0946,-323.2 237.5,-323.2"/>
<polygon fill="#000000" stroke="#000000" points="280.5649,-93.2173 288.9578,-95.7708 284.5325,-92.7086 288.5,-92.2 288.5,-92.2 288.5,-92.2 284.5325,-92.7086 288.0422,-88.6292 280.5649,-93.2173 280.5649,-93.2173"/>
<ellipse fill="none" stroke="#000000" cx="277.3909" cy="-93.6242" rx="3.2" ry="3.2"/>
</g>
</g>
</svg>
