<?xml version="1.0" encoding="UTF-8" standalone="no"?>
<!DOCTYPE svg PUBLIC "-//W3C//DTD SVG 1.1//EN"
 "http://www.w3.org/Graphics/SVG/1.1/DTD/svg11.dtd">
<!-- Generated by graphviz version 2.40.1 (20161225.0304)
 -->
<!-- Title: oneDegreeRelationshipsDiagram Pages: 1 -->
<svg width="426pt" height="536pt"
 viewBox="0.00 0.00 426.00 536.20" xmlns="http://www.w3.org/2000/svg" xmlns:xlink="http://www.w3.org/1999/xlink">
<g id="graph0" class="graph" transform="scale(1 1) rotate(0) translate(4 532.2)">
<title>oneDegreeRelationshipsDiagram</title>
<polygon fill="#ffffff" stroke="transparent" points="-4,4 -4,-532.2 422,-532.2 422,4 -4,4"/>
<text text-anchor="middle" x="72.4936" y="-7.3" font-family="Helvetica,sans-Serif" font-size="11.00" fill="#000000">Generated by SchemaSpy</text>
<!-- registros_avaliacoes -->
<g id="node1" class="node">
<title>registros_avaliacoes</title>
<g id="a_node1"><a xlink:href="../../tables/registros_avaliacoes.html" xlink:title="registros_avaliacoes" target="_top">
<polygon fill="#ffffff" stroke="transparent" points="8,-38.2 8,-524.2 410,-524.2 410,-38.2 8,-38.2"/>
<polygon fill="#f5f5f5" stroke="transparent" points="10,-499.2 10,-522.2 408,-522.2 408,-499.2 10,-499.2"/>
<polygon fill="none" stroke="#000000" points="10,-499.2 10,-522.2 408,-522.2 408,-499.2 10,-499.2"/>
<text text-anchor="start" x="15" y="-507.8" font-family="Helvetica,sans-Serif" font-weight="bold" font-size="11.00" fill="#000000">registros_avaliacoes</text>
<text text-anchor="start" x="373.0437" y="-507.3" font-family="Helvetica,sans-Serif" font-size="11.00" fill="#000000">[table]</text>
<polygon fill="none" stroke="#000000" points="10,-477.2 10,-499.2 189,-499.2 189,-477.2 10,-477.2"/>
<text text-anchor="start" x="30" y="-484.3" font-family="Helvetica,sans-Serif" font-size="11.00" fill="#000000">sistema</text>
<polygon fill="none" stroke="#000000" points="189,-477.2 189,-499.2 408,-499.2 408,-477.2 189,-477.2"/>
<text text-anchor="start" x="192" y="-484.9" font-family="Helvetica,sans-Serif" font-size="11.00" fill="#000000">int4[10]</text>
<polygon fill="none" stroke="#000000" points="10,-455.2 10,-477.2 189,-477.2 189,-455.2 10,-455.2"/>
<text text-anchor="start" x="30" y="-462.3" font-family="Helvetica,sans-Serif" font-size="11.00" fill="#000000">tipo_registro</text>
<polygon fill="none" stroke="#000000" points="189,-455.2 189,-477.2 408,-477.2 408,-455.2 189,-455.2"/>
<text text-anchor="start" x="192" y="-462.9" font-family="Helvetica,sans-Serif" font-size="11.00" fill="#000000">text[2147483647]</text>
<polygon fill="none" stroke="#000000" points="10,-433.2 10,-455.2 189,-455.2 189,-433.2 10,-433.2"/>
<text text-anchor="start" x="30" y="-440.3" font-family="Helvetica,sans-Serif" font-size="11.00" fill="#000000">id_integracao</text>
<polygon fill="none" stroke="#000000" points="189,-433.2 189,-455.2 408,-455.2 408,-433.2 189,-433.2"/>
<text text-anchor="start" x="192" y="-440.9" font-family="Helvetica,sans-Serif" font-size="11.00" fill="#000000">varchar[2147483647]</text>
<polygon fill="none" stroke="#000000" points="10,-411.2 10,-433.2 189,-433.2 189,-411.2 10,-411.2"/>
<text text-anchor="start" x="30" y="-418.3" font-family="Helvetica,sans-Serif" font-size="11.00" fill="#000000">id_origem</text>
<polygon fill="none" stroke="#000000" points="189,-411.2 189,-433.2 408,-433.2 408,-411.2 189,-411.2"/>
<text text-anchor="start" x="192" y="-418.9" font-family="Helvetica,sans-Serif" font-size="11.00" fill="#000000">int4[10]</text>
<polygon fill="none" stroke="#000000" points="10,-389.2 10,-411.2 189,-411.2 189,-389.2 10,-389.2"/>
<text text-anchor="start" x="30" y="-396.3" font-family="Helvetica,sans-Serif" font-size="11.00" fill="#000000">id_cloud</text>
<polygon fill="none" stroke="#000000" points="189,-389.2 189,-411.2 408,-411.2 408,-389.2 189,-389.2"/>
<text text-anchor="start" x="192" y="-396.9" font-family="Helvetica,sans-Serif" font-size="11.00" fill="#000000">int4[10]</text>
<polygon fill="none" stroke="#000000" points="10,-367.2 10,-389.2 189,-389.2 189,-367.2 10,-367.2"/>
<image xlink:href="../../images/foreignKeys.png" width="11px" height="12px" preserveAspectRatio="xMinYMin meet" x="15" y="-384.2"/>
<text text-anchor="start" x="30" y="-374.3" font-family="Helvetica,sans-Serif" font-size="11.00" fill="#000000">ano_letivo_origem_id</text>
<polygon fill="none" stroke="#000000" points="189,-367.2 189,-389.2 408,-389.2 408,-367.2 189,-367.2"/>
<text text-anchor="start" x="192" y="-374.9" font-family="Helvetica,sans-Serif" font-size="11.00" fill="#000000">int4[10]</text>
<polygon fill="none" stroke="#000000" points="10,-345.2 10,-367.2 189,-367.2 189,-345.2 10,-345.2"/>
<image xlink:href="../../images/foreignKeys.png" width="11px" height="12px" preserveAspectRatio="xMinYMin meet" x="15" y="-362.2"/>
<text text-anchor="start" x="30" y="-352.3" font-family="Helvetica,sans-Serif" font-size="11.00" fill="#000000">ano_letivo_cloud_id</text>
<polygon fill="none" stroke="#000000" points="189,-345.2 189,-367.2 408,-367.2 408,-345.2 189,-345.2"/>
<text text-anchor="start" x="192" y="-352.9" font-family="Helvetica,sans-Serif" font-size="11.00" fill="#000000">int4[10]</text>
<polygon fill="none" stroke="#000000" points="10,-323.2 10,-345.2 189,-345.2 189,-323.2 10,-323.2"/>
<image xlink:href="../../images/foreignKeys.png" width="11px" height="12px" preserveAspectRatio="xMinYMin meet" x="15" y="-340.2"/>
<text text-anchor="start" x="30" y="-330.3" font-family="Helvetica,sans-Serif" font-size="11.00" fill="#000000">estabelecimento_origem_id</text>
<polygon fill="none" stroke="#000000" points="189,-323.2 189,-345.2 408,-345.2 408,-323.2 189,-323.2"/>
<text text-anchor="start" x="192" y="-330.9" font-family="Helvetica,sans-Serif" font-size="11.00" fill="#000000">int4[10]</text>
<polygon fill="none" stroke="#000000" points="10,-301.2 10,-323.2 189,-323.2 189,-301.2 10,-301.2"/>
<image xlink:href="../../images/foreignKeys.png" width="11px" height="12px" preserveAspectRatio="xMinYMin meet" x="15" y="-318.2"/>
<text text-anchor="start" x="30" y="-308.3" font-family="Helvetica,sans-Serif" font-size="11.00" fill="#000000">estabelecimento_cloud_id</text>
<polygon fill="none" stroke="#000000" points="189,-301.2 189,-323.2 408,-323.2 408,-301.2 189,-301.2"/>
<text text-anchor="start" x="192" y="-308.9" font-family="Helvetica,sans-Serif" font-size="11.00" fill="#000000">int4[10]</text>
<polygon fill="none" stroke="#000000" points="10,-279.2 10,-301.2 189,-301.2 189,-279.2 10,-279.2"/>
<text text-anchor="start" x="30" y="-286.3" font-family="Helvetica,sans-Serif" font-size="11.00" fill="#000000">modo_avaliacao</text>
<polygon fill="none" stroke="#000000" points="189,-279.2 189,-301.2 408,-301.2 408,-279.2 189,-279.2"/>
<text text-anchor="start" x="191.9562" y="-286.9" font-family="Helvetica,sans-Serif" font-size="11.00" fill="#000000">&quot;educacao&quot;.&quot;modosavaliacao&quot;[2147483647]</text>
<polygon fill="none" stroke="#000000" points="10,-257.2 10,-279.2 189,-279.2 189,-257.2 10,-257.2"/>
<image xlink:href="../../images/foreignKeys.png" width="11px" height="12px" preserveAspectRatio="xMinYMin meet" x="15" y="-274.2"/>
<text text-anchor="start" x="30" y="-264.3" font-family="Helvetica,sans-Serif" font-size="11.00" fill="#000000">item_avaliavel_origem_id</text>
<polygon fill="none" stroke="#000000" points="189,-257.2 189,-279.2 408,-279.2 408,-257.2 189,-257.2"/>
<text text-anchor="start" x="192" y="-264.9" font-family="Helvetica,sans-Serif" font-size="11.00" fill="#000000">int4[10]</text>
<polygon fill="none" stroke="#000000" points="10,-235.2 10,-257.2 189,-257.2 189,-235.2 10,-235.2"/>
<image xlink:href="../../images/foreignKeys.png" width="11px" height="12px" preserveAspectRatio="xMinYMin meet" x="15" y="-252.2"/>
<text text-anchor="start" x="30" y="-242.3" font-family="Helvetica,sans-Serif" font-size="11.00" fill="#000000">item_avaliavel_cloud_id</text>
<polygon fill="none" stroke="#000000" points="189,-235.2 189,-257.2 408,-257.2 408,-235.2 189,-235.2"/>
<text text-anchor="start" x="192" y="-242.9" font-family="Helvetica,sans-Serif" font-size="11.00" fill="#000000">int4[10]</text>
<polygon fill="none" stroke="#000000" points="10,-213.2 10,-235.2 189,-235.2 189,-213.2 10,-213.2"/>
<image xlink:href="../../images/foreignKeys.png" width="11px" height="12px" preserveAspectRatio="xMinYMin meet" x="15" y="-230.2"/>
<text text-anchor="start" x="30" y="-220.3" font-family="Helvetica,sans-Serif" font-size="11.00" fill="#000000">enturmacao_origem_id</text>
<polygon fill="none" stroke="#000000" points="189,-213.2 189,-235.2 408,-235.2 408,-213.2 189,-213.2"/>
<text text-anchor="start" x="192" y="-220.9" font-family="Helvetica,sans-Serif" font-size="11.00" fill="#000000">int4[10]</text>
<polygon fill="none" stroke="#000000" points="10,-191.2 10,-213.2 189,-213.2 189,-191.2 10,-191.2"/>
<image xlink:href="../../images/foreignKeys.png" width="11px" height="12px" preserveAspectRatio="xMinYMin meet" x="15" y="-208.2"/>
<text text-anchor="start" x="30" y="-198.3" font-family="Helvetica,sans-Serif" font-size="11.00" fill="#000000">enturmacao_cloud_id</text>
<polygon fill="none" stroke="#000000" points="189,-191.2 189,-213.2 408,-213.2 408,-191.2 189,-191.2"/>
<text text-anchor="start" x="192" y="-198.9" font-family="Helvetica,sans-Serif" font-size="11.00" fill="#000000">int4[10]</text>
<polygon fill="none" stroke="#000000" points="10,-169.2 10,-191.2 189,-191.2 189,-169.2 10,-169.2"/>
<image xlink:href="../../images/foreignKeys.png" width="11px" height="12px" preserveAspectRatio="xMinYMin meet" x="15" y="-186.2"/>
<text text-anchor="start" x="30" y="-176.3" font-family="Helvetica,sans-Serif" font-size="11.00" fill="#000000">nota_conceito_origem_id</text>
<polygon fill="none" stroke="#000000" points="189,-169.2 189,-191.2 408,-191.2 408,-169.2 189,-169.2"/>
<text text-anchor="start" x="192" y="-176.9" font-family="Helvetica,sans-Serif" font-size="11.00" fill="#000000">int4[10]</text>
<polygon fill="none" stroke="#000000" points="10,-147.2 10,-169.2 189,-169.2 189,-147.2 10,-147.2"/>
<image xlink:href="../../images/foreignKeys.png" width="11px" height="12px" preserveAspectRatio="xMinYMin meet" x="15" y="-164.2"/>
<text text-anchor="start" x="30" y="-154.3" font-family="Helvetica,sans-Serif" font-size="11.00" fill="#000000">nota_conceito_cloud_id</text>
<polygon fill="none" stroke="#000000" points="189,-147.2 189,-169.2 408,-169.2 408,-147.2 189,-147.2"/>
<text text-anchor="start" x="192" y="-154.9" font-family="Helvetica,sans-Serif" font-size="11.00" fill="#000000">int4[10]</text>
<polygon fill="none" stroke="#000000" points="10,-125.2 10,-147.2 189,-147.2 189,-125.2 10,-125.2"/>
<text text-anchor="start" x="30" y="-132.3" font-family="Helvetica,sans-Serif" font-size="11.00" fill="#000000">nota_descritiva</text>
<polygon fill="none" stroke="#000000" points="189,-125.2 189,-147.2 408,-147.2 408,-125.2 189,-125.2"/>
<text text-anchor="start" x="192" y="-132.9" font-family="Helvetica,sans-Serif" font-size="11.00" fill="#000000">varchar[16000]</text>
<polygon fill="none" stroke="#000000" points="10,-103.2 10,-125.2 189,-125.2 189,-103.2 10,-103.2"/>
<text text-anchor="start" x="30" y="-110.3" font-family="Helvetica,sans-Serif" font-size="11.00" fill="#000000">nota_numerica</text>
<polygon fill="none" stroke="#000000" points="189,-103.2 189,-125.2 408,-125.2 408,-103.2 189,-103.2"/>
<text text-anchor="start" x="192" y="-110.9" font-family="Helvetica,sans-Serif" font-size="11.00" fill="#000000">numeric[0]</text>
<polygon fill="none" stroke="#000000" points="10,-81.2 10,-103.2 189,-103.2 189,-81.2 10,-81.2"/>
<text text-anchor="start" x="30" y="-88.3" font-family="Helvetica,sans-Serif" font-size="11.00" fill="#000000">parecer</text>
<polygon fill="none" stroke="#000000" points="189,-81.2 189,-103.2 408,-103.2 408,-81.2 189,-81.2"/>
<text text-anchor="start" x="192" y="-88.9" font-family="Helvetica,sans-Serif" font-size="11.00" fill="#000000">varchar[16000]</text>
<polygon fill="none" stroke="#000000" points="10,-59.2 10,-81.2 189,-81.2 189,-59.2 10,-59.2"/>
<text text-anchor="start" x="30" y="-66.3" font-family="Helvetica,sans-Serif" font-size="11.00" fill="#000000">pai</text>
<polygon fill="none" stroke="#000000" points="189,-59.2 189,-81.2 408,-81.2 408,-59.2 189,-59.2"/>
<text text-anchor="start" x="192" y="-66.9" font-family="Helvetica,sans-Serif" font-size="11.00" fill="#000000">int4[10]</text>
<polygon fill="#ffffff" stroke="transparent" points="10,-40.2 10,-59.2 104,-59.2 104,-40.2 10,-40.2"/>
<polygon fill="none" stroke="#000000" points="10,-40.2 10,-59.2 104,-59.2 104,-40.2 10,-40.2"/>
<text text-anchor="start" x="13" y="-46.3" font-family="Helvetica,sans-Serif" font-size="11.00" fill="#000000">&lt; 0</text>
<polygon fill="#ffffff" stroke="transparent" points="104,-40.2 104,-59.2 189,-59.2 189,-40.2 104,-40.2"/>
<polygon fill="none" stroke="#000000" points="104,-40.2 104,-59.2 189,-59.2 189,-40.2 104,-40.2"/>
<text text-anchor="start" x="179.8862" y="-46.3" font-family="Helvetica,sans-Serif" font-size="11.00" fill="#000000"> &#160;</text>
<polygon fill="#ffffff" stroke="transparent" points="189,-40.2 189,-59.2 408,-59.2 408,-40.2 189,-40.2"/>
<polygon fill="none" stroke="#000000" points="189,-40.2 189,-59.2 408,-59.2 408,-40.2 189,-40.2"/>
<text text-anchor="start" x="389.4053" y="-46.3" font-family="Helvetica,sans-Serif" font-size="11.00" fill="#000000">0 &gt;</text>
<polygon fill="none" stroke="#000000" stroke-width="2" points="9,-39.2 9,-523.2 409,-523.2 409,-39.2 9,-39.2"/>
</a>
</g>
</g>
</g>
</svg>
