<?xml version="1.0" encoding="UTF-8" standalone="no"?>
<!DOCTYPE svg PUBLIC "-//W3C//DTD SVG 1.1//EN"
 "http://www.w3.org/Graphics/SVG/1.1/DTD/svg11.dtd">
<!-- Generated by graphviz version 2.40.1 (20161225.0304)
 -->
<!-- Title: oneDegreeRelationshipsDiagramImplied Pages: 1 -->
<svg width="605pt" height="448pt"
 viewBox="0.00 0.00 605.00 448.20" xmlns="http://www.w3.org/2000/svg" xmlns:xlink="http://www.w3.org/1999/xlink">
<g id="graph0" class="graph" transform="scale(1 1) rotate(0) translate(4 444.2)">
<title>oneDegreeRelationshipsDiagramImplied</title>
<polygon fill="#ffffff" stroke="transparent" points="-4,4 -4,-444.2 601,-444.2 601,4 -4,4"/>
<text text-anchor="middle" x="72.4936" y="-7.3" font-family="Helvetica,sans-Serif" font-size="11.00" fill="#000000">Generated by SchemaSpy</text>
<!-- registros_faltas -->
<g id="node1" class="node">
<title>registros_faltas</title>
<g id="a_node1"><a xlink:href="../../tables/registros_faltas.html" xlink:title="registros_faltas" target="_top">
<polygon fill="#ffffff" stroke="transparent" points="286,-38.2 286,-436.2 589,-436.2 589,-38.2 286,-38.2"/>
<polygon fill="#f5f5f5" stroke="transparent" points="288.5,-411.2 288.5,-434.2 587.5,-434.2 587.5,-411.2 288.5,-411.2"/>
<polygon fill="none" stroke="#000000" points="288.5,-411.2 288.5,-434.2 587.5,-434.2 587.5,-411.2 288.5,-411.2"/>
<text text-anchor="start" x="293.5" y="-419.8" font-family="Helvetica,sans-Serif" font-weight="bold" font-size="11.00" fill="#000000">registros_faltas</text>
<text text-anchor="start" x="552.5437" y="-419.3" font-family="Helvetica,sans-Serif" font-size="11.00" fill="#000000">[table]</text>
<polygon fill="none" stroke="#000000" points="288.5,-389.2 288.5,-411.2 478.5,-411.2 478.5,-389.2 288.5,-389.2"/>
<text text-anchor="start" x="308.5" y="-396.3" font-family="Helvetica,sans-Serif" font-size="11.00" fill="#000000">sistema</text>
<polygon fill="none" stroke="#000000" points="478.5,-389.2 478.5,-411.2 587.5,-411.2 587.5,-389.2 478.5,-389.2"/>
<text text-anchor="start" x="481.5" y="-396.9" font-family="Helvetica,sans-Serif" font-size="11.00" fill="#000000">int4[10]</text>
<polygon fill="none" stroke="#000000" points="288.5,-367.2 288.5,-389.2 478.5,-389.2 478.5,-367.2 288.5,-367.2"/>
<text text-anchor="start" x="308.5" y="-374.3" font-family="Helvetica,sans-Serif" font-size="11.00" fill="#000000">tipo_registro</text>
<polygon fill="none" stroke="#000000" points="478.5,-367.2 478.5,-389.2 587.5,-389.2 587.5,-367.2 478.5,-367.2"/>
<text text-anchor="start" x="481.5" y="-374.9" font-family="Helvetica,sans-Serif" font-size="11.00" fill="#000000">text[2147483647]</text>
<polygon fill="none" stroke="#000000" points="288.5,-345.2 288.5,-367.2 478.5,-367.2 478.5,-345.2 288.5,-345.2"/>
<text text-anchor="start" x="308.5" y="-352.3" font-family="Helvetica,sans-Serif" font-size="11.00" fill="#000000">id_integracao</text>
<polygon fill="none" stroke="#000000" points="478.5,-345.2 478.5,-367.2 587.5,-367.2 587.5,-345.2 478.5,-345.2"/>
<text text-anchor="start" x="481.0344" y="-352.9" font-family="Helvetica,sans-Serif" font-size="11.00" fill="#000000">varchar[2147483647]</text>
<polygon fill="none" stroke="#000000" points="288.5,-323.2 288.5,-345.2 478.5,-345.2 478.5,-323.2 288.5,-323.2"/>
<text text-anchor="start" x="308.5" y="-330.3" font-family="Helvetica,sans-Serif" font-size="11.00" fill="#000000">id_origem</text>
<polygon fill="none" stroke="#000000" points="478.5,-323.2 478.5,-345.2 587.5,-345.2 587.5,-323.2 478.5,-323.2"/>
<text text-anchor="start" x="481.5" y="-330.9" font-family="Helvetica,sans-Serif" font-size="11.00" fill="#000000">int4[10]</text>
<polygon fill="none" stroke="#000000" points="288.5,-301.2 288.5,-323.2 478.5,-323.2 478.5,-301.2 288.5,-301.2"/>
<text text-anchor="start" x="308.5" y="-308.3" font-family="Helvetica,sans-Serif" font-size="11.00" fill="#000000">id_cloud</text>
<polygon fill="none" stroke="#000000" points="478.5,-301.2 478.5,-323.2 587.5,-323.2 587.5,-301.2 478.5,-301.2"/>
<text text-anchor="start" x="481.5" y="-308.9" font-family="Helvetica,sans-Serif" font-size="11.00" fill="#000000">int4[10]</text>
<polygon fill="none" stroke="#000000" points="288.5,-279.2 288.5,-301.2 478.5,-301.2 478.5,-279.2 288.5,-279.2"/>
<text text-anchor="start" x="308.5" y="-286.3" font-family="Helvetica,sans-Serif" font-size="11.00" fill="#000000">quantidade_faltas</text>
<polygon fill="none" stroke="#000000" points="478.5,-279.2 478.5,-301.2 587.5,-301.2 587.5,-279.2 478.5,-279.2"/>
<text text-anchor="start" x="481.5" y="-286.9" font-family="Helvetica,sans-Serif" font-size="11.00" fill="#000000">int4[10]</text>
<polygon fill="none" stroke="#000000" points="288.5,-257.2 288.5,-279.2 478.5,-279.2 478.5,-257.2 288.5,-257.2"/>
<image xlink:href="../../images/foreignKeys.png" width="11px" height="12px" preserveAspectRatio="xMinYMin meet" x="293.5" y="-274.2"/>
<text text-anchor="start" x="308.5" y="-264.3" font-family="Helvetica,sans-Serif" font-size="11.00" fill="#000000">ano_letivo_origem_id</text>
<polygon fill="none" stroke="#000000" points="478.5,-257.2 478.5,-279.2 587.5,-279.2 587.5,-257.2 478.5,-257.2"/>
<text text-anchor="start" x="481.5" y="-264.9" font-family="Helvetica,sans-Serif" font-size="11.00" fill="#000000">int4[10]</text>
<polygon fill="none" stroke="#000000" points="288.5,-235.2 288.5,-257.2 478.5,-257.2 478.5,-235.2 288.5,-235.2"/>
<image xlink:href="../../images/foreignKeys.png" width="11px" height="12px" preserveAspectRatio="xMinYMin meet" x="293.5" y="-252.2"/>
<text text-anchor="start" x="308.5" y="-242.3" font-family="Helvetica,sans-Serif" font-size="11.00" fill="#000000">ano_letivo_cloud_id</text>
<polygon fill="none" stroke="#000000" points="478.5,-235.2 478.5,-257.2 587.5,-257.2 587.5,-235.2 478.5,-235.2"/>
<text text-anchor="start" x="481.5" y="-242.9" font-family="Helvetica,sans-Serif" font-size="11.00" fill="#000000">int4[10]</text>
<polygon fill="none" stroke="#000000" points="288.5,-213.2 288.5,-235.2 478.5,-235.2 478.5,-213.2 288.5,-213.2"/>
<image xlink:href="../../images/foreignKeys.png" width="11px" height="12px" preserveAspectRatio="xMinYMin meet" x="293.5" y="-230.2"/>
<text text-anchor="start" x="308.5" y="-220.3" font-family="Helvetica,sans-Serif" font-size="11.00" fill="#000000">estabelecimento_origem_id</text>
<polygon fill="none" stroke="#000000" points="478.5,-213.2 478.5,-235.2 587.5,-235.2 587.5,-213.2 478.5,-213.2"/>
<text text-anchor="start" x="481.5" y="-220.9" font-family="Helvetica,sans-Serif" font-size="11.00" fill="#000000">int4[10]</text>
<polygon fill="none" stroke="#000000" points="288.5,-191.2 288.5,-213.2 478.5,-213.2 478.5,-191.2 288.5,-191.2"/>
<image xlink:href="../../images/foreignKeys.png" width="11px" height="12px" preserveAspectRatio="xMinYMin meet" x="293.5" y="-208.2"/>
<text text-anchor="start" x="308.5" y="-198.3" font-family="Helvetica,sans-Serif" font-size="11.00" fill="#000000">estabelecimento_cloud_id</text>
<polygon fill="none" stroke="#000000" points="478.5,-191.2 478.5,-213.2 587.5,-213.2 587.5,-191.2 478.5,-191.2"/>
<text text-anchor="start" x="481.5" y="-198.9" font-family="Helvetica,sans-Serif" font-size="11.00" fill="#000000">int4[10]</text>
<polygon fill="none" stroke="#000000" points="288.5,-169.2 288.5,-191.2 478.5,-191.2 478.5,-169.2 288.5,-169.2"/>
<image xlink:href="../../images/foreignKeys.png" width="11px" height="12px" preserveAspectRatio="xMinYMin meet" x="293.5" y="-186.2"/>
<text text-anchor="start" x="308.5" y="-176.3" font-family="Helvetica,sans-Serif" font-size="11.00" fill="#000000">periodo_avaliativo_origem_id</text>
<polygon fill="none" stroke="#000000" points="478.5,-169.2 478.5,-191.2 587.5,-191.2 587.5,-169.2 478.5,-169.2"/>
<text text-anchor="start" x="481.5" y="-176.9" font-family="Helvetica,sans-Serif" font-size="11.00" fill="#000000">int4[10]</text>
<polygon fill="none" stroke="#000000" points="288.5,-147.2 288.5,-169.2 478.5,-169.2 478.5,-147.2 288.5,-147.2"/>
<image xlink:href="../../images/foreignKeys.png" width="11px" height="12px" preserveAspectRatio="xMinYMin meet" x="293.5" y="-164.2"/>
<text text-anchor="start" x="308.5" y="-154.3" font-family="Helvetica,sans-Serif" font-size="11.00" fill="#000000">periodo_avaliativo_cloud_id</text>
<polygon fill="none" stroke="#000000" points="478.5,-147.2 478.5,-169.2 587.5,-169.2 587.5,-147.2 478.5,-147.2"/>
<text text-anchor="start" x="481.5" y="-154.9" font-family="Helvetica,sans-Serif" font-size="11.00" fill="#000000">int4[10]</text>
<polygon fill="none" stroke="#000000" points="288.5,-125.2 288.5,-147.2 478.5,-147.2 478.5,-125.2 288.5,-125.2"/>
<image xlink:href="../../images/foreignKeys.png" width="11px" height="12px" preserveAspectRatio="xMinYMin meet" x="293.5" y="-142.2"/>
<text text-anchor="start" x="308.5" y="-132.3" font-family="Helvetica,sans-Serif" font-size="11.00" fill="#000000">item_educacional_origem_id</text>
<polygon fill="none" stroke="#000000" points="478.5,-125.2 478.5,-147.2 587.5,-147.2 587.5,-125.2 478.5,-125.2"/>
<text text-anchor="start" x="481.5" y="-132.9" font-family="Helvetica,sans-Serif" font-size="11.00" fill="#000000">int4[10]</text>
<polygon fill="none" stroke="#000000" points="288.5,-103.2 288.5,-125.2 478.5,-125.2 478.5,-103.2 288.5,-103.2"/>
<image xlink:href="../../images/foreignKeys.png" width="11px" height="12px" preserveAspectRatio="xMinYMin meet" x="293.5" y="-120.2"/>
<text text-anchor="start" x="308.5" y="-110.3" font-family="Helvetica,sans-Serif" font-size="11.00" fill="#000000">item_educacional_cloud_id</text>
<polygon fill="none" stroke="#000000" points="478.5,-103.2 478.5,-125.2 587.5,-125.2 587.5,-103.2 478.5,-103.2"/>
<text text-anchor="start" x="481.5" y="-110.9" font-family="Helvetica,sans-Serif" font-size="11.00" fill="#000000">int4[10]</text>
<polygon fill="none" stroke="#000000" points="288.5,-81.2 288.5,-103.2 478.5,-103.2 478.5,-81.2 288.5,-81.2"/>
<image xlink:href="../../images/foreignKeys.png" width="11px" height="12px" preserveAspectRatio="xMinYMin meet" x="293.5" y="-98.2"/>
<text text-anchor="start" x="308.5" y="-88.3" font-family="Helvetica,sans-Serif" font-size="11.00" fill="#000000">enturmacao_origem_id</text>
<polygon fill="none" stroke="#000000" points="478.5,-81.2 478.5,-103.2 587.5,-103.2 587.5,-81.2 478.5,-81.2"/>
<text text-anchor="start" x="481.5" y="-88.9" font-family="Helvetica,sans-Serif" font-size="11.00" fill="#000000">int4[10]</text>
<polygon fill="none" stroke="#000000" points="288.5,-59.2 288.5,-81.2 478.5,-81.2 478.5,-59.2 288.5,-59.2"/>
<image xlink:href="../../images/foreignKeys.png" width="11px" height="12px" preserveAspectRatio="xMinYMin meet" x="293.5" y="-76.2"/>
<text text-anchor="start" x="308.5" y="-66.3" font-family="Helvetica,sans-Serif" font-size="11.00" fill="#000000">enturmacao_cloud_id</text>
<polygon fill="none" stroke="#000000" points="478.5,-59.2 478.5,-81.2 587.5,-81.2 587.5,-59.2 478.5,-59.2"/>
<text text-anchor="start" x="481.5" y="-66.9" font-family="Helvetica,sans-Serif" font-size="11.00" fill="#000000">int4[10]</text>
<polygon fill="#ffffff" stroke="transparent" points="288.5,-40.2 288.5,-59.2 390.5,-59.2 390.5,-40.2 288.5,-40.2"/>
<polygon fill="none" stroke="#000000" points="288.5,-40.2 288.5,-59.2 390.5,-59.2 390.5,-40.2 288.5,-40.2"/>
<text text-anchor="start" x="291.5" y="-46.3" font-family="Helvetica,sans-Serif" font-size="11.00" fill="#000000">&lt; 10</text>
<polygon fill="#ffffff" stroke="transparent" points="390.5,-40.2 390.5,-59.2 478.5,-59.2 478.5,-40.2 390.5,-40.2"/>
<polygon fill="none" stroke="#000000" points="390.5,-40.2 390.5,-59.2 478.5,-59.2 478.5,-40.2 390.5,-40.2"/>
<text text-anchor="start" x="469.3862" y="-46.3" font-family="Helvetica,sans-Serif" font-size="11.00" fill="#000000"> &#160;</text>
<polygon fill="#ffffff" stroke="transparent" points="478.5,-40.2 478.5,-59.2 587.5,-59.2 587.5,-40.2 478.5,-40.2"/>
<polygon fill="none" stroke="#000000" points="478.5,-40.2 478.5,-59.2 587.5,-59.2 587.5,-40.2 478.5,-40.2"/>
<text text-anchor="start" x="568.9053" y="-46.3" font-family="Helvetica,sans-Serif" font-size="11.00" fill="#000000">0 &gt;</text>
<polygon fill="none" stroke="#000000" stroke-width="2" points="287,-39.2 287,-435.2 588,-435.2 588,-39.2 287,-39.2"/>
</a>
</g>
</g>
<!-- inscricao_lista_espera_situacoes -->
<g id="node2" class="node">
<title>inscricao_lista_espera_situacoes</title>
<g id="a_node2"><a xlink:href="../../tables/inscricao_lista_espera_situacoes.html" xlink:title="inscricao_lista_espera_situacoes" target="_top">
<polygon fill="#ffffff" stroke="transparent" points="8,-120.7 8,-203.7 237,-203.7 237,-120.7 8,-120.7"/>
<polygon fill="#f5f5f5" stroke="transparent" points="8.5,-180.2 8.5,-203.2 237.5,-203.2 237.5,-180.2 8.5,-180.2"/>
<polygon fill="none" stroke="#000000" points="8.5,-180.2 8.5,-203.2 237.5,-203.2 237.5,-180.2 8.5,-180.2"/>
<text text-anchor="start" x="13.5" y="-188.8" font-family="Helvetica,sans-Serif" font-weight="bold" font-size="11.00" fill="#000000">inscricao_lista_espera_situacoes</text>
<text text-anchor="start" x="203.0219" y="-188.3" font-family="Helvetica,sans-Serif" font-size="11.00" fill="#000000">[table]</text>
<polygon fill="none" stroke="#000000" points="8.5,-158.2 8.5,-180.2 237.5,-180.2 237.5,-158.2 8.5,-158.2"/>
<image xlink:href="../../images/primaryKeys.png" width="11px" height="12px" preserveAspectRatio="xMinYMin meet" x="13.5" y="-175.2"/>
<text text-anchor="start" x="37.5" y="-165.3" font-family="Helvetica,sans-Serif" font-size="11.00" fill="#000000">id</text>
<polygon fill="none" stroke="#000000" points="8.5,-139.2 8.5,-158.2 237.5,-158.2 237.5,-139.2 8.5,-139.2"/>
<text text-anchor="start" x="11.5" y="-145.3" font-family="Helvetica,sans-Serif" font-size="11.00" fill="#000000">...</text>
<polygon fill="#ffffff" stroke="transparent" points="8.5,-120.2 8.5,-139.2 106.5,-139.2 106.5,-120.2 8.5,-120.2"/>
<polygon fill="none" stroke="#000000" points="8.5,-120.2 8.5,-139.2 106.5,-139.2 106.5,-120.2 8.5,-120.2"/>
<text text-anchor="start" x="11.5" y="-126.3" font-family="Helvetica,sans-Serif" font-size="11.00" fill="#000000"> &#160;</text>
<polygon fill="#ffffff" stroke="transparent" points="106.5,-120.2 106.5,-139.2 161.5,-139.2 161.5,-120.2 106.5,-120.2"/>
<polygon fill="none" stroke="#000000" points="106.5,-120.2 106.5,-139.2 161.5,-139.2 161.5,-120.2 106.5,-120.2"/>
<text text-anchor="start" x="152.3862" y="-126.3" font-family="Helvetica,sans-Serif" font-size="11.00" fill="#000000"> &#160;</text>
<polygon fill="#ffffff" stroke="transparent" points="161.5,-120.2 161.5,-139.2 237.5,-139.2 237.5,-120.2 161.5,-120.2"/>
<polygon fill="none" stroke="#000000" points="161.5,-120.2 161.5,-139.2 237.5,-139.2 237.5,-120.2 161.5,-120.2"/>
<text text-anchor="start" x="206.6755" y="-126.3" font-family="Helvetica,sans-Serif" font-size="11.00" fill="#000000">596 &gt;</text>
</a>
</g>
</g>
<!-- registros_faltas&#45;&gt;inscricao_lista_espera_situacoes -->
<g id="edge1" class="edge">
<title>registros_faltas:w&#45;&gt;inscricao_lista_espera_situacoes:e</title>
<path fill="none" stroke="#000000" stroke-dasharray="5,2" d="M274.5177,-241.6139C255.094,-225.0372 272.4549,-169.2 237.5,-169.2"/>
<polygon fill="#000000" stroke="#000000" points="280.8984,-243.7067 287.378,-249.6207 284.6992,-244.9534 288.5,-246.2 288.5,-246.2 288.5,-246.2 284.6992,-244.9534 289.622,-242.7793 280.8984,-243.7067 280.8984,-243.7067"/>
<ellipse fill="none" stroke="#000000" cx="277.8578" cy="-242.7094" rx="3.2" ry="3.2"/>
</g>
<!-- registros_faltas&#45;&gt;inscricao_lista_espera_situacoes -->
<g id="edge2" class="edge">
<title>registros_faltas:w&#45;&gt;inscricao_lista_espera_situacoes:e</title>
<path fill="none" stroke="#000000" stroke-dasharray="5,2" d="M274.4616,-264.1965C249.198,-245.6751 281.0017,-169.2 237.5,-169.2"/>
<polygon fill="#000000" stroke="#000000" points="280.8067,-266.006 287.5127,-271.662 284.6534,-267.103 288.5,-268.2 288.5,-268.2 288.5,-268.2 284.6534,-267.103 289.4873,-264.738 280.8067,-266.006 280.8067,-266.006"/>
<ellipse fill="none" stroke="#000000" cx="277.7294" cy="-265.1283" rx="3.2" ry="3.2"/>
</g>
<!-- registros_faltas&#45;&gt;inscricao_lista_espera_situacoes -->
<g id="edge3" class="edge">
<title>registros_faltas:w&#45;&gt;inscricao_lista_espera_situacoes:e</title>
<path fill="none" stroke="#000000" stroke-dasharray="5,2" d="M274.4616,-74.2035C249.198,-92.7249 281.0017,-169.2 237.5,-169.2"/>
<polygon fill="#000000" stroke="#000000" points="280.8067,-72.394 289.4873,-73.662 284.6534,-71.297 288.5,-70.2 288.5,-70.2 288.5,-70.2 284.6534,-71.297 287.5127,-66.738 280.8067,-72.394 280.8067,-72.394"/>
<ellipse fill="none" stroke="#000000" cx="277.7294" cy="-73.2717" rx="3.2" ry="3.2"/>
</g>
<!-- registros_faltas&#45;&gt;inscricao_lista_espera_situacoes -->
<g id="edge4" class="edge">
<title>registros_faltas:w&#45;&gt;inscricao_lista_espera_situacoes:e</title>
<path fill="none" stroke="#000000" stroke-dasharray="5,2" d="M274.5177,-96.7861C255.094,-113.3628 272.4549,-169.2 237.5,-169.2"/>
<polygon fill="#000000" stroke="#000000" points="280.8984,-94.6933 289.622,-95.6207 284.6992,-93.4466 288.5,-92.2 288.5,-92.2 288.5,-92.2 284.6992,-93.4466 287.378,-88.7793 280.8984,-94.6933 280.8984,-94.6933"/>
<ellipse fill="none" stroke="#000000" cx="277.8578" cy="-95.6906" rx="3.2" ry="3.2"/>
</g>
<!-- registros_faltas&#45;&gt;inscricao_lista_espera_situacoes -->
<g id="edge5" class="edge">
<title>registros_faltas:w&#45;&gt;inscricao_lista_espera_situacoes:e</title>
<path fill="none" stroke="#000000" stroke-dasharray="5,2" d="M274.4604,-198.1536C261.3775,-189.3416 258.5921,-169.2 237.5,-169.2"/>
<polygon fill="#000000" stroke="#000000" points="280.8129,-199.9844 287.503,-205.6592 284.6565,-201.0922 288.5,-202.2 288.5,-202.2 288.5,-202.2 284.6565,-201.0922 289.497,-198.7408 280.8129,-199.9844 280.8129,-199.9844"/>
<ellipse fill="none" stroke="#000000" cx="277.7381" cy="-199.0982" rx="3.2" ry="3.2"/>
</g>
<!-- registros_faltas&#45;&gt;inscricao_lista_espera_situacoes -->
<g id="edge6" class="edge">
<title>registros_faltas:w&#45;&gt;inscricao_lista_espera_situacoes:e</title>
<path fill="none" stroke="#000000" stroke-dasharray="5,2" d="M274.7081,-219.5107C259.2137,-206.2102 264.8462,-169.2 237.5,-169.2"/>
<polygon fill="#000000" stroke="#000000" points="280.9258,-221.6247 287.3411,-227.6084 284.7129,-222.9124 288.5,-224.2 288.5,-224.2 288.5,-224.2 284.7129,-222.9124 289.6589,-220.7916 280.9258,-221.6247 280.9258,-221.6247"/>
<ellipse fill="none" stroke="#000000" cx="277.8961" cy="-220.5946" rx="3.2" ry="3.2"/>
</g>
<!-- registros_faltas&#45;&gt;inscricao_lista_espera_situacoes -->
<g id="edge7" class="edge">
<title>registros_faltas:w&#45;&gt;inscricao_lista_espera_situacoes:e</title>
<path fill="none" stroke="#000000" stroke-dasharray="5,2" d="M274.7081,-118.8893C259.2137,-132.1898 264.8462,-169.2 237.5,-169.2"/>
<polygon fill="#000000" stroke="#000000" points="280.9258,-116.7753 289.6589,-117.6084 284.7129,-115.4876 288.5,-114.2 288.5,-114.2 288.5,-114.2 284.7129,-115.4876 287.3411,-110.7916 280.9258,-116.7753 280.9258,-116.7753"/>
<ellipse fill="none" stroke="#000000" cx="277.8961" cy="-117.8054" rx="3.2" ry="3.2"/>
</g>
<!-- registros_faltas&#45;&gt;inscricao_lista_espera_situacoes -->
<g id="edge8" class="edge">
<title>registros_faltas:w&#45;&gt;inscricao_lista_espera_situacoes:e</title>
<path fill="none" stroke="#000000" stroke-dasharray="5,2" d="M274.4604,-140.2464C261.3775,-149.0584 258.5921,-169.2 237.5,-169.2"/>
<polygon fill="#000000" stroke="#000000" points="280.8129,-138.4156 289.497,-139.6592 284.6565,-137.3078 288.5,-136.2 288.5,-136.2 288.5,-136.2 284.6565,-137.3078 287.503,-132.7408 280.8129,-138.4156 280.8129,-138.4156"/>
<ellipse fill="none" stroke="#000000" cx="277.7381" cy="-139.3018" rx="3.2" ry="3.2"/>
</g>
<!-- registros_faltas&#45;&gt;inscricao_lista_espera_situacoes -->
<g id="edge9" class="edge">
<title>registros_faltas:w&#45;&gt;inscricao_lista_espera_situacoes:e</title>
<path fill="none" stroke="#000000" stroke-dasharray="5,2" d="M274.0097,-159.9188C261.8398,-163.0125 254.8909,-169.2 237.5,-169.2"/>
<polygon fill="#000000" stroke="#000000" points="280.5557,-159.1424 288.9241,-161.7749 284.5278,-158.6712 288.5,-158.2 288.5,-158.2 288.5,-158.2 284.5278,-158.6712 288.0759,-154.6251 280.5557,-159.1424 280.5557,-159.1424"/>
<ellipse fill="none" stroke="#000000" cx="277.378" cy="-159.5193" rx="3.2" ry="3.2"/>
</g>
<!-- registros_faltas&#45;&gt;inscricao_lista_espera_situacoes -->
<g id="edge10" class="edge">
<title>registros_faltas:w&#45;&gt;inscricao_lista_espera_situacoes:e</title>
<path fill="none" stroke="#000000" stroke-dasharray="5,2" d="M274.0097,-178.4813C261.8398,-175.3875 254.8909,-169.2 237.5,-169.2"/>
<polygon fill="#000000" stroke="#000000" points="280.5557,-179.2576 288.0759,-183.7749 284.5278,-179.7288 288.5,-180.2 288.5,-180.2 288.5,-180.2 284.5278,-179.7288 288.9241,-176.6251 280.5557,-179.2576 280.5557,-179.2576"/>
<ellipse fill="none" stroke="#000000" cx="277.378" cy="-178.8807" rx="3.2" ry="3.2"/>
</g>
</g>
</svg>
