<?xml version="1.0" encoding="UTF-8" standalone="no"?>
<!DOCTYPE svg PUBLIC "-//W3C//DTD SVG 1.1//EN"
 "http://www.w3.org/Graphics/SVG/1.1/DTD/svg11.dtd">
<!-- Generated by graphviz version 2.40.1 (20161225.0304)
 -->
<!-- Title: oneDegreeRelationshipsDiagramImplied Pages: 1 -->
<svg width="715pt" height="448pt"
 viewBox="0.00 0.00 715.00 448.20" xmlns="http://www.w3.org/2000/svg" xmlns:xlink="http://www.w3.org/1999/xlink">
<g id="graph0" class="graph" transform="scale(1 1) rotate(0) translate(4 444.2)">
<title>oneDegreeRelationshipsDiagramImplied</title>
<polygon fill="#ffffff" stroke="transparent" points="-4,4 -4,-444.2 711,-444.2 711,4 -4,4"/>
<text text-anchor="middle" x="72.4936" y="-7.3" font-family="Helvetica,sans-Serif" font-size="11.00" fill="#000000">Generated by SchemaSpy</text>
<!-- registros_avaliacoes_cha -->
<g id="node1" class="node">
<title>registros_avaliacoes_cha</title>
<g id="a_node1"><a xlink:href="../../tables/registros_avaliacoes_cha.html" xlink:title="registros_avaliacoes_cha" target="_top">
<polygon fill="#ffffff" stroke="transparent" points="286,-38.2 286,-436.2 699,-436.2 699,-38.2 286,-38.2"/>
<polygon fill="#f5f5f5" stroke="transparent" points="288.5,-411.2 288.5,-434.2 697.5,-434.2 697.5,-411.2 288.5,-411.2"/>
<polygon fill="none" stroke="#000000" points="288.5,-411.2 288.5,-434.2 697.5,-434.2 697.5,-411.2 288.5,-411.2"/>
<text text-anchor="start" x="293.5" y="-419.8" font-family="Helvetica,sans-Serif" font-weight="bold" font-size="11.00" fill="#000000">registros_avaliacoes_cha</text>
<text text-anchor="start" x="662.5437" y="-419.3" font-family="Helvetica,sans-Serif" font-size="11.00" fill="#000000">[table]</text>
<polygon fill="none" stroke="#000000" points="288.5,-389.2 288.5,-411.2 478.5,-411.2 478.5,-389.2 288.5,-389.2"/>
<text text-anchor="start" x="308.5" y="-396.3" font-family="Helvetica,sans-Serif" font-size="11.00" fill="#000000">sistema</text>
<polygon fill="none" stroke="#000000" points="478.5,-389.2 478.5,-411.2 697.5,-411.2 697.5,-389.2 478.5,-389.2"/>
<text text-anchor="start" x="481.5" y="-396.9" font-family="Helvetica,sans-Serif" font-size="11.00" fill="#000000">int4[10]</text>
<polygon fill="none" stroke="#000000" points="288.5,-367.2 288.5,-389.2 478.5,-389.2 478.5,-367.2 288.5,-367.2"/>
<text text-anchor="start" x="308.5" y="-374.3" font-family="Helvetica,sans-Serif" font-size="11.00" fill="#000000">tipo_registro</text>
<polygon fill="none" stroke="#000000" points="478.5,-367.2 478.5,-389.2 697.5,-389.2 697.5,-367.2 478.5,-367.2"/>
<text text-anchor="start" x="481.5" y="-374.9" font-family="Helvetica,sans-Serif" font-size="11.00" fill="#000000">text[2147483647]</text>
<polygon fill="none" stroke="#000000" points="288.5,-345.2 288.5,-367.2 478.5,-367.2 478.5,-345.2 288.5,-345.2"/>
<text text-anchor="start" x="308.5" y="-352.3" font-family="Helvetica,sans-Serif" font-size="11.00" fill="#000000">id_integracao</text>
<polygon fill="none" stroke="#000000" points="478.5,-345.2 478.5,-367.2 697.5,-367.2 697.5,-345.2 478.5,-345.2"/>
<text text-anchor="start" x="481.5" y="-352.9" font-family="Helvetica,sans-Serif" font-size="11.00" fill="#000000">varchar[2147483647]</text>
<polygon fill="none" stroke="#000000" points="288.5,-323.2 288.5,-345.2 478.5,-345.2 478.5,-323.2 288.5,-323.2"/>
<text text-anchor="start" x="308.5" y="-330.3" font-family="Helvetica,sans-Serif" font-size="11.00" fill="#000000">id_origem</text>
<polygon fill="none" stroke="#000000" points="478.5,-323.2 478.5,-345.2 697.5,-345.2 697.5,-323.2 478.5,-323.2"/>
<text text-anchor="start" x="481.5" y="-330.9" font-family="Helvetica,sans-Serif" font-size="11.00" fill="#000000">int4[10]</text>
<polygon fill="none" stroke="#000000" points="288.5,-301.2 288.5,-323.2 478.5,-323.2 478.5,-301.2 288.5,-301.2"/>
<text text-anchor="start" x="308.5" y="-308.3" font-family="Helvetica,sans-Serif" font-size="11.00" fill="#000000">id_cloud</text>
<polygon fill="none" stroke="#000000" points="478.5,-301.2 478.5,-323.2 697.5,-323.2 697.5,-301.2 478.5,-301.2"/>
<text text-anchor="start" x="481.5" y="-308.9" font-family="Helvetica,sans-Serif" font-size="11.00" fill="#000000">int4[10]</text>
<polygon fill="none" stroke="#000000" points="288.5,-279.2 288.5,-301.2 478.5,-301.2 478.5,-279.2 288.5,-279.2"/>
<image xlink:href="../../images/foreignKeys.png" width="11px" height="12px" preserveAspectRatio="xMinYMin meet" x="293.5" y="-296.2"/>
<text text-anchor="start" x="308.5" y="-286.3" font-family="Helvetica,sans-Serif" font-size="11.00" fill="#000000">competencia_cha_origem_id</text>
<polygon fill="none" stroke="#000000" points="478.5,-279.2 478.5,-301.2 697.5,-301.2 697.5,-279.2 478.5,-279.2"/>
<text text-anchor="start" x="481.5" y="-286.9" font-family="Helvetica,sans-Serif" font-size="11.00" fill="#000000">int4[10]</text>
<polygon fill="none" stroke="#000000" points="288.5,-257.2 288.5,-279.2 478.5,-279.2 478.5,-257.2 288.5,-257.2"/>
<image xlink:href="../../images/foreignKeys.png" width="11px" height="12px" preserveAspectRatio="xMinYMin meet" x="293.5" y="-274.2"/>
<text text-anchor="start" x="308.5" y="-264.3" font-family="Helvetica,sans-Serif" font-size="11.00" fill="#000000">competencia_cha_cloud_id</text>
<polygon fill="none" stroke="#000000" points="478.5,-257.2 478.5,-279.2 697.5,-279.2 697.5,-257.2 478.5,-257.2"/>
<text text-anchor="start" x="481.5" y="-264.9" font-family="Helvetica,sans-Serif" font-size="11.00" fill="#000000">int4[10]</text>
<polygon fill="none" stroke="#000000" points="288.5,-235.2 288.5,-257.2 478.5,-257.2 478.5,-235.2 288.5,-235.2"/>
<image xlink:href="../../images/foreignKeys.png" width="11px" height="12px" preserveAspectRatio="xMinYMin meet" x="293.5" y="-252.2"/>
<text text-anchor="start" x="308.5" y="-242.3" font-family="Helvetica,sans-Serif" font-size="11.00" fill="#000000">item_educacional_origem_id</text>
<polygon fill="none" stroke="#000000" points="478.5,-235.2 478.5,-257.2 697.5,-257.2 697.5,-235.2 478.5,-235.2"/>
<text text-anchor="start" x="481.5" y="-242.9" font-family="Helvetica,sans-Serif" font-size="11.00" fill="#000000">int4[10]</text>
<polygon fill="none" stroke="#000000" points="288.5,-213.2 288.5,-235.2 478.5,-235.2 478.5,-213.2 288.5,-213.2"/>
<image xlink:href="../../images/foreignKeys.png" width="11px" height="12px" preserveAspectRatio="xMinYMin meet" x="293.5" y="-230.2"/>
<text text-anchor="start" x="308.5" y="-220.3" font-family="Helvetica,sans-Serif" font-size="11.00" fill="#000000">item_educacional_cloud_id</text>
<polygon fill="none" stroke="#000000" points="478.5,-213.2 478.5,-235.2 697.5,-235.2 697.5,-213.2 478.5,-213.2"/>
<text text-anchor="start" x="481.5" y="-220.9" font-family="Helvetica,sans-Serif" font-size="11.00" fill="#000000">int4[10]</text>
<polygon fill="none" stroke="#000000" points="288.5,-191.2 288.5,-213.2 478.5,-213.2 478.5,-191.2 288.5,-191.2"/>
<image xlink:href="../../images/foreignKeys.png" width="11px" height="12px" preserveAspectRatio="xMinYMin meet" x="293.5" y="-208.2"/>
<text text-anchor="start" x="308.5" y="-198.3" font-family="Helvetica,sans-Serif" font-size="11.00" fill="#000000">turma_origem_id</text>
<polygon fill="none" stroke="#000000" points="478.5,-191.2 478.5,-213.2 697.5,-213.2 697.5,-191.2 478.5,-191.2"/>
<text text-anchor="start" x="481.5" y="-198.9" font-family="Helvetica,sans-Serif" font-size="11.00" fill="#000000">int4[10]</text>
<polygon fill="none" stroke="#000000" points="288.5,-169.2 288.5,-191.2 478.5,-191.2 478.5,-169.2 288.5,-169.2"/>
<image xlink:href="../../images/foreignKeys.png" width="11px" height="12px" preserveAspectRatio="xMinYMin meet" x="293.5" y="-186.2"/>
<text text-anchor="start" x="308.5" y="-176.3" font-family="Helvetica,sans-Serif" font-size="11.00" fill="#000000">turma_cloud_id</text>
<polygon fill="none" stroke="#000000" points="478.5,-169.2 478.5,-191.2 697.5,-191.2 697.5,-169.2 478.5,-169.2"/>
<text text-anchor="start" x="481.5" y="-176.9" font-family="Helvetica,sans-Serif" font-size="11.00" fill="#000000">int4[10]</text>
<polygon fill="none" stroke="#000000" points="288.5,-147.2 288.5,-169.2 478.5,-169.2 478.5,-147.2 288.5,-147.2"/>
<image xlink:href="../../images/foreignKeys.png" width="11px" height="12px" preserveAspectRatio="xMinYMin meet" x="293.5" y="-164.2"/>
<text text-anchor="start" x="308.5" y="-154.3" font-family="Helvetica,sans-Serif" font-size="11.00" fill="#000000">periodo_avaliativo_origem_id</text>
<polygon fill="none" stroke="#000000" points="478.5,-147.2 478.5,-169.2 697.5,-169.2 697.5,-147.2 478.5,-147.2"/>
<text text-anchor="start" x="481.5" y="-154.9" font-family="Helvetica,sans-Serif" font-size="11.00" fill="#000000">int4[10]</text>
<polygon fill="none" stroke="#000000" points="288.5,-125.2 288.5,-147.2 478.5,-147.2 478.5,-125.2 288.5,-125.2"/>
<image xlink:href="../../images/foreignKeys.png" width="11px" height="12px" preserveAspectRatio="xMinYMin meet" x="293.5" y="-142.2"/>
<text text-anchor="start" x="308.5" y="-132.3" font-family="Helvetica,sans-Serif" font-size="11.00" fill="#000000">periodo_avaliativo_cloud_id</text>
<polygon fill="none" stroke="#000000" points="478.5,-125.2 478.5,-147.2 697.5,-147.2 697.5,-125.2 478.5,-125.2"/>
<text text-anchor="start" x="481.5" y="-132.9" font-family="Helvetica,sans-Serif" font-size="11.00" fill="#000000">int4[10]</text>
<polygon fill="none" stroke="#000000" points="288.5,-103.2 288.5,-125.2 478.5,-125.2 478.5,-103.2 288.5,-103.2"/>
<text text-anchor="start" x="308.5" y="-110.3" font-family="Helvetica,sans-Serif" font-size="11.00" fill="#000000">tipo_periodo</text>
<polygon fill="none" stroke="#000000" points="478.5,-103.2 478.5,-125.2 697.5,-125.2 697.5,-103.2 478.5,-103.2"/>
<text text-anchor="start" x="481.5" y="-110.9" font-family="Helvetica,sans-Serif" font-size="11.00" fill="#000000">&quot;educacao&quot;.&quot;tiposperiodos&quot;[2147483647]</text>
<polygon fill="none" stroke="#000000" points="288.5,-81.2 288.5,-103.2 478.5,-103.2 478.5,-81.2 288.5,-81.2"/>
<text text-anchor="start" x="308.5" y="-88.3" font-family="Helvetica,sans-Serif" font-size="11.00" fill="#000000">modo_avaliacao</text>
<polygon fill="none" stroke="#000000" points="478.5,-81.2 478.5,-103.2 697.5,-103.2 697.5,-81.2 478.5,-81.2"/>
<text text-anchor="start" x="481.4562" y="-88.9" font-family="Helvetica,sans-Serif" font-size="11.00" fill="#000000">&quot;educacao&quot;.&quot;modosavaliacao&quot;[2147483647]</text>
<polygon fill="none" stroke="#000000" points="288.5,-59.2 288.5,-81.2 478.5,-81.2 478.5,-59.2 288.5,-59.2"/>
<text text-anchor="start" x="308.5" y="-66.3" font-family="Helvetica,sans-Serif" font-size="11.00" fill="#000000">permite_avaliacao</text>
<polygon fill="none" stroke="#000000" points="478.5,-59.2 478.5,-81.2 697.5,-81.2 697.5,-59.2 478.5,-59.2"/>
<text text-anchor="start" x="481.5" y="-66.9" font-family="Helvetica,sans-Serif" font-size="11.00" fill="#000000">bool[1]</text>
<polygon fill="#ffffff" stroke="transparent" points="288.5,-40.2 288.5,-59.2 387.5,-59.2 387.5,-40.2 288.5,-40.2"/>
<polygon fill="none" stroke="#000000" points="288.5,-40.2 288.5,-59.2 387.5,-59.2 387.5,-40.2 288.5,-40.2"/>
<text text-anchor="start" x="291.5" y="-46.3" font-family="Helvetica,sans-Serif" font-size="11.00" fill="#000000">&lt; 8</text>
<polygon fill="#ffffff" stroke="transparent" points="387.5,-40.2 387.5,-59.2 478.5,-59.2 478.5,-40.2 387.5,-40.2"/>
<polygon fill="none" stroke="#000000" points="387.5,-40.2 387.5,-59.2 478.5,-59.2 478.5,-40.2 387.5,-40.2"/>
<text text-anchor="start" x="469.3862" y="-46.3" font-family="Helvetica,sans-Serif" font-size="11.00" fill="#000000"> &#160;</text>
<polygon fill="#ffffff" stroke="transparent" points="478.5,-40.2 478.5,-59.2 697.5,-59.2 697.5,-40.2 478.5,-40.2"/>
<polygon fill="none" stroke="#000000" points="478.5,-40.2 478.5,-59.2 697.5,-59.2 697.5,-40.2 478.5,-40.2"/>
<text text-anchor="start" x="678.9053" y="-46.3" font-family="Helvetica,sans-Serif" font-size="11.00" fill="#000000">0 &gt;</text>
<polygon fill="none" stroke="#000000" stroke-width="2" points="287,-39.2 287,-435.2 698,-435.2 698,-39.2 287,-39.2"/>
</a>
</g>
</g>
<!-- inscricao_lista_espera_situacoes -->
<g id="node2" class="node">
<title>inscricao_lista_espera_situacoes</title>
<g id="a_node2"><a xlink:href="../../tables/inscricao_lista_espera_situacoes.html" xlink:title="inscricao_lista_espera_situacoes" target="_top">
<polygon fill="#ffffff" stroke="transparent" points="8,-164.7 8,-247.7 237,-247.7 237,-164.7 8,-164.7"/>
<polygon fill="#f5f5f5" stroke="transparent" points="8.5,-224.2 8.5,-247.2 237.5,-247.2 237.5,-224.2 8.5,-224.2"/>
<polygon fill="none" stroke="#000000" points="8.5,-224.2 8.5,-247.2 237.5,-247.2 237.5,-224.2 8.5,-224.2"/>
<text text-anchor="start" x="13.5" y="-232.8" font-family="Helvetica,sans-Serif" font-weight="bold" font-size="11.00" fill="#000000">inscricao_lista_espera_situacoes</text>
<text text-anchor="start" x="203.0219" y="-232.3" font-family="Helvetica,sans-Serif" font-size="11.00" fill="#000000">[table]</text>
<polygon fill="none" stroke="#000000" points="8.5,-202.2 8.5,-224.2 237.5,-224.2 237.5,-202.2 8.5,-202.2"/>
<image xlink:href="../../images/primaryKeys.png" width="11px" height="12px" preserveAspectRatio="xMinYMin meet" x="13.5" y="-219.2"/>
<text text-anchor="start" x="37.5" y="-209.3" font-family="Helvetica,sans-Serif" font-size="11.00" fill="#000000">id</text>
<polygon fill="none" stroke="#000000" points="8.5,-183.2 8.5,-202.2 237.5,-202.2 237.5,-183.2 8.5,-183.2"/>
<text text-anchor="start" x="11.5" y="-189.3" font-family="Helvetica,sans-Serif" font-size="11.00" fill="#000000">...</text>
<polygon fill="#ffffff" stroke="transparent" points="8.5,-164.2 8.5,-183.2 106.5,-183.2 106.5,-164.2 8.5,-164.2"/>
<polygon fill="none" stroke="#000000" points="8.5,-164.2 8.5,-183.2 106.5,-183.2 106.5,-164.2 8.5,-164.2"/>
<text text-anchor="start" x="11.5" y="-170.3" font-family="Helvetica,sans-Serif" font-size="11.00" fill="#000000"> &#160;</text>
<polygon fill="#ffffff" stroke="transparent" points="106.5,-164.2 106.5,-183.2 161.5,-183.2 161.5,-164.2 106.5,-164.2"/>
<polygon fill="none" stroke="#000000" points="106.5,-164.2 106.5,-183.2 161.5,-183.2 161.5,-164.2 106.5,-164.2"/>
<text text-anchor="start" x="152.3862" y="-170.3" font-family="Helvetica,sans-Serif" font-size="11.00" fill="#000000"> &#160;</text>
<polygon fill="#ffffff" stroke="transparent" points="161.5,-164.2 161.5,-183.2 237.5,-183.2 237.5,-164.2 161.5,-164.2"/>
<polygon fill="none" stroke="#000000" points="161.5,-164.2 161.5,-183.2 237.5,-183.2 237.5,-164.2 161.5,-164.2"/>
<text text-anchor="start" x="206.6755" y="-170.3" font-family="Helvetica,sans-Serif" font-size="11.00" fill="#000000">596 &gt;</text>
</a>
</g>
</g>
<!-- registros_avaliacoes_cha&#45;&gt;inscricao_lista_espera_situacoes -->
<g id="edge1" class="edge">
<title>registros_avaliacoes_cha:w&#45;&gt;inscricao_lista_espera_situacoes:e</title>
<path fill="none" stroke="#000000" stroke-dasharray="5,2" d="M274.7081,-263.5107C259.2137,-250.2102 264.8462,-213.2 237.5,-213.2"/>
<polygon fill="#000000" stroke="#000000" points="280.9258,-265.6247 287.3411,-271.6084 284.7129,-266.9124 288.5,-268.2 288.5,-268.2 288.5,-268.2 284.7129,-266.9124 289.6589,-264.7916 280.9258,-265.6247 280.9258,-265.6247"/>
<ellipse fill="none" stroke="#000000" cx="277.8961" cy="-264.5946" rx="3.2" ry="3.2"/>
</g>
<!-- registros_avaliacoes_cha&#45;&gt;inscricao_lista_espera_situacoes -->
<g id="edge2" class="edge">
<title>registros_avaliacoes_cha:w&#45;&gt;inscricao_lista_espera_situacoes:e</title>
<path fill="none" stroke="#000000" stroke-dasharray="5,2" d="M274.5177,-285.6139C255.094,-269.0372 272.4549,-213.2 237.5,-213.2"/>
<polygon fill="#000000" stroke="#000000" points="280.8984,-287.7067 287.378,-293.6207 284.6992,-288.9534 288.5,-290.2 288.5,-290.2 288.5,-290.2 284.6992,-288.9534 289.622,-286.7793 280.8984,-287.7067 280.8984,-287.7067"/>
<ellipse fill="none" stroke="#000000" cx="277.8578" cy="-286.7094" rx="3.2" ry="3.2"/>
</g>
<!-- registros_avaliacoes_cha&#45;&gt;inscricao_lista_espera_situacoes -->
<g id="edge3" class="edge">
<title>registros_avaliacoes_cha:w&#45;&gt;inscricao_lista_espera_situacoes:e</title>
<path fill="none" stroke="#000000" stroke-dasharray="5,2" d="M274.0097,-222.4813C261.8398,-219.3875 254.8909,-213.2 237.5,-213.2"/>
<polygon fill="#000000" stroke="#000000" points="280.5557,-223.2576 288.0759,-227.7749 284.5278,-223.7288 288.5,-224.2 288.5,-224.2 288.5,-224.2 284.5278,-223.7288 288.9241,-220.6251 280.5557,-223.2576 280.5557,-223.2576"/>
<ellipse fill="none" stroke="#000000" cx="277.378" cy="-222.8807" rx="3.2" ry="3.2"/>
</g>
<!-- registros_avaliacoes_cha&#45;&gt;inscricao_lista_espera_situacoes -->
<g id="edge4" class="edge">
<title>registros_avaliacoes_cha:w&#45;&gt;inscricao_lista_espera_situacoes:e</title>
<path fill="none" stroke="#000000" stroke-dasharray="5,2" d="M274.4604,-242.1536C261.3775,-233.3416 258.5921,-213.2 237.5,-213.2"/>
<polygon fill="#000000" stroke="#000000" points="280.8129,-243.9844 287.503,-249.6592 284.6565,-245.0922 288.5,-246.2 288.5,-246.2 288.5,-246.2 284.6565,-245.0922 289.497,-242.7408 280.8129,-243.9844 280.8129,-243.9844"/>
<ellipse fill="none" stroke="#000000" cx="277.7381" cy="-243.0982" rx="3.2" ry="3.2"/>
</g>
<!-- registros_avaliacoes_cha&#45;&gt;inscricao_lista_espera_situacoes -->
<g id="edge5" class="edge">
<title>registros_avaliacoes_cha:w&#45;&gt;inscricao_lista_espera_situacoes:e</title>
<path fill="none" stroke="#000000" stroke-dasharray="5,2" d="M274.5177,-140.7861C255.094,-157.3628 272.4549,-213.2 237.5,-213.2"/>
<polygon fill="#000000" stroke="#000000" points="280.8984,-138.6933 289.622,-139.6207 284.6992,-137.4466 288.5,-136.2 288.5,-136.2 288.5,-136.2 284.6992,-137.4466 287.378,-132.7793 280.8984,-138.6933 280.8984,-138.6933"/>
<ellipse fill="none" stroke="#000000" cx="277.8578" cy="-139.6906" rx="3.2" ry="3.2"/>
</g>
<!-- registros_avaliacoes_cha&#45;&gt;inscricao_lista_espera_situacoes -->
<g id="edge6" class="edge">
<title>registros_avaliacoes_cha:w&#45;&gt;inscricao_lista_espera_situacoes:e</title>
<path fill="none" stroke="#000000" stroke-dasharray="5,2" d="M274.7081,-162.8893C259.2137,-176.1898 264.8462,-213.2 237.5,-213.2"/>
<polygon fill="#000000" stroke="#000000" points="280.9258,-160.7753 289.6589,-161.6084 284.7129,-159.4876 288.5,-158.2 288.5,-158.2 288.5,-158.2 284.7129,-159.4876 287.3411,-154.7916 280.9258,-160.7753 280.9258,-160.7753"/>
<ellipse fill="none" stroke="#000000" cx="277.8961" cy="-161.8054" rx="3.2" ry="3.2"/>
</g>
<!-- registros_avaliacoes_cha&#45;&gt;inscricao_lista_espera_situacoes -->
<g id="edge7" class="edge">
<title>registros_avaliacoes_cha:w&#45;&gt;inscricao_lista_espera_situacoes:e</title>
<path fill="none" stroke="#000000" stroke-dasharray="5,2" d="M274.4604,-184.2464C261.3775,-193.0584 258.5921,-213.2 237.5,-213.2"/>
<polygon fill="#000000" stroke="#000000" points="280.8129,-182.4156 289.497,-183.6592 284.6565,-181.3078 288.5,-180.2 288.5,-180.2 288.5,-180.2 284.6565,-181.3078 287.503,-176.7408 280.8129,-182.4156 280.8129,-182.4156"/>
<ellipse fill="none" stroke="#000000" cx="277.7381" cy="-183.3018" rx="3.2" ry="3.2"/>
</g>
<!-- registros_avaliacoes_cha&#45;&gt;inscricao_lista_espera_situacoes -->
<g id="edge8" class="edge">
<title>registros_avaliacoes_cha:w&#45;&gt;inscricao_lista_espera_situacoes:e</title>
<path fill="none" stroke="#000000" stroke-dasharray="5,2" d="M274.0097,-203.9188C261.8398,-207.0125 254.8909,-213.2 237.5,-213.2"/>
<polygon fill="#000000" stroke="#000000" points="280.5557,-203.1424 288.9241,-205.7749 284.5278,-202.6712 288.5,-202.2 288.5,-202.2 288.5,-202.2 284.5278,-202.6712 288.0759,-198.6251 280.5557,-203.1424 280.5557,-203.1424"/>
<ellipse fill="none" stroke="#000000" cx="277.378" cy="-203.5193" rx="3.2" ry="3.2"/>
</g>
</g>
</svg>
