<?xml version="1.0" encoding="UTF-8" standalone="no"?>
<!DOCTYPE svg PUBLIC "-//W3C//DTD SVG 1.1//EN"
 "http://www.w3.org/Graphics/SVG/1.1/DTD/svg11.dtd">
<!-- Generated by graphviz version 2.40.1 (20161225.0304)
 -->
<!-- Title: oneDegreeRelationshipsDiagramImplied Pages: 1 -->
<svg width="600pt" height="316pt"
 viewBox="0.00 0.00 600.00 316.20" xmlns="http://www.w3.org/2000/svg" xmlns:xlink="http://www.w3.org/1999/xlink">
<g id="graph0" class="graph" transform="scale(1 1) rotate(0) translate(4 312.2)">
<title>oneDegreeRelationshipsDiagramImplied</title>
<polygon fill="#ffffff" stroke="transparent" points="-4,4 -4,-312.2 596,-312.2 596,4 -4,4"/>
<text text-anchor="middle" x="72.4936" y="-7.3" font-family="Helvetica,sans-Serif" font-size="11.00" fill="#000000">Generated by SchemaSpy</text>
<!-- registro_faltas_eja_modular -->
<g id="node1" class="node">
<title>registro_faltas_eja_modular</title>
<g id="a_node1"><a xlink:href="../../tables/registro_faltas_eja_modular.html" xlink:title="registro_faltas_eja_modular" target="_top">
<polygon fill="#ffffff" stroke="transparent" points="286,-38.2 286,-304.2 584,-304.2 584,-38.2 286,-38.2"/>
<polygon fill="#f5f5f5" stroke="transparent" points="288,-279.2 288,-302.2 582,-302.2 582,-279.2 288,-279.2"/>
<polygon fill="none" stroke="#000000" points="288,-279.2 288,-302.2 582,-302.2 582,-279.2 288,-279.2"/>
<text text-anchor="start" x="293" y="-287.8" font-family="Helvetica,sans-Serif" font-weight="bold" font-size="11.00" fill="#000000">registro_faltas_eja_modular</text>
<text text-anchor="start" x="547.0437" y="-287.3" font-family="Helvetica,sans-Serif" font-size="11.00" fill="#000000">[table]</text>
<polygon fill="none" stroke="#000000" points="288,-257.2 288,-279.2 473,-279.2 473,-257.2 288,-257.2"/>
<text text-anchor="start" x="308" y="-264.3" font-family="Helvetica,sans-Serif" font-size="11.00" fill="#000000">sistema</text>
<polygon fill="none" stroke="#000000" points="473,-257.2 473,-279.2 582,-279.2 582,-257.2 473,-257.2"/>
<text text-anchor="start" x="476" y="-264.9" font-family="Helvetica,sans-Serif" font-size="11.00" fill="#000000">int4[10]</text>
<polygon fill="none" stroke="#000000" points="288,-235.2 288,-257.2 473,-257.2 473,-235.2 288,-235.2"/>
<text text-anchor="start" x="308" y="-242.3" font-family="Helvetica,sans-Serif" font-size="11.00" fill="#000000">tipo_registro</text>
<polygon fill="none" stroke="#000000" points="473,-235.2 473,-257.2 582,-257.2 582,-235.2 473,-235.2"/>
<text text-anchor="start" x="476" y="-242.9" font-family="Helvetica,sans-Serif" font-size="11.00" fill="#000000">text[2147483647]</text>
<polygon fill="none" stroke="#000000" points="288,-213.2 288,-235.2 473,-235.2 473,-213.2 288,-213.2"/>
<text text-anchor="start" x="308" y="-220.3" font-family="Helvetica,sans-Serif" font-size="11.00" fill="#000000">id_integracao</text>
<polygon fill="none" stroke="#000000" points="473,-213.2 473,-235.2 582,-235.2 582,-213.2 473,-213.2"/>
<text text-anchor="start" x="475.5344" y="-220.9" font-family="Helvetica,sans-Serif" font-size="11.00" fill="#000000">varchar[2147483647]</text>
<polygon fill="none" stroke="#000000" points="288,-191.2 288,-213.2 473,-213.2 473,-191.2 288,-191.2"/>
<text text-anchor="start" x="308" y="-198.3" font-family="Helvetica,sans-Serif" font-size="11.00" fill="#000000">id_origem</text>
<polygon fill="none" stroke="#000000" points="473,-191.2 473,-213.2 582,-213.2 582,-191.2 473,-191.2"/>
<text text-anchor="start" x="476" y="-198.9" font-family="Helvetica,sans-Serif" font-size="11.00" fill="#000000">int4[10]</text>
<polygon fill="none" stroke="#000000" points="288,-169.2 288,-191.2 473,-191.2 473,-169.2 288,-169.2"/>
<text text-anchor="start" x="308" y="-176.3" font-family="Helvetica,sans-Serif" font-size="11.00" fill="#000000">id_cloud</text>
<polygon fill="none" stroke="#000000" points="473,-169.2 473,-191.2 582,-191.2 582,-169.2 473,-169.2"/>
<text text-anchor="start" x="476" y="-176.9" font-family="Helvetica,sans-Serif" font-size="11.00" fill="#000000">int4[10]</text>
<polygon fill="none" stroke="#000000" points="288,-147.2 288,-169.2 473,-169.2 473,-147.2 288,-147.2"/>
<text text-anchor="start" x="308" y="-154.3" font-family="Helvetica,sans-Serif" font-size="11.00" fill="#000000">quantidade_faltas</text>
<polygon fill="none" stroke="#000000" points="473,-147.2 473,-169.2 582,-169.2 582,-147.2 473,-147.2"/>
<text text-anchor="start" x="476" y="-154.9" font-family="Helvetica,sans-Serif" font-size="11.00" fill="#000000">int4[10]</text>
<polygon fill="none" stroke="#000000" points="288,-125.2 288,-147.2 473,-147.2 473,-125.2 288,-125.2"/>
<image xlink:href="../../images/foreignKeys.png" width="11px" height="12px" preserveAspectRatio="xMinYMin meet" x="293" y="-142.2"/>
<text text-anchor="start" x="308" y="-132.3" font-family="Helvetica,sans-Serif" font-size="11.00" fill="#000000">enturmacao_origem_id</text>
<polygon fill="none" stroke="#000000" points="473,-125.2 473,-147.2 582,-147.2 582,-125.2 473,-125.2"/>
<text text-anchor="start" x="476" y="-132.9" font-family="Helvetica,sans-Serif" font-size="11.00" fill="#000000">int4[10]</text>
<polygon fill="none" stroke="#000000" points="288,-103.2 288,-125.2 473,-125.2 473,-103.2 288,-103.2"/>
<image xlink:href="../../images/foreignKeys.png" width="11px" height="12px" preserveAspectRatio="xMinYMin meet" x="293" y="-120.2"/>
<text text-anchor="start" x="308" y="-110.3" font-family="Helvetica,sans-Serif" font-size="11.00" fill="#000000">enturmacao_cloud_id</text>
<polygon fill="none" stroke="#000000" points="473,-103.2 473,-125.2 582,-125.2 582,-103.2 473,-103.2"/>
<text text-anchor="start" x="476" y="-110.9" font-family="Helvetica,sans-Serif" font-size="11.00" fill="#000000">int4[10]</text>
<polygon fill="none" stroke="#000000" points="288,-81.2 288,-103.2 473,-103.2 473,-81.2 288,-81.2"/>
<image xlink:href="../../images/foreignKeys.png" width="11px" height="12px" preserveAspectRatio="xMinYMin meet" x="293" y="-98.2"/>
<text text-anchor="start" x="308" y="-88.3" font-family="Helvetica,sans-Serif" font-size="11.00" fill="#000000">item_educacional_origem_id</text>
<polygon fill="none" stroke="#000000" points="473,-81.2 473,-103.2 582,-103.2 582,-81.2 473,-81.2"/>
<text text-anchor="start" x="476" y="-88.9" font-family="Helvetica,sans-Serif" font-size="11.00" fill="#000000">int4[10]</text>
<polygon fill="none" stroke="#000000" points="288,-59.2 288,-81.2 473,-81.2 473,-59.2 288,-59.2"/>
<image xlink:href="../../images/foreignKeys.png" width="11px" height="12px" preserveAspectRatio="xMinYMin meet" x="293" y="-76.2"/>
<text text-anchor="start" x="308" y="-66.3" font-family="Helvetica,sans-Serif" font-size="11.00" fill="#000000">item_educacional_cloud_id</text>
<polygon fill="none" stroke="#000000" points="473,-59.2 473,-81.2 582,-81.2 582,-59.2 473,-59.2"/>
<text text-anchor="start" x="476" y="-66.9" font-family="Helvetica,sans-Serif" font-size="11.00" fill="#000000">int4[10]</text>
<polygon fill="#ffffff" stroke="transparent" points="288,-40.2 288,-59.2 385,-59.2 385,-40.2 288,-40.2"/>
<polygon fill="none" stroke="#000000" points="288,-40.2 288,-59.2 385,-59.2 385,-40.2 288,-40.2"/>
<text text-anchor="start" x="291" y="-46.3" font-family="Helvetica,sans-Serif" font-size="11.00" fill="#000000">&lt; 4</text>
<polygon fill="#ffffff" stroke="transparent" points="385,-40.2 385,-59.2 473,-59.2 473,-40.2 385,-40.2"/>
<polygon fill="none" stroke="#000000" points="385,-40.2 385,-59.2 473,-59.2 473,-40.2 385,-40.2"/>
<text text-anchor="start" x="463.8862" y="-46.3" font-family="Helvetica,sans-Serif" font-size="11.00" fill="#000000"> &#160;</text>
<polygon fill="#ffffff" stroke="transparent" points="473,-40.2 473,-59.2 582,-59.2 582,-40.2 473,-40.2"/>
<polygon fill="none" stroke="#000000" points="473,-40.2 473,-59.2 582,-59.2 582,-40.2 473,-40.2"/>
<text text-anchor="start" x="563.4053" y="-46.3" font-family="Helvetica,sans-Serif" font-size="11.00" fill="#000000">0 &gt;</text>
<polygon fill="none" stroke="#000000" stroke-width="2" points="287,-39.2 287,-303.2 583,-303.2 583,-39.2 287,-39.2"/>
</a>
</g>
</g>
<!-- inscricao_lista_espera_situacoes -->
<g id="node2" class="node">
<title>inscricao_lista_espera_situacoes</title>
<g id="a_node2"><a xlink:href="../../tables/inscricao_lista_espera_situacoes.html" xlink:title="inscricao_lista_espera_situacoes" target="_top">
<polygon fill="#ffffff" stroke="transparent" points="8,-54.7 8,-137.7 237,-137.7 237,-54.7 8,-54.7"/>
<polygon fill="#f5f5f5" stroke="transparent" points="8.5,-114.2 8.5,-137.2 237.5,-137.2 237.5,-114.2 8.5,-114.2"/>
<polygon fill="none" stroke="#000000" points="8.5,-114.2 8.5,-137.2 237.5,-137.2 237.5,-114.2 8.5,-114.2"/>
<text text-anchor="start" x="13.5" y="-122.8" font-family="Helvetica,sans-Serif" font-weight="bold" font-size="11.00" fill="#000000">inscricao_lista_espera_situacoes</text>
<text text-anchor="start" x="203.0219" y="-122.3" font-family="Helvetica,sans-Serif" font-size="11.00" fill="#000000">[table]</text>
<polygon fill="none" stroke="#000000" points="8.5,-92.2 8.5,-114.2 237.5,-114.2 237.5,-92.2 8.5,-92.2"/>
<image xlink:href="../../images/primaryKeys.png" width="11px" height="12px" preserveAspectRatio="xMinYMin meet" x="13.5" y="-109.2"/>
<text text-anchor="start" x="37.5" y="-99.3" font-family="Helvetica,sans-Serif" font-size="11.00" fill="#000000">id</text>
<polygon fill="none" stroke="#000000" points="8.5,-73.2 8.5,-92.2 237.5,-92.2 237.5,-73.2 8.5,-73.2"/>
<text text-anchor="start" x="11.5" y="-79.3" font-family="Helvetica,sans-Serif" font-size="11.00" fill="#000000">...</text>
<polygon fill="#ffffff" stroke="transparent" points="8.5,-54.2 8.5,-73.2 106.5,-73.2 106.5,-54.2 8.5,-54.2"/>
<polygon fill="none" stroke="#000000" points="8.5,-54.2 8.5,-73.2 106.5,-73.2 106.5,-54.2 8.5,-54.2"/>
<text text-anchor="start" x="11.5" y="-60.3" font-family="Helvetica,sans-Serif" font-size="11.00" fill="#000000"> &#160;</text>
<polygon fill="#ffffff" stroke="transparent" points="106.5,-54.2 106.5,-73.2 161.5,-73.2 161.5,-54.2 106.5,-54.2"/>
<polygon fill="none" stroke="#000000" points="106.5,-54.2 106.5,-73.2 161.5,-73.2 161.5,-54.2 106.5,-54.2"/>
<text text-anchor="start" x="152.3862" y="-60.3" font-family="Helvetica,sans-Serif" font-size="11.00" fill="#000000"> &#160;</text>
<polygon fill="#ffffff" stroke="transparent" points="161.5,-54.2 161.5,-73.2 237.5,-73.2 237.5,-54.2 161.5,-54.2"/>
<polygon fill="none" stroke="#000000" points="161.5,-54.2 161.5,-73.2 237.5,-73.2 237.5,-54.2 161.5,-54.2"/>
<text text-anchor="start" x="206.6755" y="-60.3" font-family="Helvetica,sans-Serif" font-size="11.00" fill="#000000">596 &gt;</text>
</a>
</g>
</g>
<!-- registro_faltas_eja_modular&#45;&gt;inscricao_lista_espera_situacoes -->
<g id="edge1" class="edge">
<title>registro_faltas_eja_modular:w&#45;&gt;inscricao_lista_espera_situacoes:e</title>
<path fill="none" stroke="#000000" stroke-dasharray="5,2" d="M273.6489,-112.4813C261.5992,-109.3875 254.728,-103.2 237.5,-103.2"/>
<polygon fill="#000000" stroke="#000000" points="280.0568,-113.2486 287.5719,-117.7745 284.0284,-113.7243 288,-114.2 288,-114.2 288,-114.2 284.0284,-113.7243 288.4281,-110.6255 280.0568,-113.2486 280.0568,-113.2486"/>
<ellipse fill="none" stroke="#000000" cx="276.8795" cy="-112.8681" rx="3.2" ry="3.2"/>
</g>
<!-- registro_faltas_eja_modular&#45;&gt;inscricao_lista_espera_situacoes -->
<g id="edge2" class="edge">
<title>registro_faltas_eja_modular:w&#45;&gt;inscricao_lista_espera_situacoes:e</title>
<path fill="none" stroke="#000000" stroke-dasharray="5,2" d="M274.0755,-132.1536C261.1224,-123.3416 258.4466,-103.2 237.5,-103.2"/>
<polygon fill="#000000" stroke="#000000" points="280.3178,-133.9675 286.9954,-139.657 284.1589,-135.0838 288,-136.2 288,-136.2 288,-136.2 284.1589,-135.0838 289.0046,-132.743 280.3178,-133.9675 280.3178,-133.9675"/>
<ellipse fill="none" stroke="#000000" cx="277.2449" cy="-133.0745" rx="3.2" ry="3.2"/>
</g>
<!-- registro_faltas_eja_modular&#45;&gt;inscricao_lista_espera_situacoes -->
<g id="edge3" class="edge">
<title>registro_faltas_eja_modular:w&#45;&gt;inscricao_lista_espera_situacoes:e</title>
<path fill="none" stroke="#000000" stroke-dasharray="5,2" d="M274.0755,-74.2464C261.1224,-83.0584 258.4466,-103.2 237.5,-103.2"/>
<polygon fill="#000000" stroke="#000000" points="280.3178,-72.4325 289.0046,-73.657 284.1589,-71.3162 288,-70.2 288,-70.2 288,-70.2 284.1589,-71.3162 286.9954,-66.743 280.3178,-72.4325 280.3178,-72.4325"/>
<ellipse fill="none" stroke="#000000" cx="277.2449" cy="-73.3255" rx="3.2" ry="3.2"/>
</g>
<!-- registro_faltas_eja_modular&#45;&gt;inscricao_lista_espera_situacoes -->
<g id="edge4" class="edge">
<title>registro_faltas_eja_modular:w&#45;&gt;inscricao_lista_espera_situacoes:e</title>
<path fill="none" stroke="#000000" stroke-dasharray="5,2" d="M273.6489,-93.9187C261.5992,-97.0125 254.728,-103.2 237.5,-103.2"/>
<polygon fill="#000000" stroke="#000000" points="280.0568,-93.1514 288.4281,-95.7745 284.0284,-92.6757 288,-92.2 288,-92.2 288,-92.2 284.0284,-92.6757 287.5719,-88.6255 280.0568,-93.1514 280.0568,-93.1514"/>
<ellipse fill="none" stroke="#000000" cx="276.8795" cy="-93.5319" rx="3.2" ry="3.2"/>
</g>
</g>
</svg>
