<?xml version="1.0" encoding="UTF-8" standalone="no"?>
<!DOCTYPE svg PUBLIC "-//W3C//DTD SVG 1.1//EN"
 "http://www.w3.org/Graphics/SVG/1.1/DTD/svg11.dtd">
<!-- Generated by graphviz version 2.40.1 (20161225.0304)
 -->
<!-- Title: oneDegreeRelationshipsDiagramImplied Pages: 1 -->
<svg width="618pt" height="338pt"
 viewBox="0.00 0.00 618.00 338.20" xmlns="http://www.w3.org/2000/svg" xmlns:xlink="http://www.w3.org/1999/xlink">
<g id="graph0" class="graph" transform="scale(1 1) rotate(0) translate(4 334.2)">
<title>oneDegreeRelationshipsDiagramImplied</title>
<polygon fill="#ffffff" stroke="transparent" points="-4,4 -4,-334.2 614,-334.2 614,4 -4,4"/>
<text text-anchor="middle" x="72.4936" y="-7.3" font-family="Helvetica,sans-Serif" font-size="11.00" fill="#000000">Generated by SchemaSpy</text>
<!-- registros_dispensas_atividades -->
<g id="node1" class="node">
<title>registros_dispensas_atividades</title>
<g id="a_node1"><a xlink:href="../../tables/registros_dispensas_atividades.html" xlink:title="registros_dispensas_atividades" target="_top">
<polygon fill="#ffffff" stroke="transparent" points="286,-38.2 286,-326.2 602,-326.2 602,-38.2 286,-38.2"/>
<polygon fill="#f5f5f5" stroke="transparent" points="288,-301.2 288,-324.2 600,-324.2 600,-301.2 288,-301.2"/>
<polygon fill="none" stroke="#000000" points="288,-301.2 288,-324.2 600,-324.2 600,-301.2 288,-301.2"/>
<text text-anchor="start" x="293" y="-309.8" font-family="Helvetica,sans-Serif" font-weight="bold" font-size="11.00" fill="#000000">registros_dispensas_atividades</text>
<text text-anchor="start" x="565.0437" y="-309.3" font-family="Helvetica,sans-Serif" font-size="11.00" fill="#000000">[table]</text>
<polygon fill="none" stroke="#000000" points="288,-279.2 288,-301.2 491,-301.2 491,-279.2 288,-279.2"/>
<text text-anchor="start" x="308" y="-286.3" font-family="Helvetica,sans-Serif" font-size="11.00" fill="#000000">sistema</text>
<polygon fill="none" stroke="#000000" points="491,-279.2 491,-301.2 600,-301.2 600,-279.2 491,-279.2"/>
<text text-anchor="start" x="494" y="-286.9" font-family="Helvetica,sans-Serif" font-size="11.00" fill="#000000">int4[10]</text>
<polygon fill="none" stroke="#000000" points="288,-257.2 288,-279.2 491,-279.2 491,-257.2 288,-257.2"/>
<text text-anchor="start" x="308" y="-264.3" font-family="Helvetica,sans-Serif" font-size="11.00" fill="#000000">tipo_registro</text>
<polygon fill="none" stroke="#000000" points="491,-257.2 491,-279.2 600,-279.2 600,-257.2 491,-257.2"/>
<text text-anchor="start" x="494" y="-264.9" font-family="Helvetica,sans-Serif" font-size="11.00" fill="#000000">text[2147483647]</text>
<polygon fill="none" stroke="#000000" points="288,-235.2 288,-257.2 491,-257.2 491,-235.2 288,-235.2"/>
<text text-anchor="start" x="308" y="-242.3" font-family="Helvetica,sans-Serif" font-size="11.00" fill="#000000">id_integracao</text>
<polygon fill="none" stroke="#000000" points="491,-235.2 491,-257.2 600,-257.2 600,-235.2 491,-235.2"/>
<text text-anchor="start" x="493.5344" y="-242.9" font-family="Helvetica,sans-Serif" font-size="11.00" fill="#000000">varchar[2147483647]</text>
<polygon fill="none" stroke="#000000" points="288,-213.2 288,-235.2 491,-235.2 491,-213.2 288,-213.2"/>
<text text-anchor="start" x="308" y="-220.3" font-family="Helvetica,sans-Serif" font-size="11.00" fill="#000000">id_origem</text>
<polygon fill="none" stroke="#000000" points="491,-213.2 491,-235.2 600,-235.2 600,-213.2 491,-213.2"/>
<text text-anchor="start" x="494" y="-220.9" font-family="Helvetica,sans-Serif" font-size="11.00" fill="#000000">int4[10]</text>
<polygon fill="none" stroke="#000000" points="288,-191.2 288,-213.2 491,-213.2 491,-191.2 288,-191.2"/>
<text text-anchor="start" x="308" y="-198.3" font-family="Helvetica,sans-Serif" font-size="11.00" fill="#000000">id_cloud</text>
<polygon fill="none" stroke="#000000" points="491,-191.2 491,-213.2 600,-213.2 600,-191.2 491,-191.2"/>
<text text-anchor="start" x="494" y="-198.9" font-family="Helvetica,sans-Serif" font-size="11.00" fill="#000000">int4[10]</text>
<polygon fill="none" stroke="#000000" points="288,-169.2 288,-191.2 491,-191.2 491,-169.2 288,-169.2"/>
<image xlink:href="../../images/foreignKeys.png" width="11px" height="12px" preserveAspectRatio="xMinYMin meet" x="293" y="-186.2"/>
<text text-anchor="start" x="308" y="-176.3" font-family="Helvetica,sans-Serif" font-size="11.00" fill="#000000">matricula_origem_id</text>
<polygon fill="none" stroke="#000000" points="491,-169.2 491,-191.2 600,-191.2 600,-169.2 491,-169.2"/>
<text text-anchor="start" x="494" y="-176.9" font-family="Helvetica,sans-Serif" font-size="11.00" fill="#000000">int4[10]</text>
<polygon fill="none" stroke="#000000" points="288,-147.2 288,-169.2 491,-169.2 491,-147.2 288,-147.2"/>
<image xlink:href="../../images/foreignKeys.png" width="11px" height="12px" preserveAspectRatio="xMinYMin meet" x="293" y="-164.2"/>
<text text-anchor="start" x="308" y="-154.3" font-family="Helvetica,sans-Serif" font-size="11.00" fill="#000000">matricula_cloud_id</text>
<polygon fill="none" stroke="#000000" points="491,-147.2 491,-169.2 600,-169.2 600,-147.2 491,-147.2"/>
<text text-anchor="start" x="494" y="-154.9" font-family="Helvetica,sans-Serif" font-size="11.00" fill="#000000">int4[10]</text>
<polygon fill="none" stroke="#000000" points="288,-125.2 288,-147.2 491,-147.2 491,-125.2 288,-125.2"/>
<image xlink:href="../../images/foreignKeys.png" width="11px" height="12px" preserveAspectRatio="xMinYMin meet" x="293" y="-142.2"/>
<text text-anchor="start" x="308" y="-132.3" font-family="Helvetica,sans-Serif" font-size="11.00" fill="#000000">atividade_origem_id</text>
<polygon fill="none" stroke="#000000" points="491,-125.2 491,-147.2 600,-147.2 600,-125.2 491,-125.2"/>
<text text-anchor="start" x="494" y="-132.9" font-family="Helvetica,sans-Serif" font-size="11.00" fill="#000000">int4[10]</text>
<polygon fill="none" stroke="#000000" points="288,-103.2 288,-125.2 491,-125.2 491,-103.2 288,-103.2"/>
<image xlink:href="../../images/foreignKeys.png" width="11px" height="12px" preserveAspectRatio="xMinYMin meet" x="293" y="-120.2"/>
<text text-anchor="start" x="308" y="-110.3" font-family="Helvetica,sans-Serif" font-size="11.00" fill="#000000">atividade_cloud_id</text>
<polygon fill="none" stroke="#000000" points="491,-103.2 491,-125.2 600,-125.2 600,-103.2 491,-103.2"/>
<text text-anchor="start" x="494" y="-110.9" font-family="Helvetica,sans-Serif" font-size="11.00" fill="#000000">int4[10]</text>
<polygon fill="none" stroke="#000000" points="288,-81.2 288,-103.2 491,-103.2 491,-81.2 288,-81.2"/>
<image xlink:href="../../images/foreignKeys.png" width="11px" height="12px" preserveAspectRatio="xMinYMin meet" x="293" y="-98.2"/>
<text text-anchor="start" x="308" y="-88.3" font-family="Helvetica,sans-Serif" font-size="11.00" fill="#000000">motivo_origem_id</text>
<polygon fill="none" stroke="#000000" points="491,-81.2 491,-103.2 600,-103.2 600,-81.2 491,-81.2"/>
<text text-anchor="start" x="494" y="-88.9" font-family="Helvetica,sans-Serif" font-size="11.00" fill="#000000">int4[10]</text>
<polygon fill="none" stroke="#000000" points="288,-59.2 288,-81.2 491,-81.2 491,-59.2 288,-59.2"/>
<image xlink:href="../../images/foreignKeys.png" width="11px" height="12px" preserveAspectRatio="xMinYMin meet" x="293" y="-76.2"/>
<text text-anchor="start" x="308" y="-66.3" font-family="Helvetica,sans-Serif" font-size="11.00" fill="#000000">motivo_cloud_id</text>
<polygon fill="none" stroke="#000000" points="491,-59.2 491,-81.2 600,-81.2 600,-59.2 491,-59.2"/>
<text text-anchor="start" x="494" y="-66.9" font-family="Helvetica,sans-Serif" font-size="11.00" fill="#000000">int4[10]</text>
<polygon fill="#ffffff" stroke="transparent" points="288,-40.2 288,-59.2 394,-59.2 394,-40.2 288,-40.2"/>
<polygon fill="none" stroke="#000000" points="288,-40.2 288,-59.2 394,-59.2 394,-40.2 288,-40.2"/>
<text text-anchor="start" x="291" y="-46.3" font-family="Helvetica,sans-Serif" font-size="11.00" fill="#000000">&lt; 6</text>
<polygon fill="#ffffff" stroke="transparent" points="394,-40.2 394,-59.2 491,-59.2 491,-40.2 394,-40.2"/>
<polygon fill="none" stroke="#000000" points="394,-40.2 394,-59.2 491,-59.2 491,-40.2 394,-40.2"/>
<text text-anchor="start" x="481.8862" y="-46.3" font-family="Helvetica,sans-Serif" font-size="11.00" fill="#000000"> &#160;</text>
<polygon fill="#ffffff" stroke="transparent" points="491,-40.2 491,-59.2 600,-59.2 600,-40.2 491,-40.2"/>
<polygon fill="none" stroke="#000000" points="491,-40.2 491,-59.2 600,-59.2 600,-40.2 491,-40.2"/>
<text text-anchor="start" x="581.4053" y="-46.3" font-family="Helvetica,sans-Serif" font-size="11.00" fill="#000000">0 &gt;</text>
<polygon fill="none" stroke="#000000" stroke-width="2" points="287,-39.2 287,-325.2 601,-325.2 601,-39.2 287,-39.2"/>
</a>
</g>
</g>
<!-- inscricao_lista_espera_situacoes -->
<g id="node2" class="node">
<title>inscricao_lista_espera_situacoes</title>
<g id="a_node2"><a xlink:href="../../tables/inscricao_lista_espera_situacoes.html" xlink:title="inscricao_lista_espera_situacoes" target="_top">
<polygon fill="#ffffff" stroke="transparent" points="8,-76.7 8,-159.7 237,-159.7 237,-76.7 8,-76.7"/>
<polygon fill="#f5f5f5" stroke="transparent" points="8.5,-136.2 8.5,-159.2 237.5,-159.2 237.5,-136.2 8.5,-136.2"/>
<polygon fill="none" stroke="#000000" points="8.5,-136.2 8.5,-159.2 237.5,-159.2 237.5,-136.2 8.5,-136.2"/>
<text text-anchor="start" x="13.5" y="-144.8" font-family="Helvetica,sans-Serif" font-weight="bold" font-size="11.00" fill="#000000">inscricao_lista_espera_situacoes</text>
<text text-anchor="start" x="203.0219" y="-144.3" font-family="Helvetica,sans-Serif" font-size="11.00" fill="#000000">[table]</text>
<polygon fill="none" stroke="#000000" points="8.5,-114.2 8.5,-136.2 237.5,-136.2 237.5,-114.2 8.5,-114.2"/>
<image xlink:href="../../images/primaryKeys.png" width="11px" height="12px" preserveAspectRatio="xMinYMin meet" x="13.5" y="-131.2"/>
<text text-anchor="start" x="37.5" y="-121.3" font-family="Helvetica,sans-Serif" font-size="11.00" fill="#000000">id</text>
<polygon fill="none" stroke="#000000" points="8.5,-95.2 8.5,-114.2 237.5,-114.2 237.5,-95.2 8.5,-95.2"/>
<text text-anchor="start" x="11.5" y="-101.3" font-family="Helvetica,sans-Serif" font-size="11.00" fill="#000000">...</text>
<polygon fill="#ffffff" stroke="transparent" points="8.5,-76.2 8.5,-95.2 106.5,-95.2 106.5,-76.2 8.5,-76.2"/>
<polygon fill="none" stroke="#000000" points="8.5,-76.2 8.5,-95.2 106.5,-95.2 106.5,-76.2 8.5,-76.2"/>
<text text-anchor="start" x="11.5" y="-82.3" font-family="Helvetica,sans-Serif" font-size="11.00" fill="#000000"> &#160;</text>
<polygon fill="#ffffff" stroke="transparent" points="106.5,-76.2 106.5,-95.2 161.5,-95.2 161.5,-76.2 106.5,-76.2"/>
<polygon fill="none" stroke="#000000" points="106.5,-76.2 106.5,-95.2 161.5,-95.2 161.5,-76.2 106.5,-76.2"/>
<text text-anchor="start" x="152.3862" y="-82.3" font-family="Helvetica,sans-Serif" font-size="11.00" fill="#000000"> &#160;</text>
<polygon fill="#ffffff" stroke="transparent" points="161.5,-76.2 161.5,-95.2 237.5,-95.2 237.5,-76.2 161.5,-76.2"/>
<polygon fill="none" stroke="#000000" points="161.5,-76.2 161.5,-95.2 237.5,-95.2 237.5,-76.2 161.5,-76.2"/>
<text text-anchor="start" x="206.6755" y="-82.3" font-family="Helvetica,sans-Serif" font-size="11.00" fill="#000000">596 &gt;</text>
</a>
</g>
</g>
<!-- registros_dispensas_atividades&#45;&gt;inscricao_lista_espera_situacoes -->
<g id="edge1" class="edge">
<title>registros_dispensas_atividades:w&#45;&gt;inscricao_lista_espera_situacoes:e</title>
<path fill="none" stroke="#000000" stroke-dasharray="5,2" d="M273.6489,-115.9188C261.5992,-119.0125 254.728,-125.2 237.5,-125.2"/>
<polygon fill="#000000" stroke="#000000" points="280.0568,-115.1514 288.4281,-117.7745 284.0284,-114.6757 288,-114.2 288,-114.2 288,-114.2 284.0284,-114.6757 287.5719,-110.6255 280.0568,-115.1514 280.0568,-115.1514"/>
<ellipse fill="none" stroke="#000000" cx="276.8795" cy="-115.5319" rx="3.2" ry="3.2"/>
</g>
<!-- registros_dispensas_atividades&#45;&gt;inscricao_lista_espera_situacoes -->
<g id="edge2" class="edge">
<title>registros_dispensas_atividades:w&#45;&gt;inscricao_lista_espera_situacoes:e</title>
<path fill="none" stroke="#000000" stroke-dasharray="5,2" d="M273.6489,-134.4813C261.5992,-131.3875 254.728,-125.2 237.5,-125.2"/>
<polygon fill="#000000" stroke="#000000" points="280.0568,-135.2486 287.5719,-139.7745 284.0284,-135.7243 288,-136.2 288,-136.2 288,-136.2 284.0284,-135.7243 288.4281,-132.6255 280.0568,-135.2486 280.0568,-135.2486"/>
<ellipse fill="none" stroke="#000000" cx="276.8795" cy="-134.8681" rx="3.2" ry="3.2"/>
</g>
<!-- registros_dispensas_atividades&#45;&gt;inscricao_lista_espera_situacoes -->
<g id="edge3" class="edge">
<title>registros_dispensas_atividades:w&#45;&gt;inscricao_lista_espera_situacoes:e</title>
<path fill="none" stroke="#000000" stroke-dasharray="5,2" d="M274.0755,-154.1536C261.1224,-145.3416 258.4466,-125.2 237.5,-125.2"/>
<polygon fill="#000000" stroke="#000000" points="280.3178,-155.9675 286.9954,-161.657 284.1589,-157.0838 288,-158.2 288,-158.2 288,-158.2 284.1589,-157.0838 289.0046,-154.743 280.3178,-155.9675 280.3178,-155.9675"/>
<ellipse fill="none" stroke="#000000" cx="277.2449" cy="-155.0745" rx="3.2" ry="3.2"/>
</g>
<!-- registros_dispensas_atividades&#45;&gt;inscricao_lista_espera_situacoes -->
<g id="edge4" class="edge">
<title>registros_dispensas_atividades:w&#45;&gt;inscricao_lista_espera_situacoes:e</title>
<path fill="none" stroke="#000000" stroke-dasharray="5,2" d="M274.2934,-175.5107C258.9342,-162.2102 264.7226,-125.2 237.5,-125.2"/>
<polygon fill="#000000" stroke="#000000" points="280.4307,-177.6104 286.8347,-183.6062 284.2154,-178.9052 288,-180.2 288,-180.2 288,-180.2 284.2154,-178.9052 289.1653,-176.7938 280.4307,-177.6104 280.4307,-177.6104"/>
<ellipse fill="none" stroke="#000000" cx="277.403" cy="-176.5745" rx="3.2" ry="3.2"/>
</g>
<!-- registros_dispensas_atividades&#45;&gt;inscricao_lista_espera_situacoes -->
<g id="edge5" class="edge">
<title>registros_dispensas_atividades:w&#45;&gt;inscricao_lista_espera_situacoes:e</title>
<path fill="none" stroke="#000000" stroke-dasharray="5,2" d="M274.2934,-74.8893C258.9342,-88.1898 264.7226,-125.2 237.5,-125.2"/>
<polygon fill="#000000" stroke="#000000" points="280.4307,-72.7896 289.1653,-73.6062 284.2154,-71.4948 288,-70.2 288,-70.2 288,-70.2 284.2154,-71.4948 286.8347,-66.7938 280.4307,-72.7896 280.4307,-72.7896"/>
<ellipse fill="none" stroke="#000000" cx="277.403" cy="-73.8255" rx="3.2" ry="3.2"/>
</g>
<!-- registros_dispensas_atividades&#45;&gt;inscricao_lista_espera_situacoes -->
<g id="edge6" class="edge">
<title>registros_dispensas_atividades:w&#45;&gt;inscricao_lista_espera_situacoes:e</title>
<path fill="none" stroke="#000000" stroke-dasharray="5,2" d="M274.0755,-96.2464C261.1224,-105.0584 258.4466,-125.2 237.5,-125.2"/>
<polygon fill="#000000" stroke="#000000" points="280.3178,-94.4325 289.0046,-95.657 284.1589,-93.3162 288,-92.2 288,-92.2 288,-92.2 284.1589,-93.3162 286.9954,-88.743 280.3178,-94.4325 280.3178,-94.4325"/>
<ellipse fill="none" stroke="#000000" cx="277.2449" cy="-95.3255" rx="3.2" ry="3.2"/>
</g>
</g>
</svg>
