<?xml version="1.0" encoding="UTF-8" standalone="no"?>
<!DOCTYPE svg PUBLIC "-//W3C//DTD SVG 1.1//EN"
 "http://www.w3.org/Graphics/SVG/1.1/DTD/svg11.dtd">
<!-- Generated by graphviz version 2.40.1 (20161225.0304)
 -->
<!-- Title: oneDegreeRelationshipsDiagram Pages: 1 -->
<svg width="468pt" height="734pt"
 viewBox="0.00 0.00 468.00 734.20" xmlns="http://www.w3.org/2000/svg" xmlns:xlink="http://www.w3.org/1999/xlink">
<g id="graph0" class="graph" transform="scale(1 1) rotate(0) translate(4 730.2)">
<title>oneDegreeRelationshipsDiagram</title>
<polygon fill="#ffffff" stroke="transparent" points="-4,4 -4,-730.2 464,-730.2 464,4 -4,4"/>
<text text-anchor="middle" x="72.4936" y="-7.3" font-family="Helvetica,sans-Serif" font-size="11.00" fill="#000000">Generated by SchemaSpy</text>
<!-- responsaveis -->
<g id="node1" class="node">
<title>responsaveis</title>
<g id="a_node1"><a xlink:href="../../tables/responsaveis.html" xlink:title="responsaveis" target="_top">
<polygon fill="#ffffff" stroke="transparent" points="8,-38.2 8,-722.2 452,-722.2 452,-38.2 8,-38.2"/>
<polygon fill="#f5f5f5" stroke="transparent" points="10,-697.2 10,-720.2 450,-720.2 450,-697.2 10,-697.2"/>
<polygon fill="none" stroke="#000000" points="10,-697.2 10,-720.2 450,-720.2 450,-697.2 10,-697.2"/>
<text text-anchor="start" x="15" y="-705.8" font-family="Helvetica,sans-Serif" font-weight="bold" font-size="11.00" fill="#000000">responsaveis</text>
<text text-anchor="start" x="415.0437" y="-705.3" font-family="Helvetica,sans-Serif" font-size="11.00" fill="#000000">[table]</text>
<polygon fill="none" stroke="#000000" points="10,-675.2 10,-697.2 225,-697.2 225,-675.2 10,-675.2"/>
<text text-anchor="start" x="30" y="-682.3" font-family="Helvetica,sans-Serif" font-size="11.00" fill="#000000">sistema</text>
<polygon fill="none" stroke="#000000" points="225,-675.2 225,-697.2 450,-697.2 450,-675.2 225,-675.2"/>
<text text-anchor="start" x="228" y="-682.9" font-family="Helvetica,sans-Serif" font-size="11.00" fill="#000000">int4[10]</text>
<polygon fill="none" stroke="#000000" points="10,-653.2 10,-675.2 225,-675.2 225,-653.2 10,-653.2"/>
<text text-anchor="start" x="30" y="-660.3" font-family="Helvetica,sans-Serif" font-size="11.00" fill="#000000">tipo_registro</text>
<polygon fill="none" stroke="#000000" points="225,-653.2 225,-675.2 450,-675.2 450,-653.2 225,-653.2"/>
<text text-anchor="start" x="228" y="-660.9" font-family="Helvetica,sans-Serif" font-size="11.00" fill="#000000">text[2147483647]</text>
<polygon fill="none" stroke="#000000" points="10,-631.2 10,-653.2 225,-653.2 225,-631.2 10,-631.2"/>
<text text-anchor="start" x="30" y="-638.3" font-family="Helvetica,sans-Serif" font-size="11.00" fill="#000000">id_integracao</text>
<polygon fill="none" stroke="#000000" points="225,-631.2 225,-653.2 450,-653.2 450,-631.2 225,-631.2"/>
<text text-anchor="start" x="228" y="-638.9" font-family="Helvetica,sans-Serif" font-size="11.00" fill="#000000">varchar[2147483647]</text>
<polygon fill="none" stroke="#000000" points="10,-609.2 10,-631.2 225,-631.2 225,-609.2 10,-609.2"/>
<text text-anchor="start" x="30" y="-616.3" font-family="Helvetica,sans-Serif" font-size="11.00" fill="#000000">id_origem</text>
<polygon fill="none" stroke="#000000" points="225,-609.2 225,-631.2 450,-631.2 450,-609.2 225,-609.2"/>
<text text-anchor="start" x="228" y="-616.9" font-family="Helvetica,sans-Serif" font-size="11.00" fill="#000000">int4[10]</text>
<polygon fill="none" stroke="#000000" points="10,-587.2 10,-609.2 225,-609.2 225,-587.2 10,-587.2"/>
<text text-anchor="start" x="30" y="-594.3" font-family="Helvetica,sans-Serif" font-size="11.00" fill="#000000">id_cloud</text>
<polygon fill="none" stroke="#000000" points="225,-587.2 225,-609.2 450,-609.2 450,-587.2 225,-587.2"/>
<text text-anchor="start" x="228" y="-594.9" font-family="Helvetica,sans-Serif" font-size="11.00" fill="#000000">int4[10]</text>
<polygon fill="none" stroke="#000000" points="10,-565.2 10,-587.2 225,-587.2 225,-565.2 10,-565.2"/>
<text text-anchor="start" x="30" y="-572.3" font-family="Helvetica,sans-Serif" font-size="11.00" fill="#000000">nome</text>
<polygon fill="none" stroke="#000000" points="225,-565.2 225,-587.2 450,-587.2 450,-565.2 225,-565.2"/>
<text text-anchor="start" x="228" y="-572.9" font-family="Helvetica,sans-Serif" font-size="11.00" fill="#000000">varchar[155]</text>
<polygon fill="none" stroke="#000000" points="10,-543.2 10,-565.2 225,-565.2 225,-543.2 10,-543.2"/>
<text text-anchor="start" x="30" y="-550.3" font-family="Helvetica,sans-Serif" font-size="11.00" fill="#000000">telefone</text>
<polygon fill="none" stroke="#000000" points="225,-543.2 225,-565.2 450,-565.2 450,-543.2 225,-543.2"/>
<text text-anchor="start" x="228" y="-550.9" font-family="Helvetica,sans-Serif" font-size="11.00" fill="#000000">varchar[11]</text>
<polygon fill="none" stroke="#000000" points="10,-521.2 10,-543.2 225,-543.2 225,-521.2 10,-521.2"/>
<text text-anchor="start" x="30" y="-528.3" font-family="Helvetica,sans-Serif" font-size="11.00" fill="#000000">celular</text>
<polygon fill="none" stroke="#000000" points="225,-521.2 225,-543.2 450,-543.2 450,-521.2 225,-521.2"/>
<text text-anchor="start" x="228" y="-528.9" font-family="Helvetica,sans-Serif" font-size="11.00" fill="#000000">varchar[11]</text>
<polygon fill="none" stroke="#000000" points="10,-499.2 10,-521.2 225,-521.2 225,-499.2 10,-499.2"/>
<text text-anchor="start" x="30" y="-506.3" font-family="Helvetica,sans-Serif" font-size="11.00" fill="#000000">email</text>
<polygon fill="none" stroke="#000000" points="225,-499.2 225,-521.2 450,-521.2 450,-499.2 225,-499.2"/>
<text text-anchor="start" x="228" y="-506.9" font-family="Helvetica,sans-Serif" font-size="11.00" fill="#000000">varchar[60]</text>
<polygon fill="none" stroke="#000000" points="10,-477.2 10,-499.2 225,-499.2 225,-477.2 10,-477.2"/>
<image xlink:href="../../images/foreignKeys.png" width="11px" height="12px" preserveAspectRatio="xMinYMin meet" x="15" y="-494.2"/>
<text text-anchor="start" x="30" y="-484.3" font-family="Helvetica,sans-Serif" font-size="11.00" fill="#000000">municipio_nascimento_origem_id</text>
<polygon fill="none" stroke="#000000" points="225,-477.2 225,-499.2 450,-499.2 450,-477.2 225,-477.2"/>
<text text-anchor="start" x="228" y="-484.9" font-family="Helvetica,sans-Serif" font-size="11.00" fill="#000000">int4[10]</text>
<polygon fill="none" stroke="#000000" points="10,-455.2 10,-477.2 225,-477.2 225,-455.2 10,-455.2"/>
<image xlink:href="../../images/foreignKeys.png" width="11px" height="12px" preserveAspectRatio="xMinYMin meet" x="15" y="-472.2"/>
<text text-anchor="start" x="30" y="-462.3" font-family="Helvetica,sans-Serif" font-size="11.00" fill="#000000">municipio_nascimento_cloud_id</text>
<polygon fill="none" stroke="#000000" points="225,-455.2 225,-477.2 450,-477.2 450,-455.2 225,-455.2"/>
<text text-anchor="start" x="228" y="-462.9" font-family="Helvetica,sans-Serif" font-size="11.00" fill="#000000">int4[10]</text>
<polygon fill="none" stroke="#000000" points="10,-433.2 10,-455.2 225,-455.2 225,-433.2 10,-433.2"/>
<text text-anchor="start" x="30" y="-440.3" font-family="Helvetica,sans-Serif" font-size="11.00" fill="#000000">data_nascimento</text>
<polygon fill="none" stroke="#000000" points="225,-433.2 225,-455.2 450,-455.2 450,-433.2 225,-433.2"/>
<text text-anchor="start" x="228" y="-440.9" font-family="Helvetica,sans-Serif" font-size="11.00" fill="#000000">date[13]</text>
<polygon fill="none" stroke="#000000" points="10,-411.2 10,-433.2 225,-433.2 225,-411.2 10,-411.2"/>
<text text-anchor="start" x="30" y="-418.3" font-family="Helvetica,sans-Serif" font-size="11.00" fill="#000000">sexo</text>
<polygon fill="none" stroke="#000000" points="225,-411.2 225,-433.2 450,-433.2 450,-411.2 225,-411.2"/>
<text text-anchor="start" x="228" y="-418.9" font-family="Helvetica,sans-Serif" font-size="11.00" fill="#000000">&quot;educacao&quot;.&quot;sexos&quot;[2147483647]</text>
<polygon fill="none" stroke="#000000" points="10,-389.2 10,-411.2 225,-411.2 225,-389.2 10,-389.2"/>
<text text-anchor="start" x="30" y="-396.3" font-family="Helvetica,sans-Serif" font-size="11.00" fill="#000000">estado_civil</text>
<polygon fill="none" stroke="#000000" points="225,-389.2 225,-411.2 450,-411.2 450,-389.2 225,-389.2"/>
<text text-anchor="start" x="228" y="-396.9" font-family="Helvetica,sans-Serif" font-size="11.00" fill="#000000">&quot;educacao&quot;.&quot;estadoscivis&quot;[2147483647]</text>
<polygon fill="none" stroke="#000000" points="10,-367.2 10,-389.2 225,-389.2 225,-367.2 10,-367.2"/>
<text text-anchor="start" x="30" y="-374.3" font-family="Helvetica,sans-Serif" font-size="11.00" fill="#000000">grau_instrucao</text>
<polygon fill="none" stroke="#000000" points="225,-367.2 225,-389.2 450,-389.2 450,-367.2 225,-367.2"/>
<text text-anchor="start" x="228" y="-374.9" font-family="Helvetica,sans-Serif" font-size="11.00" fill="#000000">&quot;educacao&quot;.&quot;grausinstrucao&quot;[2147483647]</text>
<polygon fill="none" stroke="#000000" points="10,-345.2 10,-367.2 225,-367.2 225,-345.2 10,-345.2"/>
<text text-anchor="start" x="30" y="-352.3" font-family="Helvetica,sans-Serif" font-size="11.00" fill="#000000">rg</text>
<polygon fill="none" stroke="#000000" points="225,-345.2 225,-367.2 450,-367.2 450,-345.2 225,-345.2"/>
<text text-anchor="start" x="228" y="-352.9" font-family="Helvetica,sans-Serif" font-size="11.00" fill="#000000">varchar[20]</text>
<polygon fill="none" stroke="#000000" points="10,-323.2 10,-345.2 225,-345.2 225,-323.2 10,-323.2"/>
<text text-anchor="start" x="30" y="-330.3" font-family="Helvetica,sans-Serif" font-size="11.00" fill="#000000">cpf</text>
<polygon fill="none" stroke="#000000" points="225,-323.2 225,-345.2 450,-345.2 450,-323.2 225,-323.2"/>
<text text-anchor="start" x="228" y="-330.9" font-family="Helvetica,sans-Serif" font-size="11.00" fill="#000000">varchar[11]</text>
<polygon fill="none" stroke="#000000" points="10,-301.2 10,-323.2 225,-323.2 225,-301.2 10,-301.2"/>
<text text-anchor="start" x="30" y="-308.3" font-family="Helvetica,sans-Serif" font-size="11.00" fill="#000000">data_obito</text>
<polygon fill="none" stroke="#000000" points="225,-301.2 225,-323.2 450,-323.2 450,-301.2 225,-301.2"/>
<text text-anchor="start" x="228" y="-308.9" font-family="Helvetica,sans-Serif" font-size="11.00" fill="#000000">date[13]</text>
<polygon fill="none" stroke="#000000" points="10,-279.2 10,-301.2 225,-301.2 225,-279.2 10,-279.2"/>
<text text-anchor="start" x="30" y="-286.3" font-family="Helvetica,sans-Serif" font-size="11.00" fill="#000000">livro</text>
<polygon fill="none" stroke="#000000" points="225,-279.2 225,-301.2 450,-301.2 450,-279.2 225,-279.2"/>
<text text-anchor="start" x="228" y="-286.9" font-family="Helvetica,sans-Serif" font-size="11.00" fill="#000000">varchar[15]</text>
<polygon fill="none" stroke="#000000" points="10,-257.2 10,-279.2 225,-279.2 225,-257.2 10,-257.2"/>
<text text-anchor="start" x="30" y="-264.3" font-family="Helvetica,sans-Serif" font-size="11.00" fill="#000000">pagina</text>
<polygon fill="none" stroke="#000000" points="225,-257.2 225,-279.2 450,-279.2 450,-257.2 225,-257.2"/>
<text text-anchor="start" x="228" y="-264.9" font-family="Helvetica,sans-Serif" font-size="11.00" fill="#000000">varchar[5]</text>
<polygon fill="none" stroke="#000000" points="10,-235.2 10,-257.2 225,-257.2 225,-235.2 10,-235.2"/>
<text text-anchor="start" x="30" y="-242.3" font-family="Helvetica,sans-Serif" font-size="11.00" fill="#000000">certidao</text>
<polygon fill="none" stroke="#000000" points="225,-235.2 225,-257.2 450,-257.2 450,-235.2 225,-235.2"/>
<text text-anchor="start" x="228" y="-242.9" font-family="Helvetica,sans-Serif" font-size="11.00" fill="#000000">varchar[32]</text>
<polygon fill="none" stroke="#000000" points="10,-213.2 10,-235.2 225,-235.2 225,-213.2 10,-213.2"/>
<text text-anchor="start" x="30" y="-220.3" font-family="Helvetica,sans-Serif" font-size="11.00" fill="#000000">causa_mortis</text>
<polygon fill="none" stroke="#000000" points="225,-213.2 225,-235.2 450,-235.2 450,-213.2 225,-213.2"/>
<text text-anchor="start" x="228" y="-220.9" font-family="Helvetica,sans-Serif" font-size="11.00" fill="#000000">varchar[255]</text>
<polygon fill="none" stroke="#000000" points="10,-191.2 10,-213.2 225,-213.2 225,-191.2 10,-191.2"/>
<text text-anchor="start" x="30" y="-198.3" font-family="Helvetica,sans-Serif" font-size="11.00" fill="#000000">data_emissao_certidao</text>
<polygon fill="none" stroke="#000000" points="225,-191.2 225,-213.2 450,-213.2 450,-191.2 225,-191.2"/>
<text text-anchor="start" x="228" y="-198.9" font-family="Helvetica,sans-Serif" font-size="11.00" fill="#000000">date[13]</text>
<polygon fill="none" stroke="#000000" points="10,-169.2 10,-191.2 225,-191.2 225,-169.2 10,-169.2"/>
<text text-anchor="start" x="30" y="-176.3" font-family="Helvetica,sans-Serif" font-size="11.00" fill="#000000">telefone_comercial</text>
<polygon fill="none" stroke="#000000" points="225,-169.2 225,-191.2 450,-191.2 450,-169.2 225,-169.2"/>
<text text-anchor="start" x="228" y="-176.9" font-family="Helvetica,sans-Serif" font-size="11.00" fill="#000000">varchar[11]</text>
<polygon fill="none" stroke="#000000" points="10,-147.2 10,-169.2 225,-169.2 225,-147.2 10,-147.2"/>
<text text-anchor="start" x="30" y="-154.3" font-family="Helvetica,sans-Serif" font-size="11.00" fill="#000000">permite_envio_email</text>
<polygon fill="none" stroke="#000000" points="225,-147.2 225,-169.2 450,-169.2 450,-147.2 225,-147.2"/>
<text text-anchor="start" x="228" y="-154.9" font-family="Helvetica,sans-Serif" font-size="11.00" fill="#000000">bool[1]</text>
<polygon fill="none" stroke="#000000" points="10,-125.2 10,-147.2 225,-147.2 225,-125.2 10,-125.2"/>
<text text-anchor="start" x="30" y="-132.3" font-family="Helvetica,sans-Serif" font-size="11.00" fill="#000000">permite_envio_sms</text>
<polygon fill="none" stroke="#000000" points="225,-125.2 225,-147.2 450,-147.2 450,-125.2 225,-125.2"/>
<text text-anchor="start" x="228" y="-132.9" font-family="Helvetica,sans-Serif" font-size="11.00" fill="#000000">bool[1]</text>
<polygon fill="none" stroke="#000000" points="10,-103.2 10,-125.2 225,-125.2 225,-103.2 10,-103.2"/>
<text text-anchor="start" x="30" y="-110.3" font-family="Helvetica,sans-Serif" font-size="11.00" fill="#000000">local_trabalho</text>
<polygon fill="none" stroke="#000000" points="225,-103.2 225,-125.2 450,-125.2 450,-103.2 225,-103.2"/>
<text text-anchor="start" x="228" y="-110.9" font-family="Helvetica,sans-Serif" font-size="11.00" fill="#000000">varchar[50]</text>
<polygon fill="none" stroke="#000000" points="10,-81.2 10,-103.2 225,-103.2 225,-81.2 10,-81.2"/>
<text text-anchor="start" x="30" y="-88.3" font-family="Helvetica,sans-Serif" font-size="11.00" fill="#000000">situacao_trabalho</text>
<polygon fill="none" stroke="#000000" points="225,-81.2 225,-103.2 450,-103.2 450,-81.2 225,-81.2"/>
<text text-anchor="start" x="227.5918" y="-88.9" font-family="Helvetica,sans-Serif" font-size="11.00" fill="#000000">&quot;educacao&quot;.&quot;situacoestrabalho&quot;[2147483647]</text>
<polygon fill="none" stroke="#000000" points="10,-59.2 10,-81.2 225,-81.2 225,-59.2 10,-59.2"/>
<text text-anchor="start" x="30" y="-66.3" font-family="Helvetica,sans-Serif" font-size="11.00" fill="#000000">profissao</text>
<polygon fill="none" stroke="#000000" points="225,-59.2 225,-81.2 450,-81.2 450,-59.2 225,-59.2"/>
<text text-anchor="start" x="228" y="-66.9" font-family="Helvetica,sans-Serif" font-size="11.00" fill="#000000">varchar[50]</text>
<polygon fill="#ffffff" stroke="transparent" points="10,-40.2 10,-59.2 122,-59.2 122,-40.2 10,-40.2"/>
<polygon fill="none" stroke="#000000" points="10,-40.2 10,-59.2 122,-59.2 122,-40.2 10,-40.2"/>
<text text-anchor="start" x="13" y="-46.3" font-family="Helvetica,sans-Serif" font-size="11.00" fill="#000000">&lt; 0</text>
<polygon fill="#ffffff" stroke="transparent" points="122,-40.2 122,-59.2 225,-59.2 225,-40.2 122,-40.2"/>
<polygon fill="none" stroke="#000000" points="122,-40.2 122,-59.2 225,-59.2 225,-40.2 122,-40.2"/>
<text text-anchor="start" x="215.8862" y="-46.3" font-family="Helvetica,sans-Serif" font-size="11.00" fill="#000000"> &#160;</text>
<polygon fill="#ffffff" stroke="transparent" points="225,-40.2 225,-59.2 450,-59.2 450,-40.2 225,-40.2"/>
<polygon fill="none" stroke="#000000" points="225,-40.2 225,-59.2 450,-59.2 450,-40.2 225,-40.2"/>
<text text-anchor="start" x="431.4053" y="-46.3" font-family="Helvetica,sans-Serif" font-size="11.00" fill="#000000">0 &gt;</text>
<polygon fill="none" stroke="#000000" stroke-width="2" points="9,-39.2 9,-721.2 451,-721.2 451,-39.2 9,-39.2"/>
</a>
</g>
</g>
</g>
</svg>
