<?xml version="1.0" encoding="UTF-8" standalone="no"?>
<!DOCTYPE svg PUBLIC "-//W3C//DTD SVG 1.1//EN"
 "http://www.w3.org/Graphics/SVG/1.1/DTD/svg11.dtd">
<!-- Generated by graphviz version 2.40.1 (20161225.0304)
 -->
<!-- Title: oneDegreeRelationshipsDiagramImplied Pages: 1 -->
<svg width="925pt" height="316pt"
 viewBox="0.00 0.00 925.00 316.20" xmlns="http://www.w3.org/2000/svg" xmlns:xlink="http://www.w3.org/1999/xlink">
<g id="graph0" class="graph" transform="scale(1 1) rotate(0) translate(4 312.2)">
<title>oneDegreeRelationshipsDiagramImplied</title>
<polygon fill="#ffffff" stroke="transparent" points="-4,4 -4,-312.2 921,-312.2 921,4 -4,4"/>
<text text-anchor="middle" x="72.4936" y="-7.3" font-family="Helvetica,sans-Serif" font-size="11.00" fill="#000000">Generated by SchemaSpy</text>
<!-- situacoes_enturmacao_componentes_curriculares -->
<g id="node1" class="node">
<title>situacoes_enturmacao_componentes_curriculares</title>
<g id="a_node1"><a xlink:href="../../tables/situacoes_enturmacao_componente_feb97425.html" xlink:title="situacoes_enturmacao_componentes_curriculares" target="_top">
<polygon fill="#ffffff" stroke="transparent" points="286,-38.2 286,-304.2 909,-304.2 909,-38.2 286,-38.2"/>
<polygon fill="#f5f5f5" stroke="transparent" points="288.5,-279.2 288.5,-302.2 907.5,-302.2 907.5,-279.2 288.5,-279.2"/>
<polygon fill="none" stroke="#000000" points="288.5,-279.2 288.5,-302.2 907.5,-302.2 907.5,-279.2 288.5,-279.2"/>
<text text-anchor="start" x="293.5" y="-287.8" font-family="Helvetica,sans-Serif" font-weight="bold" font-size="11.00" fill="#000000">situacoes_enturmacao_componentes_curriculares</text>
<text text-anchor="start" x="872.5437" y="-287.3" font-family="Helvetica,sans-Serif" font-size="11.00" fill="#000000">[table]</text>
<polygon fill="none" stroke="#000000" points="288.5,-257.2 288.5,-279.2 599.5,-279.2 599.5,-257.2 288.5,-257.2"/>
<text text-anchor="start" x="308.5" y="-264.3" font-family="Helvetica,sans-Serif" font-size="11.00" fill="#000000">sistema</text>
<polygon fill="none" stroke="#000000" points="599.5,-257.2 599.5,-279.2 907.5,-279.2 907.5,-257.2 599.5,-257.2"/>
<text text-anchor="start" x="602.5" y="-264.9" font-family="Helvetica,sans-Serif" font-size="11.00" fill="#000000">int4[10]</text>
<polygon fill="none" stroke="#000000" points="288.5,-235.2 288.5,-257.2 599.5,-257.2 599.5,-235.2 288.5,-235.2"/>
<text text-anchor="start" x="308.5" y="-242.3" font-family="Helvetica,sans-Serif" font-size="11.00" fill="#000000">tipo_registro</text>
<polygon fill="none" stroke="#000000" points="599.5,-235.2 599.5,-257.2 907.5,-257.2 907.5,-235.2 599.5,-235.2"/>
<text text-anchor="start" x="602.5" y="-242.9" font-family="Helvetica,sans-Serif" font-size="11.00" fill="#000000">text[2147483647]</text>
<polygon fill="none" stroke="#000000" points="288.5,-213.2 288.5,-235.2 599.5,-235.2 599.5,-213.2 288.5,-213.2"/>
<text text-anchor="start" x="308.5" y="-220.3" font-family="Helvetica,sans-Serif" font-size="11.00" fill="#000000">id_integracao</text>
<polygon fill="none" stroke="#000000" points="599.5,-213.2 599.5,-235.2 907.5,-235.2 907.5,-213.2 599.5,-213.2"/>
<text text-anchor="start" x="602.5" y="-220.9" font-family="Helvetica,sans-Serif" font-size="11.00" fill="#000000">varchar[2147483647]</text>
<polygon fill="none" stroke="#000000" points="288.5,-191.2 288.5,-213.2 599.5,-213.2 599.5,-191.2 288.5,-191.2"/>
<text text-anchor="start" x="308.5" y="-198.3" font-family="Helvetica,sans-Serif" font-size="11.00" fill="#000000">id_origem</text>
<polygon fill="none" stroke="#000000" points="599.5,-191.2 599.5,-213.2 907.5,-213.2 907.5,-191.2 599.5,-191.2"/>
<text text-anchor="start" x="602.5" y="-198.9" font-family="Helvetica,sans-Serif" font-size="11.00" fill="#000000">int4[10]</text>
<polygon fill="none" stroke="#000000" points="288.5,-169.2 288.5,-191.2 599.5,-191.2 599.5,-169.2 288.5,-169.2"/>
<text text-anchor="start" x="308.5" y="-176.3" font-family="Helvetica,sans-Serif" font-size="11.00" fill="#000000">id_cloud</text>
<polygon fill="none" stroke="#000000" points="599.5,-169.2 599.5,-191.2 907.5,-191.2 907.5,-169.2 599.5,-169.2"/>
<text text-anchor="start" x="602.5" y="-176.9" font-family="Helvetica,sans-Serif" font-size="11.00" fill="#000000">int4[10]</text>
<polygon fill="none" stroke="#000000" points="288.5,-147.2 288.5,-169.2 599.5,-169.2 599.5,-147.2 288.5,-147.2"/>
<image xlink:href="../../images/foreignKeys.png" width="11px" height="12px" preserveAspectRatio="xMinYMin meet" x="293.5" y="-164.2"/>
<text text-anchor="start" x="308.5" y="-154.3" font-family="Helvetica,sans-Serif" font-size="11.00" fill="#000000">enturmacao_origem_id</text>
<polygon fill="none" stroke="#000000" points="599.5,-147.2 599.5,-169.2 907.5,-169.2 907.5,-147.2 599.5,-147.2"/>
<text text-anchor="start" x="602.5" y="-154.9" font-family="Helvetica,sans-Serif" font-size="11.00" fill="#000000">int4[10]</text>
<polygon fill="none" stroke="#000000" points="288.5,-125.2 288.5,-147.2 599.5,-147.2 599.5,-125.2 288.5,-125.2"/>
<image xlink:href="../../images/foreignKeys.png" width="11px" height="12px" preserveAspectRatio="xMinYMin meet" x="293.5" y="-142.2"/>
<text text-anchor="start" x="308.5" y="-132.3" font-family="Helvetica,sans-Serif" font-size="11.00" fill="#000000">enturmacao_cloud_id</text>
<polygon fill="none" stroke="#000000" points="599.5,-125.2 599.5,-147.2 907.5,-147.2 907.5,-125.2 599.5,-125.2"/>
<text text-anchor="start" x="602.5" y="-132.9" font-family="Helvetica,sans-Serif" font-size="11.00" fill="#000000">int4[10]</text>
<polygon fill="none" stroke="#000000" points="288.5,-103.2 288.5,-125.2 599.5,-125.2 599.5,-103.2 288.5,-103.2"/>
<image xlink:href="../../images/foreignKeys.png" width="11px" height="12px" preserveAspectRatio="xMinYMin meet" x="293.5" y="-120.2"/>
<text text-anchor="start" x="308.5" y="-110.3" font-family="Helvetica,sans-Serif" font-size="11.00" fill="#000000">item_educacional_origem_id</text>
<polygon fill="none" stroke="#000000" points="599.5,-103.2 599.5,-125.2 907.5,-125.2 907.5,-103.2 599.5,-103.2"/>
<text text-anchor="start" x="602.5" y="-110.9" font-family="Helvetica,sans-Serif" font-size="11.00" fill="#000000">int4[10]</text>
<polygon fill="none" stroke="#000000" points="288.5,-81.2 288.5,-103.2 599.5,-103.2 599.5,-81.2 288.5,-81.2"/>
<image xlink:href="../../images/foreignKeys.png" width="11px" height="12px" preserveAspectRatio="xMinYMin meet" x="293.5" y="-98.2"/>
<text text-anchor="start" x="308.5" y="-88.3" font-family="Helvetica,sans-Serif" font-size="11.00" fill="#000000">item_educacional_cloud_id</text>
<polygon fill="none" stroke="#000000" points="599.5,-81.2 599.5,-103.2 907.5,-103.2 907.5,-81.2 599.5,-81.2"/>
<text text-anchor="start" x="602.5" y="-88.9" font-family="Helvetica,sans-Serif" font-size="11.00" fill="#000000">int4[10]</text>
<polygon fill="none" stroke="#000000" points="288.5,-59.2 288.5,-81.2 599.5,-81.2 599.5,-59.2 288.5,-59.2"/>
<text text-anchor="start" x="308.5" y="-66.3" font-family="Helvetica,sans-Serif" font-size="11.00" fill="#000000">situacao</text>
<polygon fill="none" stroke="#000000" points="599.5,-59.2 599.5,-81.2 907.5,-81.2 907.5,-59.2 599.5,-59.2"/>
<text text-anchor="start" x="602.0338" y="-66.9" font-family="Helvetica,sans-Serif" font-size="11.00" fill="#000000">&quot;educacao&quot;.&quot;situacoescomponentescurriculares&quot;[2147483647]</text>
<polygon fill="#ffffff" stroke="transparent" points="288.5,-40.2 288.5,-59.2 448.5,-59.2 448.5,-40.2 288.5,-40.2"/>
<polygon fill="none" stroke="#000000" points="288.5,-40.2 288.5,-59.2 448.5,-59.2 448.5,-40.2 288.5,-40.2"/>
<text text-anchor="start" x="291.5" y="-46.3" font-family="Helvetica,sans-Serif" font-size="11.00" fill="#000000">&lt; 4</text>
<polygon fill="#ffffff" stroke="transparent" points="448.5,-40.2 448.5,-59.2 599.5,-59.2 599.5,-40.2 448.5,-40.2"/>
<polygon fill="none" stroke="#000000" points="448.5,-40.2 448.5,-59.2 599.5,-59.2 599.5,-40.2 448.5,-40.2"/>
<text text-anchor="start" x="590.3862" y="-46.3" font-family="Helvetica,sans-Serif" font-size="11.00" fill="#000000"> &#160;</text>
<polygon fill="#ffffff" stroke="transparent" points="599.5,-40.2 599.5,-59.2 907.5,-59.2 907.5,-40.2 599.5,-40.2"/>
<polygon fill="none" stroke="#000000" points="599.5,-40.2 599.5,-59.2 907.5,-59.2 907.5,-40.2 599.5,-40.2"/>
<text text-anchor="start" x="888.9053" y="-46.3" font-family="Helvetica,sans-Serif" font-size="11.00" fill="#000000">0 &gt;</text>
<polygon fill="none" stroke="#000000" stroke-width="2" points="287,-39.2 287,-303.2 908,-303.2 908,-39.2 287,-39.2"/>
</a>
</g>
</g>
<!-- inscricao_lista_espera_situacoes -->
<g id="node2" class="node">
<title>inscricao_lista_espera_situacoes</title>
<g id="a_node2"><a xlink:href="../../tables/inscricao_lista_espera_situacoes.html" xlink:title="inscricao_lista_espera_situacoes" target="_top">
<polygon fill="#ffffff" stroke="transparent" points="8,-76.7 8,-159.7 237,-159.7 237,-76.7 8,-76.7"/>
<polygon fill="#f5f5f5" stroke="transparent" points="8.5,-136.2 8.5,-159.2 237.5,-159.2 237.5,-136.2 8.5,-136.2"/>
<polygon fill="none" stroke="#000000" points="8.5,-136.2 8.5,-159.2 237.5,-159.2 237.5,-136.2 8.5,-136.2"/>
<text text-anchor="start" x="13.5" y="-144.8" font-family="Helvetica,sans-Serif" font-weight="bold" font-size="11.00" fill="#000000">inscricao_lista_espera_situacoes</text>
<text text-anchor="start" x="203.0219" y="-144.3" font-family="Helvetica,sans-Serif" font-size="11.00" fill="#000000">[table]</text>
<polygon fill="none" stroke="#000000" points="8.5,-114.2 8.5,-136.2 237.5,-136.2 237.5,-114.2 8.5,-114.2"/>
<image xlink:href="../../images/primaryKeys.png" width="11px" height="12px" preserveAspectRatio="xMinYMin meet" x="13.5" y="-131.2"/>
<text text-anchor="start" x="37.5" y="-121.3" font-family="Helvetica,sans-Serif" font-size="11.00" fill="#000000">id</text>
<polygon fill="none" stroke="#000000" points="8.5,-95.2 8.5,-114.2 237.5,-114.2 237.5,-95.2 8.5,-95.2"/>
<text text-anchor="start" x="11.5" y="-101.3" font-family="Helvetica,sans-Serif" font-size="11.00" fill="#000000">...</text>
<polygon fill="#ffffff" stroke="transparent" points="8.5,-76.2 8.5,-95.2 106.5,-95.2 106.5,-76.2 8.5,-76.2"/>
<polygon fill="none" stroke="#000000" points="8.5,-76.2 8.5,-95.2 106.5,-95.2 106.5,-76.2 8.5,-76.2"/>
<text text-anchor="start" x="11.5" y="-82.3" font-family="Helvetica,sans-Serif" font-size="11.00" fill="#000000"> &#160;</text>
<polygon fill="#ffffff" stroke="transparent" points="106.5,-76.2 106.5,-95.2 161.5,-95.2 161.5,-76.2 106.5,-76.2"/>
<polygon fill="none" stroke="#000000" points="106.5,-76.2 106.5,-95.2 161.5,-95.2 161.5,-76.2 106.5,-76.2"/>
<text text-anchor="start" x="152.3862" y="-82.3" font-family="Helvetica,sans-Serif" font-size="11.00" fill="#000000"> &#160;</text>
<polygon fill="#ffffff" stroke="transparent" points="161.5,-76.2 161.5,-95.2 237.5,-95.2 237.5,-76.2 161.5,-76.2"/>
<polygon fill="none" stroke="#000000" points="161.5,-76.2 161.5,-95.2 237.5,-95.2 237.5,-76.2 161.5,-76.2"/>
<text text-anchor="start" x="206.6755" y="-82.3" font-family="Helvetica,sans-Serif" font-size="11.00" fill="#000000">596 &gt;</text>
</a>
</g>
</g>
<!-- situacoes_enturmacao_componentes_curriculares&#45;&gt;inscricao_lista_espera_situacoes -->
<g id="edge1" class="edge">
<title>situacoes_enturmacao_componentes_curriculares:w&#45;&gt;inscricao_lista_espera_situacoes:e</title>
<path fill="none" stroke="#000000" stroke-dasharray="5,2" d="M274.0097,-134.4813C261.8398,-131.3875 254.8909,-125.2 237.5,-125.2"/>
<polygon fill="#000000" stroke="#000000" points="280.5557,-135.2576 288.0759,-139.7749 284.5278,-135.7288 288.5,-136.2 288.5,-136.2 288.5,-136.2 284.5278,-135.7288 288.9241,-132.6251 280.5557,-135.2576 280.5557,-135.2576"/>
<ellipse fill="none" stroke="#000000" cx="277.378" cy="-134.8807" rx="3.2" ry="3.2"/>
</g>
<!-- situacoes_enturmacao_componentes_curriculares&#45;&gt;inscricao_lista_espera_situacoes -->
<g id="edge2" class="edge">
<title>situacoes_enturmacao_componentes_curriculares:w&#45;&gt;inscricao_lista_espera_situacoes:e</title>
<path fill="none" stroke="#000000" stroke-dasharray="5,2" d="M274.4604,-154.1536C261.3775,-145.3416 258.5921,-125.2 237.5,-125.2"/>
<polygon fill="#000000" stroke="#000000" points="280.8129,-155.9844 287.503,-161.6592 284.6565,-157.0922 288.5,-158.2 288.5,-158.2 288.5,-158.2 284.6565,-157.0922 289.497,-154.7408 280.8129,-155.9844 280.8129,-155.9844"/>
<ellipse fill="none" stroke="#000000" cx="277.7381" cy="-155.0982" rx="3.2" ry="3.2"/>
</g>
<!-- situacoes_enturmacao_componentes_curriculares&#45;&gt;inscricao_lista_espera_situacoes -->
<g id="edge3" class="edge">
<title>situacoes_enturmacao_componentes_curriculares:w&#45;&gt;inscricao_lista_espera_situacoes:e</title>
<path fill="none" stroke="#000000" stroke-dasharray="5,2" d="M274.4604,-96.2464C261.3775,-105.0584 258.5921,-125.2 237.5,-125.2"/>
<polygon fill="#000000" stroke="#000000" points="280.8129,-94.4156 289.497,-95.6592 284.6565,-93.3078 288.5,-92.2 288.5,-92.2 288.5,-92.2 284.6565,-93.3078 287.503,-88.7408 280.8129,-94.4156 280.8129,-94.4156"/>
<ellipse fill="none" stroke="#000000" cx="277.7381" cy="-95.3018" rx="3.2" ry="3.2"/>
</g>
<!-- situacoes_enturmacao_componentes_curriculares&#45;&gt;inscricao_lista_espera_situacoes -->
<g id="edge4" class="edge">
<title>situacoes_enturmacao_componentes_curriculares:w&#45;&gt;inscricao_lista_espera_situacoes:e</title>
<path fill="none" stroke="#000000" stroke-dasharray="5,2" d="M274.0097,-115.9188C261.8398,-119.0125 254.8909,-125.2 237.5,-125.2"/>
<polygon fill="#000000" stroke="#000000" points="280.5557,-115.1424 288.9241,-117.7749 284.5278,-114.6712 288.5,-114.2 288.5,-114.2 288.5,-114.2 284.5278,-114.6712 288.0759,-110.6251 280.5557,-115.1424 280.5557,-115.1424"/>
<ellipse fill="none" stroke="#000000" cx="277.378" cy="-115.5193" rx="3.2" ry="3.2"/>
</g>
</g>
</svg>
