<?xml version="1.0" encoding="UTF-8" standalone="no"?>
<!DOCTYPE svg PUBLIC "-//W3C//DTD SVG 1.1//EN"
 "http://www.w3.org/Graphics/SVG/1.1/DTD/svg11.dtd">
<!-- Generated by graphviz version 2.40.1 (20161225.0304)
 -->
<!-- Title: oneDegreeRelationshipsDiagram Pages: 1 -->
<svg width="273pt" height="228pt"
 viewBox="0.00 0.00 273.00 228.20" xmlns="http://www.w3.org/2000/svg" xmlns:xlink="http://www.w3.org/1999/xlink">
<g id="graph0" class="graph" transform="scale(1 1) rotate(0) translate(4 224.2)">
<title>oneDegreeRelationshipsDiagram</title>
<polygon fill="#ffffff" stroke="transparent" points="-4,4 -4,-224.2 269,-224.2 269,4 -4,4"/>
<text text-anchor="middle" x="72.4936" y="-7.3" font-family="Helvetica,sans-Serif" font-size="11.00" fill="#000000">Generated by SchemaSpy</text>
<!-- tipos_dependencias -->
<g id="node1" class="node">
<title>tipos_dependencias</title>
<g id="a_node1"><a xlink:href="../../tables/tipos_dependencias.html" xlink:title="tipos_dependencias" target="_top">
<polygon fill="#ffffff" stroke="transparent" points="8,-38.2 8,-216.2 257,-216.2 257,-38.2 8,-38.2"/>
<polygon fill="#f5f5f5" stroke="transparent" points="10.5,-191.2 10.5,-214.2 255.5,-214.2 255.5,-191.2 10.5,-191.2"/>
<polygon fill="none" stroke="#000000" points="10.5,-191.2 10.5,-214.2 255.5,-214.2 255.5,-191.2 10.5,-191.2"/>
<text text-anchor="start" x="15.5" y="-199.8" font-family="Helvetica,sans-Serif" font-weight="bold" font-size="11.00" fill="#000000">tipos_dependencias</text>
<text text-anchor="start" x="220.5437" y="-199.3" font-family="Helvetica,sans-Serif" font-size="11.00" fill="#000000">[table]</text>
<polygon fill="none" stroke="#000000" points="10.5,-169.2 10.5,-191.2 146.5,-191.2 146.5,-169.2 10.5,-169.2"/>
<text text-anchor="start" x="30.5" y="-176.3" font-family="Helvetica,sans-Serif" font-size="11.00" fill="#000000">sistema</text>
<polygon fill="none" stroke="#000000" points="146.5,-169.2 146.5,-191.2 255.5,-191.2 255.5,-169.2 146.5,-169.2"/>
<text text-anchor="start" x="149.5" y="-176.9" font-family="Helvetica,sans-Serif" font-size="11.00" fill="#000000">int4[10]</text>
<polygon fill="none" stroke="#000000" points="10.5,-147.2 10.5,-169.2 146.5,-169.2 146.5,-147.2 10.5,-147.2"/>
<text text-anchor="start" x="30.5" y="-154.3" font-family="Helvetica,sans-Serif" font-size="11.00" fill="#000000">tipo_registro</text>
<polygon fill="none" stroke="#000000" points="146.5,-147.2 146.5,-169.2 255.5,-169.2 255.5,-147.2 146.5,-147.2"/>
<text text-anchor="start" x="149.5" y="-154.9" font-family="Helvetica,sans-Serif" font-size="11.00" fill="#000000">text[2147483647]</text>
<polygon fill="none" stroke="#000000" points="10.5,-125.2 10.5,-147.2 146.5,-147.2 146.5,-125.2 10.5,-125.2"/>
<text text-anchor="start" x="30.5" y="-132.3" font-family="Helvetica,sans-Serif" font-size="11.00" fill="#000000">id_integracao</text>
<polygon fill="none" stroke="#000000" points="146.5,-125.2 146.5,-147.2 255.5,-147.2 255.5,-125.2 146.5,-125.2"/>
<text text-anchor="start" x="149.0344" y="-132.9" font-family="Helvetica,sans-Serif" font-size="11.00" fill="#000000">varchar[2147483647]</text>
<polygon fill="none" stroke="#000000" points="10.5,-103.2 10.5,-125.2 146.5,-125.2 146.5,-103.2 10.5,-103.2"/>
<text text-anchor="start" x="30.5" y="-110.3" font-family="Helvetica,sans-Serif" font-size="11.00" fill="#000000">id_origem</text>
<polygon fill="none" stroke="#000000" points="146.5,-103.2 146.5,-125.2 255.5,-125.2 255.5,-103.2 146.5,-103.2"/>
<text text-anchor="start" x="149.5" y="-110.9" font-family="Helvetica,sans-Serif" font-size="11.00" fill="#000000">int4[10]</text>
<polygon fill="none" stroke="#000000" points="10.5,-81.2 10.5,-103.2 146.5,-103.2 146.5,-81.2 10.5,-81.2"/>
<text text-anchor="start" x="30.5" y="-88.3" font-family="Helvetica,sans-Serif" font-size="11.00" fill="#000000">id_cloud</text>
<polygon fill="none" stroke="#000000" points="146.5,-81.2 146.5,-103.2 255.5,-103.2 255.5,-81.2 146.5,-81.2"/>
<text text-anchor="start" x="149.5" y="-88.9" font-family="Helvetica,sans-Serif" font-size="11.00" fill="#000000">int4[10]</text>
<polygon fill="none" stroke="#000000" points="10.5,-59.2 10.5,-81.2 146.5,-81.2 146.5,-59.2 10.5,-59.2"/>
<text text-anchor="start" x="30.5" y="-66.3" font-family="Helvetica,sans-Serif" font-size="11.00" fill="#000000">descricao</text>
<polygon fill="none" stroke="#000000" points="146.5,-59.2 146.5,-81.2 255.5,-81.2 255.5,-59.2 146.5,-59.2"/>
<text text-anchor="start" x="149.0344" y="-66.9" font-family="Helvetica,sans-Serif" font-size="11.00" fill="#000000">varchar[2147483647]</text>
<polygon fill="#ffffff" stroke="transparent" points="10.5,-40.2 10.5,-59.2 82.5,-59.2 82.5,-40.2 10.5,-40.2"/>
<polygon fill="none" stroke="#000000" points="10.5,-40.2 10.5,-59.2 82.5,-59.2 82.5,-40.2 10.5,-40.2"/>
<text text-anchor="start" x="13.5" y="-46.3" font-family="Helvetica,sans-Serif" font-size="11.00" fill="#000000">&lt; 0</text>
<polygon fill="#ffffff" stroke="transparent" points="82.5,-40.2 82.5,-59.2 146.5,-59.2 146.5,-40.2 82.5,-40.2"/>
<polygon fill="none" stroke="#000000" points="82.5,-40.2 82.5,-59.2 146.5,-59.2 146.5,-40.2 82.5,-40.2"/>
<text text-anchor="start" x="137.3862" y="-46.3" font-family="Helvetica,sans-Serif" font-size="11.00" fill="#000000"> &#160;</text>
<polygon fill="#ffffff" stroke="transparent" points="146.5,-40.2 146.5,-59.2 255.5,-59.2 255.5,-40.2 146.5,-40.2"/>
<polygon fill="none" stroke="#000000" points="146.5,-40.2 146.5,-59.2 255.5,-59.2 255.5,-40.2 146.5,-40.2"/>
<text text-anchor="start" x="236.9053" y="-46.3" font-family="Helvetica,sans-Serif" font-size="11.00" fill="#000000">0 &gt;</text>
<polygon fill="none" stroke="#000000" stroke-width="2" points="9,-39.2 9,-215.2 256,-215.2 256,-39.2 9,-39.2"/>
</a>
</g>
</g>
</g>
</svg>
