<?xml version="1.0" encoding="UTF-8" standalone="no"?>
<!DOCTYPE svg PUBLIC "-//W3C//DTD SVG 1.1//EN"
 "http://www.w3.org/Graphics/SVG/1.1/DTD/svg11.dtd">
<!-- Generated by graphviz version 2.40.1 (20161225.0304)
 -->
<!-- Title: oneDegreeRelationshipsDiagramImplied Pages: 1 -->
<svg width="746pt" height="426pt"
 viewBox="0.00 0.00 746.00 426.20" xmlns="http://www.w3.org/2000/svg" xmlns:xlink="http://www.w3.org/1999/xlink">
<g id="graph0" class="graph" transform="scale(1 1) rotate(0) translate(4 422.2)">
<title>oneDegreeRelationshipsDiagramImplied</title>
<polygon fill="#ffffff" stroke="transparent" points="-4,4 -4,-422.2 742,-422.2 742,4 -4,4"/>
<text text-anchor="middle" x="72.4936" y="-7.3" font-family="Helvetica,sans-Serif" font-size="11.00" fill="#000000">Generated by SchemaSpy</text>
<!-- tipos_avaliacoes_turmas -->
<g id="node1" class="node">
<title>tipos_avaliacoes_turmas</title>
<g id="a_node1"><a xlink:href="../../tables/tipos_avaliacoes_turmas.html" xlink:title="tipos_avaliacoes_turmas" target="_top">
<polygon fill="#ffffff" stroke="transparent" points="286,-38.2 286,-414.2 730,-414.2 730,-38.2 286,-38.2"/>
<polygon fill="#f5f5f5" stroke="transparent" points="288,-389.2 288,-412.2 728,-412.2 728,-389.2 288,-389.2"/>
<polygon fill="none" stroke="#000000" points="288,-389.2 288,-412.2 728,-412.2 728,-389.2 288,-389.2"/>
<text text-anchor="start" x="293" y="-397.8" font-family="Helvetica,sans-Serif" font-weight="bold" font-size="11.00" fill="#000000">tipos_avaliacoes_turmas</text>
<text text-anchor="start" x="693.0437" y="-397.3" font-family="Helvetica,sans-Serif" font-size="11.00" fill="#000000">[table]</text>
<polygon fill="none" stroke="#000000" points="288,-367.2 288,-389.2 509,-389.2 509,-367.2 288,-367.2"/>
<text text-anchor="start" x="308" y="-374.3" font-family="Helvetica,sans-Serif" font-size="11.00" fill="#000000">sistema</text>
<polygon fill="none" stroke="#000000" points="509,-367.2 509,-389.2 728,-389.2 728,-367.2 509,-367.2"/>
<text text-anchor="start" x="512" y="-374.9" font-family="Helvetica,sans-Serif" font-size="11.00" fill="#000000">int4[10]</text>
<polygon fill="none" stroke="#000000" points="288,-345.2 288,-367.2 509,-367.2 509,-345.2 288,-345.2"/>
<text text-anchor="start" x="308" y="-352.3" font-family="Helvetica,sans-Serif" font-size="11.00" fill="#000000">tipo_registro</text>
<polygon fill="none" stroke="#000000" points="509,-345.2 509,-367.2 728,-367.2 728,-345.2 509,-345.2"/>
<text text-anchor="start" x="512" y="-352.9" font-family="Helvetica,sans-Serif" font-size="11.00" fill="#000000">text[2147483647]</text>
<polygon fill="none" stroke="#000000" points="288,-323.2 288,-345.2 509,-345.2 509,-323.2 288,-323.2"/>
<text text-anchor="start" x="308" y="-330.3" font-family="Helvetica,sans-Serif" font-size="11.00" fill="#000000">id_integracao</text>
<polygon fill="none" stroke="#000000" points="509,-323.2 509,-345.2 728,-345.2 728,-323.2 509,-323.2"/>
<text text-anchor="start" x="512" y="-330.9" font-family="Helvetica,sans-Serif" font-size="11.00" fill="#000000">varchar[2147483647]</text>
<polygon fill="none" stroke="#000000" points="288,-301.2 288,-323.2 509,-323.2 509,-301.2 288,-301.2"/>
<text text-anchor="start" x="308" y="-308.3" font-family="Helvetica,sans-Serif" font-size="11.00" fill="#000000">id_origem</text>
<polygon fill="none" stroke="#000000" points="509,-301.2 509,-323.2 728,-323.2 728,-301.2 509,-301.2"/>
<text text-anchor="start" x="512" y="-308.9" font-family="Helvetica,sans-Serif" font-size="11.00" fill="#000000">int4[10]</text>
<polygon fill="none" stroke="#000000" points="288,-279.2 288,-301.2 509,-301.2 509,-279.2 288,-279.2"/>
<text text-anchor="start" x="308" y="-286.3" font-family="Helvetica,sans-Serif" font-size="11.00" fill="#000000">id_cloud</text>
<polygon fill="none" stroke="#000000" points="509,-279.2 509,-301.2 728,-301.2 728,-279.2 509,-279.2"/>
<text text-anchor="start" x="512" y="-286.9" font-family="Helvetica,sans-Serif" font-size="11.00" fill="#000000">int4[10]</text>
<polygon fill="none" stroke="#000000" points="288,-257.2 288,-279.2 509,-279.2 509,-257.2 288,-257.2"/>
<image xlink:href="../../images/foreignKeys.png" width="11px" height="12px" preserveAspectRatio="xMinYMin meet" x="293" y="-274.2"/>
<text text-anchor="start" x="308" y="-264.3" font-family="Helvetica,sans-Serif" font-size="11.00" fill="#000000">ano_letivo_origem_id</text>
<polygon fill="none" stroke="#000000" points="509,-257.2 509,-279.2 728,-279.2 728,-257.2 509,-257.2"/>
<text text-anchor="start" x="512" y="-264.9" font-family="Helvetica,sans-Serif" font-size="11.00" fill="#000000">int4[10]</text>
<polygon fill="none" stroke="#000000" points="288,-235.2 288,-257.2 509,-257.2 509,-235.2 288,-235.2"/>
<image xlink:href="../../images/foreignKeys.png" width="11px" height="12px" preserveAspectRatio="xMinYMin meet" x="293" y="-252.2"/>
<text text-anchor="start" x="308" y="-242.3" font-family="Helvetica,sans-Serif" font-size="11.00" fill="#000000">ano_letivo_cloud_id</text>
<polygon fill="none" stroke="#000000" points="509,-235.2 509,-257.2 728,-257.2 728,-235.2 509,-235.2"/>
<text text-anchor="start" x="512" y="-242.9" font-family="Helvetica,sans-Serif" font-size="11.00" fill="#000000">int4[10]</text>
<polygon fill="none" stroke="#000000" points="288,-213.2 288,-235.2 509,-235.2 509,-213.2 288,-213.2"/>
<image xlink:href="../../images/foreignKeys.png" width="11px" height="12px" preserveAspectRatio="xMinYMin meet" x="293" y="-230.2"/>
<text text-anchor="start" x="308" y="-220.3" font-family="Helvetica,sans-Serif" font-size="11.00" fill="#000000">estabelecimento_origem_id</text>
<polygon fill="none" stroke="#000000" points="509,-213.2 509,-235.2 728,-235.2 728,-213.2 509,-213.2"/>
<text text-anchor="start" x="512" y="-220.9" font-family="Helvetica,sans-Serif" font-size="11.00" fill="#000000">int4[10]</text>
<polygon fill="none" stroke="#000000" points="288,-191.2 288,-213.2 509,-213.2 509,-191.2 288,-191.2"/>
<image xlink:href="../../images/foreignKeys.png" width="11px" height="12px" preserveAspectRatio="xMinYMin meet" x="293" y="-208.2"/>
<text text-anchor="start" x="308" y="-198.3" font-family="Helvetica,sans-Serif" font-size="11.00" fill="#000000">estabelecimento_cloud_id</text>
<polygon fill="none" stroke="#000000" points="509,-191.2 509,-213.2 728,-213.2 728,-191.2 509,-191.2"/>
<text text-anchor="start" x="512" y="-198.9" font-family="Helvetica,sans-Serif" font-size="11.00" fill="#000000">int4[10]</text>
<polygon fill="none" stroke="#000000" points="288,-169.2 288,-191.2 509,-191.2 509,-169.2 288,-169.2"/>
<image xlink:href="../../images/foreignKeys.png" width="11px" height="12px" preserveAspectRatio="xMinYMin meet" x="293" y="-186.2"/>
<text text-anchor="start" x="308" y="-176.3" font-family="Helvetica,sans-Serif" font-size="11.00" fill="#000000">turma_origem_id</text>
<polygon fill="none" stroke="#000000" points="509,-169.2 509,-191.2 728,-191.2 728,-169.2 509,-169.2"/>
<text text-anchor="start" x="512" y="-176.9" font-family="Helvetica,sans-Serif" font-size="11.00" fill="#000000">int4[10]</text>
<polygon fill="none" stroke="#000000" points="288,-147.2 288,-169.2 509,-169.2 509,-147.2 288,-147.2"/>
<image xlink:href="../../images/foreignKeys.png" width="11px" height="12px" preserveAspectRatio="xMinYMin meet" x="293" y="-164.2"/>
<text text-anchor="start" x="308" y="-154.3" font-family="Helvetica,sans-Serif" font-size="11.00" fill="#000000">turma_cloud_id</text>
<polygon fill="none" stroke="#000000" points="509,-147.2 509,-169.2 728,-169.2 728,-147.2 509,-147.2"/>
<text text-anchor="start" x="512" y="-154.9" font-family="Helvetica,sans-Serif" font-size="11.00" fill="#000000">int4[10]</text>
<polygon fill="none" stroke="#000000" points="288,-125.2 288,-147.2 509,-147.2 509,-125.2 288,-125.2"/>
<image xlink:href="../../images/foreignKeys.png" width="11px" height="12px" preserveAspectRatio="xMinYMin meet" x="293" y="-142.2"/>
<text text-anchor="start" x="308" y="-132.3" font-family="Helvetica,sans-Serif" font-size="11.00" fill="#000000">configuracao_avaliacao_origem_id</text>
<polygon fill="none" stroke="#000000" points="509,-125.2 509,-147.2 728,-147.2 728,-125.2 509,-125.2"/>
<text text-anchor="start" x="512" y="-132.9" font-family="Helvetica,sans-Serif" font-size="11.00" fill="#000000">int4[10]</text>
<polygon fill="none" stroke="#000000" points="288,-103.2 288,-125.2 509,-125.2 509,-103.2 288,-103.2"/>
<image xlink:href="../../images/foreignKeys.png" width="11px" height="12px" preserveAspectRatio="xMinYMin meet" x="293" y="-120.2"/>
<text text-anchor="start" x="308" y="-110.3" font-family="Helvetica,sans-Serif" font-size="11.00" fill="#000000">configuracao_avaliacao_cloud_id</text>
<polygon fill="none" stroke="#000000" points="509,-103.2 509,-125.2 728,-125.2 728,-103.2 509,-103.2"/>
<text text-anchor="start" x="512" y="-110.9" font-family="Helvetica,sans-Serif" font-size="11.00" fill="#000000">int4[10]</text>
<polygon fill="none" stroke="#000000" points="288,-81.2 288,-103.2 509,-103.2 509,-81.2 288,-81.2"/>
<text text-anchor="start" x="308" y="-88.3" font-family="Helvetica,sans-Serif" font-size="11.00" fill="#000000">modo_avaliacao</text>
<polygon fill="none" stroke="#000000" points="509,-81.2 509,-103.2 728,-103.2 728,-81.2 509,-81.2"/>
<text text-anchor="start" x="511.9562" y="-88.9" font-family="Helvetica,sans-Serif" font-size="11.00" fill="#000000">&quot;educacao&quot;.&quot;modosavaliacao&quot;[2147483647]</text>
<polygon fill="none" stroke="#000000" points="288,-59.2 288,-81.2 509,-81.2 509,-59.2 288,-59.2"/>
<text text-anchor="start" x="308" y="-66.3" font-family="Helvetica,sans-Serif" font-size="11.00" fill="#000000">quantidade_exames_finais</text>
<polygon fill="none" stroke="#000000" points="509,-59.2 509,-81.2 728,-81.2 728,-59.2 509,-59.2"/>
<text text-anchor="start" x="512" y="-66.9" font-family="Helvetica,sans-Serif" font-size="11.00" fill="#000000">int4[10]</text>
<polygon fill="#ffffff" stroke="transparent" points="288,-40.2 288,-59.2 403,-59.2 403,-40.2 288,-40.2"/>
<polygon fill="none" stroke="#000000" points="288,-40.2 288,-59.2 403,-59.2 403,-40.2 288,-40.2"/>
<text text-anchor="start" x="291" y="-46.3" font-family="Helvetica,sans-Serif" font-size="11.00" fill="#000000">&lt; 8</text>
<polygon fill="#ffffff" stroke="transparent" points="403,-40.2 403,-59.2 509,-59.2 509,-40.2 403,-40.2"/>
<polygon fill="none" stroke="#000000" points="403,-40.2 403,-59.2 509,-59.2 509,-40.2 403,-40.2"/>
<text text-anchor="start" x="499.8862" y="-46.3" font-family="Helvetica,sans-Serif" font-size="11.00" fill="#000000"> &#160;</text>
<polygon fill="#ffffff" stroke="transparent" points="509,-40.2 509,-59.2 728,-59.2 728,-40.2 509,-40.2"/>
<polygon fill="none" stroke="#000000" points="509,-40.2 509,-59.2 728,-59.2 728,-40.2 509,-40.2"/>
<text text-anchor="start" x="709.4053" y="-46.3" font-family="Helvetica,sans-Serif" font-size="11.00" fill="#000000">0 &gt;</text>
<polygon fill="none" stroke="#000000" stroke-width="2" points="287,-39.2 287,-413.2 729,-413.2 729,-39.2 287,-39.2"/>
</a>
</g>
</g>
<!-- inscricao_lista_espera_situacoes -->
<g id="node2" class="node">
<title>inscricao_lista_espera_situacoes</title>
<g id="a_node2"><a xlink:href="../../tables/inscricao_lista_espera_situacoes.html" xlink:title="inscricao_lista_espera_situacoes" target="_top">
<polygon fill="#ffffff" stroke="transparent" points="8,-142.7 8,-225.7 237,-225.7 237,-142.7 8,-142.7"/>
<polygon fill="#f5f5f5" stroke="transparent" points="8.5,-202.2 8.5,-225.2 237.5,-225.2 237.5,-202.2 8.5,-202.2"/>
<polygon fill="none" stroke="#000000" points="8.5,-202.2 8.5,-225.2 237.5,-225.2 237.5,-202.2 8.5,-202.2"/>
<text text-anchor="start" x="13.5" y="-210.8" font-family="Helvetica,sans-Serif" font-weight="bold" font-size="11.00" fill="#000000">inscricao_lista_espera_situacoes</text>
<text text-anchor="start" x="203.0219" y="-210.3" font-family="Helvetica,sans-Serif" font-size="11.00" fill="#000000">[table]</text>
<polygon fill="none" stroke="#000000" points="8.5,-180.2 8.5,-202.2 237.5,-202.2 237.5,-180.2 8.5,-180.2"/>
<image xlink:href="../../images/primaryKeys.png" width="11px" height="12px" preserveAspectRatio="xMinYMin meet" x="13.5" y="-197.2"/>
<text text-anchor="start" x="37.5" y="-187.3" font-family="Helvetica,sans-Serif" font-size="11.00" fill="#000000">id</text>
<polygon fill="none" stroke="#000000" points="8.5,-161.2 8.5,-180.2 237.5,-180.2 237.5,-161.2 8.5,-161.2"/>
<text text-anchor="start" x="11.5" y="-167.3" font-family="Helvetica,sans-Serif" font-size="11.00" fill="#000000">...</text>
<polygon fill="#ffffff" stroke="transparent" points="8.5,-142.2 8.5,-161.2 106.5,-161.2 106.5,-142.2 8.5,-142.2"/>
<polygon fill="none" stroke="#000000" points="8.5,-142.2 8.5,-161.2 106.5,-161.2 106.5,-142.2 8.5,-142.2"/>
<text text-anchor="start" x="11.5" y="-148.3" font-family="Helvetica,sans-Serif" font-size="11.00" fill="#000000"> &#160;</text>
<polygon fill="#ffffff" stroke="transparent" points="106.5,-142.2 106.5,-161.2 161.5,-161.2 161.5,-142.2 106.5,-142.2"/>
<polygon fill="none" stroke="#000000" points="106.5,-142.2 106.5,-161.2 161.5,-161.2 161.5,-142.2 106.5,-142.2"/>
<text text-anchor="start" x="152.3862" y="-148.3" font-family="Helvetica,sans-Serif" font-size="11.00" fill="#000000"> &#160;</text>
<polygon fill="#ffffff" stroke="transparent" points="161.5,-142.2 161.5,-161.2 237.5,-161.2 237.5,-142.2 161.5,-142.2"/>
<polygon fill="none" stroke="#000000" points="161.5,-142.2 161.5,-161.2 237.5,-161.2 237.5,-142.2 161.5,-142.2"/>
<text text-anchor="start" x="206.6755" y="-148.3" font-family="Helvetica,sans-Serif" font-size="11.00" fill="#000000">596 &gt;</text>
</a>
</g>
</g>
<!-- tipos_avaliacoes_turmas&#45;&gt;inscricao_lista_espera_situacoes -->
<g id="edge1" class="edge">
<title>tipos_avaliacoes_turmas:w&#45;&gt;inscricao_lista_espera_situacoes:e</title>
<path fill="none" stroke="#000000" stroke-dasharray="5,2" d="M274.2934,-241.5107C258.9342,-228.2102 264.7226,-191.2 237.5,-191.2"/>
<polygon fill="#000000" stroke="#000000" points="280.4307,-243.6104 286.8347,-249.6062 284.2154,-244.9052 288,-246.2 288,-246.2 288,-246.2 284.2154,-244.9052 289.1653,-242.7938 280.4307,-243.6104 280.4307,-243.6104"/>
<ellipse fill="none" stroke="#000000" cx="277.403" cy="-242.5745" rx="3.2" ry="3.2"/>
</g>
<!-- tipos_avaliacoes_turmas&#45;&gt;inscricao_lista_espera_situacoes -->
<g id="edge2" class="edge">
<title>tipos_avaliacoes_turmas:w&#45;&gt;inscricao_lista_espera_situacoes:e</title>
<path fill="none" stroke="#000000" stroke-dasharray="5,2" d="M274.0801,-263.6139C254.7892,-247.0372 272.3508,-191.2 237.5,-191.2"/>
<polygon fill="#000000" stroke="#000000" points="280.4018,-265.6966 286.8735,-271.6192 284.2009,-266.9483 288,-268.2 288,-268.2 288,-268.2 284.2009,-266.9483 289.1265,-264.7808 280.4018,-265.6966 280.4018,-265.6966"/>
<ellipse fill="none" stroke="#000000" cx="277.3625" cy="-264.6953" rx="3.2" ry="3.2"/>
</g>
<!-- tipos_avaliacoes_turmas&#45;&gt;inscricao_lista_espera_situacoes -->
<g id="edge3" class="edge">
<title>tipos_avaliacoes_turmas:w&#45;&gt;inscricao_lista_espera_situacoes:e</title>
<path fill="none" stroke="#000000" stroke-dasharray="5,2" d="M274.0801,-118.7861C254.7892,-135.3628 272.3508,-191.2 237.5,-191.2"/>
<polygon fill="#000000" stroke="#000000" points="280.4018,-116.7034 289.1265,-117.6192 284.2009,-115.4517 288,-114.2 288,-114.2 288,-114.2 284.2009,-115.4517 286.8735,-110.7808 280.4018,-116.7034 280.4018,-116.7034"/>
<ellipse fill="none" stroke="#000000" cx="277.3625" cy="-117.7047" rx="3.2" ry="3.2"/>
</g>
<!-- tipos_avaliacoes_turmas&#45;&gt;inscricao_lista_espera_situacoes -->
<g id="edge4" class="edge">
<title>tipos_avaliacoes_turmas:w&#45;&gt;inscricao_lista_espera_situacoes:e</title>
<path fill="none" stroke="#000000" stroke-dasharray="5,2" d="M274.2934,-140.8893C258.9342,-154.1898 264.7226,-191.2 237.5,-191.2"/>
<polygon fill="#000000" stroke="#000000" points="280.4307,-138.7896 289.1653,-139.6062 284.2154,-137.4948 288,-136.2 288,-136.2 288,-136.2 284.2154,-137.4948 286.8347,-132.7938 280.4307,-138.7896 280.4307,-138.7896"/>
<ellipse fill="none" stroke="#000000" cx="277.403" cy="-139.8255" rx="3.2" ry="3.2"/>
</g>
<!-- tipos_avaliacoes_turmas&#45;&gt;inscricao_lista_espera_situacoes -->
<g id="edge5" class="edge">
<title>tipos_avaliacoes_turmas:w&#45;&gt;inscricao_lista_espera_situacoes:e</title>
<path fill="none" stroke="#000000" stroke-dasharray="5,2" d="M273.6489,-200.4813C261.5992,-197.3875 254.728,-191.2 237.5,-191.2"/>
<polygon fill="#000000" stroke="#000000" points="280.0568,-201.2486 287.5719,-205.7745 284.0284,-201.7243 288,-202.2 288,-202.2 288,-202.2 284.0284,-201.7243 288.4281,-198.6255 280.0568,-201.2486 280.0568,-201.2486"/>
<ellipse fill="none" stroke="#000000" cx="276.8795" cy="-200.8681" rx="3.2" ry="3.2"/>
</g>
<!-- tipos_avaliacoes_turmas&#45;&gt;inscricao_lista_espera_situacoes -->
<g id="edge6" class="edge">
<title>tipos_avaliacoes_turmas:w&#45;&gt;inscricao_lista_espera_situacoes:e</title>
<path fill="none" stroke="#000000" stroke-dasharray="5,2" d="M274.0755,-220.1536C261.1224,-211.3416 258.4466,-191.2 237.5,-191.2"/>
<polygon fill="#000000" stroke="#000000" points="280.3178,-221.9675 286.9954,-227.657 284.1589,-223.0838 288,-224.2 288,-224.2 288,-224.2 284.1589,-223.0838 289.0046,-220.743 280.3178,-221.9675 280.3178,-221.9675"/>
<ellipse fill="none" stroke="#000000" cx="277.2449" cy="-221.0745" rx="3.2" ry="3.2"/>
</g>
<!-- tipos_avaliacoes_turmas&#45;&gt;inscricao_lista_espera_situacoes -->
<g id="edge7" class="edge">
<title>tipos_avaliacoes_turmas:w&#45;&gt;inscricao_lista_espera_situacoes:e</title>
<path fill="none" stroke="#000000" stroke-dasharray="5,2" d="M274.0755,-162.2464C261.1224,-171.0584 258.4466,-191.2 237.5,-191.2"/>
<polygon fill="#000000" stroke="#000000" points="280.3178,-160.4325 289.0046,-161.657 284.1589,-159.3162 288,-158.2 288,-158.2 288,-158.2 284.1589,-159.3162 286.9954,-154.743 280.3178,-160.4325 280.3178,-160.4325"/>
<ellipse fill="none" stroke="#000000" cx="277.2449" cy="-161.3255" rx="3.2" ry="3.2"/>
</g>
<!-- tipos_avaliacoes_turmas&#45;&gt;inscricao_lista_espera_situacoes -->
<g id="edge8" class="edge">
<title>tipos_avaliacoes_turmas:w&#45;&gt;inscricao_lista_espera_situacoes:e</title>
<path fill="none" stroke="#000000" stroke-dasharray="5,2" d="M273.6489,-181.9188C261.5992,-185.0125 254.728,-191.2 237.5,-191.2"/>
<polygon fill="#000000" stroke="#000000" points="280.0568,-181.1514 288.4281,-183.7745 284.0284,-180.6757 288,-180.2 288,-180.2 288,-180.2 284.0284,-180.6757 287.5719,-176.6255 280.0568,-181.1514 280.0568,-181.1514"/>
<ellipse fill="none" stroke="#000000" cx="276.8795" cy="-181.5319" rx="3.2" ry="3.2"/>
</g>
</g>
</svg>
