<?xml version="1.0" encoding="UTF-8" standalone="no"?>
<!DOCTYPE svg PUBLIC "-//W3C//DTD SVG 1.1//EN"
 "http://www.w3.org/Graphics/SVG/1.1/DTD/svg11.dtd">
<!-- Generated by graphviz version 2.40.1 (20161225.0304)
 -->
<!-- Title: oneDegreeRelationshipsDiagram Pages: 1 -->
<svg width="486pt" height="492pt"
 viewBox="0.00 0.00 486.00 492.20" xmlns="http://www.w3.org/2000/svg" xmlns:xlink="http://www.w3.org/1999/xlink">
<g id="graph0" class="graph" transform="scale(1 1) rotate(0) translate(4 488.2)">
<title>oneDegreeRelationshipsDiagram</title>
<polygon fill="#ffffff" stroke="transparent" points="-4,4 -4,-488.2 482,-488.2 482,4 -4,4"/>
<text text-anchor="middle" x="72.4936" y="-7.3" font-family="Helvetica,sans-Serif" font-size="11.00" fill="#000000">Generated by SchemaSpy</text>
<!-- turmas_atividades_itens_avaliaveis -->
<g id="node1" class="node">
<title>turmas_atividades_itens_avaliaveis</title>
<g id="a_node1"><a xlink:href="../../tables/turmas_atividades_itens_avaliaveis.html" xlink:title="turmas_atividades_itens_avaliaveis" target="_top">
<polygon fill="#ffffff" stroke="transparent" points="8,-38.2 8,-480.2 470,-480.2 470,-38.2 8,-38.2"/>
<polygon fill="#f5f5f5" stroke="transparent" points="10,-455.2 10,-478.2 468,-478.2 468,-455.2 10,-455.2"/>
<polygon fill="none" stroke="#000000" points="10,-455.2 10,-478.2 468,-478.2 468,-455.2 10,-455.2"/>
<text text-anchor="start" x="15" y="-463.8" font-family="Helvetica,sans-Serif" font-weight="bold" font-size="11.00" fill="#000000">turmas_atividades_itens_avaliaveis</text>
<text text-anchor="start" x="433.0437" y="-463.3" font-family="Helvetica,sans-Serif" font-size="11.00" fill="#000000">[table]</text>
<polygon fill="none" stroke="#000000" points="10,-433.2 10,-455.2 234,-455.2 234,-433.2 10,-433.2"/>
<text text-anchor="start" x="30" y="-440.3" font-family="Helvetica,sans-Serif" font-size="11.00" fill="#000000">sistema</text>
<polygon fill="none" stroke="#000000" points="234,-433.2 234,-455.2 468,-455.2 468,-433.2 234,-433.2"/>
<text text-anchor="start" x="237" y="-440.9" font-family="Helvetica,sans-Serif" font-size="11.00" fill="#000000">int4[10]</text>
<polygon fill="none" stroke="#000000" points="10,-411.2 10,-433.2 234,-433.2 234,-411.2 10,-411.2"/>
<text text-anchor="start" x="30" y="-418.3" font-family="Helvetica,sans-Serif" font-size="11.00" fill="#000000">tipo_registro</text>
<polygon fill="none" stroke="#000000" points="234,-411.2 234,-433.2 468,-433.2 468,-411.2 234,-411.2"/>
<text text-anchor="start" x="237" y="-418.9" font-family="Helvetica,sans-Serif" font-size="11.00" fill="#000000">text[2147483647]</text>
<polygon fill="none" stroke="#000000" points="10,-389.2 10,-411.2 234,-411.2 234,-389.2 10,-389.2"/>
<text text-anchor="start" x="30" y="-396.3" font-family="Helvetica,sans-Serif" font-size="11.00" fill="#000000">id_integracao</text>
<polygon fill="none" stroke="#000000" points="234,-389.2 234,-411.2 468,-411.2 468,-389.2 234,-389.2"/>
<text text-anchor="start" x="237" y="-396.9" font-family="Helvetica,sans-Serif" font-size="11.00" fill="#000000">varchar[2147483647]</text>
<polygon fill="none" stroke="#000000" points="10,-367.2 10,-389.2 234,-389.2 234,-367.2 10,-367.2"/>
<text text-anchor="start" x="30" y="-374.3" font-family="Helvetica,sans-Serif" font-size="11.00" fill="#000000">id_origem</text>
<polygon fill="none" stroke="#000000" points="234,-367.2 234,-389.2 468,-389.2 468,-367.2 234,-367.2"/>
<text text-anchor="start" x="237" y="-374.9" font-family="Helvetica,sans-Serif" font-size="11.00" fill="#000000">int4[10]</text>
<polygon fill="none" stroke="#000000" points="10,-345.2 10,-367.2 234,-367.2 234,-345.2 10,-345.2"/>
<text text-anchor="start" x="30" y="-352.3" font-family="Helvetica,sans-Serif" font-size="11.00" fill="#000000">id_cloud</text>
<polygon fill="none" stroke="#000000" points="234,-345.2 234,-367.2 468,-367.2 468,-345.2 234,-345.2"/>
<text text-anchor="start" x="237" y="-352.9" font-family="Helvetica,sans-Serif" font-size="11.00" fill="#000000">int4[10]</text>
<polygon fill="none" stroke="#000000" points="10,-323.2 10,-345.2 234,-345.2 234,-323.2 10,-323.2"/>
<text text-anchor="start" x="30" y="-330.3" font-family="Helvetica,sans-Serif" font-size="11.00" fill="#000000">descricao</text>
<polygon fill="none" stroke="#000000" points="234,-323.2 234,-345.2 468,-345.2 468,-323.2 234,-323.2"/>
<text text-anchor="start" x="237" y="-330.9" font-family="Helvetica,sans-Serif" font-size="11.00" fill="#000000">varchar[2147483647]</text>
<polygon fill="none" stroke="#000000" points="10,-301.2 10,-323.2 234,-323.2 234,-301.2 10,-301.2"/>
<text text-anchor="start" x="30" y="-308.3" font-family="Helvetica,sans-Serif" font-size="11.00" fill="#000000">publicavel</text>
<polygon fill="none" stroke="#000000" points="234,-301.2 234,-323.2 468,-323.2 468,-301.2 234,-301.2"/>
<text text-anchor="start" x="237" y="-308.9" font-family="Helvetica,sans-Serif" font-size="11.00" fill="#000000">bool[1]</text>
<polygon fill="none" stroke="#000000" points="10,-279.2 10,-301.2 234,-301.2 234,-279.2 10,-279.2"/>
<text text-anchor="start" x="30" y="-286.3" font-family="Helvetica,sans-Serif" font-size="11.00" fill="#000000">data</text>
<polygon fill="none" stroke="#000000" points="234,-279.2 234,-301.2 468,-301.2 468,-279.2 234,-279.2"/>
<text text-anchor="start" x="237" y="-286.9" font-family="Helvetica,sans-Serif" font-size="11.00" fill="#000000">date[13]</text>
<polygon fill="none" stroke="#000000" points="10,-257.2 10,-279.2 234,-279.2 234,-257.2 10,-257.2"/>
<text text-anchor="start" x="30" y="-264.3" font-family="Helvetica,sans-Serif" font-size="11.00" fill="#000000">identificador_exame_final</text>
<polygon fill="none" stroke="#000000" points="234,-257.2 234,-279.2 468,-279.2 468,-257.2 234,-257.2"/>
<text text-anchor="start" x="237" y="-264.9" font-family="Helvetica,sans-Serif" font-size="11.00" fill="#000000">int2[5]</text>
<polygon fill="none" stroke="#000000" points="10,-235.2 10,-257.2 234,-257.2 234,-235.2 10,-235.2"/>
<text text-anchor="start" x="30" y="-242.3" font-family="Helvetica,sans-Serif" font-size="11.00" fill="#000000">modo_avaliacao</text>
<polygon fill="none" stroke="#000000" points="234,-235.2 234,-257.2 468,-257.2 468,-235.2 234,-235.2"/>
<text text-anchor="start" x="237" y="-242.9" font-family="Helvetica,sans-Serif" font-size="11.00" fill="#000000">&quot;educacao&quot;.&quot;modosavaliacao&quot;[2147483647]</text>
<polygon fill="none" stroke="#000000" points="10,-213.2 10,-235.2 234,-235.2 234,-213.2 10,-213.2"/>
<text text-anchor="start" x="30" y="-220.3" font-family="Helvetica,sans-Serif" font-size="11.00" fill="#000000">tipo</text>
<polygon fill="none" stroke="#000000" points="234,-213.2 234,-235.2 468,-235.2 468,-213.2 234,-213.2"/>
<text text-anchor="start" x="236.8189" y="-220.9" font-family="Helvetica,sans-Serif" font-size="11.00" fill="#000000">&quot;educacao&quot;.&quot;tipositensavaliaveis&quot;[2147483647]</text>
<polygon fill="none" stroke="#000000" points="10,-191.2 10,-213.2 234,-213.2 234,-191.2 10,-191.2"/>
<text text-anchor="start" x="30" y="-198.3" font-family="Helvetica,sans-Serif" font-size="11.00" fill="#000000">tipo_periodo</text>
<polygon fill="none" stroke="#000000" points="234,-191.2 234,-213.2 468,-213.2 468,-191.2 234,-191.2"/>
<text text-anchor="start" x="237" y="-198.9" font-family="Helvetica,sans-Serif" font-size="11.00" fill="#000000">&quot;educacao&quot;.&quot;tiposperiodos&quot;[2147483647]</text>
<polygon fill="none" stroke="#000000" points="10,-169.2 10,-191.2 234,-191.2 234,-169.2 10,-169.2"/>
<image xlink:href="../../images/foreignKeys.png" width="11px" height="12px" preserveAspectRatio="xMinYMin meet" x="15" y="-186.2"/>
<text text-anchor="start" x="30" y="-176.3" font-family="Helvetica,sans-Serif" font-size="11.00" fill="#000000">periodo_avaliativo_origem_id</text>
<polygon fill="none" stroke="#000000" points="234,-169.2 234,-191.2 468,-191.2 468,-169.2 234,-169.2"/>
<text text-anchor="start" x="237" y="-176.9" font-family="Helvetica,sans-Serif" font-size="11.00" fill="#000000">int4[10]</text>
<polygon fill="none" stroke="#000000" points="10,-147.2 10,-169.2 234,-169.2 234,-147.2 10,-147.2"/>
<image xlink:href="../../images/foreignKeys.png" width="11px" height="12px" preserveAspectRatio="xMinYMin meet" x="15" y="-164.2"/>
<text text-anchor="start" x="30" y="-154.3" font-family="Helvetica,sans-Serif" font-size="11.00" fill="#000000">periodo_avaliativo_cloud_id</text>
<polygon fill="none" stroke="#000000" points="234,-147.2 234,-169.2 468,-169.2 468,-147.2 234,-147.2"/>
<text text-anchor="start" x="237" y="-154.9" font-family="Helvetica,sans-Serif" font-size="11.00" fill="#000000">int4[10]</text>
<polygon fill="none" stroke="#000000" points="10,-125.2 10,-147.2 234,-147.2 234,-125.2 10,-125.2"/>
<image xlink:href="../../images/foreignKeys.png" width="11px" height="12px" preserveAspectRatio="xMinYMin meet" x="15" y="-142.2"/>
<text text-anchor="start" x="30" y="-132.3" font-family="Helvetica,sans-Serif" font-size="11.00" fill="#000000">item_educacional_origem_id</text>
<polygon fill="none" stroke="#000000" points="234,-125.2 234,-147.2 468,-147.2 468,-125.2 234,-125.2"/>
<text text-anchor="start" x="237" y="-132.9" font-family="Helvetica,sans-Serif" font-size="11.00" fill="#000000">int4[10]</text>
<polygon fill="none" stroke="#000000" points="10,-103.2 10,-125.2 234,-125.2 234,-103.2 10,-103.2"/>
<image xlink:href="../../images/foreignKeys.png" width="11px" height="12px" preserveAspectRatio="xMinYMin meet" x="15" y="-120.2"/>
<text text-anchor="start" x="30" y="-110.3" font-family="Helvetica,sans-Serif" font-size="11.00" fill="#000000">item_educacional_cloud_id</text>
<polygon fill="none" stroke="#000000" points="234,-103.2 234,-125.2 468,-125.2 468,-103.2 234,-103.2"/>
<text text-anchor="start" x="237" y="-110.9" font-family="Helvetica,sans-Serif" font-size="11.00" fill="#000000">int4[10]</text>
<polygon fill="none" stroke="#000000" points="10,-81.2 10,-103.2 234,-103.2 234,-81.2 10,-81.2"/>
<image xlink:href="../../images/foreignKeys.png" width="11px" height="12px" preserveAspectRatio="xMinYMin meet" x="15" y="-98.2"/>
<text text-anchor="start" x="30" y="-88.3" font-family="Helvetica,sans-Serif" font-size="11.00" fill="#000000">item_avaliavel_origem_id</text>
<polygon fill="none" stroke="#000000" points="234,-81.2 234,-103.2 468,-103.2 468,-81.2 234,-81.2"/>
<text text-anchor="start" x="237" y="-88.9" font-family="Helvetica,sans-Serif" font-size="11.00" fill="#000000">int4[10]</text>
<polygon fill="none" stroke="#000000" points="10,-59.2 10,-81.2 234,-81.2 234,-59.2 10,-59.2"/>
<image xlink:href="../../images/foreignKeys.png" width="11px" height="12px" preserveAspectRatio="xMinYMin meet" x="15" y="-76.2"/>
<text text-anchor="start" x="30" y="-66.3" font-family="Helvetica,sans-Serif" font-size="11.00" fill="#000000">turma_atividade_origem_id</text>
<polygon fill="none" stroke="#000000" points="234,-59.2 234,-81.2 468,-81.2 468,-59.2 234,-59.2"/>
<text text-anchor="start" x="237" y="-66.9" font-family="Helvetica,sans-Serif" font-size="11.00" fill="#000000">int4[10]</text>
<polygon fill="#ffffff" stroke="transparent" points="10,-40.2 10,-59.2 126,-59.2 126,-40.2 10,-40.2"/>
<polygon fill="none" stroke="#000000" points="10,-40.2 10,-59.2 126,-59.2 126,-40.2 10,-40.2"/>
<text text-anchor="start" x="13" y="-46.3" font-family="Helvetica,sans-Serif" font-size="11.00" fill="#000000">&lt; 0</text>
<polygon fill="#ffffff" stroke="transparent" points="126,-40.2 126,-59.2 234,-59.2 234,-40.2 126,-40.2"/>
<polygon fill="none" stroke="#000000" points="126,-40.2 126,-59.2 234,-59.2 234,-40.2 126,-40.2"/>
<text text-anchor="start" x="224.8862" y="-46.3" font-family="Helvetica,sans-Serif" font-size="11.00" fill="#000000"> &#160;</text>
<polygon fill="#ffffff" stroke="transparent" points="234,-40.2 234,-59.2 468,-59.2 468,-40.2 234,-40.2"/>
<polygon fill="none" stroke="#000000" points="234,-40.2 234,-59.2 468,-59.2 468,-40.2 234,-40.2"/>
<text text-anchor="start" x="449.4053" y="-46.3" font-family="Helvetica,sans-Serif" font-size="11.00" fill="#000000">0 &gt;</text>
<polygon fill="none" stroke="#000000" stroke-width="2" points="9,-39.2 9,-479.2 469,-479.2 469,-39.2 9,-39.2"/>
</a>
</g>
</g>
</g>
</svg>
