<?xml version="1.0" encoding="UTF-8" standalone="no"?>
<!DOCTYPE svg PUBLIC "-//W3C//DTD SVG 1.1//EN"
 "http://www.w3.org/Graphics/SVG/1.1/DTD/svg11.dtd">
<!-- Generated by graphviz version 2.40.1 (20161225.0304)
 -->
<!-- Title: oneDegreeRelationshipsDiagramImplied Pages: 1 -->
<svg width="896pt" height="976pt"
 viewBox="0.00 0.00 896.00 976.20" xmlns="http://www.w3.org/2000/svg" xmlns:xlink="http://www.w3.org/1999/xlink">
<g id="graph0" class="graph" transform="scale(1 1) rotate(0) translate(4 972.2)">
<title>oneDegreeRelationshipsDiagramImplied</title>
<polygon fill="#ffffff" stroke="transparent" points="-4,4 -4,-972.2 892,-972.2 892,4 -4,4"/>
<text text-anchor="middle" x="72.4936" y="-7.3" font-family="Helvetica,sans-Serif" font-size="11.00" fill="#000000">Generated by SchemaSpy</text>
<!-- turmas_atividades -->
<g id="node1" class="node">
<title>turmas_atividades</title>
<g id="a_node1"><a xlink:href="../../tables/turmas_atividades.html" xlink:title="turmas_atividades" target="_top">
<polygon fill="#ffffff" stroke="transparent" points="286,-38.2 286,-964.2 880,-964.2 880,-38.2 286,-38.2"/>
<polygon fill="#f5f5f5" stroke="transparent" points="288,-939.2 288,-962.2 878,-962.2 878,-939.2 288,-939.2"/>
<polygon fill="none" stroke="#000000" points="288,-939.2 288,-962.2 878,-962.2 878,-939.2 288,-939.2"/>
<text text-anchor="start" x="293" y="-947.8" font-family="Helvetica,sans-Serif" font-weight="bold" font-size="11.00" fill="#000000">turmas_atividades</text>
<text text-anchor="start" x="843.0437" y="-947.3" font-family="Helvetica,sans-Serif" font-size="11.00" fill="#000000">[table]</text>
<polygon fill="none" stroke="#000000" points="288,-917.2 288,-939.2 573,-939.2 573,-917.2 288,-917.2"/>
<text text-anchor="start" x="308" y="-924.3" font-family="Helvetica,sans-Serif" font-size="11.00" fill="#000000">sistema</text>
<polygon fill="none" stroke="#000000" points="573,-917.2 573,-939.2 878,-939.2 878,-917.2 573,-917.2"/>
<text text-anchor="start" x="576" y="-924.9" font-family="Helvetica,sans-Serif" font-size="11.00" fill="#000000">int4[10]</text>
<polygon fill="none" stroke="#000000" points="288,-895.2 288,-917.2 573,-917.2 573,-895.2 288,-895.2"/>
<text text-anchor="start" x="308" y="-902.3" font-family="Helvetica,sans-Serif" font-size="11.00" fill="#000000">tipo_registro</text>
<polygon fill="none" stroke="#000000" points="573,-895.2 573,-917.2 878,-917.2 878,-895.2 573,-895.2"/>
<text text-anchor="start" x="576" y="-902.9" font-family="Helvetica,sans-Serif" font-size="11.00" fill="#000000">text[2147483647]</text>
<polygon fill="none" stroke="#000000" points="288,-873.2 288,-895.2 573,-895.2 573,-873.2 288,-873.2"/>
<text text-anchor="start" x="308" y="-880.3" font-family="Helvetica,sans-Serif" font-size="11.00" fill="#000000">id_integracao</text>
<polygon fill="none" stroke="#000000" points="573,-873.2 573,-895.2 878,-895.2 878,-873.2 573,-873.2"/>
<text text-anchor="start" x="576" y="-880.9" font-family="Helvetica,sans-Serif" font-size="11.00" fill="#000000">varchar[2147483647]</text>
<polygon fill="none" stroke="#000000" points="288,-851.2 288,-873.2 573,-873.2 573,-851.2 288,-851.2"/>
<text text-anchor="start" x="308" y="-858.3" font-family="Helvetica,sans-Serif" font-size="11.00" fill="#000000">id_origem</text>
<polygon fill="none" stroke="#000000" points="573,-851.2 573,-873.2 878,-873.2 878,-851.2 573,-851.2"/>
<text text-anchor="start" x="576" y="-858.9" font-family="Helvetica,sans-Serif" font-size="11.00" fill="#000000">int4[10]</text>
<polygon fill="none" stroke="#000000" points="288,-829.2 288,-851.2 573,-851.2 573,-829.2 288,-829.2"/>
<text text-anchor="start" x="308" y="-836.3" font-family="Helvetica,sans-Serif" font-size="11.00" fill="#000000">id_cloud</text>
<polygon fill="none" stroke="#000000" points="573,-829.2 573,-851.2 878,-851.2 878,-829.2 573,-829.2"/>
<text text-anchor="start" x="576" y="-836.9" font-family="Helvetica,sans-Serif" font-size="11.00" fill="#000000">int4[10]</text>
<polygon fill="none" stroke="#000000" points="288,-807.2 288,-829.2 573,-829.2 573,-807.2 288,-807.2"/>
<image xlink:href="../../images/foreignKeys.png" width="11px" height="12px" preserveAspectRatio="xMinYMin meet" x="293" y="-824.2"/>
<text text-anchor="start" x="308" y="-814.3" font-family="Helvetica,sans-Serif" font-size="11.00" fill="#000000">atividade_origem_id</text>
<polygon fill="none" stroke="#000000" points="573,-807.2 573,-829.2 878,-829.2 878,-807.2 573,-807.2"/>
<text text-anchor="start" x="576" y="-814.9" font-family="Helvetica,sans-Serif" font-size="11.00" fill="#000000">int4[10]</text>
<polygon fill="none" stroke="#000000" points="288,-785.2 288,-807.2 573,-807.2 573,-785.2 288,-785.2"/>
<image xlink:href="../../images/foreignKeys.png" width="11px" height="12px" preserveAspectRatio="xMinYMin meet" x="293" y="-802.2"/>
<text text-anchor="start" x="308" y="-792.3" font-family="Helvetica,sans-Serif" font-size="11.00" fill="#000000">atividade_cloud_id</text>
<polygon fill="none" stroke="#000000" points="573,-785.2 573,-807.2 878,-807.2 878,-785.2 573,-785.2"/>
<text text-anchor="start" x="576" y="-792.9" font-family="Helvetica,sans-Serif" font-size="11.00" fill="#000000">int4[10]</text>
<polygon fill="none" stroke="#000000" points="288,-763.2 288,-785.2 573,-785.2 573,-763.2 288,-763.2"/>
<text text-anchor="start" x="308" y="-770.3" font-family="Helvetica,sans-Serif" font-size="11.00" fill="#000000">tipo</text>
<polygon fill="none" stroke="#000000" points="573,-763.2 573,-785.2 878,-785.2 878,-763.2 573,-763.2"/>
<text text-anchor="start" x="576" y="-770.9" font-family="Helvetica,sans-Serif" font-size="11.00" fill="#000000">varchar[80]</text>
<polygon fill="none" stroke="#000000" points="288,-741.2 288,-763.2 573,-763.2 573,-741.2 288,-741.2"/>
<text text-anchor="start" x="308" y="-748.3" font-family="Helvetica,sans-Serif" font-size="11.00" fill="#000000">carga_horaria_horas</text>
<polygon fill="none" stroke="#000000" points="573,-741.2 573,-763.2 878,-763.2 878,-741.2 573,-741.2"/>
<text text-anchor="start" x="576" y="-748.9" font-family="Helvetica,sans-Serif" font-size="11.00" fill="#000000">int2[5]</text>
<polygon fill="none" stroke="#000000" points="288,-719.2 288,-741.2 573,-741.2 573,-719.2 288,-719.2"/>
<text text-anchor="start" x="308" y="-726.3" font-family="Helvetica,sans-Serif" font-size="11.00" fill="#000000">carga_horaria_minutos</text>
<polygon fill="none" stroke="#000000" points="573,-719.2 573,-741.2 878,-741.2 878,-719.2 573,-719.2"/>
<text text-anchor="start" x="576" y="-726.9" font-family="Helvetica,sans-Serif" font-size="11.00" fill="#000000">int2[5]</text>
<polygon fill="none" stroke="#000000" points="288,-697.2 288,-719.2 573,-719.2 573,-697.2 288,-697.2"/>
<text text-anchor="start" x="308" y="-704.3" font-family="Helvetica,sans-Serif" font-size="11.00" fill="#000000">tipo_atendimento</text>
<polygon fill="none" stroke="#000000" points="573,-697.2 573,-719.2 878,-719.2 878,-697.2 573,-697.2"/>
<text text-anchor="start" x="576" y="-704.9" font-family="Helvetica,sans-Serif" font-size="11.00" fill="#000000">&quot;educacao&quot;.&quot;tiposatendimento&quot;[2147483647]</text>
<polygon fill="none" stroke="#000000" points="288,-675.2 288,-697.2 573,-697.2 573,-675.2 288,-675.2"/>
<text text-anchor="start" x="308" y="-682.3" font-family="Helvetica,sans-Serif" font-size="11.00" fill="#000000">descricao</text>
<polygon fill="none" stroke="#000000" points="573,-675.2 573,-697.2 878,-697.2 878,-675.2 573,-675.2"/>
<text text-anchor="start" x="576" y="-682.9" font-family="Helvetica,sans-Serif" font-size="11.00" fill="#000000">varchar[2147483647]</text>
<polygon fill="none" stroke="#000000" points="288,-653.2 288,-675.2 573,-675.2 573,-653.2 288,-653.2"/>
<text text-anchor="start" x="308" y="-660.3" font-family="Helvetica,sans-Serif" font-size="11.00" fill="#000000">observacao</text>
<polygon fill="none" stroke="#000000" points="573,-653.2 573,-675.2 878,-675.2 878,-653.2 573,-653.2"/>
<text text-anchor="start" x="576" y="-660.9" font-family="Helvetica,sans-Serif" font-size="11.00" fill="#000000">varchar[2147483647]</text>
<polygon fill="none" stroke="#000000" points="288,-631.2 288,-653.2 573,-653.2 573,-631.2 288,-631.2"/>
<image xlink:href="../../images/foreignKeys.png" width="11px" height="12px" preserveAspectRatio="xMinYMin meet" x="293" y="-648.2"/>
<text text-anchor="start" x="308" y="-638.3" font-family="Helvetica,sans-Serif" font-size="11.00" fill="#000000">configuracao_horas_aulas_origem_id</text>
<polygon fill="none" stroke="#000000" points="573,-631.2 573,-653.2 878,-653.2 878,-631.2 573,-631.2"/>
<text text-anchor="start" x="576" y="-638.9" font-family="Helvetica,sans-Serif" font-size="11.00" fill="#000000">int4[10]</text>
<polygon fill="none" stroke="#000000" points="288,-609.2 288,-631.2 573,-631.2 573,-609.2 288,-609.2"/>
<image xlink:href="../../images/foreignKeys.png" width="11px" height="12px" preserveAspectRatio="xMinYMin meet" x="293" y="-626.2"/>
<text text-anchor="start" x="308" y="-616.3" font-family="Helvetica,sans-Serif" font-size="11.00" fill="#000000">configuracao_horas_aulas_cloud_id</text>
<polygon fill="none" stroke="#000000" points="573,-609.2 573,-631.2 878,-631.2 878,-609.2 573,-609.2"/>
<text text-anchor="start" x="576" y="-616.9" font-family="Helvetica,sans-Serif" font-size="11.00" fill="#000000">int4[10]</text>
<polygon fill="none" stroke="#000000" points="288,-587.2 288,-609.2 573,-609.2 573,-587.2 288,-587.2"/>
<text text-anchor="start" x="308" y="-594.3" font-family="Helvetica,sans-Serif" font-size="11.00" fill="#000000">tipo_mediacao_didatico_pedagogica</text>
<polygon fill="none" stroke="#000000" points="573,-587.2 573,-609.2 878,-609.2 878,-587.2 573,-587.2"/>
<text text-anchor="start" x="575.856" y="-594.9" font-family="Helvetica,sans-Serif" font-size="11.00" fill="#000000">&quot;educacao&quot;.&quot;tiposmediacaodidaticopedagogica&quot;[2147483647]</text>
<polygon fill="none" stroke="#000000" points="288,-565.2 288,-587.2 573,-587.2 573,-565.2 288,-565.2"/>
<text text-anchor="start" x="308" y="-572.3" font-family="Helvetica,sans-Serif" font-size="11.00" fill="#000000">participa_mais_educacao</text>
<polygon fill="none" stroke="#000000" points="573,-565.2 573,-587.2 878,-587.2 878,-565.2 573,-565.2"/>
<text text-anchor="start" x="576" y="-572.9" font-family="Helvetica,sans-Serif" font-size="11.00" fill="#000000">bool[1]</text>
<polygon fill="none" stroke="#000000" points="288,-543.2 288,-565.2 573,-565.2 573,-543.2 288,-543.2"/>
<text text-anchor="start" x="308" y="-550.3" font-family="Helvetica,sans-Serif" font-size="11.00" fill="#000000">turma_bilingue_para_surdos</text>
<polygon fill="none" stroke="#000000" points="573,-543.2 573,-565.2 878,-565.2 878,-543.2 573,-543.2"/>
<text text-anchor="start" x="576" y="-550.9" font-family="Helvetica,sans-Serif" font-size="11.00" fill="#000000">bool[1]</text>
<polygon fill="none" stroke="#000000" points="288,-521.2 288,-543.2 573,-543.2 573,-521.2 288,-521.2"/>
<text text-anchor="start" x="308" y="-528.3" font-family="Helvetica,sans-Serif" font-size="11.00" fill="#000000">turno</text>
<polygon fill="none" stroke="#000000" points="573,-521.2 573,-543.2 878,-543.2 878,-521.2 573,-521.2"/>
<text text-anchor="start" x="576" y="-528.9" font-family="Helvetica,sans-Serif" font-size="11.00" fill="#000000">&quot;educacao&quot;.&quot;turnos&quot;[2147483647]</text>
<polygon fill="none" stroke="#000000" points="288,-499.2 288,-521.2 573,-521.2 573,-499.2 288,-499.2"/>
<image xlink:href="../../images/foreignKeys.png" width="11px" height="12px" preserveAspectRatio="xMinYMin meet" x="293" y="-516.2"/>
<text text-anchor="start" x="308" y="-506.3" font-family="Helvetica,sans-Serif" font-size="11.00" fill="#000000">matriz_origem_id</text>
<polygon fill="none" stroke="#000000" points="573,-499.2 573,-521.2 878,-521.2 878,-499.2 573,-499.2"/>
<text text-anchor="start" x="576" y="-506.9" font-family="Helvetica,sans-Serif" font-size="11.00" fill="#000000">int4[10]</text>
<polygon fill="none" stroke="#000000" points="288,-477.2 288,-499.2 573,-499.2 573,-477.2 288,-477.2"/>
<image xlink:href="../../images/foreignKeys.png" width="11px" height="12px" preserveAspectRatio="xMinYMin meet" x="293" y="-494.2"/>
<text text-anchor="start" x="308" y="-484.3" font-family="Helvetica,sans-Serif" font-size="11.00" fill="#000000">matriz_cloud_id</text>
<polygon fill="none" stroke="#000000" points="573,-477.2 573,-499.2 878,-499.2 878,-477.2 573,-477.2"/>
<text text-anchor="start" x="576" y="-484.9" font-family="Helvetica,sans-Serif" font-size="11.00" fill="#000000">int4[10]</text>
<polygon fill="none" stroke="#000000" points="288,-455.2 288,-477.2 573,-477.2 573,-455.2 288,-455.2"/>
<image xlink:href="../../images/foreignKeys.png" width="11px" height="12px" preserveAspectRatio="xMinYMin meet" x="293" y="-472.2"/>
<text text-anchor="start" x="308" y="-462.3" font-family="Helvetica,sans-Serif" font-size="11.00" fill="#000000">etapa_matriz_origem_id</text>
<polygon fill="none" stroke="#000000" points="573,-455.2 573,-477.2 878,-477.2 878,-455.2 573,-455.2"/>
<text text-anchor="start" x="576" y="-462.9" font-family="Helvetica,sans-Serif" font-size="11.00" fill="#000000">int4[10]</text>
<polygon fill="none" stroke="#000000" points="288,-433.2 288,-455.2 573,-455.2 573,-433.2 288,-433.2"/>
<image xlink:href="../../images/foreignKeys.png" width="11px" height="12px" preserveAspectRatio="xMinYMin meet" x="293" y="-450.2"/>
<text text-anchor="start" x="308" y="-440.3" font-family="Helvetica,sans-Serif" font-size="11.00" fill="#000000">etapa_matriz_cloud_id</text>
<polygon fill="none" stroke="#000000" points="573,-433.2 573,-455.2 878,-455.2 878,-433.2 573,-433.2"/>
<text text-anchor="start" x="576" y="-440.9" font-family="Helvetica,sans-Serif" font-size="11.00" fill="#000000">int4[10]</text>
<polygon fill="none" stroke="#000000" points="288,-411.2 288,-433.2 573,-433.2 573,-411.2 288,-411.2"/>
<image xlink:href="../../images/foreignKeys.png" width="11px" height="12px" preserveAspectRatio="xMinYMin meet" x="293" y="-428.2"/>
<text text-anchor="start" x="308" y="-418.3" font-family="Helvetica,sans-Serif" font-size="11.00" fill="#000000">vaga_etapa_origem_id</text>
<polygon fill="none" stroke="#000000" points="573,-411.2 573,-433.2 878,-433.2 878,-411.2 573,-411.2"/>
<text text-anchor="start" x="576" y="-418.9" font-family="Helvetica,sans-Serif" font-size="11.00" fill="#000000">int4[10]</text>
<polygon fill="none" stroke="#000000" points="288,-389.2 288,-411.2 573,-411.2 573,-389.2 288,-389.2"/>
<image xlink:href="../../images/foreignKeys.png" width="11px" height="12px" preserveAspectRatio="xMinYMin meet" x="293" y="-406.2"/>
<text text-anchor="start" x="308" y="-396.3" font-family="Helvetica,sans-Serif" font-size="11.00" fill="#000000">vaga_etapa_cloud_id</text>
<polygon fill="none" stroke="#000000" points="573,-389.2 573,-411.2 878,-411.2 878,-389.2 573,-389.2"/>
<text text-anchor="start" x="576" y="-396.9" font-family="Helvetica,sans-Serif" font-size="11.00" fill="#000000">int4[10]</text>
<polygon fill="none" stroke="#000000" points="288,-367.2 288,-389.2 573,-389.2 573,-367.2 288,-367.2"/>
<image xlink:href="../../images/foreignKeys.png" width="11px" height="12px" preserveAspectRatio="xMinYMin meet" x="293" y="-384.2"/>
<text text-anchor="start" x="308" y="-374.3" font-family="Helvetica,sans-Serif" font-size="11.00" fill="#000000">etapa_ensino_inep_origem_id</text>
<polygon fill="none" stroke="#000000" points="573,-367.2 573,-389.2 878,-389.2 878,-367.2 573,-367.2"/>
<text text-anchor="start" x="576" y="-374.9" font-family="Helvetica,sans-Serif" font-size="11.00" fill="#000000">int4[10]</text>
<polygon fill="none" stroke="#000000" points="288,-345.2 288,-367.2 573,-367.2 573,-345.2 288,-345.2"/>
<image xlink:href="../../images/foreignKeys.png" width="11px" height="12px" preserveAspectRatio="xMinYMin meet" x="293" y="-362.2"/>
<text text-anchor="start" x="308" y="-352.3" font-family="Helvetica,sans-Serif" font-size="11.00" fill="#000000">etapa_ensino_inep_cloud_id</text>
<polygon fill="none" stroke="#000000" points="573,-345.2 573,-367.2 878,-367.2 878,-345.2 573,-345.2"/>
<text text-anchor="start" x="576" y="-352.9" font-family="Helvetica,sans-Serif" font-size="11.00" fill="#000000">int4[10]</text>
<polygon fill="none" stroke="#000000" points="288,-323.2 288,-345.2 573,-345.2 573,-323.2 288,-323.2"/>
<image xlink:href="../../images/foreignKeys.png" width="11px" height="12px" preserveAspectRatio="xMinYMin meet" x="293" y="-340.2"/>
<text text-anchor="start" x="308" y="-330.3" font-family="Helvetica,sans-Serif" font-size="11.00" fill="#000000">calendario_matriz_curricular_origem_id</text>
<polygon fill="none" stroke="#000000" points="573,-323.2 573,-345.2 878,-345.2 878,-323.2 573,-323.2"/>
<text text-anchor="start" x="576" y="-330.9" font-family="Helvetica,sans-Serif" font-size="11.00" fill="#000000">int4[10]</text>
<polygon fill="none" stroke="#000000" points="288,-301.2 288,-323.2 573,-323.2 573,-301.2 288,-301.2"/>
<image xlink:href="../../images/foreignKeys.png" width="11px" height="12px" preserveAspectRatio="xMinYMin meet" x="293" y="-318.2"/>
<text text-anchor="start" x="308" y="-308.3" font-family="Helvetica,sans-Serif" font-size="11.00" fill="#000000">calendario_matriz_curricular_cloud_id</text>
<polygon fill="none" stroke="#000000" points="573,-301.2 573,-323.2 878,-323.2 878,-301.2 573,-301.2"/>
<text text-anchor="start" x="576" y="-308.9" font-family="Helvetica,sans-Serif" font-size="11.00" fill="#000000">int4[10]</text>
<polygon fill="none" stroke="#000000" points="288,-279.2 288,-301.2 573,-301.2 573,-279.2 288,-279.2"/>
<text text-anchor="start" x="308" y="-286.3" font-family="Helvetica,sans-Serif" font-size="11.00" fill="#000000">quantidade_alunos</text>
<polygon fill="none" stroke="#000000" points="573,-279.2 573,-301.2 878,-301.2 878,-279.2 573,-279.2"/>
<text text-anchor="start" x="576" y="-286.9" font-family="Helvetica,sans-Serif" font-size="11.00" fill="#000000">int2[5]</text>
<polygon fill="none" stroke="#000000" points="288,-257.2 288,-279.2 573,-279.2 573,-257.2 288,-257.2"/>
<text text-anchor="start" x="308" y="-264.3" font-family="Helvetica,sans-Serif" font-size="11.00" fill="#000000">quantidade_maxima_alunos</text>
<polygon fill="none" stroke="#000000" points="573,-257.2 573,-279.2 878,-279.2 878,-257.2 573,-257.2"/>
<text text-anchor="start" x="576" y="-264.9" font-family="Helvetica,sans-Serif" font-size="11.00" fill="#000000">int2[5]</text>
<polygon fill="none" stroke="#000000" points="288,-235.2 288,-257.2 573,-257.2 573,-235.2 288,-235.2"/>
<text text-anchor="start" x="308" y="-242.3" font-family="Helvetica,sans-Serif" font-size="11.00" fill="#000000">quantidade_exames_finais</text>
<polygon fill="none" stroke="#000000" points="573,-235.2 573,-257.2 878,-257.2 878,-235.2 573,-235.2"/>
<text text-anchor="start" x="576" y="-242.9" font-family="Helvetica,sans-Serif" font-size="11.00" fill="#000000">int2[5]</text>
<polygon fill="none" stroke="#000000" points="288,-213.2 288,-235.2 573,-235.2 573,-213.2 288,-213.2"/>
<text text-anchor="start" x="308" y="-220.3" font-family="Helvetica,sans-Serif" font-size="11.00" fill="#000000">modalidade_turma</text>
<polygon fill="none" stroke="#000000" points="573,-213.2 573,-235.2 878,-235.2 878,-213.2 573,-213.2"/>
<text text-anchor="start" x="576" y="-220.9" font-family="Helvetica,sans-Serif" font-size="11.00" fill="#000000">&quot;educacao&quot;.&quot;modalidadesturma&quot;[2147483647]</text>
<polygon fill="none" stroke="#000000" points="288,-191.2 288,-213.2 573,-213.2 573,-191.2 288,-191.2"/>
<image xlink:href="../../images/foreignKeys.png" width="11px" height="12px" preserveAspectRatio="xMinYMin meet" x="293" y="-208.2"/>
<text text-anchor="start" x="308" y="-198.3" font-family="Helvetica,sans-Serif" font-size="11.00" fill="#000000">curso_educacao_profissional_inep_origem_id</text>
<polygon fill="none" stroke="#000000" points="573,-191.2 573,-213.2 878,-213.2 878,-191.2 573,-191.2"/>
<text text-anchor="start" x="576" y="-198.9" font-family="Helvetica,sans-Serif" font-size="11.00" fill="#000000">int4[10]</text>
<polygon fill="none" stroke="#000000" points="288,-169.2 288,-191.2 573,-191.2 573,-169.2 288,-169.2"/>
<image xlink:href="../../images/foreignKeys.png" width="11px" height="12px" preserveAspectRatio="xMinYMin meet" x="293" y="-186.2"/>
<text text-anchor="start" x="308" y="-176.3" font-family="Helvetica,sans-Serif" font-size="11.00" fill="#000000">curso_educacao_profissional_inep_cloud_id</text>
<polygon fill="none" stroke="#000000" points="573,-169.2 573,-191.2 878,-191.2 878,-169.2 573,-169.2"/>
<text text-anchor="start" x="576" y="-176.9" font-family="Helvetica,sans-Serif" font-size="11.00" fill="#000000">int4[10]</text>
<polygon fill="none" stroke="#000000" points="288,-147.2 288,-169.2 573,-169.2 573,-147.2 288,-147.2"/>
<text text-anchor="start" x="308" y="-154.3" font-family="Helvetica,sans-Serif" font-size="11.00" fill="#000000">tipo_registro_frequencia</text>
<polygon fill="none" stroke="#000000" points="573,-147.2 573,-169.2 878,-169.2 878,-147.2 573,-147.2"/>
<text text-anchor="start" x="576" y="-154.9" font-family="Helvetica,sans-Serif" font-size="11.00" fill="#000000">&quot;educacao&quot;.&quot;tiposregistrofrequencia&quot;[2147483647]</text>
<polygon fill="none" stroke="#000000" points="288,-125.2 288,-147.2 573,-147.2 573,-125.2 288,-125.2"/>
<text text-anchor="start" x="308" y="-132.3" font-family="Helvetica,sans-Serif" font-size="11.00" fill="#000000">tipo_resultado</text>
<polygon fill="none" stroke="#000000" points="573,-125.2 573,-147.2 878,-147.2 878,-125.2 573,-125.2"/>
<text text-anchor="start" x="576" y="-132.9" font-family="Helvetica,sans-Serif" font-size="11.00" fill="#000000">&quot;educacao&quot;.&quot;tiposresultado&quot;[2147483647]</text>
<polygon fill="none" stroke="#000000" points="288,-103.2 288,-125.2 573,-125.2 573,-103.2 288,-103.2"/>
<text text-anchor="start" x="308" y="-110.3" font-family="Helvetica,sans-Serif" font-size="11.00" fill="#000000">turma_saldos</text>
<polygon fill="none" stroke="#000000" points="573,-103.2 573,-125.2 878,-125.2 878,-103.2 573,-103.2"/>
<text text-anchor="start" x="576" y="-110.9" font-family="Helvetica,sans-Serif" font-size="11.00" fill="#000000">_int4[10]</text>
<polygon fill="none" stroke="#000000" points="288,-81.2 288,-103.2 573,-103.2 573,-81.2 288,-81.2"/>
<image xlink:href="../../images/foreignKeys.png" width="11px" height="12px" preserveAspectRatio="xMinYMin meet" x="293" y="-98.2"/>
<text text-anchor="start" x="308" y="-88.3" font-family="Helvetica,sans-Serif" font-size="11.00" fill="#000000">turma_pai_origem_id</text>
<polygon fill="none" stroke="#000000" points="573,-81.2 573,-103.2 878,-103.2 878,-81.2 573,-81.2"/>
<text text-anchor="start" x="576" y="-88.9" font-family="Helvetica,sans-Serif" font-size="11.00" fill="#000000">int4[10]</text>
<polygon fill="none" stroke="#000000" points="288,-59.2 288,-81.2 573,-81.2 573,-59.2 288,-59.2"/>
<image xlink:href="../../images/foreignKeys.png" width="11px" height="12px" preserveAspectRatio="xMinYMin meet" x="293" y="-76.2"/>
<text text-anchor="start" x="308" y="-66.3" font-family="Helvetica,sans-Serif" font-size="11.00" fill="#000000">turma_pai_cloud_id</text>
<polygon fill="none" stroke="#000000" points="573,-59.2 573,-81.2 878,-81.2 878,-59.2 573,-59.2"/>
<text text-anchor="start" x="576" y="-66.9" font-family="Helvetica,sans-Serif" font-size="11.00" fill="#000000">int4[10]</text>
<polygon fill="#ffffff" stroke="transparent" points="288,-40.2 288,-59.2 438,-59.2 438,-40.2 288,-40.2"/>
<polygon fill="none" stroke="#000000" points="288,-40.2 288,-59.2 438,-59.2 438,-40.2 288,-40.2"/>
<text text-anchor="start" x="291" y="-46.3" font-family="Helvetica,sans-Serif" font-size="11.00" fill="#000000">&lt; 18</text>
<polygon fill="#ffffff" stroke="transparent" points="438,-40.2 438,-59.2 573,-59.2 573,-40.2 438,-40.2"/>
<polygon fill="none" stroke="#000000" points="438,-40.2 438,-59.2 573,-59.2 573,-40.2 438,-40.2"/>
<text text-anchor="start" x="563.8862" y="-46.3" font-family="Helvetica,sans-Serif" font-size="11.00" fill="#000000"> &#160;</text>
<polygon fill="#ffffff" stroke="transparent" points="573,-40.2 573,-59.2 878,-59.2 878,-40.2 573,-40.2"/>
<polygon fill="none" stroke="#000000" points="573,-40.2 573,-59.2 878,-59.2 878,-40.2 573,-40.2"/>
<text text-anchor="start" x="859.4053" y="-46.3" font-family="Helvetica,sans-Serif" font-size="11.00" fill="#000000">0 &gt;</text>
<polygon fill="none" stroke="#000000" stroke-width="2" points="287,-39.2 287,-963.2 879,-963.2 879,-39.2 287,-39.2"/>
</a>
</g>
</g>
<!-- inscricao_lista_espera_situacoes -->
<g id="node2" class="node">
<title>inscricao_lista_espera_situacoes</title>
<g id="a_node2"><a xlink:href="../../tables/inscricao_lista_espera_situacoes.html" xlink:title="inscricao_lista_espera_situacoes" target="_top">
<polygon fill="#ffffff" stroke="transparent" points="8,-362.7 8,-445.7 237,-445.7 237,-362.7 8,-362.7"/>
<polygon fill="#f5f5f5" stroke="transparent" points="8.5,-422.2 8.5,-445.2 237.5,-445.2 237.5,-422.2 8.5,-422.2"/>
<polygon fill="none" stroke="#000000" points="8.5,-422.2 8.5,-445.2 237.5,-445.2 237.5,-422.2 8.5,-422.2"/>
<text text-anchor="start" x="13.5" y="-430.8" font-family="Helvetica,sans-Serif" font-weight="bold" font-size="11.00" fill="#000000">inscricao_lista_espera_situacoes</text>
<text text-anchor="start" x="203.0219" y="-430.3" font-family="Helvetica,sans-Serif" font-size="11.00" fill="#000000">[table]</text>
<polygon fill="none" stroke="#000000" points="8.5,-400.2 8.5,-422.2 237.5,-422.2 237.5,-400.2 8.5,-400.2"/>
<image xlink:href="../../images/primaryKeys.png" width="11px" height="12px" preserveAspectRatio="xMinYMin meet" x="13.5" y="-417.2"/>
<text text-anchor="start" x="37.5" y="-407.3" font-family="Helvetica,sans-Serif" font-size="11.00" fill="#000000">id</text>
<polygon fill="none" stroke="#000000" points="8.5,-381.2 8.5,-400.2 237.5,-400.2 237.5,-381.2 8.5,-381.2"/>
<text text-anchor="start" x="11.5" y="-387.3" font-family="Helvetica,sans-Serif" font-size="11.00" fill="#000000">...</text>
<polygon fill="#ffffff" stroke="transparent" points="8.5,-362.2 8.5,-381.2 106.5,-381.2 106.5,-362.2 8.5,-362.2"/>
<polygon fill="none" stroke="#000000" points="8.5,-362.2 8.5,-381.2 106.5,-381.2 106.5,-362.2 8.5,-362.2"/>
<text text-anchor="start" x="11.5" y="-368.3" font-family="Helvetica,sans-Serif" font-size="11.00" fill="#000000"> &#160;</text>
<polygon fill="#ffffff" stroke="transparent" points="106.5,-362.2 106.5,-381.2 161.5,-381.2 161.5,-362.2 106.5,-362.2"/>
<polygon fill="none" stroke="#000000" points="106.5,-362.2 106.5,-381.2 161.5,-381.2 161.5,-362.2 106.5,-362.2"/>
<text text-anchor="start" x="152.3862" y="-368.3" font-family="Helvetica,sans-Serif" font-size="11.00" fill="#000000"> &#160;</text>
<polygon fill="#ffffff" stroke="transparent" points="161.5,-362.2 161.5,-381.2 237.5,-381.2 237.5,-362.2 161.5,-362.2"/>
<polygon fill="none" stroke="#000000" points="161.5,-362.2 161.5,-381.2 237.5,-381.2 237.5,-362.2 161.5,-362.2"/>
<text text-anchor="start" x="206.6755" y="-368.3" font-family="Helvetica,sans-Serif" font-size="11.00" fill="#000000">596 &gt;</text>
</a>
</g>
</g>
<!-- turmas_atividades&#45;&gt;inscricao_lista_espera_situacoes -->
<g id="edge1" class="edge">
<title>turmas_atividades:w&#45;&gt;inscricao_lista_espera_situacoes:e</title>
<path fill="none" stroke="#000000" stroke-dasharray="5,2" d="M273.5852,-795.1628C132.8353,-773.2423 404.8523,-411.2 237.5,-411.2"/>
<polygon fill="#000000" stroke="#000000" points="280.0206,-795.6258 287.7416,-799.7907 284.0103,-795.9129 288,-796.2 288,-796.2 288,-796.2 284.0103,-795.9129 288.2584,-792.6093 280.0206,-795.6258 280.0206,-795.6258"/>
<ellipse fill="none" stroke="#000000" cx="276.8289" cy="-795.3961" rx="3.2" ry="3.2"/>
</g>
<!-- turmas_atividades&#45;&gt;inscricao_lista_espera_situacoes -->
<g id="edge2" class="edge">
<title>turmas_atividades:w&#45;&gt;inscricao_lista_espera_situacoes:e</title>
<path fill="none" stroke="#000000" stroke-dasharray="5,2" d="M273.2327,-817.1725C123.6995,-794.7017 414.4359,-411.2 237.5,-411.2"/>
<polygon fill="#000000" stroke="#000000" points="280.0193,-817.6446 287.7501,-821.7913 284.0096,-817.9223 288,-818.2 288,-818.2 288,-818.2 284.0096,-817.9223 288.2499,-814.6087 280.0193,-817.6446 280.0193,-817.6446"/>
<ellipse fill="none" stroke="#000000" cx="276.827" cy="-817.4225" rx="3.2" ry="3.2"/>
</g>
<!-- turmas_atividades&#45;&gt;inscricao_lista_espera_situacoes -->
<g id="edge3" class="edge">
<title>turmas_atividades:w&#45;&gt;inscricao_lista_espera_situacoes:e</title>
<path fill="none" stroke="#000000" stroke-dasharray="5,2" d="M274.0064,-316.2035C248.8685,-334.7249 280.9126,-411.2 237.5,-411.2"/>
<polygon fill="#000000" stroke="#000000" points="280.3086,-314.4005 288.9902,-315.6611 284.1543,-313.3003 288,-312.2 288,-312.2 288,-312.2 284.1543,-313.3003 287.0098,-308.7389 280.3086,-314.4005 280.3086,-314.4005"/>
<ellipse fill="none" stroke="#000000" cx="277.232" cy="-315.2807" rx="3.2" ry="3.2"/>
</g>
<!-- turmas_atividades&#45;&gt;inscricao_lista_espera_situacoes -->
<g id="edge4" class="edge">
<title>turmas_atividades:w&#45;&gt;inscricao_lista_espera_situacoes:e</title>
<path fill="none" stroke="#000000" stroke-dasharray="5,2" d="M274.0801,-338.7861C254.7892,-355.3628 272.3508,-411.2 237.5,-411.2"/>
<polygon fill="#000000" stroke="#000000" points="280.4018,-336.7034 289.1265,-337.6192 284.2009,-335.4517 288,-334.2 288,-334.2 288,-334.2 284.2009,-335.4517 286.8735,-330.7808 280.4018,-336.7034 280.4018,-336.7034"/>
<ellipse fill="none" stroke="#000000" cx="277.3625" cy="-337.7047" rx="3.2" ry="3.2"/>
</g>
<!-- turmas_atividades&#45;&gt;inscricao_lista_espera_situacoes -->
<g id="edge5" class="edge">
<title>turmas_atividades:w&#45;&gt;inscricao_lista_espera_situacoes:e</title>
<path fill="none" stroke="#000000" stroke-dasharray="5,2" d="M273.5396,-618.1315C208.1065,-596.4254 327.4627,-411.2 237.5,-411.2"/>
<polygon fill="#000000" stroke="#000000" points="280.0806,-619.0671 287.4902,-623.7637 284.0403,-619.6335 288,-620.2 288,-620.2 288,-620.2 284.0403,-619.6335 288.5098,-616.6363 280.0806,-619.0671 280.0806,-619.0671"/>
<ellipse fill="none" stroke="#000000" cx="276.9129" cy="-618.6139" rx="3.2" ry="3.2"/>
</g>
<!-- turmas_atividades&#45;&gt;inscricao_lista_espera_situacoes -->
<g id="edge6" class="edge">
<title>turmas_atividades:w&#45;&gt;inscricao_lista_espera_situacoes:e</title>
<path fill="none" stroke="#000000" stroke-dasharray="5,2" d="M273.5055,-640.3406C199.0138,-618.4791 337.0494,-411.2 237.5,-411.2"/>
<polygon fill="#000000" stroke="#000000" points="280.065,-641.182 287.5419,-645.7707 284.0325,-641.691 288,-642.2 288,-642.2 288,-642.2 284.0325,-641.691 288.4581,-638.6293 280.065,-641.182 280.065,-641.182"/>
<ellipse fill="none" stroke="#000000" cx="276.891" cy="-640.7748" rx="3.2" ry="3.2"/>
</g>
<!-- turmas_atividades&#45;&gt;inscricao_lista_espera_situacoes -->
<g id="edge7" class="edge">
<title>turmas_atividades:w&#45;&gt;inscricao_lista_espera_situacoes:e</title>
<path fill="none" stroke="#000000" stroke-dasharray="5,2" d="M273.5055,-182.0594C199.0138,-203.9209 337.0494,-411.2 237.5,-411.2"/>
<polygon fill="#000000" stroke="#000000" points="280.065,-181.218 288.4581,-183.7707 284.0325,-180.709 288,-180.2 288,-180.2 288,-180.2 284.0325,-180.709 287.5419,-176.6293 280.065,-181.218 280.065,-181.218"/>
<ellipse fill="none" stroke="#000000" cx="276.891" cy="-181.6252" rx="3.2" ry="3.2"/>
</g>
<!-- turmas_atividades&#45;&gt;inscricao_lista_espera_situacoes -->
<g id="edge8" class="edge">
<title>turmas_atividades:w&#45;&gt;inscricao_lista_espera_situacoes:e</title>
<path fill="none" stroke="#000000" stroke-dasharray="5,2" d="M273.5396,-204.2685C208.1065,-225.9746 327.4627,-411.2 237.5,-411.2"/>
<polygon fill="#000000" stroke="#000000" points="280.0806,-203.3329 288.5098,-205.7637 284.0403,-202.7665 288,-202.2 288,-202.2 288,-202.2 284.0403,-202.7665 287.4902,-198.6363 280.0806,-203.3329 280.0806,-203.3329"/>
<ellipse fill="none" stroke="#000000" cx="276.9129" cy="-203.7861" rx="3.2" ry="3.2"/>
</g>
<!-- turmas_atividades&#45;&gt;inscricao_lista_espera_situacoes -->
<g id="edge9" class="edge">
<title>turmas_atividades:w&#45;&gt;inscricao_lista_espera_situacoes:e</title>
<path fill="none" stroke="#000000" stroke-dasharray="5,2" d="M274.2934,-360.8893C258.9342,-374.1898 264.7226,-411.2 237.5,-411.2"/>
<polygon fill="#000000" stroke="#000000" points="280.4307,-358.7896 289.1653,-359.6062 284.2154,-357.4948 288,-356.2 288,-356.2 288,-356.2 284.2154,-357.4948 286.8347,-352.7938 280.4307,-358.7896 280.4307,-358.7896"/>
<ellipse fill="none" stroke="#000000" cx="277.403" cy="-359.8255" rx="3.2" ry="3.2"/>
</g>
<!-- turmas_atividades&#45;&gt;inscricao_lista_espera_situacoes -->
<g id="edge10" class="edge">
<title>turmas_atividades:w&#45;&gt;inscricao_lista_espera_situacoes:e</title>
<path fill="none" stroke="#000000" stroke-dasharray="5,2" d="M274.0755,-382.2464C261.1224,-391.0584 258.4466,-411.2 237.5,-411.2"/>
<polygon fill="#000000" stroke="#000000" points="280.3178,-380.4325 289.0046,-381.657 284.1589,-379.3162 288,-378.2 288,-378.2 288,-378.2 284.1589,-379.3162 286.9954,-374.743 280.3178,-380.4325 280.3178,-380.4325"/>
<ellipse fill="none" stroke="#000000" cx="277.2449" cy="-381.3255" rx="3.2" ry="3.2"/>
</g>
<!-- turmas_atividades&#45;&gt;inscricao_lista_espera_situacoes -->
<g id="edge11" class="edge">
<title>turmas_atividades:w&#45;&gt;inscricao_lista_espera_situacoes:e</title>
<path fill="none" stroke="#000000" stroke-dasharray="5,2" d="M274.0755,-440.1536C261.1224,-431.3416 258.4466,-411.2 237.5,-411.2"/>
<polygon fill="#000000" stroke="#000000" points="280.3178,-441.9675 286.9954,-447.657 284.1589,-443.0838 288,-444.2 288,-444.2 288,-444.2 284.1589,-443.0838 289.0046,-440.743 280.3178,-441.9675 280.3178,-441.9675"/>
<ellipse fill="none" stroke="#000000" cx="277.2449" cy="-441.0745" rx="3.2" ry="3.2"/>
</g>
<!-- turmas_atividades&#45;&gt;inscricao_lista_espera_situacoes -->
<g id="edge12" class="edge">
<title>turmas_atividades:w&#45;&gt;inscricao_lista_espera_situacoes:e</title>
<path fill="none" stroke="#000000" stroke-dasharray="5,2" d="M274.2934,-461.5107C258.9342,-448.2102 264.7226,-411.2 237.5,-411.2"/>
<polygon fill="#000000" stroke="#000000" points="280.4307,-463.6104 286.8347,-469.6062 284.2154,-464.9052 288,-466.2 288,-466.2 288,-466.2 284.2154,-464.9052 289.1653,-462.7938 280.4307,-463.6104 280.4307,-463.6104"/>
<ellipse fill="none" stroke="#000000" cx="277.403" cy="-462.5745" rx="3.2" ry="3.2"/>
</g>
<!-- turmas_atividades&#45;&gt;inscricao_lista_espera_situacoes -->
<g id="edge13" class="edge">
<title>turmas_atividades:w&#45;&gt;inscricao_lista_espera_situacoes:e</title>
<path fill="none" stroke="#000000" stroke-dasharray="5,2" d="M274.0801,-483.6139C254.7892,-467.0372 272.3508,-411.2 237.5,-411.2"/>
<polygon fill="#000000" stroke="#000000" points="280.4018,-485.6966 286.8735,-491.6192 284.2009,-486.9483 288,-488.2 288,-488.2 288,-488.2 284.2009,-486.9483 289.1265,-484.7808 280.4018,-485.6966 280.4018,-485.6966"/>
<ellipse fill="none" stroke="#000000" cx="277.3625" cy="-484.6953" rx="3.2" ry="3.2"/>
</g>
<!-- turmas_atividades&#45;&gt;inscricao_lista_espera_situacoes -->
<g id="edge14" class="edge">
<title>turmas_atividades:w&#45;&gt;inscricao_lista_espera_situacoes:e</title>
<path fill="none" stroke="#000000" stroke-dasharray="5,2" d="M274.0064,-506.1965C248.8685,-487.6751 280.9126,-411.2 237.5,-411.2"/>
<polygon fill="#000000" stroke="#000000" points="280.3086,-507.9995 287.0098,-513.6611 284.1543,-509.0997 288,-510.2 288,-510.2 288,-510.2 284.1543,-509.0997 288.9902,-506.7389 280.3086,-507.9995 280.3086,-507.9995"/>
<ellipse fill="none" stroke="#000000" cx="277.232" cy="-507.1193" rx="3.2" ry="3.2"/>
</g>
<!-- turmas_atividades&#45;&gt;inscricao_lista_espera_situacoes -->
<g id="edge15" class="edge">
<title>turmas_atividades:w&#45;&gt;inscricao_lista_espera_situacoes:e</title>
<path fill="none" stroke="#000000" stroke-dasharray="5,2" d="M273.3227,-71.4348C152.28,-93.7551 385.3222,-411.2 237.5,-411.2"/>
<polygon fill="#000000" stroke="#000000" points="280.0282,-70.8707 288.3018,-73.7873 284.0141,-70.5353 288,-70.2 288,-70.2 288,-70.2 284.0141,-70.5353 287.6982,-66.6127 280.0282,-70.8707 280.0282,-70.8707"/>
<ellipse fill="none" stroke="#000000" cx="276.8394" cy="-71.139" rx="3.2" ry="3.2"/>
</g>
<!-- turmas_atividades&#45;&gt;inscricao_lista_espera_situacoes -->
<g id="edge16" class="edge">
<title>turmas_atividades:w&#45;&gt;inscricao_lista_espera_situacoes:e</title>
<path fill="none" stroke="#000000" stroke-dasharray="5,2" d="M273.5512,-93.4853C161.4923,-115.4365 375.7165,-411.2 237.5,-411.2"/>
<polygon fill="#000000" stroke="#000000" points="280.0315,-92.9089 288.319,-95.7858 284.0157,-92.5544 288,-92.2 288,-92.2 288,-92.2 284.0157,-92.5544 287.681,-88.6142 280.0315,-92.9089 280.0315,-92.9089"/>
<ellipse fill="none" stroke="#000000" cx="276.8441" cy="-93.1924" rx="3.2" ry="3.2"/>
</g>
<!-- turmas_atividades&#45;&gt;inscricao_lista_espera_situacoes -->
<g id="edge17" class="edge">
<title>turmas_atividades:w&#45;&gt;inscricao_lista_espera_situacoes:e</title>
<path fill="none" stroke="#000000" stroke-dasharray="5,2" d="M273.6489,-401.9188C261.5992,-405.0125 254.728,-411.2 237.5,-411.2"/>
<polygon fill="#000000" stroke="#000000" points="280.0568,-401.1514 288.4281,-403.7745 284.0284,-400.6757 288,-400.2 288,-400.2 288,-400.2 284.0284,-400.6757 287.5719,-396.6255 280.0568,-401.1514 280.0568,-401.1514"/>
<ellipse fill="none" stroke="#000000" cx="276.8795" cy="-401.5319" rx="3.2" ry="3.2"/>
</g>
<!-- turmas_atividades&#45;&gt;inscricao_lista_espera_situacoes -->
<g id="edge18" class="edge">
<title>turmas_atividades:w&#45;&gt;inscricao_lista_espera_situacoes:e</title>
<path fill="none" stroke="#000000" stroke-dasharray="5,2" d="M273.6489,-420.4813C261.5992,-417.3875 254.728,-411.2 237.5,-411.2"/>
<polygon fill="#000000" stroke="#000000" points="280.0568,-421.2486 287.5719,-425.7745 284.0284,-421.7243 288,-422.2 288,-422.2 288,-422.2 284.0284,-421.7243 288.4281,-418.6255 280.0568,-421.2486 280.0568,-421.2486"/>
<ellipse fill="none" stroke="#000000" cx="276.8795" cy="-420.8681" rx="3.2" ry="3.2"/>
</g>
</g>
</svg>
