<?xml version="1.0" encoding="UTF-8" standalone="no"?>
<!DOCTYPE svg PUBLIC "-//W3C//DTD SVG 1.1//EN"
 "http://www.w3.org/Graphics/SVG/1.1/DTD/svg11.dtd">
<!-- Generated by graphviz version 2.40.1 (20161225.0304)
 -->
<!-- Title: oneDegreeRelationshipsDiagram Pages: 1 -->
<svg width="618pt" height="844pt"
 viewBox="0.00 0.00 618.00 844.20" xmlns="http://www.w3.org/2000/svg" xmlns:xlink="http://www.w3.org/1999/xlink">
<g id="graph0" class="graph" transform="scale(1 1) rotate(0) translate(4 840.2)">
<title>oneDegreeRelationshipsDiagram</title>
<polygon fill="#ffffff" stroke="transparent" points="-4,4 -4,-840.2 614,-840.2 614,4 -4,4"/>
<text text-anchor="middle" x="72.4936" y="-7.3" font-family="Helvetica,sans-Serif" font-size="11.00" fill="#000000">Generated by SchemaSpy</text>
<!-- turmas -->
<g id="node1" class="node">
<title>turmas</title>
<g id="a_node1"><a xlink:href="../../tables/turmas.html" xlink:title="turmas" target="_top">
<polygon fill="#ffffff" stroke="transparent" points="8,-38.2 8,-832.2 602,-832.2 602,-38.2 8,-38.2"/>
<polygon fill="#f5f5f5" stroke="transparent" points="10,-807.2 10,-830.2 600,-830.2 600,-807.2 10,-807.2"/>
<polygon fill="none" stroke="#000000" points="10,-807.2 10,-830.2 600,-830.2 600,-807.2 10,-807.2"/>
<text text-anchor="start" x="15" y="-815.8" font-family="Helvetica,sans-Serif" font-weight="bold" font-size="11.00" fill="#000000">turmas</text>
<text text-anchor="start" x="565.0437" y="-815.3" font-family="Helvetica,sans-Serif" font-size="11.00" fill="#000000">[table]</text>
<polygon fill="none" stroke="#000000" points="10,-785.2 10,-807.2 295,-807.2 295,-785.2 10,-785.2"/>
<text text-anchor="start" x="30" y="-792.3" font-family="Helvetica,sans-Serif" font-size="11.00" fill="#000000">sistema</text>
<polygon fill="none" stroke="#000000" points="295,-785.2 295,-807.2 600,-807.2 600,-785.2 295,-785.2"/>
<text text-anchor="start" x="298" y="-792.9" font-family="Helvetica,sans-Serif" font-size="11.00" fill="#000000">int4[10]</text>
<polygon fill="none" stroke="#000000" points="10,-763.2 10,-785.2 295,-785.2 295,-763.2 10,-763.2"/>
<text text-anchor="start" x="30" y="-770.3" font-family="Helvetica,sans-Serif" font-size="11.00" fill="#000000">tipo_registro</text>
<polygon fill="none" stroke="#000000" points="295,-763.2 295,-785.2 600,-785.2 600,-763.2 295,-763.2"/>
<text text-anchor="start" x="298" y="-770.9" font-family="Helvetica,sans-Serif" font-size="11.00" fill="#000000">text[2147483647]</text>
<polygon fill="none" stroke="#000000" points="10,-741.2 10,-763.2 295,-763.2 295,-741.2 10,-741.2"/>
<text text-anchor="start" x="30" y="-748.3" font-family="Helvetica,sans-Serif" font-size="11.00" fill="#000000">id_integracao</text>
<polygon fill="none" stroke="#000000" points="295,-741.2 295,-763.2 600,-763.2 600,-741.2 295,-741.2"/>
<text text-anchor="start" x="298" y="-748.9" font-family="Helvetica,sans-Serif" font-size="11.00" fill="#000000">varchar[2147483647]</text>
<polygon fill="none" stroke="#000000" points="10,-719.2 10,-741.2 295,-741.2 295,-719.2 10,-719.2"/>
<text text-anchor="start" x="30" y="-726.3" font-family="Helvetica,sans-Serif" font-size="11.00" fill="#000000">id_origem</text>
<polygon fill="none" stroke="#000000" points="295,-719.2 295,-741.2 600,-741.2 600,-719.2 295,-719.2"/>
<text text-anchor="start" x="298" y="-726.9" font-family="Helvetica,sans-Serif" font-size="11.00" fill="#000000">int4[10]</text>
<polygon fill="none" stroke="#000000" points="10,-697.2 10,-719.2 295,-719.2 295,-697.2 10,-697.2"/>
<text text-anchor="start" x="30" y="-704.3" font-family="Helvetica,sans-Serif" font-size="11.00" fill="#000000">id_cloud</text>
<polygon fill="none" stroke="#000000" points="295,-697.2 295,-719.2 600,-719.2 600,-697.2 295,-697.2"/>
<text text-anchor="start" x="298" y="-704.9" font-family="Helvetica,sans-Serif" font-size="11.00" fill="#000000">int4[10]</text>
<polygon fill="none" stroke="#000000" points="10,-675.2 10,-697.2 295,-697.2 295,-675.2 10,-675.2"/>
<image xlink:href="../../images/foreignKeys.png" width="11px" height="12px" preserveAspectRatio="xMinYMin meet" x="15" y="-692.2"/>
<text text-anchor="start" x="30" y="-682.3" font-family="Helvetica,sans-Serif" font-size="11.00" fill="#000000">ano_letivo_origem_id</text>
<polygon fill="none" stroke="#000000" points="295,-675.2 295,-697.2 600,-697.2 600,-675.2 295,-675.2"/>
<text text-anchor="start" x="298" y="-682.9" font-family="Helvetica,sans-Serif" font-size="11.00" fill="#000000">int4[10]</text>
<polygon fill="none" stroke="#000000" points="10,-653.2 10,-675.2 295,-675.2 295,-653.2 10,-653.2"/>
<image xlink:href="../../images/foreignKeys.png" width="11px" height="12px" preserveAspectRatio="xMinYMin meet" x="15" y="-670.2"/>
<text text-anchor="start" x="30" y="-660.3" font-family="Helvetica,sans-Serif" font-size="11.00" fill="#000000">ano_letivo_cloud_id</text>
<polygon fill="none" stroke="#000000" points="295,-653.2 295,-675.2 600,-675.2 600,-653.2 295,-653.2"/>
<text text-anchor="start" x="298" y="-660.9" font-family="Helvetica,sans-Serif" font-size="11.00" fill="#000000">int4[10]</text>
<polygon fill="none" stroke="#000000" points="10,-631.2 10,-653.2 295,-653.2 295,-631.2 10,-631.2"/>
<image xlink:href="../../images/foreignKeys.png" width="11px" height="12px" preserveAspectRatio="xMinYMin meet" x="15" y="-648.2"/>
<text text-anchor="start" x="30" y="-638.3" font-family="Helvetica,sans-Serif" font-size="11.00" fill="#000000">estabelecimento_origem_id</text>
<polygon fill="none" stroke="#000000" points="295,-631.2 295,-653.2 600,-653.2 600,-631.2 295,-631.2"/>
<text text-anchor="start" x="298" y="-638.9" font-family="Helvetica,sans-Serif" font-size="11.00" fill="#000000">int4[10]</text>
<polygon fill="none" stroke="#000000" points="10,-609.2 10,-631.2 295,-631.2 295,-609.2 10,-609.2"/>
<image xlink:href="../../images/foreignKeys.png" width="11px" height="12px" preserveAspectRatio="xMinYMin meet" x="15" y="-626.2"/>
<text text-anchor="start" x="30" y="-616.3" font-family="Helvetica,sans-Serif" font-size="11.00" fill="#000000">estabelecimento_cloud_id</text>
<polygon fill="none" stroke="#000000" points="295,-609.2 295,-631.2 600,-631.2 600,-609.2 295,-609.2"/>
<text text-anchor="start" x="298" y="-616.9" font-family="Helvetica,sans-Serif" font-size="11.00" fill="#000000">int4[10]</text>
<polygon fill="none" stroke="#000000" points="10,-587.2 10,-609.2 295,-609.2 295,-587.2 10,-587.2"/>
<text text-anchor="start" x="30" y="-594.3" font-family="Helvetica,sans-Serif" font-size="11.00" fill="#000000">tipo</text>
<polygon fill="none" stroke="#000000" points="295,-587.2 295,-609.2 600,-609.2 600,-587.2 295,-587.2"/>
<text text-anchor="start" x="298" y="-594.9" font-family="Helvetica,sans-Serif" font-size="11.00" fill="#000000">varchar[80]</text>
<polygon fill="none" stroke="#000000" points="10,-565.2 10,-587.2 295,-587.2 295,-565.2 10,-565.2"/>
<text text-anchor="start" x="30" y="-572.3" font-family="Helvetica,sans-Serif" font-size="11.00" fill="#000000">tipo_atendimento</text>
<polygon fill="none" stroke="#000000" points="295,-565.2 295,-587.2 600,-587.2 600,-565.2 295,-565.2"/>
<text text-anchor="start" x="298" y="-572.9" font-family="Helvetica,sans-Serif" font-size="11.00" fill="#000000">&quot;educacao&quot;.&quot;tiposatendimento&quot;[2147483647]</text>
<polygon fill="none" stroke="#000000" points="10,-543.2 10,-565.2 295,-565.2 295,-543.2 10,-543.2"/>
<text text-anchor="start" x="30" y="-550.3" font-family="Helvetica,sans-Serif" font-size="11.00" fill="#000000">descricao</text>
<polygon fill="none" stroke="#000000" points="295,-543.2 295,-565.2 600,-565.2 600,-543.2 295,-543.2"/>
<text text-anchor="start" x="298" y="-550.9" font-family="Helvetica,sans-Serif" font-size="11.00" fill="#000000">varchar[80]</text>
<polygon fill="none" stroke="#000000" points="10,-521.2 10,-543.2 295,-543.2 295,-521.2 10,-521.2"/>
<text text-anchor="start" x="30" y="-528.3" font-family="Helvetica,sans-Serif" font-size="11.00" fill="#000000">observacao</text>
<polygon fill="none" stroke="#000000" points="295,-521.2 295,-543.2 600,-543.2 600,-521.2 295,-521.2"/>
<text text-anchor="start" x="298" y="-528.9" font-family="Helvetica,sans-Serif" font-size="11.00" fill="#000000">varchar[4000]</text>
<polygon fill="none" stroke="#000000" points="10,-499.2 10,-521.2 295,-521.2 295,-499.2 10,-499.2"/>
<image xlink:href="../../images/foreignKeys.png" width="11px" height="12px" preserveAspectRatio="xMinYMin meet" x="15" y="-516.2"/>
<text text-anchor="start" x="30" y="-506.3" font-family="Helvetica,sans-Serif" font-size="11.00" fill="#000000">configuracao_horas_aulas_origem_id</text>
<polygon fill="none" stroke="#000000" points="295,-499.2 295,-521.2 600,-521.2 600,-499.2 295,-499.2"/>
<text text-anchor="start" x="298" y="-506.9" font-family="Helvetica,sans-Serif" font-size="11.00" fill="#000000">int4[10]</text>
<polygon fill="none" stroke="#000000" points="10,-477.2 10,-499.2 295,-499.2 295,-477.2 10,-477.2"/>
<image xlink:href="../../images/foreignKeys.png" width="11px" height="12px" preserveAspectRatio="xMinYMin meet" x="15" y="-494.2"/>
<text text-anchor="start" x="30" y="-484.3" font-family="Helvetica,sans-Serif" font-size="11.00" fill="#000000">configuracao_horas_aulas_cloud_id</text>
<polygon fill="none" stroke="#000000" points="295,-477.2 295,-499.2 600,-499.2 600,-477.2 295,-477.2"/>
<text text-anchor="start" x="298" y="-484.9" font-family="Helvetica,sans-Serif" font-size="11.00" fill="#000000">int4[10]</text>
<polygon fill="none" stroke="#000000" points="10,-455.2 10,-477.2 295,-477.2 295,-455.2 10,-455.2"/>
<text text-anchor="start" x="30" y="-462.3" font-family="Helvetica,sans-Serif" font-size="11.00" fill="#000000">tipo_mediacao_didatico_pedagogica</text>
<polygon fill="none" stroke="#000000" points="295,-455.2 295,-477.2 600,-477.2 600,-455.2 295,-455.2"/>
<text text-anchor="start" x="297.856" y="-462.9" font-family="Helvetica,sans-Serif" font-size="11.00" fill="#000000">&quot;educacao&quot;.&quot;tiposmediacaodidaticopedagogica&quot;[2147483647]</text>
<polygon fill="none" stroke="#000000" points="10,-433.2 10,-455.2 295,-455.2 295,-433.2 10,-433.2"/>
<text text-anchor="start" x="30" y="-440.3" font-family="Helvetica,sans-Serif" font-size="11.00" fill="#000000">participa_mais_educacao</text>
<polygon fill="none" stroke="#000000" points="295,-433.2 295,-455.2 600,-455.2 600,-433.2 295,-433.2"/>
<text text-anchor="start" x="298" y="-440.9" font-family="Helvetica,sans-Serif" font-size="11.00" fill="#000000">bool[1]</text>
<polygon fill="none" stroke="#000000" points="10,-411.2 10,-433.2 295,-433.2 295,-411.2 10,-411.2"/>
<text text-anchor="start" x="30" y="-418.3" font-family="Helvetica,sans-Serif" font-size="11.00" fill="#000000">turma_bilingue_para_surdos</text>
<polygon fill="none" stroke="#000000" points="295,-411.2 295,-433.2 600,-433.2 600,-411.2 295,-411.2"/>
<text text-anchor="start" x="298" y="-418.9" font-family="Helvetica,sans-Serif" font-size="11.00" fill="#000000">bool[1]</text>
<polygon fill="none" stroke="#000000" points="10,-389.2 10,-411.2 295,-411.2 295,-389.2 10,-389.2"/>
<text text-anchor="start" x="30" y="-396.3" font-family="Helvetica,sans-Serif" font-size="11.00" fill="#000000">turno</text>
<polygon fill="none" stroke="#000000" points="295,-389.2 295,-411.2 600,-411.2 600,-389.2 295,-389.2"/>
<text text-anchor="start" x="298" y="-396.9" font-family="Helvetica,sans-Serif" font-size="11.00" fill="#000000">&quot;educacao&quot;.&quot;turnos&quot;[2147483647]</text>
<polygon fill="none" stroke="#000000" points="10,-367.2 10,-389.2 295,-389.2 295,-367.2 10,-367.2"/>
<image xlink:href="../../images/foreignKeys.png" width="11px" height="12px" preserveAspectRatio="xMinYMin meet" x="15" y="-384.2"/>
<text text-anchor="start" x="30" y="-374.3" font-family="Helvetica,sans-Serif" font-size="11.00" fill="#000000">vagas_etapa_origem_id</text>
<polygon fill="none" stroke="#000000" points="295,-367.2 295,-389.2 600,-389.2 600,-367.2 295,-367.2"/>
<text text-anchor="start" x="298" y="-374.9" font-family="Helvetica,sans-Serif" font-size="11.00" fill="#000000">int4[10]</text>
<polygon fill="none" stroke="#000000" points="10,-345.2 10,-367.2 295,-367.2 295,-345.2 10,-345.2"/>
<image xlink:href="../../images/foreignKeys.png" width="11px" height="12px" preserveAspectRatio="xMinYMin meet" x="15" y="-362.2"/>
<text text-anchor="start" x="30" y="-352.3" font-family="Helvetica,sans-Serif" font-size="11.00" fill="#000000">vagas_etapa_cloud_id</text>
<polygon fill="none" stroke="#000000" points="295,-345.2 295,-367.2 600,-367.2 600,-345.2 295,-345.2"/>
<text text-anchor="start" x="298" y="-352.9" font-family="Helvetica,sans-Serif" font-size="11.00" fill="#000000">int4[10]</text>
<polygon fill="none" stroke="#000000" points="10,-323.2 10,-345.2 295,-345.2 295,-323.2 10,-323.2"/>
<image xlink:href="../../images/foreignKeys.png" width="11px" height="12px" preserveAspectRatio="xMinYMin meet" x="15" y="-340.2"/>
<text text-anchor="start" x="30" y="-330.3" font-family="Helvetica,sans-Serif" font-size="11.00" fill="#000000">etapa_ensino_inep_origem_id</text>
<polygon fill="none" stroke="#000000" points="295,-323.2 295,-345.2 600,-345.2 600,-323.2 295,-323.2"/>
<text text-anchor="start" x="298" y="-330.9" font-family="Helvetica,sans-Serif" font-size="11.00" fill="#000000">int4[10]</text>
<polygon fill="none" stroke="#000000" points="10,-301.2 10,-323.2 295,-323.2 295,-301.2 10,-301.2"/>
<image xlink:href="../../images/foreignKeys.png" width="11px" height="12px" preserveAspectRatio="xMinYMin meet" x="15" y="-318.2"/>
<text text-anchor="start" x="30" y="-308.3" font-family="Helvetica,sans-Serif" font-size="11.00" fill="#000000">etapa_ensino_inep_cloud_id</text>
<polygon fill="none" stroke="#000000" points="295,-301.2 295,-323.2 600,-323.2 600,-301.2 295,-301.2"/>
<text text-anchor="start" x="298" y="-308.9" font-family="Helvetica,sans-Serif" font-size="11.00" fill="#000000">int4[10]</text>
<polygon fill="none" stroke="#000000" points="10,-279.2 10,-301.2 295,-301.2 295,-279.2 10,-279.2"/>
<image xlink:href="../../images/foreignKeys.png" width="11px" height="12px" preserveAspectRatio="xMinYMin meet" x="15" y="-296.2"/>
<text text-anchor="start" x="30" y="-286.3" font-family="Helvetica,sans-Serif" font-size="11.00" fill="#000000">calendario_matriz_curricular_origem_id</text>
<polygon fill="none" stroke="#000000" points="295,-279.2 295,-301.2 600,-301.2 600,-279.2 295,-279.2"/>
<text text-anchor="start" x="298" y="-286.9" font-family="Helvetica,sans-Serif" font-size="11.00" fill="#000000">int4[10]</text>
<polygon fill="none" stroke="#000000" points="10,-257.2 10,-279.2 295,-279.2 295,-257.2 10,-257.2"/>
<image xlink:href="../../images/foreignKeys.png" width="11px" height="12px" preserveAspectRatio="xMinYMin meet" x="15" y="-274.2"/>
<text text-anchor="start" x="30" y="-264.3" font-family="Helvetica,sans-Serif" font-size="11.00" fill="#000000">calendario_matriz_curricular_cloud_id</text>
<polygon fill="none" stroke="#000000" points="295,-257.2 295,-279.2 600,-279.2 600,-257.2 295,-257.2"/>
<text text-anchor="start" x="298" y="-264.9" font-family="Helvetica,sans-Serif" font-size="11.00" fill="#000000">int4[10]</text>
<polygon fill="none" stroke="#000000" points="10,-235.2 10,-257.2 295,-257.2 295,-235.2 10,-235.2"/>
<text text-anchor="start" x="30" y="-242.3" font-family="Helvetica,sans-Serif" font-size="11.00" fill="#000000">quantidade_maxima_alunos</text>
<polygon fill="none" stroke="#000000" points="295,-235.2 295,-257.2 600,-257.2 600,-235.2 295,-235.2"/>
<text text-anchor="start" x="298" y="-242.9" font-family="Helvetica,sans-Serif" font-size="11.00" fill="#000000">int2[5]</text>
<polygon fill="none" stroke="#000000" points="10,-213.2 10,-235.2 295,-235.2 295,-213.2 10,-213.2"/>
<text text-anchor="start" x="30" y="-220.3" font-family="Helvetica,sans-Serif" font-size="11.00" fill="#000000">quantidade_exames_finais</text>
<polygon fill="none" stroke="#000000" points="295,-213.2 295,-235.2 600,-235.2 600,-213.2 295,-213.2"/>
<text text-anchor="start" x="298" y="-220.9" font-family="Helvetica,sans-Serif" font-size="11.00" fill="#000000">int2[5]</text>
<polygon fill="none" stroke="#000000" points="10,-191.2 10,-213.2 295,-213.2 295,-191.2 10,-191.2"/>
<text text-anchor="start" x="30" y="-198.3" font-family="Helvetica,sans-Serif" font-size="11.00" fill="#000000">modalidade_turma</text>
<polygon fill="none" stroke="#000000" points="295,-191.2 295,-213.2 600,-213.2 600,-191.2 295,-191.2"/>
<text text-anchor="start" x="298" y="-198.9" font-family="Helvetica,sans-Serif" font-size="11.00" fill="#000000">&quot;educacao&quot;.&quot;modalidadesturma&quot;[2147483647]</text>
<polygon fill="none" stroke="#000000" points="10,-169.2 10,-191.2 295,-191.2 295,-169.2 10,-169.2"/>
<image xlink:href="../../images/foreignKeys.png" width="11px" height="12px" preserveAspectRatio="xMinYMin meet" x="15" y="-186.2"/>
<text text-anchor="start" x="30" y="-176.3" font-family="Helvetica,sans-Serif" font-size="11.00" fill="#000000">curso_educacao_profissional_inep_origem_id</text>
<polygon fill="none" stroke="#000000" points="295,-169.2 295,-191.2 600,-191.2 600,-169.2 295,-169.2"/>
<text text-anchor="start" x="298" y="-176.9" font-family="Helvetica,sans-Serif" font-size="11.00" fill="#000000">int4[10]</text>
<polygon fill="none" stroke="#000000" points="10,-147.2 10,-169.2 295,-169.2 295,-147.2 10,-147.2"/>
<image xlink:href="../../images/foreignKeys.png" width="11px" height="12px" preserveAspectRatio="xMinYMin meet" x="15" y="-164.2"/>
<text text-anchor="start" x="30" y="-154.3" font-family="Helvetica,sans-Serif" font-size="11.00" fill="#000000">curso_educacao_profissional_inep_cloud_id</text>
<polygon fill="none" stroke="#000000" points="295,-147.2 295,-169.2 600,-169.2 600,-147.2 295,-147.2"/>
<text text-anchor="start" x="298" y="-154.9" font-family="Helvetica,sans-Serif" font-size="11.00" fill="#000000">int4[10]</text>
<polygon fill="none" stroke="#000000" points="10,-125.2 10,-147.2 295,-147.2 295,-125.2 10,-125.2"/>
<text text-anchor="start" x="30" y="-132.3" font-family="Helvetica,sans-Serif" font-size="11.00" fill="#000000">tipo_registro_frequencia</text>
<polygon fill="none" stroke="#000000" points="295,-125.2 295,-147.2 600,-147.2 600,-125.2 295,-125.2"/>
<text text-anchor="start" x="298" y="-132.9" font-family="Helvetica,sans-Serif" font-size="11.00" fill="#000000">&quot;educacao&quot;.&quot;tiposregistrofrequencia&quot;[2147483647]</text>
<polygon fill="none" stroke="#000000" points="10,-103.2 10,-125.2 295,-125.2 295,-103.2 10,-103.2"/>
<text text-anchor="start" x="30" y="-110.3" font-family="Helvetica,sans-Serif" font-size="11.00" fill="#000000">tipo_resultado</text>
<polygon fill="none" stroke="#000000" points="295,-103.2 295,-125.2 600,-125.2 600,-103.2 295,-103.2"/>
<text text-anchor="start" x="298" y="-110.9" font-family="Helvetica,sans-Serif" font-size="11.00" fill="#000000">&quot;educacao&quot;.&quot;tiposresultado&quot;[2147483647]</text>
<polygon fill="none" stroke="#000000" points="10,-81.2 10,-103.2 295,-103.2 295,-81.2 10,-81.2"/>
<image xlink:href="../../images/foreignKeys.png" width="11px" height="12px" preserveAspectRatio="xMinYMin meet" x="15" y="-98.2"/>
<text text-anchor="start" x="30" y="-88.3" font-family="Helvetica,sans-Serif" font-size="11.00" fill="#000000">configuracao_avaliacao_origem_id</text>
<polygon fill="none" stroke="#000000" points="295,-81.2 295,-103.2 600,-103.2 600,-81.2 295,-81.2"/>
<text text-anchor="start" x="298" y="-88.9" font-family="Helvetica,sans-Serif" font-size="11.00" fill="#000000">int4[10]</text>
<polygon fill="none" stroke="#000000" points="10,-59.2 10,-81.2 295,-81.2 295,-59.2 10,-59.2"/>
<image xlink:href="../../images/foreignKeys.png" width="11px" height="12px" preserveAspectRatio="xMinYMin meet" x="15" y="-76.2"/>
<text text-anchor="start" x="30" y="-66.3" font-family="Helvetica,sans-Serif" font-size="11.00" fill="#000000">configuracao_avaliacao_cloud_id</text>
<polygon fill="none" stroke="#000000" points="295,-59.2 295,-81.2 600,-81.2 600,-59.2 295,-59.2"/>
<text text-anchor="start" x="298" y="-66.9" font-family="Helvetica,sans-Serif" font-size="11.00" fill="#000000">int4[10]</text>
<polygon fill="#ffffff" stroke="transparent" points="10,-40.2 10,-59.2 157,-59.2 157,-40.2 10,-40.2"/>
<polygon fill="none" stroke="#000000" points="10,-40.2 10,-59.2 157,-59.2 157,-40.2 10,-40.2"/>
<text text-anchor="start" x="13" y="-46.3" font-family="Helvetica,sans-Serif" font-size="11.00" fill="#000000">&lt; 0</text>
<polygon fill="#ffffff" stroke="transparent" points="157,-40.2 157,-59.2 295,-59.2 295,-40.2 157,-40.2"/>
<polygon fill="none" stroke="#000000" points="157,-40.2 157,-59.2 295,-59.2 295,-40.2 157,-40.2"/>
<text text-anchor="start" x="285.8862" y="-46.3" font-family="Helvetica,sans-Serif" font-size="11.00" fill="#000000"> &#160;</text>
<polygon fill="#ffffff" stroke="transparent" points="295,-40.2 295,-59.2 600,-59.2 600,-40.2 295,-40.2"/>
<polygon fill="none" stroke="#000000" points="295,-40.2 295,-59.2 600,-59.2 600,-40.2 295,-40.2"/>
<text text-anchor="start" x="581.4053" y="-46.3" font-family="Helvetica,sans-Serif" font-size="11.00" fill="#000000">0 &gt;</text>
<polygon fill="none" stroke="#000000" stroke-width="2" points="9,-39.2 9,-831.2 601,-831.2 601,-39.2 9,-39.2"/>
</a>
</g>
</g>
</g>
</svg>
