<?xml version="1.0" encoding="UTF-8" standalone="no"?>
<!DOCTYPE svg PUBLIC "-//W3C//DTD SVG 1.1//EN"
 "http://www.w3.org/Graphics/SVG/1.1/DTD/svg11.dtd">
<!-- Generated by graphviz version 2.40.1 (20161225.0304)
 -->
<!-- Title: oneDegreeRelationshipsDiagramImplied Pages: 1 -->
<svg width="896pt" height="866pt"
 viewBox="0.00 0.00 896.00 866.20" xmlns="http://www.w3.org/2000/svg" xmlns:xlink="http://www.w3.org/1999/xlink">
<g id="graph0" class="graph" transform="scale(1 1) rotate(0) translate(4 862.2)">
<title>oneDegreeRelationshipsDiagramImplied</title>
<polygon fill="#ffffff" stroke="transparent" points="-4,4 -4,-862.2 892,-862.2 892,4 -4,4"/>
<text text-anchor="middle" x="72.4936" y="-7.3" font-family="Helvetica,sans-Serif" font-size="11.00" fill="#000000">Generated by SchemaSpy</text>
<!-- turmas_eja_modular -->
<g id="node1" class="node">
<title>turmas_eja_modular</title>
<g id="a_node1"><a xlink:href="../../tables/turmas_eja_modular.html" xlink:title="turmas_eja_modular" target="_top">
<polygon fill="#ffffff" stroke="transparent" points="286,-38.2 286,-854.2 880,-854.2 880,-38.2 286,-38.2"/>
<polygon fill="#f5f5f5" stroke="transparent" points="288,-829.2 288,-852.2 878,-852.2 878,-829.2 288,-829.2"/>
<polygon fill="none" stroke="#000000" points="288,-829.2 288,-852.2 878,-852.2 878,-829.2 288,-829.2"/>
<text text-anchor="start" x="293" y="-837.8" font-family="Helvetica,sans-Serif" font-weight="bold" font-size="11.00" fill="#000000">turmas_eja_modular</text>
<text text-anchor="start" x="843.0437" y="-837.3" font-family="Helvetica,sans-Serif" font-size="11.00" fill="#000000">[table]</text>
<polygon fill="none" stroke="#000000" points="288,-807.2 288,-829.2 573,-829.2 573,-807.2 288,-807.2"/>
<text text-anchor="start" x="308" y="-814.3" font-family="Helvetica,sans-Serif" font-size="11.00" fill="#000000">sistema</text>
<polygon fill="none" stroke="#000000" points="573,-807.2 573,-829.2 878,-829.2 878,-807.2 573,-807.2"/>
<text text-anchor="start" x="576" y="-814.9" font-family="Helvetica,sans-Serif" font-size="11.00" fill="#000000">int4[10]</text>
<polygon fill="none" stroke="#000000" points="288,-785.2 288,-807.2 573,-807.2 573,-785.2 288,-785.2"/>
<text text-anchor="start" x="308" y="-792.3" font-family="Helvetica,sans-Serif" font-size="11.00" fill="#000000">tipo_registro</text>
<polygon fill="none" stroke="#000000" points="573,-785.2 573,-807.2 878,-807.2 878,-785.2 573,-785.2"/>
<text text-anchor="start" x="576" y="-792.9" font-family="Helvetica,sans-Serif" font-size="11.00" fill="#000000">text[2147483647]</text>
<polygon fill="none" stroke="#000000" points="288,-763.2 288,-785.2 573,-785.2 573,-763.2 288,-763.2"/>
<text text-anchor="start" x="308" y="-770.3" font-family="Helvetica,sans-Serif" font-size="11.00" fill="#000000">id_integracao</text>
<polygon fill="none" stroke="#000000" points="573,-763.2 573,-785.2 878,-785.2 878,-763.2 573,-763.2"/>
<text text-anchor="start" x="576" y="-770.9" font-family="Helvetica,sans-Serif" font-size="11.00" fill="#000000">varchar[2147483647]</text>
<polygon fill="none" stroke="#000000" points="288,-741.2 288,-763.2 573,-763.2 573,-741.2 288,-741.2"/>
<text text-anchor="start" x="308" y="-748.3" font-family="Helvetica,sans-Serif" font-size="11.00" fill="#000000">id_origem</text>
<polygon fill="none" stroke="#000000" points="573,-741.2 573,-763.2 878,-763.2 878,-741.2 573,-741.2"/>
<text text-anchor="start" x="576" y="-748.9" font-family="Helvetica,sans-Serif" font-size="11.00" fill="#000000">int4[10]</text>
<polygon fill="none" stroke="#000000" points="288,-719.2 288,-741.2 573,-741.2 573,-719.2 288,-719.2"/>
<text text-anchor="start" x="308" y="-726.3" font-family="Helvetica,sans-Serif" font-size="11.00" fill="#000000">id_cloud</text>
<polygon fill="none" stroke="#000000" points="573,-719.2 573,-741.2 878,-741.2 878,-719.2 573,-719.2"/>
<text text-anchor="start" x="576" y="-726.9" font-family="Helvetica,sans-Serif" font-size="11.00" fill="#000000">int4[10]</text>
<polygon fill="none" stroke="#000000" points="288,-697.2 288,-719.2 573,-719.2 573,-697.2 288,-697.2"/>
<text text-anchor="start" x="308" y="-704.3" font-family="Helvetica,sans-Serif" font-size="11.00" fill="#000000">codigo_inep</text>
<polygon fill="none" stroke="#000000" points="573,-697.2 573,-719.2 878,-719.2 878,-697.2 573,-697.2"/>
<text text-anchor="start" x="576" y="-704.9" font-family="Helvetica,sans-Serif" font-size="11.00" fill="#000000">varchar[2147483647]</text>
<polygon fill="none" stroke="#000000" points="288,-675.2 288,-697.2 573,-697.2 573,-675.2 288,-675.2"/>
<text text-anchor="start" x="308" y="-682.3" font-family="Helvetica,sans-Serif" font-size="11.00" fill="#000000">descricao</text>
<polygon fill="none" stroke="#000000" points="573,-675.2 573,-697.2 878,-697.2 878,-675.2 573,-675.2"/>
<text text-anchor="start" x="576" y="-682.9" font-family="Helvetica,sans-Serif" font-size="11.00" fill="#000000">varchar[2147483647]</text>
<polygon fill="none" stroke="#000000" points="288,-653.2 288,-675.2 573,-675.2 573,-653.2 288,-653.2"/>
<text text-anchor="start" x="308" y="-660.3" font-family="Helvetica,sans-Serif" font-size="11.00" fill="#000000">observacao</text>
<polygon fill="none" stroke="#000000" points="573,-653.2 573,-675.2 878,-675.2 878,-653.2 573,-653.2"/>
<text text-anchor="start" x="576" y="-660.9" font-family="Helvetica,sans-Serif" font-size="11.00" fill="#000000">varchar[2147483647]</text>
<polygon fill="none" stroke="#000000" points="288,-631.2 288,-653.2 573,-653.2 573,-631.2 288,-631.2"/>
<text text-anchor="start" x="308" y="-638.3" font-family="Helvetica,sans-Serif" font-size="11.00" fill="#000000">tipo_atendimento</text>
<polygon fill="none" stroke="#000000" points="573,-631.2 573,-653.2 878,-653.2 878,-631.2 573,-631.2"/>
<text text-anchor="start" x="576" y="-638.9" font-family="Helvetica,sans-Serif" font-size="11.00" fill="#000000">&quot;educacao&quot;.&quot;tiposatendimento&quot;[2147483647]</text>
<polygon fill="none" stroke="#000000" points="288,-609.2 288,-631.2 573,-631.2 573,-609.2 288,-609.2"/>
<text text-anchor="start" x="308" y="-616.3" font-family="Helvetica,sans-Serif" font-size="11.00" fill="#000000">turno</text>
<polygon fill="none" stroke="#000000" points="573,-609.2 573,-631.2 878,-631.2 878,-609.2 573,-609.2"/>
<text text-anchor="start" x="576" y="-616.9" font-family="Helvetica,sans-Serif" font-size="11.00" fill="#000000">&quot;educacao&quot;.&quot;turnos&quot;[2147483647]</text>
<polygon fill="none" stroke="#000000" points="288,-587.2 288,-609.2 573,-609.2 573,-587.2 288,-587.2"/>
<text text-anchor="start" x="308" y="-594.3" font-family="Helvetica,sans-Serif" font-size="11.00" fill="#000000">tipo</text>
<polygon fill="none" stroke="#000000" points="573,-587.2 573,-609.2 878,-609.2 878,-587.2 573,-587.2"/>
<text text-anchor="start" x="576" y="-594.9" font-family="Helvetica,sans-Serif" font-size="11.00" fill="#000000">varchar[2147483647]</text>
<polygon fill="none" stroke="#000000" points="288,-565.2 288,-587.2 573,-587.2 573,-565.2 288,-565.2"/>
<text text-anchor="start" x="308" y="-572.3" font-family="Helvetica,sans-Serif" font-size="11.00" fill="#000000">tipo_resultado</text>
<polygon fill="none" stroke="#000000" points="573,-565.2 573,-587.2 878,-587.2 878,-565.2 573,-565.2"/>
<text text-anchor="start" x="576" y="-572.9" font-family="Helvetica,sans-Serif" font-size="11.00" fill="#000000">&quot;educacao&quot;.&quot;tiposresultado&quot;[2147483647]</text>
<polygon fill="none" stroke="#000000" points="288,-543.2 288,-565.2 573,-565.2 573,-543.2 288,-543.2"/>
<text text-anchor="start" x="308" y="-550.3" font-family="Helvetica,sans-Serif" font-size="11.00" fill="#000000">tipo_mediacao_didatico_pedagogica</text>
<polygon fill="none" stroke="#000000" points="573,-543.2 573,-565.2 878,-565.2 878,-543.2 573,-543.2"/>
<text text-anchor="start" x="575.856" y="-550.9" font-family="Helvetica,sans-Serif" font-size="11.00" fill="#000000">&quot;educacao&quot;.&quot;tiposmediacaodidaticopedagogica&quot;[2147483647]</text>
<polygon fill="none" stroke="#000000" points="288,-521.2 288,-543.2 573,-543.2 573,-521.2 288,-521.2"/>
<text text-anchor="start" x="308" y="-528.3" font-family="Helvetica,sans-Serif" font-size="11.00" fill="#000000">participa_mais_educacao</text>
<polygon fill="none" stroke="#000000" points="573,-521.2 573,-543.2 878,-543.2 878,-521.2 573,-521.2"/>
<text text-anchor="start" x="576" y="-528.9" font-family="Helvetica,sans-Serif" font-size="11.00" fill="#000000">bool[1]</text>
<polygon fill="none" stroke="#000000" points="288,-499.2 288,-521.2 573,-521.2 573,-499.2 288,-499.2"/>
<text text-anchor="start" x="308" y="-506.3" font-family="Helvetica,sans-Serif" font-size="11.00" fill="#000000">turma_bilingue_para_surdos</text>
<polygon fill="none" stroke="#000000" points="573,-499.2 573,-521.2 878,-521.2 878,-499.2 573,-499.2"/>
<text text-anchor="start" x="576" y="-506.9" font-family="Helvetica,sans-Serif" font-size="11.00" fill="#000000">bool[1]</text>
<polygon fill="none" stroke="#000000" points="288,-477.2 288,-499.2 573,-499.2 573,-477.2 288,-477.2"/>
<text text-anchor="start" x="308" y="-484.3" font-family="Helvetica,sans-Serif" font-size="11.00" fill="#000000">quantidade_alunos</text>
<polygon fill="none" stroke="#000000" points="573,-477.2 573,-499.2 878,-499.2 878,-477.2 573,-477.2"/>
<text text-anchor="start" x="576" y="-484.9" font-family="Helvetica,sans-Serif" font-size="11.00" fill="#000000">int4[10]</text>
<polygon fill="none" stroke="#000000" points="288,-455.2 288,-477.2 573,-477.2 573,-455.2 288,-455.2"/>
<text text-anchor="start" x="308" y="-462.3" font-family="Helvetica,sans-Serif" font-size="11.00" fill="#000000">quantidade_maxima_alunos</text>
<polygon fill="none" stroke="#000000" points="573,-455.2 573,-477.2 878,-477.2 878,-455.2 573,-455.2"/>
<text text-anchor="start" x="576" y="-462.9" font-family="Helvetica,sans-Serif" font-size="11.00" fill="#000000">int4[10]</text>
<polygon fill="none" stroke="#000000" points="288,-433.2 288,-455.2 573,-455.2 573,-433.2 288,-433.2"/>
<text text-anchor="start" x="308" y="-440.3" font-family="Helvetica,sans-Serif" font-size="11.00" fill="#000000">quantidade_exames_finais</text>
<polygon fill="none" stroke="#000000" points="573,-433.2 573,-455.2 878,-455.2 878,-433.2 573,-433.2"/>
<text text-anchor="start" x="576" y="-440.9" font-family="Helvetica,sans-Serif" font-size="11.00" fill="#000000">int4[10]</text>
<polygon fill="none" stroke="#000000" points="288,-411.2 288,-433.2 573,-433.2 573,-411.2 288,-411.2"/>
<text text-anchor="start" x="308" y="-418.3" font-family="Helvetica,sans-Serif" font-size="11.00" fill="#000000">modalidade_turma</text>
<polygon fill="none" stroke="#000000" points="573,-411.2 573,-433.2 878,-433.2 878,-411.2 573,-411.2"/>
<text text-anchor="start" x="576" y="-418.9" font-family="Helvetica,sans-Serif" font-size="11.00" fill="#000000">&quot;educacao&quot;.&quot;modalidadesturma&quot;[2147483647]</text>
<polygon fill="none" stroke="#000000" points="288,-389.2 288,-411.2 573,-411.2 573,-389.2 288,-389.2"/>
<text text-anchor="start" x="308" y="-396.3" font-family="Helvetica,sans-Serif" font-size="11.00" fill="#000000">tipo_registro_frequencia</text>
<polygon fill="none" stroke="#000000" points="573,-389.2 573,-411.2 878,-411.2 878,-389.2 573,-389.2"/>
<text text-anchor="start" x="576" y="-396.9" font-family="Helvetica,sans-Serif" font-size="11.00" fill="#000000">&quot;educacao&quot;.&quot;tiposregistrofrequencia&quot;[2147483647]</text>
<polygon fill="none" stroke="#000000" points="288,-367.2 288,-389.2 573,-389.2 573,-367.2 288,-367.2"/>
<text text-anchor="start" x="308" y="-374.3" font-family="Helvetica,sans-Serif" font-size="11.00" fill="#000000">formas_organizacoes</text>
<polygon fill="none" stroke="#000000" points="573,-367.2 573,-389.2 878,-389.2 878,-367.2 573,-367.2"/>
<text text-anchor="start" x="576" y="-374.9" font-family="Helvetica,sans-Serif" font-size="11.00" fill="#000000">&quot;educacao&quot;.&quot;_tiposorganizacaoensino&quot;[2147483647]</text>
<polygon fill="none" stroke="#000000" points="288,-345.2 288,-367.2 573,-367.2 573,-345.2 288,-345.2"/>
<image xlink:href="../../images/foreignKeys.png" width="11px" height="12px" preserveAspectRatio="xMinYMin meet" x="293" y="-362.2"/>
<text text-anchor="start" x="308" y="-352.3" font-family="Helvetica,sans-Serif" font-size="11.00" fill="#000000">configuracao_horas_aulas_origem_id</text>
<polygon fill="none" stroke="#000000" points="573,-345.2 573,-367.2 878,-367.2 878,-345.2 573,-345.2"/>
<text text-anchor="start" x="576" y="-352.9" font-family="Helvetica,sans-Serif" font-size="11.00" fill="#000000">int4[10]</text>
<polygon fill="none" stroke="#000000" points="288,-323.2 288,-345.2 573,-345.2 573,-323.2 288,-323.2"/>
<image xlink:href="../../images/foreignKeys.png" width="11px" height="12px" preserveAspectRatio="xMinYMin meet" x="293" y="-340.2"/>
<text text-anchor="start" x="308" y="-330.3" font-family="Helvetica,sans-Serif" font-size="11.00" fill="#000000">configuracao_horas_aulas_cloud_id</text>
<polygon fill="none" stroke="#000000" points="573,-323.2 573,-345.2 878,-345.2 878,-323.2 573,-323.2"/>
<text text-anchor="start" x="576" y="-330.9" font-family="Helvetica,sans-Serif" font-size="11.00" fill="#000000">int4[10]</text>
<polygon fill="none" stroke="#000000" points="288,-301.2 288,-323.2 573,-323.2 573,-301.2 288,-301.2"/>
<image xlink:href="../../images/foreignKeys.png" width="11px" height="12px" preserveAspectRatio="xMinYMin meet" x="293" y="-318.2"/>
<text text-anchor="start" x="308" y="-308.3" font-family="Helvetica,sans-Serif" font-size="11.00" fill="#000000">etapa_ensino_inep_origem_id</text>
<polygon fill="none" stroke="#000000" points="573,-301.2 573,-323.2 878,-323.2 878,-301.2 573,-301.2"/>
<text text-anchor="start" x="576" y="-308.9" font-family="Helvetica,sans-Serif" font-size="11.00" fill="#000000">int4[10]</text>
<polygon fill="none" stroke="#000000" points="288,-279.2 288,-301.2 573,-301.2 573,-279.2 288,-279.2"/>
<image xlink:href="../../images/foreignKeys.png" width="11px" height="12px" preserveAspectRatio="xMinYMin meet" x="293" y="-296.2"/>
<text text-anchor="start" x="308" y="-286.3" font-family="Helvetica,sans-Serif" font-size="11.00" fill="#000000">etapa_ensino_inep_cloud_id</text>
<polygon fill="none" stroke="#000000" points="573,-279.2 573,-301.2 878,-301.2 878,-279.2 573,-279.2"/>
<text text-anchor="start" x="576" y="-286.9" font-family="Helvetica,sans-Serif" font-size="11.00" fill="#000000">int4[10]</text>
<polygon fill="none" stroke="#000000" points="288,-257.2 288,-279.2 573,-279.2 573,-257.2 288,-257.2"/>
<image xlink:href="../../images/foreignKeys.png" width="11px" height="12px" preserveAspectRatio="xMinYMin meet" x="293" y="-274.2"/>
<text text-anchor="start" x="308" y="-264.3" font-family="Helvetica,sans-Serif" font-size="11.00" fill="#000000">calendario_matriz_curricular_origem_id</text>
<polygon fill="none" stroke="#000000" points="573,-257.2 573,-279.2 878,-279.2 878,-257.2 573,-257.2"/>
<text text-anchor="start" x="576" y="-264.9" font-family="Helvetica,sans-Serif" font-size="11.00" fill="#000000">int4[10]</text>
<polygon fill="none" stroke="#000000" points="288,-235.2 288,-257.2 573,-257.2 573,-235.2 288,-235.2"/>
<image xlink:href="../../images/foreignKeys.png" width="11px" height="12px" preserveAspectRatio="xMinYMin meet" x="293" y="-252.2"/>
<text text-anchor="start" x="308" y="-242.3" font-family="Helvetica,sans-Serif" font-size="11.00" fill="#000000">calendario_matriz_curricular_cloud_id</text>
<polygon fill="none" stroke="#000000" points="573,-235.2 573,-257.2 878,-257.2 878,-235.2 573,-235.2"/>
<text text-anchor="start" x="576" y="-242.9" font-family="Helvetica,sans-Serif" font-size="11.00" fill="#000000">int4[10]</text>
<polygon fill="none" stroke="#000000" points="288,-213.2 288,-235.2 573,-235.2 573,-213.2 288,-213.2"/>
<image xlink:href="../../images/foreignKeys.png" width="11px" height="12px" preserveAspectRatio="xMinYMin meet" x="293" y="-230.2"/>
<text text-anchor="start" x="308" y="-220.3" font-family="Helvetica,sans-Serif" font-size="11.00" fill="#000000">curso_educacao_profissional_inep_origem_id</text>
<polygon fill="none" stroke="#000000" points="573,-213.2 573,-235.2 878,-235.2 878,-213.2 573,-213.2"/>
<text text-anchor="start" x="576" y="-220.9" font-family="Helvetica,sans-Serif" font-size="11.00" fill="#000000">int4[10]</text>
<polygon fill="none" stroke="#000000" points="288,-191.2 288,-213.2 573,-213.2 573,-191.2 288,-191.2"/>
<image xlink:href="../../images/foreignKeys.png" width="11px" height="12px" preserveAspectRatio="xMinYMin meet" x="293" y="-208.2"/>
<text text-anchor="start" x="308" y="-198.3" font-family="Helvetica,sans-Serif" font-size="11.00" fill="#000000">curso_educacao_profissional_inep_cloud_id</text>
<polygon fill="none" stroke="#000000" points="573,-191.2 573,-213.2 878,-213.2 878,-191.2 573,-191.2"/>
<text text-anchor="start" x="576" y="-198.9" font-family="Helvetica,sans-Serif" font-size="11.00" fill="#000000">int4[10]</text>
<polygon fill="none" stroke="#000000" points="288,-169.2 288,-191.2 573,-191.2 573,-169.2 288,-169.2"/>
<image xlink:href="../../images/foreignKeys.png" width="11px" height="12px" preserveAspectRatio="xMinYMin meet" x="293" y="-186.2"/>
<text text-anchor="start" x="308" y="-176.3" font-family="Helvetica,sans-Serif" font-size="11.00" fill="#000000">etapa_matriz_origem_id</text>
<polygon fill="none" stroke="#000000" points="573,-169.2 573,-191.2 878,-191.2 878,-169.2 573,-169.2"/>
<text text-anchor="start" x="576" y="-176.9" font-family="Helvetica,sans-Serif" font-size="11.00" fill="#000000">int4[10]</text>
<polygon fill="none" stroke="#000000" points="288,-147.2 288,-169.2 573,-169.2 573,-147.2 288,-147.2"/>
<image xlink:href="../../images/foreignKeys.png" width="11px" height="12px" preserveAspectRatio="xMinYMin meet" x="293" y="-164.2"/>
<text text-anchor="start" x="308" y="-154.3" font-family="Helvetica,sans-Serif" font-size="11.00" fill="#000000">etapa_matriz_cloud_id</text>
<polygon fill="none" stroke="#000000" points="573,-147.2 573,-169.2 878,-169.2 878,-147.2 573,-147.2"/>
<text text-anchor="start" x="576" y="-154.9" font-family="Helvetica,sans-Serif" font-size="11.00" fill="#000000">int4[10]</text>
<polygon fill="none" stroke="#000000" points="288,-125.2 288,-147.2 573,-147.2 573,-125.2 288,-125.2"/>
<image xlink:href="../../images/foreignKeys.png" width="11px" height="12px" preserveAspectRatio="xMinYMin meet" x="293" y="-142.2"/>
<text text-anchor="start" x="308" y="-132.3" font-family="Helvetica,sans-Serif" font-size="11.00" fill="#000000">ano_letivo_origem_id</text>
<polygon fill="none" stroke="#000000" points="573,-125.2 573,-147.2 878,-147.2 878,-125.2 573,-125.2"/>
<text text-anchor="start" x="576" y="-132.9" font-family="Helvetica,sans-Serif" font-size="11.00" fill="#000000">int4[10]</text>
<polygon fill="none" stroke="#000000" points="288,-103.2 288,-125.2 573,-125.2 573,-103.2 288,-103.2"/>
<image xlink:href="../../images/foreignKeys.png" width="11px" height="12px" preserveAspectRatio="xMinYMin meet" x="293" y="-120.2"/>
<text text-anchor="start" x="308" y="-110.3" font-family="Helvetica,sans-Serif" font-size="11.00" fill="#000000">ano_letivo_cloud_id</text>
<polygon fill="none" stroke="#000000" points="573,-103.2 573,-125.2 878,-125.2 878,-103.2 573,-103.2"/>
<text text-anchor="start" x="576" y="-110.9" font-family="Helvetica,sans-Serif" font-size="11.00" fill="#000000">int4[10]</text>
<polygon fill="none" stroke="#000000" points="288,-81.2 288,-103.2 573,-103.2 573,-81.2 288,-81.2"/>
<image xlink:href="../../images/foreignKeys.png" width="11px" height="12px" preserveAspectRatio="xMinYMin meet" x="293" y="-98.2"/>
<text text-anchor="start" x="308" y="-88.3" font-family="Helvetica,sans-Serif" font-size="11.00" fill="#000000">estabelecimento_origem_id</text>
<polygon fill="none" stroke="#000000" points="573,-81.2 573,-103.2 878,-103.2 878,-81.2 573,-81.2"/>
<text text-anchor="start" x="576" y="-88.9" font-family="Helvetica,sans-Serif" font-size="11.00" fill="#000000">int4[10]</text>
<polygon fill="none" stroke="#000000" points="288,-59.2 288,-81.2 573,-81.2 573,-59.2 288,-59.2"/>
<image xlink:href="../../images/foreignKeys.png" width="11px" height="12px" preserveAspectRatio="xMinYMin meet" x="293" y="-76.2"/>
<text text-anchor="start" x="308" y="-66.3" font-family="Helvetica,sans-Serif" font-size="11.00" fill="#000000">estabelecimento_cloud_id</text>
<polygon fill="none" stroke="#000000" points="573,-59.2 573,-81.2 878,-81.2 878,-59.2 573,-59.2"/>
<text text-anchor="start" x="576" y="-66.9" font-family="Helvetica,sans-Serif" font-size="11.00" fill="#000000">int4[10]</text>
<polygon fill="#ffffff" stroke="transparent" points="288,-40.2 288,-59.2 438,-59.2 438,-40.2 288,-40.2"/>
<polygon fill="none" stroke="#000000" points="288,-40.2 288,-59.2 438,-59.2 438,-40.2 288,-40.2"/>
<text text-anchor="start" x="291" y="-46.3" font-family="Helvetica,sans-Serif" font-size="11.00" fill="#000000">&lt; 14</text>
<polygon fill="#ffffff" stroke="transparent" points="438,-40.2 438,-59.2 573,-59.2 573,-40.2 438,-40.2"/>
<polygon fill="none" stroke="#000000" points="438,-40.2 438,-59.2 573,-59.2 573,-40.2 438,-40.2"/>
<text text-anchor="start" x="563.8862" y="-46.3" font-family="Helvetica,sans-Serif" font-size="11.00" fill="#000000"> &#160;</text>
<polygon fill="#ffffff" stroke="transparent" points="573,-40.2 573,-59.2 878,-59.2 878,-40.2 573,-40.2"/>
<polygon fill="none" stroke="#000000" points="573,-40.2 573,-59.2 878,-59.2 878,-40.2 573,-40.2"/>
<text text-anchor="start" x="859.4053" y="-46.3" font-family="Helvetica,sans-Serif" font-size="11.00" fill="#000000">0 &gt;</text>
<polygon fill="none" stroke="#000000" stroke-width="2" points="287,-39.2 287,-853.2 879,-853.2 879,-39.2 287,-39.2"/>
</a>
</g>
</g>
<!-- inscricao_lista_espera_situacoes -->
<g id="node2" class="node">
<title>inscricao_lista_espera_situacoes</title>
<g id="a_node2"><a xlink:href="../../tables/inscricao_lista_espera_situacoes.html" xlink:title="inscricao_lista_espera_situacoes" target="_top">
<polygon fill="#ffffff" stroke="transparent" points="8,-164.7 8,-247.7 237,-247.7 237,-164.7 8,-164.7"/>
<polygon fill="#f5f5f5" stroke="transparent" points="8.5,-224.2 8.5,-247.2 237.5,-247.2 237.5,-224.2 8.5,-224.2"/>
<polygon fill="none" stroke="#000000" points="8.5,-224.2 8.5,-247.2 237.5,-247.2 237.5,-224.2 8.5,-224.2"/>
<text text-anchor="start" x="13.5" y="-232.8" font-family="Helvetica,sans-Serif" font-weight="bold" font-size="11.00" fill="#000000">inscricao_lista_espera_situacoes</text>
<text text-anchor="start" x="203.0219" y="-232.3" font-family="Helvetica,sans-Serif" font-size="11.00" fill="#000000">[table]</text>
<polygon fill="none" stroke="#000000" points="8.5,-202.2 8.5,-224.2 237.5,-224.2 237.5,-202.2 8.5,-202.2"/>
<image xlink:href="../../images/primaryKeys.png" width="11px" height="12px" preserveAspectRatio="xMinYMin meet" x="13.5" y="-219.2"/>
<text text-anchor="start" x="37.5" y="-209.3" font-family="Helvetica,sans-Serif" font-size="11.00" fill="#000000">id</text>
<polygon fill="none" stroke="#000000" points="8.5,-183.2 8.5,-202.2 237.5,-202.2 237.5,-183.2 8.5,-183.2"/>
<text text-anchor="start" x="11.5" y="-189.3" font-family="Helvetica,sans-Serif" font-size="11.00" fill="#000000">...</text>
<polygon fill="#ffffff" stroke="transparent" points="8.5,-164.2 8.5,-183.2 106.5,-183.2 106.5,-164.2 8.5,-164.2"/>
<polygon fill="none" stroke="#000000" points="8.5,-164.2 8.5,-183.2 106.5,-183.2 106.5,-164.2 8.5,-164.2"/>
<text text-anchor="start" x="11.5" y="-170.3" font-family="Helvetica,sans-Serif" font-size="11.00" fill="#000000"> &#160;</text>
<polygon fill="#ffffff" stroke="transparent" points="106.5,-164.2 106.5,-183.2 161.5,-183.2 161.5,-164.2 106.5,-164.2"/>
<polygon fill="none" stroke="#000000" points="106.5,-164.2 106.5,-183.2 161.5,-183.2 161.5,-164.2 106.5,-164.2"/>
<text text-anchor="start" x="152.3862" y="-170.3" font-family="Helvetica,sans-Serif" font-size="11.00" fill="#000000"> &#160;</text>
<polygon fill="#ffffff" stroke="transparent" points="161.5,-164.2 161.5,-183.2 237.5,-183.2 237.5,-164.2 161.5,-164.2"/>
<polygon fill="none" stroke="#000000" points="161.5,-164.2 161.5,-183.2 237.5,-183.2 237.5,-164.2 161.5,-164.2"/>
<text text-anchor="start" x="206.6755" y="-170.3" font-family="Helvetica,sans-Serif" font-size="11.00" fill="#000000">596 &gt;</text>
</a>
</g>
</g>
<!-- turmas_eja_modular&#45;&gt;inscricao_lista_espera_situacoes -->
<g id="edge1" class="edge">
<title>turmas_eja_modular:w&#45;&gt;inscricao_lista_espera_situacoes:e</title>
<path fill="none" stroke="#000000" stroke-dasharray="5,2" d="M274.0064,-118.2035C248.8685,-136.7249 280.9126,-213.2 237.5,-213.2"/>
<polygon fill="#000000" stroke="#000000" points="280.3086,-116.4005 288.9902,-117.6611 284.1543,-115.3003 288,-114.2 288,-114.2 288,-114.2 284.1543,-115.3003 287.0098,-110.7389 280.3086,-116.4005 280.3086,-116.4005"/>
<ellipse fill="none" stroke="#000000" cx="277.232" cy="-117.2807" rx="3.2" ry="3.2"/>
</g>
<!-- turmas_eja_modular&#45;&gt;inscricao_lista_espera_situacoes -->
<g id="edge2" class="edge">
<title>turmas_eja_modular:w&#45;&gt;inscricao_lista_espera_situacoes:e</title>
<path fill="none" stroke="#000000" stroke-dasharray="5,2" d="M274.0801,-140.7861C254.7892,-157.3628 272.3508,-213.2 237.5,-213.2"/>
<polygon fill="#000000" stroke="#000000" points="280.4018,-138.7034 289.1265,-139.6192 284.2009,-137.4517 288,-136.2 288,-136.2 288,-136.2 284.2009,-137.4517 286.8735,-132.7808 280.4018,-138.7034 280.4018,-138.7034"/>
<ellipse fill="none" stroke="#000000" cx="277.3625" cy="-139.7047" rx="3.2" ry="3.2"/>
</g>
<!-- turmas_eja_modular&#45;&gt;inscricao_lista_espera_situacoes -->
<g id="edge3" class="edge">
<title>turmas_eja_modular:w&#45;&gt;inscricao_lista_espera_situacoes:e</title>
<path fill="none" stroke="#000000" stroke-dasharray="5,2" d="M274.0755,-242.1536C261.1224,-233.3416 258.4466,-213.2 237.5,-213.2"/>
<polygon fill="#000000" stroke="#000000" points="280.3178,-243.9675 286.9954,-249.657 284.1589,-245.0838 288,-246.2 288,-246.2 288,-246.2 284.1589,-245.0838 289.0046,-242.743 280.3178,-243.9675 280.3178,-243.9675"/>
<ellipse fill="none" stroke="#000000" cx="277.2449" cy="-243.0745" rx="3.2" ry="3.2"/>
</g>
<!-- turmas_eja_modular&#45;&gt;inscricao_lista_espera_situacoes -->
<g id="edge4" class="edge">
<title>turmas_eja_modular:w&#45;&gt;inscricao_lista_espera_situacoes:e</title>
<path fill="none" stroke="#000000" stroke-dasharray="5,2" d="M274.2934,-263.5107C258.9342,-250.2102 264.7226,-213.2 237.5,-213.2"/>
<polygon fill="#000000" stroke="#000000" points="280.4307,-265.6104 286.8347,-271.6062 284.2154,-266.9052 288,-268.2 288,-268.2 288,-268.2 284.2154,-266.9052 289.1653,-264.7938 280.4307,-265.6104 280.4307,-265.6104"/>
<ellipse fill="none" stroke="#000000" cx="277.403" cy="-264.5745" rx="3.2" ry="3.2"/>
</g>
<!-- turmas_eja_modular&#45;&gt;inscricao_lista_espera_situacoes -->
<g id="edge5" class="edge">
<title>turmas_eja_modular:w&#45;&gt;inscricao_lista_espera_situacoes:e</title>
<path fill="none" stroke="#000000" stroke-dasharray="5,2" d="M273.8314,-330.7092C241.8599,-310.87 289.8551,-213.2 237.5,-213.2"/>
<polygon fill="#000000" stroke="#000000" points="280.2323,-332.2862 287.1388,-337.6955 284.1161,-333.2431 288,-334.2 288,-334.2 288,-334.2 284.1161,-333.2431 288.8612,-330.7045 280.2323,-332.2862 280.2323,-332.2862"/>
<ellipse fill="none" stroke="#000000" cx="277.1252" cy="-331.5207" rx="3.2" ry="3.2"/>
</g>
<!-- turmas_eja_modular&#45;&gt;inscricao_lista_espera_situacoes -->
<g id="edge6" class="edge">
<title>turmas_eja_modular:w&#45;&gt;inscricao_lista_espera_situacoes:e</title>
<path fill="none" stroke="#000000" stroke-dasharray="5,2" d="M273.7915,-353.2132C233.9672,-332.678 299.1099,-213.2 237.5,-213.2"/>
<polygon fill="#000000" stroke="#000000" points="280.1711,-354.5543 287.2594,-359.723 284.0855,-355.3771 288,-356.2 288,-356.2 288,-356.2 284.0855,-355.3771 288.7406,-352.677 280.1711,-354.5543 280.1711,-354.5543"/>
<ellipse fill="none" stroke="#000000" cx="277.0395" cy="-353.896" rx="3.2" ry="3.2"/>
</g>
<!-- turmas_eja_modular&#45;&gt;inscricao_lista_espera_situacoes -->
<g id="edge7" class="edge">
<title>turmas_eja_modular:w&#45;&gt;inscricao_lista_espera_situacoes:e</title>
<path fill="none" stroke="#000000" stroke-dasharray="5,2" d="M273.6489,-203.9188C261.5992,-207.0125 254.728,-213.2 237.5,-213.2"/>
<polygon fill="#000000" stroke="#000000" points="280.0568,-203.1514 288.4281,-205.7745 284.0284,-202.6757 288,-202.2 288,-202.2 288,-202.2 284.0284,-202.6757 287.5719,-198.6255 280.0568,-203.1514 280.0568,-203.1514"/>
<ellipse fill="none" stroke="#000000" cx="276.8795" cy="-203.5319" rx="3.2" ry="3.2"/>
</g>
<!-- turmas_eja_modular&#45;&gt;inscricao_lista_espera_situacoes -->
<g id="edge8" class="edge">
<title>turmas_eja_modular:w&#45;&gt;inscricao_lista_espera_situacoes:e</title>
<path fill="none" stroke="#000000" stroke-dasharray="5,2" d="M273.6489,-222.4813C261.5992,-219.3875 254.728,-213.2 237.5,-213.2"/>
<polygon fill="#000000" stroke="#000000" points="280.0568,-223.2486 287.5719,-227.7745 284.0284,-223.7243 288,-224.2 288,-224.2 288,-224.2 284.0284,-223.7243 288.4281,-220.6255 280.0568,-223.2486 280.0568,-223.2486"/>
<ellipse fill="none" stroke="#000000" cx="276.8795" cy="-222.8681" rx="3.2" ry="3.2"/>
</g>
<!-- turmas_eja_modular&#45;&gt;inscricao_lista_espera_situacoes -->
<g id="edge9" class="edge">
<title>turmas_eja_modular:w&#45;&gt;inscricao_lista_espera_situacoes:e</title>
<path fill="none" stroke="#000000" stroke-dasharray="5,2" d="M273.7915,-73.1868C233.9672,-93.722 299.1099,-213.2 237.5,-213.2"/>
<polygon fill="#000000" stroke="#000000" points="280.1711,-71.8457 288.7406,-73.723 284.0855,-71.0229 288,-70.2 288,-70.2 288,-70.2 284.0855,-71.0229 287.2594,-66.677 280.1711,-71.8457 280.1711,-71.8457"/>
<ellipse fill="none" stroke="#000000" cx="277.0395" cy="-72.504" rx="3.2" ry="3.2"/>
</g>
<!-- turmas_eja_modular&#45;&gt;inscricao_lista_espera_situacoes -->
<g id="edge10" class="edge">
<title>turmas_eja_modular:w&#45;&gt;inscricao_lista_espera_situacoes:e</title>
<path fill="none" stroke="#000000" stroke-dasharray="5,2" d="M273.8314,-95.6908C241.8599,-115.53 289.8551,-213.2 237.5,-213.2"/>
<polygon fill="#000000" stroke="#000000" points="280.2323,-94.1138 288.8612,-95.6955 284.1161,-93.1569 288,-92.2 288,-92.2 288,-92.2 284.1161,-93.1569 287.1388,-88.7045 280.2323,-94.1138 280.2323,-94.1138"/>
<ellipse fill="none" stroke="#000000" cx="277.1252" cy="-94.8793" rx="3.2" ry="3.2"/>
</g>
<!-- turmas_eja_modular&#45;&gt;inscricao_lista_espera_situacoes -->
<g id="edge11" class="edge">
<title>turmas_eja_modular:w&#45;&gt;inscricao_lista_espera_situacoes:e</title>
<path fill="none" stroke="#000000" stroke-dasharray="5,2" d="M274.0801,-285.6139C254.7892,-269.0372 272.3508,-213.2 237.5,-213.2"/>
<polygon fill="#000000" stroke="#000000" points="280.4018,-287.6966 286.8735,-293.6192 284.2009,-288.9483 288,-290.2 288,-290.2 288,-290.2 284.2009,-288.9483 289.1265,-286.7808 280.4018,-287.6966 280.4018,-287.6966"/>
<ellipse fill="none" stroke="#000000" cx="277.3625" cy="-286.6953" rx="3.2" ry="3.2"/>
</g>
<!-- turmas_eja_modular&#45;&gt;inscricao_lista_espera_situacoes -->
<g id="edge12" class="edge">
<title>turmas_eja_modular:w&#45;&gt;inscricao_lista_espera_situacoes:e</title>
<path fill="none" stroke="#000000" stroke-dasharray="5,2" d="M274.0064,-308.1965C248.8685,-289.6751 280.9126,-213.2 237.5,-213.2"/>
<polygon fill="#000000" stroke="#000000" points="280.3086,-309.9995 287.0098,-315.6611 284.1543,-311.0997 288,-312.2 288,-312.2 288,-312.2 284.1543,-311.0997 288.9902,-308.7389 280.3086,-309.9995 280.3086,-309.9995"/>
<ellipse fill="none" stroke="#000000" cx="277.232" cy="-309.1193" rx="3.2" ry="3.2"/>
</g>
<!-- turmas_eja_modular&#45;&gt;inscricao_lista_espera_situacoes -->
<g id="edge13" class="edge">
<title>turmas_eja_modular:w&#45;&gt;inscricao_lista_espera_situacoes:e</title>
<path fill="none" stroke="#000000" stroke-dasharray="5,2" d="M274.2934,-162.8893C258.9342,-176.1898 264.7226,-213.2 237.5,-213.2"/>
<polygon fill="#000000" stroke="#000000" points="280.4307,-160.7896 289.1653,-161.6062 284.2154,-159.4948 288,-158.2 288,-158.2 288,-158.2 284.2154,-159.4948 286.8347,-154.7938 280.4307,-160.7896 280.4307,-160.7896"/>
<ellipse fill="none" stroke="#000000" cx="277.403" cy="-161.8255" rx="3.2" ry="3.2"/>
</g>
<!-- turmas_eja_modular&#45;&gt;inscricao_lista_espera_situacoes -->
<g id="edge14" class="edge">
<title>turmas_eja_modular:w&#45;&gt;inscricao_lista_espera_situacoes:e</title>
<path fill="none" stroke="#000000" stroke-dasharray="5,2" d="M274.0755,-184.2464C261.1224,-193.0584 258.4466,-213.2 237.5,-213.2"/>
<polygon fill="#000000" stroke="#000000" points="280.3178,-182.4325 289.0046,-183.657 284.1589,-181.3162 288,-180.2 288,-180.2 288,-180.2 284.1589,-181.3162 286.9954,-176.743 280.3178,-182.4325 280.3178,-182.4325"/>
<ellipse fill="none" stroke="#000000" cx="277.2449" cy="-183.3255" rx="3.2" ry="3.2"/>
</g>
</g>
</svg>
