<?xml version="1.0" encoding="UTF-8" standalone="no"?>
<!DOCTYPE svg PUBLIC "-//W3C//DTD SVG 1.1//EN"
 "http://www.w3.org/Graphics/SVG/1.1/DTD/svg11.dtd">
<!-- Generated by graphviz version 2.40.1 (20161225.0304)
 -->
<!-- Title: oneDegreeRelationshipsDiagramImplied Pages: 1 -->
<svg width="896pt" height="844pt"
 viewBox="0.00 0.00 896.00 844.20" xmlns="http://www.w3.org/2000/svg" xmlns:xlink="http://www.w3.org/1999/xlink">
<g id="graph0" class="graph" transform="scale(1 1) rotate(0) translate(4 840.2)">
<title>oneDegreeRelationshipsDiagramImplied</title>
<polygon fill="#ffffff" stroke="transparent" points="-4,4 -4,-840.2 892,-840.2 892,4 -4,4"/>
<text text-anchor="middle" x="72.4936" y="-7.3" font-family="Helvetica,sans-Serif" font-size="11.00" fill="#000000">Generated by SchemaSpy</text>
<!-- turmas -->
<g id="node1" class="node">
<title>turmas</title>
<g id="a_node1"><a xlink:href="../../tables/turmas.html" xlink:title="turmas" target="_top">
<polygon fill="#ffffff" stroke="transparent" points="286,-38.2 286,-832.2 880,-832.2 880,-38.2 286,-38.2"/>
<polygon fill="#f5f5f5" stroke="transparent" points="288,-807.2 288,-830.2 878,-830.2 878,-807.2 288,-807.2"/>
<polygon fill="none" stroke="#000000" points="288,-807.2 288,-830.2 878,-830.2 878,-807.2 288,-807.2"/>
<text text-anchor="start" x="293" y="-815.8" font-family="Helvetica,sans-Serif" font-weight="bold" font-size="11.00" fill="#000000">turmas</text>
<text text-anchor="start" x="843.0437" y="-815.3" font-family="Helvetica,sans-Serif" font-size="11.00" fill="#000000">[table]</text>
<polygon fill="none" stroke="#000000" points="288,-785.2 288,-807.2 573,-807.2 573,-785.2 288,-785.2"/>
<text text-anchor="start" x="308" y="-792.3" font-family="Helvetica,sans-Serif" font-size="11.00" fill="#000000">sistema</text>
<polygon fill="none" stroke="#000000" points="573,-785.2 573,-807.2 878,-807.2 878,-785.2 573,-785.2"/>
<text text-anchor="start" x="576" y="-792.9" font-family="Helvetica,sans-Serif" font-size="11.00" fill="#000000">int4[10]</text>
<polygon fill="none" stroke="#000000" points="288,-763.2 288,-785.2 573,-785.2 573,-763.2 288,-763.2"/>
<text text-anchor="start" x="308" y="-770.3" font-family="Helvetica,sans-Serif" font-size="11.00" fill="#000000">tipo_registro</text>
<polygon fill="none" stroke="#000000" points="573,-763.2 573,-785.2 878,-785.2 878,-763.2 573,-763.2"/>
<text text-anchor="start" x="576" y="-770.9" font-family="Helvetica,sans-Serif" font-size="11.00" fill="#000000">text[2147483647]</text>
<polygon fill="none" stroke="#000000" points="288,-741.2 288,-763.2 573,-763.2 573,-741.2 288,-741.2"/>
<text text-anchor="start" x="308" y="-748.3" font-family="Helvetica,sans-Serif" font-size="11.00" fill="#000000">id_integracao</text>
<polygon fill="none" stroke="#000000" points="573,-741.2 573,-763.2 878,-763.2 878,-741.2 573,-741.2"/>
<text text-anchor="start" x="576" y="-748.9" font-family="Helvetica,sans-Serif" font-size="11.00" fill="#000000">varchar[2147483647]</text>
<polygon fill="none" stroke="#000000" points="288,-719.2 288,-741.2 573,-741.2 573,-719.2 288,-719.2"/>
<text text-anchor="start" x="308" y="-726.3" font-family="Helvetica,sans-Serif" font-size="11.00" fill="#000000">id_origem</text>
<polygon fill="none" stroke="#000000" points="573,-719.2 573,-741.2 878,-741.2 878,-719.2 573,-719.2"/>
<text text-anchor="start" x="576" y="-726.9" font-family="Helvetica,sans-Serif" font-size="11.00" fill="#000000">int4[10]</text>
<polygon fill="none" stroke="#000000" points="288,-697.2 288,-719.2 573,-719.2 573,-697.2 288,-697.2"/>
<text text-anchor="start" x="308" y="-704.3" font-family="Helvetica,sans-Serif" font-size="11.00" fill="#000000">id_cloud</text>
<polygon fill="none" stroke="#000000" points="573,-697.2 573,-719.2 878,-719.2 878,-697.2 573,-697.2"/>
<text text-anchor="start" x="576" y="-704.9" font-family="Helvetica,sans-Serif" font-size="11.00" fill="#000000">int4[10]</text>
<polygon fill="none" stroke="#000000" points="288,-675.2 288,-697.2 573,-697.2 573,-675.2 288,-675.2"/>
<image xlink:href="../../images/foreignKeys.png" width="11px" height="12px" preserveAspectRatio="xMinYMin meet" x="293" y="-692.2"/>
<text text-anchor="start" x="308" y="-682.3" font-family="Helvetica,sans-Serif" font-size="11.00" fill="#000000">ano_letivo_origem_id</text>
<polygon fill="none" stroke="#000000" points="573,-675.2 573,-697.2 878,-697.2 878,-675.2 573,-675.2"/>
<text text-anchor="start" x="576" y="-682.9" font-family="Helvetica,sans-Serif" font-size="11.00" fill="#000000">int4[10]</text>
<polygon fill="none" stroke="#000000" points="288,-653.2 288,-675.2 573,-675.2 573,-653.2 288,-653.2"/>
<image xlink:href="../../images/foreignKeys.png" width="11px" height="12px" preserveAspectRatio="xMinYMin meet" x="293" y="-670.2"/>
<text text-anchor="start" x="308" y="-660.3" font-family="Helvetica,sans-Serif" font-size="11.00" fill="#000000">ano_letivo_cloud_id</text>
<polygon fill="none" stroke="#000000" points="573,-653.2 573,-675.2 878,-675.2 878,-653.2 573,-653.2"/>
<text text-anchor="start" x="576" y="-660.9" font-family="Helvetica,sans-Serif" font-size="11.00" fill="#000000">int4[10]</text>
<polygon fill="none" stroke="#000000" points="288,-631.2 288,-653.2 573,-653.2 573,-631.2 288,-631.2"/>
<image xlink:href="../../images/foreignKeys.png" width="11px" height="12px" preserveAspectRatio="xMinYMin meet" x="293" y="-648.2"/>
<text text-anchor="start" x="308" y="-638.3" font-family="Helvetica,sans-Serif" font-size="11.00" fill="#000000">estabelecimento_origem_id</text>
<polygon fill="none" stroke="#000000" points="573,-631.2 573,-653.2 878,-653.2 878,-631.2 573,-631.2"/>
<text text-anchor="start" x="576" y="-638.9" font-family="Helvetica,sans-Serif" font-size="11.00" fill="#000000">int4[10]</text>
<polygon fill="none" stroke="#000000" points="288,-609.2 288,-631.2 573,-631.2 573,-609.2 288,-609.2"/>
<image xlink:href="../../images/foreignKeys.png" width="11px" height="12px" preserveAspectRatio="xMinYMin meet" x="293" y="-626.2"/>
<text text-anchor="start" x="308" y="-616.3" font-family="Helvetica,sans-Serif" font-size="11.00" fill="#000000">estabelecimento_cloud_id</text>
<polygon fill="none" stroke="#000000" points="573,-609.2 573,-631.2 878,-631.2 878,-609.2 573,-609.2"/>
<text text-anchor="start" x="576" y="-616.9" font-family="Helvetica,sans-Serif" font-size="11.00" fill="#000000">int4[10]</text>
<polygon fill="none" stroke="#000000" points="288,-587.2 288,-609.2 573,-609.2 573,-587.2 288,-587.2"/>
<text text-anchor="start" x="308" y="-594.3" font-family="Helvetica,sans-Serif" font-size="11.00" fill="#000000">tipo</text>
<polygon fill="none" stroke="#000000" points="573,-587.2 573,-609.2 878,-609.2 878,-587.2 573,-587.2"/>
<text text-anchor="start" x="576" y="-594.9" font-family="Helvetica,sans-Serif" font-size="11.00" fill="#000000">varchar[80]</text>
<polygon fill="none" stroke="#000000" points="288,-565.2 288,-587.2 573,-587.2 573,-565.2 288,-565.2"/>
<text text-anchor="start" x="308" y="-572.3" font-family="Helvetica,sans-Serif" font-size="11.00" fill="#000000">tipo_atendimento</text>
<polygon fill="none" stroke="#000000" points="573,-565.2 573,-587.2 878,-587.2 878,-565.2 573,-565.2"/>
<text text-anchor="start" x="576" y="-572.9" font-family="Helvetica,sans-Serif" font-size="11.00" fill="#000000">&quot;educacao&quot;.&quot;tiposatendimento&quot;[2147483647]</text>
<polygon fill="none" stroke="#000000" points="288,-543.2 288,-565.2 573,-565.2 573,-543.2 288,-543.2"/>
<text text-anchor="start" x="308" y="-550.3" font-family="Helvetica,sans-Serif" font-size="11.00" fill="#000000">descricao</text>
<polygon fill="none" stroke="#000000" points="573,-543.2 573,-565.2 878,-565.2 878,-543.2 573,-543.2"/>
<text text-anchor="start" x="576" y="-550.9" font-family="Helvetica,sans-Serif" font-size="11.00" fill="#000000">varchar[80]</text>
<polygon fill="none" stroke="#000000" points="288,-521.2 288,-543.2 573,-543.2 573,-521.2 288,-521.2"/>
<text text-anchor="start" x="308" y="-528.3" font-family="Helvetica,sans-Serif" font-size="11.00" fill="#000000">observacao</text>
<polygon fill="none" stroke="#000000" points="573,-521.2 573,-543.2 878,-543.2 878,-521.2 573,-521.2"/>
<text text-anchor="start" x="576" y="-528.9" font-family="Helvetica,sans-Serif" font-size="11.00" fill="#000000">varchar[4000]</text>
<polygon fill="none" stroke="#000000" points="288,-499.2 288,-521.2 573,-521.2 573,-499.2 288,-499.2"/>
<image xlink:href="../../images/foreignKeys.png" width="11px" height="12px" preserveAspectRatio="xMinYMin meet" x="293" y="-516.2"/>
<text text-anchor="start" x="308" y="-506.3" font-family="Helvetica,sans-Serif" font-size="11.00" fill="#000000">configuracao_horas_aulas_origem_id</text>
<polygon fill="none" stroke="#000000" points="573,-499.2 573,-521.2 878,-521.2 878,-499.2 573,-499.2"/>
<text text-anchor="start" x="576" y="-506.9" font-family="Helvetica,sans-Serif" font-size="11.00" fill="#000000">int4[10]</text>
<polygon fill="none" stroke="#000000" points="288,-477.2 288,-499.2 573,-499.2 573,-477.2 288,-477.2"/>
<image xlink:href="../../images/foreignKeys.png" width="11px" height="12px" preserveAspectRatio="xMinYMin meet" x="293" y="-494.2"/>
<text text-anchor="start" x="308" y="-484.3" font-family="Helvetica,sans-Serif" font-size="11.00" fill="#000000">configuracao_horas_aulas_cloud_id</text>
<polygon fill="none" stroke="#000000" points="573,-477.2 573,-499.2 878,-499.2 878,-477.2 573,-477.2"/>
<text text-anchor="start" x="576" y="-484.9" font-family="Helvetica,sans-Serif" font-size="11.00" fill="#000000">int4[10]</text>
<polygon fill="none" stroke="#000000" points="288,-455.2 288,-477.2 573,-477.2 573,-455.2 288,-455.2"/>
<text text-anchor="start" x="308" y="-462.3" font-family="Helvetica,sans-Serif" font-size="11.00" fill="#000000">tipo_mediacao_didatico_pedagogica</text>
<polygon fill="none" stroke="#000000" points="573,-455.2 573,-477.2 878,-477.2 878,-455.2 573,-455.2"/>
<text text-anchor="start" x="575.856" y="-462.9" font-family="Helvetica,sans-Serif" font-size="11.00" fill="#000000">&quot;educacao&quot;.&quot;tiposmediacaodidaticopedagogica&quot;[2147483647]</text>
<polygon fill="none" stroke="#000000" points="288,-433.2 288,-455.2 573,-455.2 573,-433.2 288,-433.2"/>
<text text-anchor="start" x="308" y="-440.3" font-family="Helvetica,sans-Serif" font-size="11.00" fill="#000000">participa_mais_educacao</text>
<polygon fill="none" stroke="#000000" points="573,-433.2 573,-455.2 878,-455.2 878,-433.2 573,-433.2"/>
<text text-anchor="start" x="576" y="-440.9" font-family="Helvetica,sans-Serif" font-size="11.00" fill="#000000">bool[1]</text>
<polygon fill="none" stroke="#000000" points="288,-411.2 288,-433.2 573,-433.2 573,-411.2 288,-411.2"/>
<text text-anchor="start" x="308" y="-418.3" font-family="Helvetica,sans-Serif" font-size="11.00" fill="#000000">turma_bilingue_para_surdos</text>
<polygon fill="none" stroke="#000000" points="573,-411.2 573,-433.2 878,-433.2 878,-411.2 573,-411.2"/>
<text text-anchor="start" x="576" y="-418.9" font-family="Helvetica,sans-Serif" font-size="11.00" fill="#000000">bool[1]</text>
<polygon fill="none" stroke="#000000" points="288,-389.2 288,-411.2 573,-411.2 573,-389.2 288,-389.2"/>
<text text-anchor="start" x="308" y="-396.3" font-family="Helvetica,sans-Serif" font-size="11.00" fill="#000000">turno</text>
<polygon fill="none" stroke="#000000" points="573,-389.2 573,-411.2 878,-411.2 878,-389.2 573,-389.2"/>
<text text-anchor="start" x="576" y="-396.9" font-family="Helvetica,sans-Serif" font-size="11.00" fill="#000000">&quot;educacao&quot;.&quot;turnos&quot;[2147483647]</text>
<polygon fill="none" stroke="#000000" points="288,-367.2 288,-389.2 573,-389.2 573,-367.2 288,-367.2"/>
<image xlink:href="../../images/foreignKeys.png" width="11px" height="12px" preserveAspectRatio="xMinYMin meet" x="293" y="-384.2"/>
<text text-anchor="start" x="308" y="-374.3" font-family="Helvetica,sans-Serif" font-size="11.00" fill="#000000">vagas_etapa_origem_id</text>
<polygon fill="none" stroke="#000000" points="573,-367.2 573,-389.2 878,-389.2 878,-367.2 573,-367.2"/>
<text text-anchor="start" x="576" y="-374.9" font-family="Helvetica,sans-Serif" font-size="11.00" fill="#000000">int4[10]</text>
<polygon fill="none" stroke="#000000" points="288,-345.2 288,-367.2 573,-367.2 573,-345.2 288,-345.2"/>
<image xlink:href="../../images/foreignKeys.png" width="11px" height="12px" preserveAspectRatio="xMinYMin meet" x="293" y="-362.2"/>
<text text-anchor="start" x="308" y="-352.3" font-family="Helvetica,sans-Serif" font-size="11.00" fill="#000000">vagas_etapa_cloud_id</text>
<polygon fill="none" stroke="#000000" points="573,-345.2 573,-367.2 878,-367.2 878,-345.2 573,-345.2"/>
<text text-anchor="start" x="576" y="-352.9" font-family="Helvetica,sans-Serif" font-size="11.00" fill="#000000">int4[10]</text>
<polygon fill="none" stroke="#000000" points="288,-323.2 288,-345.2 573,-345.2 573,-323.2 288,-323.2"/>
<image xlink:href="../../images/foreignKeys.png" width="11px" height="12px" preserveAspectRatio="xMinYMin meet" x="293" y="-340.2"/>
<text text-anchor="start" x="308" y="-330.3" font-family="Helvetica,sans-Serif" font-size="11.00" fill="#000000">etapa_ensino_inep_origem_id</text>
<polygon fill="none" stroke="#000000" points="573,-323.2 573,-345.2 878,-345.2 878,-323.2 573,-323.2"/>
<text text-anchor="start" x="576" y="-330.9" font-family="Helvetica,sans-Serif" font-size="11.00" fill="#000000">int4[10]</text>
<polygon fill="none" stroke="#000000" points="288,-301.2 288,-323.2 573,-323.2 573,-301.2 288,-301.2"/>
<image xlink:href="../../images/foreignKeys.png" width="11px" height="12px" preserveAspectRatio="xMinYMin meet" x="293" y="-318.2"/>
<text text-anchor="start" x="308" y="-308.3" font-family="Helvetica,sans-Serif" font-size="11.00" fill="#000000">etapa_ensino_inep_cloud_id</text>
<polygon fill="none" stroke="#000000" points="573,-301.2 573,-323.2 878,-323.2 878,-301.2 573,-301.2"/>
<text text-anchor="start" x="576" y="-308.9" font-family="Helvetica,sans-Serif" font-size="11.00" fill="#000000">int4[10]</text>
<polygon fill="none" stroke="#000000" points="288,-279.2 288,-301.2 573,-301.2 573,-279.2 288,-279.2"/>
<image xlink:href="../../images/foreignKeys.png" width="11px" height="12px" preserveAspectRatio="xMinYMin meet" x="293" y="-296.2"/>
<text text-anchor="start" x="308" y="-286.3" font-family="Helvetica,sans-Serif" font-size="11.00" fill="#000000">calendario_matriz_curricular_origem_id</text>
<polygon fill="none" stroke="#000000" points="573,-279.2 573,-301.2 878,-301.2 878,-279.2 573,-279.2"/>
<text text-anchor="start" x="576" y="-286.9" font-family="Helvetica,sans-Serif" font-size="11.00" fill="#000000">int4[10]</text>
<polygon fill="none" stroke="#000000" points="288,-257.2 288,-279.2 573,-279.2 573,-257.2 288,-257.2"/>
<image xlink:href="../../images/foreignKeys.png" width="11px" height="12px" preserveAspectRatio="xMinYMin meet" x="293" y="-274.2"/>
<text text-anchor="start" x="308" y="-264.3" font-family="Helvetica,sans-Serif" font-size="11.00" fill="#000000">calendario_matriz_curricular_cloud_id</text>
<polygon fill="none" stroke="#000000" points="573,-257.2 573,-279.2 878,-279.2 878,-257.2 573,-257.2"/>
<text text-anchor="start" x="576" y="-264.9" font-family="Helvetica,sans-Serif" font-size="11.00" fill="#000000">int4[10]</text>
<polygon fill="none" stroke="#000000" points="288,-235.2 288,-257.2 573,-257.2 573,-235.2 288,-235.2"/>
<text text-anchor="start" x="308" y="-242.3" font-family="Helvetica,sans-Serif" font-size="11.00" fill="#000000">quantidade_maxima_alunos</text>
<polygon fill="none" stroke="#000000" points="573,-235.2 573,-257.2 878,-257.2 878,-235.2 573,-235.2"/>
<text text-anchor="start" x="576" y="-242.9" font-family="Helvetica,sans-Serif" font-size="11.00" fill="#000000">int2[5]</text>
<polygon fill="none" stroke="#000000" points="288,-213.2 288,-235.2 573,-235.2 573,-213.2 288,-213.2"/>
<text text-anchor="start" x="308" y="-220.3" font-family="Helvetica,sans-Serif" font-size="11.00" fill="#000000">quantidade_exames_finais</text>
<polygon fill="none" stroke="#000000" points="573,-213.2 573,-235.2 878,-235.2 878,-213.2 573,-213.2"/>
<text text-anchor="start" x="576" y="-220.9" font-family="Helvetica,sans-Serif" font-size="11.00" fill="#000000">int2[5]</text>
<polygon fill="none" stroke="#000000" points="288,-191.2 288,-213.2 573,-213.2 573,-191.2 288,-191.2"/>
<text text-anchor="start" x="308" y="-198.3" font-family="Helvetica,sans-Serif" font-size="11.00" fill="#000000">modalidade_turma</text>
<polygon fill="none" stroke="#000000" points="573,-191.2 573,-213.2 878,-213.2 878,-191.2 573,-191.2"/>
<text text-anchor="start" x="576" y="-198.9" font-family="Helvetica,sans-Serif" font-size="11.00" fill="#000000">&quot;educacao&quot;.&quot;modalidadesturma&quot;[2147483647]</text>
<polygon fill="none" stroke="#000000" points="288,-169.2 288,-191.2 573,-191.2 573,-169.2 288,-169.2"/>
<image xlink:href="../../images/foreignKeys.png" width="11px" height="12px" preserveAspectRatio="xMinYMin meet" x="293" y="-186.2"/>
<text text-anchor="start" x="308" y="-176.3" font-family="Helvetica,sans-Serif" font-size="11.00" fill="#000000">curso_educacao_profissional_inep_origem_id</text>
<polygon fill="none" stroke="#000000" points="573,-169.2 573,-191.2 878,-191.2 878,-169.2 573,-169.2"/>
<text text-anchor="start" x="576" y="-176.9" font-family="Helvetica,sans-Serif" font-size="11.00" fill="#000000">int4[10]</text>
<polygon fill="none" stroke="#000000" points="288,-147.2 288,-169.2 573,-169.2 573,-147.2 288,-147.2"/>
<image xlink:href="../../images/foreignKeys.png" width="11px" height="12px" preserveAspectRatio="xMinYMin meet" x="293" y="-164.2"/>
<text text-anchor="start" x="308" y="-154.3" font-family="Helvetica,sans-Serif" font-size="11.00" fill="#000000">curso_educacao_profissional_inep_cloud_id</text>
<polygon fill="none" stroke="#000000" points="573,-147.2 573,-169.2 878,-169.2 878,-147.2 573,-147.2"/>
<text text-anchor="start" x="576" y="-154.9" font-family="Helvetica,sans-Serif" font-size="11.00" fill="#000000">int4[10]</text>
<polygon fill="none" stroke="#000000" points="288,-125.2 288,-147.2 573,-147.2 573,-125.2 288,-125.2"/>
<text text-anchor="start" x="308" y="-132.3" font-family="Helvetica,sans-Serif" font-size="11.00" fill="#000000">tipo_registro_frequencia</text>
<polygon fill="none" stroke="#000000" points="573,-125.2 573,-147.2 878,-147.2 878,-125.2 573,-125.2"/>
<text text-anchor="start" x="576" y="-132.9" font-family="Helvetica,sans-Serif" font-size="11.00" fill="#000000">&quot;educacao&quot;.&quot;tiposregistrofrequencia&quot;[2147483647]</text>
<polygon fill="none" stroke="#000000" points="288,-103.2 288,-125.2 573,-125.2 573,-103.2 288,-103.2"/>
<text text-anchor="start" x="308" y="-110.3" font-family="Helvetica,sans-Serif" font-size="11.00" fill="#000000">tipo_resultado</text>
<polygon fill="none" stroke="#000000" points="573,-103.2 573,-125.2 878,-125.2 878,-103.2 573,-103.2"/>
<text text-anchor="start" x="576" y="-110.9" font-family="Helvetica,sans-Serif" font-size="11.00" fill="#000000">&quot;educacao&quot;.&quot;tiposresultado&quot;[2147483647]</text>
<polygon fill="none" stroke="#000000" points="288,-81.2 288,-103.2 573,-103.2 573,-81.2 288,-81.2"/>
<image xlink:href="../../images/foreignKeys.png" width="11px" height="12px" preserveAspectRatio="xMinYMin meet" x="293" y="-98.2"/>
<text text-anchor="start" x="308" y="-88.3" font-family="Helvetica,sans-Serif" font-size="11.00" fill="#000000">configuracao_avaliacao_origem_id</text>
<polygon fill="none" stroke="#000000" points="573,-81.2 573,-103.2 878,-103.2 878,-81.2 573,-81.2"/>
<text text-anchor="start" x="576" y="-88.9" font-family="Helvetica,sans-Serif" font-size="11.00" fill="#000000">int4[10]</text>
<polygon fill="none" stroke="#000000" points="288,-59.2 288,-81.2 573,-81.2 573,-59.2 288,-59.2"/>
<image xlink:href="../../images/foreignKeys.png" width="11px" height="12px" preserveAspectRatio="xMinYMin meet" x="293" y="-76.2"/>
<text text-anchor="start" x="308" y="-66.3" font-family="Helvetica,sans-Serif" font-size="11.00" fill="#000000">configuracao_avaliacao_cloud_id</text>
<polygon fill="none" stroke="#000000" points="573,-59.2 573,-81.2 878,-81.2 878,-59.2 573,-59.2"/>
<text text-anchor="start" x="576" y="-66.9" font-family="Helvetica,sans-Serif" font-size="11.00" fill="#000000">int4[10]</text>
<polygon fill="#ffffff" stroke="transparent" points="288,-40.2 288,-59.2 438,-59.2 438,-40.2 288,-40.2"/>
<polygon fill="none" stroke="#000000" points="288,-40.2 288,-59.2 438,-59.2 438,-40.2 288,-40.2"/>
<text text-anchor="start" x="291" y="-46.3" font-family="Helvetica,sans-Serif" font-size="11.00" fill="#000000">&lt; 16</text>
<polygon fill="#ffffff" stroke="transparent" points="438,-40.2 438,-59.2 573,-59.2 573,-40.2 438,-40.2"/>
<polygon fill="none" stroke="#000000" points="438,-40.2 438,-59.2 573,-59.2 573,-40.2 438,-40.2"/>
<text text-anchor="start" x="563.8862" y="-46.3" font-family="Helvetica,sans-Serif" font-size="11.00" fill="#000000"> &#160;</text>
<polygon fill="#ffffff" stroke="transparent" points="573,-40.2 573,-59.2 878,-59.2 878,-40.2 573,-40.2"/>
<polygon fill="none" stroke="#000000" points="573,-40.2 573,-59.2 878,-59.2 878,-40.2 573,-40.2"/>
<text text-anchor="start" x="859.4053" y="-46.3" font-family="Helvetica,sans-Serif" font-size="11.00" fill="#000000">0 &gt;</text>
<polygon fill="none" stroke="#000000" stroke-width="2" points="287,-39.2 287,-831.2 879,-831.2 879,-39.2 287,-39.2"/>
</a>
</g>
</g>
<!-- inscricao_lista_espera_situacoes -->
<g id="node2" class="node">
<title>inscricao_lista_espera_situacoes</title>
<g id="a_node2"><a xlink:href="../../tables/inscricao_lista_espera_situacoes.html" xlink:title="inscricao_lista_espera_situacoes" target="_top">
<polygon fill="#ffffff" stroke="transparent" points="8,-296.7 8,-379.7 237,-379.7 237,-296.7 8,-296.7"/>
<polygon fill="#f5f5f5" stroke="transparent" points="8.5,-356.2 8.5,-379.2 237.5,-379.2 237.5,-356.2 8.5,-356.2"/>
<polygon fill="none" stroke="#000000" points="8.5,-356.2 8.5,-379.2 237.5,-379.2 237.5,-356.2 8.5,-356.2"/>
<text text-anchor="start" x="13.5" y="-364.8" font-family="Helvetica,sans-Serif" font-weight="bold" font-size="11.00" fill="#000000">inscricao_lista_espera_situacoes</text>
<text text-anchor="start" x="203.0219" y="-364.3" font-family="Helvetica,sans-Serif" font-size="11.00" fill="#000000">[table]</text>
<polygon fill="none" stroke="#000000" points="8.5,-334.2 8.5,-356.2 237.5,-356.2 237.5,-334.2 8.5,-334.2"/>
<image xlink:href="../../images/primaryKeys.png" width="11px" height="12px" preserveAspectRatio="xMinYMin meet" x="13.5" y="-351.2"/>
<text text-anchor="start" x="37.5" y="-341.3" font-family="Helvetica,sans-Serif" font-size="11.00" fill="#000000">id</text>
<polygon fill="none" stroke="#000000" points="8.5,-315.2 8.5,-334.2 237.5,-334.2 237.5,-315.2 8.5,-315.2"/>
<text text-anchor="start" x="11.5" y="-321.3" font-family="Helvetica,sans-Serif" font-size="11.00" fill="#000000">...</text>
<polygon fill="#ffffff" stroke="transparent" points="8.5,-296.2 8.5,-315.2 106.5,-315.2 106.5,-296.2 8.5,-296.2"/>
<polygon fill="none" stroke="#000000" points="8.5,-296.2 8.5,-315.2 106.5,-315.2 106.5,-296.2 8.5,-296.2"/>
<text text-anchor="start" x="11.5" y="-302.3" font-family="Helvetica,sans-Serif" font-size="11.00" fill="#000000"> &#160;</text>
<polygon fill="#ffffff" stroke="transparent" points="106.5,-296.2 106.5,-315.2 161.5,-315.2 161.5,-296.2 106.5,-296.2"/>
<polygon fill="none" stroke="#000000" points="106.5,-296.2 106.5,-315.2 161.5,-315.2 161.5,-296.2 106.5,-296.2"/>
<text text-anchor="start" x="152.3862" y="-302.3" font-family="Helvetica,sans-Serif" font-size="11.00" fill="#000000"> &#160;</text>
<polygon fill="#ffffff" stroke="transparent" points="161.5,-296.2 161.5,-315.2 237.5,-315.2 237.5,-296.2 161.5,-296.2"/>
<polygon fill="none" stroke="#000000" points="161.5,-296.2 161.5,-315.2 237.5,-315.2 237.5,-296.2 161.5,-296.2"/>
<text text-anchor="start" x="206.6755" y="-302.3" font-family="Helvetica,sans-Serif" font-size="11.00" fill="#000000">596 &gt;</text>
</a>
</g>
</g>
<!-- turmas&#45;&gt;inscricao_lista_espera_situacoes -->
<g id="edge1" class="edge">
<title>turmas:w&#45;&gt;inscricao_lista_espera_situacoes:e</title>
<path fill="none" stroke="#000000" stroke-dasharray="5,2" d="M273.5512,-662.9147C161.4923,-640.9635 375.7165,-345.2 237.5,-345.2"/>
<polygon fill="#000000" stroke="#000000" points="280.0315,-663.4911 287.681,-667.7858 284.0157,-663.8456 288,-664.2 288,-664.2 288,-664.2 284.0157,-663.8456 288.319,-660.6142 280.0315,-663.4911 280.0315,-663.4911"/>
<ellipse fill="none" stroke="#000000" cx="276.8441" cy="-663.2076" rx="3.2" ry="3.2"/>
</g>
<!-- turmas&#45;&gt;inscricao_lista_espera_situacoes -->
<g id="edge2" class="edge">
<title>turmas:w&#45;&gt;inscricao_lista_espera_situacoes:e</title>
<path fill="none" stroke="#000000" stroke-dasharray="5,2" d="M273.3227,-684.9652C152.28,-662.6449 385.3222,-345.2 237.5,-345.2"/>
<polygon fill="#000000" stroke="#000000" points="280.0282,-685.5293 287.6982,-689.7873 284.0141,-685.8647 288,-686.2 288,-686.2 288,-686.2 284.0141,-685.8647 288.3018,-682.6127 280.0282,-685.5293 280.0282,-685.5293"/>
<ellipse fill="none" stroke="#000000" cx="276.8394" cy="-685.261" rx="3.2" ry="3.2"/>
</g>
<!-- turmas&#45;&gt;inscricao_lista_espera_situacoes -->
<g id="edge3" class="edge">
<title>turmas:w&#45;&gt;inscricao_lista_espera_situacoes:e</title>
<path fill="none" stroke="#000000" stroke-dasharray="5,2" d="M274.0801,-272.7861C254.7892,-289.3628 272.3508,-345.2 237.5,-345.2"/>
<polygon fill="#000000" stroke="#000000" points="280.4018,-270.7034 289.1265,-271.6192 284.2009,-269.4517 288,-268.2 288,-268.2 288,-268.2 284.2009,-269.4517 286.8735,-264.7808 280.4018,-270.7034 280.4018,-270.7034"/>
<ellipse fill="none" stroke="#000000" cx="277.3625" cy="-271.7047" rx="3.2" ry="3.2"/>
</g>
<!-- turmas&#45;&gt;inscricao_lista_espera_situacoes -->
<g id="edge4" class="edge">
<title>turmas:w&#45;&gt;inscricao_lista_espera_situacoes:e</title>
<path fill="none" stroke="#000000" stroke-dasharray="5,2" d="M274.2934,-294.8893C258.9342,-308.1898 264.7226,-345.2 237.5,-345.2"/>
<polygon fill="#000000" stroke="#000000" points="280.4307,-292.7896 289.1653,-293.6062 284.2154,-291.4948 288,-290.2 288,-290.2 288,-290.2 284.2154,-291.4948 286.8347,-286.7938 280.4307,-292.7896 280.4307,-292.7896"/>
<ellipse fill="none" stroke="#000000" cx="277.403" cy="-293.8255" rx="3.2" ry="3.2"/>
</g>
<!-- turmas&#45;&gt;inscricao_lista_espera_situacoes -->
<g id="edge5" class="edge">
<title>turmas:w&#45;&gt;inscricao_lista_espera_situacoes:e</title>
<path fill="none" stroke="#000000" stroke-dasharray="5,2" d="M273.4298,-71.7466C180.5168,-93.8388 356.305,-345.2 237.5,-345.2"/>
<polygon fill="#000000" stroke="#000000" points="280.0447,-71.0445 288.38,-73.7799 284.0223,-70.6222 288,-70.2 288,-70.2 288,-70.2 284.0223,-70.6222 287.62,-66.6201 280.0447,-71.0445 280.0447,-71.0445"/>
<ellipse fill="none" stroke="#000000" cx="276.8626" cy="-71.3823" rx="3.2" ry="3.2"/>
</g>
<!-- turmas&#45;&gt;inscricao_lista_espera_situacoes -->
<g id="edge6" class="edge">
<title>turmas:w&#45;&gt;inscricao_lista_espera_situacoes:e</title>
<path fill="none" stroke="#000000" stroke-dasharray="5,2" d="M273.4914,-93.8825C189.7795,-115.8336 346.6758,-345.2 237.5,-345.2"/>
<polygon fill="#000000" stroke="#000000" points="280.0533,-93.1216 288.4147,-95.776 284.0266,-92.6608 288,-92.2 288,-92.2 288,-92.2 284.0266,-92.6608 287.5853,-88.624 280.0533,-93.1216 280.0533,-93.1216"/>
<ellipse fill="none" stroke="#000000" cx="276.8746" cy="-93.4902" rx="3.2" ry="3.2"/>
</g>
<!-- turmas&#45;&gt;inscricao_lista_espera_situacoes -->
<g id="edge7" class="edge">
<title>turmas:w&#45;&gt;inscricao_lista_espera_situacoes:e</title>
<path fill="none" stroke="#000000" stroke-dasharray="5,2" d="M273.7915,-485.2132C233.9672,-464.678 299.1099,-345.2 237.5,-345.2"/>
<polygon fill="#000000" stroke="#000000" points="280.1711,-486.5543 287.2594,-491.723 284.0855,-487.3771 288,-488.2 288,-488.2 288,-488.2 284.0855,-487.3771 288.7406,-484.677 280.1711,-486.5543 280.1711,-486.5543"/>
<ellipse fill="none" stroke="#000000" cx="277.0395" cy="-485.896" rx="3.2" ry="3.2"/>
</g>
<!-- turmas&#45;&gt;inscricao_lista_espera_situacoes -->
<g id="edge8" class="edge">
<title>turmas:w&#45;&gt;inscricao_lista_espera_situacoes:e</title>
<path fill="none" stroke="#000000" stroke-dasharray="5,2" d="M273.7449,-507.6082C225.5913,-486.6167 308.4992,-345.2 237.5,-345.2"/>
<polygon fill="#000000" stroke="#000000" points="280.129,-508.7689 287.356,-513.7419 284.0645,-509.4845 288,-510.2 288,-510.2 288,-510.2 284.0645,-509.4845 288.644,-506.6581 280.129,-508.7689 280.129,-508.7689"/>
<ellipse fill="none" stroke="#000000" cx="276.9806" cy="-508.1965" rx="3.2" ry="3.2"/>
</g>
<!-- turmas&#45;&gt;inscricao_lista_espera_situacoes -->
<g id="edge9" class="edge">
<title>turmas:w&#45;&gt;inscricao_lista_espera_situacoes:e</title>
<path fill="none" stroke="#000000" stroke-dasharray="5,2" d="M273.4765,-160.5644C217.1556,-182.2113 317.8716,-345.2 237.5,-345.2"/>
<polygon fill="#000000" stroke="#000000" points="280.1039,-159.4855 288.5785,-161.7532 284.052,-158.8427 288,-158.2 288,-158.2 288,-158.2 284.052,-158.8427 287.4215,-154.6468 280.1039,-159.4855 280.1039,-159.4855"/>
<ellipse fill="none" stroke="#000000" cx="276.9455" cy="-159.9997" rx="3.2" ry="3.2"/>
</g>
<!-- turmas&#45;&gt;inscricao_lista_espera_situacoes -->
<g id="edge10" class="edge">
<title>turmas:w&#45;&gt;inscricao_lista_espera_situacoes:e</title>
<path fill="none" stroke="#000000" stroke-dasharray="5,2" d="M273.7449,-182.7918C225.5913,-203.7833 308.4992,-345.2 237.5,-345.2"/>
<polygon fill="#000000" stroke="#000000" points="280.129,-181.6311 288.644,-183.7419 284.0645,-180.9155 288,-180.2 288,-180.2 288,-180.2 284.0645,-180.9155 287.356,-176.6581 280.129,-181.6311 280.129,-181.6311"/>
<ellipse fill="none" stroke="#000000" cx="276.9806" cy="-182.2035" rx="3.2" ry="3.2"/>
</g>
<!-- turmas&#45;&gt;inscricao_lista_espera_situacoes -->
<g id="edge11" class="edge">
<title>turmas:w&#45;&gt;inscricao_lista_espera_situacoes:e</title>
<path fill="none" stroke="#000000" stroke-dasharray="5,2" d="M273.4298,-618.6534C180.5168,-596.5612 356.305,-345.2 237.5,-345.2"/>
<polygon fill="#000000" stroke="#000000" points="280.0447,-619.3555 287.62,-623.7799 284.0223,-619.7778 288,-620.2 288,-620.2 288,-620.2 284.0223,-619.7778 288.38,-616.6201 280.0447,-619.3555 280.0447,-619.3555"/>
<ellipse fill="none" stroke="#000000" cx="276.8626" cy="-619.0177" rx="3.2" ry="3.2"/>
</g>
<!-- turmas&#45;&gt;inscricao_lista_espera_situacoes -->
<g id="edge12" class="edge">
<title>turmas:w&#45;&gt;inscricao_lista_espera_situacoes:e</title>
<path fill="none" stroke="#000000" stroke-dasharray="5,2" d="M273.5609,-640.8097C170.9426,-618.8929 366.0335,-345.2 237.5,-345.2"/>
<polygon fill="#000000" stroke="#000000" points="280.0368,-641.4332 287.655,-645.7834 284.0184,-641.8166 288,-642.2 288,-642.2 288,-642.2 284.0184,-641.8166 288.345,-638.6166 280.0368,-641.4332 280.0368,-641.4332"/>
<ellipse fill="none" stroke="#000000" cx="276.8516" cy="-641.1265" rx="3.2" ry="3.2"/>
</g>
<!-- turmas&#45;&gt;inscricao_lista_espera_situacoes -->
<g id="edge13" class="edge">
<title>turmas:w&#45;&gt;inscricao_lista_espera_situacoes:e</title>
<path fill="none" stroke="#000000" stroke-dasharray="5,2" d="M274.0755,-316.2464C261.1224,-325.0584 258.4466,-345.2 237.5,-345.2"/>
<polygon fill="#000000" stroke="#000000" points="280.3178,-314.4325 289.0046,-315.657 284.1589,-313.3162 288,-312.2 288,-312.2 288,-312.2 284.1589,-313.3162 286.9954,-308.743 280.3178,-314.4325 280.3178,-314.4325"/>
<ellipse fill="none" stroke="#000000" cx="277.2449" cy="-315.3255" rx="3.2" ry="3.2"/>
</g>
<!-- turmas&#45;&gt;inscricao_lista_espera_situacoes -->
<g id="edge14" class="edge">
<title>turmas:w&#45;&gt;inscricao_lista_espera_situacoes:e</title>
<path fill="none" stroke="#000000" stroke-dasharray="5,2" d="M273.6489,-335.9188C261.5992,-339.0125 254.728,-345.2 237.5,-345.2"/>
<polygon fill="#000000" stroke="#000000" points="280.0568,-335.1514 288.4281,-337.7745 284.0284,-334.6757 288,-334.2 288,-334.2 288,-334.2 284.0284,-334.6757 287.5719,-330.6255 280.0568,-335.1514 280.0568,-335.1514"/>
<ellipse fill="none" stroke="#000000" cx="276.8795" cy="-335.5319" rx="3.2" ry="3.2"/>
</g>
<!-- turmas&#45;&gt;inscricao_lista_espera_situacoes -->
<g id="edge15" class="edge">
<title>turmas:w&#45;&gt;inscricao_lista_espera_situacoes:e</title>
<path fill="none" stroke="#000000" stroke-dasharray="5,2" d="M273.6489,-354.4813C261.5992,-351.3875 254.728,-345.2 237.5,-345.2"/>
<polygon fill="#000000" stroke="#000000" points="280.0568,-355.2486 287.5719,-359.7745 284.0284,-355.7243 288,-356.2 288,-356.2 288,-356.2 284.0284,-355.7243 288.4281,-352.6255 280.0568,-355.2486 280.0568,-355.2486"/>
<ellipse fill="none" stroke="#000000" cx="276.8795" cy="-354.8681" rx="3.2" ry="3.2"/>
</g>
<!-- turmas&#45;&gt;inscricao_lista_espera_situacoes -->
<g id="edge16" class="edge">
<title>turmas:w&#45;&gt;inscricao_lista_espera_situacoes:e</title>
<path fill="none" stroke="#000000" stroke-dasharray="5,2" d="M274.0755,-374.1536C261.1224,-365.3416 258.4466,-345.2 237.5,-345.2"/>
<polygon fill="#000000" stroke="#000000" points="280.3178,-375.9675 286.9954,-381.657 284.1589,-377.0838 288,-378.2 288,-378.2 288,-378.2 284.1589,-377.0838 289.0046,-374.743 280.3178,-375.9675 280.3178,-375.9675"/>
<ellipse fill="none" stroke="#000000" cx="277.2449" cy="-375.0745" rx="3.2" ry="3.2"/>
</g>
</g>
</svg>
