<?xml version="1.0" encoding="UTF-8" standalone="no"?>
<!DOCTYPE svg PUBLIC "-//W3C//DTD SVG 1.1//EN"
 "http://www.w3.org/Graphics/SVG/1.1/DTD/svg11.dtd">
<!-- Generated by graphviz version 2.40.1 (20161225.0304)
 -->
<!-- Title: oneDegreeRelationshipsDiagram Pages: 1 -->
<svg width="411pt" height="294pt"
 viewBox="0.00 0.00 411.00 294.20" xmlns="http://www.w3.org/2000/svg" xmlns:xlink="http://www.w3.org/1999/xlink">
<g id="graph0" class="graph" transform="scale(1 1) rotate(0) translate(4 290.2)">
<title>oneDegreeRelationshipsDiagram</title>
<polygon fill="#ffffff" stroke="transparent" points="-4,4 -4,-290.2 407,-290.2 407,4 -4,4"/>
<text text-anchor="middle" x="72.4936" y="-7.3" font-family="Helvetica,sans-Serif" font-size="11.00" fill="#000000">Generated by SchemaSpy</text>
<!-- unidades_tematicas -->
<g id="node1" class="node">
<title>unidades_tematicas</title>
<g id="a_node1"><a xlink:href="../../tables/unidades_tematicas.html" xlink:title="unidades_tematicas" target="_top">
<polygon fill="#ffffff" stroke="transparent" points="8,-38.2 8,-282.2 395,-282.2 395,-38.2 8,-38.2"/>
<polygon fill="#f5f5f5" stroke="transparent" points="10.5,-257.2 10.5,-280.2 393.5,-280.2 393.5,-257.2 10.5,-257.2"/>
<polygon fill="none" stroke="#000000" points="10.5,-257.2 10.5,-280.2 393.5,-280.2 393.5,-257.2 10.5,-257.2"/>
<text text-anchor="start" x="15.5" y="-265.8" font-family="Helvetica,sans-Serif" font-weight="bold" font-size="11.00" fill="#000000">unidades_tematicas</text>
<text text-anchor="start" x="358.5437" y="-265.3" font-family="Helvetica,sans-Serif" font-size="11.00" fill="#000000">[table]</text>
<polygon fill="none" stroke="#000000" points="10.5,-235.2 10.5,-257.2 150.5,-257.2 150.5,-235.2 10.5,-235.2"/>
<text text-anchor="start" x="30.5" y="-242.3" font-family="Helvetica,sans-Serif" font-size="11.00" fill="#000000">sistema</text>
<polygon fill="none" stroke="#000000" points="150.5,-235.2 150.5,-257.2 393.5,-257.2 393.5,-235.2 150.5,-235.2"/>
<text text-anchor="start" x="153.5" y="-242.9" font-family="Helvetica,sans-Serif" font-size="11.00" fill="#000000">int4[10]</text>
<polygon fill="none" stroke="#000000" points="10.5,-213.2 10.5,-235.2 150.5,-235.2 150.5,-213.2 10.5,-213.2"/>
<text text-anchor="start" x="30.5" y="-220.3" font-family="Helvetica,sans-Serif" font-size="11.00" fill="#000000">tipo_registro</text>
<polygon fill="none" stroke="#000000" points="150.5,-213.2 150.5,-235.2 393.5,-235.2 393.5,-213.2 150.5,-213.2"/>
<text text-anchor="start" x="153.5" y="-220.9" font-family="Helvetica,sans-Serif" font-size="11.00" fill="#000000">text[2147483647]</text>
<polygon fill="none" stroke="#000000" points="10.5,-191.2 10.5,-213.2 150.5,-213.2 150.5,-191.2 10.5,-191.2"/>
<text text-anchor="start" x="30.5" y="-198.3" font-family="Helvetica,sans-Serif" font-size="11.00" fill="#000000">id_integracao</text>
<polygon fill="none" stroke="#000000" points="150.5,-191.2 150.5,-213.2 393.5,-213.2 393.5,-191.2 150.5,-191.2"/>
<text text-anchor="start" x="153.5" y="-198.9" font-family="Helvetica,sans-Serif" font-size="11.00" fill="#000000">varchar[2147483647]</text>
<polygon fill="none" stroke="#000000" points="10.5,-169.2 10.5,-191.2 150.5,-191.2 150.5,-169.2 10.5,-169.2"/>
<text text-anchor="start" x="30.5" y="-176.3" font-family="Helvetica,sans-Serif" font-size="11.00" fill="#000000">id_origem</text>
<polygon fill="none" stroke="#000000" points="150.5,-169.2 150.5,-191.2 393.5,-191.2 393.5,-169.2 150.5,-169.2"/>
<text text-anchor="start" x="153.5" y="-176.9" font-family="Helvetica,sans-Serif" font-size="11.00" fill="#000000">int4[10]</text>
<polygon fill="none" stroke="#000000" points="10.5,-147.2 10.5,-169.2 150.5,-169.2 150.5,-147.2 10.5,-147.2"/>
<text text-anchor="start" x="30.5" y="-154.3" font-family="Helvetica,sans-Serif" font-size="11.00" fill="#000000">id_cloud</text>
<polygon fill="none" stroke="#000000" points="150.5,-147.2 150.5,-169.2 393.5,-169.2 393.5,-147.2 150.5,-147.2"/>
<text text-anchor="start" x="153.5" y="-154.9" font-family="Helvetica,sans-Serif" font-size="11.00" fill="#000000">int4[10]</text>
<polygon fill="none" stroke="#000000" points="10.5,-125.2 10.5,-147.2 150.5,-147.2 150.5,-125.2 10.5,-125.2"/>
<text text-anchor="start" x="30.5" y="-132.3" font-family="Helvetica,sans-Serif" font-size="11.00" fill="#000000">descricao</text>
<polygon fill="none" stroke="#000000" points="150.5,-125.2 150.5,-147.2 393.5,-147.2 393.5,-125.2 150.5,-125.2"/>
<text text-anchor="start" x="153.5" y="-132.9" font-family="Helvetica,sans-Serif" font-size="11.00" fill="#000000">varchar[2147483647]</text>
<polygon fill="none" stroke="#000000" points="10.5,-103.2 10.5,-125.2 150.5,-125.2 150.5,-103.2 10.5,-103.2"/>
<text text-anchor="start" x="30.5" y="-110.3" font-family="Helvetica,sans-Serif" font-size="11.00" fill="#000000">tipo</text>
<polygon fill="none" stroke="#000000" points="150.5,-103.2 150.5,-125.2 393.5,-125.2 393.5,-103.2 150.5,-103.2"/>
<text text-anchor="start" x="153.228" y="-110.9" font-family="Helvetica,sans-Serif" font-size="11.00" fill="#000000">&quot;educacao&quot;.&quot;tiposunidadetematica&quot;[2147483647]</text>
<polygon fill="none" stroke="#000000" points="10.5,-81.2 10.5,-103.2 150.5,-103.2 150.5,-81.2 10.5,-81.2"/>
<image xlink:href="../../images/foreignKeys.png" width="11px" height="12px" preserveAspectRatio="xMinYMin meet" x="15.5" y="-98.2"/>
<text text-anchor="start" x="30.5" y="-88.3" font-family="Helvetica,sans-Serif" font-size="11.00" fill="#000000">disciplina_origem_id</text>
<polygon fill="none" stroke="#000000" points="150.5,-81.2 150.5,-103.2 393.5,-103.2 393.5,-81.2 150.5,-81.2"/>
<text text-anchor="start" x="153.5" y="-88.9" font-family="Helvetica,sans-Serif" font-size="11.00" fill="#000000">int4[10]</text>
<polygon fill="none" stroke="#000000" points="10.5,-59.2 10.5,-81.2 150.5,-81.2 150.5,-59.2 10.5,-59.2"/>
<image xlink:href="../../images/foreignKeys.png" width="11px" height="12px" preserveAspectRatio="xMinYMin meet" x="15.5" y="-76.2"/>
<text text-anchor="start" x="30.5" y="-66.3" font-family="Helvetica,sans-Serif" font-size="11.00" fill="#000000">disciplina_cloud_id</text>
<polygon fill="none" stroke="#000000" points="150.5,-59.2 150.5,-81.2 393.5,-81.2 393.5,-59.2 150.5,-59.2"/>
<text text-anchor="start" x="153.5" y="-66.9" font-family="Helvetica,sans-Serif" font-size="11.00" fill="#000000">int4[10]</text>
<polygon fill="#ffffff" stroke="transparent" points="10.5,-40.2 10.5,-59.2 84.5,-59.2 84.5,-40.2 10.5,-40.2"/>
<polygon fill="none" stroke="#000000" points="10.5,-40.2 10.5,-59.2 84.5,-59.2 84.5,-40.2 10.5,-40.2"/>
<text text-anchor="start" x="13.5" y="-46.3" font-family="Helvetica,sans-Serif" font-size="11.00" fill="#000000">&lt; 0</text>
<polygon fill="#ffffff" stroke="transparent" points="84.5,-40.2 84.5,-59.2 150.5,-59.2 150.5,-40.2 84.5,-40.2"/>
<polygon fill="none" stroke="#000000" points="84.5,-40.2 84.5,-59.2 150.5,-59.2 150.5,-40.2 84.5,-40.2"/>
<text text-anchor="start" x="141.3862" y="-46.3" font-family="Helvetica,sans-Serif" font-size="11.00" fill="#000000"> &#160;</text>
<polygon fill="#ffffff" stroke="transparent" points="150.5,-40.2 150.5,-59.2 393.5,-59.2 393.5,-40.2 150.5,-40.2"/>
<polygon fill="none" stroke="#000000" points="150.5,-40.2 150.5,-59.2 393.5,-59.2 393.5,-40.2 150.5,-40.2"/>
<text text-anchor="start" x="374.9053" y="-46.3" font-family="Helvetica,sans-Serif" font-size="11.00" fill="#000000">0 &gt;</text>
<polygon fill="none" stroke="#000000" stroke-width="2" points="9,-39.2 9,-281.2 394,-281.2 394,-39.2 9,-39.2"/>
</a>
</g>
</g>
</g>
</svg>
